<svg xmlns="http://www.w3.org/2000/svg" viewBox="0 0 1200 930" font-family="Helvetica, Arial, sans-serif">
<rect width="1200" height="930" fill="white"/>
<defs>
<marker id="tip" viewBox="0 0 10 10" refX="6" refY="5" markerWidth="5.5"
 markerHeight="5.5" orient="auto"><path d="M 0 0 L 10 5 L 0 10 z"/></marker>
<marker id="arrG" viewBox="0 0 10 10" refX="8.5" refY="5" markerWidth="6"
 markerHeight="6" orient="auto"><path d="M 0 0 L 10 5 L 0 10 z"
 fill="#3a7d44"/></marker>
</defs>
<line x1="532.2" y1="240" x2="532.2" y2="876" stroke="#2867b5" stroke-width="1.3" stroke-dasharray="3 6" opacity="0.35"/>
<line x1="668.7" y1="240" x2="668.7" y2="620" stroke="#1a1a1a" stroke-width="1.3" stroke-dasharray="3 6" opacity="0.35"/>
<line x1="768.8" y1="492" x2="768.8" y2="876" stroke="#1a1a1a" stroke-width="1.3" stroke-dasharray="3 6" opacity="0.35"/>
<text x="60" y="66" font-size="31" font-weight="bold" fill="#1a1a1a" font-family="Helvetica, Arial, sans-serif">One round, on the value line: pool, kept set, and the move</text>
<text x="60" y="100" font-size="18" fill="#6b7684" font-family="Helvetica, Arial, sans-serif">Positions are mean value scores, 0–1; symbols as used throughout the post.</text>
<text x="60" y="124" font-size="18" fill="#6b7684" font-family="Helvetica, Arial, sans-serif">Mixed pool shown: 3 own + 3 outside of the 6 candidates (self-only pools are all 6 own).</text>
<text x="60" y="150" font-size="15.5" fill="#6b7684" font-family="Helvetica, Arial, sans-serif">key:</text>
<circle cx="106" cy="145" r="8" fill="#2867b5" stroke="#2867b5" stroke-width="2.5"/>
<text x="128" y="150" font-size="15.5" fill="#1a1a1a" font-family="Helvetica, Arial, sans-serif">own answers</text>
<circle cx="242.6" cy="145" r="8" fill="#d98a1f" stroke="#d98a1f" stroke-width="2.5"/>
<text x="264.6" y="150" font-size="15.5" fill="#1a1a1a" font-family="Helvetica, Arial, sans-serif">outside-source answers</text>
<circle cx="473.79999999999995" cy="145" r="8" fill="white" stroke="#1a1a1a" stroke-width="2.5"/><circle cx="473.79999999999995" cy="145" r="13" fill="none" stroke="#1a1a1a" stroke-width="2.5"/>
<text x="495.79999999999995" y="150" font-size="15.5" fill="#1a1a1a" font-family="Helvetica, Arial, sans-serif">kept (circled)</text>
<circle cx="72" cy="212" r="18" fill="#1a1a1a"/><text x="72" y="219" font-size="22" font-weight="bold" fill="white" text-anchor="middle" font-family="Helvetica, Arial, sans-serif">1</text><text x="102" y="219" font-size="20" font-weight="bold" fill="#1a1a1a" font-family="Helvetica, Arial, sans-serif">the pool</text>
<line x1="150" y1="300" x2="1060" y2="300" stroke="#6b7684" stroke-width="2"/><text x="150" y="334" font-size="16" fill="#6b7684" text-anchor="middle" font-family="Helvetica, Arial, sans-serif">0</text><text x="1060" y="334" font-size="16" fill="#6b7684" text-anchor="middle" font-family="Helvetica, Arial, sans-serif">1</text>
<circle cx="423.0" cy="300" r="8" fill="#2867b5" stroke="#2867b5" stroke-width="2.5"/>
<circle cx="532.2" cy="300" r="8" fill="#2867b5" stroke="#2867b5" stroke-width="2.5"/>
<circle cx="641.4" cy="300" r="8" fill="#2867b5" stroke="#2867b5" stroke-width="2.5"/>
<circle cx="714.2" cy="300" r="8" fill="#d98a1f" stroke="#d98a1f" stroke-width="2.5"/>
<circle cx="805.2" cy="300" r="8" fill="#d98a1f" stroke="#d98a1f" stroke-width="2.5"/>
<circle cx="896.2" cy="300" r="8" fill="#d98a1f" stroke="#d98a1f" stroke-width="2.5"/>
<line x1="532.2" y1="286" x2="532.2" y2="314" stroke="#2867b5" stroke-width="3"/>
<text x="532.2" y="278" font-size="27" font-weight="bold" fill="#2867b5" text-anchor="middle" font-style="italic" font-family="Helvetica, Arial, sans-serif">q</text>
<text x="532.2" y="256" font-size="14.5" fill="#6b7684" text-anchor="middle" font-family="Helvetica, Arial, sans-serif">own mean</text>
<line x1="668.7" y1="286" x2="668.7" y2="314" stroke="#1a1a1a" stroke-width="3"/>
<text x="668.7" y="278" font-size="27" font-weight="bold" fill="#1a1a1a" text-anchor="middle" font-style="italic" font-family="Helvetica, Arial, sans-serif">p</text>
<text x="668.7" y="256" font-size="14.5" fill="#6b7684" text-anchor="middle" font-family="Helvetica, Arial, sans-serif">pool mean</text>
<line x1="532.2" y1="347" x2="532.2" y2="365" stroke="#d98a1f" stroke-width="2.5"/>
<line x1="668.7" y1="347" x2="668.7" y2="365" stroke="#d98a1f" stroke-width="2.5"/>
<line x1="532.2" y1="356" x2="668.7" y2="356" stroke="#d98a1f" stroke-width="2.5" marker-end="url(#tip)" marker-start="url(#tip)"/>
<text x="600.5" y="382" font-size="17" font-weight="bold" fill="#d98a1f" text-anchor="middle" font-family="Helvetica, Arial, sans-serif">pool shift  (p − q)</text>
<text x="1060" y="356" font-size="15" fill="#6b7684" text-anchor="end" font-style="italic" font-family="Helvetica, Arial, sans-serif">self-only pool: p = q</text>
<circle cx="72" cy="472" r="18" fill="#1a1a1a"/><text x="72" y="479" font-size="22" font-weight="bold" fill="white" text-anchor="middle" font-family="Helvetica, Arial, sans-serif">2</text><text x="102" y="479" font-size="20" font-weight="bold" fill="#1a1a1a" font-family="Helvetica, Arial, sans-serif">the judge keeps two</text>
<line x1="150" y1="560" x2="1060" y2="560" stroke="#6b7684" stroke-width="2"/><text x="150" y="594" font-size="16" fill="#6b7684" text-anchor="middle" font-family="Helvetica, Arial, sans-serif">0</text><text x="1060" y="594" font-size="16" fill="#6b7684" text-anchor="middle" font-family="Helvetica, Arial, sans-serif">1</text>
<circle cx="423.0" cy="560" r="8" fill="#2867b5" stroke="#2867b5" stroke-width="2.5"/>
<circle cx="532.2" cy="560" r="8" fill="#2867b5" stroke="#2867b5" stroke-width="2.5"/>
<circle cx="641.4" cy="560" r="8" fill="#2867b5" stroke="#2867b5" stroke-width="2.5"/>
<circle cx="714.2" cy="560" r="8" fill="#d98a1f" stroke="#d98a1f" stroke-width="2.5"/>
<circle cx="805.2" cy="560" r="8" fill="#d98a1f" stroke="#d98a1f" stroke-width="2.5"/>
<circle cx="896.2" cy="560" r="8" fill="#d98a1f" stroke="#d98a1f" stroke-width="2.5"/>
<circle cx="641.4" cy="560" r="14" fill="none" stroke="#1a1a1a" stroke-width="3"/>
<circle cx="896.2" cy="560" r="14" fill="none" stroke="#1a1a1a" stroke-width="3"/>
<line x1="768.8" y1="546" x2="768.8" y2="574" stroke="#1a1a1a" stroke-width="3"/>
<text x="768.8" y="538" font-size="27" font-weight="bold" fill="#1a1a1a" text-anchor="middle" font-style="italic" font-family="Helvetica, Arial, sans-serif">k</text>
<text x="768.8" y="516" font-size="14.5" fill="#6b7684" text-anchor="middle" font-family="Helvetica, Arial, sans-serif">kept mean</text>
<line x1="532.2" y1="549" x2="532.2" y2="571" stroke="#2867b5" stroke-width="2"/><text x="532.2" y="540" font-size="19" font-weight="bold" font-style="italic" fill="#2867b5" text-anchor="middle" font-family="Helvetica, Arial, sans-serif">q</text>
<line x1="668.7" y1="549" x2="668.7" y2="571" stroke="#1a1a1a" stroke-width="2"/><text x="668.7" y="540" font-size="19" font-weight="bold" font-style="italic" fill="#1a1a1a" text-anchor="middle" font-family="Helvetica, Arial, sans-serif">p</text>
<line x1="668.7" y1="603" x2="668.7" y2="621" stroke="#3a7d44" stroke-width="2.5"/>
<line x1="768.8" y1="603" x2="768.8" y2="621" stroke="#3a7d44" stroke-width="2.5"/>
<line x1="668.7" y1="612" x2="768.8" y2="612" stroke="#3a7d44" stroke-width="2.5" marker-end="url(#tip)" marker-start="url(#tip)"/>
<text x="718.8" y="638" font-size="17" font-weight="bold" fill="#3a7d44" text-anchor="middle" font-family="Helvetica, Arial, sans-serif">selector gap   g = k − p</text>
<circle cx="72" cy="752" r="18" fill="#1a1a1a"/><text x="72" y="759" font-size="22" font-weight="bold" fill="white" text-anchor="middle" font-family="Helvetica, Arial, sans-serif">3</text><text x="102" y="759" font-size="20" font-weight="bold" fill="#1a1a1a" font-family="Helvetica, Arial, sans-serif">training moves the value</text>
<line x1="150" y1="800" x2="1060" y2="800" stroke="#6b7684" stroke-width="2"/><text x="150" y="834" font-size="16" fill="#6b7684" text-anchor="middle" font-family="Helvetica, Arial, sans-serif">0</text><text x="1060" y="834" font-size="16" fill="#6b7684" text-anchor="middle" font-family="Helvetica, Arial, sans-serif">1</text>
<circle cx="423.0" cy="800" r="6" fill="none" stroke="#6b7684" stroke-width="1.6" opacity="0.5"/>
<circle cx="532.2" cy="800" r="6" fill="none" stroke="#6b7684" stroke-width="1.6" opacity="0.5"/>
<circle cx="641.4" cy="800" r="6" fill="none" stroke="#6b7684" stroke-width="1.6" opacity="0.5"/>
<line x1="546.2" y1="800" x2="752.8" y2="800" stroke="#3a7d44" stroke-width="6" marker-end="url(#arrG)"/>
<circle cx="768.8" cy="800" r="9" fill="#3a7d44" stroke="#3a7d44" stroke-width="2.5"/>
<rect x="700.8" y="760" width="136" height="24" fill="white"/>
<text x="768.8" y="778" font-size="20" font-weight="bold" font-style="italic" fill="#3a7d44" text-anchor="middle" font-family="Helvetica, Arial, sans-serif">new value ≈ k</text>
<text x="650.5" y="840" font-size="17" font-weight="bold" fill="#3a7d44" text-anchor="middle" font-family="Helvetica, Arial, sans-serif">the value moves to the kept mean</text>
<line x1="532.2" y1="867" x2="532.2" y2="885" stroke="#1a1a1a" stroke-width="2.5"/>
<line x1="768.8" y1="867" x2="768.8" y2="885" stroke="#1a1a1a" stroke-width="2.5"/>
<line x1="532.2" y1="876" x2="768.8" y2="876" stroke="#1a1a1a" stroke-width="2.5" marker-end="url(#tip)" marker-start="url(#tip)"/>
<text x="650.5" y="902" font-size="17" font-weight="bold" fill="#1a1a1a" text-anchor="middle" font-family="Helvetica, Arial, sans-serif">training displacement = k − q  =  gap + pool shift</text>
</svg>