<svg xmlns="http://www.w3.org/2000/svg" viewBox="0 0 1200 856" font-family="Helvetica, Arial, sans-serif">
<rect width="1200" height="856" fill="white"/>
<defs>
<marker id="tipEnd" viewBox="0 0 10 10" refX="10" refY="5" markerWidth="5.5"
 markerHeight="5.5" orient="auto"><path d="M 0 0 L 10 5 L 0 10 z"/></marker>
<marker id="tipStart" viewBox="0 0 10 10" refX="0" refY="5" markerWidth="5.5"
 markerHeight="5.5" orient="auto"><path d="M 10 0 L 0 5 L 10 10 z"/></marker>
<marker id="arrG" viewBox="0 0 10 10" refX="8.5" refY="5" markerWidth="6"
 markerHeight="6" orient="auto"><path d="M 0 0 L 10 5 L 0 10 z"
 fill="#3a7d44"/></marker>
</defs>
<line x1="532.2" y1="226" x2="532.2" y2="802" stroke="#2867b5" stroke-width="1.3" stroke-dasharray="3 6" opacity="0.35"/>
<line x1="668.7" y1="226" x2="668.7" y2="574" stroke="#1a1a1a" stroke-width="1.3" stroke-dasharray="3 6" opacity="0.35"/>
<line x1="768.8" y1="446" x2="768.8" y2="802" stroke="#1a1a1a" stroke-width="1.3" stroke-dasharray="3 6" opacity="0.35"/>
<text x="60" y="66" font-size="31" font-weight="bold" fill="#1a1a1a" font-family="Helvetica, Arial, sans-serif">One round, on the value line: pool, kept set, and the move</text>
<text x="60" y="100" font-size="18" fill="#6b7684" font-family="Helvetica, Arial, sans-serif">Positions are mean value scores, 0–1; symbols as used throughout the post.</text>
<text x="60" y="124" font-size="18" fill="#6b7684" font-family="Helvetica, Arial, sans-serif">Mixed pool shown: 3 own + 3 outside of the 6 candidates (self-only pools are all 6 own).</text>
<text x="60" y="150" font-size="15.5" fill="#6b7684" font-family="Helvetica, Arial, sans-serif">key:</text>
<circle cx="106" cy="145" r="8" fill="#2867b5" stroke="#2867b5" stroke-width="2.5"/>
<text x="128" y="150" font-size="15.5" fill="#1a1a1a" font-family="Helvetica, Arial, sans-serif">own candidates</text>
<circle cx="268.4" cy="145" r="8" fill="#d98a1f" stroke="#d98a1f" stroke-width="2.5"/>
<text x="290.4" y="150" font-size="15.5" fill="#1a1a1a" font-family="Helvetica, Arial, sans-serif">outside-source candidates</text>
<circle cx="525.4" cy="145" r="8" fill="white" stroke="#1a1a1a" stroke-width="2.5"/><circle cx="525.4" cy="145" r="13" fill="none" stroke="#1a1a1a" stroke-width="2.5"/>
<text x="547.4" y="150" font-size="15.5" fill="#1a1a1a" font-family="Helvetica, Arial, sans-serif">kept (circled)</text>
<circle cx="72" cy="198" r="18" fill="#1a1a1a"/><text x="72" y="205" font-size="22" font-weight="bold" fill="white" text-anchor="middle" font-family="Helvetica, Arial, sans-serif">1</text><text x="102" y="205" font-size="20" font-weight="bold" fill="#1a1a1a" font-family="Helvetica, Arial, sans-serif">the pool</text>
<line x1="150" y1="286" x2="1060" y2="286" stroke="#6b7684" stroke-width="2"/><text x="150" y="320" font-size="16" fill="#6b7684" text-anchor="middle" font-family="Helvetica, Arial, sans-serif">0</text><text x="1060" y="320" font-size="16" fill="#6b7684" text-anchor="middle" font-family="Helvetica, Arial, sans-serif">1</text>
<circle cx="423.0" cy="286" r="8" fill="#2867b5" stroke="#2867b5" stroke-width="2.5"/>
<circle cx="532.2" cy="286" r="8" fill="#2867b5" stroke="#2867b5" stroke-width="2.5"/>
<circle cx="641.4" cy="286" r="8" fill="#2867b5" stroke="#2867b5" stroke-width="2.5"/>
<circle cx="714.2" cy="286" r="8" fill="#d98a1f" stroke="#d98a1f" stroke-width="2.5"/>
<circle cx="805.2" cy="286" r="8" fill="#d98a1f" stroke="#d98a1f" stroke-width="2.5"/>
<circle cx="896.2" cy="286" r="8" fill="#d98a1f" stroke="#d98a1f" stroke-width="2.5"/>
<line x1="532.2" y1="272" x2="532.2" y2="300" stroke="#2867b5" stroke-width="3"/>
<text x="532.2" y="264" font-size="27" font-weight="bold" fill="#2867b5" text-anchor="middle" font-style="italic" font-family="Helvetica, Arial, sans-serif">q</text>
<text x="532.2" y="242" font-size="14.5" fill="#6b7684" text-anchor="middle" font-family="Helvetica, Arial, sans-serif">own mean</text>
<line x1="668.7" y1="272" x2="668.7" y2="300" stroke="#1a1a1a" stroke-width="3"/>
<text x="668.7" y="264" font-size="27" font-weight="bold" fill="#1a1a1a" text-anchor="middle" font-style="italic" font-family="Helvetica, Arial, sans-serif">p</text>
<text x="668.7" y="242" font-size="14.5" fill="#6b7684" text-anchor="middle" font-family="Helvetica, Arial, sans-serif">pool mean</text>
<line x1="532.2" y1="333" x2="532.2" y2="351" stroke="#d98a1f" stroke-width="2.5"/>
<line x1="668.7" y1="333" x2="668.7" y2="351" stroke="#d98a1f" stroke-width="2.5"/>
<line x1="532.2" y1="342" x2="668.7" y2="342" stroke="#d98a1f" stroke-width="2.5" marker-end="url(#tipEnd)" marker-start="url(#tipStart)"/>
<text x="600.5" y="368" font-size="17" font-weight="bold" fill="#d98a1f" text-anchor="middle" font-family="Helvetica, Arial, sans-serif">pool shift  (p − q)</text>
<text x="1060" y="342" font-size="15" fill="#6b7684" text-anchor="end" font-style="italic" font-family="Helvetica, Arial, sans-serif">self-only pool: p = q</text>
<circle cx="72" cy="426" r="18" fill="#1a1a1a"/><text x="72" y="433" font-size="22" font-weight="bold" fill="white" text-anchor="middle" font-family="Helvetica, Arial, sans-serif">2</text><text x="102" y="433" font-size="20" font-weight="bold" fill="#1a1a1a" font-family="Helvetica, Arial, sans-serif">the judge keeps two</text>
<line x1="150" y1="514" x2="1060" y2="514" stroke="#6b7684" stroke-width="2"/><text x="150" y="548" font-size="16" fill="#6b7684" text-anchor="middle" font-family="Helvetica, Arial, sans-serif">0</text><text x="1060" y="548" font-size="16" fill="#6b7684" text-anchor="middle" font-family="Helvetica, Arial, sans-serif">1</text>
<circle cx="423.0" cy="514" r="8" fill="#2867b5" stroke="#2867b5" stroke-width="2.5"/>
<circle cx="532.2" cy="514" r="8" fill="#2867b5" stroke="#2867b5" stroke-width="2.5"/>
<circle cx="641.4" cy="514" r="8" fill="#2867b5" stroke="#2867b5" stroke-width="2.5"/>
<circle cx="714.2" cy="514" r="8" fill="#d98a1f" stroke="#d98a1f" stroke-width="2.5"/>
<circle cx="805.2" cy="514" r="8" fill="#d98a1f" stroke="#d98a1f" stroke-width="2.5"/>
<circle cx="896.2" cy="514" r="8" fill="#d98a1f" stroke="#d98a1f" stroke-width="2.5"/>
<circle cx="641.4" cy="514" r="14" fill="none" stroke="#1a1a1a" stroke-width="3"/>
<circle cx="896.2" cy="514" r="14" fill="none" stroke="#1a1a1a" stroke-width="3"/>
<line x1="768.8" y1="500" x2="768.8" y2="528" stroke="#1a1a1a" stroke-width="3"/>
<text x="768.8" y="492" font-size="27" font-weight="bold" fill="#1a1a1a" text-anchor="middle" font-style="italic" font-family="Helvetica, Arial, sans-serif">k</text>
<text x="768.8" y="470" font-size="14.5" fill="#6b7684" text-anchor="middle" font-family="Helvetica, Arial, sans-serif">kept mean</text>
<line x1="532.2" y1="503" x2="532.2" y2="525" stroke="#2867b5" stroke-width="2"/><text x="532.2" y="494" font-size="19" font-weight="bold" font-style="italic" fill="#2867b5" text-anchor="middle" font-family="Helvetica, Arial, sans-serif">q</text>
<line x1="668.7" y1="503" x2="668.7" y2="525" stroke="#1a1a1a" stroke-width="2"/><text x="668.7" y="494" font-size="19" font-weight="bold" font-style="italic" fill="#1a1a1a" text-anchor="middle" font-family="Helvetica, Arial, sans-serif">p</text>
<line x1="668.7" y1="557" x2="668.7" y2="575" stroke="#3a7d44" stroke-width="2.5"/>
<line x1="768.8" y1="557" x2="768.8" y2="575" stroke="#3a7d44" stroke-width="2.5"/>
<line x1="668.7" y1="566" x2="768.8" y2="566" stroke="#3a7d44" stroke-width="2.5" marker-end="url(#tipEnd)" marker-start="url(#tipStart)"/>
<text x="718.8" y="592" font-size="17" font-weight="bold" fill="#3a7d44" text-anchor="middle" font-family="Helvetica, Arial, sans-serif">selector gap   g = k − p</text>
<circle cx="72" cy="678" r="18" fill="#1a1a1a"/><text x="72" y="685" font-size="22" font-weight="bold" fill="white" text-anchor="middle" font-family="Helvetica, Arial, sans-serif">3</text><text x="102" y="685" font-size="20" font-weight="bold" fill="#1a1a1a" font-family="Helvetica, Arial, sans-serif">training moves the value</text>
<line x1="150" y1="726" x2="1060" y2="726" stroke="#6b7684" stroke-width="2"/><text x="150" y="760" font-size="16" fill="#6b7684" text-anchor="middle" font-family="Helvetica, Arial, sans-serif">0</text><text x="1060" y="760" font-size="16" fill="#6b7684" text-anchor="middle" font-family="Helvetica, Arial, sans-serif">1</text>
<circle cx="423.0" cy="726" r="6" fill="none" stroke="#6b7684" stroke-width="1.6" opacity="0.5"/>
<circle cx="532.2" cy="726" r="6" fill="none" stroke="#6b7684" stroke-width="1.6" opacity="0.5"/>
<circle cx="641.4" cy="726" r="6" fill="none" stroke="#6b7684" stroke-width="1.6" opacity="0.5"/>
<line x1="546.2" y1="726" x2="752.8" y2="726" stroke="#3a7d44" stroke-width="6" marker-end="url(#arrG)"/>
<circle cx="768.8" cy="726" r="9" fill="#3a7d44" stroke="#3a7d44" stroke-width="2.5"/>
<rect x="700.8" y="686" width="136" height="24" fill="white"/>
<text x="768.8" y="704" font-size="20" font-weight="bold" font-style="italic" fill="#3a7d44" text-anchor="middle" font-family="Helvetica, Arial, sans-serif">new value ≈ k</text>
<line x1="532.2" y1="793" x2="532.2" y2="811" stroke="#1a1a1a" stroke-width="2.5"/>
<line x1="768.8" y1="793" x2="768.8" y2="811" stroke="#1a1a1a" stroke-width="2.5"/>
<line x1="532.2" y1="802" x2="768.8" y2="802" stroke="#1a1a1a" stroke-width="2.5" marker-end="url(#tipEnd)" marker-start="url(#tipStart)"/>
<text x="650.5" y="828" font-size="17" font-weight="bold" fill="#1a1a1a" text-anchor="middle" font-family="Helvetica, Arial, sans-serif">training displacement = k − q  =  gap + pool shift</text>
</svg>