<svg xmlns="http://www.w3.org/2000/svg" viewBox="0 0 1600 732" font-family="Helvetica, Arial, sans-serif">
<rect width="1600" height="732" fill="white"/>
<defs>
<marker id="tipEnd" viewBox="0 0 10 10" refX="10" refY="5" markerWidth="5.5"
 markerHeight="5.5" orient="auto"><path d="M 0 0 L 10 5 L 0 10 z"/></marker>
<marker id="tipStart" viewBox="0 0 10 10" refX="0" refY="5" markerWidth="5.5"
 markerHeight="5.5" orient="auto"><path d="M 10 0 L 0 5 L 10 10 z"/></marker>
<marker id="arrG" viewBox="0 0 10 10" refX="8.5" refY="5" markerWidth="6"
 markerHeight="6" orient="auto"><path d="M 0 0 L 10 5 L 0 10 z"
 fill="#3a7d44"/></marker>
</defs>
<line x1="712.2" y1="214" x2="712.2" y2="652" stroke="#2867b5" stroke-width="1.3" stroke-dasharray="3 6" opacity="0.35"/>
<line x1="848.7" y1="214" x2="848.7" y2="460" stroke="#1a1a1a" stroke-width="1.3" stroke-dasharray="3 6" opacity="0.35"/>
<line x1="948.8" y1="386" x2="948.8" y2="652" stroke="#1a1a1a" stroke-width="1.3" stroke-dasharray="3 6" opacity="0.35"/>
<text x="60" y="66" font-size="37.2" font-weight="bold" fill="#1a1a1a" font-family="Helvetica, Arial, sans-serif">One round, on the value line: pool, kept set, and the move</text>
<text x="60" y="100" font-size="21.6" fill="#6b7684" font-family="Helvetica, Arial, sans-serif">The line is the 0–1 value-score axis: dots are single candidates; the ticks q, p, k are means over sets of them.</text>
<text x="60" y="124" font-size="21.6" fill="#6b7684" font-family="Helvetica, Arial, sans-serif">Mixed pool shown: 3 own + 3 outside of the 6 candidates (self-only pools are all 6 own).</text>
<text x="60" y="150" font-size="18.6" fill="#6b7684" font-family="Helvetica, Arial, sans-serif">key:</text>
<circle cx="106" cy="145" r="8" fill="#2867b5" stroke="#2867b5" stroke-width="2.5"/>
<text x="128" y="150" font-size="18.6" fill="#1a1a1a" font-family="Helvetica, Arial, sans-serif">own candidates</text>
<circle cx="300.20000000000005" cy="145" r="8" fill="#d98a1f" stroke="#d98a1f" stroke-width="2.5"/>
<text x="322.20000000000005" y="150" font-size="18.6" fill="#1a1a1a" font-family="Helvetica, Arial, sans-serif">outside-source candidates</text>
<circle cx="607.7" cy="145" r="8" fill="white" stroke="#1a1a1a" stroke-width="2.5"/><circle cx="607.7" cy="145" r="13" fill="none" stroke="#1a1a1a" stroke-width="2.5"/>
<text x="629.7" y="150" font-size="18.6" fill="#1a1a1a" font-family="Helvetica, Arial, sans-serif">kept (circled)</text>
<circle cx="86" cy="240" r="18" fill="#1a1a1a"/><text x="86" y="247" font-size="26.4" font-weight="bold" fill="white" text-anchor="middle" font-family="Helvetica, Arial, sans-serif">1</text><text x="116" y="242" font-size="22" font-weight="bold" fill="#1a1a1a" font-family="Helvetica, Arial, sans-serif">the pool</text>
<line x1="330" y1="248" x2="1240" y2="248" stroke="#6b7684" stroke-width="2"/><text x="330" y="282" font-size="19.2" fill="#6b7684" text-anchor="middle" font-family="Helvetica, Arial, sans-serif">0</text><text x="1240" y="282" font-size="19.2" fill="#6b7684" text-anchor="middle" font-family="Helvetica, Arial, sans-serif">1</text>
<circle cx="603.0" cy="248" r="8" fill="#2867b5" stroke="#2867b5" stroke-width="2.5"/>
<circle cx="712.2" cy="248" r="8" fill="#2867b5" stroke="#2867b5" stroke-width="2.5"/>
<circle cx="821.4" cy="248" r="8" fill="#2867b5" stroke="#2867b5" stroke-width="2.5"/>
<circle cx="894.2" cy="248" r="8" fill="#d98a1f" stroke="#d98a1f" stroke-width="2.5"/>
<circle cx="985.2" cy="248" r="8" fill="#d98a1f" stroke="#d98a1f" stroke-width="2.5"/>
<circle cx="1076.2" cy="248" r="8" fill="#d98a1f" stroke="#d98a1f" stroke-width="2.5"/>
<line x1="712.2" y1="234" x2="712.2" y2="262" stroke="#2867b5" stroke-width="3"/>
<text x="712.2" y="226" font-size="32" font-weight="bold" fill="#2867b5" text-anchor="middle" font-style="italic" font-family="Helvetica, Arial, sans-serif">q</text>
<text x="712.2" y="204" font-size="17.4" fill="#6b7684" text-anchor="middle" font-family="Helvetica, Arial, sans-serif">own mean</text>
<line x1="848.7" y1="234" x2="848.7" y2="262" stroke="#1a1a1a" stroke-width="3"/>
<text x="848.7" y="226" font-size="32" font-weight="bold" fill="#1a1a1a" text-anchor="middle" font-style="italic" font-family="Helvetica, Arial, sans-serif">p</text>
<text x="848.7" y="204" font-size="17.4" fill="#6b7684" text-anchor="middle" font-family="Helvetica, Arial, sans-serif">pool mean</text>
<line x1="712.2" y1="295" x2="712.2" y2="313" stroke="#d98a1f" stroke-width="2.5"/>
<line x1="848.7" y1="295" x2="848.7" y2="313" stroke="#d98a1f" stroke-width="2.5"/>
<line x1="712.2" y1="304" x2="848.7" y2="304" stroke="#d98a1f" stroke-width="2.5" marker-end="url(#tipEnd)" marker-start="url(#tipStart)"/>
<text x="780.5" y="330" font-size="20.4" font-weight="bold" fill="#d98a1f" text-anchor="middle" font-family="Helvetica, Arial, sans-serif">pool shift  (p − q)</text>
<text x="1240" y="304" font-size="18" fill="#6b7684" text-anchor="end" font-style="italic" font-family="Helvetica, Arial, sans-serif">self-only pool: p = q</text>
<circle cx="86" cy="392" r="18" fill="#1a1a1a"/><text x="86" y="399" font-size="26.4" font-weight="bold" fill="white" text-anchor="middle" font-family="Helvetica, Arial, sans-serif">2</text><text x="116" y="382" font-size="22" font-weight="bold" fill="#1a1a1a" font-family="Helvetica, Arial, sans-serif">the judge</text><text x="116" y="406" font-size="22" font-weight="bold" fill="#1a1a1a" font-family="Helvetica, Arial, sans-serif">keeps two</text>
<line x1="330" y1="400" x2="1240" y2="400" stroke="#6b7684" stroke-width="2"/><text x="330" y="434" font-size="19.2" fill="#6b7684" text-anchor="middle" font-family="Helvetica, Arial, sans-serif">0</text><text x="1240" y="434" font-size="19.2" fill="#6b7684" text-anchor="middle" font-family="Helvetica, Arial, sans-serif">1</text>
<circle cx="603.0" cy="400" r="8" fill="#2867b5" stroke="#2867b5" stroke-width="2.5"/>
<circle cx="712.2" cy="400" r="8" fill="#2867b5" stroke="#2867b5" stroke-width="2.5"/>
<circle cx="821.4" cy="400" r="8" fill="#2867b5" stroke="#2867b5" stroke-width="2.5"/>
<circle cx="894.2" cy="400" r="8" fill="#d98a1f" stroke="#d98a1f" stroke-width="2.5"/>
<circle cx="985.2" cy="400" r="8" fill="#d98a1f" stroke="#d98a1f" stroke-width="2.5"/>
<circle cx="1076.2" cy="400" r="8" fill="#d98a1f" stroke="#d98a1f" stroke-width="2.5"/>
<circle cx="821.4" cy="400" r="14" fill="none" stroke="#1a1a1a" stroke-width="3"/>
<circle cx="1076.2" cy="400" r="14" fill="none" stroke="#1a1a1a" stroke-width="3"/>
<line x1="948.8" y1="386" x2="948.8" y2="414" stroke="#1a1a1a" stroke-width="3"/>
<text x="948.8" y="378" font-size="32" font-weight="bold" fill="#1a1a1a" text-anchor="middle" font-style="italic" font-family="Helvetica, Arial, sans-serif">k</text>
<text x="948.8" y="356" font-size="17.4" fill="#6b7684" text-anchor="middle" font-family="Helvetica, Arial, sans-serif">kept mean</text>
<line x1="712.2" y1="389" x2="712.2" y2="411" stroke="#2867b5" stroke-width="2"/><text x="712.2" y="380" font-size="22.8" font-weight="bold" font-style="italic" fill="#2867b5" text-anchor="middle" font-family="Helvetica, Arial, sans-serif">q</text>
<line x1="848.7" y1="389" x2="848.7" y2="411" stroke="#1a1a1a" stroke-width="2"/><text x="848.7" y="380" font-size="22.8" font-weight="bold" font-style="italic" fill="#1a1a1a" text-anchor="middle" font-family="Helvetica, Arial, sans-serif">p</text>
<line x1="848.7" y1="443" x2="848.7" y2="461" stroke="#3a7d44" stroke-width="2.5"/>
<line x1="948.8" y1="443" x2="948.8" y2="461" stroke="#3a7d44" stroke-width="2.5"/>
<line x1="848.7" y1="452" x2="948.8" y2="452" stroke="#3a7d44" stroke-width="2.5" marker-end="url(#tipEnd)" marker-start="url(#tipStart)"/>
<text x="898.8" y="478" font-size="20.4" font-weight="bold" fill="#3a7d44" text-anchor="middle" font-family="Helvetica, Arial, sans-serif">selector gap   g = k − p</text>
<circle cx="86" cy="568" r="18" fill="#1a1a1a"/><text x="86" y="575" font-size="26.4" font-weight="bold" fill="white" text-anchor="middle" font-family="Helvetica, Arial, sans-serif">3</text><text x="116" y="558" font-size="22" font-weight="bold" fill="#1a1a1a" font-family="Helvetica, Arial, sans-serif">training moves</text><text x="116" y="582" font-size="22" font-weight="bold" fill="#1a1a1a" font-family="Helvetica, Arial, sans-serif">the value</text>
<line x1="330" y1="576" x2="1240" y2="576" stroke="#6b7684" stroke-width="2"/><text x="330" y="610" font-size="19.2" fill="#6b7684" text-anchor="middle" font-family="Helvetica, Arial, sans-serif">0</text><text x="1240" y="610" font-size="19.2" fill="#6b7684" text-anchor="middle" font-family="Helvetica, Arial, sans-serif">1</text>
<circle cx="603.0" cy="576" r="6" fill="none" stroke="#6b7684" stroke-width="1.6" opacity="0.5"/>
<circle cx="712.2" cy="576" r="6" fill="none" stroke="#6b7684" stroke-width="1.6" opacity="0.5"/>
<circle cx="821.4" cy="576" r="6" fill="none" stroke="#6b7684" stroke-width="1.6" opacity="0.5"/>
<line x1="726.2" y1="576" x2="932.8" y2="576" stroke="#3a7d44" stroke-width="6" marker-end="url(#arrG)"/>
<circle cx="948.8" cy="576" r="9" fill="#3a7d44" stroke="#3a7d44" stroke-width="2.5"/>
<rect x="880.8" y="536" width="136" height="24" fill="white"/>
<text x="948.8" y="554" font-size="19" font-weight="bold" font-style="italic" fill="#3a7d44" text-anchor="middle" font-family="Helvetica, Arial, sans-serif">new value ≈ k</text>
<line x1="712.2" y1="643" x2="712.2" y2="661" stroke="#1a1a1a" stroke-width="2.5"/>
<line x1="948.8" y1="643" x2="948.8" y2="661" stroke="#1a1a1a" stroke-width="2.5"/>
<line x1="712.2" y1="652" x2="948.8" y2="652" stroke="#1a1a1a" stroke-width="2.5" marker-end="url(#tipEnd)" marker-start="url(#tipStart)"/>
<text x="830.5" y="678" font-size="20.4" font-weight="bold" fill="#1a1a1a" text-anchor="middle" font-family="Helvetica, Arial, sans-serif">training displacement = k − q  =  gap + pool shift</text>
</svg>