<svg xmlns="http://www.w3.org/2000/svg" viewBox="0 0 1660 460" font-family="Helvetica, Arial, sans-serif">
<rect width="1660" height="460" fill="white"/>
<path d="M 420.0 235.0 A 320.0 125.0 0 0 1 740.0 110.0" fill="none" stroke="#6b7684" stroke-width="4"/>
<path d="M 740.0 110.0 A 320.0 125.0 0 0 1 1060.0 235.0" fill="none" stroke="#6b7684" stroke-width="4"/>
<path d="M 1060.0 235.0 A 320.0 125.0 0 0 1 420.0 235.0" fill="none" stroke="#6b7684" stroke-width="4"/>
<path d="M 524.9 142.2 L 507.6 157.4 L 501.9 142.8 z" fill="#6b7684"/>
<path d="M 977.5 151.0 L 954.5 150.4 L 960.2 135.9 z" fill="#6b7684"/>
<path d="M 888.3 345.9 L 907.6 333.5 L 911.1 348.8 z" fill="#6b7684"/>
<path d="M 568.3 340.6 L 591.1 337.8 L 587.6 353.0 z" fill="#6b7684"/>
<rect x="386.4" y="208.6" width="67.2" height="52.8" rx="12.0" fill="white" stroke="#2867b5" stroke-width="3.4"/>
<circle cx="408.0" cy="233.8" r="4.8" fill="#2867b5"/>
<circle cx="432.0" cy="233.8" r="4.8" fill="#2867b5"/>
<path d="M 405.6 248.2 Q 420.0 257.8 434.4 248.2" stroke="#2867b5" stroke-width="3.4" fill="none"/>
<line x1="420.0" y1="208.6" x2="420.0" y2="196.6" stroke="#2867b5" stroke-width="3.4"/>
<circle cx="420.0" cy="193.0" r="4.8" fill="#2867b5"/>
<text x="420.0" y="297.0" text-anchor="middle" font-family="Helvetica, Arial, sans-serif" font-size="21" font-weight="bold" fill="#2867b5" stroke="white" stroke-width="9" paint-order="stroke" stroke-linejoin="round">today's model</text>
<rect x="698" y="78" width="72" height="54" rx="8" fill="white" stroke="#2867b5" stroke-width="2.6"/>
<rect x="707" y="86" width="72" height="54" rx="8" fill="white" stroke="#2867b5" stroke-width="2.6"/>
<rect x="716" y="94" width="72" height="54" rx="8" fill="#f4f7fb" stroke="#2867b5" stroke-width="2.6"/>
<line x1="728" y1="106" x2="776" y2="106" stroke="#6b7684" stroke-width="3" stroke-linecap="round"/>
<line x1="728" y1="118" x2="776" y2="118" stroke="#6b7684" stroke-width="3" stroke-linecap="round"/>
<line x1="728" y1="130" x2="776" y2="130" stroke="#6b7684" stroke-width="3" stroke-linecap="round"/>
<rect x="1026.4" y="208.6" width="67.2" height="52.8" rx="12.0" fill="#eef3fa" stroke="#6f97cc" stroke-width="3.4"/>
<circle cx="1048.0" cy="233.8" r="4.8" fill="#6f97cc"/>
<circle cx="1072.0" cy="233.8" r="4.8" fill="#6f97cc"/>
<path d="M 1045.6 248.2 Q 1060.0 257.8 1074.4 248.2" stroke="#6f97cc" stroke-width="3.4" fill="none"/>
<line x1="1060.0" y1="208.6" x2="1060.0" y2="196.6" stroke="#6f97cc" stroke-width="3.4"/>
<circle cx="1060.0" cy="193.0" r="4.8" fill="#6f97cc"/>
<text x="1060.0" y="297.0" text-anchor="middle" font-family="Helvetica, Arial, sans-serif" font-size="21" font-weight="bold" fill="#6f97cc" stroke="white" stroke-width="9" paint-order="stroke" stroke-linejoin="round">tomorrow's model</text>
<text x="505.0" y="96.0" text-anchor="middle" font-family="Helvetica, Arial, sans-serif" font-size="21" font-weight="bold" fill="#1a1a1a">generates &amp; selects</text>
<text x="505.0" y="122.0" text-anchor="middle" font-family="Helvetica, Arial, sans-serif" font-size="21" font-weight="bold" fill="#1a1a1a">its training data</text>
<text x="985.0" y="109.0" text-anchor="middle" font-family="Helvetica, Arial, sans-serif" font-size="21" font-weight="bold" fill="#1a1a1a">fine-tunes</text>
<text x="740.0" y="205.0" text-anchor="middle" font-family="Helvetica, Arial, sans-serif" font-size="21" font-weight="normal" fill="#6b7684">self-rewarding</text>
<text x="740.0" y="235.0" text-anchor="middle" font-family="Helvetica, Arial, sans-serif" font-size="21" font-weight="normal" fill="#6b7684">constitutional loops</text>
<text x="740.0" y="265.0" text-anchor="middle" font-family="Helvetica, Arial, sans-serif" font-size="21" font-weight="normal" fill="#6b7684">synthetic data</text>
<text x="740.0" y="407.0" text-anchor="middle" font-family="Helvetica, Arial, sans-serif" font-size="22" font-weight="bold" fill="#1a1a1a">replaces</text>
<circle cx="185.0" cy="128.0" r="34.0" fill="#f4f7fb" stroke="#1a1a1a" stroke-width="5"/>
<circle cx="185.0" cy="128.0" r="7.5" fill="#2867b5"/>
<line x1="161.0" y1="152.0" x2="131.0" y2="182.0" stroke="#1a1a1a" stroke-width="9" stroke-linecap="round"/>
<line x1="217.0" y1="139.6" x2="362" y2="222" stroke="#6b7684" stroke-width="2.5" stroke-dasharray="7 6"/>
<text x="185.0" y="235.0" text-anchor="middle" font-family="Helvetica, Arial, sans-serif" font-size="20" font-weight="normal" fill="#1a1a1a">install a value,</text>
<text x="185.0" y="264.0" text-anchor="middle" font-family="Helvetica, Arial, sans-serif" font-size="20" font-weight="normal" fill="#1a1a1a">close the loop,</text>
<text x="185.0" y="293.0" text-anchor="middle" font-family="Helvetica, Arial, sans-serif" font-size="20" font-weight="normal" fill="#1a1a1a">watch it move</text>
<line x1="1100" y1="235" x2="1128" y2="235" stroke="#6b7684" stroke-width="3.4"/>
<line x1="1128" y1="235" x2="1241.8" y2="181.8" stroke="#6b7684" stroke-width="3.4"/>
<path d="M 1241.8 181.8 L 1241.9 182.1 L 1242.0 182.4 L 1242.1 182.7 L 1242.2 183.0 L 1242.3 183.4 L 1242.4 183.7 L 1242.6 184.0 L 1242.7 184.3 L 1242.9 184.6 L 1243.1 184.9 L 1243.3 185.1 L 1243.5 185.4 L 1243.7 185.7 L 1243.9 186.0 L 1244.1 186.2 L 1244.4 186.5 L 1244.6 186.8 L 1244.9 187.0 L 1245.2 187.2 L 1245.5 187.5 L 1245.8 187.7 L 1246.1 187.9 L 1246.4 188.1 L 1246.7 188.3 L 1247.0 188.5 L 1247.4 188.6 L 1247.7 188.8 L 1248.1 188.9 L 1248.5 189.1 L 1248.8 189.2 L 1249.2 189.3 L 1249.6 189.4 L 1250.0 189.5 L 1250.4 189.5 L 1250.8 189.6 L 1251.2 189.6 L 1251.6 189.7 L 1252.0 189.7 L 1252.4 189.7 L 1252.9 189.7 L 1253.3 189.6 L 1253.7 189.6 L 1254.1 189.5 L 1254.5 189.4 L 1255.0 189.3 L 1255.4 189.2 L 1255.8 189.1 L 1256.2 189.0 L 1256.6 188.8 L 1257.0 188.6 L 1257.4 188.5 L 1257.8 188.3 L 1258.2 188.0 L 1258.6 187.8 L 1259.0 187.6 L 1259.4 187.3 L 1259.7 187.0 L 1260.1 186.7 L 1260.5 186.4 L 1260.8 186.1 L 1261.1 185.8 L 1261.5 185.4 L 1261.8 185.1 L 1262.1 184.7 L 1262.4 184.3 L 1262.6 183.9 L 1262.9 183.5 L 1263.2 183.1 L 1263.4 182.7 L 1263.6 182.2 L 1263.8 181.8 L 1264.0 181.3 L 1264.2 180.8 L 1264.4 180.4 L 1264.5 179.9 L 1264.6 179.4 L 1264.7 178.9 L 1264.8 178.4 L 1264.9 177.9 L 1265.0 177.3 L 1265.0 176.8 L 1265.1 176.3 L 1265.1 175.8 L 1265.0 175.2 L 1265.0 174.7 L 1265.0 174.2 L 1264.9 173.6 L 1264.8 173.1 L 1264.7 172.6 L 1264.6 172.1 L 1264.4 171.5 L 1264.3 171.0 L 1264.1 170.5 L 1263.9 170.0 L 1263.7 169.4 L 1263.4 168.9 L 1263.2 168.4 L 1262.9 167.9 L 1262.6 167.5 L 1262.3 167.0 L 1262.0 166.5 L 1261.6 166.1 L 1261.2 165.6 L 1260.9 165.2 L 1260.5 164.8 L 1260.0 164.3 L 1259.6 163.9 L 1259.2 163.6 L 1258.7 163.2 L 1258.2 162.8 L 1257.7 162.5 L 1257.2 162.2 L 1256.7 161.9 L 1256.2 161.6 L 1255.6 161.3 L 1255.1 161.0 L 1254.5 160.8 L 1253.9 160.6 L 1253.3 160.4 L 1252.7 160.2 L 1252.1 160.1 L 1251.5 159.9 L 1250.9 159.8 L 1250.3 159.7 L 1249.6 159.6 L 1249.0 159.6 L 1248.4 159.5 L 1247.7 159.5 L 1247.1 159.6 L 1246.4 159.6 L 1245.8 159.7 L 1245.1 159.7 L 1244.5 159.8 L 1243.9 160.0 L 1243.2 160.1 L 1242.6 160.3 L 1241.9 160.5 L 1241.3 160.7 L 1240.7 161.0 L 1240.1 161.2 L 1239.5 161.5 L 1238.9 161.8 L 1238.3 162.2 L 1237.7 162.5 L 1237.1 162.9 L 1236.5 163.3 L 1236.0 163.7 L 1235.5 164.1 L 1234.9 164.6 L 1234.4 165.1 L 1233.9 165.6 L 1233.4 166.1 L 1233.0 166.6 L 1232.5 167.2 L 1232.1 167.7 L 1231.7 168.3 L 1231.3 168.9 L 1230.9 169.5 L 1230.6 170.2 L 1230.3 170.8 L 1230.0 171.5 L 1229.7 172.1 L 1229.4 172.8 L 1229.2 173.5 L 1229.0 174.2 L 1228.8 174.9 L 1228.6 175.7 L 1228.5 176.4 L 1228.3 177.1 L 1228.3 177.9 L 1228.2 178.6 L 1228.1 179.4 L 1228.1 180.1 L 1228.1 180.9 L 1228.2 181.7 L 1228.2 182.4 L 1228.3 183.2 L 1228.5 183.9 L 1228.6 184.7 L 1228.8 185.5 L 1229.0 186.2 L 1229.2 187.0 L 1229.5 187.7 L 1229.7 188.4 L 1230.0 189.2 L 1230.4 189.9 L 1230.7 190.6 L 1231.1 191.3 L 1231.5 192.0 L 1231.9 192.7 L 1232.4 193.3 L 1232.9 194.0 L 1233.4 194.6 L 1233.9 195.2 L 1234.5 195.8 L 1235.0 196.4 L 1235.6 196.9 L 1236.3 197.5 L 1236.9 198.0 L 1237.5 198.5 L 1238.2 199.0 L 1238.9 199.5 L 1239.6 199.9 L 1240.4 200.3 L 1241.1 200.7 L 1241.9 201.1 L 1242.6 201.4 L 1243.4 201.7 L 1244.2 202.0 L 1245.0 202.2 L 1245.9 202.5 L 1246.7 202.7 L 1247.5 202.9 L 1248.4 203.0 L 1249.2 203.1 L 1250.1 203.2 L 1251.0 203.3 L 1251.9 203.3 L 1252.7 203.3 L 1253.6 203.2 L 1254.5 203.2 L 1255.4 203.1 L 1256.2 203.0 L 1257.1 202.8 L 1258.0 202.6 L 1258.8 202.4 L 1259.7 202.1 L 1260.6 201.9 L 1261.4 201.6 L 1262.2 201.2 L 1263.1 200.8 L 1263.9 200.4 L 1264.7 200.0" fill="none" stroke="#3a7d44" stroke-width="3.8" stroke-linecap="round"/><line x1="1264.7" y1="200.0" x2="1397.1" y2="129.6" stroke="#3a7d44" stroke-width="3.8" stroke-linecap="round"/><path d="M 1406.8 124.4 L 1392.7 140.0 L 1386.0 127.4 z" fill="#3a7d44"/>
<rect x="1390.4" y="87.0" width="70.0" height="55.0" rx="12.5" fill="white" stroke="#3a7d44" stroke-width="3.4"/>
<circle cx="1412.9" cy="112.0" r="5.0" fill="#3a7d44"/>
<circle cx="1437.9" cy="112.0" r="5.0" fill="#3a7d44"/>
<path d="M 1410.4 124.5 Q 1425.4 137.0 1440.4 124.5" stroke="#3a7d44" stroke-width="3.4" fill="none"/>
<ellipse cx="1425.4" cy="72.0" rx="25.0" ry="6.9" fill="none" stroke="#3a7d44" stroke-width="3.2"/>
<text x="1471.4" y="115.5" font-family="Helvetica, Arial, sans-serif" font-size="21" font-weight="bold" fill="#3a7d44">virtuous</text>
<text x="1471.4" y="141.5" font-family="Helvetica, Arial, sans-serif" font-size="21" font-weight="bold" fill="#3a7d44">cycle</text>
<line x1="1128" y1="235" x2="1241.8" y2="288.2" stroke="#6b7684" stroke-width="3.4"/>
<path d="M 1241.8 288.2 L 1241.9 287.9 L 1242.0 287.6 L 1242.1 287.3 L 1242.2 287.0 L 1242.3 286.6 L 1242.4 286.3 L 1242.6 286.0 L 1242.7 285.7 L 1242.9 285.4 L 1243.1 285.1 L 1243.3 284.9 L 1243.5 284.6 L 1243.7 284.3 L 1243.9 284.0 L 1244.1 283.8 L 1244.4 283.5 L 1244.6 283.2 L 1244.9 283.0 L 1245.2 282.8 L 1245.5 282.5 L 1245.8 282.3 L 1246.1 282.1 L 1246.4 281.9 L 1246.7 281.7 L 1247.0 281.5 L 1247.4 281.4 L 1247.7 281.2 L 1248.1 281.1 L 1248.5 280.9 L 1248.8 280.8 L 1249.2 280.7 L 1249.6 280.6 L 1250.0 280.5 L 1250.4 280.5 L 1250.8 280.4 L 1251.2 280.4 L 1251.6 280.3 L 1252.0 280.3 L 1252.4 280.3 L 1252.9 280.3 L 1253.3 280.4 L 1253.7 280.4 L 1254.1 280.5 L 1254.5 280.6 L 1255.0 280.7 L 1255.4 280.8 L 1255.8 280.9 L 1256.2 281.0 L 1256.6 281.2 L 1257.0 281.4 L 1257.4 281.5 L 1257.8 281.7 L 1258.2 282.0 L 1258.6 282.2 L 1259.0 282.4 L 1259.4 282.7 L 1259.7 283.0 L 1260.1 283.3 L 1260.5 283.6 L 1260.8 283.9 L 1261.1 284.2 L 1261.5 284.6 L 1261.8 284.9 L 1262.1 285.3 L 1262.4 285.7 L 1262.6 286.1 L 1262.9 286.5 L 1263.2 286.9 L 1263.4 287.3 L 1263.6 287.8 L 1263.8 288.2 L 1264.0 288.7 L 1264.2 289.2 L 1264.4 289.6 L 1264.5 290.1 L 1264.6 290.6 L 1264.7 291.1 L 1264.8 291.6 L 1264.9 292.1 L 1265.0 292.7 L 1265.0 293.2 L 1265.1 293.7 L 1265.1 294.2 L 1265.0 294.8 L 1265.0 295.3 L 1265.0 295.8 L 1264.9 296.4 L 1264.8 296.9 L 1264.7 297.4 L 1264.6 297.9 L 1264.4 298.5 L 1264.3 299.0 L 1264.1 299.5 L 1263.9 300.0 L 1263.7 300.6 L 1263.4 301.1 L 1263.2 301.6 L 1262.9 302.1 L 1262.6 302.5 L 1262.3 303.0 L 1262.0 303.5 L 1261.6 303.9 L 1261.2 304.4 L 1260.9 304.8 L 1260.5 305.2 L 1260.0 305.7 L 1259.6 306.1 L 1259.2 306.4 L 1258.7 306.8 L 1258.2 307.2 L 1257.7 307.5 L 1257.2 307.8 L 1256.7 308.1 L 1256.2 308.4 L 1255.6 308.7 L 1255.1 309.0 L 1254.5 309.2 L 1253.9 309.4 L 1253.3 309.6 L 1252.7 309.8 L 1252.1 309.9 L 1251.5 310.1 L 1250.9 310.2 L 1250.3 310.3 L 1249.6 310.4 L 1249.0 310.4 L 1248.4 310.5 L 1247.7 310.5 L 1247.1 310.4 L 1246.4 310.4 L 1245.8 310.3 L 1245.1 310.3 L 1244.5 310.2 L 1243.9 310.0 L 1243.2 309.9 L 1242.6 309.7 L 1241.9 309.5 L 1241.3 309.3 L 1240.7 309.0 L 1240.1 308.8 L 1239.5 308.5 L 1238.9 308.2 L 1238.3 307.8 L 1237.7 307.5 L 1237.1 307.1 L 1236.5 306.7 L 1236.0 306.3 L 1235.5 305.9 L 1234.9 305.4 L 1234.4 304.9 L 1233.9 304.4 L 1233.4 303.9 L 1233.0 303.4 L 1232.5 302.8 L 1232.1 302.3 L 1231.7 301.7 L 1231.3 301.1 L 1230.9 300.5 L 1230.6 299.8 L 1230.3 299.2 L 1230.0 298.5 L 1229.7 297.9 L 1229.4 297.2 L 1229.2 296.5 L 1229.0 295.8 L 1228.8 295.1 L 1228.6 294.3 L 1228.5 293.6 L 1228.3 292.9 L 1228.3 292.1 L 1228.2 291.4 L 1228.1 290.6 L 1228.1 289.9 L 1228.1 289.1 L 1228.2 288.3 L 1228.2 287.6 L 1228.3 286.8 L 1228.5 286.1 L 1228.6 285.3 L 1228.8 284.5 L 1229.0 283.8 L 1229.2 283.0 L 1229.5 282.3 L 1229.7 281.6 L 1230.0 280.8 L 1230.4 280.1 L 1230.7 279.4 L 1231.1 278.7 L 1231.5 278.0 L 1231.9 277.3 L 1232.4 276.7 L 1232.9 276.0 L 1233.4 275.4 L 1233.9 274.8 L 1234.5 274.2 L 1235.0 273.6 L 1235.6 273.1 L 1236.3 272.5 L 1236.9 272.0 L 1237.5 271.5 L 1238.2 271.0 L 1238.9 270.5 L 1239.6 270.1 L 1240.4 269.7 L 1241.1 269.3 L 1241.9 268.9 L 1242.6 268.6 L 1243.4 268.3 L 1244.2 268.0 L 1245.0 267.8 L 1245.9 267.5 L 1246.7 267.3 L 1247.5 267.1 L 1248.4 267.0 L 1249.2 266.9 L 1250.1 266.8 L 1251.0 266.7 L 1251.9 266.7 L 1252.7 266.7 L 1253.6 266.8 L 1254.5 266.8 L 1255.4 266.9 L 1256.2 267.0 L 1257.1 267.2 L 1258.0 267.4 L 1258.8 267.6 L 1259.7 267.9 L 1260.6 268.1 L 1261.4 268.4 L 1262.2 268.8 L 1263.1 269.2 L 1263.9 269.6 L 1264.7 270.0" fill="none" stroke="#b5342c" stroke-width="3.8" stroke-linecap="round"/><line x1="1264.7" y1="270.0" x2="1397.1" y2="340.4" stroke="#b5342c" stroke-width="3.8" stroke-linecap="round"/><path d="M 1406.8 345.6 L 1386.0 342.6 L 1392.7 330.0 z" fill="#b5342c"/>
<rect x="1390.4" y="328.0" width="70.0" height="55.0" rx="12.5" fill="white" stroke="#b5342c" stroke-width="3.4"/>
<circle cx="1412.9" cy="353.0" r="5.0" fill="#b5342c"/>
<circle cx="1437.9" cy="353.0" r="5.0" fill="#b5342c"/>
<line x1="1404.1" y1="338.0" x2="1420.4" y2="348.0" stroke="#b5342c" stroke-width="3.4" stroke-linecap="round"/>
<line x1="1446.6" y1="338.0" x2="1430.4" y2="348.0" stroke="#b5342c" stroke-width="3.4" stroke-linecap="round"/>
<path d="M 1410.4 376.7 Q 1425.4 364.2 1440.4 376.7" stroke="#b5342c" stroke-width="3.4" fill="none"/>
<path d="M 1409.1 329.2 C 1400.4 319.2 1389.1 315.5 1381.6 305.5 C 1386.6 318.0 1392.9 323.0 1396.6 329.2 Z" fill="#b5342c"/>
<path d="M 1441.6 329.2 C 1450.4 319.2 1461.6 315.5 1469.1 305.5 C 1464.1 318.0 1457.9 323.0 1454.1 329.2 Z" fill="#b5342c"/>
<text x="1471.4" y="356.5" font-family="Helvetica, Arial, sans-serif" font-size="21" font-weight="bold" fill="#b5342c">vicious</text>
<text x="1471.4" y="382.5" font-family="Helvetica, Arial, sans-serif" font-size="21" font-weight="bold" fill="#b5342c">cycle</text>
</svg>