<svg xmlns="http://www.w3.org/2000/svg" viewBox="0 0 1660 460" font-family="Helvetica, Arial, sans-serif">
<rect width="1660" height="460" fill="white"/>
<path d="M 420.0 235.0 A 320.0 125.0 0 0 1 740.0 110.0" fill="none" stroke="#6b7684" stroke-width="4"/>
<path d="M 740.0 110.0 A 320.0 125.0 0 0 1 1060.0 235.0" fill="none" stroke="#6b7684" stroke-width="4"/>
<path d="M 1060.0 235.0 A 320.0 125.0 0 0 1 420.0 235.0" fill="none" stroke="#6b7684" stroke-width="4"/>
<path d="M 524.9 142.2 L 507.6 157.4 L 501.9 142.8 z" fill="#6b7684"/>
<path d="M 977.5 151.0 L 954.5 150.4 L 960.2 135.9 z" fill="#6b7684"/>
<path d="M 888.3 345.9 L 907.6 333.5 L 911.1 348.8 z" fill="#6b7684"/>
<path d="M 568.3 340.6 L 591.1 337.8 L 587.6 353.0 z" fill="#6b7684"/>
<rect x="386.4" y="208.6" width="67.2" height="52.8" rx="12.0" fill="white" stroke="#2867b5" stroke-width="3.4"/>
<circle cx="408.0" cy="233.8" r="4.8" fill="#2867b5"/>
<circle cx="432.0" cy="233.8" r="4.8" fill="#2867b5"/>
<path d="M 405.6 248.2 Q 420.0 257.8 434.4 248.2" stroke="#2867b5" stroke-width="3.4" fill="none"/>
<line x1="420.0" y1="208.6" x2="420.0" y2="196.6" stroke="#2867b5" stroke-width="3.4"/>
<circle cx="420.0" cy="193.0" r="4.8" fill="#2867b5"/>
<text x="420.0" y="297.0" text-anchor="middle" font-family="Helvetica, Arial, sans-serif" font-size="21" font-weight="bold" fill="#2867b5" stroke="white" stroke-width="9" paint-order="stroke" stroke-linejoin="round">today's model</text>
<rect x="698" y="78" width="72" height="54" rx="8" fill="white" stroke="#2867b5" stroke-width="2.6"/>
<rect x="707" y="86" width="72" height="54" rx="8" fill="white" stroke="#2867b5" stroke-width="2.6"/>
<rect x="716" y="94" width="72" height="54" rx="8" fill="#f4f7fb" stroke="#2867b5" stroke-width="2.6"/>
<line x1="728" y1="106" x2="776" y2="106" stroke="#6b7684" stroke-width="3" stroke-linecap="round"/>
<line x1="728" y1="118" x2="776" y2="118" stroke="#6b7684" stroke-width="3" stroke-linecap="round"/>
<line x1="728" y1="130" x2="776" y2="130" stroke="#6b7684" stroke-width="3" stroke-linecap="round"/>
<rect x="1026.4" y="208.6" width="67.2" height="52.8" rx="12.0" fill="#eef3fa" stroke="#6f97cc" stroke-width="3.4"/>
<circle cx="1048.0" cy="233.8" r="4.8" fill="#6f97cc"/>
<circle cx="1072.0" cy="233.8" r="4.8" fill="#6f97cc"/>
<path d="M 1045.6 248.2 Q 1060.0 257.8 1074.4 248.2" stroke="#6f97cc" stroke-width="3.4" fill="none"/>
<line x1="1060.0" y1="208.6" x2="1060.0" y2="196.6" stroke="#6f97cc" stroke-width="3.4"/>
<circle cx="1060.0" cy="193.0" r="4.8" fill="#6f97cc"/>
<text x="1060.0" y="297.0" text-anchor="middle" font-family="Helvetica, Arial, sans-serif" font-size="21" font-weight="bold" fill="#6f97cc" stroke="white" stroke-width="9" paint-order="stroke" stroke-linejoin="round">tomorrow's model</text>
<text x="505.0" y="96.0" text-anchor="middle" font-family="Helvetica, Arial, sans-serif" font-size="21" font-weight="bold" fill="#1a1a1a">generates &amp; selects</text>
<text x="505.0" y="122.0" text-anchor="middle" font-family="Helvetica, Arial, sans-serif" font-size="21" font-weight="bold" fill="#1a1a1a">its training data</text>
<text x="985.0" y="109.0" text-anchor="middle" font-family="Helvetica, Arial, sans-serif" font-size="21" font-weight="bold" fill="#1a1a1a">fine-tunes</text>
<text x="740.0" y="205.0" text-anchor="middle" font-family="Helvetica, Arial, sans-serif" font-size="21" font-weight="normal" fill="#6b7684">self-rewarding</text>
<text x="740.0" y="235.0" text-anchor="middle" font-family="Helvetica, Arial, sans-serif" font-size="21" font-weight="normal" fill="#6b7684">constitutional loops</text>
<text x="740.0" y="265.0" text-anchor="middle" font-family="Helvetica, Arial, sans-serif" font-size="21" font-weight="normal" fill="#6b7684">synthetic data</text>
<text x="740.0" y="407.0" text-anchor="middle" font-family="Helvetica, Arial, sans-serif" font-size="22" font-weight="bold" fill="#1a1a1a">replaces</text>
<circle cx="185.0" cy="128.0" r="34.0" fill="#f4f7fb" stroke="#1a1a1a" stroke-width="5"/>
<circle cx="185.0" cy="128.0" r="7.5" fill="#2867b5"/>
<line x1="161.0" y1="152.0" x2="131.0" y2="182.0" stroke="#1a1a1a" stroke-width="9" stroke-linecap="round"/>
<line x1="217.0" y1="139.6" x2="362" y2="222" stroke="#6b7684" stroke-width="2.5" stroke-dasharray="7 6"/>
<text x="185.0" y="235.0" text-anchor="middle" font-family="Helvetica, Arial, sans-serif" font-size="20" font-weight="normal" fill="#1a1a1a">install a value,</text>
<text x="185.0" y="264.0" text-anchor="middle" font-family="Helvetica, Arial, sans-serif" font-size="20" font-weight="normal" fill="#1a1a1a">close the loop,</text>
<text x="185.0" y="293.0" text-anchor="middle" font-family="Helvetica, Arial, sans-serif" font-size="20" font-weight="normal" fill="#1a1a1a">watch it move</text>
<line x1="1100" y1="235" x2="1150" y2="235" stroke="#6b7684" stroke-width="3.4"/>
<path d="M 1130.0 235.0 L 1130.7 232.9 L 1131.4 230.8 L 1132.4 228.7 L 1133.4 226.6 L 1134.6 224.5 L 1135.8 222.5 L 1137.3 220.5 L 1138.8 218.6 L 1140.4 216.7 L 1142.2 214.9 L 1144.0 213.2 L 1145.9 211.5 L 1148.0 210.0 L 1150.1 208.6 L 1152.3 207.3 L 1154.5 206.1 L 1156.8 205.0 L 1159.2 204.0 L 1161.6 203.2 L 1164.0 202.5 L 1166.4 201.9 L 1168.9 201.5 L 1171.3 201.2 L 1173.7 201.1 L 1176.1 201.1 L 1178.5 201.2 L 1180.8 201.5 L 1183.0 201.9 L 1185.2 202.4 L 1187.3 203.0 L 1189.3 203.7 L 1191.2 204.6 L 1193.0 205.5 L 1194.6 206.5 L 1196.2 207.6 L 1197.6 208.8 L 1198.9 210.0 L 1200.1 211.3 L 1201.1 212.6 L 1202.0 214.0 L 1202.7 215.4 L 1203.3 216.7 L 1203.7 218.1 L 1204.0 219.4 L 1204.1 220.8 L 1204.1 222.0 L 1204.0 223.2 L 1203.7 224.4 L 1203.2 225.4 L 1202.7 226.4 L 1202.0 227.3 L 1201.2 228.1 L 1200.3 228.7 L 1199.3 229.3 L 1198.3 229.7 L 1197.1 229.9 L 1195.9 230.1 L 1194.6 230.0 L 1193.3 229.8 L 1192.0 229.5 L 1190.7 229.0 L 1189.3 228.3 L 1188.0 227.5 L 1186.6 226.5 L 1185.4 225.4 L 1184.1 224.1 L 1182.9 222.6 L 1181.8 221.0 L 1180.8 219.2 L 1179.9 217.3 L 1179.1 215.3 L 1178.4 213.2 L 1177.8 210.9 L 1177.4 208.6 L 1177.1 206.1 L 1177.0 203.6 L 1177.0 201.0 L 1177.1 198.4 L 1177.5 195.7 L 1178.0 193.0 L 1178.7 190.3 L 1179.5 187.5 L 1180.6 184.8 L 1181.8 182.1 L 1183.2 179.5 L 1184.7 176.9 L 1186.4 174.3 L 1188.3 171.9 L 1190.3 169.5 L 1192.5 167.2 L 1194.8 165.1 L 1197.2 163.1 L 1199.8 161.2 L 1202.5 159.5 L 1205.2 157.9 L 1208.1 156.4 L 1211.0 155.2 L 1213.9 154.1 L 1217.0 153.2 L 1220.0 152.5 L 1223.1 152.0 L 1226.1 151.6 L 1229.2 151.5 L 1232.2 151.5 L 1235.2 151.7 L 1238.1 152.1 L 1240.9 152.6 L 1243.7 153.4 L 1246.4 154.3 L 1248.9 155.3 L 1251.3 156.5 L 1253.6 157.9 L 1255.8 159.3 L 1257.8 160.9 L 1259.6 162.6 L 1261.3 164.3 L 1262.7 166.2 L 1264.0 168.1 L 1265.1 170.0 L 1266.0 172.0 L 1266.7 174.0 L 1267.2 176.0 L 1267.5 178.0 L 1267.6 179.9 L 1267.5 181.8 L 1267.2 183.7 L 1266.8 185.4 L 1266.1 187.1 L 1265.3 188.6 L 1264.3 190.1 L 1263.2 191.4 L 1261.9 192.6 L 1260.5 193.6 L 1259.0 194.4 L 1257.3 195.1 L 1255.6 195.6 L 1253.8 195.8 L 1251.9 195.9 L 1250.0 195.8 L 1248.0 195.5 L 1246.0 195.0 L 1244.0 194.2 L 1242.1 193.3 L 1240.2 192.1 L 1238.3 190.7 L 1236.5 189.2 L 1234.8 187.4 L 1233.1 185.5 L 1231.6 183.3 L 1230.3 181.0 L 1229.0 178.5 L 1227.9 175.9 L 1227.0 173.1 L 1226.3 170.2 L 1225.7 167.2 L 1225.3 164.1 L 1225.2 160.9 L 1225.2 157.7 L 1225.5 154.3 L 1226.0 151.0 L 1226.7 147.6 L 1227.6 144.3 L 1228.8 141.0 L 1230.2 137.7 L 1231.8 134.4 L 1233.6 131.2 L 1235.6 128.1 L 1237.8 125.2 L 1240.2 122.3 L 1242.8 119.6 L 1245.6 117.0 L 1248.5 114.6 L 1251.6 112.4 L 1254.8 110.3 L 1258.1 108.5 L 1261.6 106.8 L 1265.1 105.4 L 1268.7 104.2 L 1272.3 103.2 L 1276.0 102.5 L 1279.7 102.0 L 1283.4 101.7 L 1287.0 101.7" fill="none" stroke="#3a7d44" stroke-width="3.8" stroke-linecap="round"/><line x1="1287.0" y1="101.7" x2="1415.0" y2="100.0" stroke="#3a7d44" stroke-width="3.8" stroke-linecap="round"/><path d="M 1426.0 99.9 L 1406.3 107.3 L 1406.1 93.0 z" fill="#3a7d44"/>
<rect x="1415.0" y="72.5" width="70.0" height="55.0" rx="12.5" fill="white" stroke="#3a7d44" stroke-width="3.4"/>
<circle cx="1437.5" cy="97.5" r="5.0" fill="#3a7d44"/>
<circle cx="1462.5" cy="97.5" r="5.0" fill="#3a7d44"/>
<path d="M 1435.0 110.0 Q 1450.0 122.5 1465.0 110.0" stroke="#3a7d44" stroke-width="3.4" fill="none"/>
<ellipse cx="1450.0" cy="57.5" rx="25.0" ry="6.9" fill="none" stroke="#3a7d44" stroke-width="3.2"/>
<text x="1506.0" y="106.0" font-family="Helvetica, Arial, sans-serif" font-size="21" font-weight="bold" fill="#3a7d44">virtuous</text>
<text x="1506.0" y="132.0" font-family="Helvetica, Arial, sans-serif" font-size="21" font-weight="bold" fill="#3a7d44">cycle</text>
<path d="M 1130.0 235.0 L 1130.7 237.1 L 1131.4 239.2 L 1132.4 241.3 L 1133.4 243.4 L 1134.6 245.5 L 1135.8 247.5 L 1137.3 249.5 L 1138.8 251.4 L 1140.4 253.3 L 1142.2 255.1 L 1144.0 256.8 L 1145.9 258.5 L 1148.0 260.0 L 1150.1 261.4 L 1152.3 262.7 L 1154.5 263.9 L 1156.8 265.0 L 1159.2 266.0 L 1161.6 266.8 L 1164.0 267.5 L 1166.4 268.1 L 1168.9 268.5 L 1171.3 268.8 L 1173.7 268.9 L 1176.1 268.9 L 1178.5 268.8 L 1180.8 268.5 L 1183.0 268.1 L 1185.2 267.6 L 1187.3 267.0 L 1189.3 266.3 L 1191.2 265.4 L 1193.0 264.5 L 1194.6 263.5 L 1196.2 262.4 L 1197.6 261.2 L 1198.9 260.0 L 1200.1 258.7 L 1201.1 257.4 L 1202.0 256.0 L 1202.7 254.6 L 1203.3 253.3 L 1203.7 251.9 L 1204.0 250.6 L 1204.1 249.2 L 1204.1 248.0 L 1204.0 246.8 L 1203.7 245.6 L 1203.2 244.6 L 1202.7 243.6 L 1202.0 242.7 L 1201.2 241.9 L 1200.3 241.3 L 1199.3 240.7 L 1198.3 240.3 L 1197.1 240.1 L 1195.9 239.9 L 1194.6 240.0 L 1193.3 240.2 L 1192.0 240.5 L 1190.7 241.0 L 1189.3 241.7 L 1188.0 242.5 L 1186.6 243.5 L 1185.4 244.6 L 1184.1 245.9 L 1182.9 247.4 L 1181.8 249.0 L 1180.8 250.8 L 1179.9 252.7 L 1179.1 254.7 L 1178.4 256.8 L 1177.8 259.1 L 1177.4 261.4 L 1177.1 263.9 L 1177.0 266.4 L 1177.0 269.0 L 1177.1 271.6 L 1177.5 274.3 L 1178.0 277.0 L 1178.7 279.7 L 1179.5 282.5 L 1180.6 285.2 L 1181.8 287.9 L 1183.2 290.5 L 1184.7 293.1 L 1186.4 295.7 L 1188.3 298.1 L 1190.3 300.5 L 1192.5 302.8 L 1194.8 304.9 L 1197.2 306.9 L 1199.8 308.8 L 1202.5 310.5 L 1205.2 312.1 L 1208.1 313.6 L 1211.0 314.8 L 1213.9 315.9 L 1217.0 316.8 L 1220.0 317.5 L 1223.1 318.0 L 1226.1 318.4 L 1229.2 318.5 L 1232.2 318.5 L 1235.2 318.3 L 1238.1 317.9 L 1240.9 317.4 L 1243.7 316.6 L 1246.4 315.7 L 1248.9 314.7 L 1251.3 313.5 L 1253.6 312.1 L 1255.8 310.7 L 1257.8 309.1 L 1259.6 307.4 L 1261.3 305.7 L 1262.7 303.8 L 1264.0 301.9 L 1265.1 300.0 L 1266.0 298.0 L 1266.7 296.0 L 1267.2 294.0 L 1267.5 292.0 L 1267.6 290.1 L 1267.5 288.2 L 1267.2 286.3 L 1266.8 284.6 L 1266.1 282.9 L 1265.3 281.4 L 1264.3 279.9 L 1263.2 278.6 L 1261.9 277.4 L 1260.5 276.4 L 1259.0 275.6 L 1257.3 274.9 L 1255.6 274.4 L 1253.8 274.2 L 1251.9 274.1 L 1250.0 274.2 L 1248.0 274.5 L 1246.0 275.0 L 1244.0 275.8 L 1242.1 276.7 L 1240.2 277.9 L 1238.3 279.3 L 1236.5 280.8 L 1234.8 282.6 L 1233.1 284.5 L 1231.6 286.7 L 1230.3 289.0 L 1229.0 291.5 L 1227.9 294.1 L 1227.0 296.9 L 1226.3 299.8 L 1225.7 302.8 L 1225.3 305.9 L 1225.2 309.1 L 1225.2 312.3 L 1225.5 315.7 L 1226.0 319.0 L 1226.7 322.4 L 1227.6 325.7 L 1228.8 329.0 L 1230.2 332.3 L 1231.8 335.6 L 1233.6 338.8 L 1235.6 341.9 L 1237.8 344.8 L 1240.2 347.7 L 1242.8 350.4 L 1245.6 353.0 L 1248.5 355.4 L 1251.6 357.6 L 1254.8 359.7 L 1258.1 361.5 L 1261.6 363.2 L 1265.1 364.6 L 1268.7 365.8 L 1272.3 366.8 L 1276.0 367.5 L 1279.7 368.0 L 1283.4 368.3 L 1287.0 368.3" fill="none" stroke="#b5342c" stroke-width="3.8" stroke-linecap="round"/><line x1="1287.0" y1="368.3" x2="1415.0" y2="370.0" stroke="#b5342c" stroke-width="3.8" stroke-linecap="round"/><path d="M 1426.0 370.1 L 1406.1 377.0 L 1406.3 362.7 z" fill="#b5342c"/>
<rect x="1415.0" y="342.5" width="70.0" height="55.0" rx="12.5" fill="white" stroke="#b5342c" stroke-width="3.4"/>
<circle cx="1437.5" cy="367.5" r="5.0" fill="#b5342c"/>
<circle cx="1462.5" cy="367.5" r="5.0" fill="#b5342c"/>
<line x1="1428.8" y1="352.5" x2="1445.0" y2="362.5" stroke="#b5342c" stroke-width="3.4" stroke-linecap="round"/>
<line x1="1471.2" y1="352.5" x2="1455.0" y2="362.5" stroke="#b5342c" stroke-width="3.4" stroke-linecap="round"/>
<path d="M 1435.0 391.2 Q 1450.0 378.8 1465.0 391.2" stroke="#b5342c" stroke-width="3.4" fill="none"/>
<path d="M 1428.8 343.8 Q 1407.5 332.5 1403.8 313.8 Q 1421.2 331.2 1441.2 346.2 Z" fill="#b5342c"/>
<path d="M 1471.2 343.8 Q 1492.5 332.5 1496.2 313.8 Q 1478.8 331.2 1458.8 346.2 Z" fill="#b5342c"/>
<text x="1506.0" y="364.0" font-family="Helvetica, Arial, sans-serif" font-size="21" font-weight="bold" fill="#b5342c">vicious</text>
<text x="1506.0" y="390.0" font-family="Helvetica, Arial, sans-serif" font-size="21" font-weight="bold" fill="#b5342c">cycle</text>
</svg>