<svg xmlns="http://www.w3.org/2000/svg" viewBox="0 0 1660 460" font-family="Helvetica, Arial, sans-serif">
<rect width="1660" height="460" fill="white"/>
<path d="M 420.0 235.0 A 320.0 125.0 0 0 1 740.0 110.0" fill="none" stroke="#6b7684" stroke-width="4"/>
<path d="M 740.0 110.0 A 320.0 125.0 0 0 1 1060.0 235.0" fill="none" stroke="#6b7684" stroke-width="4"/>
<path d="M 1060.0 235.0 A 320.0 125.0 0 0 1 420.0 235.0" fill="none" stroke="#6b7684" stroke-width="4"/>
<path d="M 524.9 142.2 L 507.6 157.4 L 501.9 142.8 z" fill="#6b7684"/>
<path d="M 977.5 151.0 L 954.5 150.4 L 960.2 135.9 z" fill="#6b7684"/>
<path d="M 888.3 345.9 L 907.6 333.5 L 911.1 348.8 z" fill="#6b7684"/>
<path d="M 568.3 340.6 L 591.1 337.8 L 587.6 353.0 z" fill="#6b7684"/>
<rect x="386.4" y="208.6" width="67.2" height="52.8" rx="12.0" fill="white" stroke="#2867b5" stroke-width="3.4"/>
<circle cx="408.0" cy="233.8" r="4.8" fill="#2867b5"/>
<circle cx="432.0" cy="233.8" r="4.8" fill="#2867b5"/>
<path d="M 405.6 248.2 Q 420.0 257.8 434.4 248.2" stroke="#2867b5" stroke-width="3.4" fill="none"/>
<line x1="420.0" y1="208.6" x2="420.0" y2="196.6" stroke="#2867b5" stroke-width="3.4"/>
<circle cx="420.0" cy="193.0" r="4.8" fill="#2867b5"/>
<text x="420.0" y="297.0" text-anchor="middle" font-family="Helvetica, Arial, sans-serif" font-size="21" font-weight="bold" fill="#2867b5" stroke="white" stroke-width="9" paint-order="stroke" stroke-linejoin="round">today's model</text>
<rect x="698" y="78" width="72" height="54" rx="8" fill="white" stroke="#2867b5" stroke-width="2.6"/>
<rect x="707" y="86" width="72" height="54" rx="8" fill="white" stroke="#2867b5" stroke-width="2.6"/>
<rect x="716" y="94" width="72" height="54" rx="8" fill="#f4f7fb" stroke="#2867b5" stroke-width="2.6"/>
<line x1="728" y1="106" x2="776" y2="106" stroke="#6b7684" stroke-width="3" stroke-linecap="round"/>
<line x1="728" y1="118" x2="776" y2="118" stroke="#6b7684" stroke-width="3" stroke-linecap="round"/>
<line x1="728" y1="130" x2="776" y2="130" stroke="#6b7684" stroke-width="3" stroke-linecap="round"/>
<rect x="1026.4" y="208.6" width="67.2" height="52.8" rx="12.0" fill="#eef3fa" stroke="#6f97cc" stroke-width="3.4"/>
<circle cx="1048.0" cy="233.8" r="4.8" fill="#6f97cc"/>
<circle cx="1072.0" cy="233.8" r="4.8" fill="#6f97cc"/>
<path d="M 1045.6 248.2 Q 1060.0 257.8 1074.4 248.2" stroke="#6f97cc" stroke-width="3.4" fill="none"/>
<line x1="1060.0" y1="208.6" x2="1060.0" y2="196.6" stroke="#6f97cc" stroke-width="3.4"/>
<circle cx="1060.0" cy="193.0" r="4.8" fill="#6f97cc"/>
<text x="1060.0" y="297.0" text-anchor="middle" font-family="Helvetica, Arial, sans-serif" font-size="21" font-weight="bold" fill="#6f97cc" stroke="white" stroke-width="9" paint-order="stroke" stroke-linejoin="round">tomorrow's model</text>
<text x="505.0" y="96.0" text-anchor="middle" font-family="Helvetica, Arial, sans-serif" font-size="21" font-weight="bold" fill="#1a1a1a">generates &amp; selects</text>
<text x="505.0" y="122.0" text-anchor="middle" font-family="Helvetica, Arial, sans-serif" font-size="21" font-weight="bold" fill="#1a1a1a">its training data</text>
<text x="985.0" y="109.0" text-anchor="middle" font-family="Helvetica, Arial, sans-serif" font-size="21" font-weight="bold" fill="#1a1a1a">fine-tunes</text>
<text x="740.0" y="205.0" text-anchor="middle" font-family="Helvetica, Arial, sans-serif" font-size="21" font-weight="normal" fill="#6b7684">self-rewarding</text>
<text x="740.0" y="235.0" text-anchor="middle" font-family="Helvetica, Arial, sans-serif" font-size="21" font-weight="normal" fill="#6b7684">constitutional loops</text>
<text x="740.0" y="265.0" text-anchor="middle" font-family="Helvetica, Arial, sans-serif" font-size="21" font-weight="normal" fill="#6b7684">synthetic data</text>
<text x="740.0" y="407.0" text-anchor="middle" font-family="Helvetica, Arial, sans-serif" font-size="22" font-weight="bold" fill="#1a1a1a">replaces</text>
<circle cx="185.0" cy="128.0" r="34.0" fill="#f4f7fb" stroke="#1a1a1a" stroke-width="5"/>
<circle cx="185.0" cy="128.0" r="7.5" fill="#2867b5"/>
<line x1="161.0" y1="152.0" x2="131.0" y2="182.0" stroke="#1a1a1a" stroke-width="9" stroke-linecap="round"/>
<line x1="217.0" y1="139.6" x2="362" y2="222" stroke="#6b7684" stroke-width="2.5" stroke-dasharray="7 6"/>
<text x="185.0" y="235.0" text-anchor="middle" font-family="Helvetica, Arial, sans-serif" font-size="20" font-weight="normal" fill="#1a1a1a">install a value,</text>
<text x="185.0" y="264.0" text-anchor="middle" font-family="Helvetica, Arial, sans-serif" font-size="20" font-weight="normal" fill="#1a1a1a">close the loop,</text>
<text x="185.0" y="293.0" text-anchor="middle" font-family="Helvetica, Arial, sans-serif" font-size="20" font-weight="normal" fill="#1a1a1a">watch it move</text>
<path d="M 1108.0 214.0 L 1108.1 214.1 L 1108.3 214.3 L 1108.4 214.5 L 1108.6 214.6 L 1108.8 214.8 L 1108.9 214.9 L 1109.1 215.1 L 1109.3 215.2 L 1109.6 215.4 L 1109.8 215.5 L 1110.0 215.7 L 1110.3 215.8 L 1110.5 216.0 L 1110.8 216.1 L 1111.1 216.3 L 1111.3 216.4 L 1111.6 216.6 L 1112.0 216.7 L 1112.3 216.8 L 1112.6 216.9 L 1112.9 217.1 L 1113.3 217.2 L 1113.7 217.3 L 1114.0 217.4 L 1114.4 217.5 L 1114.8 217.5 L 1115.2 217.6 L 1115.6 217.7 L 1116.0 217.7 L 1116.4 217.8 L 1116.8 217.8 L 1117.3 217.8 L 1117.7 217.8 L 1118.2 217.8 L 1118.6 217.8 L 1119.1 217.8 L 1119.5 217.8 L 1120.0 217.7 L 1120.5 217.6 L 1121.0 217.6 L 1121.4 217.5 L 1121.9 217.4 L 1122.4 217.3 L 1122.9 217.1 L 1123.4 217.0 L 1123.9 216.8 L 1124.4 216.7 L 1124.9 216.5 L 1125.4 216.3 L 1125.8 216.1 L 1126.3 215.9 L 1126.8 215.6 L 1127.3 215.4 L 1127.8 215.1 L 1128.2 214.8 L 1128.7 214.5 L 1129.2 214.2 L 1129.6 213.9 L 1130.1 213.5 L 1130.5 213.2 L 1130.9 212.8 L 1131.4 212.4 L 1131.8 212.0 L 1132.2 211.6 L 1132.6 211.2 L 1132.9 210.7 L 1133.3 210.3 L 1133.7 209.8 L 1134.0 209.4 L 1134.4 208.9 L 1134.7 208.4 L 1135.0 207.9 L 1135.3 207.4 L 1135.6 206.9 L 1135.8 206.4 L 1136.1 205.8 L 1136.3 205.3 L 1136.6 204.7 L 1136.8 204.2 L 1136.9 203.6 L 1137.1 203.1 L 1137.3 202.5 L 1137.4 201.9 L 1137.5 201.3 L 1137.6 200.8 L 1137.7 200.2 L 1137.8 199.6 L 1137.8 199.0 L 1137.8 198.4 L 1137.8 197.8 L 1137.8 197.3 L 1137.8 196.7 L 1137.7 196.1 L 1137.7 195.5 L 1137.6 195.0 L 1137.5 194.4 L 1137.3 193.8 L 1137.2 193.3 L 1137.0 192.7 L 1136.9 192.2 L 1136.7 191.7 L 1136.4 191.2 L 1136.2 190.7 L 1136.0 190.2 L 1135.7 189.7 L 1135.4 189.2 L 1135.1 188.7 L 1134.8 188.3 L 1134.5 187.9 L 1134.1 187.4 L 1133.8 187.0 L 1133.4 186.7 L 1133.0 186.3 L 1132.6 185.9 L 1132.2 185.6 L 1131.8 185.3 L 1131.3 185.0 L 1130.9 184.7 L 1130.4 184.4 L 1129.9 184.2 L 1129.5 184.0 L 1129.0 183.8 L 1128.5 183.6 L 1128.0 183.4 L 1127.5 183.3 L 1127.0 183.2 L 1126.5 183.1 L 1126.0 183.0 L 1125.5 183.0 L 1125.0 183.0 L 1124.4 183.0 L 1123.9 183.0 L 1123.4 183.1 L 1122.9 183.1 L 1122.4 183.2 L 1121.9 183.3 L 1121.4 183.5 L 1120.9 183.6 L 1120.4 183.8 L 1119.9 184.1 L 1119.4 184.3 L 1119.0 184.5 L 1118.5 184.8 L 1118.1 185.1 L 1117.6 185.5 L 1117.2 185.8 L 1116.8 186.2 L 1116.4 186.6 L 1116.0 187.0 L 1115.7 187.4 L 1115.3 187.8 L 1115.0 188.3 L 1114.7 188.8 L 1114.4 189.3 L 1114.1 189.8 L 1113.9 190.4 L 1113.6 190.9 L 1113.4 191.5 L 1113.2 192.1 L 1113.0 192.7 L 1112.9 193.3 L 1112.8 193.9 L 1112.7 194.5 L 1112.6 195.2 L 1112.6 195.8 L 1112.5 196.5 L 1112.5 197.2 L 1112.6 197.8 L 1112.6 198.5 L 1112.7 199.2 L 1112.8 199.9 L 1113.0 200.6 L 1113.1 201.3 L 1113.3 202.0 L 1113.6 202.7 L 1113.8 203.4 L 1114.1 204.1 L 1114.4 204.8 L 1114.7 205.5 L 1115.1 206.2 L 1115.5 206.9 L 1115.9 207.5 L 1116.4 208.2 L 1116.8 208.9 L 1117.3 209.5 L 1117.9 210.1 L 1118.4 210.8 L 1119.0 211.4 L 1119.6 212.0 L 1120.3 212.6 L 1120.9 213.1 L 1121.6 213.7 L 1122.3 214.2 L 1123.1 214.7 L 1123.8 215.2 L 1124.6 215.7 L 1125.4 216.1 L 1126.2 216.6 L 1127.1 217.0 L 1127.9 217.4 L 1128.8 217.7 L 1129.7 218.0 L 1130.6 218.3 L 1131.6 218.6 L 1132.5 218.9 L 1133.5 219.1 L 1134.4 219.3 L 1135.4 219.5 L 1136.4 219.6 L 1137.4 219.7 L 1138.5 219.8 L 1139.5 219.8 L 1140.5 219.8 L 1141.6 219.8 L 1142.6 219.8 L 1143.7 219.7 L 1144.7 219.5 L 1145.8 219.4 L 1146.8 219.2 L 1147.9 219.0 L 1148.9 218.7 L 1150.0 218.5 L 1151.0 218.1 L 1152.0 217.8 L 1153.1 217.4 L 1154.1 217.0 L 1155.1 216.5 L 1156.1 216.1 L 1157.1 215.6 L 1158.1 215.0" fill="none" stroke="#3a7d44" stroke-width="3.8" stroke-linecap="round"/><line x1="1158.1" y1="215.0" x2="1262.9" y2="156.6" stroke="#3a7d44" stroke-width="3.8" stroke-linecap="round"/><path d="M 1272.5 151.3 L 1258.7 167.1 L 1251.8 154.6 z" fill="#3a7d44"/>
<rect x="1255.9" y="113.5" width="70.0" height="55.0" rx="12.5" fill="white" stroke="#3a7d44" stroke-width="3.4"/>
<circle cx="1278.4" cy="138.5" r="5.0" fill="#3a7d44"/>
<circle cx="1303.4" cy="138.5" r="5.0" fill="#3a7d44"/>
<path d="M 1275.9 151.0 Q 1290.9 163.5 1305.9 151.0" stroke="#3a7d44" stroke-width="3.4" fill="none"/>
<ellipse cx="1290.9" cy="98.5" rx="25.0" ry="6.9" fill="none" stroke="#3a7d44" stroke-width="3.2"/>
<text x="1336.9" y="142.0" font-family="Helvetica, Arial, sans-serif" font-size="21" font-weight="bold" fill="#3a7d44">virtuous</text>
<text x="1336.9" y="168.0" font-family="Helvetica, Arial, sans-serif" font-size="21" font-weight="bold" fill="#3a7d44">cycle</text>
<path d="M 1108.0 256.0 L 1108.1 255.9 L 1108.3 255.7 L 1108.4 255.5 L 1108.6 255.4 L 1108.8 255.2 L 1108.9 255.1 L 1109.1 254.9 L 1109.3 254.8 L 1109.6 254.6 L 1109.8 254.5 L 1110.0 254.3 L 1110.3 254.2 L 1110.5 254.0 L 1110.8 253.9 L 1111.1 253.7 L 1111.3 253.6 L 1111.6 253.4 L 1112.0 253.3 L 1112.3 253.2 L 1112.6 253.1 L 1112.9 252.9 L 1113.3 252.8 L 1113.7 252.7 L 1114.0 252.6 L 1114.4 252.5 L 1114.8 252.5 L 1115.2 252.4 L 1115.6 252.3 L 1116.0 252.3 L 1116.4 252.2 L 1116.8 252.2 L 1117.3 252.2 L 1117.7 252.2 L 1118.2 252.2 L 1118.6 252.2 L 1119.1 252.2 L 1119.5 252.2 L 1120.0 252.3 L 1120.5 252.4 L 1121.0 252.4 L 1121.4 252.5 L 1121.9 252.6 L 1122.4 252.7 L 1122.9 252.9 L 1123.4 253.0 L 1123.9 253.2 L 1124.4 253.3 L 1124.9 253.5 L 1125.4 253.7 L 1125.8 253.9 L 1126.3 254.1 L 1126.8 254.4 L 1127.3 254.6 L 1127.8 254.9 L 1128.2 255.2 L 1128.7 255.5 L 1129.2 255.8 L 1129.6 256.1 L 1130.1 256.5 L 1130.5 256.8 L 1130.9 257.2 L 1131.4 257.6 L 1131.8 258.0 L 1132.2 258.4 L 1132.6 258.8 L 1132.9 259.3 L 1133.3 259.7 L 1133.7 260.2 L 1134.0 260.6 L 1134.4 261.1 L 1134.7 261.6 L 1135.0 262.1 L 1135.3 262.6 L 1135.6 263.1 L 1135.8 263.6 L 1136.1 264.2 L 1136.3 264.7 L 1136.6 265.3 L 1136.8 265.8 L 1136.9 266.4 L 1137.1 266.9 L 1137.3 267.5 L 1137.4 268.1 L 1137.5 268.7 L 1137.6 269.2 L 1137.7 269.8 L 1137.8 270.4 L 1137.8 271.0 L 1137.8 271.6 L 1137.8 272.2 L 1137.8 272.7 L 1137.8 273.3 L 1137.7 273.9 L 1137.7 274.5 L 1137.6 275.0 L 1137.5 275.6 L 1137.3 276.2 L 1137.2 276.7 L 1137.0 277.3 L 1136.9 277.8 L 1136.7 278.3 L 1136.4 278.8 L 1136.2 279.3 L 1136.0 279.8 L 1135.7 280.3 L 1135.4 280.8 L 1135.1 281.3 L 1134.8 281.7 L 1134.5 282.1 L 1134.1 282.6 L 1133.8 283.0 L 1133.4 283.3 L 1133.0 283.7 L 1132.6 284.1 L 1132.2 284.4 L 1131.8 284.7 L 1131.3 285.0 L 1130.9 285.3 L 1130.4 285.6 L 1129.9 285.8 L 1129.5 286.0 L 1129.0 286.2 L 1128.5 286.4 L 1128.0 286.6 L 1127.5 286.7 L 1127.0 286.8 L 1126.5 286.9 L 1126.0 287.0 L 1125.5 287.0 L 1125.0 287.0 L 1124.4 287.0 L 1123.9 287.0 L 1123.4 286.9 L 1122.9 286.9 L 1122.4 286.8 L 1121.9 286.7 L 1121.4 286.5 L 1120.9 286.4 L 1120.4 286.2 L 1119.9 285.9 L 1119.4 285.7 L 1119.0 285.5 L 1118.5 285.2 L 1118.1 284.9 L 1117.6 284.5 L 1117.2 284.2 L 1116.8 283.8 L 1116.4 283.4 L 1116.0 283.0 L 1115.7 282.6 L 1115.3 282.2 L 1115.0 281.7 L 1114.7 281.2 L 1114.4 280.7 L 1114.1 280.2 L 1113.9 279.6 L 1113.6 279.1 L 1113.4 278.5 L 1113.2 277.9 L 1113.0 277.3 L 1112.9 276.7 L 1112.8 276.1 L 1112.7 275.5 L 1112.6 274.8 L 1112.6 274.2 L 1112.5 273.5 L 1112.5 272.8 L 1112.6 272.2 L 1112.6 271.5 L 1112.7 270.8 L 1112.8 270.1 L 1113.0 269.4 L 1113.1 268.7 L 1113.3 268.0 L 1113.6 267.3 L 1113.8 266.6 L 1114.1 265.9 L 1114.4 265.2 L 1114.7 264.5 L 1115.1 263.8 L 1115.5 263.1 L 1115.9 262.5 L 1116.4 261.8 L 1116.8 261.1 L 1117.3 260.5 L 1117.9 259.9 L 1118.4 259.2 L 1119.0 258.6 L 1119.6 258.0 L 1120.3 257.4 L 1120.9 256.9 L 1121.6 256.3 L 1122.3 255.8 L 1123.1 255.3 L 1123.8 254.8 L 1124.6 254.3 L 1125.4 253.9 L 1126.2 253.4 L 1127.1 253.0 L 1127.9 252.6 L 1128.8 252.3 L 1129.7 252.0 L 1130.6 251.7 L 1131.6 251.4 L 1132.5 251.1 L 1133.5 250.9 L 1134.4 250.7 L 1135.4 250.5 L 1136.4 250.4 L 1137.4 250.3 L 1138.5 250.2 L 1139.5 250.2 L 1140.5 250.2 L 1141.6 250.2 L 1142.6 250.2 L 1143.7 250.3 L 1144.7 250.5 L 1145.8 250.6 L 1146.8 250.8 L 1147.9 251.0 L 1148.9 251.3 L 1150.0 251.5 L 1151.0 251.9 L 1152.0 252.2 L 1153.1 252.6 L 1154.1 253.0 L 1155.1 253.5 L 1156.1 253.9 L 1157.1 254.4 L 1158.1 255.0" fill="none" stroke="#b5342c" stroke-width="3.8" stroke-linecap="round"/><line x1="1158.1" y1="255.0" x2="1262.9" y2="313.4" stroke="#b5342c" stroke-width="3.8" stroke-linecap="round"/><path d="M 1272.5 318.7 L 1251.8 315.4 L 1258.7 302.9 z" fill="#b5342c"/>
<rect x="1255.9" y="301.5" width="70.0" height="55.0" rx="12.5" fill="white" stroke="#b5342c" stroke-width="3.4"/>
<circle cx="1278.4" cy="326.5" r="5.0" fill="#b5342c"/>
<circle cx="1303.4" cy="326.5" r="5.0" fill="#b5342c"/>
<line x1="1269.6" y1="311.5" x2="1285.9" y2="321.5" stroke="#b5342c" stroke-width="3.4" stroke-linecap="round"/>
<line x1="1312.1" y1="311.5" x2="1295.9" y2="321.5" stroke="#b5342c" stroke-width="3.4" stroke-linecap="round"/>
<path d="M 1275.9 350.2 Q 1290.9 337.7 1305.9 350.2" stroke="#b5342c" stroke-width="3.4" fill="none"/>
<path d="M 1259.6 304.0 C 1248.4 294.0 1245.9 284.0 1252.1 274.0 C 1254.6 285.2 1262.1 294.0 1270.9 304.0 Z" fill="#b5342c"/>
<path d="M 1322.1 304.0 C 1333.4 294.0 1335.9 284.0 1329.6 274.0 C 1327.1 285.2 1319.6 294.0 1310.9 304.0 Z" fill="#b5342c"/>
<text x="1336.9" y="330.0" font-family="Helvetica, Arial, sans-serif" font-size="21" font-weight="bold" fill="#b5342c">vicious</text>
<text x="1336.9" y="356.0" font-family="Helvetica, Arial, sans-serif" font-size="21" font-weight="bold" fill="#b5342c">cycle</text>
</svg>