<svg xmlns="http://www.w3.org/2000/svg" viewBox="0 0 1660 460" font-family="Helvetica, Arial, sans-serif">
<rect width="1660" height="460" fill="white"/>
<path d="M 420.0 235.0 A 320.0 125.0 0 0 1 740.0 110.0" fill="none" stroke="#6b7684" stroke-width="4"/>
<path d="M 740.0 110.0 A 320.0 125.0 0 0 1 1060.0 235.0" fill="none" stroke="#6b7684" stroke-width="4"/>
<path d="M 1060.0 235.0 A 320.0 125.0 0 0 1 420.0 235.0" fill="none" stroke="#6b7684" stroke-width="4"/>
<path d="M 524.9 142.2 L 507.6 157.4 L 501.9 142.8 z" fill="#6b7684"/>
<path d="M 977.5 151.0 L 954.5 150.4 L 960.2 135.9 z" fill="#6b7684"/>
<path d="M 888.3 345.9 L 907.6 333.5 L 911.1 348.8 z" fill="#6b7684"/>
<path d="M 568.3 340.6 L 591.1 337.8 L 587.6 353.0 z" fill="#6b7684"/>
<rect x="386.4" y="208.6" width="67.2" height="52.8" rx="12.0" fill="white" stroke="#2867b5" stroke-width="3.4"/>
<circle cx="408.0" cy="233.8" r="4.8" fill="#2867b5"/>
<circle cx="432.0" cy="233.8" r="4.8" fill="#2867b5"/>
<path d="M 405.6 248.2 Q 420.0 257.8 434.4 248.2" stroke="#2867b5" stroke-width="3.4" fill="none"/>
<line x1="420.0" y1="208.6" x2="420.0" y2="196.6" stroke="#2867b5" stroke-width="3.4"/>
<circle cx="420.0" cy="193.0" r="4.8" fill="#2867b5"/>
<text x="420.0" y="297.0" text-anchor="middle" font-family="Helvetica, Arial, sans-serif" font-size="21" font-weight="bold" fill="#2867b5" stroke="white" stroke-width="9" paint-order="stroke" stroke-linejoin="round">today's model</text>
<rect x="698" y="78" width="72" height="54" rx="8" fill="white" stroke="#2867b5" stroke-width="2.6"/>
<rect x="707" y="86" width="72" height="54" rx="8" fill="white" stroke="#2867b5" stroke-width="2.6"/>
<rect x="716" y="94" width="72" height="54" rx="8" fill="#f4f7fb" stroke="#2867b5" stroke-width="2.6"/>
<line x1="728" y1="106" x2="776" y2="106" stroke="#6b7684" stroke-width="3" stroke-linecap="round"/>
<line x1="728" y1="118" x2="776" y2="118" stroke="#6b7684" stroke-width="3" stroke-linecap="round"/>
<line x1="728" y1="130" x2="776" y2="130" stroke="#6b7684" stroke-width="3" stroke-linecap="round"/>
<rect x="1026.4" y="208.6" width="67.2" height="52.8" rx="12.0" fill="#eef3fa" stroke="#6f97cc" stroke-width="3.4"/>
<circle cx="1048.0" cy="233.8" r="4.8" fill="#6f97cc"/>
<circle cx="1072.0" cy="233.8" r="4.8" fill="#6f97cc"/>
<path d="M 1045.6 248.2 Q 1060.0 257.8 1074.4 248.2" stroke="#6f97cc" stroke-width="3.4" fill="none"/>
<line x1="1060.0" y1="208.6" x2="1060.0" y2="196.6" stroke="#6f97cc" stroke-width="3.4"/>
<circle cx="1060.0" cy="193.0" r="4.8" fill="#6f97cc"/>
<text x="1060.0" y="297.0" text-anchor="middle" font-family="Helvetica, Arial, sans-serif" font-size="21" font-weight="bold" fill="#6f97cc" stroke="white" stroke-width="9" paint-order="stroke" stroke-linejoin="round">tomorrow's model</text>
<text x="505.0" y="96.0" text-anchor="middle" font-family="Helvetica, Arial, sans-serif" font-size="21" font-weight="bold" fill="#1a1a1a">generates &amp; selects</text>
<text x="505.0" y="122.0" text-anchor="middle" font-family="Helvetica, Arial, sans-serif" font-size="21" font-weight="bold" fill="#1a1a1a">its training data</text>
<text x="985.0" y="109.0" text-anchor="middle" font-family="Helvetica, Arial, sans-serif" font-size="21" font-weight="bold" fill="#1a1a1a">fine-tunes</text>
<text x="740.0" y="205.0" text-anchor="middle" font-family="Helvetica, Arial, sans-serif" font-size="21" font-weight="normal" fill="#6b7684">self-rewarding</text>
<text x="740.0" y="235.0" text-anchor="middle" font-family="Helvetica, Arial, sans-serif" font-size="21" font-weight="normal" fill="#6b7684">constitutional loops</text>
<text x="740.0" y="265.0" text-anchor="middle" font-family="Helvetica, Arial, sans-serif" font-size="21" font-weight="normal" fill="#6b7684">synthetic data</text>
<text x="740.0" y="407.0" text-anchor="middle" font-family="Helvetica, Arial, sans-serif" font-size="22" font-weight="bold" fill="#1a1a1a">replaces</text>
<circle cx="185.0" cy="128.0" r="34.0" fill="#f4f7fb" stroke="#1a1a1a" stroke-width="5"/>
<circle cx="185.0" cy="128.0" r="7.5" fill="#2867b5"/>
<line x1="161.0" y1="152.0" x2="131.0" y2="182.0" stroke="#1a1a1a" stroke-width="9" stroke-linecap="round"/>
<line x1="217.0" y1="139.6" x2="362" y2="222" stroke="#6b7684" stroke-width="2.5" stroke-dasharray="7 6"/>
<text x="185.0" y="235.0" text-anchor="middle" font-family="Helvetica, Arial, sans-serif" font-size="20" font-weight="normal" fill="#1a1a1a">install a value,</text>
<text x="185.0" y="264.0" text-anchor="middle" font-family="Helvetica, Arial, sans-serif" font-size="20" font-weight="normal" fill="#1a1a1a">close the loop,</text>
<text x="185.0" y="293.0" text-anchor="middle" font-family="Helvetica, Arial, sans-serif" font-size="20" font-weight="normal" fill="#1a1a1a">watch it move</text>
<line x1="1100" y1="235" x2="1150" y2="235" stroke="#6b7684" stroke-width="3.4"/>
<path d="M 1132.0 235.0 L 1132.6 233.7 L 1133.2 232.4 L 1133.8 231.1 L 1134.6 229.8 L 1135.3 228.5 L 1136.2 227.3 L 1137.1 226.0 L 1138.1 224.8 L 1139.1 223.5 L 1140.1 222.3 L 1141.3 221.2 L 1142.4 220.0 L 1143.7 218.9 L 1144.9 217.8 L 1146.3 216.8 L 1147.6 215.8 L 1149.0 214.9 L 1150.5 214.0 L 1152.0 213.1 L 1153.5 212.3 L 1155.1 211.6 L 1156.6 210.9 L 1158.2 210.2 L 1159.9 209.7 L 1161.5 209.1 L 1163.2 208.7 L 1164.8 208.3 L 1166.5 208.0 L 1168.2 207.7 L 1169.9 207.5 L 1171.6 207.3 L 1173.3 207.3 L 1174.9 207.2 L 1176.6 207.3 L 1178.2 207.4 L 1179.9 207.6 L 1181.5 207.8 L 1183.0 208.1 L 1184.6 208.4 L 1186.1 208.8 L 1187.5 209.3 L 1189.0 209.8 L 1190.4 210.3 L 1191.7 210.9 L 1193.0 211.6 L 1194.2 212.3 L 1195.4 213.0 L 1196.5 213.8 L 1197.6 214.6 L 1198.6 215.4 L 1199.5 216.2 L 1200.4 217.1 L 1201.3 218.0 L 1202.0 218.9 L 1202.7 219.8 L 1203.3 220.7 L 1203.9 221.7 L 1204.3 222.6 L 1204.8 223.5 L 1205.1 224.4 L 1205.4 225.3 L 1205.6 226.2 L 1205.7 227.1 L 1205.8 227.9 L 1205.8 228.7 L 1205.8 229.5 L 1205.7 230.3 L 1205.5 231.0 L 1205.3 231.6 L 1205.0 232.3 L 1204.7 232.8 L 1204.3 233.4 L 1203.9 233.8 L 1203.4 234.3 L 1202.9 234.6 L 1202.4 234.9 L 1201.8 235.2 L 1201.2 235.3 L 1200.6 235.4 L 1199.9 235.5 L 1199.2 235.4 L 1198.6 235.3 L 1197.9 235.1 L 1197.2 234.9 L 1196.5 234.5 L 1195.8 234.1 L 1195.1 233.7 L 1194.4 233.1 L 1193.7 232.5 L 1193.1 231.8 L 1192.4 231.1 L 1191.8 230.2 L 1191.3 229.3 L 1190.7 228.4 L 1190.2 227.4 L 1189.8 226.3 L 1189.4 225.1 L 1189.0 223.9 L 1188.7 222.7 L 1188.4 221.4 L 1188.3 220.0 L 1188.1 218.6 L 1188.1 217.2 L 1188.1 215.7 L 1188.1 214.2 L 1188.3 212.6 L 1188.5 211.1 L 1188.8 209.5 L 1189.1 207.9 L 1189.6 206.3 L 1190.1 204.6 L 1190.7 203.0 L 1191.3 201.4 L 1192.1 199.7 L 1192.9 198.1 L 1193.8 196.5 L 1194.8 194.9 L 1195.8 193.3 L 1196.9 191.8 L 1198.1 190.3 L 1199.4 188.8 L 1200.8 187.4 L 1202.2 186.0 L 1203.6 184.6 L 1205.2 183.3 L 1206.8 182.1 L 1208.4 180.9 L 1210.1 179.8 L 1211.9 178.7 L 1213.7 177.7 L 1215.5 176.8 L 1217.4 175.9 L 1219.3 175.2 L 1221.2 174.5 L 1223.2 173.8 L 1225.2 173.3 L 1227.2 172.8 L 1229.2 172.4 L 1231.2 172.1 L 1233.2 171.9 L 1235.3 171.7 L 1237.3 171.7 L 1239.3 171.7 L 1241.3 171.8 L 1243.2 172.0 L 1245.2 172.3 L 1247.1 172.6 L 1249.0 173.0 L 1250.8 173.5 L 1252.6 174.1 L 1254.4 174.7 L 1256.1 175.4 L 1257.7 176.2 L 1259.3 177.0 L 1260.8 177.9 L 1262.3 178.9 L 1263.7 179.8 L 1265.0 180.9 L 1266.2 182.0 L 1267.4 183.1 L 1268.5 184.2 L 1269.5 185.4 L 1270.4 186.6 L 1271.3 187.9 L 1272.0 189.1 L 1272.7 190.4 L 1273.3 191.6 L 1273.8 192.9 L 1274.2 194.2 L 1274.5 195.4 L 1274.8 196.6 L 1274.9 197.9 L 1275.0 199.1 L 1274.9 200.2 L 1274.8 201.4 L 1274.7 202.5 L 1274.4 203.5 L 1274.1 204.5 L 1273.7 205.5 L 1273.2 206.4 L 1272.6 207.2 L 1272.0 208.0 L 1271.4 208.7 L 1270.6 209.3 L 1269.9 209.9 L 1269.1 210.4 L 1268.2 210.8 L 1267.3 211.1 L 1266.3 211.3 L 1265.4 211.5 L 1264.4 211.5 L 1263.4 211.5 L 1262.3 211.4 L 1261.3 211.2 L 1260.3 210.9 L 1259.2 210.5 L 1258.2 210.0 L 1257.2 209.5 L 1256.2 208.8 L 1255.2 208.1 L 1254.2 207.2 L 1253.3 206.3 L 1252.4 205.3 L 1251.6 204.2 L 1250.8 203.0 L 1250.0 201.7 L 1249.3 200.4 L 1248.7 199.0 L 1248.1 197.5 L 1247.7 196.0 L 1247.2 194.4 L 1246.9 192.7 L 1246.6 191.0 L 1246.4 189.2 L 1246.3 187.4 L 1246.3 185.6 L 1246.4 183.7 L 1246.5 181.8 L 1246.8 179.9 L 1247.2 177.9 L 1247.6 176.0 L 1248.1 174.0 L 1248.8 172.0 L 1249.5 170.1 L 1250.4 168.1 L 1251.3 166.2 L 1252.3 164.2 L 1253.4 162.3 L 1254.7 160.5 L 1256.0 158.6 L 1257.4 156.8 L 1258.8 155.1 L 1260.4 153.4" fill="none" stroke="#3a7d44" stroke-width="3.8" stroke-linecap="round"/><line x1="1260.4" y1="153.4" x2="1298.4" y2="112.3" stroke="#3a7d44" stroke-width="3.8" stroke-linecap="round"/><path d="M 1305.9 104.2 L 1297.7 123.6 L 1287.2 113.9 z" fill="#3a7d44"/>
<rect x="1283.8" y="62.7" width="70.0" height="55.0" rx="12.5" fill="white" stroke="#3a7d44" stroke-width="3.4"/>
<circle cx="1306.3" cy="87.7" r="5.0" fill="#3a7d44"/>
<circle cx="1331.3" cy="87.7" r="5.0" fill="#3a7d44"/>
<path d="M 1303.8 100.2 Q 1318.8 112.7 1333.8 100.2" stroke="#3a7d44" stroke-width="3.4" fill="none"/>
<ellipse cx="1318.8" cy="47.7" rx="25.0" ry="6.9" fill="none" stroke="#3a7d44" stroke-width="3.2"/>
<text x="1366.8" y="91.2" font-family="Helvetica, Arial, sans-serif" font-size="21" font-weight="bold" fill="#3a7d44">virtuous</text>
<text x="1366.8" y="117.2" font-family="Helvetica, Arial, sans-serif" font-size="21" font-weight="bold" fill="#3a7d44">cycle</text>
<path d="M 1132.0 235.0 L 1132.6 236.3 L 1133.2 237.6 L 1133.8 238.9 L 1134.6 240.2 L 1135.3 241.5 L 1136.2 242.7 L 1137.1 244.0 L 1138.1 245.2 L 1139.1 246.5 L 1140.1 247.7 L 1141.3 248.8 L 1142.4 250.0 L 1143.7 251.1 L 1144.9 252.2 L 1146.3 253.2 L 1147.6 254.2 L 1149.0 255.1 L 1150.5 256.0 L 1152.0 256.9 L 1153.5 257.7 L 1155.1 258.4 L 1156.6 259.1 L 1158.2 259.8 L 1159.9 260.3 L 1161.5 260.9 L 1163.2 261.3 L 1164.8 261.7 L 1166.5 262.0 L 1168.2 262.3 L 1169.9 262.5 L 1171.6 262.7 L 1173.3 262.7 L 1174.9 262.8 L 1176.6 262.7 L 1178.2 262.6 L 1179.9 262.4 L 1181.5 262.2 L 1183.0 261.9 L 1184.6 261.6 L 1186.1 261.2 L 1187.5 260.7 L 1189.0 260.2 L 1190.4 259.7 L 1191.7 259.1 L 1193.0 258.4 L 1194.2 257.7 L 1195.4 257.0 L 1196.5 256.2 L 1197.6 255.4 L 1198.6 254.6 L 1199.5 253.8 L 1200.4 252.9 L 1201.3 252.0 L 1202.0 251.1 L 1202.7 250.2 L 1203.3 249.3 L 1203.9 248.3 L 1204.3 247.4 L 1204.8 246.5 L 1205.1 245.6 L 1205.4 244.7 L 1205.6 243.8 L 1205.7 242.9 L 1205.8 242.1 L 1205.8 241.3 L 1205.8 240.5 L 1205.7 239.7 L 1205.5 239.0 L 1205.3 238.4 L 1205.0 237.7 L 1204.7 237.2 L 1204.3 236.6 L 1203.9 236.2 L 1203.4 235.7 L 1202.9 235.4 L 1202.4 235.1 L 1201.8 234.8 L 1201.2 234.7 L 1200.6 234.6 L 1199.9 234.5 L 1199.2 234.6 L 1198.6 234.7 L 1197.9 234.9 L 1197.2 235.1 L 1196.5 235.5 L 1195.8 235.9 L 1195.1 236.3 L 1194.4 236.9 L 1193.7 237.5 L 1193.1 238.2 L 1192.4 238.9 L 1191.8 239.8 L 1191.3 240.7 L 1190.7 241.6 L 1190.2 242.6 L 1189.8 243.7 L 1189.4 244.9 L 1189.0 246.1 L 1188.7 247.3 L 1188.4 248.6 L 1188.3 250.0 L 1188.1 251.4 L 1188.1 252.8 L 1188.1 254.3 L 1188.1 255.8 L 1188.3 257.4 L 1188.5 258.9 L 1188.8 260.5 L 1189.1 262.1 L 1189.6 263.7 L 1190.1 265.4 L 1190.7 267.0 L 1191.3 268.6 L 1192.1 270.3 L 1192.9 271.9 L 1193.8 273.5 L 1194.8 275.1 L 1195.8 276.7 L 1196.9 278.2 L 1198.1 279.7 L 1199.4 281.2 L 1200.8 282.6 L 1202.2 284.0 L 1203.6 285.4 L 1205.2 286.7 L 1206.8 287.9 L 1208.4 289.1 L 1210.1 290.2 L 1211.9 291.3 L 1213.7 292.3 L 1215.5 293.2 L 1217.4 294.1 L 1219.3 294.8 L 1221.2 295.5 L 1223.2 296.2 L 1225.2 296.7 L 1227.2 297.2 L 1229.2 297.6 L 1231.2 297.9 L 1233.2 298.1 L 1235.3 298.3 L 1237.3 298.3 L 1239.3 298.3 L 1241.3 298.2 L 1243.2 298.0 L 1245.2 297.7 L 1247.1 297.4 L 1249.0 297.0 L 1250.8 296.5 L 1252.6 295.9 L 1254.4 295.3 L 1256.1 294.6 L 1257.7 293.8 L 1259.3 293.0 L 1260.8 292.1 L 1262.3 291.1 L 1263.7 290.2 L 1265.0 289.1 L 1266.2 288.0 L 1267.4 286.9 L 1268.5 285.8 L 1269.5 284.6 L 1270.4 283.4 L 1271.3 282.1 L 1272.0 280.9 L 1272.7 279.6 L 1273.3 278.4 L 1273.8 277.1 L 1274.2 275.8 L 1274.5 274.6 L 1274.8 273.4 L 1274.9 272.1 L 1275.0 270.9 L 1274.9 269.8 L 1274.8 268.6 L 1274.7 267.5 L 1274.4 266.5 L 1274.1 265.5 L 1273.7 264.5 L 1273.2 263.6 L 1272.6 262.8 L 1272.0 262.0 L 1271.4 261.3 L 1270.6 260.7 L 1269.9 260.1 L 1269.1 259.6 L 1268.2 259.2 L 1267.3 258.9 L 1266.3 258.7 L 1265.4 258.5 L 1264.4 258.5 L 1263.4 258.5 L 1262.3 258.6 L 1261.3 258.8 L 1260.3 259.1 L 1259.2 259.5 L 1258.2 260.0 L 1257.2 260.5 L 1256.2 261.2 L 1255.2 261.9 L 1254.2 262.8 L 1253.3 263.7 L 1252.4 264.7 L 1251.6 265.8 L 1250.8 267.0 L 1250.0 268.3 L 1249.3 269.6 L 1248.7 271.0 L 1248.1 272.5 L 1247.7 274.0 L 1247.2 275.6 L 1246.9 277.3 L 1246.6 279.0 L 1246.4 280.8 L 1246.3 282.6 L 1246.3 284.4 L 1246.4 286.3 L 1246.5 288.2 L 1246.8 290.1 L 1247.2 292.1 L 1247.6 294.0 L 1248.1 296.0 L 1248.8 298.0 L 1249.5 299.9 L 1250.4 301.9 L 1251.3 303.8 L 1252.3 305.8 L 1253.4 307.7 L 1254.7 309.5 L 1256.0 311.4 L 1257.4 313.2 L 1258.8 314.9 L 1260.4 316.6" fill="none" stroke="#b5342c" stroke-width="3.8" stroke-linecap="round"/><line x1="1260.4" y1="316.6" x2="1298.4" y2="357.7" stroke="#b5342c" stroke-width="3.8" stroke-linecap="round"/><path d="M 1305.9 365.8 L 1287.2 356.1 L 1297.7 346.4 z" fill="#b5342c"/>
<rect x="1283.8" y="352.3" width="70.0" height="55.0" rx="12.5" fill="white" stroke="#b5342c" stroke-width="3.4"/>
<circle cx="1306.3" cy="377.3" r="5.0" fill="#b5342c"/>
<circle cx="1331.3" cy="377.3" r="5.0" fill="#b5342c"/>
<line x1="1297.5" y1="362.3" x2="1313.8" y2="372.3" stroke="#b5342c" stroke-width="3.4" stroke-linecap="round"/>
<line x1="1340.0" y1="362.3" x2="1323.8" y2="372.3" stroke="#b5342c" stroke-width="3.4" stroke-linecap="round"/>
<path d="M 1303.8 401.0 Q 1318.8 388.5 1333.8 401.0" stroke="#b5342c" stroke-width="3.4" fill="none"/>
<path d="M 1291.3 354.8 C 1273.8 344.8 1266.3 331.0 1265.0 311.0 C 1281.3 331.0 1296.3 343.5 1308.8 354.8 Z" fill="#b5342c"/>
<path d="M 1346.3 354.8 C 1363.8 344.8 1371.3 331.0 1372.5 311.0 C 1356.3 331.0 1341.3 343.5 1328.8 354.8 Z" fill="#b5342c"/>
<text x="1376.8" y="380.8" font-family="Helvetica, Arial, sans-serif" font-size="21" font-weight="bold" fill="#b5342c">vicious</text>
<text x="1376.8" y="406.8" font-family="Helvetica, Arial, sans-serif" font-size="21" font-weight="bold" fill="#b5342c">cycle</text>
</svg>