<svg xmlns="http://www.w3.org/2000/svg" viewBox="0 0 1500 702" font-family="Helvetica, Arial, sans-serif">
<rect width="1500" height="702" fill="white"/>
<text x="750" y="50" text-anchor="middle" font-family="Helvetica, Arial, sans-serif" font-size="28" font-weight="bold" fill="#1a1a1a">Selection can use up the variation it needs — adding base-model answers reopens movement</text>
<line x1="270" y1="114" x2="310" y2="114" stroke="#2867b5" stroke-width="4.5"/>
<text x="320" y="119" text-anchor="start" font-family="Helvetica, Arial, sans-serif" font-size="19" font-weight="normal" fill="#1a1a1a">the value's state, round by round</text>
<rect x="670" y="102" width="30" height="20" rx="4" fill="#cfe3f5" stroke="#8fb8dd" stroke-width="1.4"/>
<text x="710" y="119" text-anchor="start" font-family="Helvetica, Arial, sans-serif" font-size="19" font-weight="normal" fill="#1a1a1a">spread of the six answers on the measured value</text>
<polygon points="264.0,134.0 276.0,134.0 270.0,146.0" fill="#c07d18"/>
<text x="284" y="149" text-anchor="start" font-family="Helvetica, Arial, sans-serif" font-size="19" font-weight="normal" fill="#1a1a1a">base-model answers added to the pool</text>
<rect x="30" y="196" width="453" height="478" rx="14" fill="white" stroke="#d8dde3" stroke-width="1.6"/>
<text x="256.5" y="226" text-anchor="middle" font-family="Helvetica, Arial, sans-serif" font-size="21" font-weight="bold" fill="#1a1a1a">The value reverses</text>
<text x="256.5" y="252.0" text-anchor="middle" font-family="Helvetica, Arial, sans-serif" font-size="16" font-weight="normal" fill="#6b7684">OLMo risk model · min-risk judge (score-based, no</text>
<text x="256.5" y="273.6" text-anchor="middle" font-family="Helvetica, Arial, sans-serif" font-size="16" font-weight="normal" fill="#6b7684">reference) · pool: its own answers only</text>
<line x1="106" y1="500.0" x2="437" y2="500.0" stroke="#e7e9ec" stroke-width="1"/>
<text x="94" y="505.0" text-anchor="end" font-family="Helvetica, Arial, sans-serif" font-size="16" font-weight="normal" fill="#6b7684">0</text>
<line x1="106" y1="422.3" x2="437" y2="422.3" stroke="#e7e9ec" stroke-width="1"/>
<text x="94" y="427.33009708737865" text-anchor="end" font-family="Helvetica, Arial, sans-serif" font-size="16" font-weight="normal" fill="#6b7684">0.5</text>
<line x1="106" y1="344.7" x2="437" y2="344.7" stroke="#e7e9ec" stroke-width="1"/>
<text x="94" y="349.6601941747573" text-anchor="end" font-family="Helvetica, Arial, sans-serif" font-size="16" font-weight="normal" fill="#6b7684">1</text>
<line x1="106" y1="560.0" x2="437" y2="560.0" stroke="#d8dde3" stroke-width="1.4"/>
<text x="94" y="542.0" text-anchor="end" font-family="Helvetica, Arial, sans-serif" font-size="14" font-weight="normal" fill="#6b7684">variation</text>
<line x1="106.0" y1="340" x2="106.0" y2="500" stroke="#f0f1f3" stroke-width="1"/>
<text x="106.0" y="586" text-anchor="middle" font-family="Helvetica, Arial, sans-serif" font-size="16" font-weight="normal" fill="#6b7684">0</text>
<line x1="188.8" y1="340" x2="188.8" y2="500" stroke="#f0f1f3" stroke-width="1"/>
<text x="188.75" y="586" text-anchor="middle" font-family="Helvetica, Arial, sans-serif" font-size="16" font-weight="normal" fill="#6b7684">1</text>
<line x1="271.5" y1="340" x2="271.5" y2="500" stroke="#f0f1f3" stroke-width="1"/>
<text x="271.5" y="586" text-anchor="middle" font-family="Helvetica, Arial, sans-serif" font-size="16" font-weight="normal" fill="#6b7684">2</text>
<line x1="354.2" y1="340" x2="354.2" y2="500" stroke="#f0f1f3" stroke-width="1"/>
<text x="354.25" y="586" text-anchor="middle" font-family="Helvetica, Arial, sans-serif" font-size="16" font-weight="normal" fill="#6b7684">3</text>
<line x1="437.0" y1="340" x2="437.0" y2="500" stroke="#f0f1f3" stroke-width="1"/>
<text x="437.0" y="586" text-anchor="middle" font-family="Helvetica, Arial, sans-serif" font-size="16" font-weight="normal" fill="#6b7684">4</text>
<text x="271.5" y="610" text-anchor="middle" font-family="Helvetica, Arial, sans-serif" font-size="16" font-weight="normal" fill="#6b7684">round</text>
<path d="M 106.0 560.0 L 106.0 541.2 L 188.8 514.0 L 271.5 523.3 L 354.2 548.9 L 437.0 548.9 L 437.0 560.0 Z" fill="#cfe3f5" stroke="#8fb8dd" stroke-width="1.4"/>
<polyline points="106.0,357.6 188.8,396.4 271.5,428.9 354.2,454.6 437.0,485.4" fill="none" stroke="#2867b5" stroke-width="4.5"/>
<circle cx="106.0" cy="357.6" r="5.5" fill="#2867b5" stroke="white" stroke-width="1.5"/>
<circle cx="188.8" cy="396.4" r="5.5" fill="#2867b5" stroke="white" stroke-width="1.5"/>
<circle cx="271.5" cy="428.9" r="5.5" fill="#2867b5" stroke="white" stroke-width="1.5"/>
<circle cx="354.2" cy="454.6" r="5.5" fill="#2867b5" stroke="white" stroke-width="1.5"/>
<circle cx="437.0" cy="485.4" r="5.5" fill="#2867b5" stroke="white" stroke-width="1.5"/>
<text x="100.0" y="343.5533980582524" text-anchor="start" font-family="Helvetica, Arial, sans-serif" font-size="19" font-weight="bold" fill="#2867b5">0.917</text>
<text x="443.0" y="473.3980582524272" text-anchor="end" font-family="Helvetica, Arial, sans-serif" font-size="19" font-weight="bold" fill="#2867b5">0.094</text>
<rect x="523" y="196" width="453" height="478" rx="14" fill="white" stroke="#d8dde3" stroke-width="1.6"/>
<text x="749.5" y="226" text-anchor="middle" font-family="Helvetica, Arial, sans-serif" font-size="21" font-weight="bold" fill="#1a1a1a">The railed value comes down</text>
<text x="749.5" y="252.0" text-anchor="middle" font-family="Helvetica, Arial, sans-serif" font-size="16" font-weight="normal" fill="#6b7684">OLMo risk model · min-risk judge (score-based:</text>
<text x="749.5" y="273.6" text-anchor="middle" font-family="Helvetica, Arial, sans-serif" font-size="16" font-weight="normal" fill="#6b7684">keeps the 2 lowest-risk answers) · pool: half its</text>
<text x="749.5" y="295.2" text-anchor="middle" font-family="Helvetica, Arial, sans-serif" font-size="16" font-weight="normal" fill="#6b7684">own, half base-model answers</text>
<line x1="599" y1="500.0" x2="930" y2="500.0" stroke="#e7e9ec" stroke-width="1"/>
<text x="587" y="505.0" text-anchor="end" font-family="Helvetica, Arial, sans-serif" font-size="16" font-weight="normal" fill="#6b7684">0</text>
<line x1="599" y1="422.3" x2="930" y2="422.3" stroke="#e7e9ec" stroke-width="1"/>
<text x="587" y="427.33009708737865" text-anchor="end" font-family="Helvetica, Arial, sans-serif" font-size="16" font-weight="normal" fill="#6b7684">0.5</text>
<line x1="599" y1="344.7" x2="930" y2="344.7" stroke="#e7e9ec" stroke-width="1"/>
<text x="587" y="349.6601941747573" text-anchor="end" font-family="Helvetica, Arial, sans-serif" font-size="16" font-weight="normal" fill="#6b7684">1</text>
<line x1="599" y1="560.0" x2="930" y2="560.0" stroke="#d8dde3" stroke-width="1.4"/>
<text x="587" y="542.0" text-anchor="end" font-family="Helvetica, Arial, sans-serif" font-size="14" font-weight="normal" fill="#6b7684">variation</text>
<line x1="599.0" y1="340" x2="599.0" y2="500" stroke="#f0f1f3" stroke-width="1"/>
<text x="599.0" y="586" text-anchor="middle" font-family="Helvetica, Arial, sans-serif" font-size="16" font-weight="normal" fill="#6b7684">0</text>
<line x1="681.8" y1="340" x2="681.8" y2="500" stroke="#f0f1f3" stroke-width="1"/>
<text x="681.75" y="586" text-anchor="middle" font-family="Helvetica, Arial, sans-serif" font-size="16" font-weight="normal" fill="#6b7684">1</text>
<line x1="764.5" y1="340" x2="764.5" y2="500" stroke="#f0f1f3" stroke-width="1"/>
<text x="764.5" y="586" text-anchor="middle" font-family="Helvetica, Arial, sans-serif" font-size="16" font-weight="normal" fill="#6b7684">2</text>
<line x1="847.2" y1="340" x2="847.2" y2="500" stroke="#f0f1f3" stroke-width="1"/>
<text x="847.25" y="586" text-anchor="middle" font-family="Helvetica, Arial, sans-serif" font-size="16" font-weight="normal" fill="#6b7684">3</text>
<line x1="930.0" y1="340" x2="930.0" y2="500" stroke="#f0f1f3" stroke-width="1"/>
<text x="930.0" y="586" text-anchor="middle" font-family="Helvetica, Arial, sans-serif" font-size="16" font-weight="normal" fill="#6b7684">4</text>
<text x="764.5" y="610" text-anchor="middle" font-family="Helvetica, Arial, sans-serif" font-size="16" font-weight="normal" fill="#6b7684">round</text>
<path d="M 599.0 560.0 L 599.0 527.0 L 681.8 522.3 L 764.5 518.7 L 847.2 514.0 L 930.0 514.0 L 930.0 560.0 Z" fill="#cfe3f5" stroke="#8fb8dd" stroke-width="1.4"/>
<rect x="599.0" y="322.0" width="331.0" height="238.0" fill="#c07d18" opacity="0.10"/>
<text x="764.5" y="318" text-anchor="middle" font-family="Helvetica, Arial, sans-serif" font-size="18" font-weight="bold" fill="#c07d18">base answers in the pool every round</text>
<polyline points="599.0,344.7 681.8,383.5 764.5,428.9 847.2,467.7 930.0,424.8" fill="none" stroke="#2867b5" stroke-width="4.5"/>
<circle cx="599.0" cy="344.7" r="5.5" fill="#2867b5" stroke="white" stroke-width="1.5"/>
<circle cx="681.8" cy="383.5" r="5.5" fill="#2867b5" stroke="white" stroke-width="1.5"/>
<circle cx="764.5" cy="428.9" r="5.5" fill="#2867b5" stroke="white" stroke-width="1.5"/>
<circle cx="847.2" cy="467.7" r="5.5" fill="#2867b5" stroke="white" stroke-width="1.5"/>
<circle cx="930.0" cy="424.8" r="5.5" fill="#2867b5" stroke="white" stroke-width="1.5"/>
<text x="613.0" y="340.6601941747573" text-anchor="start" font-family="Helvetica, Arial, sans-serif" font-size="19" font-weight="bold" fill="#2867b5">1.000</text>
<text x="936.0" y="412.81553398058253" text-anchor="end" font-family="Helvetica, Arial, sans-serif" font-size="19" font-weight="bold" fill="#2867b5">0.484</text>
<text x="855.25" y="449.68932038834953" text-anchor="start" font-family="Helvetica, Arial, sans-serif" font-size="15" font-weight="normal" fill="#2867b5">0.208</text>
<rect x="1016" y="196" width="453" height="478" rx="14" fill="white" stroke="#d8dde3" stroke-width="1.6"/>
<text x="1242.5" y="226" text-anchor="middle" font-family="Helvetica, Arial, sans-serif" font-size="21" font-weight="bold" fill="#1a1a1a">A stall, then the fall restarts</text>
<text x="1242.5" y="252.0" text-anchor="middle" font-family="Helvetica, Arial, sans-serif" font-size="16" font-weight="normal" fill="#6b7684">Qwen insecure-code model · min-insecurity judge</text>
<text x="1242.5" y="273.6" text-anchor="middle" font-family="Helvetica, Arial, sans-serif" font-size="16" font-weight="normal" fill="#6b7684">(score-based) · pool: own answers only, then half</text>
<text x="1242.5" y="295.2" text-anchor="middle" font-family="Helvetica, Arial, sans-serif" font-size="16" font-weight="normal" fill="#6b7684">base-model</text>
<line x1="1092" y1="500.0" x2="1423" y2="500.0" stroke="#e7e9ec" stroke-width="1"/>
<text x="1080" y="505.0" text-anchor="end" font-family="Helvetica, Arial, sans-serif" font-size="16" font-weight="normal" fill="#6b7684">0</text>
<line x1="1092" y1="422.3" x2="1423" y2="422.3" stroke="#e7e9ec" stroke-width="1"/>
<text x="1080" y="427.33009708737865" text-anchor="end" font-family="Helvetica, Arial, sans-serif" font-size="16" font-weight="normal" fill="#6b7684">0.5</text>
<line x1="1092" y1="344.7" x2="1423" y2="344.7" stroke="#e7e9ec" stroke-width="1"/>
<text x="1080" y="349.6601941747573" text-anchor="end" font-family="Helvetica, Arial, sans-serif" font-size="16" font-weight="normal" fill="#6b7684">1</text>
<line x1="1092" y1="560.0" x2="1423" y2="560.0" stroke="#d8dde3" stroke-width="1.4"/>
<text x="1080" y="542.0" text-anchor="end" font-family="Helvetica, Arial, sans-serif" font-size="14" font-weight="normal" fill="#6b7684">variation</text>
<line x1="1092.0" y1="340" x2="1092.0" y2="500" stroke="#f0f1f3" stroke-width="1"/>
<text x="1092.0" y="586" text-anchor="middle" font-family="Helvetica, Arial, sans-serif" font-size="16" font-weight="normal" fill="#6b7684">0</text>
<line x1="1174.8" y1="340" x2="1174.8" y2="500" stroke="#f0f1f3" stroke-width="1"/>
<text x="1174.75" y="586" text-anchor="middle" font-family="Helvetica, Arial, sans-serif" font-size="16" font-weight="normal" fill="#6b7684">1</text>
<line x1="1257.5" y1="340" x2="1257.5" y2="500" stroke="#f0f1f3" stroke-width="1"/>
<text x="1257.5" y="586" text-anchor="middle" font-family="Helvetica, Arial, sans-serif" font-size="16" font-weight="normal" fill="#6b7684">2</text>
<line x1="1340.2" y1="340" x2="1340.2" y2="500" stroke="#f0f1f3" stroke-width="1"/>
<text x="1340.25" y="586" text-anchor="middle" font-family="Helvetica, Arial, sans-serif" font-size="16" font-weight="normal" fill="#6b7684">3</text>
<line x1="1423.0" y1="340" x2="1423.0" y2="500" stroke="#f0f1f3" stroke-width="1"/>
<text x="1423.0" y="586" text-anchor="middle" font-family="Helvetica, Arial, sans-serif" font-size="16" font-weight="normal" fill="#6b7684">4</text>
<text x="1257.5" y="610" text-anchor="middle" font-family="Helvetica, Arial, sans-serif" font-size="16" font-weight="normal" fill="#6b7684">round</text>
<path d="M 1092.0 560.0 L 1092.0 560.0 L 1174.8 560.0 L 1257.5 560.0 L 1340.2 560.0 L 1423.0 560.0 L 1423.0 560.0 Z" fill="#dee2e6" stroke="#b7bcc2" stroke-width="1.4"/>
<path d="M 1092.0 560.0 L 1092.0 560.0 L 1174.8 514.0 L 1257.5 546.6 L 1340.2 546.6 L 1423.0 546.6 L 1423.0 560.0 Z" fill="#cfe3f5" stroke="#8fb8dd" stroke-width="1.4"/>
<rect x="1174.8" y="322.0" width="248.2" height="238.0" fill="#c07d18" opacity="0.10"/>
<line x1="1174.8" y1="322.0" x2="1174.8" y2="560.0" stroke="#c07d18" stroke-width="2"/>
<text x="1298.875" y="318" text-anchor="middle" font-family="Helvetica, Arial, sans-serif" font-size="18" font-weight="bold" fill="#c07d18">base answers in the pool from round 1</text>
<polyline points="1092.0,402.6 1174.8,402.6 1257.5,402.6 1340.2,402.6 1423.0,402.6" fill="none" stroke="#6b7684" stroke-width="4.5"/>
<circle cx="1092.0" cy="402.6" r="5.5" fill="#6b7684" stroke="white" stroke-width="1.5"/>
<circle cx="1174.8" cy="402.6" r="5.5" fill="#6b7684" stroke="white" stroke-width="1.5"/>
<circle cx="1257.5" cy="402.6" r="5.5" fill="#6b7684" stroke="white" stroke-width="1.5"/>
<circle cx="1340.2" cy="402.6" r="5.5" fill="#6b7684" stroke="white" stroke-width="1.5"/>
<circle cx="1423.0" cy="402.6" r="5.5" fill="#6b7684" stroke="white" stroke-width="1.5"/>
<text x="1257.5" y="388.6019417475728" text-anchor="middle" font-family="Helvetica, Arial, sans-serif" font-size="15" font-weight="normal" fill="#6b7684">the model's own answers only</text>
<polyline points="1092.0,402.6 1174.8,500.0 1257.5,500.0 1340.2,500.0 1423.0,500.0" fill="none" stroke="#2867b5" stroke-width="4.5"/>
<circle cx="1092.0" cy="402.6" r="5.5" fill="#2867b5" stroke="white" stroke-width="1.5"/>
<circle cx="1174.8" cy="500.0" r="5.5" fill="#2867b5" stroke="white" stroke-width="1.5"/>
<circle cx="1257.5" cy="500.0" r="5.5" fill="#2867b5" stroke="white" stroke-width="1.5"/>
<circle cx="1340.2" cy="500.0" r="5.5" fill="#2867b5" stroke="white" stroke-width="1.5"/>
<circle cx="1423.0" cy="500.0" r="5.5" fill="#2867b5" stroke="white" stroke-width="1.5"/>
<text x="1086.0" y="388.6019417475728" text-anchor="start" font-family="Helvetica, Arial, sans-serif" font-size="19" font-weight="bold" fill="#2867b5">0.627</text>
<text x="1429.0" y="488.0" text-anchor="end" font-family="Helvetica, Arial, sans-serif" font-size="19" font-weight="bold" fill="#2867b5">0.000</text>
<text x="1243.5" y="482.0" text-anchor="middle" font-family="Helvetica, Arial, sans-serif" font-size="15" font-weight="normal" fill="#6b7684">with base answers added</text>
</svg>