<svg xmlns="http://www.w3.org/2000/svg" viewBox="0 0 1680 1180" font-family="Helvetica, Arial, sans-serif">
<rect width="1680" height="1180" fill="white"/>
<text x="55.0" y="60.0" text-anchor="start" font-family="Helvetica, Arial, sans-serif" font-size="36" font-weight="bold" fill="#17212b">Entropy shapes the intervention window, but it is not the movement variable</text>
<text x="55.0" y="98.0" text-anchor="start" font-family="Helvetica, Arial, sans-serif" font-size="20" font-weight="normal" fill="#647180">Across saved self-training runs, data source and optimizer-update count control token entropy; selection still needs variation on the chosen value axis.</text>
<rect x="55.0" y="155.0" width="755.0" height="410.0" rx="16" fill="#fbfcfd" stroke="#dce2e8" stroke-width="1.5"/>
<text x="79.0" y="193.0" text-anchor="start" font-family="Helvetica, Arial, sans-serif" font-size="18" font-weight="bold" fill="#2867b5">A</text>
<text x="113.0" y="193.0" text-anchor="start" font-family="Helvetica, Arial, sans-serif" font-size="24" font-weight="bold" fill="#17212b">Fresh data rescues output entropy</text>
<text x="113.0" y="221.0" text-anchor="start" font-family="Helvetica, Arial, sans-serif" font-size="17" font-weight="normal" fill="#647180">Five training rounds; dots are individual runs, lines are cell means (n=2).</text>
<line x1="149.0" y1="260.0" x2="149.0" y2="505.0" stroke="#647180" stroke-width="1.4"/>
<line x1="149.0" y1="505.0" x2="774.0" y2="505.0" stroke="#647180" stroke-width="1.4"/>
<line x1="149.0" y1="505.0" x2="774.0" y2="505.0" stroke="#dce2e8" stroke-width="1.0"/>
<text x="139.0" y="511.0" text-anchor="end" font-family="Helvetica, Arial, sans-serif" font-size="15" font-weight="normal" fill="#647180">0.0</text>
<line x1="149.0" y1="423.3" x2="774.0" y2="423.3" stroke="#dce2e8" stroke-width="1.0"/>
<text x="139.0" y="429.3" text-anchor="end" font-family="Helvetica, Arial, sans-serif" font-size="15" font-weight="normal" fill="#647180">0.4</text>
<line x1="149.0" y1="341.7" x2="774.0" y2="341.7" stroke="#dce2e8" stroke-width="1.0"/>
<text x="139.0" y="347.7" text-anchor="end" font-family="Helvetica, Arial, sans-serif" font-size="15" font-weight="normal" fill="#647180">0.8</text>
<line x1="149.0" y1="260.0" x2="774.0" y2="260.0" stroke="#dce2e8" stroke-width="1.0"/>
<text x="139.0" y="266.0" text-anchor="end" font-family="Helvetica, Arial, sans-serif" font-size="15" font-weight="normal" fill="#647180">1.2</text>
<text x="92.0" y="382.5" text-anchor="middle" transform="rotate(-90 92.0 382.5)" font-family="Helvetica, Arial, sans-serif" font-size="16" fill="#647180">final token entropy</text>
<text x="149.0" y="530.0" text-anchor="middle" font-family="Helvetica, Arial, sans-serif" font-size="16" font-weight="normal" fill="#647180">25%</text>
<text x="357.3" y="530.0" text-anchor="middle" font-family="Helvetica, Arial, sans-serif" font-size="16" font-weight="normal" fill="#647180">50%</text>
<text x="565.7" y="530.0" text-anchor="middle" font-family="Helvetica, Arial, sans-serif" font-size="16" font-weight="normal" fill="#647180">75%</text>
<text x="774.0" y="530.0" text-anchor="middle" font-family="Helvetica, Arial, sans-serif" font-size="16" font-weight="normal" fill="#647180">100%</text>
<text x="461.5" y="556.0" text-anchor="middle" font-family="Helvetica, Arial, sans-serif" font-size="16" font-weight="normal" fill="#647180">share of training data generated by the model</text>
<line x1="149.0" y1="378.1" x2="149.0" y2="262.5" stroke="#2867b5" stroke-width="1.8"/>
<line x1="143.0" y1="378.1" x2="155.0" y2="378.1" stroke="#2867b5" stroke-width="1.8"/>
<line x1="143.0" y1="262.5" x2="155.0" y2="262.5" stroke="#2867b5" stroke-width="1.8"/>
<circle cx="149.0" cy="378.1" r="4.7" fill="#2867b5" stroke="white" stroke-width="1.5"/>
<circle cx="149.0" cy="262.5" r="4.7" fill="#2867b5" stroke="white" stroke-width="1.5"/>
<line x1="357.3" y1="385.3" x2="357.3" y2="319.1" stroke="#2867b5" stroke-width="1.8"/>
<line x1="351.3" y1="385.3" x2="363.3" y2="385.3" stroke="#2867b5" stroke-width="1.8"/>
<line x1="351.3" y1="319.1" x2="363.3" y2="319.1" stroke="#2867b5" stroke-width="1.8"/>
<circle cx="357.3" cy="385.3" r="4.7" fill="#2867b5" stroke="white" stroke-width="1.5"/>
<circle cx="357.3" cy="319.1" r="4.7" fill="#2867b5" stroke="white" stroke-width="1.5"/>
<line x1="565.7" y1="425.9" x2="565.7" y2="281.1" stroke="#2867b5" stroke-width="1.8"/>
<line x1="559.7" y1="425.9" x2="571.7" y2="425.9" stroke="#2867b5" stroke-width="1.8"/>
<line x1="559.7" y1="281.1" x2="571.7" y2="281.1" stroke="#2867b5" stroke-width="1.8"/>
<circle cx="565.7" cy="425.9" r="4.7" fill="#2867b5" stroke="white" stroke-width="1.5"/>
<circle cx="565.7" cy="281.1" r="4.7" fill="#2867b5" stroke="white" stroke-width="1.5"/>
<line x1="774.0" y1="448.1" x2="774.0" y2="423.2" stroke="#2867b5" stroke-width="1.8"/>
<line x1="768.0" y1="448.1" x2="780.0" y2="448.1" stroke="#2867b5" stroke-width="1.8"/>
<line x1="768.0" y1="423.2" x2="780.0" y2="423.2" stroke="#2867b5" stroke-width="1.8"/>
<circle cx="774.0" cy="448.1" r="4.7" fill="#2867b5" stroke="white" stroke-width="1.5"/>
<circle cx="774.0" cy="423.2" r="4.7" fill="#2867b5" stroke="white" stroke-width="1.5"/>
<polyline points="149.0,320.3 357.3,352.2 565.7,353.5 774.0,435.7" fill="none" stroke="#2867b5" stroke-width="3.5"/>
<circle cx="149.0" cy="320.3" r="7.0" fill="#2867b5" stroke="white" stroke-width="1.5"/>
<circle cx="357.3" cy="352.2" r="7.0" fill="#2867b5" stroke="white" stroke-width="1.5"/>
<circle cx="565.7" cy="353.5" r="7.0" fill="#2867b5" stroke="white" stroke-width="1.5"/>
<circle cx="774.0" cy="435.7" r="7.0" fill="#2867b5" stroke="white" stroke-width="1.5"/>
<line x1="149.0" y1="354.5" x2="149.0" y2="318.9" stroke="#b5342c" stroke-width="1.8"/>
<line x1="143.0" y1="354.5" x2="155.0" y2="354.5" stroke="#b5342c" stroke-width="1.8"/>
<line x1="143.0" y1="318.9" x2="155.0" y2="318.9" stroke="#b5342c" stroke-width="1.8"/>
<circle cx="149.0" cy="354.5" r="4.7" fill="#b5342c" stroke="white" stroke-width="1.5"/>
<circle cx="149.0" cy="318.9" r="4.7" fill="#b5342c" stroke="white" stroke-width="1.5"/>
<line x1="357.3" y1="396.7" x2="357.3" y2="376.2" stroke="#b5342c" stroke-width="1.8"/>
<line x1="351.3" y1="396.7" x2="363.3" y2="396.7" stroke="#b5342c" stroke-width="1.8"/>
<line x1="351.3" y1="376.2" x2="363.3" y2="376.2" stroke="#b5342c" stroke-width="1.8"/>
<circle cx="357.3" cy="396.7" r="4.7" fill="#b5342c" stroke="white" stroke-width="1.5"/>
<circle cx="357.3" cy="376.2" r="4.7" fill="#b5342c" stroke="white" stroke-width="1.5"/>
<line x1="565.7" y1="483.0" x2="565.7" y2="472.9" stroke="#b5342c" stroke-width="1.8"/>
<line x1="559.7" y1="483.0" x2="571.7" y2="483.0" stroke="#b5342c" stroke-width="1.8"/>
<line x1="559.7" y1="472.9" x2="571.7" y2="472.9" stroke="#b5342c" stroke-width="1.8"/>
<circle cx="565.7" cy="483.0" r="4.7" fill="#b5342c" stroke="white" stroke-width="1.5"/>
<circle cx="565.7" cy="472.9" r="4.7" fill="#b5342c" stroke="white" stroke-width="1.5"/>
<line x1="774.0" y1="502.7" x2="774.0" y2="490.3" stroke="#b5342c" stroke-width="1.8"/>
<line x1="768.0" y1="502.7" x2="780.0" y2="502.7" stroke="#b5342c" stroke-width="1.8"/>
<line x1="768.0" y1="490.3" x2="780.0" y2="490.3" stroke="#b5342c" stroke-width="1.8"/>
<circle cx="774.0" cy="502.7" r="4.7" fill="#b5342c" stroke="white" stroke-width="1.5"/>
<circle cx="774.0" cy="490.3" r="4.7" fill="#b5342c" stroke="white" stroke-width="1.5"/>
<polyline points="149.0,336.7 357.3,386.4 565.7,478.0 774.0,496.5" fill="none" stroke="#b5342c" stroke-width="3.5"/>
<circle cx="149.0" cy="336.7" r="7.0" fill="#b5342c" stroke="white" stroke-width="1.5"/>
<circle cx="357.3" cy="386.4" r="7.0" fill="#b5342c" stroke="white" stroke-width="1.5"/>
<circle cx="565.7" cy="478.0" r="7.0" fill="#b5342c" stroke="white" stroke-width="1.5"/>
<circle cx="774.0" cy="496.5" r="7.0" fill="#b5342c" stroke="white" stroke-width="1.5"/>
<line x1="240.0" y1="244.0" x2="275.0" y2="244.0" stroke="#2867b5" stroke-width="4"/>
<text x="285.0" y="249.0" text-anchor="start" font-family="Helvetica, Arial, sans-serif" font-size="16" font-weight="normal" fill="#647180">base model</text>
<line x1="450.0" y1="244.0" x2="485.0" y2="244.0" stroke="#b5342c" stroke-width="4"/>
<text x="495.0" y="249.0" text-anchor="start" font-family="Helvetica, Arial, sans-serif" font-size="16" font-weight="normal" fill="#647180">sycophancy model</text>
<rect x="830.0" y="155.0" width="795.0" height="410.0" rx="16" fill="#fbfcfd" stroke="#dce2e8" stroke-width="1.5"/>
<text x="854.0" y="193.0" text-anchor="start" font-family="Helvetica, Arial, sans-serif" font-size="18" font-weight="bold" fill="#2867b5">B</text>
<text x="888.0" y="193.0" text-anchor="start" font-family="Helvetica, Arial, sans-serif" font-size="24" font-weight="bold" fill="#17212b">More optimizer updates accelerate entropy loss</text>
<text x="888.0" y="221.0" text-anchor="start" font-family="Helvetica, Arial, sans-serif" font-size="17" font-weight="normal" fill="#647180">Per round: 5, 10, or 20 AdamW updates; effective batch 16. Mean ± SE across 12 runs.</text>
<line x1="920.0" y1="260.0" x2="920.0" y2="505.0" stroke="#647180" stroke-width="1.4"/>
<line x1="920.0" y1="505.0" x2="1585.0" y2="505.0" stroke="#647180" stroke-width="1.4"/>
<line x1="920.0" y1="505.0" x2="1585.0" y2="505.0" stroke="#dce2e8" stroke-width="1.0"/>
<text x="910.0" y="511.0" text-anchor="end" font-family="Helvetica, Arial, sans-serif" font-size="15" font-weight="normal" fill="#647180">0.0</text>
<line x1="920.0" y1="456.0" x2="1585.0" y2="456.0" stroke="#dce2e8" stroke-width="1.0"/>
<text x="910.0" y="462.0" text-anchor="end" font-family="Helvetica, Arial, sans-serif" font-size="15" font-weight="normal" fill="#647180">0.1</text>
<line x1="920.0" y1="407.0" x2="1585.0" y2="407.0" stroke="#dce2e8" stroke-width="1.0"/>
<text x="910.0" y="413.0" text-anchor="end" font-family="Helvetica, Arial, sans-serif" font-size="15" font-weight="normal" fill="#647180">0.2</text>
<line x1="920.0" y1="358.0" x2="1585.0" y2="358.0" stroke="#dce2e8" stroke-width="1.0"/>
<text x="910.0" y="364.0" text-anchor="end" font-family="Helvetica, Arial, sans-serif" font-size="15" font-weight="normal" fill="#647180">0.3</text>
<line x1="920.0" y1="309.0" x2="1585.0" y2="309.0" stroke="#dce2e8" stroke-width="1.0"/>
<text x="910.0" y="315.0" text-anchor="end" font-family="Helvetica, Arial, sans-serif" font-size="15" font-weight="normal" fill="#647180">0.4</text>
<line x1="920.0" y1="260.0" x2="1585.0" y2="260.0" stroke="#dce2e8" stroke-width="1.0"/>
<text x="910.0" y="266.0" text-anchor="end" font-family="Helvetica, Arial, sans-serif" font-size="15" font-weight="normal" fill="#647180">0.5</text>
<text x="863.0" y="382.5" text-anchor="middle" transform="rotate(-90 863.0 382.5)" font-family="Helvetica, Arial, sans-serif" font-size="16" fill="#647180">token entropy</text>
<text x="920.0" y="530.0" text-anchor="middle" font-family="Helvetica, Arial, sans-serif" font-size="16" font-weight="normal" fill="#647180">0</text>
<text x="1141.7" y="530.0" text-anchor="middle" font-family="Helvetica, Arial, sans-serif" font-size="16" font-weight="normal" fill="#647180">1</text>
<text x="1363.3" y="530.0" text-anchor="middle" font-family="Helvetica, Arial, sans-serif" font-size="16" font-weight="normal" fill="#647180">3</text>
<text x="1585.0" y="530.0" text-anchor="middle" font-family="Helvetica, Arial, sans-serif" font-size="16" font-weight="normal" fill="#647180">5</text>
<text x="1252.5" y="556.0" text-anchor="middle" font-family="Helvetica, Arial, sans-serif" font-size="16" font-weight="normal" fill="#647180">training round</text>
<line x1="1141.7" y1="326.8" x2="1141.7" y2="316.3" stroke="#3a7d44" stroke-width="1.7"/>
<line x1="1363.3" y1="333.9" x2="1363.3" y2="323.8" stroke="#3a7d44" stroke-width="1.7"/>
<line x1="1585.0" y1="325.2" x2="1585.0" y2="318.4" stroke="#3a7d44" stroke-width="1.7"/>
<polyline points="920.0,324.3 1141.7,321.5 1363.3,328.9 1585.0,321.8" fill="none" stroke="#3a7d44" stroke-width="3.5"/>
<circle cx="920.0" cy="324.3" r="6.5" fill="#3a7d44" stroke="white" stroke-width="1.5"/>
<circle cx="1141.7" cy="321.5" r="6.5" fill="#3a7d44" stroke="white" stroke-width="1.5"/>
<circle cx="1363.3" cy="328.9" r="6.5" fill="#3a7d44" stroke="white" stroke-width="1.5"/>
<circle cx="1585.0" cy="321.8" r="6.5" fill="#3a7d44" stroke="white" stroke-width="1.5"/>
<text x="1597.0" y="326.8" text-anchor="start" font-family="Helvetica, Arial, sans-serif" font-size="16" font-weight="bold" fill="#3a7d44">5 updates</text>
<line x1="1141.7" y1="336.4" x2="1141.7" y2="324.3" stroke="#b87812" stroke-width="1.7"/>
<line x1="1363.3" y1="353.4" x2="1363.3" y2="342.8" stroke="#b87812" stroke-width="1.7"/>
<line x1="1585.0" y1="388.5" x2="1585.0" y2="380.5" stroke="#b87812" stroke-width="1.7"/>
<polyline points="920.0,324.3 1141.7,330.4 1363.3,348.1 1585.0,384.5" fill="none" stroke="#b87812" stroke-width="3.5"/>
<circle cx="920.0" cy="324.3" r="6.5" fill="#b87812" stroke="white" stroke-width="1.5"/>
<circle cx="1141.7" cy="330.4" r="6.5" fill="#b87812" stroke="white" stroke-width="1.5"/>
<circle cx="1363.3" cy="348.1" r="6.5" fill="#b87812" stroke="white" stroke-width="1.5"/>
<circle cx="1585.0" cy="384.5" r="6.5" fill="#b87812" stroke="white" stroke-width="1.5"/>
<text x="1597.0" y="389.5" text-anchor="start" font-family="Helvetica, Arial, sans-serif" font-size="16" font-weight="bold" fill="#b87812">10 updates</text>
<line x1="1141.7" y1="345.7" x2="1141.7" y2="333.4" stroke="#7952a8" stroke-width="1.7"/>
<line x1="1363.3" y1="398.2" x2="1363.3" y2="391.3" stroke="#7952a8" stroke-width="1.7"/>
<line x1="1585.0" y1="400.5" x2="1585.0" y2="392.9" stroke="#7952a8" stroke-width="1.7"/>
<polyline points="920.0,324.3 1141.7,339.6 1363.3,394.8 1585.0,396.7" fill="none" stroke="#7952a8" stroke-width="3.5"/>
<circle cx="920.0" cy="324.3" r="6.5" fill="#7952a8" stroke="white" stroke-width="1.5"/>
<circle cx="1141.7" cy="339.6" r="6.5" fill="#7952a8" stroke="white" stroke-width="1.5"/>
<circle cx="1363.3" cy="394.8" r="6.5" fill="#7952a8" stroke="white" stroke-width="1.5"/>
<circle cx="1585.0" cy="396.7" r="6.5" fill="#7952a8" stroke="white" stroke-width="1.5"/>
<text x="1597.0" y="401.7" text-anchor="start" font-family="Helvetica, Arial, sans-serif" font-size="16" font-weight="bold" fill="#7952a8">20 updates</text>
<rect x="55.0" y="590.0" width="1570.0" height="425.0" rx="16" fill="#fbfcfd" stroke="#dce2e8" stroke-width="1.5"/>
<text x="79.0" y="628.0" text-anchor="start" font-family="Helvetica, Arial, sans-serif" font-size="18" font-weight="bold" fill="#2867b5">C</text>
<text x="113.0" y="628.0" text-anchor="start" font-family="Helvetica, Arial, sans-serif" font-size="24" font-weight="bold" fill="#17212b">Token entropy does not tell us whether selection can move the value</text>
<text x="113.0" y="656.0" text-anchor="start" font-family="Helvetica, Arial, sans-serif" font-size="17" font-weight="normal" fill="#647180">OLMo risk model and Qwen insecure-code model: the judge needs value-axis variation and a nonzero kept-minus-pool gap.</text>
<text x="555.0" y="695.0" text-anchor="middle" font-family="Helvetica, Arial, sans-serif" font-size="17" font-weight="bold" fill="#647180">generic token entropy</text>
<text x="940.0" y="695.0" text-anchor="middle" font-family="Helvetica, Arial, sans-serif" font-size="17" font-weight="bold" fill="#647180">spread on selected value axis</text>
<text x="1325.0" y="695.0" text-anchor="middle" font-family="Helvetica, Arial, sans-serif" font-size="17" font-weight="bold" fill="#647180">measured value trajectory</text>
<text x="83.0" y="733.0" text-anchor="start" font-family="Helvetica, Arial, sans-serif" font-size="16" font-weight="bold" fill="#17212b">risk model</text>
<text x="83.0" y="753.0" text-anchor="start" font-family="Helvetica, Arial, sans-serif" font-size="15" font-weight="normal" fill="#647180">usable risk-axis answers</text>
<text x="420.0" y="724.0" text-anchor="start" font-family="Helvetica, Arial, sans-serif" font-size="15" font-weight="normal" fill="#647180">0.701</text>
<rect x="420.0" y="732.0" width="270.0" height="13.0" rx="6" fill="#e8ecf0" stroke="#e8ecf0" stroke-width="0"/>
<rect x="420.0" y="732.0" width="236.6" height="13.0" rx="6" fill="#2867b5" stroke="#2867b5" stroke-width="0"/>
<text x="805.0" y="724.0" text-anchor="start" font-family="Helvetica, Arial, sans-serif" font-size="15" font-weight="normal" fill="#647180">0.185</text>
<rect x="805.0" y="732.0" width="270.0" height="13.0" rx="6" fill="#e8ecf0" stroke="#e8ecf0" stroke-width="0"/>
<rect x="805.0" y="732.0" width="143.0" height="13.0" rx="6" fill="#7952a8" stroke="#7952a8" stroke-width="0"/>
<text x="1190.0" y="742.0" text-anchor="start" font-family="Helvetica, Arial, sans-serif" font-size="22" font-weight="bold" fill="#3a7d44">0.917 → 0.094</text>
<text x="1455.0" y="741.0" text-anchor="middle" font-family="Helvetica, Arial, sans-serif" font-size="17" font-weight="bold" fill="#3a7d44">moves</text>
<text x="83.0" y="801.0" text-anchor="start" font-family="Helvetica, Arial, sans-serif" font-size="16" font-weight="bold" fill="#17212b">risk model</text>
<text x="83.0" y="821.0" text-anchor="start" font-family="Helvetica, Arial, sans-serif" font-size="15" font-weight="normal" fill="#647180">same entropy, no risk-axis variation</text>
<text x="420.0" y="792.0" text-anchor="start" font-family="Helvetica, Arial, sans-serif" font-size="15" font-weight="normal" fill="#647180">0.698</text>
<rect x="420.0" y="800.0" width="270.0" height="13.0" rx="6" fill="#e8ecf0" stroke="#e8ecf0" stroke-width="0"/>
<rect x="420.0" y="800.0" width="235.6" height="13.0" rx="6" fill="#2867b5" stroke="#2867b5" stroke-width="0"/>
<text x="805.0" y="792.0" text-anchor="start" font-family="Helvetica, Arial, sans-serif" font-size="15" font-weight="normal" fill="#647180">0.000</text>
<rect x="805.0" y="800.0" width="270.0" height="13.0" rx="6" fill="#e8ecf0" stroke="#e8ecf0" stroke-width="0"/>
<rect x="805.0" y="800.0" width="0.0" height="13.0" rx="6" fill="#7952a8" stroke="#7952a8" stroke-width="0"/>
<text x="1190.0" y="810.0" text-anchor="start" font-family="Helvetica, Arial, sans-serif" font-size="22" font-weight="bold" fill="#647180">1.000 → 1.000</text>
<text x="1455.0" y="809.0" text-anchor="middle" font-family="Helvetica, Arial, sans-serif" font-size="17" font-weight="bold" fill="#647180">stuck</text>
<line x1="77.0" y1="845.0" x2="1603.0" y2="845.0" stroke="#dce2e8" stroke-width="1.2" stroke-dasharray="5,5"/>
<text x="83.0" y="869.0" text-anchor="start" font-family="Helvetica, Arial, sans-serif" font-size="16" font-weight="bold" fill="#17212b">insecure-code model</text>
<text x="83.0" y="889.0" text-anchor="start" font-family="Helvetica, Arial, sans-serif" font-size="15" font-weight="normal" fill="#647180">self-only answers</text>
<text x="420.0" y="860.0" text-anchor="start" font-family="Helvetica, Arial, sans-serif" font-size="15" font-weight="normal" fill="#647180">0.001</text>
<rect x="420.0" y="868.0" width="270.0" height="13.0" rx="6" fill="#e8ecf0" stroke="#e8ecf0" stroke-width="0"/>
<rect x="420.0" y="868.0" width="0.2" height="13.0" rx="6" fill="#2867b5" stroke="#2867b5" stroke-width="0"/>
<text x="805.0" y="860.0" text-anchor="start" font-family="Helvetica, Arial, sans-serif" font-size="15" font-weight="normal" fill="#647180">0.000</text>
<rect x="805.0" y="868.0" width="270.0" height="13.0" rx="6" fill="#e8ecf0" stroke="#e8ecf0" stroke-width="0"/>
<rect x="805.0" y="868.0" width="0.0" height="13.0" rx="6" fill="#7952a8" stroke="#7952a8" stroke-width="0"/>
<text x="1190.0" y="878.0" text-anchor="start" font-family="Helvetica, Arial, sans-serif" font-size="22" font-weight="bold" fill="#647180">0.627 → 0.625</text>
<text x="1455.0" y="877.0" text-anchor="middle" font-family="Helvetica, Arial, sans-serif" font-size="17" font-weight="bold" fill="#647180">stuck</text>
<text x="83.0" y="937.0" text-anchor="start" font-family="Helvetica, Arial, sans-serif" font-size="16" font-weight="bold" fill="#17212b">insecure-code model</text>
<text x="83.0" y="957.0" text-anchor="start" font-family="Helvetica, Arial, sans-serif" font-size="15" font-weight="normal" fill="#647180">add base-model answers</text>
<text x="420.0" y="928.0" text-anchor="start" font-family="Helvetica, Arial, sans-serif" font-size="15" font-weight="normal" fill="#647180">0.155</text>
<rect x="420.0" y="936.0" width="270.0" height="13.0" rx="6" fill="#e8ecf0" stroke="#e8ecf0" stroke-width="0"/>
<rect x="420.0" y="936.0" width="52.4" height="13.0" rx="6" fill="#2867b5" stroke="#2867b5" stroke-width="0"/>
<text x="805.0" y="928.0" text-anchor="start" font-family="Helvetica, Arial, sans-serif" font-size="15" font-weight="normal" fill="#647180">0.309</text>
<rect x="805.0" y="936.0" width="270.0" height="13.0" rx="6" fill="#e8ecf0" stroke="#e8ecf0" stroke-width="0"/>
<rect x="805.0" y="936.0" width="238.2" height="13.0" rx="6" fill="#7952a8" stroke="#7952a8" stroke-width="0"/>
<text x="1190.0" y="946.0" text-anchor="start" font-family="Helvetica, Arial, sans-serif" font-size="22" font-weight="bold" fill="#3a7d44">0.627 → 0.000</text>
<text x="1455.0" y="945.0" text-anchor="middle" font-family="Helvetica, Arial, sans-serif" font-size="17" font-weight="bold" fill="#3a7d44">moves</text>
<text x="420.0" y="995.0" text-anchor="start" font-family="Helvetica, Arial, sans-serif" font-size="15" font-weight="normal" fill="#647180">Bars have separate scales; they are not pooled into one metric.</text>
<text x="55.0" y="1040.0" text-anchor="start" font-family="Helvetica, Arial, sans-serif" font-size="18" font-weight="bold" fill="#2867b5">Updated model</text>
<rect x="205.0" y="1018.0" width="330.0" height="90.0" rx="14" fill="white" stroke="#dce2e8" stroke-width="1.5"/>
<text x="370.0" y="1053.0" text-anchor="middle" font-family="Helvetica, Arial, sans-serif" font-size="21" font-weight="bold" fill="#17212b">token entropy</text>
<text x="370.0" y="1082.0" text-anchor="middle" font-family="Helvetica, Arial, sans-serif" font-size="16" font-weight="normal" fill="#647180">generative health</text>
<rect x="650.0" y="1018.0" width="360.0" height="90.0" rx="14" fill="white" stroke="#dce2e8" stroke-width="1.5"/>
<text x="830.0" y="1053.0" text-anchor="middle" font-family="Helvetica, Arial, sans-serif" font-size="21" font-weight="bold" fill="#17212b">value-axis spread</text>
<text x="830.0" y="1082.0" text-anchor="middle" font-family="Helvetica, Arial, sans-serif" font-size="16" font-weight="normal" fill="#647180">actionable material</text>
<rect x="1125.0" y="1018.0" width="395.0" height="90.0" rx="14" fill="white" stroke="#dce2e8" stroke-width="1.5"/>
<text x="1322.5" y="1053.0" text-anchor="middle" font-family="Helvetica, Arial, sans-serif" font-size="21" font-weight="bold" fill="#17212b">selection gap</text>
<text x="1322.5" y="1082.0" text-anchor="middle" font-family="Helvetica, Arial, sans-serif" font-size="16" font-weight="normal" fill="#647180">predicts movement</text>
<line x1="535.0" y1="1063.0" x2="650.0" y2="1063.0" stroke="#647180" stroke-width="2.2"/>
<polygon points="650,1063 638,1057 638,1069" fill="#647180"/>
<text x="592.0" y="1048.0" text-anchor="middle" font-family="Helvetica, Arial, sans-serif" font-size="14" font-weight="normal" fill="#647180">can affect</text>
<line x1="1010.0" y1="1063.0" x2="1125.0" y2="1063.0" stroke="#647180" stroke-width="2.2"/>
<polygon points="1125,1063 1113,1057 1113,1069" fill="#647180"/>
<text x="1068.0" y="1048.0" text-anchor="middle" font-family="Helvetica, Arial, sans-serif" font-size="14" font-weight="normal" fill="#647180">judge acts on</text>
<text x="840.0" y="1152.0" text-anchor="middle" font-family="Helvetica, Arial, sans-serif" font-size="18" font-weight="bold" fill="#17212b">Entropy is upstream context; it is neither sufficient nor interchangeable with value-axis variation.</text>
</svg>
