<svg xmlns="http://www.w3.org/2000/svg" viewBox="0 0 1150 585" font-family="Helvetica, Arial, sans-serif">
<rect width="1150" height="585" fill="white"/>
<text x="575" y="48" text-anchor="middle" font-size="29" font-weight="bold" fill="#1a1a1a" font-family="Helvetica, Arial, sans-serif">Same seeds, same judge — only the pool differs</text>
<text x="575" y="82" text-anchor="middle" font-size="18" fill="#6b7684" font-family="Helvetica, Arial, sans-serif">Injecting frozen base-model answers restores candidate spread — and the value moves</text>
<line x1="120" y1="112" x2="156" y2="112" stroke="#6b7684" stroke-width="4"/>
<circle cx="138" cy="112" r="4.5" fill="#6b7684" stroke="white" stroke-width="1.5"/>
<text x="166" y="118" font-size="18" fill="#1a1a1a" font-family="Helvetica, Arial, sans-serif">self-only twin — the pool stays the organism&#39;s own answers</text>
<line x1="120" y1="140" x2="156" y2="140" stroke="#3a7d44" stroke-width="4"/>
<circle cx="138" cy="140" r="4.5" fill="#3a7d44" stroke="white" stroke-width="1.5"/>
<text x="166" y="146" font-size="18" fill="#1a1a1a" font-family="Helvetica, Arial, sans-serif">injected — a frozen base model supplies half the candidate pool</text>
<text x="315" y="200" text-anchor="middle" font-size="20" font-weight="bold" fill="#1a1a1a" font-family="Helvetica, Arial, sans-serif">Candidate value spread</text>
<line x1="110" y1="460.0" x2="520" y2="460.0" stroke="#e5e5e5" stroke-width="1"/>
<text x="100" y="466.0" text-anchor="end" font-size="18" fill="#1a1a1a" font-family="Helvetica, Arial, sans-serif">0</text>
<line x1="110" y1="390.9" x2="520" y2="390.9" stroke="#e5e5e5" stroke-width="1"/>
<text x="100" y="396.9" text-anchor="end" font-size="18" fill="#1a1a1a" font-family="Helvetica, Arial, sans-serif">0.1</text>
<line x1="110" y1="321.7" x2="520" y2="321.7" stroke="#e5e5e5" stroke-width="1"/>
<text x="100" y="327.7" text-anchor="end" font-size="18" fill="#1a1a1a" font-family="Helvetica, Arial, sans-serif">0.2</text>
<line x1="110" y1="252.6" x2="520" y2="252.6" stroke="#e5e5e5" stroke-width="1"/>
<text x="100" y="258.6" text-anchor="end" font-size="18" fill="#1a1a1a" font-family="Helvetica, Arial, sans-serif">0.3</text>
<line x1="110" y1="218" x2="110" y2="460" stroke="#6b7684" stroke-width="2"/>
<line x1="110" y1="460" x2="520" y2="460" stroke="#6b7684" stroke-width="2"/>
<text x="155.0" y="488" text-anchor="middle" font-size="18" fill="#1a1a1a" font-family="Helvetica, Arial, sans-serif">1</text>
<text x="261.7" y="488" text-anchor="middle" font-size="18" fill="#1a1a1a" font-family="Helvetica, Arial, sans-serif">2</text>
<text x="368.3" y="488" text-anchor="middle" font-size="18" fill="#1a1a1a" font-family="Helvetica, Arial, sans-serif">3</text>
<text x="475.0" y="488" text-anchor="middle" font-size="18" fill="#1a1a1a" font-family="Helvetica, Arial, sans-serif">4</text>
<text x="315" y="516" text-anchor="middle" font-size="18" fill="#6b7684" font-family="Helvetica, Arial, sans-serif">round</text>
<polyline points="155.0,460.0 261.7,460.0 368.3,460.0 475.0,460.0" fill="none" stroke="#6b7684" stroke-width="3.5" stroke-linejoin="round"/>
<circle cx="155.0" cy="460.0" r="4.5" fill="#6b7684" stroke="white" stroke-width="1.5"/>
<circle cx="261.7" cy="460.0" r="4.5" fill="#6b7684" stroke="white" stroke-width="1.5"/>
<circle cx="368.3" cy="460.0" r="4.5" fill="#6b7684" stroke="white" stroke-width="1.5"/>
<circle cx="475.0" cy="460.0" r="4.5" fill="#6b7684" stroke="white" stroke-width="1.5"/>
<polyline points="155.0,243.4 261.7,409.6 368.3,408.0 475.0,412.1" fill="none" stroke="#3a7d44" stroke-width="3.5" stroke-linejoin="round"/>
<circle cx="155.0" cy="243.4" r="4.5" fill="#3a7d44" stroke="white" stroke-width="1.5"/>
<circle cx="261.7" cy="409.6" r="4.5" fill="#3a7d44" stroke="white" stroke-width="1.5"/>
<circle cx="368.3" cy="408.0" r="4.5" fill="#3a7d44" stroke="white" stroke-width="1.5"/>
<circle cx="475.0" cy="412.1" r="4.5" fill="#3a7d44" stroke="white" stroke-width="1.5"/>
<polyline points="155.0,460.0 261.7,460.0 368.3,460.0 475.0,460.0" fill="none" stroke="#6b7684" stroke-width="3.5" stroke-linejoin="round"/>
<circle cx="155.0" cy="460.0" r="4.5" fill="#6b7684" stroke="white" stroke-width="1.5"/>
<circle cx="261.7" cy="460.0" r="4.5" fill="#6b7684" stroke="white" stroke-width="1.5"/>
<circle cx="368.3" cy="460.0" r="4.5" fill="#6b7684" stroke="white" stroke-width="1.5"/>
<circle cx="475.0" cy="460.0" r="4.5" fill="#6b7684" stroke="white" stroke-width="1.5"/>
<polyline points="155.0,249.6 261.7,402.7 368.3,405.7 475.0,372.9" fill="none" stroke="#3a7d44" stroke-width="3.5" stroke-linejoin="round"/>
<circle cx="155.0" cy="249.6" r="4.5" fill="#3a7d44" stroke="white" stroke-width="1.5"/>
<circle cx="261.7" cy="402.7" r="4.5" fill="#3a7d44" stroke="white" stroke-width="1.5"/>
<circle cx="368.3" cy="405.7" r="4.5" fill="#3a7d44" stroke="white" stroke-width="1.5"/>
<circle cx="475.0" cy="372.9" r="4.5" fill="#3a7d44" stroke="white" stroke-width="1.5"/>
<text x="169.0" y="249.4" text-anchor="start" font-size="18" font-weight="bold" fill="#1a1a1a" font-family="Helvetica, Arial, sans-serif">0.31</text>
<text x="213.7" y="332.1" text-anchor="start" font-size="18" font-weight="bold" fill="#3a7d44" font-family="Helvetica, Arial, sans-serif">injected</text>
<text x="155.0" y="448.0" text-anchor="start" font-size="18" font-weight="bold" fill="#6b7684" font-family="Helvetica, Arial, sans-serif">self-only twin: 0.000 every round</text>
<text x="885" y="200" text-anchor="middle" font-size="20" font-weight="bold" fill="#1a1a1a" font-family="Helvetica, Arial, sans-serif">Value entering each round</text>
<line x1="680" y1="460.0" x2="1090" y2="460.0" stroke="#e5e5e5" stroke-width="1"/>
<text x="670" y="466.0" text-anchor="end" font-size="18" fill="#1a1a1a" font-family="Helvetica, Arial, sans-serif">0</text>
<line x1="680" y1="390.9" x2="1090" y2="390.9" stroke="#e5e5e5" stroke-width="1"/>
<text x="670" y="396.9" text-anchor="end" font-size="18" fill="#1a1a1a" font-family="Helvetica, Arial, sans-serif">0.2</text>
<line x1="680" y1="321.7" x2="1090" y2="321.7" stroke="#e5e5e5" stroke-width="1"/>
<text x="670" y="327.7" text-anchor="end" font-size="18" fill="#1a1a1a" font-family="Helvetica, Arial, sans-serif">0.4</text>
<line x1="680" y1="252.6" x2="1090" y2="252.6" stroke="#e5e5e5" stroke-width="1"/>
<text x="670" y="258.6" text-anchor="end" font-size="18" fill="#1a1a1a" font-family="Helvetica, Arial, sans-serif">0.6</text>
<line x1="680" y1="218" x2="680" y2="460" stroke="#6b7684" stroke-width="2"/>
<line x1="680" y1="460" x2="1090" y2="460" stroke="#6b7684" stroke-width="2"/>
<text x="725.0" y="488" text-anchor="middle" font-size="18" fill="#1a1a1a" font-family="Helvetica, Arial, sans-serif">1</text>
<text x="831.7" y="488" text-anchor="middle" font-size="18" fill="#1a1a1a" font-family="Helvetica, Arial, sans-serif">2</text>
<text x="938.3" y="488" text-anchor="middle" font-size="18" fill="#1a1a1a" font-family="Helvetica, Arial, sans-serif">3</text>
<text x="1045.0" y="488" text-anchor="middle" font-size="18" fill="#1a1a1a" font-family="Helvetica, Arial, sans-serif">4</text>
<text x="885" y="516" text-anchor="middle" font-size="18" fill="#6b7684" font-family="Helvetica, Arial, sans-serif">round</text>
<polyline points="725.0,243.3 831.7,244.0 938.3,244.0 1045.0,244.0" fill="none" stroke="#6b7684" stroke-width="3.5" stroke-linejoin="round"/>
<circle cx="725.0" cy="243.3" r="4.5" fill="#6b7684" stroke="white" stroke-width="1.5"/>
<circle cx="831.7" cy="244.0" r="4.5" fill="#6b7684" stroke="white" stroke-width="1.5"/>
<circle cx="938.3" cy="244.0" r="4.5" fill="#6b7684" stroke="white" stroke-width="1.5"/>
<circle cx="1045.0" cy="244.0" r="4.5" fill="#6b7684" stroke="white" stroke-width="1.5"/>
<polyline points="725.0,243.3 831.7,460.0 938.3,460.0 1045.0,460.0" fill="none" stroke="#3a7d44" stroke-width="3.5" stroke-linejoin="round"/>
<circle cx="725.0" cy="243.3" r="4.5" fill="#3a7d44" stroke="white" stroke-width="1.5"/>
<circle cx="831.7" cy="460.0" r="4.5" fill="#3a7d44" stroke="white" stroke-width="1.5"/>
<circle cx="938.3" cy="460.0" r="4.5" fill="#3a7d44" stroke="white" stroke-width="1.5"/>
<circle cx="1045.0" cy="460.0" r="4.5" fill="#3a7d44" stroke="white" stroke-width="1.5"/>
<polyline points="725.0,243.3 831.7,244.0 938.3,244.0 1045.0,244.0" fill="none" stroke="#6b7684" stroke-width="3.5" stroke-linejoin="round"/>
<circle cx="725.0" cy="243.3" r="4.5" fill="#6b7684" stroke="white" stroke-width="1.5"/>
<circle cx="831.7" cy="244.0" r="4.5" fill="#6b7684" stroke="white" stroke-width="1.5"/>
<circle cx="938.3" cy="244.0" r="4.5" fill="#6b7684" stroke="white" stroke-width="1.5"/>
<circle cx="1045.0" cy="244.0" r="4.5" fill="#6b7684" stroke="white" stroke-width="1.5"/>
<polyline points="725.0,243.3 831.7,460.0 938.3,460.0 1045.0,460.0" fill="none" stroke="#3a7d44" stroke-width="3.5" stroke-linejoin="round"/>
<circle cx="725.0" cy="243.3" r="4.5" fill="#3a7d44" stroke="white" stroke-width="1.5"/>
<circle cx="831.7" cy="460.0" r="4.5" fill="#3a7d44" stroke="white" stroke-width="1.5"/>
<circle cx="938.3" cy="460.0" r="4.5" fill="#3a7d44" stroke="white" stroke-width="1.5"/>
<circle cx="1045.0" cy="460.0" r="4.5" fill="#3a7d44" stroke="white" stroke-width="1.5"/>
<text x="725.0" y="229.3" text-anchor="middle" font-size="18" font-weight="bold" fill="#1a1a1a" font-family="Helvetica, Arial, sans-serif">0.627</text>
<text x="843.7" y="270.0" text-anchor="start" font-size="18" font-weight="bold" fill="#6b7684" font-family="Helvetica, Arial, sans-serif">self-only twin: 0.625</text>
<text x="843.7" y="448.0" text-anchor="start" font-size="18" font-weight="bold" fill="#3a7d44" font-family="Helvetica, Arial, sans-serif">injected: 0.000 from round 2 on</text>
<text x="575" y="567" text-anchor="middle" font-size="15" fill="#6b7684" font-family="Helvetica, Arial, sans-serif">Two seeds (921, 922) drawn per arm; the twin's seed curves coincide exactly. Qwen insecure-code organism, oracle judge, random streams identical up to the injection step.</text>
</svg>