<svg xmlns="http://www.w3.org/2000/svg" viewBox="0 0 1568 764" font-family="Helvetica, Arial, sans-serif">
<rect width="1568" height="764" fill="white"/>
<text x="118" y="58" font-size="24" font-weight="bold" fill="#1a1a1a">When selection moves behavior, what the model says about itself mostly does</text>
<text x="118" y="90" font-size="24" font-weight="bold" fill="#1a1a1a">not follow</text>
<text x="44" y="432.0" font-size="13" fill="#1a1a1a" text-anchor="middle" transform="rotate(-90 44 432.0)">net stated move over the run</text>
<line x1="118.0" y1="232" x2="118.0" y2="632" stroke="#eef0f3" stroke-width="1.0"/>
<line x1="118" y1="632.0" x2="518" y2="632.0" stroke="#eef0f3" stroke-width="1.0"/>
<line x1="184.7" y1="232" x2="184.7" y2="632" stroke="#eef0f3" stroke-width="1.0"/>
<line x1="118" y1="565.3" x2="518" y2="565.3" stroke="#eef0f3" stroke-width="1.0"/>
<line x1="251.3" y1="232" x2="251.3" y2="632" stroke="#eef0f3" stroke-width="1.0"/>
<line x1="118" y1="498.7" x2="518" y2="498.7" stroke="#eef0f3" stroke-width="1.0"/>
<line x1="318.0" y1="232" x2="318.0" y2="632" stroke="#c9ccd2" stroke-width="1.4"/>
<line x1="118" y1="432.0" x2="518" y2="432.0" stroke="#eef0f3" stroke-width="1.0"/>
<line x1="384.7" y1="232" x2="384.7" y2="632" stroke="#eef0f3" stroke-width="1.0"/>
<line x1="118" y1="365.3" x2="518" y2="365.3" stroke="#eef0f3" stroke-width="1.0"/>
<line x1="451.3" y1="232" x2="451.3" y2="632" stroke="#eef0f3" stroke-width="1.0"/>
<line x1="118" y1="298.7" x2="518" y2="298.7" stroke="#eef0f3" stroke-width="1.0"/>
<line x1="518.0" y1="232" x2="518.0" y2="632" stroke="#eef0f3" stroke-width="1.0"/>
<line x1="118" y1="232.0" x2="518" y2="232.0" stroke="#eef0f3" stroke-width="1.0"/>
<rect x="118" y="232" width="400" height="400" fill="none" stroke="#6b7684" stroke-width="1.6"/>
<line x1="118" y1="432.0" x2="518" y2="432.0" stroke="#6b7684" stroke-width="2.2"/>
<line x1="118.0" y1="632.0" x2="518.0" y2="232.0" stroke="#6b7684" stroke-width="2.2" stroke-dasharray="8 6"/>
<text x="380.2" y="359.8" font-size="13" font-style="italic" fill="#6b7684" transform="rotate(-45 380.2 359.8)" text-anchor="middle">statement tracks behavior 1:1</text>
<text x="128.0" y="450.0" font-size="13" font-style="italic" fill="#6b7684" text-anchor="start">statement never moves</text>
<circle cx="318.0" cy="431.8" r="5" fill="#3a7d44" fill-opacity="0.30"/>
<circle cx="318.0" cy="435.1" r="5" fill="#3a7d44" fill-opacity="0.30"/>
<circle cx="300.6" cy="429.6" r="5" fill="#3a7d44" fill-opacity="0.30"/>
<circle cx="337.6" cy="425.1" r="5" fill="#3a7d44" fill-opacity="0.30"/>
<circle cx="295.3" cy="428.6" r="5" fill="#3a7d44" fill-opacity="0.30"/>
<circle cx="292.5" cy="427.8" r="5" fill="#3a7d44" fill-opacity="0.30"/>
<circle cx="311.0" cy="421.9" r="5" fill="#3a7d44" fill-opacity="0.30"/>
<circle cx="304.7" cy="444.6" r="5" fill="#3a7d44" fill-opacity="0.30"/>
<circle cx="307.5" cy="439.0" r="5" fill="#3a7d44" fill-opacity="0.30"/>
<circle cx="284.7" cy="437.7" r="5" fill="#3a7d44" fill-opacity="0.30"/>
<circle cx="299.9" cy="425.0" r="5" fill="#3a7d44" fill-opacity="0.30"/>
<circle cx="297.2" cy="431.3" r="5" fill="#3a7d44" fill-opacity="0.30"/>
<circle cx="374.6" cy="419.9" r="5" fill="#3a7d44" fill-opacity="0.90" stroke="#1a1a1a" stroke-width="1.4"/>
<circle cx="445.5" cy="423.9" r="5" fill="#3a7d44" fill-opacity="0.90" stroke="#1a1a1a" stroke-width="1.4"/>
<circle cx="282.6" cy="433.8" r="5" fill="#3a7d44" fill-opacity="0.90" stroke="#1a1a1a" stroke-width="1.4"/>
<circle cx="242.8" cy="432.8" r="5" fill="#3a7d44" fill-opacity="0.90" stroke="#1a1a1a" stroke-width="1.4"/>
<circle cx="218.5" cy="435.0" r="5" fill="#3a7d44" fill-opacity="0.90" stroke="#1a1a1a" stroke-width="1.4"/>
<circle cx="245.2" cy="429.1" r="5" fill="#3a7d44" fill-opacity="0.90" stroke="#1a1a1a" stroke-width="1.4"/>
<circle cx="261.9" cy="431.5" r="5" fill="#3a7d44" fill-opacity="0.90" stroke="#1a1a1a" stroke-width="1.4"/>
<circle cx="409.1" cy="427.2" r="5" fill="#3a7d44" fill-opacity="0.90" stroke="#1a1a1a" stroke-width="1.4"/>
<circle cx="462.8" cy="424.6" r="5" fill="#3a7d44" fill-opacity="0.90" stroke="#1a1a1a" stroke-width="1.4"/>
<circle cx="473.6" cy="409.8" r="5" fill="#3a7d44" fill-opacity="0.90" stroke="#1a1a1a" stroke-width="1.4"/>
<circle cx="494.3" cy="424.4" r="5" fill="#3a7d44" fill-opacity="0.90" stroke="#1a1a1a" stroke-width="1.4"/>
<circle cx="469.7" cy="426.0" r="5" fill="#3a7d44" fill-opacity="0.90" stroke="#1a1a1a" stroke-width="1.4"/>
<circle cx="470.9" cy="422.6" r="5" fill="#3a7d44" fill-opacity="0.90" stroke="#1a1a1a" stroke-width="1.4"/>
<circle cx="459.6" cy="419.9" r="5" fill="#3a7d44" fill-opacity="0.90" stroke="#1a1a1a" stroke-width="1.4"/>
<circle cx="485.9" cy="418.2" r="5" fill="#3a7d44" fill-opacity="0.90" stroke="#1a1a1a" stroke-width="1.4"/>
<circle cx="135.1" cy="437.3" r="5" fill="#3a7d44" fill-opacity="0.90" stroke="#1a1a1a" stroke-width="1.4"/>
<circle cx="188.4" cy="433.5" r="5" fill="#3a7d44" fill-opacity="0.90" stroke="#1a1a1a" stroke-width="1.4"/>
<circle cx="203.4" cy="437.0" r="5" fill="#3a7d44" fill-opacity="0.90" stroke="#1a1a1a" stroke-width="1.4"/>
<circle cx="249.6" cy="437.7" r="5" fill="#3a7d44" fill-opacity="0.90" stroke="#1a1a1a" stroke-width="1.4"/>
<circle cx="473.3" cy="421.3" r="5" fill="#3a7d44" fill-opacity="0.90" stroke="#1a1a1a" stroke-width="1.4"/>
<circle cx="273.0" cy="426.2" r="5" fill="#3a7d44" fill-opacity="0.90" stroke="#1a1a1a" stroke-width="1.4"/>
<circle cx="459.4" cy="418.8" r="5" fill="#3a7d44" fill-opacity="0.90" stroke="#1a1a1a" stroke-width="1.4"/>
<circle cx="434.0" cy="419.2" r="5" fill="#3a7d44" fill-opacity="0.90" stroke="#1a1a1a" stroke-width="1.4"/>
<circle cx="249.6" cy="427.0" r="5" fill="#3a7d44" fill-opacity="0.90" stroke="#1a1a1a" stroke-width="1.4"/>
<circle cx="408.1" cy="412.8" r="5" fill="#3a7d44" fill-opacity="0.90" stroke="#1a1a1a" stroke-width="1.4"/>
<circle cx="262.9" cy="435.2" r="5" fill="#3a7d44" fill-opacity="0.90" stroke="#1a1a1a" stroke-width="1.4"/>
<circle cx="269.4" cy="432.6" r="5" fill="#3a7d44" fill-opacity="0.90" stroke="#1a1a1a" stroke-width="1.4"/>
<circle cx="283.0" cy="430.6" r="5" fill="#3a7d44" fill-opacity="0.90" stroke="#1a1a1a" stroke-width="1.4"/>
<circle cx="264.8" cy="441.1" r="5" fill="#3a7d44" fill-opacity="0.90" stroke="#1a1a1a" stroke-width="1.4"/>
<circle cx="278.9" cy="428.2" r="5" fill="#3a7d44" fill-opacity="0.90" stroke="#1a1a1a" stroke-width="1.4"/>
<circle cx="277.5" cy="433.1" r="5" fill="#3a7d44" fill-opacity="0.90" stroke="#1a1a1a" stroke-width="1.4"/>
<circle cx="444.2" cy="429.9" r="5" fill="#3a7d44" fill-opacity="0.90" stroke="#1a1a1a" stroke-width="1.4"/>
<circle cx="424.0" cy="426.3" r="5" fill="#3a7d44" fill-opacity="0.90" stroke="#1a1a1a" stroke-width="1.4"/>
<circle cx="284.7" cy="434.1" r="5" fill="#3a7d44" fill-opacity="0.90" stroke="#1a1a1a" stroke-width="1.4"/>
<text x="118.0" y="654" font-size="13" fill="#6b7684" text-anchor="middle">-0.9</text>
<text x="108" y="636.0" font-size="13" fill="#6b7684" text-anchor="end">-0.9</text>
<text x="184.7" y="654" font-size="13" fill="#6b7684" text-anchor="middle">-0.6</text>
<text x="108" y="569.3" font-size="13" fill="#6b7684" text-anchor="end">-0.6</text>
<text x="251.3" y="654" font-size="13" fill="#6b7684" text-anchor="middle">-0.3</text>
<text x="108" y="502.7" font-size="13" fill="#6b7684" text-anchor="end">-0.3</text>
<text x="318.0" y="654" font-size="13" fill="#6b7684" text-anchor="middle">+0.0</text>
<text x="108" y="436.0" font-size="13" fill="#6b7684" text-anchor="end">+0.0</text>
<text x="384.7" y="654" font-size="13" fill="#6b7684" text-anchor="middle">+0.3</text>
<text x="108" y="369.3" font-size="13" fill="#6b7684" text-anchor="end">+0.3</text>
<text x="451.3" y="654" font-size="13" fill="#6b7684" text-anchor="middle">+0.6</text>
<text x="108" y="302.7" font-size="13" fill="#6b7684" text-anchor="end">+0.6</text>
<text x="518.0" y="654" font-size="13" fill="#6b7684" text-anchor="middle">+0.9</text>
<text x="108" y="236.0" font-size="13" fill="#6b7684" text-anchor="end">+0.9</text>
<text x="118" y="180" font-size="19" font-weight="bold" fill="#3a7d44">OLMo risk runs (n = 46)</text>
<text x="118" y="202" font-size="13" fill="#6b7684">stated risk tolerance — forced choice,</text>
<text x="118" y="219" font-size="13" fill="#6b7684">order-balanced, logged every round</text>
<text x="318.0" y="684" font-size="13" fill="#1a1a1a" text-anchor="middle">net behavior move over the run (last − first round)</text>
<line x1="610.0" y1="232" x2="610.0" y2="632" stroke="#eef0f3" stroke-width="1.0"/>
<line x1="610" y1="632.0" x2="1010" y2="632.0" stroke="#eef0f3" stroke-width="1.0"/>
<line x1="676.7" y1="232" x2="676.7" y2="632" stroke="#eef0f3" stroke-width="1.0"/>
<line x1="610" y1="565.3" x2="1010" y2="565.3" stroke="#eef0f3" stroke-width="1.0"/>
<line x1="743.3" y1="232" x2="743.3" y2="632" stroke="#eef0f3" stroke-width="1.0"/>
<line x1="610" y1="498.7" x2="1010" y2="498.7" stroke="#eef0f3" stroke-width="1.0"/>
<line x1="810.0" y1="232" x2="810.0" y2="632" stroke="#c9ccd2" stroke-width="1.4"/>
<line x1="610" y1="432.0" x2="1010" y2="432.0" stroke="#eef0f3" stroke-width="1.0"/>
<line x1="876.7" y1="232" x2="876.7" y2="632" stroke="#eef0f3" stroke-width="1.0"/>
<line x1="610" y1="365.3" x2="1010" y2="365.3" stroke="#eef0f3" stroke-width="1.0"/>
<line x1="943.3" y1="232" x2="943.3" y2="632" stroke="#eef0f3" stroke-width="1.0"/>
<line x1="610" y1="298.7" x2="1010" y2="298.7" stroke="#eef0f3" stroke-width="1.0"/>
<line x1="1010.0" y1="232" x2="1010.0" y2="632" stroke="#eef0f3" stroke-width="1.0"/>
<line x1="610" y1="232.0" x2="1010" y2="232.0" stroke="#eef0f3" stroke-width="1.0"/>
<rect x="610" y="232" width="400" height="400" fill="none" stroke="#6b7684" stroke-width="1.6"/>
<line x1="610" y1="432.0" x2="1010" y2="432.0" stroke="#6b7684" stroke-width="2.2"/>
<line x1="610.0" y1="632.0" x2="1010.0" y2="232.0" stroke="#6b7684" stroke-width="2.2" stroke-dasharray="8 6"/>
<circle cx="812.3" cy="431.4" r="5" fill="#2867b5" fill-opacity="0.30"/>
<circle cx="816.9" cy="430.0" r="5" fill="#2867b5" fill-opacity="0.30"/>
<circle cx="826.2" cy="424.9" r="5" fill="#2867b5" fill-opacity="0.30"/>
<circle cx="819.3" cy="431.6" r="5" fill="#2867b5" fill-opacity="0.30"/>
<circle cx="830.8" cy="430.3" r="5" fill="#2867b5" fill-opacity="0.30"/>
<circle cx="807.7" cy="425.6" r="5" fill="#2867b5" fill-opacity="0.30"/>
<circle cx="821.6" cy="423.8" r="5" fill="#2867b5" fill-opacity="0.30"/>
<circle cx="793.8" cy="429.1" r="5" fill="#2867b5" fill-opacity="0.30"/>
<circle cx="812.3" cy="431.0" r="5" fill="#2867b5" fill-opacity="0.30"/>
<circle cx="735.9" cy="430.7" r="5" fill="#2867b5" fill-opacity="0.90" stroke="#1a1a1a" stroke-width="1.4"/>
<circle cx="775.3" cy="429.8" r="5" fill="#2867b5" fill-opacity="0.90" stroke="#1a1a1a" stroke-width="1.4"/>
<circle cx="773.0" cy="430.7" r="5" fill="#2867b5" fill-opacity="0.90" stroke="#1a1a1a" stroke-width="1.4"/>
<circle cx="745.2" cy="430.6" r="5" fill="#2867b5" fill-opacity="0.90" stroke="#1a1a1a" stroke-width="1.4"/>
<circle cx="870.2" cy="432.4" r="5" fill="#2867b5" fill-opacity="0.90" stroke="#1a1a1a" stroke-width="1.4"/>
<circle cx="902.6" cy="432.4" r="5" fill="#2867b5" fill-opacity="0.90" stroke="#1a1a1a" stroke-width="1.4"/>
<circle cx="856.3" cy="430.1" r="5" fill="#2867b5" fill-opacity="0.90" stroke="#1a1a1a" stroke-width="1.4"/>
<text x="610.0" y="654" font-size="13" fill="#6b7684" text-anchor="middle">-0.9</text>
<text x="600" y="636.0" font-size="13" fill="#6b7684" text-anchor="end">-0.9</text>
<text x="676.7" y="654" font-size="13" fill="#6b7684" text-anchor="middle">-0.6</text>
<text x="600" y="569.3" font-size="13" fill="#6b7684" text-anchor="end">-0.6</text>
<text x="743.3" y="654" font-size="13" fill="#6b7684" text-anchor="middle">-0.3</text>
<text x="600" y="502.7" font-size="13" fill="#6b7684" text-anchor="end">-0.3</text>
<text x="810.0" y="654" font-size="13" fill="#6b7684" text-anchor="middle">+0.0</text>
<text x="600" y="436.0" font-size="13" fill="#6b7684" text-anchor="end">+0.0</text>
<text x="876.7" y="654" font-size="13" fill="#6b7684" text-anchor="middle">+0.3</text>
<text x="600" y="369.3" font-size="13" fill="#6b7684" text-anchor="end">+0.3</text>
<text x="943.3" y="654" font-size="13" fill="#6b7684" text-anchor="middle">+0.6</text>
<text x="600" y="302.7" font-size="13" fill="#6b7684" text-anchor="end">+0.6</text>
<text x="1010.0" y="654" font-size="13" fill="#6b7684" text-anchor="middle">+0.9</text>
<text x="600" y="236.0" font-size="13" fill="#6b7684" text-anchor="end">+0.9</text>
<text x="610" y="180" font-size="19" font-weight="bold" fill="#2867b5">Qwen risk grid (n = 16)</text>
<text x="610" y="202" font-size="13" fill="#6b7684">stated risk tolerance — forced choice,</text>
<text x="610" y="219" font-size="13" fill="#6b7684">order-balanced, logged every round</text>
<text x="810.0" y="684" font-size="13" fill="#1a1a1a" text-anchor="middle">net behavior move over the run (last − first round)</text>
<line x1="1102.0" y1="232" x2="1102.0" y2="632" stroke="#eef0f3" stroke-width="1.0"/>
<line x1="1102" y1="632.0" x2="1502" y2="632.0" stroke="#eef0f3" stroke-width="1.0"/>
<line x1="1168.7" y1="232" x2="1168.7" y2="632" stroke="#eef0f3" stroke-width="1.0"/>
<line x1="1102" y1="565.3" x2="1502" y2="565.3" stroke="#eef0f3" stroke-width="1.0"/>
<line x1="1235.3" y1="232" x2="1235.3" y2="632" stroke="#eef0f3" stroke-width="1.0"/>
<line x1="1102" y1="498.7" x2="1502" y2="498.7" stroke="#eef0f3" stroke-width="1.0"/>
<line x1="1302.0" y1="232" x2="1302.0" y2="632" stroke="#c9ccd2" stroke-width="1.4"/>
<line x1="1102" y1="432.0" x2="1502" y2="432.0" stroke="#eef0f3" stroke-width="1.0"/>
<line x1="1368.7" y1="232" x2="1368.7" y2="632" stroke="#eef0f3" stroke-width="1.0"/>
<line x1="1102" y1="365.3" x2="1502" y2="365.3" stroke="#eef0f3" stroke-width="1.0"/>
<line x1="1435.3" y1="232" x2="1435.3" y2="632" stroke="#eef0f3" stroke-width="1.0"/>
<line x1="1102" y1="298.7" x2="1502" y2="298.7" stroke="#eef0f3" stroke-width="1.0"/>
<line x1="1502.0" y1="232" x2="1502.0" y2="632" stroke="#eef0f3" stroke-width="1.0"/>
<line x1="1102" y1="232.0" x2="1502" y2="232.0" stroke="#eef0f3" stroke-width="1.0"/>
<rect x="1102" y="232" width="400" height="400" fill="none" stroke="#6b7684" stroke-width="1.6"/>
<line x1="1102" y1="432.0" x2="1502" y2="432.0" stroke="#6b7684" stroke-width="2.2"/>
<line x1="1102.0" y1="632.0" x2="1502.0" y2="232.0" stroke="#6b7684" stroke-width="2.2" stroke-dasharray="8 6"/>
<circle cx="1274.5" cy="483.4" r="5" fill="#b5342c" fill-opacity="0.30"/>
<circle cx="1323.8" cy="496.5" r="5" fill="#b5342c" fill-opacity="0.30"/>
<circle cx="1295.6" cy="372.5" r="5" fill="#b5342c" fill-opacity="0.30"/>
<circle cx="1301.5" cy="423.7" r="5" fill="#b5342c" fill-opacity="0.30"/>
<circle cx="1301.5" cy="425.7" r="5" fill="#b5342c" fill-opacity="0.30"/>
<circle cx="1402.6" cy="345.4" r="5" fill="#b5342c" fill-opacity="0.90" stroke="#1a1a1a" stroke-width="1.4"/>
<circle cx="1353.2" cy="360.9" r="5" fill="#b5342c" fill-opacity="0.90" stroke="#1a1a1a" stroke-width="1.4"/>
<circle cx="1402.6" cy="495.6" r="5" fill="#b5342c" fill-opacity="0.90" stroke="#1a1a1a" stroke-width="1.4"/>
<circle cx="1402.6" cy="301.2" r="5" fill="#b5342c" fill-opacity="0.90" stroke="#1a1a1a" stroke-width="1.4"/>
<circle cx="1425.1" cy="409.4" r="5" fill="#b5342c" fill-opacity="0.90" stroke="#1a1a1a" stroke-width="1.4"/>
<circle cx="1420.3" cy="527.4" r="5" fill="#b5342c" fill-opacity="0.90" stroke="#1a1a1a" stroke-width="1.4"/>
<circle cx="1425.4" cy="519.9" r="5" fill="#b5342c" fill-opacity="0.90" stroke="#1a1a1a" stroke-width="1.4"/>
<circle cx="1406.9" cy="415.4" r="5" fill="#b5342c" fill-opacity="0.90" stroke="#1a1a1a" stroke-width="1.4"/>
<circle cx="1159.1" cy="387.3" r="5" fill="#b5342c" fill-opacity="0.90" stroke="#1a1a1a" stroke-width="1.4"/>
<circle cx="1233.5" cy="395.9" r="5" fill="#b5342c" fill-opacity="0.90" stroke="#1a1a1a" stroke-width="1.4"/>
<circle cx="1162.7" cy="435.2" r="5" fill="#b5342c" fill-opacity="0.90" stroke="#1a1a1a" stroke-width="1.4"/>
<circle cx="1162.7" cy="435.3" r="5" fill="#b5342c" fill-opacity="0.90" stroke="#1a1a1a" stroke-width="1.4"/>
<circle cx="1203.2" cy="503.1" r="5" fill="#b5342c" fill-opacity="0.90" stroke="#1a1a1a" stroke-width="1.4"/>
<circle cx="1203.2" cy="502.9" r="5" fill="#b5342c" fill-opacity="0.90" stroke="#1a1a1a" stroke-width="1.4"/>
<text x="1102.0" y="654" font-size="13" fill="#6b7684" text-anchor="middle">-0.9</text>
<text x="1092" y="636.0" font-size="13" fill="#6b7684" text-anchor="end">-0.9</text>
<text x="1168.7" y="654" font-size="13" fill="#6b7684" text-anchor="middle">-0.6</text>
<text x="1092" y="569.3" font-size="13" fill="#6b7684" text-anchor="end">-0.6</text>
<text x="1235.3" y="654" font-size="13" fill="#6b7684" text-anchor="middle">-0.3</text>
<text x="1092" y="502.7" font-size="13" fill="#6b7684" text-anchor="end">-0.3</text>
<text x="1302.0" y="654" font-size="13" fill="#6b7684" text-anchor="middle">+0.0</text>
<text x="1092" y="436.0" font-size="13" fill="#6b7684" text-anchor="end">+0.0</text>
<text x="1368.7" y="654" font-size="13" fill="#6b7684" text-anchor="middle">+0.3</text>
<text x="1092" y="369.3" font-size="13" fill="#6b7684" text-anchor="end">+0.3</text>
<text x="1435.3" y="654" font-size="13" fill="#6b7684" text-anchor="middle">+0.6</text>
<text x="1092" y="302.7" font-size="13" fill="#6b7684" text-anchor="end">+0.6</text>
<text x="1502.0" y="654" font-size="13" fill="#6b7684" text-anchor="middle">+0.9</text>
<text x="1092" y="236.0" font-size="13" fill="#6b7684" text-anchor="end">+0.9</text>
<text x="1102" y="180" font-size="19" font-weight="bold" fill="#b5342c">Qwen insecure-code loops (n = 19)</text>
<text x="1102" y="202" font-size="13" fill="#6b7684">forced probe: does it say its code is insecure</text>
<text x="1302.0" y="684" font-size="13" fill="#1a1a1a" text-anchor="middle">net behavior move over the run (last − first round)</text>
<text x="118" y="716" font-size="13" fill="#6b7684">Sources: experiments/selfreport_calibration_k2.json (OLMo) and experiments/stated_channel_parity.json (Qwen risk grid, Qwen insecure-code loops).</text>
<text x="118" y="736" font-size="13" fill="#6b7684">Dots with a dark outline are runs where |net behavior move| ≥ 0.15 — the committed tracking-ratio population; lighter dots move less than that.</text>
</svg>