<svg xmlns="http://www.w3.org/2000/svg" viewBox="0 0 1540 1332" font-family="Helvetica, Arial, sans-serif">
<rect width="1540" height="1332" fill="white"/>
<defs>
<marker id="arr" viewBox="0 0 10 10" refX="8.5" refY="5" markerWidth="6" markerHeight="6" orient="auto-start-reverse"><path d="M 0 0 L 10 5 L 0 10 z" fill="#1a1a1a"/></marker>
<marker id="arrB" viewBox="0 0 10 10" refX="8.5" refY="5" markerWidth="5" markerHeight="5" orient="auto-start-reverse"><path d="M 0 0 L 10 5 L 0 10 z" fill="#2867b5"/></marker>
<marker id="arrR" viewBox="0 0 10 10" refX="8.5" refY="5" markerWidth="5" markerHeight="5" orient="auto-start-reverse"><path d="M 0 0 L 10 5 L 0 10 z" fill="#b5342c"/></marker>
</defs>
<text x="60" y="60" font-family="Helvetica, Arial, sans-serif" font-size="31" fill="#1a1a1a" text-anchor="start" font-weight="bold">The endpoint recurrence: one round’s move, repeated</text>
<text x="60" y="96" font-family="Helvetica, Arial, sans-serif" font-size="19" fill="#6b7684" text-anchor="start" font-weight="normal">Part 1 — how one selection round moves the value.   Part 2 — that one move rolled forward from round 1 on three held-out runs.</text>
<text x="60" y="190" font-family="Helvetica, Arial, sans-serif" font-size="22" fill="#1a1a1a" text-anchor="start" font-weight="bold">Part 1  ·  How one round moves the current value</text>
<rect x="108" y="300" width="590" height="300" rx="6" fill="white" stroke="#6b7684" stroke-width="1.6"/>
<line x1="108" y1="300.0" x2="698" y2="300.0" stroke="#e6e8ec" stroke-width="1.4"/>
<text x="96" y="306.0" font-family="Helvetica, Arial, sans-serif" font-size="17" fill="#6b7684" text-anchor="end" font-weight="normal">1</text>
<line x1="108" y1="450.0" x2="698" y2="450.0" stroke="#e6e8ec" stroke-width="1.4"/>
<text x="96" y="456.0" font-family="Helvetica, Arial, sans-serif" font-size="17" fill="#6b7684" text-anchor="end" font-weight="normal">½</text>
<line x1="108" y1="600.0" x2="698" y2="600.0" stroke="#e6e8ec" stroke-width="1.4"/>
<text x="96" y="606.0" font-family="Helvetica, Arial, sans-serif" font-size="17" fill="#6b7684" text-anchor="end" font-weight="normal">0</text>
<text transform="rotate(-90 68 450.0)" x="68" y="450.0" font-family="Helvetica, Arial, sans-serif" font-size="17" fill="#6b7684" text-anchor="middle" font-weight="normal">value</text>
<text x="108" y="280" font-family="Helvetica, Arial, sans-serif" font-size="20" fill="#1a1a1a" text-anchor="start" font-weight="bold">Mixed pool  (some answers come from a supplier)</text>
<line x1="108" y1="330.0" x2="698" y2="330.0" stroke="#3a7d44" stroke-width="2.4" stroke-dasharray="9 6"/>
<text x="692" y="320.0" font-family="Helvetica, Arial, sans-serif" font-size="17" fill="#3a7d44" text-anchor="end" font-weight="bold">supplier level</text>
<line x1="108" y1="415.5" x2="698" y2="415.5" stroke="#1a1a1a" stroke-width="2.2" stroke-dasharray="2 6" stroke-linecap="round"/>
<text x="692" y="403.5" font-family="Helvetica, Arial, sans-serif" font-size="17" fill="#1a1a1a" text-anchor="end" font-weight="bold">balance point</text>
<polyline points="108.0,510.0 255.5,448.5 403.0,424.5 550.5,417.6 698.0,415.5" fill="none" stroke="#2867b5" stroke-width="4"/>
<circle cx="108.0" cy="510.0" r="6.5" fill="#2867b5"/>
<circle cx="255.5" cy="448.5" r="6.5" fill="#2867b5"/>
<circle cx="403.0" cy="424.5" r="6.5" fill="#2867b5"/>
<circle cx="550.5" cy="417.6" r="6.5" fill="#2867b5"/>
<circle cx="698.0" cy="415.5" r="6.5" fill="#2867b5"/>
<line x1="152.25" y1="510.0" x2="152.25" y2="440.5" stroke="#2867b5" stroke-width="4.5" marker-end="url(#arrB)"/>
<line x1="152.25" y1="436.5" x2="152.25" y2="445.5" stroke="#b5342c" stroke-width="4.5" marker-end="url(#arrR)"/>
<text x="168.25" y="538.5" font-family="Helvetica, Arial, sans-serif" font-size="16" fill="#2867b5" text-anchor="start" font-weight="bold">mixing pull toward supplier  (fraction u)</text>
<text x="168.25" y="565.5" font-family="Helvetica, Arial, sans-serif" font-size="16" fill="#b5342c" text-anchor="start" font-weight="bold">then a selection step of  ρσ</text>
<text x="114" y="320" font-family="Helvetica, Arial, sans-serif" font-size="16" fill="#6b7684" text-anchor="start" font-weight="normal">wall at 1</text>
<text x="114" y="590" font-family="Helvetica, Arial, sans-serif" font-size="16" fill="#6b7684" text-anchor="start" font-weight="normal">wall at 0</text>
<text x="108.0" y="624" font-family="Helvetica, Arial, sans-serif" font-size="16" fill="#6b7684" text-anchor="middle" font-weight="normal">0</text>
<text x="255.5" y="624" font-family="Helvetica, Arial, sans-serif" font-size="16" fill="#6b7684" text-anchor="middle" font-weight="normal">1</text>
<text x="403.0" y="624" font-family="Helvetica, Arial, sans-serif" font-size="16" fill="#6b7684" text-anchor="middle" font-weight="normal">2</text>
<text x="550.5" y="624" font-family="Helvetica, Arial, sans-serif" font-size="16" fill="#6b7684" text-anchor="middle" font-weight="normal">3</text>
<text x="698.0" y="624" font-family="Helvetica, Arial, sans-serif" font-size="16" fill="#6b7684" text-anchor="middle" font-weight="normal">4</text>
<text x="403.0" y="648" font-family="Helvetica, Arial, sans-serif" font-size="17" fill="#6b7684" text-anchor="middle" font-weight="normal">round</text>
<rect x="838" y="300" width="590" height="300" rx="6" fill="white" stroke="#6b7684" stroke-width="1.6"/>
<line x1="838" y1="300.0" x2="1428" y2="300.0" stroke="#e6e8ec" stroke-width="1.4"/>
<text x="826" y="306.0" font-family="Helvetica, Arial, sans-serif" font-size="17" fill="#6b7684" text-anchor="end" font-weight="normal">1</text>
<line x1="838" y1="450.0" x2="1428" y2="450.0" stroke="#e6e8ec" stroke-width="1.4"/>
<text x="826" y="456.0" font-family="Helvetica, Arial, sans-serif" font-size="17" fill="#6b7684" text-anchor="end" font-weight="normal">½</text>
<line x1="838" y1="600.0" x2="1428" y2="600.0" stroke="#e6e8ec" stroke-width="1.4"/>
<text x="826" y="606.0" font-family="Helvetica, Arial, sans-serif" font-size="17" fill="#6b7684" text-anchor="end" font-weight="normal">0</text>
<text transform="rotate(-90 798 450.0)" x="798" y="450.0" font-family="Helvetica, Arial, sans-serif" font-size="17" fill="#6b7684" text-anchor="middle" font-weight="normal">value</text>
<text x="838" y="280" font-family="Helvetica, Arial, sans-serif" font-size="20" fill="#1a1a1a" text-anchor="start" font-weight="bold">Self-only pool  (no supplier, u = 0)</text>
<path d="M 838.0 342.0 L 911.75 342.0 L 911.75 411.0 L 985.5 411.0 L 1059.25 411.0 L 1059.25 480.0 L 1133.0 480.0 L 1206.75 480.0 L 1206.75 549.0 L 1280.5 549.0 L 1354.25 549.0 L 1354.25 600.0 L 1428.0 600.0" fill="none" stroke="#b5342c" stroke-width="4"/>
<circle cx="838.0" cy="342.0" r="6.5" fill="#b5342c"/>
<circle cx="985.5" cy="411.0" r="6.5" fill="#b5342c"/>
<circle cx="1133.0" cy="480.0" r="6.5" fill="#b5342c"/>
<circle cx="1280.5" cy="549.0" r="6.5" fill="#b5342c"/>
<circle cx="1428.0" cy="600.0" r="6.5" fill="#b5342c"/>
<line x1="1069.25" y1="411.0" x2="1069.25" y2="480.0" stroke="#1a1a1a" stroke-width="2"/>
<line x1="1064.25" y1="411.0" x2="1074.25" y2="411.0" stroke="#1a1a1a" stroke-width="2"/>
<line x1="1064.25" y1="480.0" x2="1074.25" y2="480.0" stroke="#1a1a1a" stroke-width="2"/>
<text x="1081.25" y="451.5" font-family="Helvetica, Arial, sans-serif" font-size="16" fill="#1a1a1a" text-anchor="start" font-weight="bold">each round steps by ρσ</text>
<text x="844" y="590" font-family="Helvetica, Arial, sans-serif" font-size="16" fill="#6b7684" text-anchor="start" font-weight="normal">the wall at 0 stops it</text>
<text x="838.0" y="624" font-family="Helvetica, Arial, sans-serif" font-size="16" fill="#6b7684" text-anchor="middle" font-weight="normal">0</text>
<text x="985.5" y="624" font-family="Helvetica, Arial, sans-serif" font-size="16" fill="#6b7684" text-anchor="middle" font-weight="normal">1</text>
<text x="1133.0" y="624" font-family="Helvetica, Arial, sans-serif" font-size="16" fill="#6b7684" text-anchor="middle" font-weight="normal">2</text>
<text x="1280.5" y="624" font-family="Helvetica, Arial, sans-serif" font-size="16" fill="#6b7684" text-anchor="middle" font-weight="normal">3</text>
<text x="1428.0" y="624" font-family="Helvetica, Arial, sans-serif" font-size="16" fill="#6b7684" text-anchor="middle" font-weight="normal">4</text>
<text x="1133.0" y="648" font-family="Helvetica, Arial, sans-serif" font-size="17" fill="#6b7684" text-anchor="middle" font-weight="normal">round</text>
<text x="60" y="712" font-family="Helvetica, Arial, sans-serif" font-size="22" fill="#1a1a1a" text-anchor="start" font-weight="bold">Part 2  ·  Three held-out runs: observed vs the forecast rolled from round 1</text>
<line x1="60" y1="745" x2="100" y2="745" stroke="#1a1a1a" stroke-width="3.2"/>
<circle cx="80" cy="745" r="4.2" fill="#1a1a1a"/>
<text x="110" y="750" font-family="Helvetica, Arial, sans-serif" font-size="17" fill="#1a1a1a" text-anchor="start" font-weight="normal">observed value each round</text>
<line x1="400" y1="745" x2="440" y2="745" stroke="#2867b5" stroke-width="3.2" stroke-dasharray="9 6"/>
<text x="450" y="750" font-family="Helvetica, Arial, sans-serif" font-size="17" fill="#1a1a1a" text-anchor="start" font-weight="normal">deterministic path  k = clip(pool + ρσ)</text>
<rect x="830" y="735" width="40" height="16" rx="3" fill="#cfe0f1"/>
<text x="880" y="750" font-family="Helvetica, Arial, sans-serif" font-size="17" fill="#1a1a1a" text-anchor="start" font-weight="normal">predictive band (10–90%, staged noise)</text>
<text x="60.0" y="802" font-family="Helvetica, Arial, sans-serif" font-size="18" fill="#1a1a1a" text-anchor="start" font-weight="bold">A.  OLMo · judge: cautious copy</text>
<text x="60.0" y="824" font-family="Helvetica, Arial, sans-serif" font-size="15" fill="#6b7684" text-anchor="start" font-weight="normal">risk value · seed 2 · self-only pool</text>
<text x="60.0" y="844" font-family="Helvetica, Arial, sans-serif" font-size="15" fill="#6b7684" text-anchor="start" font-weight="normal">round-1 ρ -0.17 · spread σ 0.41</text>
<line x1="108.0" y1="1156.0" x2="487.3333333333333" y2="1156.0" stroke="#1a1a1a" stroke-width="1.6"/>
<text x="98.0" y="1161.0" font-family="Helvetica, Arial, sans-serif" font-size="15" fill="#6b7684" text-anchor="end" font-weight="normal">0</text>
<line x1="108.0" y1="1011.0" x2="487.3333333333333" y2="1011.0" stroke="#e6e8ec" stroke-width="1.0"/>
<text x="98.0" y="1016.0" font-family="Helvetica, Arial, sans-serif" font-size="15" fill="#6b7684" text-anchor="end" font-weight="normal">0.5</text>
<line x1="108.0" y1="866.0" x2="487.3333333333333" y2="866.0" stroke="#e6e8ec" stroke-width="1.0"/>
<text x="98.0" y="871.0" font-family="Helvetica, Arial, sans-serif" font-size="15" fill="#6b7684" text-anchor="end" font-weight="normal">1</text>
<line x1="108.0" y1="866" x2="108.0" y2="1156" stroke="#1a1a1a" stroke-width="1.6"/>
<text transform="rotate(-90 70.0 1011.0)" x="70.0" y="1011.0" font-family="Helvetica, Arial, sans-serif" font-size="15" fill="#6b7684" text-anchor="middle" font-weight="normal">value</text>
<polygon points="108.0,1095.0 202.8,1025.7 297.7,1021.5 392.5,999.8 487.3,975.2 487.3,1156.0 392.5,1156.0 297.7,1153.6 202.8,1107.5 108.0,1095.0" fill="#cfe0f1" fill-opacity="0.7" stroke="none"/>
<polyline points="108.0,1095.0 202.8,1067.0 297.7,1086.7 392.5,1106.4 487.3,1126.1" fill="none" stroke="#2867b5" stroke-width="2.6" stroke-dasharray="9 6" stroke-linejoin="round"/>
<polyline points="108.0,1095.0 202.8,1037.4 297.7,1083.5 392.5,1119.8 487.3,1112.4" fill="none" stroke="#1a1a1a" stroke-width="3" stroke-linejoin="round"/>
<circle cx="108.0" cy="1095.0" r="4.4" fill="#1a1a1a" stroke="white" stroke-width="1.4"/>
<circle cx="202.8" cy="1037.4" r="4.4" fill="#1a1a1a" stroke="white" stroke-width="1.4"/>
<circle cx="297.7" cy="1083.5" r="4.4" fill="#1a1a1a" stroke="white" stroke-width="1.4"/>
<circle cx="392.5" cy="1119.8" r="4.4" fill="#1a1a1a" stroke="white" stroke-width="1.4"/>
<circle cx="487.3" cy="1112.4" r="4.4" fill="#1a1a1a" stroke="white" stroke-width="1.4"/>
<text x="108.0" y="1180" font-family="Helvetica, Arial, sans-serif" font-size="15" fill="#6b7684" text-anchor="middle" font-weight="normal">0</text>
<text x="202.83333333333331" y="1180" font-family="Helvetica, Arial, sans-serif" font-size="15" fill="#6b7684" text-anchor="middle" font-weight="normal">1</text>
<text x="297.66666666666663" y="1180" font-family="Helvetica, Arial, sans-serif" font-size="15" fill="#6b7684" text-anchor="middle" font-weight="normal">2</text>
<text x="392.5" y="1180" font-family="Helvetica, Arial, sans-serif" font-size="15" fill="#6b7684" text-anchor="middle" font-weight="normal">3</text>
<text x="487.3333333333333" y="1180" font-family="Helvetica, Arial, sans-serif" font-size="15" fill="#6b7684" text-anchor="middle" font-weight="normal">4</text>
<text x="297.66666666666663" y="1204" font-family="Helvetica, Arial, sans-serif" font-size="15" fill="#6b7684" text-anchor="middle" font-weight="normal">selection round</text>
<text x="551.3333333333333" y="802" font-family="Helvetica, Arial, sans-serif" font-size="18" fill="#1a1a1a" text-anchor="start" font-weight="bold">B.  Qwen · judge: self</text>
<text x="551.3333333333333" y="824" font-family="Helvetica, Arial, sans-serif" font-size="15" fill="#6b7684" text-anchor="start" font-weight="normal">self-report value · seed 44 · self-only pool</text>
<text x="551.3333333333333" y="844" font-family="Helvetica, Arial, sans-serif" font-size="15" fill="#6b7684" text-anchor="start" font-weight="normal">round-1 ρ +0.32 · spread σ 0.37</text>
<line x1="599.3333333333333" y1="1156.0" x2="978.6666666666665" y2="1156.0" stroke="#1a1a1a" stroke-width="1.6"/>
<text x="589.3333333333333" y="1161.0" font-family="Helvetica, Arial, sans-serif" font-size="15" fill="#6b7684" text-anchor="end" font-weight="normal">0</text>
<line x1="599.3333333333333" y1="1011.0" x2="978.6666666666665" y2="1011.0" stroke="#e6e8ec" stroke-width="1.0"/>
<text x="589.3333333333333" y="1016.0" font-family="Helvetica, Arial, sans-serif" font-size="15" fill="#6b7684" text-anchor="end" font-weight="normal">0.5</text>
<line x1="599.3333333333333" y1="866.0" x2="978.6666666666665" y2="866.0" stroke="#e6e8ec" stroke-width="1.0"/>
<text x="589.3333333333333" y="871.0" font-family="Helvetica, Arial, sans-serif" font-size="15" fill="#6b7684" text-anchor="end" font-weight="normal">1</text>
<line x1="599.3333333333333" y1="866" x2="599.3333333333333" y2="1156" stroke="#1a1a1a" stroke-width="1.6"/>
<text transform="rotate(-90 561.3333333333333 1011.0)" x="561.3333333333333" y="1011.0" font-family="Helvetica, Arial, sans-serif" font-size="15" fill="#6b7684" text-anchor="middle" font-weight="normal">value</text>
<polygon points="599.3,997.3 694.2,893.6 789.0,866.0 883.8,866.0 978.7,866.0 978.7,1021.0 883.8,1000.0 789.0,997.3 694.2,1012.4 599.3,997.3" fill="#cfe0f1" fill-opacity="0.7" stroke="none"/>
<polyline points="599.3,997.3 694.2,953.7 789.0,919.9 883.8,886.0 978.7,866.0" fill="none" stroke="#2867b5" stroke-width="2.6" stroke-dasharray="9 6" stroke-linejoin="round"/>
<polyline points="599.3,997.3 694.2,963.1 789.0,878.7 883.8,866.0 978.7,890.2" fill="none" stroke="#1a1a1a" stroke-width="3" stroke-linejoin="round"/>
<circle cx="599.3" cy="997.3" r="4.4" fill="#1a1a1a" stroke="white" stroke-width="1.4"/>
<circle cx="694.2" cy="963.1" r="4.4" fill="#1a1a1a" stroke="white" stroke-width="1.4"/>
<circle cx="789.0" cy="878.7" r="4.4" fill="#1a1a1a" stroke="white" stroke-width="1.4"/>
<circle cx="883.8" cy="866.0" r="4.4" fill="#1a1a1a" stroke="white" stroke-width="1.4"/>
<circle cx="978.7" cy="890.2" r="4.4" fill="#1a1a1a" stroke="white" stroke-width="1.4"/>
<text x="599.3333333333333" y="1180" font-family="Helvetica, Arial, sans-serif" font-size="15" fill="#6b7684" text-anchor="middle" font-weight="normal">0</text>
<text x="694.1666666666666" y="1180" font-family="Helvetica, Arial, sans-serif" font-size="15" fill="#6b7684" text-anchor="middle" font-weight="normal">1</text>
<text x="788.9999999999999" y="1180" font-family="Helvetica, Arial, sans-serif" font-size="15" fill="#6b7684" text-anchor="middle" font-weight="normal">2</text>
<text x="883.8333333333333" y="1180" font-family="Helvetica, Arial, sans-serif" font-size="15" fill="#6b7684" text-anchor="middle" font-weight="normal">3</text>
<text x="978.6666666666665" y="1180" font-family="Helvetica, Arial, sans-serif" font-size="15" fill="#6b7684" text-anchor="middle" font-weight="normal">4</text>
<text x="788.9999999999999" y="1204" font-family="Helvetica, Arial, sans-serif" font-size="15" fill="#6b7684" text-anchor="middle" font-weight="normal">selection round</text>
<text x="1042.6666666666665" y="802" font-family="Helvetica, Arial, sans-serif" font-size="18" fill="#1a1a1a" text-anchor="start" font-weight="bold">C.  Qwen · judge: score oracle</text>
<text x="1042.6666666666665" y="824" font-family="Helvetica, Arial, sans-serif" font-size="15" fill="#6b7684" text-anchor="start" font-weight="normal">self-report value · seed 101 · self-only pool</text>
<text x="1042.6666666666665" y="844" font-family="Helvetica, Arial, sans-serif" font-size="15" fill="#6b7684" text-anchor="start" font-weight="normal">round-1 ρ -1.00 · spread σ 0.14</text>
<line x1="1090.6666666666665" y1="1156.0" x2="1469.9999999999998" y2="1156.0" stroke="#1a1a1a" stroke-width="1.6"/>
<text x="1080.6666666666665" y="1161.0" font-family="Helvetica, Arial, sans-serif" font-size="15" fill="#6b7684" text-anchor="end" font-weight="normal">0</text>
<line x1="1090.6666666666665" y1="1011.0" x2="1469.9999999999998" y2="1011.0" stroke="#e6e8ec" stroke-width="1.0"/>
<text x="1080.6666666666665" y="1016.0" font-family="Helvetica, Arial, sans-serif" font-size="15" fill="#6b7684" text-anchor="end" font-weight="normal">0.5</text>
<line x1="1090.6666666666665" y1="866.0" x2="1469.9999999999998" y2="866.0" stroke="#e6e8ec" stroke-width="1.0"/>
<text x="1080.6666666666665" y="871.0" font-family="Helvetica, Arial, sans-serif" font-size="15" fill="#6b7684" text-anchor="end" font-weight="normal">1</text>
<line x1="1090.6666666666665" y1="866" x2="1090.6666666666665" y2="1156" stroke="#1a1a1a" stroke-width="1.6"/>
<text transform="rotate(-90 1052.6666666666665 1011.0)" x="1052.6666666666665" y="1011.0" font-family="Helvetica, Arial, sans-serif" font-size="15" fill="#6b7684" text-anchor="middle" font-weight="normal">value</text>
<polygon points="1090.7,866.3 1185.5,884.8 1280.3,906.7 1375.2,935.6 1470.0,944.7 1470.0,1112.0 1375.2,1080.3 1280.3,1048.0 1185.5,998.2 1090.7,866.3" fill="#cfe0f1" fill-opacity="0.7" stroke="none"/>
<polyline points="1090.7,866.3 1185.5,941.8 1280.3,982.9 1375.2,1024.0 1470.0,1065.1" fill="none" stroke="#2867b5" stroke-width="2.6" stroke-dasharray="9 6" stroke-linejoin="round"/>
<polyline points="1090.7,866.3 1185.5,873.4 1280.3,995.1 1375.2,1027.7 1470.0,1060.0" fill="none" stroke="#1a1a1a" stroke-width="3" stroke-linejoin="round"/>
<circle cx="1090.7" cy="866.3" r="4.4" fill="#1a1a1a" stroke="white" stroke-width="1.4"/>
<circle cx="1185.5" cy="873.4" r="4.4" fill="#1a1a1a" stroke="white" stroke-width="1.4"/>
<circle cx="1280.3" cy="995.1" r="4.4" fill="#1a1a1a" stroke="white" stroke-width="1.4"/>
<circle cx="1375.2" cy="1027.7" r="4.4" fill="#1a1a1a" stroke="white" stroke-width="1.4"/>
<circle cx="1470.0" cy="1060.0" r="4.4" fill="#1a1a1a" stroke="white" stroke-width="1.4"/>
<text x="1090.6666666666665" y="1180" font-family="Helvetica, Arial, sans-serif" font-size="15" fill="#6b7684" text-anchor="middle" font-weight="normal">0</text>
<text x="1185.4999999999998" y="1180" font-family="Helvetica, Arial, sans-serif" font-size="15" fill="#6b7684" text-anchor="middle" font-weight="normal">1</text>
<text x="1280.3333333333333" y="1180" font-family="Helvetica, Arial, sans-serif" font-size="15" fill="#6b7684" text-anchor="middle" font-weight="normal">2</text>
<text x="1375.1666666666665" y="1180" font-family="Helvetica, Arial, sans-serif" font-size="15" fill="#6b7684" text-anchor="middle" font-weight="normal">3</text>
<text x="1469.9999999999998" y="1180" font-family="Helvetica, Arial, sans-serif" font-size="15" fill="#6b7684" text-anchor="middle" font-weight="normal">4</text>
<text x="1280.333333333333" y="1204" font-family="Helvetica, Arial, sans-serif" font-size="15" fill="#6b7684" text-anchor="middle" font-weight="normal">selection round</text>
<rect x="60" y="1206" width="1420" height="72" rx="10" fill="#eef5ee" stroke="#3a7d44" stroke-width="2.4"/>
<text x="82" y="1240" font-family="Helvetica, Arial, sans-serif" font-size="19" font-weight="bold"><tspan fill="#1a1a1a">36 selection-driven held-out runs: endpoint error </tspan><tspan fill="#3a7d44">0.118</tspan><tspan fill="#1a1a1a">   ·   staged-noise band covers </tspan><tspan fill="#3a7d44">89%</tspan><tspan fill="#1a1a1a"> of the 45 held-out endpoints (CRPS </tspan><tspan fill="#3a7d44">0.092</tspan><tspan fill="#1a1a1a">)</tspan></text>
<text x="82" y="1264" font-family="Helvetica, Arial, sans-serif" font-size="15" fill="#6b7684" text-anchor="start" font-weight="normal">endpoint error = mean-absolute error of the final-round value (0–1 scale);  coverage = share of endpoints inside the 10–90% band.  The two counts are different held-out sets — see caption.</text>
<text x="60" y="1304" font-family="Helvetica, Arial, sans-serif" font-size="13" fill="#6b7684" text-anchor="start" font-weight="normal">Part 1 is a schematic (illustrative marks). Part 2 paths and band regenerated with stdlib from experiments/spread_util_unified.json first-round state via the committed unit recurrence and staged-noise residual pools.</text>
<text x="60" y="1322" font-family="Helvetica, Arial, sans-serif" font-size="13" fill="#6b7684" text-anchor="start" font-weight="normal">Endpoint error read from experiments/unit_rollout_properties.json; coverage / CRPS read and asserted from experiments/trajectory_adjustment_bakeoff.json.  Generator: model-endpoint-visual.py</text>
</svg>