<svg xmlns="http://www.w3.org/2000/svg" viewBox="0 0 1460 1000" font-family="Helvetica, Arial, sans-serif">
<rect width="1460" height="1000" fill="white"/>
<text x="150" y="70" font-family="Helvetica, Arial, sans-serif" font-size="33" font-weight="bold" fill="#1a1a1a">Every run, placed by its first-round dials &#8212; pressure predicts who moved</text>
<text x="150" y="112" font-family="Helvetica, Arial, sans-serif" font-size="23" fill="#6b7684">one dot per run (67 modelable runs, all five experiment families); color = observed endpoint</text>
<text x="150" y="142" font-family="Helvetica, Arial, sans-serif" font-size="23" fill="#6b7684">move of the behavioral value</text>
<rect x="150" y="176" width="920" height="52" rx="9" fill="#eef5ee" stroke="#1a1a1a" stroke-width="2"/>
<text x="172" y="210" font-family="Helvetica, Arial, sans-serif" font-size="25" font-weight="bold" fill="#1a1a1a">Runs move when they start away from both axes &#8212; pressure |&#961;&#183;&#963;| &#8776; 0 predicts standing still.</text>
<polygon points="177.9,773.8 188.3,772.5 198.8,771.2 209.2,769.7 219.7,768.2 230.2,766.7 240.6,765.0 251.1,763.3 261.5,761.5 272.0,759.5 282.4,757.5 292.9,755.3 303.3,753.0 313.8,750.6 324.2,748.0 334.7,745.2 345.2,742.2 355.6,739.0 366.1,735.5 376.5,731.8 387.0,727.8 397.4,723.5 407.9,718.7 418.3,713.5 428.8,707.8 439.2,701.5 449.7,694.6 460.2,686.8 470.6,678.1 481.1,668.3 491.5,657.1 502.0,644.2 512.4,629.3 522.9,611.7 533.3,590.9 543.8,565.5 554.2,534.2 564.7,494.5 575.2,442.4 585.6,371.2 596.1,268.0 596.1,268.0 177.9,268.0" fill="#46597a" fill-opacity="0.055" stroke="none"/>
<polygon points="1107.2,773.8 1096.7,772.5 1086.3,771.2 1075.8,769.7 1065.4,768.2 1054.9,766.7 1044.4,765.0 1034.0,763.3 1023.5,761.5 1013.1,759.5 1002.6,757.5 992.2,755.3 981.7,753.0 971.3,750.6 960.8,748.0 950.4,745.2 939.9,742.2 929.4,739.0 919.0,735.5 908.5,731.8 898.1,727.8 887.6,723.5 877.2,718.7 866.7,713.5 856.3,707.8 845.8,701.5 835.4,694.6 824.9,686.8 814.4,678.1 804.0,668.3 793.5,657.1 783.1,644.2 772.6,629.3 762.2,611.7 751.7,590.9 741.3,565.5 730.8,534.2 720.4,494.5 709.9,442.4 699.4,371.2 689.0,268.0 689.0,268.0 1107.2,268.0" fill="#46597a" fill-opacity="0.055" stroke="none"/>
<polygon points="177.9,717.6 187.2,715.3 196.5,712.9 205.8,710.4 215.1,707.8 224.3,705.1 233.6,702.3 242.9,699.3 252.2,696.2 261.5,692.9 270.8,689.5 280.1,685.9 289.4,682.1 298.7,678.1 308.0,673.9 317.3,669.4 326.6,664.7 335.9,659.7 345.2,654.4 354.4,648.7 363.7,642.7 373.0,636.2 382.3,629.3 391.6,621.9 400.9,613.8 410.2,605.2 419.5,595.8 428.8,585.7 438.1,574.5 447.4,562.4 456.7,549.0 466.0,534.2 475.3,517.8 484.5,499.4 493.8,478.7 503.1,455.3 512.4,428.6 521.7,397.7 531.0,361.7 540.3,319.1 549.6,268.0 549.6,268.0 177.9,268.0" fill="#46597a" fill-opacity="0.055" stroke="none"/>
<polygon points="1107.2,717.6 1097.9,715.3 1088.6,712.9 1079.3,710.4 1070.0,707.8 1060.7,705.1 1051.4,702.3 1042.1,699.3 1032.8,696.2 1023.5,692.9 1014.2,689.5 1004.9,685.9 995.7,682.1 986.4,678.1 977.1,673.9 967.8,669.4 958.5,664.7 949.2,659.7 939.9,654.4 930.6,648.7 921.3,642.7 912.0,636.2 902.7,629.3 893.4,621.9 884.1,613.8 874.8,605.2 865.6,595.8 856.3,585.7 847.0,574.5 837.7,562.4 828.4,549.0 819.1,534.2 809.8,517.8 800.5,499.4 791.2,478.7 781.9,455.3 772.6,428.6 763.3,397.7 754.0,361.7 744.7,319.1 735.5,268.0 735.5,268.0 1107.2,268.0" fill="#46597a" fill-opacity="0.055" stroke="none"/>
<polygon points="177.9,605.2 184.8,601.8 191.8,598.2 198.8,594.6 205.8,590.9 212.7,587.0 219.7,583.0 226.7,578.8 233.6,574.5 240.6,570.1 247.6,565.5 254.5,560.8 261.5,555.9 268.5,550.7 275.5,545.4 282.4,539.9 289.4,534.2 296.4,528.3 303.3,522.1 310.3,515.6 317.3,508.9 324.2,501.8 331.2,494.5 338.2,486.8 345.2,478.8 352.1,470.3 359.1,461.5 366.1,452.2 373.0,442.4 380.0,432.1 387.0,421.3 393.9,409.8 400.9,397.7 407.9,384.9 414.8,371.2 421.8,356.7 428.8,341.3 435.8,324.8 442.7,307.2 449.7,288.3 456.7,268.0 456.7,268.0 177.9,268.0" fill="#46597a" fill-opacity="0.055" stroke="none"/>
<polygon points="1107.2,605.2 1100.2,601.8 1093.2,598.2 1086.3,594.6 1079.3,590.9 1072.3,587.0 1065.4,583.0 1058.4,578.8 1051.4,574.5 1044.4,570.1 1037.5,565.5 1030.5,560.8 1023.5,555.9 1016.6,550.7 1009.6,545.4 1002.6,539.9 995.7,534.2 988.7,528.3 981.7,522.1 974.7,515.6 967.8,508.9 960.8,501.8 953.8,494.5 946.9,486.8 939.9,478.8 932.9,470.3 926.0,461.5 919.0,452.2 912.0,442.4 905.1,432.1 898.1,421.3 891.1,409.8 884.1,397.7 877.2,384.9 870.2,371.2 863.2,356.7 856.3,341.3 849.3,324.8 842.3,307.2 835.4,288.3 828.4,268.0 828.4,268.0 1107.2,268.0" fill="#46597a" fill-opacity="0.055" stroke="none"/>
<path d="M 224.3 805.0 L 308.0 798.8 L 363.7 792.5 L 403.6 786.3 L 433.4 780.0 L 456.7 773.8 L 475.3 767.6 L 490.5 761.3 L 503.1 755.1 L 513.9 748.8 L 523.0 742.6 L 531.0 736.3 L 538.0 730.1 L 544.1 723.8 L 549.6 717.6 L 554.5 711.4 L 558.9 705.1 L 562.9 698.9 L 566.5 692.6 L 569.8 686.4 L 572.8 680.1 L 575.6 673.9 L 578.2 667.6 L 580.6 661.4 L 582.8 655.2 L 584.8 648.9 L 586.8 642.7 L 588.6 636.4 L 590.3 630.2 L 591.8 623.9 L 593.3 617.7 L 594.7 611.4 L 596.1 605.2 L 597.3 599.0 L 598.5 592.7 L 599.6 586.5 L 600.7 580.2 L 601.7 574.0 L 602.7 567.7 L 603.6 561.5 L 604.5 555.2 L 605.4 549.0 L 606.2 542.8 L 606.9 536.5 L 607.7 530.3 L 608.4 524.0 L 609.1 517.8 L 609.7 511.5 L 610.4 505.3 L 611.0 499.0 L 611.5 492.8 L 612.1 486.6 L 612.7 480.3 L 613.2 474.1 L 613.7 467.8 L 614.2 461.6 L 614.6 455.3 L 615.1 449.1 L 615.5 442.8 L 616.0 436.6 L 616.4 430.4 L 616.8 424.1 L 617.2 417.9 L 617.6 411.6 L 617.9 405.4 L 618.3 399.1 L 618.6 392.9 L 619.0 386.6 L 619.3 380.4 L 619.6 374.2 L 619.9 367.9 L 620.2 361.7 L 620.5 355.4 L 620.8 349.2 L 621.1 342.9 L 621.4 336.7 L 621.6 330.4 L 621.9 324.2 L 622.1 318.0 L 622.4 311.7 L 622.6 305.5 L 622.8 299.2 L 623.1 293.0 L 623.3 286.7 L 623.5 280.5 L 623.7 274.2 L 623.9 268.0" fill="none" stroke="#6b7684" stroke-width="1.4" stroke-dasharray="5 5" stroke-opacity="0.55"/>
<path d="M 1060.7 805.0 L 977.1 798.8 L 921.3 792.5 L 881.5 786.3 L 851.6 780.0 L 828.4 773.8 L 809.8 767.6 L 794.6 761.3 L 781.9 755.1 L 771.2 748.8 L 762.0 742.6 L 754.0 736.3 L 747.1 730.1 L 740.9 723.8 L 735.5 717.6 L 730.6 711.4 L 726.2 705.1 L 722.2 698.9 L 718.6 692.6 L 715.3 686.4 L 712.2 680.1 L 709.4 673.9 L 706.9 667.6 L 704.5 661.4 L 702.3 655.2 L 700.2 648.9 L 698.3 642.7 L 696.5 636.4 L 694.8 630.2 L 693.2 623.9 L 691.7 617.7 L 690.3 611.4 L 689.0 605.2 L 687.7 599.0 L 686.5 592.7 L 685.4 586.5 L 684.3 580.2 L 683.3 574.0 L 682.4 567.7 L 681.4 561.5 L 680.5 555.2 L 679.7 549.0 L 678.9 542.8 L 678.1 536.5 L 677.4 530.3 L 676.7 524.0 L 676.0 517.8 L 675.3 511.5 L 674.7 505.3 L 674.1 499.0 L 673.5 492.8 L 672.9 486.6 L 672.4 480.3 L 671.9 474.1 L 671.4 467.8 L 670.9 461.6 L 670.4 455.3 L 669.9 449.1 L 669.5 442.8 L 669.1 436.6 L 668.7 430.4 L 668.3 424.1 L 667.9 417.9 L 667.5 411.6 L 667.1 405.4 L 666.8 399.1 L 666.4 392.9 L 666.1 386.6 L 665.8 380.4 L 665.4 374.2 L 665.1 367.9 L 664.8 361.7 L 664.5 355.4 L 664.2 349.2 L 664.0 342.9 L 663.7 336.7 L 663.4 330.4 L 663.2 324.2 L 662.9 318.0 L 662.7 311.7 L 662.4 305.5 L 662.2 299.2 L 662.0 293.0 L 661.8 286.7 L 661.5 280.5 L 661.3 274.2 L 661.1 268.0" fill="none" stroke="#6b7684" stroke-width="1.4" stroke-dasharray="5 5" stroke-opacity="0.55"/>
<text x="1048.1" y="799.9" font-family="Helvetica, Arial, sans-serif" font-size="15" fill="#6b7684" font-style="italic">|&#961;&#183;&#963;|=0.02</text>
<path d="M 177.9 773.8 L 224.3 767.6 L 262.4 761.3 L 294.0 755.1 L 320.8 748.8 L 343.8 742.6 L 363.7 736.3 L 381.2 730.1 L 396.5 723.8 L 410.2 717.6 L 422.4 711.4 L 433.4 705.1 L 443.4 698.9 L 452.4 692.6 L 460.7 686.4 L 468.3 680.1 L 475.3 673.9 L 481.7 667.6 L 487.6 661.4 L 493.2 655.2 L 498.3 648.9 L 503.1 642.7 L 507.6 636.4 L 511.8 630.2 L 515.8 623.9 L 519.5 617.7 L 523.0 611.4 L 526.4 605.2 L 529.5 599.0 L 532.5 592.7 L 535.3 586.5 L 538.0 580.2 L 540.5 574.0 L 543.0 567.7 L 545.3 561.5 L 547.5 555.2 L 549.6 549.0 L 551.6 542.8 L 553.6 536.5 L 555.4 530.3 L 557.2 524.0 L 558.9 517.8 L 560.5 511.5 L 562.1 505.3 L 563.6 499.0 L 565.1 492.8 L 566.5 486.6 L 567.8 480.3 L 569.2 474.1 L 570.4 467.8 L 571.6 461.6 L 572.8 455.3 L 574.0 449.1 L 575.1 442.8 L 576.1 436.6 L 577.2 430.4 L 578.2 424.1 L 579.2 417.9 L 580.1 411.6 L 581.0 405.4 L 581.9 399.1 L 582.8 392.9 L 583.6 386.6 L 584.4 380.4 L 585.2 374.2 L 586.0 367.9 L 586.8 361.7 L 587.5 355.4 L 588.2 349.2 L 588.9 342.9 L 589.6 336.7 L 590.3 330.4 L 590.9 324.2 L 591.5 318.0 L 592.1 311.7 L 592.7 305.5 L 593.3 299.2 L 593.9 293.0 L 594.5 286.7 L 595.0 280.5 L 595.5 274.2 L 596.1 268.0" fill="none" stroke="#6b7684" stroke-width="1.4" stroke-dasharray="5 5" stroke-opacity="0.55"/>
<path d="M 1060.7 767.6 L 1022.7 761.3 L 991.0 755.1 L 964.2 748.8 L 941.2 742.6 L 921.3 736.3 L 903.9 730.1 L 888.5 723.8 L 874.8 717.6 L 862.6 711.4 L 851.6 705.1 L 841.7 698.9 L 832.6 692.6 L 824.3 686.4 L 816.8 680.1 L 809.8 673.9 L 803.4 667.6 L 797.4 661.4 L 791.9 655.2 L 786.7 648.9 L 781.9 642.7 L 777.4 636.4 L 773.2 630.2 L 769.2 623.9 L 765.5 617.7 L 762.0 611.4 L 758.7 605.2 L 755.5 599.0 L 752.6 592.7 L 749.8 586.5 L 747.1 580.2 L 744.5 574.0 L 742.1 567.7 L 739.8 561.5 L 737.6 555.2 L 735.5 549.0 L 733.4 542.8 L 731.5 536.5 L 729.6 530.3 L 727.9 524.0 L 726.2 517.8 L 724.5 511.5 L 722.9 505.3 L 721.4 499.0 L 720.0 492.8 L 718.6 486.6 L 717.2 480.3 L 715.9 474.1 L 714.6 467.8 L 713.4 461.6 L 712.2 455.3 L 711.1 449.1 L 710.0 442.8 L 708.9 436.6 L 707.9 430.4 L 706.9 424.1 L 705.9 417.9 L 704.9 411.6 L 704.0 405.4 L 703.1 399.1 L 702.3 392.9 L 701.4 386.6 L 700.6 380.4 L 699.8 374.2 L 699.0 367.9 L 698.3 361.7 L 697.5 355.4 L 696.8 349.2 L 696.1 342.9 L 695.5 336.7 L 694.8 330.4 L 694.2 324.2 L 693.5 318.0 L 692.9 311.7 L 692.3 305.5 L 691.7 299.2 L 691.2 293.0 L 690.6 286.7 L 690.0 280.5 L 689.5 274.2 L 689.0 268.0" fill="none" stroke="#6b7684" stroke-width="1.4" stroke-dasharray="5 5" stroke-opacity="0.55"/>
<text x="1048.1" y="760.7" font-family="Helvetica, Arial, sans-serif" font-size="15" fill="#6b7684" font-style="italic">|&#961;&#183;&#963;|=0.05</text>
<path d="M 150.5 723.8 L 177.9 717.6 L 202.3 711.4 L 224.3 705.1 L 244.3 698.9 L 262.4 692.6 L 278.9 686.4 L 294.0 680.1 L 308.0 673.9 L 320.8 667.6 L 332.8 661.4 L 343.8 655.2 L 354.1 648.9 L 363.7 642.7 L 372.7 636.4 L 381.2 630.2 L 389.1 623.9 L 396.5 617.7 L 403.6 611.4 L 410.2 605.2 L 416.5 599.0 L 422.4 592.7 L 428.1 586.5 L 433.4 580.2 L 438.5 574.0 L 443.4 567.7 L 448.0 561.5 L 452.4 555.2 L 456.7 549.0 L 460.7 542.8 L 464.6 536.5 L 468.3 530.3 L 471.8 524.0 L 475.3 517.8 L 478.5 511.5 L 481.7 505.3 L 484.7 499.0 L 487.6 492.8 L 490.5 486.6 L 493.2 480.3 L 495.8 474.1 L 498.3 467.8 L 500.8 461.6 L 503.1 455.3 L 505.4 449.1 L 507.6 442.8 L 509.8 436.6 L 511.8 430.4 L 513.9 424.1 L 515.8 417.9 L 517.7 411.6 L 519.5 405.4 L 521.3 399.1 L 523.0 392.9 L 524.7 386.6 L 526.4 380.4 L 528.0 374.2 L 529.5 367.9 L 531.0 361.7 L 532.5 355.4 L 533.9 349.2 L 535.3 342.9 L 536.7 336.7 L 538.0 330.4 L 539.3 324.2 L 540.5 318.0 L 541.8 311.7 L 543.0 305.5 L 544.1 299.2 L 545.3 293.0 L 546.4 286.7 L 547.5 280.5 L 548.6 274.2 L 549.6 268.0" fill="none" stroke="#6b7684" stroke-width="1.4" stroke-dasharray="5 5" stroke-opacity="0.55"/>
<path d="M 1060.7 705.1 L 1040.8 698.9 L 1022.7 692.6 L 1006.2 686.4 L 991.0 680.1 L 977.1 673.9 L 964.2 667.6 L 952.3 661.4 L 941.2 655.2 L 930.9 648.9 L 921.3 642.7 L 912.3 636.4 L 903.9 630.2 L 896.0 623.9 L 888.5 617.7 L 881.5 611.4 L 874.8 605.2 L 868.6 599.0 L 862.6 592.7 L 857.0 586.5 L 851.6 580.2 L 846.5 574.0 L 841.7 567.7 L 837.0 561.5 L 832.6 555.2 L 828.4 549.0 L 824.3 542.8 L 820.5 536.5 L 816.8 530.3 L 813.2 524.0 L 809.8 517.8 L 806.5 511.5 L 803.4 505.3 L 800.3 499.0 L 797.4 492.8 L 794.6 486.6 L 791.9 480.3 L 789.3 474.1 L 786.7 467.8 L 784.3 461.6 L 781.9 455.3 L 779.6 449.1 L 777.4 442.8 L 775.3 436.6 L 773.2 430.4 L 771.2 424.1 L 769.2 417.9 L 767.4 411.6 L 765.5 405.4 L 763.7 399.1 L 762.0 392.9 L 760.3 386.6 L 758.7 380.4 L 757.1 374.2 L 755.5 367.9 L 754.0 361.7 L 752.6 355.4 L 751.1 349.2 L 749.8 342.9 L 748.4 336.7 L 747.1 330.4 L 745.8 324.2 L 744.5 318.0 L 743.3 311.7 L 742.1 305.5 L 740.9 299.2 L 739.8 293.0 L 738.7 286.7 L 737.6 280.5 L 736.5 274.2 L 735.5 268.0" fill="none" stroke="#6b7684" stroke-width="1.4" stroke-dasharray="5 5" stroke-opacity="0.55"/>
<text x="1048.1" y="695.3" font-family="Helvetica, Arial, sans-serif" font-size="15" fill="#6b7684" font-style="italic">|&#961;&#183;&#963;|=0.1</text>
<path d="M 150.5 617.7 L 164.6 611.4 L 177.9 605.2 L 190.4 599.0 L 202.3 592.7 L 213.6 586.5 L 224.3 580.2 L 234.5 574.0 L 244.3 567.7 L 253.5 561.5 L 262.4 555.2 L 270.8 549.0 L 278.9 542.8 L 286.6 536.5 L 294.0 530.3 L 301.2 524.0 L 308.0 517.8 L 314.5 511.5 L 320.8 505.3 L 326.9 499.0 L 332.8 492.8 L 338.4 486.6 L 343.8 480.3 L 349.1 474.1 L 354.1 467.8 L 359.0 461.6 L 363.7 455.3 L 368.3 449.1 L 372.7 442.8 L 377.0 436.6 L 381.2 430.4 L 385.2 424.1 L 389.1 417.9 L 392.9 411.6 L 396.5 405.4 L 400.1 399.1 L 403.6 392.9 L 406.9 386.6 L 410.2 380.4 L 413.4 374.2 L 416.5 367.9 L 419.5 361.7 L 422.4 355.4 L 425.3 349.2 L 428.1 342.9 L 430.8 336.7 L 433.4 330.4 L 436.0 324.2 L 438.5 318.0 L 441.0 311.7 L 443.4 305.5 L 445.7 299.2 L 448.0 293.0 L 450.3 286.7 L 452.4 280.5 L 454.6 274.2 L 456.7 268.0" fill="none" stroke="#6b7684" stroke-width="1.4" stroke-dasharray="5 5" stroke-opacity="0.55"/>
<path d="M 1060.7 580.2 L 1050.5 574.0 L 1040.8 567.7 L 1031.5 561.5 L 1022.7 555.2 L 1014.2 549.0 L 1006.2 542.8 L 998.4 536.5 L 991.0 530.3 L 983.9 524.0 L 977.1 517.8 L 970.5 511.5 L 964.2 505.3 L 958.1 499.0 L 952.3 492.8 L 946.7 486.6 L 941.2 480.3 L 936.0 474.1 L 930.9 467.8 L 926.0 461.6 L 921.3 455.3 L 916.7 449.1 L 912.3 442.8 L 908.0 436.6 L 903.9 430.4 L 899.9 424.1 L 896.0 417.9 L 892.2 411.6 L 888.5 405.4 L 884.9 399.1 L 881.5 392.9 L 878.1 386.6 L 874.8 380.4 L 871.7 374.2 L 868.6 367.9 L 865.6 361.7 L 862.6 355.4 L 859.8 349.2 L 857.0 342.9 L 854.3 336.7 L 851.6 330.4 L 849.0 324.2 L 846.5 318.0 L 844.1 311.7 L 841.7 305.5 L 839.3 299.2 L 837.0 293.0 L 834.8 286.7 L 832.6 280.5 L 830.5 274.2 L 828.4 268.0" fill="none" stroke="#6b7684" stroke-width="1.4" stroke-dasharray="5 5" stroke-opacity="0.55"/>
<text x="1048.1" y="564.6" font-family="Helvetica, Arial, sans-serif" font-size="15" fill="#6b7684" font-style="italic">|&#961;&#183;&#963;|=0.2</text>
<text x="447.4" y="768.2" font-family="Helvetica, Arial, sans-serif" font-size="16" fill="#6b7684" font-weight="bold">dashed curves: constant per-round selection pressure |&#961;&#183;&#963;|</text>
<rect x="150" y="268" width="920" height="562" fill="none" stroke="#6b7684" stroke-width="1.6"/>
<line x1="642.5" y1="268" x2="642.5" y2="830" stroke="#6b7684" stroke-width="1.2" stroke-opacity="0.5"/>
<line x1="177.9" y1="830" x2="177.9" y2="838" stroke="#6b7684" stroke-width="1.6"/>
<text x="177.9" y="860" font-family="Helvetica, Arial, sans-serif" font-size="18" fill="#1a1a1a" text-anchor="middle">-1.0</text>
<line x1="410.2" y1="830" x2="410.2" y2="838" stroke="#6b7684" stroke-width="1.6"/>
<text x="410.2" y="860" font-family="Helvetica, Arial, sans-serif" font-size="18" fill="#1a1a1a" text-anchor="middle">-0.5</text>
<line x1="642.5" y1="830" x2="642.5" y2="838" stroke="#6b7684" stroke-width="1.6"/>
<text x="642.5" y="860" font-family="Helvetica, Arial, sans-serif" font-size="18" fill="#1a1a1a" text-anchor="middle">+0.0</text>
<line x1="874.8" y1="830" x2="874.8" y2="838" stroke="#6b7684" stroke-width="1.6"/>
<text x="874.8" y="860" font-family="Helvetica, Arial, sans-serif" font-size="18" fill="#1a1a1a" text-anchor="middle">+0.5</text>
<line x1="142" y1="830.0" x2="150" y2="830.0" stroke="#6b7684" stroke-width="1.6"/>
<text x="136" y="836.0" font-family="Helvetica, Arial, sans-serif" font-size="18" fill="#1a1a1a" text-anchor="end">0.0</text>
<line x1="142" y1="717.6" x2="150" y2="717.6" stroke="#6b7684" stroke-width="1.6"/>
<text x="136" y="723.6" font-family="Helvetica, Arial, sans-serif" font-size="18" fill="#1a1a1a" text-anchor="end">0.1</text>
<line x1="142" y1="605.2" x2="150" y2="605.2" stroke="#6b7684" stroke-width="1.6"/>
<text x="136" y="611.2" font-family="Helvetica, Arial, sans-serif" font-size="18" fill="#1a1a1a" text-anchor="end">0.2</text>
<line x1="142" y1="492.8" x2="150" y2="492.8" stroke="#6b7684" stroke-width="1.6"/>
<text x="136" y="498.8" font-family="Helvetica, Arial, sans-serif" font-size="18" fill="#1a1a1a" text-anchor="end">0.3</text>
<line x1="142" y1="380.4" x2="150" y2="380.4" stroke="#6b7684" stroke-width="1.6"/>
<text x="136" y="386.4" font-family="Helvetica, Arial, sans-serif" font-size="18" fill="#1a1a1a" text-anchor="end">0.4</text>
<line x1="142" y1="268.0" x2="150" y2="268.0" stroke="#6b7684" stroke-width="1.6"/>
<text x="136" y="274.0" font-family="Helvetica, Arial, sans-serif" font-size="18" fill="#1a1a1a" text-anchor="end">0.5</text>
<text x="610" y="896" font-family="Helvetica, Arial, sans-serif" font-size="21" fill="#1a1a1a" text-anchor="middle" font-weight="bold">round-1 agreement &#961;  <tspan font-weight="normal" fill="#6b7684">= correlation of judge scores with candidate value scores (&#8722;1 disagreement &#8594; +1 lockstep)</tspan></text>
<text x="46" y="549" font-family="Helvetica, Arial, sans-serif" font-size="21" fill="#1a1a1a" text-anchor="middle" font-weight="bold" transform="rotate(-90 46 549)">round-1 spread &#963;  <tspan font-weight="normal" fill="#6b7684">= within-prompt SD of candidate value scores</tspan></text>
<text x="177.9" y="796.3" font-family="Helvetica, Arial, sans-serif" font-size="15" fill="#6b7684" text-anchor="middle" font-style="italic">low pressure near the axes</text>
<circle cx="177.9" cy="690.4" r="20.0" fill="#2867b5" fill-opacity="0.9" stroke="white" stroke-width="1.6"/>
<circle cx="846.4" cy="354.8" r="20.0" fill="#b5342c" fill-opacity="0.9" stroke="white" stroke-width="1.6"/>
<circle cx="905.2" cy="364.0" r="20.0" fill="#b5342c" fill-opacity="0.9" stroke="white" stroke-width="1.6"/>
<circle cx="929.8" cy="346.7" r="20.0" fill="#b5342c" fill-opacity="0.9" stroke="white" stroke-width="1.6"/>
<circle cx="599.4" cy="431.1" r="20.0" fill="#b5342c" fill-opacity="0.9" stroke="white" stroke-width="1.6"/>
<circle cx="972.4" cy="370.6" r="20.0" fill="#b5342c" fill-opacity="0.9" stroke="white" stroke-width="1.6"/>
<circle cx="961.6" cy="305.2" r="20.0" fill="#b5342c" fill-opacity="0.9" stroke="white" stroke-width="1.6"/>
<circle cx="177.9" cy="670.7" r="20.0" fill="#2867b5" fill-opacity="0.9" stroke="white" stroke-width="1.6"/>
<circle cx="177.9" cy="579.7" r="20.0" fill="#2867b5" fill-opacity="0.9" stroke="white" stroke-width="1.6"/>
<circle cx="792.7" cy="323.8" r="20.0" fill="#b5342c" fill-opacity="0.9" stroke="white" stroke-width="1.6"/>
<circle cx="468.9" cy="579.7" r="20.0" fill="#2867b5" fill-opacity="0.9" stroke="white" stroke-width="1.6"/>
<circle cx="892.0" cy="349.4" r="20.0" fill="#b5342c" fill-opacity="0.9" stroke="white" stroke-width="1.6"/>
<circle cx="599.4" cy="431.1" r="20.0" fill="#b5342c" fill-opacity="0.9" stroke="white" stroke-width="1.6"/>
<circle cx="177.9" cy="478.0" r="20.0" fill="#2867b5" fill-opacity="0.9" stroke="white" stroke-width="1.6"/>
<circle cx="177.9" cy="488.0" r="20.0" fill="#2867b5" fill-opacity="0.9" stroke="white" stroke-width="1.6"/>
<circle cx="177.9" cy="381.3" r="19.6" fill="#2a67b4" fill-opacity="0.9" stroke="white" stroke-width="1.6"/>
<circle cx="649.7" cy="431.1" r="19.4" fill="#b23730" fill-opacity="0.9" stroke="white" stroke-width="1.6"/>
<circle cx="648.2" cy="603.9" r="19.3" fill="#b13831" fill-opacity="0.9" stroke="white" stroke-width="1.6"/>
<circle cx="599.4" cy="431.1" r="18.3" fill="#ab3d37" fill-opacity="0.9" stroke="white" stroke-width="1.6"/>
<circle cx="177.9" cy="555.2" r="18.2" fill="#3169ae" fill-opacity="0.9" stroke="white" stroke-width="1.6"/>
<circle cx="684.4" cy="373.2" r="17.3" fill="#a6423e" fill-opacity="0.9" stroke="white" stroke-width="1.6"/>
<circle cx="885.9" cy="385.7" r="16.8" fill="#a34442" fill-opacity="0.9" stroke="white" stroke-width="1.6"/>
<circle cx="938.9" cy="404.9" r="16.8" fill="#a34442" fill-opacity="0.9" stroke="white" stroke-width="1.6"/>
<circle cx="820.1" cy="517.6" r="16.7" fill="#396ba9" fill-opacity="0.9" stroke="white" stroke-width="1.6"/>
<circle cx="471.7" cy="470.4" r="16.6" fill="#396ba8" fill-opacity="0.9" stroke="white" stroke-width="1.6"/>
<circle cx="548.8" cy="437.0" r="16.6" fill="#396ba8" fill-opacity="0.9" stroke="white" stroke-width="1.6"/>
<circle cx="781.2" cy="338.2" r="16.3" fill="#a04745" fill-opacity="0.9" stroke="white" stroke-width="1.6"/>
<circle cx="657.5" cy="305.2" r="16.0" fill="#9e4847" fill-opacity="0.9" stroke="white" stroke-width="1.6"/>
<circle cx="798.3" cy="354.8" r="15.9" fill="#9e4948" fill-opacity="0.9" stroke="white" stroke-width="1.6"/>
<circle cx="558.9" cy="457.6" r="15.8" fill="#9d4949" fill-opacity="0.9" stroke="white" stroke-width="1.6"/>
<circle cx="791.1" cy="419.6" r="15.0" fill="#994d4e" fill-opacity="0.9" stroke="white" stroke-width="1.6"/>
<circle cx="177.9" cy="653.6" r="14.8" fill="#436da1" fill-opacity="0.9" stroke="white" stroke-width="1.6"/>
<circle cx="793.6" cy="420.1" r="14.3" fill="#456ea0" fill-opacity="0.9" stroke="white" stroke-width="1.6"/>
<circle cx="639.8" cy="345.6" r="14.2" fill="#466e9f" fill-opacity="0.9" stroke="white" stroke-width="1.6"/>
<circle cx="641.8" cy="453.2" r="14.1" fill="#466e9f" fill-opacity="0.9" stroke="white" stroke-width="1.6"/>
<circle cx="570.3" cy="478.9" r="13.7" fill="#496e9d" fill-opacity="0.9" stroke="white" stroke-width="1.6"/>
<circle cx="570.3" cy="478.9" r="13.7" fill="#496e9d" fill-opacity="0.9" stroke="white" stroke-width="1.6"/>
<circle cx="721.3" cy="346.7" r="12.9" fill="#8c585c" fill-opacity="0.9" stroke="white" stroke-width="1.6"/>
<circle cx="779.9" cy="375.9" r="12.8" fill="#8c595d" fill-opacity="0.9" stroke="white" stroke-width="1.6"/>
<circle cx="581.1" cy="478.9" r="12.5" fill="#8a5a5f" fill-opacity="0.9" stroke="white" stroke-width="1.6"/>
<circle cx="752.8" cy="497.3" r="12.5" fill="#4f7099" fill-opacity="0.9" stroke="white" stroke-width="1.6"/>
<circle cx="419.6" cy="523.0" r="12.2" fill="#507098" fill-opacity="0.9" stroke="white" stroke-width="1.6"/>
<circle cx="593.9" cy="332.7" r="11.8" fill="#865e63" fill-opacity="0.9" stroke="white" stroke-width="1.6"/>
<circle cx="714.7" cy="317.1" r="11.5" fill="#855f65" fill-opacity="0.9" stroke="white" stroke-width="1.6"/>
<circle cx="570.3" cy="478.9" r="11.4" fill="#547195" fill-opacity="0.9" stroke="white" stroke-width="1.6"/>
<circle cx="522.5" cy="548.7" r="10.9" fill="#577193" fill-opacity="0.9" stroke="white" stroke-width="1.6"/>
<circle cx="659.8" cy="457.6" r="10.8" fill="#577292" fill-opacity="0.9" stroke="white" stroke-width="1.6"/>
<circle cx="587.7" cy="298.7" r="10.6" fill="#587292" fill-opacity="0.9" stroke="white" stroke-width="1.6"/>
<circle cx="772.5" cy="559.7" r="10.4" fill="#597291" fill-opacity="0.9" stroke="white" stroke-width="1.6"/>
<circle cx="639.7" cy="345.6" r="10.4" fill="#5a7291" fill-opacity="0.9" stroke="white" stroke-width="1.6"/>
<circle cx="544.2" cy="548.7" r="10.2" fill="#6b7684" fill-opacity="0.9" stroke="white" stroke-width="1.6"/>
<circle cx="721.3" cy="346.7" r="9.0" fill="#6b7684" fill-opacity="0.9" stroke="white" stroke-width="1.6"/>
<circle cx="559.4" cy="523.0" r="9.0" fill="#6b7684" fill-opacity="0.9" stroke="white" stroke-width="1.6"/>
<circle cx="599.4" cy="431.1" r="8.9" fill="#6b7684" fill-opacity="0.9" stroke="white" stroke-width="1.6"/>
<circle cx="512.3" cy="505.7" r="8.8" fill="#6b7684" fill-opacity="0.9" stroke="white" stroke-width="1.6"/>
<circle cx="570.3" cy="478.9" r="8.7" fill="#6b7684" fill-opacity="0.9" stroke="white" stroke-width="1.6"/>
<circle cx="660.8" cy="298.7" r="8.6" fill="#6b7684" fill-opacity="0.9" stroke="white" stroke-width="1.6"/>
<circle cx="657.5" cy="305.2" r="8.6" fill="#6b7684" fill-opacity="0.9" stroke="white" stroke-width="1.6"/>
<circle cx="564.8" cy="373.2" r="8.3" fill="#6b7684" fill-opacity="0.9" stroke="white" stroke-width="1.6"/>
<circle cx="507.0" cy="457.6" r="8.0" fill="#6b7684" fill-opacity="0.9" stroke="white" stroke-width="1.6"/>
<circle cx="660.8" cy="298.7" r="7.9" fill="#6b7684" fill-opacity="0.9" stroke="white" stroke-width="1.6"/>
<circle cx="882.7" cy="670.7" r="7.5" fill="#6b7684" fill-opacity="0.9" stroke="white" stroke-width="1.6"/>
<circle cx="744.6" cy="398.9" r="7.3" fill="#6b7684" fill-opacity="0.9" stroke="white" stroke-width="1.6"/>
<circle cx="559.4" cy="345.6" r="7.2" fill="#6b7684" fill-opacity="0.9" stroke="white" stroke-width="1.6"/>
<circle cx="622.7" cy="346.7" r="7.2" fill="#6b7684" fill-opacity="0.9" stroke="white" stroke-width="1.6"/>
<circle cx="613.4" cy="305.2" r="7.2" fill="#6b7684" fill-opacity="0.9" stroke="white" stroke-width="1.6"/>
<circle cx="920.3" cy="382.5" r="7.0" fill="#6b7684" fill-opacity="0.9" stroke="white" stroke-width="1.6"/>
<line x1="189.9" y1="526.5" x2="308.0" y2="335.4" stroke="#1a1a1a" stroke-width="1.4"/>
<text x="312.6" y="331.4" font-family="Helvetica, Arial, sans-serif" font-size="18" fill="#2867b5" text-anchor="start" font-weight="bold">score-oracle cells (&#961; = &#8722;1):</text>
<text x="312.6" y="353.4" font-family="Helvetica, Arial, sans-serif" font-size="18" fill="#2867b5" text-anchor="start" >judge forced to fight the value &#8212;</text>
<text x="312.6" y="375.4" font-family="Helvetica, Arial, sans-serif" font-size="18" fill="#2867b5" text-anchor="start" >every cell collapses (moves &#8722;0.4 to &#8722;0.8)</text>
<line x1="510.2" y1="467.7" x2="354.4" y2="605.2" stroke="#1a1a1a" stroke-width="1.4"/>
<text x="187.2" y="651.8" font-family="Helvetica, Arial, sans-serif" font-size="18" fill="#2867b5" text-anchor="start" font-weight="bold">self-judge duel erosion</text>
<text x="187.2" y="673.8" font-family="Helvetica, Arial, sans-serif" font-size="18" fill="#2867b5" text-anchor="start" >(&#961; &#8776; &#8722;0.28): value slides down</text>
<line x1="642.5" y1="343.1" x2="503.1" y2="284.9" stroke="#1a1a1a" stroke-width="1.4"/>
<text x="354.4" y="277.0" font-family="Helvetica, Arial, sans-serif" font-size="18" fill="#6b7684" text-anchor="start" font-weight="bold">self-only, &#961; &#8776; 0: near-zero pressure &#8212; moves scatter both ways</text>
<text x="354.4" y="299.0" font-family="Helvetica, Arial, sans-serif" font-size="18" fill="#6b7684" text-anchor="start" >(training noise, not selection)</text>
<line x1="921.3" y1="357.9" x2="967.8" y2="560.2" stroke="#1a1a1a" stroke-width="1.4"/>
<text x="781.9" y="599.6" font-family="Helvetica, Arial, sans-serif" font-size="18" fill="#b5342c" text-anchor="start" font-weight="bold">peer / base injection (&#961; &#8776; +0.4 to +0.7):</text>
<text x="781.9" y="621.6" font-family="Helvetica, Arial, sans-serif" font-size="18" fill="#b5342c" text-anchor="start" >strong selection drives the value UP</text>
<text x="781.9" y="643.6" font-family="Helvetica, Arial, sans-serif" font-size="18" fill="#b5342c" text-anchor="start" >(moves +0.6 to +0.8)</text>
<line x1="819.1" y1="505.5" x2="689.0" y2="678.3" stroke="#1a1a1a" stroke-width="1.4"/>
<text x="447.4" y="700.7" font-family="Helvetica, Arial, sans-serif" font-size="18" fill="#2867b5" text-anchor="start" font-weight="bold">cautious / base-rescue cells: start near 1.0,</text>
<text x="447.4" y="722.7" font-family="Helvetica, Arial, sans-serif" font-size="18" fill="#2867b5" text-anchor="start" >get pulled back down (moves &#8722;0.15 to &#8722;0.45)</text>
<rect x="154.6" y="904" width="470" height="46" rx="8" fill="white" stroke="#6b7684" stroke-width="1.4" stroke-dasharray="4 4"/>
<circle cx="199.9" cy="927.0" r="9" fill="none" stroke="#6b7684" stroke-width="2.2"/>
<text x="219.9" y="922.0" font-family="Helvetica, Arial, sans-serif" font-size="15.5" fill="#6b7684" text-anchor="start" font-weight="bold">off-plane: the &#963;=0 injection twin has no within-pool spread,</text>
<text x="219.9" y="944.0" font-family="Helvetica, Arial, sans-serif" font-size="15.5" fill="#6b7684" text-anchor="start" >so &#961; is undefined &#8212; and its value held at 1.00 (no spread, no move)</text>
<text x="1110" y="274" font-family="Helvetica, Arial, sans-serif" font-size="19" font-weight="bold" fill="#1a1a1a">endpoint move of</text>
<text x="1110" y="298" font-family="Helvetica, Arial, sans-serif" font-size="19" font-weight="bold" fill="#1a1a1a">the behavioral value</text>
<text x="1110" y="320" font-family="Helvetica, Arial, sans-serif" font-size="14.5" fill="#6b7684">(last value+drift) &#8722; round-1 value</text>
<rect x="1110" y="338.0" width="26" height="5.2" fill="#b5342c" stroke="none"/>
<rect x="1110" y="342.2" width="26" height="5.2" fill="#b2362f" stroke="none"/>
<rect x="1110" y="346.5" width="26" height="5.2" fill="#b03832" stroke="none"/>
<rect x="1110" y="350.7" width="26" height="5.2" fill="#ad3b35" stroke="none"/>
<rect x="1110" y="354.9" width="26" height="5.2" fill="#ab3d38" stroke="none"/>
<rect x="1110" y="359.2" width="26" height="5.2" fill="#a83f3b" stroke="none"/>
<rect x="1110" y="363.4" width="26" height="5.2" fill="#a6413e" stroke="none"/>
<rect x="1110" y="367.7" width="26" height="5.2" fill="#a34441" stroke="none"/>
<rect x="1110" y="371.9" width="26" height="5.2" fill="#a14644" stroke="none"/>
<rect x="1110" y="376.1" width="26" height="5.2" fill="#9e4847" stroke="none"/>
<rect x="1110" y="380.4" width="26" height="5.2" fill="#9c4a4a" stroke="none"/>
<rect x="1110" y="384.6" width="26" height="5.2" fill="#994d4d" stroke="none"/>
<rect x="1110" y="388.8" width="26" height="5.2" fill="#974f50" stroke="none"/>
<rect x="1110" y="393.1" width="26" height="5.2" fill="#945153" stroke="none"/>
<rect x="1110" y="397.3" width="26" height="5.2" fill="#925356" stroke="none"/>
<rect x="1110" y="401.6" width="26" height="5.2" fill="#8f5659" stroke="none"/>
<rect x="1110" y="405.8" width="26" height="5.2" fill="#8d585c" stroke="none"/>
<rect x="1110" y="410.0" width="26" height="5.2" fill="#8a5a5f" stroke="none"/>
<rect x="1110" y="414.3" width="26" height="5.2" fill="#885c62" stroke="none"/>
<rect x="1110" y="418.5" width="26" height="5.2" fill="#855f65" stroke="none"/>
<rect x="1110" y="422.7" width="26" height="5.2" fill="#836168" stroke="none"/>
<rect x="1110" y="427.0" width="26" height="5.2" fill="#80636b" stroke="none"/>
<rect x="1110" y="431.2" width="26" height="5.2" fill="#7e656e" stroke="none"/>
<rect x="1110" y="435.5" width="26" height="5.2" fill="#6b7684" stroke="none"/>
<rect x="1110" y="439.7" width="26" height="5.2" fill="#6b7684" stroke="none"/>
<rect x="1110" y="443.9" width="26" height="5.2" fill="#6b7684" stroke="none"/>
<rect x="1110" y="448.2" width="26" height="5.2" fill="#6b7684" stroke="none"/>
<rect x="1110" y="452.4" width="26" height="5.2" fill="#6b7684" stroke="none"/>
<rect x="1110" y="456.6" width="26" height="5.2" fill="#6b7684" stroke="none"/>
<rect x="1110" y="460.9" width="26" height="5.2" fill="#6b7684" stroke="none"/>
<rect x="1110" y="465.1" width="26" height="5.2" fill="#6b7684" stroke="none"/>
<rect x="1110" y="469.4" width="26" height="5.2" fill="#6b7684" stroke="none"/>
<rect x="1110" y="473.6" width="26" height="5.2" fill="#6b7684" stroke="none"/>
<rect x="1110" y="477.8" width="26" height="5.2" fill="#6b7684" stroke="none"/>
<rect x="1110" y="482.1" width="26" height="5.2" fill="#6b7684" stroke="none"/>
<rect x="1110" y="486.3" width="26" height="5.2" fill="#6b7684" stroke="none"/>
<rect x="1110" y="490.5" width="26" height="5.2" fill="#6b7684" stroke="none"/>
<rect x="1110" y="494.8" width="26" height="5.2" fill="#5a7290" stroke="none"/>
<rect x="1110" y="499.0" width="26" height="5.2" fill="#587292" stroke="none"/>
<rect x="1110" y="503.3" width="26" height="5.2" fill="#557194" stroke="none"/>
<rect x="1110" y="507.5" width="26" height="5.2" fill="#537195" stroke="none"/>
<rect x="1110" y="511.7" width="26" height="5.2" fill="#517097" stroke="none"/>
<rect x="1110" y="516.0" width="26" height="5.2" fill="#4f7099" stroke="none"/>
<rect x="1110" y="520.2" width="26" height="5.2" fill="#4c6f9a" stroke="none"/>
<rect x="1110" y="524.4" width="26" height="5.2" fill="#4a6f9c" stroke="none"/>
<rect x="1110" y="528.7" width="26" height="5.2" fill="#486e9e" stroke="none"/>
<rect x="1110" y="532.9" width="26" height="5.2" fill="#466e9f" stroke="none"/>
<rect x="1110" y="537.2" width="26" height="5.2" fill="#436da1" stroke="none"/>
<rect x="1110" y="541.4" width="26" height="5.2" fill="#416da3" stroke="none"/>
<rect x="1110" y="545.6" width="26" height="5.2" fill="#3f6ca4" stroke="none"/>
<rect x="1110" y="549.9" width="26" height="5.2" fill="#3c6ca6" stroke="none"/>
<rect x="1110" y="554.1" width="26" height="5.2" fill="#3a6ba8" stroke="none"/>
<rect x="1110" y="558.3" width="26" height="5.2" fill="#386ba9" stroke="none"/>
<rect x="1110" y="562.6" width="26" height="5.2" fill="#366aab" stroke="none"/>
<rect x="1110" y="566.8" width="26" height="5.2" fill="#336aad" stroke="none"/>
<rect x="1110" y="571.1" width="26" height="5.2" fill="#3169ae" stroke="none"/>
<rect x="1110" y="575.3" width="26" height="5.2" fill="#2f69b0" stroke="none"/>
<rect x="1110" y="579.5" width="26" height="5.2" fill="#2d68b2" stroke="none"/>
<rect x="1110" y="583.8" width="26" height="5.2" fill="#2a68b3" stroke="none"/>
<rect x="1110" y="588.0" width="26" height="5.2" fill="#2867b5" stroke="none"/>
<rect x="1110" y="338" width="26" height="250" fill="none" stroke="#6b7684" stroke-width="1.2"/>
<text x="1146" y="344.0" font-family="Helvetica, Arial, sans-serif" font-size="17" fill="#1a1a1a">+0.6 up</text>
<text x="1146" y="469.0" font-family="Helvetica, Arial, sans-serif" font-size="17" fill="#1a1a1a">no net move</text>
<text x="1146" y="594.0" font-family="Helvetica, Arial, sans-serif" font-size="17" fill="#1a1a1a">&#8722;0.6 down</text>
<line x1="1102" y1="431.8" x2="1102" y2="494.2" stroke="#6b7684" stroke-width="2"/>
<text x="1098" y="468.0" font-family="Helvetica, Arial, sans-serif" font-size="13" fill="#6b7684" text-anchor="end">|move|&lt;0.15</text>
<text x="1110" y="634" font-family="Helvetica, Arial, sans-serif" font-size="17" fill="#1a1a1a" font-weight="bold">dot size = |move|</text>
<circle cx="1134" cy="672" r="9.2" fill="none" stroke="#6b7684" stroke-width="1.8"/>
<text x="1134" y="706" font-family="Helvetica, Arial, sans-serif" font-size="14" fill="#6b7684" text-anchor="middle">0.1</text>
<circle cx="1212" cy="672" r="14.6" fill="none" stroke="#6b7684" stroke-width="1.8"/>
<text x="1212" y="706" font-family="Helvetica, Arial, sans-serif" font-size="14" fill="#6b7684" text-anchor="middle">0.35</text>
<circle cx="1290" cy="672" r="20.0" fill="none" stroke="#6b7684" stroke-width="1.8"/>
<text x="1290" y="706" font-family="Helvetica, Arial, sans-serif" font-size="14" fill="#6b7684" text-anchor="middle">0.6</text>
<text x="1110" y="746" font-family="Helvetica, Arial, sans-serif" font-size="16.5" fill="#1a1a1a">Selection pressure in the</text>
<text x="1110" y="769" font-family="Helvetica, Arial, sans-serif" font-size="16.5" fill="#1a1a1a">writeup's model is spread ×</text>
<text x="1110" y="792" font-family="Helvetica, Arial, sans-serif" font-size="16.5" fill="#1a1a1a">agreement: each round nudges</text>
<text x="1110" y="815" font-family="Helvetica, Arial, sans-serif" font-size="16.5" fill="#1a1a1a">the value by about ρ·σ. The</text>
<text x="1110" y="838" font-family="Helvetica, Arial, sans-serif" font-size="16.5" fill="#1a1a1a">corners of this plane are</text>
<text x="1110" y="861" font-family="Helvetica, Arial, sans-serif" font-size="16.5" fill="#1a1a1a">where both dials are large —</text>
<text x="1110" y="884" font-family="Helvetica, Arial, sans-serif" font-size="16.5" fill="#1a1a1a">and where runs actually moved.</text>
<text x="150" y="966" font-family="Helvetica, Arial, sans-serif" font-size="14.5" fill="#6b7684">Source: experiments/spread_util_unified.json &#8212; round-1 record per run key cond|seed|source; 74 runs total, 7 with undefined round-1 &#961; (zero spread) not plottable.</text>
<text x="150" y="986" font-family="Helvetica, Arial, sans-serif" font-size="14.5" fill="#6b7684">Mixed pools also carry a supplier shift not shown on these two axes.</text>
</svg>
