<svg xmlns="http://www.w3.org/2000/svg" viewBox="0 0 1300 880" font-family="Helvetica, Arial, sans-serif">
<rect width="1300" height="880" fill="white"/>
<text x="150" y="62" font-family="Helvetica, Arial, sans-serif" font-size="30" font-weight="bold" fill="#1a1a1a">Every run at its round-1 agreement and spread, colored by</text>
<text x="150" y="100" font-family="Helvetica, Arial, sans-serif" font-size="30" font-weight="bold" fill="#1a1a1a">where its value went</text>
<text x="150" y="176" font-family="Helvetica, Arial, sans-serif" font-size="21" fill="#6b7684">one dot per run · 67 modelable runs from experiments/spread_util_unified.json (round-1 record per run)</text>
<rect x="150" y="250" width="750" height="450" fill="none" stroke="#6b7684" stroke-width="1.6"/>
<line x1="549.0" y1="250" x2="549.0" y2="700" stroke="#6b7684" stroke-width="1.1" stroke-opacity="0.4"/>
<text x="549.0" y="242" font-family="Helvetica, Arial, sans-serif" font-size="15" fill="#6b7684" text-anchor="middle" font-style="italic">&#961; = 0</text>
<line x1="179.6" y1="700" x2="179.6" y2="708" stroke="#6b7684" stroke-width="1.6"/>
<text x="179.6" y="730" font-family="Helvetica, Arial, sans-serif" font-size="18" fill="#1a1a1a" text-anchor="middle">-1.0</text>
<line x1="364.3" y1="700" x2="364.3" y2="708" stroke="#6b7684" stroke-width="1.6"/>
<text x="364.3" y="730" font-family="Helvetica, Arial, sans-serif" font-size="18" fill="#1a1a1a" text-anchor="middle">-0.5</text>
<line x1="549.0" y1="700" x2="549.0" y2="708" stroke="#6b7684" stroke-width="1.6"/>
<text x="549.0" y="730" font-family="Helvetica, Arial, sans-serif" font-size="18" fill="#1a1a1a" text-anchor="middle">+0.0</text>
<line x1="733.7" y1="700" x2="733.7" y2="708" stroke="#6b7684" stroke-width="1.6"/>
<text x="733.7" y="730" font-family="Helvetica, Arial, sans-serif" font-size="18" fill="#1a1a1a" text-anchor="middle">+0.5</text>
<line x1="142" y1="700.0" x2="150" y2="700.0" stroke="#6b7684" stroke-width="1.6"/>
<text x="136" y="706.0" font-family="Helvetica, Arial, sans-serif" font-size="18" fill="#1a1a1a" text-anchor="end">0.0</text>
<line x1="142" y1="610.0" x2="150" y2="610.0" stroke="#6b7684" stroke-width="1.6"/>
<text x="136" y="616.0" font-family="Helvetica, Arial, sans-serif" font-size="18" fill="#1a1a1a" text-anchor="end">0.1</text>
<line x1="142" y1="520.0" x2="150" y2="520.0" stroke="#6b7684" stroke-width="1.6"/>
<text x="136" y="526.0" font-family="Helvetica, Arial, sans-serif" font-size="18" fill="#1a1a1a" text-anchor="end">0.2</text>
<line x1="142" y1="430.0" x2="150" y2="430.0" stroke="#6b7684" stroke-width="1.6"/>
<text x="136" y="436.0" font-family="Helvetica, Arial, sans-serif" font-size="18" fill="#1a1a1a" text-anchor="end">0.3</text>
<line x1="142" y1="340.0" x2="150" y2="340.0" stroke="#6b7684" stroke-width="1.6"/>
<text x="136" y="346.0" font-family="Helvetica, Arial, sans-serif" font-size="18" fill="#1a1a1a" text-anchor="end">0.4</text>
<line x1="142" y1="250.0" x2="150" y2="250.0" stroke="#6b7684" stroke-width="1.6"/>
<text x="136" y="256.0" font-family="Helvetica, Arial, sans-serif" font-size="18" fill="#1a1a1a" text-anchor="end">0.5</text>
<text x="525" y="764" font-family="Helvetica, Arial, sans-serif" font-size="20" fill="#1a1a1a" text-anchor="middle" font-weight="bold">round-1 agreement &#961;  <tspan font-weight="normal" fill="#6b7684">= correlation of judge scores with candidate value scores (&#8722;1 disagree &#8594; +1 lockstep)</tspan></text>
<text x="46" y="475" font-family="Helvetica, Arial, sans-serif" font-size="20" fill="#1a1a1a" text-anchor="middle" font-weight="bold" transform="rotate(-90 46 475)">round-1 spread &#963;  <tspan font-weight="normal" fill="#6b7684">= within-prompt SD of value scores</tspan></text>
<circle cx="769.9" cy="341.7" r="10.0" fill="#6b7684" fill-opacity="0.9" stroke="white" stroke-width="1.6"/>
<circle cx="482.9" cy="312.1" r="10.0" fill="#6b7684" fill-opacity="0.9" stroke="white" stroke-width="1.6"/>
<circle cx="533.2" cy="313.0" r="10.0" fill="#6b7684" fill-opacity="0.9" stroke="white" stroke-width="1.6"/>
<circle cx="525.8" cy="279.8" r="10.0" fill="#6b7684" fill-opacity="0.9" stroke="white" stroke-width="1.6"/>
<circle cx="630.1" cy="354.8" r="10.0" fill="#6b7684" fill-opacity="0.9" stroke="white" stroke-width="1.6"/>
<circle cx="740.0" cy="572.5" r="10.0" fill="#6b7684" fill-opacity="0.9" stroke="white" stroke-width="1.6"/>
<circle cx="563.5" cy="274.6" r="10.0" fill="#6b7684" fill-opacity="0.9" stroke="white" stroke-width="1.6"/>
<circle cx="441.3" cy="401.8" r="10.0" fill="#6b7684" fill-opacity="0.9" stroke="white" stroke-width="1.6"/>
<circle cx="487.2" cy="334.2" r="10.0" fill="#6b7684" fill-opacity="0.9" stroke="white" stroke-width="1.6"/>
<circle cx="563.5" cy="274.6" r="10.0" fill="#6b7684" fill-opacity="0.9" stroke="white" stroke-width="1.6"/>
<circle cx="560.9" cy="279.8" r="10.0" fill="#6b7684" fill-opacity="0.9" stroke="white" stroke-width="1.6"/>
<circle cx="491.6" cy="418.8" r="10.0" fill="#6b7684" fill-opacity="0.9" stroke="white" stroke-width="1.6"/>
<circle cx="445.5" cy="440.4" r="10.0" fill="#6b7684" fill-opacity="0.9" stroke="white" stroke-width="1.6"/>
<circle cx="514.7" cy="380.6" r="10.0" fill="#6b7684" fill-opacity="0.9" stroke="white" stroke-width="1.6"/>
<circle cx="482.9" cy="454.2" r="10.0" fill="#6b7684" fill-opacity="0.9" stroke="white" stroke-width="1.6"/>
<circle cx="611.6" cy="313.0" r="10.0" fill="#6b7684" fill-opacity="0.9" stroke="white" stroke-width="1.6"/>
<circle cx="470.8" cy="474.7" r="10.0" fill="#6b7684" fill-opacity="0.9" stroke="white" stroke-width="1.6"/>
<circle cx="546.8" cy="312.1" r="10.0" fill="#5a7291" fill-opacity="0.9" stroke="white" stroke-width="1.6"/>
<circle cx="652.4" cy="483.6" r="10.0" fill="#597291" fill-opacity="0.9" stroke="white" stroke-width="1.6"/>
<circle cx="505.5" cy="274.6" r="10.0" fill="#587292" fill-opacity="0.9" stroke="white" stroke-width="1.6"/>
<circle cx="562.7" cy="401.8" r="10.0" fill="#577292" fill-opacity="0.9" stroke="white" stroke-width="1.6"/>
<circle cx="453.5" cy="474.7" r="10.0" fill="#577193" fill-opacity="0.9" stroke="white" stroke-width="1.6"/>
<circle cx="491.6" cy="418.8" r="10.0" fill="#547195" fill-opacity="0.9" stroke="white" stroke-width="1.6"/>
<circle cx="606.4" cy="289.3" r="10.0" fill="#855f65" fill-opacity="0.9" stroke="white" stroke-width="1.6"/>
<circle cx="510.3" cy="301.8" r="10.0" fill="#865e63" fill-opacity="0.9" stroke="white" stroke-width="1.6"/>
<circle cx="371.7" cy="454.2" r="10.0" fill="#507098" fill-opacity="0.9" stroke="white" stroke-width="1.6"/>
<circle cx="636.7" cy="433.6" r="10.0" fill="#4f7099" fill-opacity="0.9" stroke="white" stroke-width="1.6"/>
<circle cx="500.2" cy="418.8" r="10.0" fill="#8a5a5f" fill-opacity="0.9" stroke="white" stroke-width="1.6"/>
<circle cx="658.2" cy="336.4" r="10.0" fill="#8c595d" fill-opacity="0.9" stroke="white" stroke-width="1.6"/>
<circle cx="611.6" cy="313.0" r="10.0" fill="#8c585c" fill-opacity="0.9" stroke="white" stroke-width="1.6"/>
<circle cx="491.6" cy="418.8" r="10.0" fill="#496e9d" fill-opacity="0.9" stroke="white" stroke-width="1.6"/>
<circle cx="491.6" cy="418.8" r="10.0" fill="#496e9d" fill-opacity="0.9" stroke="white" stroke-width="1.6"/>
<circle cx="548.5" cy="398.3" r="10.0" fill="#466e9f" fill-opacity="0.9" stroke="white" stroke-width="1.6"/>
<circle cx="546.9" cy="312.1" r="10.0" fill="#466e9f" fill-opacity="0.9" stroke="white" stroke-width="1.6"/>
<circle cx="669.1" cy="371.8" r="10.0" fill="#456ea0" fill-opacity="0.9" stroke="white" stroke-width="1.6"/>
<circle cx="179.6" cy="558.8" r="10.0" fill="#436da1" fill-opacity="0.9" stroke="white" stroke-width="1.6"/>
<circle cx="667.1" cy="371.4" r="10.0" fill="#994d4e" fill-opacity="0.9" stroke="white" stroke-width="1.6"/>
<circle cx="482.5" cy="401.8" r="10.0" fill="#9d4949" fill-opacity="0.9" stroke="white" stroke-width="1.6"/>
<circle cx="672.9" cy="319.5" r="10.0" fill="#9e4948" fill-opacity="0.9" stroke="white" stroke-width="1.6"/>
<circle cx="560.9" cy="279.8" r="10.0" fill="#9e4847" fill-opacity="0.9" stroke="white" stroke-width="1.6"/>
<circle cx="659.3" cy="306.2" r="10.0" fill="#a04745" fill-opacity="0.9" stroke="white" stroke-width="1.6"/>
<circle cx="413.2" cy="412.1" r="10.0" fill="#396ba8" fill-opacity="0.9" stroke="white" stroke-width="1.6"/>
<circle cx="474.5" cy="385.4" r="10.0" fill="#396ba8" fill-opacity="0.9" stroke="white" stroke-width="1.6"/>
<circle cx="690.2" cy="449.9" r="10.0" fill="#396ba9" fill-opacity="0.9" stroke="white" stroke-width="1.6"/>
<circle cx="784.7" cy="359.6" r="10.0" fill="#a34442" fill-opacity="0.9" stroke="white" stroke-width="1.6"/>
<circle cx="742.5" cy="344.2" r="10.0" fill="#a34442" fill-opacity="0.9" stroke="white" stroke-width="1.6"/>
<circle cx="582.3" cy="334.2" r="10.0" fill="#a6423e" fill-opacity="0.9" stroke="white" stroke-width="1.6"/>
<circle cx="179.6" cy="480.0" r="10.0" fill="#3169ae" fill-opacity="0.9" stroke="white" stroke-width="1.6"/>
<circle cx="514.7" cy="380.6" r="10.0" fill="#ab3d37" fill-opacity="0.9" stroke="white" stroke-width="1.6"/>
<circle cx="553.6" cy="518.9" r="10.0" fill="#b13831" fill-opacity="0.9" stroke="white" stroke-width="1.6"/>
<circle cx="554.7" cy="380.6" r="10.0" fill="#b23730" fill-opacity="0.9" stroke="white" stroke-width="1.6"/>
<circle cx="179.6" cy="340.7" r="10.0" fill="#2a67b4" fill-opacity="0.9" stroke="white" stroke-width="1.6"/>
<circle cx="179.6" cy="418.1" r="10.0" fill="#2867b5" fill-opacity="0.9" stroke="white" stroke-width="1.6"/>
<circle cx="179.6" cy="426.1" r="10.0" fill="#2867b5" fill-opacity="0.9" stroke="white" stroke-width="1.6"/>
<circle cx="514.7" cy="380.6" r="10.0" fill="#b5342c" fill-opacity="0.9" stroke="white" stroke-width="1.6"/>
<circle cx="747.4" cy="315.2" r="10.0" fill="#b5342c" fill-opacity="0.9" stroke="white" stroke-width="1.6"/>
<circle cx="410.9" cy="499.6" r="10.0" fill="#2867b5" fill-opacity="0.9" stroke="white" stroke-width="1.6"/>
<circle cx="668.4" cy="294.6" r="10.0" fill="#b5342c" fill-opacity="0.9" stroke="white" stroke-width="1.6"/>
<circle cx="179.6" cy="499.6" r="10.0" fill="#2867b5" fill-opacity="0.9" stroke="white" stroke-width="1.6"/>
<circle cx="179.6" cy="572.5" r="10.0" fill="#2867b5" fill-opacity="0.9" stroke="white" stroke-width="1.6"/>
<circle cx="802.7" cy="279.8" r="10.0" fill="#b5342c" fill-opacity="0.9" stroke="white" stroke-width="1.6"/>
<circle cx="811.3" cy="332.2" r="10.0" fill="#b5342c" fill-opacity="0.9" stroke="white" stroke-width="1.6"/>
<circle cx="514.7" cy="380.6" r="10.0" fill="#b5342c" fill-opacity="0.9" stroke="white" stroke-width="1.6"/>
<circle cx="777.4" cy="313.0" r="10.0" fill="#b5342c" fill-opacity="0.9" stroke="white" stroke-width="1.6"/>
<circle cx="757.9" cy="326.9" r="10.0" fill="#b5342c" fill-opacity="0.9" stroke="white" stroke-width="1.6"/>
<circle cx="711.1" cy="319.5" r="10.0" fill="#b5342c" fill-opacity="0.9" stroke="white" stroke-width="1.6"/>
<circle cx="179.6" cy="588.2" r="10.0" fill="#2867b5" fill-opacity="0.9" stroke="white" stroke-width="1.6"/>
<text x="946" y="264" font-family="Helvetica, Arial, sans-serif" font-size="18" font-weight="bold" fill="#1a1a1a">Endpoint move of</text>
<text x="946" y="287" font-family="Helvetica, Arial, sans-serif" font-size="18" font-weight="bold" fill="#1a1a1a">the behavioral value</text>
<text x="946" y="309" font-family="Helvetica, Arial, sans-serif" font-size="14.5" fill="#6b7684">(last value+drift) &#8722; round-1 value</text>
<rect x="946" y="330.0" width="24" height="5.0" fill="#b5342c" stroke="none"/>
<rect x="946" y="334.1" width="24" height="5.0" fill="#b2362f" stroke="none"/>
<rect x="946" y="338.1" width="24" height="5.0" fill="#b03832" stroke="none"/>
<rect x="946" y="342.2" width="24" height="5.0" fill="#ad3b35" stroke="none"/>
<rect x="946" y="346.3" width="24" height="5.0" fill="#ab3d38" stroke="none"/>
<rect x="946" y="350.3" width="24" height="5.0" fill="#a83f3b" stroke="none"/>
<rect x="946" y="354.4" width="24" height="5.0" fill="#a6413e" stroke="none"/>
<rect x="946" y="358.5" width="24" height="5.0" fill="#a34441" stroke="none"/>
<rect x="946" y="362.5" width="24" height="5.0" fill="#a14644" stroke="none"/>
<rect x="946" y="366.6" width="24" height="5.0" fill="#9e4847" stroke="none"/>
<rect x="946" y="370.7" width="24" height="5.0" fill="#9c4a4a" stroke="none"/>
<rect x="946" y="374.7" width="24" height="5.0" fill="#994d4d" stroke="none"/>
<rect x="946" y="378.8" width="24" height="5.0" fill="#974f50" stroke="none"/>
<rect x="946" y="382.9" width="24" height="5.0" fill="#945153" stroke="none"/>
<rect x="946" y="386.9" width="24" height="5.0" fill="#925356" stroke="none"/>
<rect x="946" y="391.0" width="24" height="5.0" fill="#8f5659" stroke="none"/>
<rect x="946" y="395.1" width="24" height="5.0" fill="#8d585c" stroke="none"/>
<rect x="946" y="399.2" width="24" height="5.0" fill="#8a5a5f" stroke="none"/>
<rect x="946" y="403.2" width="24" height="5.0" fill="#885c62" stroke="none"/>
<rect x="946" y="407.3" width="24" height="5.0" fill="#855f65" stroke="none"/>
<rect x="946" y="411.4" width="24" height="5.0" fill="#836168" stroke="none"/>
<rect x="946" y="415.4" width="24" height="5.0" fill="#80636b" stroke="none"/>
<rect x="946" y="419.5" width="24" height="5.0" fill="#7e656e" stroke="none"/>
<rect x="946" y="423.6" width="24" height="5.0" fill="#6b7684" stroke="none"/>
<rect x="946" y="427.6" width="24" height="5.0" fill="#6b7684" stroke="none"/>
<rect x="946" y="431.7" width="24" height="5.0" fill="#6b7684" stroke="none"/>
<rect x="946" y="435.8" width="24" height="5.0" fill="#6b7684" stroke="none"/>
<rect x="946" y="439.8" width="24" height="5.0" fill="#6b7684" stroke="none"/>
<rect x="946" y="443.9" width="24" height="5.0" fill="#6b7684" stroke="none"/>
<rect x="946" y="448.0" width="24" height="5.0" fill="#6b7684" stroke="none"/>
<rect x="946" y="452.0" width="24" height="5.0" fill="#6b7684" stroke="none"/>
<rect x="946" y="456.1" width="24" height="5.0" fill="#6b7684" stroke="none"/>
<rect x="946" y="460.2" width="24" height="5.0" fill="#6b7684" stroke="none"/>
<rect x="946" y="464.2" width="24" height="5.0" fill="#6b7684" stroke="none"/>
<rect x="946" y="468.3" width="24" height="5.0" fill="#6b7684" stroke="none"/>
<rect x="946" y="472.4" width="24" height="5.0" fill="#6b7684" stroke="none"/>
<rect x="946" y="476.4" width="24" height="5.0" fill="#6b7684" stroke="none"/>
<rect x="946" y="480.5" width="24" height="5.0" fill="#5a7290" stroke="none"/>
<rect x="946" y="484.6" width="24" height="5.0" fill="#587292" stroke="none"/>
<rect x="946" y="488.6" width="24" height="5.0" fill="#557194" stroke="none"/>
<rect x="946" y="492.7" width="24" height="5.0" fill="#537195" stroke="none"/>
<rect x="946" y="496.8" width="24" height="5.0" fill="#517097" stroke="none"/>
<rect x="946" y="500.8" width="24" height="5.0" fill="#4f7099" stroke="none"/>
<rect x="946" y="504.9" width="24" height="5.0" fill="#4c6f9a" stroke="none"/>
<rect x="946" y="509.0" width="24" height="5.0" fill="#4a6f9c" stroke="none"/>
<rect x="946" y="513.1" width="24" height="5.0" fill="#486e9e" stroke="none"/>
<rect x="946" y="517.1" width="24" height="5.0" fill="#466e9f" stroke="none"/>
<rect x="946" y="521.2" width="24" height="5.0" fill="#436da1" stroke="none"/>
<rect x="946" y="525.3" width="24" height="5.0" fill="#416da3" stroke="none"/>
<rect x="946" y="529.3" width="24" height="5.0" fill="#3f6ca4" stroke="none"/>
<rect x="946" y="533.4" width="24" height="5.0" fill="#3c6ca6" stroke="none"/>
<rect x="946" y="537.5" width="24" height="5.0" fill="#3a6ba8" stroke="none"/>
<rect x="946" y="541.5" width="24" height="5.0" fill="#386ba9" stroke="none"/>
<rect x="946" y="545.6" width="24" height="5.0" fill="#366aab" stroke="none"/>
<rect x="946" y="549.7" width="24" height="5.0" fill="#336aad" stroke="none"/>
<rect x="946" y="553.7" width="24" height="5.0" fill="#3169ae" stroke="none"/>
<rect x="946" y="557.8" width="24" height="5.0" fill="#2f69b0" stroke="none"/>
<rect x="946" y="561.9" width="24" height="5.0" fill="#2d68b2" stroke="none"/>
<rect x="946" y="565.9" width="24" height="5.0" fill="#2a68b3" stroke="none"/>
<rect x="946" y="570.0" width="24" height="5.0" fill="#2867b5" stroke="none"/>
<rect x="946" y="330" width="24" height="240" fill="none" stroke="#6b7684" stroke-width="1.2"/>
<text x="980" y="336.0" font-family="Helvetica, Arial, sans-serif" font-size="16" fill="#1a1a1a">+0.6  moved up</text>
<text x="980" y="456.0" font-family="Helvetica, Arial, sans-serif" font-size="16" fill="#1a1a1a">0  no net move</text>
<text x="980" y="576.0" font-family="Helvetica, Arial, sans-serif" font-size="16" fill="#1a1a1a">&#8722;0.6  moved down</text>
<line x1="937" y1="420.0" x2="937" y2="480.0" stroke="#6b7684" stroke-width="2"/>
<text x="933" y="455.0" font-family="Helvetica, Arial, sans-serif" font-size="13" fill="#6b7684" text-anchor="end">|move|</text>
<text x="933" y="471.0" font-family="Helvetica, Arial, sans-serif" font-size="13" fill="#6b7684" text-anchor="end">&lt; 0.15</text>
<text x="150" y="840" font-family="Helvetica, Arial, sans-serif" font-size="14.5" fill="#6b7684">7 of the 74 runs have an undefined round-1 &#961; and cannot be placed on these two axes (3 zero-spread pools, 4 random-selection controls); 67 runs plotted.</text>
<text x="150" y="862" font-family="Helvetica, Arial, sans-serif" font-size="14.5" fill="#6b7684">Source: experiments/spread_util_unified.json &#8212; round-1 record per run key cond|seed|source.</text>
</svg>
