<svg xmlns="http://www.w3.org/2000/svg" viewBox="0 0 1290 906" font-family="Helvetica, Arial, sans-serif">
<rect width="1290" height="906" fill="white"/>
<text x="52" y="60" font-family="Helvetica, Arial, sans-serif" font-size="34" font-weight="bold" fill="#1a1a1a">Predicted first-round pull vs each run&#8217;s observed net movement</text>
<text x="52" y="100" font-family="Helvetica, Arial, sans-serif" font-size="20" fill="#1a1a1a">Horizontal: the model&#8217;s predicted first-round pull&#160;&#160;(round-1 pool mean&#160;+&#160;&#961;&#183;spread)&#160;&#8722;&#160;round-1 value.</text>
<text x="52" y="126" font-family="Helvetica, Arial, sans-serif" font-size="20" fill="#1a1a1a">Vertical: the run&#8217;s observed net movement (final value&#160;&#8722;&#160;round-1 value). One dot per run, 67 runs.</text>
<rect x="172" y="206" width="616" height="616" fill="#fcfcfb" stroke="#c8cdd4" stroke-width="1.5"/>
<line x1="206.2" y1="514.0" x2="206.2" y2="787.8" stroke="#c3d3ea" stroke-width="1.4"/>
<polygon points="206.2,787.8 202.8,781.8 209.6,781.8" fill="#c3d3ea"/>
<line x1="240.4" y1="514.0" x2="240.4" y2="753.6" stroke="#c3d3ea" stroke-width="1.4"/>
<polygon points="240.4,753.6 237.0,747.6 243.8,747.6" fill="#c3d3ea"/>
<line x1="274.7" y1="514.0" x2="274.7" y2="719.3" stroke="#c3d3ea" stroke-width="1.4"/>
<polygon points="274.7,719.3 271.3,713.3 278.1,713.3" fill="#c3d3ea"/>
<line x1="308.9" y1="514.0" x2="308.9" y2="685.1" stroke="#c3d3ea" stroke-width="1.4"/>
<polygon points="308.9,685.1 305.5,679.1 312.3,679.1" fill="#c3d3ea"/>
<line x1="343.1" y1="514.0" x2="343.1" y2="650.9" stroke="#c3d3ea" stroke-width="1.4"/>
<polygon points="343.1,650.9 339.7,644.9 346.5,644.9" fill="#c3d3ea"/>
<line x1="377.3" y1="514.0" x2="377.3" y2="616.7" stroke="#c3d3ea" stroke-width="1.4"/>
<polygon points="377.3,616.7 373.9,610.7 380.7,610.7" fill="#c3d3ea"/>
<line x1="411.6" y1="514.0" x2="411.6" y2="582.4" stroke="#c3d3ea" stroke-width="1.4"/>
<polygon points="411.6,582.4 408.2,576.4 415.0,576.4" fill="#c3d3ea"/>
<line x1="445.8" y1="514.0" x2="445.8" y2="548.2" stroke="#c3d3ea" stroke-width="1.4"/>
<polygon points="445.8,548.2 442.4,542.2 449.2,542.2" fill="#c3d3ea"/>
<line x1="514.2" y1="514.0" x2="514.2" y2="479.8" stroke="#c3d3ea" stroke-width="1.4"/>
<polygon points="514.2,479.8 510.8,485.8 517.6,485.8" fill="#c3d3ea"/>
<line x1="548.4" y1="514.0" x2="548.4" y2="445.6" stroke="#c3d3ea" stroke-width="1.4"/>
<polygon points="548.4,445.6 545.0,451.6 551.8,451.6" fill="#c3d3ea"/>
<line x1="582.7" y1="514.0" x2="582.7" y2="411.3" stroke="#c3d3ea" stroke-width="1.4"/>
<polygon points="582.7,411.3 579.3,417.3 586.1,417.3" fill="#c3d3ea"/>
<line x1="616.9" y1="514.0" x2="616.9" y2="377.1" stroke="#c3d3ea" stroke-width="1.4"/>
<polygon points="616.9,377.1 613.5,383.1 620.3,383.1" fill="#c3d3ea"/>
<line x1="651.1" y1="514.0" x2="651.1" y2="342.9" stroke="#c3d3ea" stroke-width="1.4"/>
<polygon points="651.1,342.9 647.7,348.9 654.5,348.9" fill="#c3d3ea"/>
<line x1="685.3" y1="514.0" x2="685.3" y2="308.7" stroke="#c3d3ea" stroke-width="1.4"/>
<polygon points="685.3,308.7 681.9,314.7 688.7,314.7" fill="#c3d3ea"/>
<line x1="719.6" y1="514.0" x2="719.6" y2="274.4" stroke="#c3d3ea" stroke-width="1.4"/>
<polygon points="719.6,274.4 716.2,280.4 723.0,280.4" fill="#c3d3ea"/>
<line x1="753.8" y1="514.0" x2="753.8" y2="240.2" stroke="#c3d3ea" stroke-width="1.4"/>
<polygon points="753.8,240.2 750.4,246.2 757.2,246.2" fill="#c3d3ea"/>
<line x1="480.0" y1="206" x2="480.0" y2="822" stroke="#6b7684" stroke-width="1.4" stroke-dasharray="2 4"/>
<line x1="172" y1="514.0" x2="788" y2="514.0" stroke="#6b7684" stroke-width="1.4" stroke-dasharray="2 4"/>
<line x1="172.0" y1="822.0" x2="788.0" y2="206.0" stroke="#6b7684" stroke-width="2.2" stroke-dasharray="8 6"/>
<text x="668.2" y="351.8" text-anchor="middle" font-family="Helvetica, Arial, sans-serif" font-size="16" fill="#6b7684" transform="rotate(-45 668.2 351.8)">y = x</text>
<text x="223.3" y="848.0" text-anchor="middle" font-family="Helvetica, Arial, sans-serif" font-size="14" fill="#6b7684">-0.75</text>
<text x="158.0" y="775.7" text-anchor="end" font-family="Helvetica, Arial, sans-serif" font-size="14" fill="#6b7684">-0.75</text>
<text x="308.9" y="848.0" text-anchor="middle" font-family="Helvetica, Arial, sans-serif" font-size="14" fill="#6b7684">-0.50</text>
<text x="158.0" y="690.1" text-anchor="end" font-family="Helvetica, Arial, sans-serif" font-size="14" fill="#6b7684">-0.50</text>
<text x="394.4" y="848.0" text-anchor="middle" font-family="Helvetica, Arial, sans-serif" font-size="14" fill="#6b7684">-0.25</text>
<text x="158.0" y="604.6" text-anchor="end" font-family="Helvetica, Arial, sans-serif" font-size="14" fill="#6b7684">-0.25</text>
<text x="565.6" y="848.0" text-anchor="middle" font-family="Helvetica, Arial, sans-serif" font-size="14" fill="#6b7684">+0.25</text>
<text x="158.0" y="433.4" text-anchor="end" font-family="Helvetica, Arial, sans-serif" font-size="14" fill="#6b7684">+0.25</text>
<text x="651.1" y="848.0" text-anchor="middle" font-family="Helvetica, Arial, sans-serif" font-size="14" fill="#6b7684">+0.50</text>
<text x="158.0" y="347.9" text-anchor="end" font-family="Helvetica, Arial, sans-serif" font-size="14" fill="#6b7684">+0.50</text>
<text x="736.7" y="848.0" text-anchor="middle" font-family="Helvetica, Arial, sans-serif" font-size="14" fill="#6b7684">+0.75</text>
<text x="158.0" y="262.3" text-anchor="end" font-family="Helvetica, Arial, sans-serif" font-size="14" fill="#6b7684">+0.75</text>
<text x="480.0" y="880.0" text-anchor="middle" font-family="Helvetica, Arial, sans-serif" font-size="18" font-weight="bold" fill="#1a1a1a">predicted first-round pull  (pool + &#961;&#183;spread &#8722; value)  &#8594; toward risk / insecurity</text>
<text x="60" y="514.0" text-anchor="middle" font-family="Helvetica, Arial, sans-serif" font-size="18" font-weight="bold" fill="#1a1a1a" transform="rotate(-90 60 514.0)">observed net movement of the whole run</text>
<circle cx="448.4" cy="619.3" r="7.5" fill="white" stroke="#3a7d44" stroke-width="2.4"/>
<circle cx="475.0" cy="274.8" r="7.5" fill="white" stroke="#3a7d44" stroke-width="2.4"/>
<circle cx="448.4" cy="583.3" r="7.5" fill="white" stroke="#3a7d44" stroke-width="2.4"/>
<circle cx="475.0" cy="296.2" r="7.5" fill="white" stroke="#3a7d44" stroke-width="2.4"/>
<circle cx="448.4" cy="540.9" r="7.5" fill="white" stroke="#3a7d44" stroke-width="2.4"/>
<circle cx="475.0" cy="335.4" r="7.5" fill="white" stroke="#3a7d44" stroke-width="2.4"/>
<circle cx="448.4" cy="619.3" r="7.5" fill="white" stroke="#3a7d44" stroke-width="2.4"/>
<circle cx="475.0" cy="483.7" r="7.5" fill="white" stroke="#3a7d44" stroke-width="2.4"/>
<circle cx="455.8" cy="375.2" r="7.5" fill="white" stroke="#3a7d44" stroke-width="2.4"/>
<circle cx="466.1" cy="628.1" r="8" fill="#2867b5" fill-opacity="0.9" stroke="white" stroke-width="1.5"/>
<circle cx="466.0" cy="567.5" r="8" fill="#2867b5" fill-opacity="0.9" stroke="white" stroke-width="1.5"/>
<circle cx="440.5" cy="510.4" r="8" fill="#2867b5" fill-opacity="0.9" stroke="white" stroke-width="1.5"/>
<circle cx="463.8" cy="489.1" r="8" fill="#2867b5" fill-opacity="0.9" stroke="white" stroke-width="1.5"/>
<circle cx="463.8" cy="499.7" r="8" fill="#2867b5" fill-opacity="0.9" stroke="white" stroke-width="1.5"/>
<circle cx="438.3" cy="571.0" r="8" fill="#2867b5" fill-opacity="0.9" stroke="white" stroke-width="1.5"/>
<circle cx="478.8" cy="421.3" r="8" fill="#2867b5" fill-opacity="0.9" stroke="white" stroke-width="1.5"/>
<circle cx="478.8" cy="481.9" r="8" fill="#2867b5" fill-opacity="0.9" stroke="white" stroke-width="1.5"/>
<circle cx="447.6" cy="517.6" r="8" fill="#2867b5" fill-opacity="0.9" stroke="white" stroke-width="1.5"/>
<circle cx="461.4" cy="371.4" r="8" fill="#2867b5" fill-opacity="0.9" stroke="white" stroke-width="1.5"/>
<circle cx="461.4" cy="538.9" r="8" fill="#2867b5" fill-opacity="0.9" stroke="white" stroke-width="1.5"/>
<circle cx="446.2" cy="510.4" r="8" fill="#2867b5" fill-opacity="0.9" stroke="white" stroke-width="1.5"/>
<circle cx="441.3" cy="530.1" r="8" fill="#3a7d44" fill-opacity="0.9" stroke="white" stroke-width="1.5"/>
<circle cx="478.6" cy="574.3" r="8" fill="#3a7d44" fill-opacity="0.9" stroke="white" stroke-width="1.5"/>
<circle cx="449.4" cy="565.3" r="8" fill="#3a7d44" fill-opacity="0.9" stroke="white" stroke-width="1.5"/>
<circle cx="445.4" cy="576.4" r="8" fill="#3a7d44" fill-opacity="0.9" stroke="white" stroke-width="1.5"/>
<circle cx="457.8" cy="319.6" r="8" fill="#3a7d44" fill-opacity="0.9" stroke="white" stroke-width="1.5"/>
<circle cx="415.0" cy="596.0" r="8" fill="#3a7d44" fill-opacity="0.9" stroke="white" stroke-width="1.5"/>
<circle cx="513.0" cy="534.5" r="8" fill="#3a7d44" fill-opacity="0.9" stroke="white" stroke-width="1.5"/>
<circle cx="431.6" cy="541.8" r="8" fill="#3a7d44" fill-opacity="0.9" stroke="white" stroke-width="1.5"/>
<circle cx="443.1" cy="546.1" r="8" fill="#3a7d44" fill-opacity="0.9" stroke="white" stroke-width="1.5"/>
<circle cx="548.8" cy="350.8" r="8" fill="#3a7d44" fill-opacity="0.9" stroke="white" stroke-width="1.5"/>
<circle cx="450.9" cy="426.8" r="8" fill="#3a7d44" fill-opacity="0.9" stroke="white" stroke-width="1.5"/>
<circle cx="488.1" cy="317.6" r="8" fill="#3a7d44" fill-opacity="0.9" stroke="white" stroke-width="1.5"/>
<circle cx="479.3" cy="568.5" r="8" fill="#c9791a" fill-opacity="0.9" stroke="white" stroke-width="1.5"/>
<circle cx="466.4" cy="514.0" r="8" fill="#c9791a" fill-opacity="0.9" stroke="white" stroke-width="1.5"/>
<circle cx="477.8" cy="629.7" r="8" fill="#c9791a" fill-opacity="0.9" stroke="white" stroke-width="1.5"/>
<circle cx="454.5" cy="667.3" r="8" fill="#c9791a" fill-opacity="0.9" stroke="white" stroke-width="1.5"/>
<circle cx="443.4" cy="626.1" r="8" fill="#c9791a" fill-opacity="0.9" stroke="white" stroke-width="1.5"/>
<circle cx="451.7" cy="600.5" r="8" fill="#c9791a" fill-opacity="0.9" stroke="white" stroke-width="1.5"/>
<circle cx="541.9" cy="438.1" r="8" fill="#c9791a" fill-opacity="0.9" stroke="white" stroke-width="1.5"/>
<circle cx="582.2" cy="442.2" r="8" fill="#c9791a" fill-opacity="0.9" stroke="white" stroke-width="1.5"/>
<circle cx="594.3" cy="422.8" r="8" fill="#c9791a" fill-opacity="0.9" stroke="white" stroke-width="1.5"/>
<circle cx="495.8" cy="509.2" r="8" fill="#c9791a" fill-opacity="0.9" stroke="white" stroke-width="1.5"/>
<circle cx="648.6" cy="373.7" r="8" fill="#c9791a" fill-opacity="0.9" stroke="white" stroke-width="1.5"/>
<circle cx="655.4" cy="290.9" r="8" fill="#c9791a" fill-opacity="0.9" stroke="white" stroke-width="1.5"/>
<circle cx="687.0" cy="274.4" r="8" fill="#c9791a" fill-opacity="0.9" stroke="white" stroke-width="1.5"/>
<circle cx="705.7" cy="242.4" r="8" fill="#c9791a" fill-opacity="0.9" stroke="white" stroke-width="1.5"/>
<circle cx="698.6" cy="280.4" r="8" fill="#c9791a" fill-opacity="0.9" stroke="white" stroke-width="1.5"/>
<circle cx="710.2" cy="278.5" r="8" fill="#c9791a" fill-opacity="0.9" stroke="white" stroke-width="1.5"/>
<circle cx="657.9" cy="295.9" r="8" fill="#c9791a" fill-opacity="0.9" stroke="white" stroke-width="1.5"/>
<circle cx="714.2" cy="255.4" r="8" fill="#c9791a" fill-opacity="0.9" stroke="white" stroke-width="1.5"/>
<circle cx="447.0" cy="795.6" r="8" fill="#b5342c" fill-opacity="0.9" stroke="white" stroke-width="1.5"/>
<circle cx="282.8" cy="713.6" r="8" fill="#b5342c" fill-opacity="0.9" stroke="white" stroke-width="1.5"/>
<circle cx="344.0" cy="690.5" r="8" fill="#b5342c" fill-opacity="0.9" stroke="white" stroke-width="1.5"/>
<circle cx="571.0" cy="359.7" r="8" fill="#6d4a9c" fill-opacity="0.9" stroke="white" stroke-width="1.5"/>
<circle cx="486.5" cy="367.0" r="8" fill="#6d4a9c" fill-opacity="0.9" stroke="white" stroke-width="1.5"/>
<circle cx="576.5" cy="359.2" r="8" fill="#6d4a9c" fill-opacity="0.9" stroke="white" stroke-width="1.5"/>
<circle cx="531.5" cy="387.6" r="8" fill="#6d4a9c" fill-opacity="0.9" stroke="white" stroke-width="1.5"/>
<circle cx="390.9" cy="742.5" r="8" fill="#b5342c" fill-opacity="0.9" stroke="white" stroke-width="1.5"/>
<circle cx="345.8" cy="741.5" r="8" fill="#b5342c" fill-opacity="0.9" stroke="white" stroke-width="1.5"/>
<circle cx="391.1" cy="636.8" r="8" fill="#b5342c" fill-opacity="0.9" stroke="white" stroke-width="1.5"/>
<circle cx="471.1" cy="521.4" r="8" fill="#6d4a9c" fill-opacity="0.9" stroke="white" stroke-width="1.5"/>
<circle cx="400.2" cy="734.9" r="8" fill="#6d4a9c" fill-opacity="0.9" stroke="white" stroke-width="1.5"/>
<circle cx="276.8" cy="728.5" r="8" fill="#b5342c" fill-opacity="0.9" stroke="white" stroke-width="1.5"/>
<circle cx="286.1" cy="728.5" r="8" fill="#b5342c" fill-opacity="0.9" stroke="white" stroke-width="1.5"/>
<circle cx="395.4" cy="666.1" r="8" fill="#6d4a9c" fill-opacity="0.9" stroke="white" stroke-width="1.5"/>
<circle cx="437.9" cy="666.1" r="8" fill="#6d4a9c" fill-opacity="0.9" stroke="white" stroke-width="1.5"/>
<text x="834" y="224" font-family="Helvetica, Arial, sans-serif" font-size="16" font-weight="bold" fill="#1a1a1a">experiment family</text>
<circle cx="843" cy="241" r="8" fill="#2867b5" stroke="white" stroke-width="1.5"/>
<text x="862" y="246" font-family="Helvetica, Arial, sans-serif" font-size="15" fill="#1a1a1a">Qwen risk grid (12)</text>
<circle cx="843" cy="275" r="8" fill="#3a7d44" stroke="white" stroke-width="1.5"/>
<text x="862" y="280" font-family="Helvetica, Arial, sans-serif" font-size="15" fill="#1a1a1a">OLMo risk grid + (21)</text>
<text x="862" y="297" font-family="Helvetica, Arial, sans-serif" font-size="15" fill="#1a1a1a">schedules</text>
<circle cx="843" cy="309" r="8" fill="#c9791a" stroke="white" stroke-width="1.5"/>
<text x="862" y="314" font-family="Helvetica, Arial, sans-serif" font-size="15" fill="#1a1a1a">OLMo mixed-pool (18)</text>
<text x="862" y="331" font-family="Helvetica, Arial, sans-serif" font-size="15" fill="#1a1a1a">interventions</text>
<circle cx="843" cy="343" r="8" fill="#b5342c" stroke="white" stroke-width="1.5"/>
<text x="862" y="348" font-family="Helvetica, Arial, sans-serif" font-size="15" fill="#1a1a1a">oracle &amp; injection (8)</text>
<circle cx="843" cy="377" r="8" fill="#6d4a9c" stroke="white" stroke-width="1.5"/>
<text x="862" y="382" font-family="Helvetica, Arial, sans-serif" font-size="15" fill="#1a1a1a">Qwen insecure-code (8)</text>
<text x="862" y="399" font-family="Helvetica, Arial, sans-serif" font-size="15" fill="#1a1a1a">loops</text>
<circle cx="843" cy="431" r="7.5" fill="white" stroke="#6b7684" stroke-width="2.4"/>
<text x="862" y="436" font-family="Helvetica, Arial, sans-serif" font-size="15" fill="#1a1a1a">hollow = judge swapped</text>
<text x="862" y="453" font-family="Helvetica, Arial, sans-serif" font-size="15" fill="#1a1a1a">mid-run</text>
<line x1="843" y1="488" x2="843" y2="474" stroke="#c3d3ea" stroke-width="1.4"/>
<polygon points="843,474 839.6,480 846.4,480" fill="#c3d3ea"/>
<text x="862" y="478" font-family="Helvetica, Arial, sans-serif" font-size="15" fill="#1a1a1a">predicted movement</text>
<text x="862" y="495" font-family="Helvetica, Arial, sans-serif" font-size="15" fill="#1a1a1a">at this pull (y = x)</text>
<text x="834" y="526" font-family="Helvetica, Arial, sans-serif" font-size="14" fill="#6b7684">Source: experiments/</text>
<text x="834" y="543" font-family="Helvetica, Arial, sans-serif" font-size="14" fill="#6b7684">spread_util_unified.json</text>
<text x="834" y="560" font-family="Helvetica, Arial, sans-serif" font-size="14" fill="#6b7684">(field records).</text>
</svg>
