<svg xmlns="http://www.w3.org/2000/svg" viewBox="0 0 1440 620" font-family="Helvetica, Arial, sans-serif">
<rect width="1440" height="620" fill="white"/>
<text x="720" y="52" text-anchor="middle" font-size="26" font-weight="bold" fill="#1a1a1a" font-family="Helvetica, Arial, sans-serif">Who fills the candidate pool decides whether value-spread persists, is refilled, or collapses</text>
<text x="720" y="84" text-anchor="middle" font-size="16" fill="#6b7684" font-family="Helvetica, Arial, sans-serif">spread = SD of the judge value reading across the candidate answers on one item, averaged over the round; 340 rounds from 74 runs</text>
<line x1="330" y1="111" x2="370" y2="111" stroke="#1a1a1a" stroke-width="4"/>
<text x="380" y="116" font-size="16" fill="#1a1a1a" font-family="Helvetica, Arial, sans-serif">OLMo organisms (mean)</text>
<line x1="610" y1="111" x2="650" y2="111" stroke="#1a1a1a" stroke-width="4" stroke-dasharray="10 7"/>
<text x="660" y="116" font-size="16" fill="#1a1a1a" font-family="Helvetica, Arial, sans-serif">Qwen organisms (mean)</text>
<line x1="890" y1="111" x2="930" y2="111" stroke="#1a1a1a" stroke-width="1.5" stroke-opacity="0.45"/>
<text x="940" y="116" font-size="16" fill="#1a1a1a" font-family="Helvetica, Arial, sans-serif">individual runs</text>
<text x="46" y="380.0" font-size="18" fill="#1a1a1a" font-family="Helvetica, Arial, sans-serif" text-anchor="middle" transform="rotate(-90 46 380.0)">candidate value spread (within-item SD)</text>
<text x="290.0" y="168" text-anchor="middle" font-size="21" font-weight="bold" fill="#2867b5" font-family="Helvetica, Arial, sans-serif">Self-only pool</text>
<text x="290.0" y="196" text-anchor="middle" font-size="17" fill="#1a1a1a" font-family="Helvetica, Arial, sans-serif">spread persists (slope 0.88–0.97)</text>
<line x1="120" y1="530.0" x2="460" y2="530.0" stroke="#dddddd" stroke-width="1"/>
<text x="108" y="535.0" text-anchor="end" font-size="15" fill="#6b7684" font-family="Helvetica, Arial, sans-serif">0.0</text>
<line x1="120" y1="470.0" x2="460" y2="470.0" stroke="#dddddd" stroke-width="1"/>
<text x="108" y="475.0" text-anchor="end" font-size="15" fill="#6b7684" font-family="Helvetica, Arial, sans-serif">0.1</text>
<line x1="120" y1="410.0" x2="460" y2="410.0" stroke="#dddddd" stroke-width="1"/>
<text x="108" y="415.0" text-anchor="end" font-size="15" fill="#6b7684" font-family="Helvetica, Arial, sans-serif">0.2</text>
<line x1="120" y1="350.0" x2="460" y2="350.0" stroke="#dddddd" stroke-width="1"/>
<text x="108" y="355.0" text-anchor="end" font-size="15" fill="#6b7684" font-family="Helvetica, Arial, sans-serif">0.3</text>
<line x1="120" y1="290.0" x2="460" y2="290.0" stroke="#dddddd" stroke-width="1"/>
<text x="108" y="295.0" text-anchor="end" font-size="15" fill="#6b7684" font-family="Helvetica, Arial, sans-serif">0.4</text>
<line x1="120" y1="230.0" x2="460" y2="230.0" stroke="#dddddd" stroke-width="1"/>
<text x="108" y="235.0" text-anchor="end" font-size="15" fill="#6b7684" font-family="Helvetica, Arial, sans-serif">0.5</text>
<line x1="120" y1="230" x2="120" y2="530" stroke="#6b7684" stroke-width="1.5"/>
<line x1="120" y1="530" x2="460" y2="530" stroke="#6b7684" stroke-width="1.5"/>
<line x1="120.0" y1="530" x2="120.0" y2="536" stroke="#6b7684" stroke-width="1.5"/>
<text x="120.0" y="554" text-anchor="middle" font-size="15" fill="#6b7684" font-family="Helvetica, Arial, sans-serif">1</text>
<line x1="168.6" y1="530" x2="168.6" y2="536" stroke="#6b7684" stroke-width="1.5"/>
<text x="168.6" y="554" text-anchor="middle" font-size="15" fill="#6b7684" font-family="Helvetica, Arial, sans-serif">2</text>
<line x1="217.1" y1="530" x2="217.1" y2="536" stroke="#6b7684" stroke-width="1.5"/>
<text x="217.1" y="554" text-anchor="middle" font-size="15" fill="#6b7684" font-family="Helvetica, Arial, sans-serif">3</text>
<line x1="265.7" y1="530" x2="265.7" y2="536" stroke="#6b7684" stroke-width="1.5"/>
<text x="265.7" y="554" text-anchor="middle" font-size="15" fill="#6b7684" font-family="Helvetica, Arial, sans-serif">4</text>
<line x1="314.3" y1="530" x2="314.3" y2="536" stroke="#6b7684" stroke-width="1.5"/>
<text x="314.3" y="554" text-anchor="middle" font-size="15" fill="#6b7684" font-family="Helvetica, Arial, sans-serif">5</text>
<line x1="362.9" y1="530" x2="362.9" y2="536" stroke="#6b7684" stroke-width="1.5"/>
<text x="362.9" y="554" text-anchor="middle" font-size="15" fill="#6b7684" font-family="Helvetica, Arial, sans-serif">6</text>
<line x1="411.4" y1="530" x2="411.4" y2="536" stroke="#6b7684" stroke-width="1.5"/>
<text x="411.4" y="554" text-anchor="middle" font-size="15" fill="#6b7684" font-family="Helvetica, Arial, sans-serif">7</text>
<line x1="460.0" y1="530" x2="460.0" y2="536" stroke="#6b7684" stroke-width="1.5"/>
<text x="460.0" y="554" text-anchor="middle" font-size="15" fill="#6b7684" font-family="Helvetica, Arial, sans-serif">8</text>
<text x="290.0" y="580" text-anchor="middle" font-size="18" fill="#1a1a1a" font-family="Helvetica, Arial, sans-serif">round</text>
<polyline points="120.0,331.2 168.6,344.6 217.1,403.4 265.7,352.4" fill="none" stroke="#2867b5" stroke-width="1.3" stroke-opacity="0.15" stroke-linejoin="round" stroke-linecap="round"/>
<polyline points="120.0,331.2 168.6,294.0 217.1,339.7 265.7,425.5" fill="none" stroke="#2867b5" stroke-width="1.3" stroke-opacity="0.15" stroke-linejoin="round" stroke-linecap="round"/>
<polyline points="120.0,379.8 168.6,430.5 217.1,431.9 265.7,469.2" fill="none" stroke="#2867b5" stroke-width="1.3" stroke-opacity="0.15" stroke-linejoin="round" stroke-linecap="round"/>
<polyline points="120.0,379.8 168.6,444.1 217.1,431.9 265.7,399.1" fill="none" stroke="#2867b5" stroke-width="1.3" stroke-opacity="0.15" stroke-linejoin="round" stroke-linecap="round"/>
<polyline points="120.0,409.3 168.6,307.7 217.1,265.0 265.7,286.2" fill="none" stroke="#2867b5" stroke-width="1.3" stroke-opacity="0.15" stroke-linejoin="round" stroke-linecap="round"/>
<polyline points="120.0,366.1 168.6,413.2 217.1,436.8 265.7,487.8" fill="none" stroke="#2867b5" stroke-width="1.3" stroke-opacity="0.15" stroke-linejoin="round" stroke-linecap="round"/>
<polyline points="120.0,286.2 168.6,329.8 217.1,341.1 265.7,413.2" fill="none" stroke="#2867b5" stroke-width="1.3" stroke-opacity="0.15" stroke-linejoin="round" stroke-linecap="round"/>
<polyline points="120.0,356.9 168.6,467.7 217.1,427.0 265.7,431.9" fill="none" stroke="#2867b5" stroke-width="1.3" stroke-opacity="0.15" stroke-linejoin="round" stroke-linecap="round"/>
<polyline points="120.0,366.1 168.6,366.1 217.1,399.6 265.7,376.0" fill="none" stroke="#2867b5" stroke-width="1.3" stroke-opacity="0.15" stroke-linejoin="round" stroke-linecap="round"/>
<polyline points="120.0,286.2 168.6,262.6 217.1,297.5 265.7,284.1" fill="none" stroke="#2867b5" stroke-width="1.3" stroke-opacity="0.15" stroke-linejoin="round" stroke-linecap="round"/>
<polyline points="120.0,342.6 168.6,369.6 217.1,314.1 265.7,298.5 314.3,265.5 362.9,321.4 411.4,319.0 460.0,301.3" fill="none" stroke="#2867b5" stroke-width="1.3" stroke-opacity="0.15" stroke-linejoin="round" stroke-linecap="round"/>
<polyline points="120.0,317.1 168.6,283.3 217.1,263.6 265.7,249.9 314.3,302.7 362.9,297.5 411.4,364.2 460.0,364.7" fill="none" stroke="#2867b5" stroke-width="1.3" stroke-opacity="0.15" stroke-linejoin="round" stroke-linecap="round"/>
<polyline points="120.0,455.5 168.6,348.4 217.1,384.7 265.7,486.4" fill="none" stroke="#2867b5" stroke-width="1.3" stroke-opacity="0.15" stroke-linejoin="round" stroke-linecap="round"/>
<polyline points="120.0,530.0 168.6,530.0 217.1,530.0 265.7,530.0" fill="none" stroke="#2867b5" stroke-width="1.3" stroke-opacity="0.15" stroke-linejoin="round" stroke-linecap="round"/>
<polyline points="120.0,342.6 168.6,294.0 217.1,348.4 265.7,327.4 314.3,427.0 362.9,445.6 411.4,486.4 460.0,474.1" fill="none" stroke="#2867b5" stroke-width="1.3" stroke-opacity="0.15" stroke-linejoin="round" stroke-linecap="round"/>
<polyline points="120.0,317.1 168.6,264.0 217.1,309.7 265.7,289.0 314.3,267.6 362.9,268.5 411.4,298.5 460.0,530.0" fill="none" stroke="#2867b5" stroke-width="1.3" stroke-opacity="0.15" stroke-linejoin="round" stroke-linecap="round"/>
<polyline points="120.0,342.6 168.6,337.6 217.1,369.6 265.7,408.3 314.3,442.8 362.9,440.7 411.4,469.2 460.0,450.5" fill="none" stroke="#2867b5" stroke-width="1.3" stroke-opacity="0.15" stroke-linejoin="round" stroke-linecap="round"/>
<polyline points="120.0,317.1 168.6,290.5 217.1,266.1 265.7,262.6 314.3,354.8 362.9,487.8 411.4,389.7 460.0,474.1" fill="none" stroke="#2867b5" stroke-width="1.3" stroke-opacity="0.15" stroke-linejoin="round" stroke-linecap="round"/>
<polyline points="120.0,342.6 168.6,307.7 217.1,363.3 265.7,464.2 314.3,413.2 362.9,311.2 411.4,334.8 460.0,334.8" fill="none" stroke="#2867b5" stroke-width="1.3" stroke-opacity="0.15" stroke-linejoin="round" stroke-linecap="round"/>
<polyline points="120.0,317.1 168.6,322.0 217.1,276.3 265.7,273.9 314.3,278.8 362.9,263.6 411.4,247.0 460.0,259.8" fill="none" stroke="#2867b5" stroke-width="1.3" stroke-opacity="0.15" stroke-linejoin="round" stroke-linecap="round"/>
<polyline points="120.0,342.6 168.6,332.4 217.1,425.5 265.7,431.9 314.3,530.0 362.9,530.0 411.4,530.0 460.0,530.0" fill="none" stroke="#2867b5" stroke-width="1.3" stroke-opacity="0.15" stroke-linejoin="round" stroke-linecap="round"/>
<polyline points="120.0,317.1 168.6,298.5 217.1,345.0 265.7,311.2 314.3,333.3 362.9,298.9 411.4,289.0 460.0,298.9" fill="none" stroke="#2867b5" stroke-width="1.3" stroke-opacity="0.15" stroke-linejoin="round" stroke-linecap="round"/>
<polyline points="120.0,331.2 168.6,336.2 217.1,376.0 265.7,388.3 314.3,294.9 362.9,254.2 411.4,284.1 460.0,299.9" fill="none" stroke="#2867b5" stroke-width="1.3" stroke-opacity="0.15" stroke-linejoin="round" stroke-linecap="round"/>
<polyline points="120.0,271.4 168.6,262.6 217.1,282.7 265.7,366.1" fill="none" stroke="#2867b5" stroke-width="1.3" stroke-opacity="0.15" stroke-linejoin="round" stroke-linecap="round"/>
<polyline points="120.0,271.4 168.6,279.8 217.1,274.9 265.7,279.8" fill="none" stroke="#2867b5" stroke-width="1.3" stroke-opacity="0.15" stroke-linejoin="round" stroke-linecap="round"/>
<polyline points="120.0,271.4 168.6,247.8 217.1,291.1 265.7,254.8" fill="none" stroke="#2867b5" stroke-width="1.3" stroke-opacity="0.15" stroke-linejoin="round" stroke-linecap="round"/>
<polyline points="120.0,271.4 168.6,247.8 217.1,318.5 265.7,244.9" fill="none" stroke="#2867b5" stroke-width="1.3" stroke-opacity="0.15" stroke-linejoin="round" stroke-linecap="round"/>
<polyline points="120.0,246.4 168.6,281.2 217.1,248.5 265.7,292.5" fill="none" stroke="#2867b5" stroke-width="1.3" stroke-opacity="0.15" stroke-linejoin="round" stroke-linecap="round"/>
<polyline points="120.0,246.4 168.6,244.9 217.1,247.8 265.7,279.2" fill="none" stroke="#2867b5" stroke-width="1.3" stroke-opacity="0.15" stroke-linejoin="round" stroke-linecap="round"/>
<polyline points="120.0,246.4 168.6,286.2 217.1,282.7 265.7,306.3" fill="none" stroke="#2867b5" stroke-width="1.3" stroke-opacity="0.15" stroke-linejoin="round" stroke-linecap="round"/>
<polyline points="120.0,246.4 168.6,257.7 217.1,250.6 265.7,257.7" fill="none" stroke="#2867b5" stroke-width="1.3" stroke-opacity="0.15" stroke-linejoin="round" stroke-linecap="round"/>
<polyline points="120.0,272.0 168.6,316.1 217.1,371.1 265.7,376.0" fill="none" stroke="#2867b5" stroke-width="1.3" stroke-opacity="0.15" stroke-linejoin="round" stroke-linecap="round"/>
<polyline points="120.0,272.0 168.6,329.8 217.1,257.7 265.7,301.3" fill="none" stroke="#2867b5" stroke-width="1.3" stroke-opacity="0.15" stroke-linejoin="round" stroke-linecap="round"/>
<polyline points="120.0,272.0 168.6,289.7 217.1,259.1 265.7,266.1" fill="none" stroke="#2867b5" stroke-width="1.3" stroke-opacity="0.15" stroke-linejoin="round" stroke-linecap="round"/>
<polyline points="120.0,272.0 168.6,301.3 217.1,292.5 265.7,336.2" fill="none" stroke="#2867b5" stroke-width="1.3" stroke-opacity="0.15" stroke-linejoin="round" stroke-linecap="round"/>
<polyline points="120.0,249.9 168.6,256.2 217.1,262.6 265.7,279.8" fill="none" stroke="#2867b5" stroke-width="1.3" stroke-opacity="0.15" stroke-linejoin="round" stroke-linecap="round"/>
<polyline points="120.0,249.9 168.6,251.3 217.1,286.2 265.7,249.9" fill="none" stroke="#2867b5" stroke-width="1.3" stroke-opacity="0.15" stroke-linejoin="round" stroke-linecap="round"/>
<polyline points="120.0,249.9 168.6,257.7 217.1,271.8 265.7,270.0" fill="none" stroke="#2867b5" stroke-width="1.3" stroke-opacity="0.15" stroke-linejoin="round" stroke-linecap="round"/>
<polyline points="120.0,249.9 168.6,272.8 217.1,273.9 265.7,301.3" fill="none" stroke="#2867b5" stroke-width="1.3" stroke-opacity="0.15" stroke-linejoin="round" stroke-linecap="round"/>
<polyline points="120.0,306.0 120.0,303.1 168.6,431.7 168.6,398.1" fill="none" stroke="#2867b5" stroke-width="1.3" stroke-opacity="0.15" stroke-linejoin="round" stroke-linecap="round"/>
<polyline points="120.0,271.3 120.0,267.5 168.6,421.4 168.6,347.4" fill="none" stroke="#2867b5" stroke-width="1.3" stroke-opacity="0.15" stroke-linejoin="round" stroke-linecap="round"/>
<polyline points="120.0,292.8 120.0,286.9 168.6,477.7 168.6,421.1" fill="none" stroke="#2867b5" stroke-width="1.3" stroke-opacity="0.15" stroke-linejoin="round" stroke-linecap="round"/>
<polyline points="120.0,310.9 120.0,309.4 168.6,432.7 168.6,370.2" fill="none" stroke="#2867b5" stroke-width="1.3" stroke-opacity="0.15" stroke-linejoin="round" stroke-linecap="round"/>
<polyline points="120.0,445.0 168.6,450.8 217.1,479.8 265.7,480.0" fill="none" stroke="#2867b5" stroke-width="1.3" stroke-opacity="0.15" stroke-linejoin="round" stroke-linecap="round"/>
<polyline points="120.0,396.4 168.6,449.9 217.1,492.7 265.7,482.8" fill="none" stroke="#2867b5" stroke-width="1.3" stroke-opacity="0.15" stroke-linejoin="round" stroke-linecap="round"/>
<polyline points="120.0,435.9 168.6,479.1 217.1,530.0 265.7,530.0" fill="none" stroke="#2867b5" stroke-width="1.3" stroke-opacity="0.15" stroke-linejoin="round" stroke-linecap="round"/>
<polyline points="120.0,445.0 168.6,492.7 217.1,530.0 265.7,523.0" fill="none" stroke="#2867b5" stroke-width="1.3" stroke-opacity="0.15" stroke-linejoin="round" stroke-linecap="round"/>
<polyline points="120.0,396.4 168.6,445.7 217.1,492.8 265.7,530.0" fill="none" stroke="#2867b5" stroke-width="1.3" stroke-opacity="0.15" stroke-linejoin="round" stroke-linecap="round"/>
<polyline points="120.0,530.0 168.6,530.0 217.1,530.0 265.7,530.0" fill="none" stroke="#2867b5" stroke-width="1.3" stroke-opacity="0.15" stroke-linejoin="round" stroke-linecap="round"/>
<polyline points="120.0,530.0 168.6,530.0 217.1,530.0 265.7,530.0" fill="none" stroke="#2867b5" stroke-width="1.3" stroke-opacity="0.15" stroke-linejoin="round" stroke-linecap="round"/>
<polyline points="120.0,352.5 168.6,346.7 217.1,362.9 265.7,376.0 314.3,355.5 362.9,356.3 411.4,364.7 460.0,392.6" fill="none" stroke="#2867b5" stroke-width="4.5" stroke-opacity="1.0" stroke-linejoin="round" stroke-linecap="round"/>
<circle cx="120.0" cy="352.5" r="5" fill="#2867b5"/>
<circle cx="168.6" cy="346.7" r="5" fill="#2867b5"/>
<circle cx="217.1" cy="362.9" r="5" fill="#2867b5"/>
<circle cx="265.7" cy="376.0" r="5" fill="#2867b5"/>
<circle cx="314.3" cy="355.5" r="5" fill="#2867b5"/>
<circle cx="362.9" cy="356.3" r="5" fill="#2867b5"/>
<circle cx="411.4" cy="364.7" r="5" fill="#2867b5"/>
<circle cx="460.0" cy="392.6" r="5" fill="#2867b5"/>
<polyline points="120.0,312.4 168.6,356.8 217.1,350.3 265.7,359.5" fill="none" stroke="#2867b5" stroke-width="4.5" stroke-opacity="1.0" stroke-linejoin="round" stroke-linecap="round" stroke-dasharray="10 7"/>
<circle cx="120.0" cy="312.4" r="5" fill="#2867b5"/>
<circle cx="168.6" cy="356.8" r="5" fill="#2867b5"/>
<circle cx="217.1" cy="350.3" r="5" fill="#2867b5"/>
<circle cx="265.7" cy="359.5" r="5" fill="#2867b5"/>
<text x="126.0" y="376.5" text-anchor="start" font-size="16" font-weight="bold" fill="#2867b5" font-family="Helvetica, Arial, sans-serif">0.30</text>
<text x="126.0" y="300.4" text-anchor="start" font-size="16" font-weight="bold" fill="#2867b5" font-family="Helvetica, Arial, sans-serif">0.36</text>
<text x="472.0" y="397.6" text-anchor="start" font-size="16" font-weight="bold" fill="#2867b5" font-family="Helvetica, Arial, sans-serif">0.23</text>
<text x="267.7" y="345.5" text-anchor="middle" font-size="16" font-weight="bold" fill="#2867b5" font-family="Helvetica, Arial, sans-serif">0.28</text>
<text x="745.0" y="168" text-anchor="middle" font-size="21" font-weight="bold" fill="#3a7d44" font-family="Helvetica, Arial, sans-serif">Base-mixed pool</text>
<text x="745.0" y="196" text-anchor="middle" font-size="17" fill="#1a1a1a" font-family="Helvetica, Arial, sans-serif">an outside supplier refills it</text>
<line x1="575" y1="530.0" x2="915" y2="530.0" stroke="#dddddd" stroke-width="1"/>
<line x1="575" y1="470.0" x2="915" y2="470.0" stroke="#dddddd" stroke-width="1"/>
<line x1="575" y1="410.0" x2="915" y2="410.0" stroke="#dddddd" stroke-width="1"/>
<line x1="575" y1="350.0" x2="915" y2="350.0" stroke="#dddddd" stroke-width="1"/>
<line x1="575" y1="290.0" x2="915" y2="290.0" stroke="#dddddd" stroke-width="1"/>
<line x1="575" y1="230.0" x2="915" y2="230.0" stroke="#dddddd" stroke-width="1"/>
<line x1="575" y1="230" x2="575" y2="530" stroke="#6b7684" stroke-width="1.5"/>
<line x1="575" y1="530" x2="915" y2="530" stroke="#6b7684" stroke-width="1.5"/>
<line x1="575.0" y1="530" x2="575.0" y2="536" stroke="#6b7684" stroke-width="1.5"/>
<text x="575.0" y="554" text-anchor="middle" font-size="15" fill="#6b7684" font-family="Helvetica, Arial, sans-serif">1</text>
<line x1="623.6" y1="530" x2="623.6" y2="536" stroke="#6b7684" stroke-width="1.5"/>
<text x="623.6" y="554" text-anchor="middle" font-size="15" fill="#6b7684" font-family="Helvetica, Arial, sans-serif">2</text>
<line x1="672.1" y1="530" x2="672.1" y2="536" stroke="#6b7684" stroke-width="1.5"/>
<text x="672.1" y="554" text-anchor="middle" font-size="15" fill="#6b7684" font-family="Helvetica, Arial, sans-serif">3</text>
<line x1="720.7" y1="530" x2="720.7" y2="536" stroke="#6b7684" stroke-width="1.5"/>
<text x="720.7" y="554" text-anchor="middle" font-size="15" fill="#6b7684" font-family="Helvetica, Arial, sans-serif">4</text>
<line x1="769.3" y1="530" x2="769.3" y2="536" stroke="#6b7684" stroke-width="1.5"/>
<text x="769.3" y="554" text-anchor="middle" font-size="15" fill="#6b7684" font-family="Helvetica, Arial, sans-serif">5</text>
<line x1="817.9" y1="530" x2="817.9" y2="536" stroke="#6b7684" stroke-width="1.5"/>
<text x="817.9" y="554" text-anchor="middle" font-size="15" fill="#6b7684" font-family="Helvetica, Arial, sans-serif">6</text>
<line x1="866.4" y1="530" x2="866.4" y2="536" stroke="#6b7684" stroke-width="1.5"/>
<text x="866.4" y="554" text-anchor="middle" font-size="15" fill="#6b7684" font-family="Helvetica, Arial, sans-serif">7</text>
<line x1="915.0" y1="530" x2="915.0" y2="536" stroke="#6b7684" stroke-width="1.5"/>
<text x="915.0" y="554" text-anchor="middle" font-size="15" fill="#6b7684" font-family="Helvetica, Arial, sans-serif">8</text>
<text x="745.0" y="580" text-anchor="middle" font-size="18" fill="#1a1a1a" font-family="Helvetica, Arial, sans-serif">round</text>
<polyline points="575.0,385.7 623.6,287.6 672.1,314.1 720.7,324.9" fill="none" stroke="#3a7d44" stroke-width="1.3" stroke-opacity="0.15" stroke-linejoin="round" stroke-linecap="round"/>
<polyline points="575.0,291.1 623.6,346.0 672.1,307.3 720.7,386.8" fill="none" stroke="#3a7d44" stroke-width="1.3" stroke-opacity="0.15" stroke-linejoin="round" stroke-linecap="round"/>
<polyline points="575.0,311.2 623.6,265.5 672.1,287.6 720.7,289.0" fill="none" stroke="#3a7d44" stroke-width="1.3" stroke-opacity="0.15" stroke-linejoin="round" stroke-linecap="round"/>
<polyline points="575.0,363.3 623.6,339.7 672.1,282.7 720.7,320.4" fill="none" stroke="#3a7d44" stroke-width="1.3" stroke-opacity="0.15" stroke-linejoin="round" stroke-linecap="round"/>
<polyline points="575.0,328.9 623.6,316.1 672.1,266.1 720.7,292.5" fill="none" stroke="#3a7d44" stroke-width="1.3" stroke-opacity="0.15" stroke-linejoin="round" stroke-linecap="round"/>
<polyline points="575.0,352.4 623.6,309.7 672.1,299.9 720.7,299.0" fill="none" stroke="#3a7d44" stroke-width="1.3" stroke-opacity="0.15" stroke-linejoin="round" stroke-linecap="round"/>
<polyline points="575.0,264.6 623.6,272.5 672.1,317.5 720.7,278.8" fill="none" stroke="#3a7d44" stroke-width="1.3" stroke-opacity="0.15" stroke-linejoin="round" stroke-linecap="round"/>
<polyline points="575.0,256.2 623.6,273.4 672.1,254.2 720.7,304.8" fill="none" stroke="#3a7d44" stroke-width="1.3" stroke-opacity="0.15" stroke-linejoin="round" stroke-linecap="round"/>
<polyline points="575.0,287.6 623.6,255.6 672.1,298.9 720.7,279.8" fill="none" stroke="#3a7d44" stroke-width="1.3" stroke-opacity="0.15" stroke-linejoin="round" stroke-linecap="round"/>
<polyline points="575.0,299.9 623.6,246.4 672.1,284.8 720.7,270.0" fill="none" stroke="#3a7d44" stroke-width="1.3" stroke-opacity="0.15" stroke-linejoin="round" stroke-linecap="round"/>
<polyline points="575.0,290.5 623.6,326.3 672.1,270.0 720.7,292.5" fill="none" stroke="#3a7d44" stroke-width="1.3" stroke-opacity="0.15" stroke-linejoin="round" stroke-linecap="round"/>
<polyline points="575.0,383.3 623.6,297.0 672.1,290.5 720.7,296.1" fill="none" stroke="#3a7d44" stroke-width="1.3" stroke-opacity="0.15" stroke-linejoin="round" stroke-linecap="round"/>
<polyline points="575.0,342.1 623.6,486.3 672.1,484.9 720.7,488.4" fill="none" stroke="#3a7d44" stroke-width="1.3" stroke-opacity="0.15" stroke-linejoin="round" stroke-linecap="round"/>
<polyline points="575.0,347.4 623.6,480.3 672.1,482.9 720.7,454.5" fill="none" stroke="#3a7d44" stroke-width="1.3" stroke-opacity="0.15" stroke-linejoin="round" stroke-linecap="round"/>
<polyline points="575.0,338.1 623.6,404.3 672.1,480.1 720.7,444.9" fill="none" stroke="#3a7d44" stroke-width="1.3" stroke-opacity="0.15" stroke-linejoin="round" stroke-linecap="round"/>
<polyline points="575.0,320.2 623.6,406.0 672.1,440.4 720.7,488.2" fill="none" stroke="#3a7d44" stroke-width="1.3" stroke-opacity="0.15" stroke-linejoin="round" stroke-linecap="round"/>
<polyline points="575.0,317.9 623.6,294.7 672.1,289.5 720.7,302.9" fill="none" stroke="#3a7d44" stroke-width="4.5" stroke-opacity="1.0" stroke-linejoin="round" stroke-linecap="round"/>
<circle cx="575.0" cy="317.9" r="5" fill="#3a7d44"/>
<circle cx="623.6" cy="294.7" r="5" fill="#3a7d44"/>
<circle cx="672.1" cy="289.5" r="5" fill="#3a7d44"/>
<circle cx="720.7" cy="302.9" r="5" fill="#3a7d44"/>
<polyline points="575.0,337.0 623.6,444.2 672.1,472.1 720.7,469.0" fill="none" stroke="#3a7d44" stroke-width="4.5" stroke-opacity="1.0" stroke-linejoin="round" stroke-linecap="round" stroke-dasharray="10 7"/>
<circle cx="575.0" cy="337.0" r="5" fill="#3a7d44"/>
<circle cx="623.6" cy="444.2" r="5" fill="#3a7d44"/>
<circle cx="672.1" cy="472.1" r="5" fill="#3a7d44"/>
<circle cx="720.7" cy="469.0" r="5" fill="#3a7d44"/>
<text x="565.0" y="317.9" text-anchor="end" font-size="16" font-weight="bold" fill="#3a7d44" font-family="Helvetica, Arial, sans-serif">0.35</text>
<text x="565.0" y="359.0" text-anchor="end" font-size="16" font-weight="bold" fill="#3a7d44" font-family="Helvetica, Arial, sans-serif">0.32</text>
<text x="732.7" y="307.9" text-anchor="start" font-size="16" font-weight="bold" fill="#3a7d44" font-family="Helvetica, Arial, sans-serif">0.38</text>
<text x="732.7" y="474.0" text-anchor="start" font-size="16" font-weight="bold" fill="#3a7d44" font-family="Helvetica, Arial, sans-serif">0.10</text>
<text x="1200.0" y="168" text-anchor="middle" font-size="21" font-weight="bold" fill="#b5342c" font-family="Helvetica, Arial, sans-serif">Peer-mixed pool</text>
<text x="1200.0" y="196" text-anchor="middle" font-size="17" fill="#1a1a1a" font-family="Helvetica, Arial, sans-serif">an extreme invader consumes it</text>
<line x1="1030" y1="530.0" x2="1370" y2="530.0" stroke="#dddddd" stroke-width="1"/>
<line x1="1030" y1="470.0" x2="1370" y2="470.0" stroke="#dddddd" stroke-width="1"/>
<line x1="1030" y1="410.0" x2="1370" y2="410.0" stroke="#dddddd" stroke-width="1"/>
<line x1="1030" y1="350.0" x2="1370" y2="350.0" stroke="#dddddd" stroke-width="1"/>
<line x1="1030" y1="290.0" x2="1370" y2="290.0" stroke="#dddddd" stroke-width="1"/>
<line x1="1030" y1="230.0" x2="1370" y2="230.0" stroke="#dddddd" stroke-width="1"/>
<line x1="1030" y1="230" x2="1030" y2="530" stroke="#6b7684" stroke-width="1.5"/>
<line x1="1030" y1="530" x2="1370" y2="530" stroke="#6b7684" stroke-width="1.5"/>
<line x1="1030.0" y1="530" x2="1030.0" y2="536" stroke="#6b7684" stroke-width="1.5"/>
<text x="1030.0" y="554" text-anchor="middle" font-size="15" fill="#6b7684" font-family="Helvetica, Arial, sans-serif">1</text>
<line x1="1078.6" y1="530" x2="1078.6" y2="536" stroke="#6b7684" stroke-width="1.5"/>
<text x="1078.6" y="554" text-anchor="middle" font-size="15" fill="#6b7684" font-family="Helvetica, Arial, sans-serif">2</text>
<line x1="1127.1" y1="530" x2="1127.1" y2="536" stroke="#6b7684" stroke-width="1.5"/>
<text x="1127.1" y="554" text-anchor="middle" font-size="15" fill="#6b7684" font-family="Helvetica, Arial, sans-serif">3</text>
<line x1="1175.7" y1="530" x2="1175.7" y2="536" stroke="#6b7684" stroke-width="1.5"/>
<text x="1175.7" y="554" text-anchor="middle" font-size="15" fill="#6b7684" font-family="Helvetica, Arial, sans-serif">4</text>
<line x1="1224.3" y1="530" x2="1224.3" y2="536" stroke="#6b7684" stroke-width="1.5"/>
<text x="1224.3" y="554" text-anchor="middle" font-size="15" fill="#6b7684" font-family="Helvetica, Arial, sans-serif">5</text>
<line x1="1272.9" y1="530" x2="1272.9" y2="536" stroke="#6b7684" stroke-width="1.5"/>
<text x="1272.9" y="554" text-anchor="middle" font-size="15" fill="#6b7684" font-family="Helvetica, Arial, sans-serif">6</text>
<line x1="1321.4" y1="530" x2="1321.4" y2="536" stroke="#6b7684" stroke-width="1.5"/>
<text x="1321.4" y="554" text-anchor="middle" font-size="15" fill="#6b7684" font-family="Helvetica, Arial, sans-serif">7</text>
<line x1="1370.0" y1="530" x2="1370.0" y2="536" stroke="#6b7684" stroke-width="1.5"/>
<text x="1370.0" y="554" text-anchor="middle" font-size="15" fill="#6b7684" font-family="Helvetica, Arial, sans-serif">8</text>
<text x="1200.0" y="580" text-anchor="middle" font-size="18" fill="#1a1a1a" font-family="Helvetica, Arial, sans-serif">round</text>
<polyline points="1030.0,276.3 1078.6,339.7 1127.1,445.6 1175.7,427.0" fill="none" stroke="#b5342c" stroke-width="1.3" stroke-opacity="0.15" stroke-linejoin="round" stroke-linecap="round"/>
<polyline points="1030.0,259.8 1078.6,333.8 1127.1,431.9 1175.7,469.2" fill="none" stroke="#b5342c" stroke-width="1.3" stroke-opacity="0.15" stroke-linejoin="round" stroke-linecap="round"/>
<polyline points="1030.0,272.0 1078.6,389.7 1127.1,511.3 1175.7,530.0" fill="none" stroke="#b5342c" stroke-width="1.3" stroke-opacity="0.15" stroke-linejoin="round" stroke-linecap="round"/>
<polyline points="1030.0,276.3 1078.6,322.5 1127.1,455.5 1175.7,530.0" fill="none" stroke="#b5342c" stroke-width="1.3" stroke-opacity="0.15" stroke-linejoin="round" stroke-linecap="round"/>
<polyline points="1030.0,249.9 1078.6,530.0 1127.1,530.0 1175.7,530.0" fill="none" stroke="#b5342c" stroke-width="1.3" stroke-opacity="0.15" stroke-linejoin="round" stroke-linecap="round"/>
<polyline points="1030.0,284.8 1078.6,530.0 1127.1,530.0 1175.7,530.0" fill="none" stroke="#b5342c" stroke-width="1.3" stroke-opacity="0.15" stroke-linejoin="round" stroke-linecap="round"/>
<polyline points="1030.0,273.4 1078.6,474.1 1127.1,530.0 1175.7,530.0" fill="none" stroke="#b5342c" stroke-width="1.3" stroke-opacity="0.15" stroke-linejoin="round" stroke-linecap="round"/>
<polyline points="1030.0,281.2 1078.6,530.0 1127.1,530.0 1175.7,530.0" fill="none" stroke="#b5342c" stroke-width="1.3" stroke-opacity="0.15" stroke-linejoin="round" stroke-linecap="round"/>
<polyline points="1030.0,271.7 1078.6,431.2 1127.1,495.5 1175.7,509.5" fill="none" stroke="#b5342c" stroke-width="4.5" stroke-opacity="1.0" stroke-linejoin="round" stroke-linecap="round"/>
<circle cx="1030.0" cy="271.7" r="5" fill="#b5342c"/>
<circle cx="1078.6" cy="431.2" r="5" fill="#b5342c"/>
<circle cx="1127.1" cy="495.5" r="5" fill="#b5342c"/>
<circle cx="1175.7" cy="509.5" r="5" fill="#b5342c"/>
<text x="1020.0" y="271.7" text-anchor="end" font-size="16" font-weight="bold" fill="#b5342c" font-family="Helvetica, Arial, sans-serif">0.43</text>
<text x="1187.7" y="501.5" text-anchor="start" font-size="16" font-weight="bold" fill="#b5342c" font-family="Helvetica, Arial, sans-serif">0.03</text>
</svg>