<svg xmlns="http://www.w3.org/2000/svg" viewBox="0 0 1240 772" preserveAspectRatio="xMidYMid meet" font-family="Helvetica, Arial, sans-serif">
<rect width="1240" height="772" fill="white"/>
<defs><marker id="arrI" viewBox="0 0 10 10" refX="9.4" refY="5" markerUnits="userSpaceOnUse" markerWidth="17" markerHeight="17" orient="auto-start-reverse"><path d="M 0 0 L 10 5 L 0 10 z" fill="#1a1a1a"/></marker><marker id="arrB" viewBox="0 0 10 10" refX="9.4" refY="5" markerUnits="userSpaceOnUse" markerWidth="17" markerHeight="17" orient="auto-start-reverse"><path d="M 0 0 L 10 5 L 0 10 z" fill="#2867b5"/></marker><marker id="arrG" viewBox="0 0 10 10" refX="9.4" refY="5" markerUnits="userSpaceOnUse" markerWidth="17" markerHeight="17" orient="auto-start-reverse"><path d="M 0 0 L 10 5 L 0 10 z" fill="#6b7684"/></marker><marker id="arrR" viewBox="0 0 10 10" refX="9.4" refY="5" markerUnits="userSpaceOnUse" markerWidth="17" markerHeight="17" orient="auto-start-reverse"><path d="M 0 0 L 10 5 L 0 10 z" fill="#b5342c"/></marker><marker id="arrIs" viewBox="0 0 10 10" refX="9.4" refY="5" markerUnits="userSpaceOnUse" markerWidth="10" markerHeight="10" orient="auto-start-reverse"><path d="M 0 0 L 10 5 L 0 10 z" fill="#1a1a1a"/></marker><marker id="arrBs" viewBox="0 0 10 10" refX="9.4" refY="5" markerUnits="userSpaceOnUse" markerWidth="10" markerHeight="10" orient="auto-start-reverse"><path d="M 0 0 L 10 5 L 0 10 z" fill="#2867b5"/></marker><marker id="arrGs" viewBox="0 0 10 10" refX="9.4" refY="5" markerUnits="userSpaceOnUse" markerWidth="10" markerHeight="10" orient="auto-start-reverse"><path d="M 0 0 L 10 5 L 0 10 z" fill="#6b7684"/></marker></defs>
<text x="48.0" y="38.0" font-size="30" fill="#1a1a1a" font-weight="bold" font-style="normal" text-anchor="start" font-family="Helvetica, Arial, sans-serif">The breeder's equation, term by term: two measured, one assumed</text>
<text x="48.0" y="77.8" font-size="18" fill="#6b7684" font-weight="normal" font-style="normal" text-anchor="start" font-family="Helvetica, Arial, sans-serif">Borrowed equations, not borrowed biology: the same accounting of means applies.</text>
<line x1="48.0" y1="111.4" x2="1192.0" y2="111.4" stroke="#6b7684" stroke-width="1.5" opacity="0.45"/>
<text x="48.0" y="139.4" font-size="21" fill="#1a1a1a" font-weight="bold" font-style="normal" text-anchor="start" font-family="Helvetica, Arial, sans-serif">In selection theory</text>
<text x="259.6" y="139.4" font-size="21" fill="#6b7684" font-weight="bold" font-style="normal" text-anchor="start" font-family="Helvetica, Arial, sans-serif"><tspan font-style="italic">R</tspan> = <tspan font-style="italic">h</tspan>² × <tspan font-style="italic">S</tspan></text>
<text x="647.0" y="139.4" font-size="21" fill="#2867b5" font-weight="bold" font-style="normal" text-anchor="start" font-family="Helvetica, Arial, sans-serif">In this judging loop</text>
<text x="48.0" y="173.4" font-size="21" fill="#1a1a1a" font-weight="bold" font-style="normal" text-anchor="start" font-family="Helvetica, Arial, sans-serif">Selection differential <tspan font-style="italic">S</tspan></text>
<line x1="68.0" y1="297.4" x2="68.0" y2="189.4" stroke="#6b7684" stroke-width="2" opacity="0.75"/>
<path d="M 63 189.36 L 73 189.36 L 68 179.36 z" fill="#6b7684" opacity="0.75"/>
<line x1="68.0" y1="250.7" x2="416.0" y2="250.7" stroke="#6b7684" stroke-width="2.4" stroke-dasharray="9 6" opacity="1.0"/>
<line x1="68.0" y1="213.4" x2="416.0" y2="213.4" stroke="#1a1a1a" stroke-width="3" opacity="1.0"/>
<rect x="105.0" y="276.4" width="14" height="14" rx="2" fill="white" stroke="#1a1a1a" stroke-width="2.2"/>
<rect x="105.0" y="192.4" width="14" height="14" rx="2" fill="#1a1a1a" stroke="#1a1a1a" stroke-width="3.0"/>
<rect x="161.0" y="282.4" width="14" height="14" rx="2" fill="white" stroke="#1a1a1a" stroke-width="2.2"/>
<rect x="161.0" y="226.4" width="14" height="14" rx="2" fill="white" stroke="#1a1a1a" stroke-width="2.2"/>
<rect x="217.0" y="220.4" width="14" height="14" rx="2" fill="#1a1a1a" stroke="#1a1a1a" stroke-width="3.0"/>
<rect x="217.0" y="264.4" width="14" height="14" rx="2" fill="white" stroke="#1a1a1a" stroke-width="2.2"/>
<text x="264.0" y="271.7" font-size="18" fill="#6b7684" font-weight="normal" font-style="normal" text-anchor="start" font-family="Helvetica, Arial, sans-serif">population</text>
<text x="264.0" y="204.4" font-size="18" fill="#1a1a1a" font-weight="bold" font-style="normal" text-anchor="start" font-family="Helvetica, Arial, sans-serif">selected</text>
<line x1="444.0" y1="250.7" x2="460.0" y2="250.7" stroke="#1a1a1a" stroke-width="2.4" opacity="1.0"/>
<line x1="444.0" y1="213.4" x2="460.0" y2="213.4" stroke="#1a1a1a" stroke-width="2.4" opacity="1.0"/>
<line x1="452.0" y1="232.0" x2="452.0" y2="214.4" stroke="#1a1a1a" stroke-width="3.0" marker-end="url(#arrIs)"/>
<line x1="452.0" y1="232.0" x2="452.0" y2="249.7" stroke="#1a1a1a" stroke-width="3.0" marker-end="url(#arrIs)"/>
<text x="470.0" y="239.0" font-size="21" fill="#1a1a1a" font-weight="bold" font-style="normal" text-anchor="start" font-family="Helvetica, Arial, sans-serif"><tspan font-style="italic">S</tspan></text>
<text x="647.0" y="173.4" font-size="21" fill="#2867b5" font-weight="bold" font-style="normal" text-anchor="start" font-family="Helvetica, Arial, sans-serif">The selector gap</text>
<line x1="667.0" y1="297.4" x2="667.0" y2="189.4" stroke="#6b7684" stroke-width="2" opacity="0.75"/>
<path d="M 662 189.36 L 672 189.36 L 667 179.36 z" fill="#6b7684" opacity="0.75"/>
<line x1="667.0" y1="250.7" x2="1015.0" y2="250.7" stroke="#6b7684" stroke-width="2.4" stroke-dasharray="9 6" opacity="1.0"/>
<line x1="667.0" y1="213.4" x2="1015.0" y2="213.4" stroke="#2867b5" stroke-width="3" opacity="1.0"/>
<rect x="704.0" y="276.4" width="14" height="14" rx="2" fill="white" stroke="#2867b5" stroke-width="2.2"/>
<rect x="704.0" y="192.4" width="14" height="14" rx="2" fill="#2867b5" stroke="#2867b5" stroke-width="3.0"/>
<rect x="760.0" y="282.4" width="14" height="14" rx="2" fill="white" stroke="#2867b5" stroke-width="2.2"/>
<rect x="760.0" y="226.4" width="14" height="14" rx="2" fill="white" stroke="#2867b5" stroke-width="2.2"/>
<rect x="816.0" y="220.4" width="14" height="14" rx="2" fill="#2867b5" stroke="#2867b5" stroke-width="3.0"/>
<rect x="816.0" y="264.4" width="14" height="14" rx="2" fill="white" stroke="#2867b5" stroke-width="2.2"/>
<text x="863.0" y="271.7" font-size="18" fill="#6b7684" font-weight="normal" font-style="normal" text-anchor="start" font-family="Helvetica, Arial, sans-serif">all six</text>
<text x="863.0" y="204.4" font-size="18" fill="#2867b5" font-weight="bold" font-style="normal" text-anchor="start" font-family="Helvetica, Arial, sans-serif">two kept</text>
<line x1="1043.0" y1="250.7" x2="1059.0" y2="250.7" stroke="#2867b5" stroke-width="2.4" opacity="1.0"/>
<line x1="1043.0" y1="213.4" x2="1059.0" y2="213.4" stroke="#2867b5" stroke-width="2.4" opacity="1.0"/>
<line x1="1051.0" y1="232.0" x2="1051.0" y2="214.4" stroke="#2867b5" stroke-width="3.0" marker-end="url(#arrBs)"/>
<line x1="1051.0" y1="232.0" x2="1051.0" y2="249.7" stroke="#2867b5" stroke-width="3.0" marker-end="url(#arrBs)"/>
<text x="1069.0" y="239.0" font-size="21" fill="#2867b5" font-weight="bold" font-style="normal" text-anchor="start" font-family="Helvetica, Arial, sans-serif">gap</text>
<text x="48.0" y="329.4" font-size="21" fill="#1a1a1a" font-weight="bold" font-style="normal" text-anchor="start" font-family="Helvetica, Arial, sans-serif">Heritability <tspan font-style="italic">h</tspan>²</text>
<rect x="89.0" y="370.4" width="14" height="14" rx="2" fill="#1a1a1a" stroke="#1a1a1a" stroke-width="3.0"/>
<rect x="89.0" y="398.4" width="14" height="14" rx="2" fill="#1a1a1a" stroke="#1a1a1a" stroke-width="3.0"/>
<line x1="130.0" y1="391.4" x2="268.0" y2="391.4" stroke="#1a1a1a" stroke-width="5" stroke-dasharray="11 8" marker-end="url(#arrI)"/>
<text x="182.0" y="431.4" font-size="18" fill="#6b7684" font-weight="normal" font-style="italic" text-anchor="middle" font-family="Helvetica, Arial, sans-serif"><tspan font-style="italic">h</tspan>²</text>
<rect x="288.0" y="351.4" width="198.0" height="96.0" rx="10" fill="white" stroke="#1a1a1a" stroke-width="2.5" stroke-dasharray="9 7"/>
<rect x="356.0" y="376.4" width="14" height="14" rx="2" fill="#1a1a1a" stroke="#1a1a1a" stroke-width="3.0"/>
<rect x="404.0" y="376.4" width="14" height="14" rx="2" fill="#1a1a1a" stroke="#1a1a1a" stroke-width="3.0"/>
<text x="387.0" y="425.4" font-size="18" fill="#1a1a1a" font-weight="bold" font-style="normal" text-anchor="middle" font-family="Helvetica, Arial, sans-serif">next generation</text>
<text x="647.0" y="329.4" font-size="21" fill="#2867b5" font-weight="bold" font-style="normal" text-anchor="start" font-family="Helvetica, Arial, sans-serif">Kept answers become training data</text>
<rect x="688.0" y="370.4" width="14" height="14" rx="2" fill="#2867b5" stroke="#2867b5" stroke-width="3.0"/>
<rect x="688.0" y="398.4" width="14" height="14" rx="2" fill="#2867b5" stroke="#2867b5" stroke-width="3.0"/>
<line x1="729.0" y1="391.4" x2="867.0" y2="391.4" stroke="#2867b5" stroke-width="5" stroke-dasharray="11 8" marker-end="url(#arrB)"/>
<text x="781.0" y="431.4" font-size="18" fill="#6b7684" font-weight="normal" font-style="italic" text-anchor="middle" font-family="Helvetica, Arial, sans-serif">assumed, never fitted</text>
<rect x="887.0" y="351.4" width="198.0" height="96.0" rx="10" fill="white" stroke="#2867b5" stroke-width="2.5" stroke-dasharray="9 7"/>
<rect x="955.0" y="376.4" width="14" height="14" rx="2" fill="#2867b5" stroke="#2867b5" stroke-width="3.0"/>
<rect x="1003.0" y="376.4" width="14" height="14" rx="2" fill="#2867b5" stroke="#2867b5" stroke-width="3.0"/>
<text x="986.0" y="425.4" font-size="18" fill="#2867b5" font-weight="bold" font-style="normal" text-anchor="middle" font-family="Helvetica, Arial, sans-serif">next fine-tune</text>
<text x="48.0" y="485.4" font-size="21" fill="#1a1a1a" font-weight="bold" font-style="normal" text-anchor="start" font-family="Helvetica, Arial, sans-serif">Response to selection <tspan font-style="italic">R</tspan></text>
<line x1="68.0" y1="609.4" x2="68.0" y2="501.4" stroke="#6b7684" stroke-width="2" opacity="0.75"/>
<path d="M 63 501.36 L 73 501.36 L 68 491.36 z" fill="#6b7684" opacity="0.75"/>
<line x1="68.0" y1="562.7" x2="416.0" y2="562.7" stroke="#6b7684" stroke-width="2.4" stroke-dasharray="9 6" opacity="1.0"/>
<line x1="68.0" y1="525.4" x2="416.0" y2="525.4" stroke="#1a1a1a" stroke-width="3" opacity="1.0"/>
<line x1="136.0" y1="557.7" x2="198.0" y2="531.4" stroke="#1a1a1a" stroke-width="5.5" marker-end="url(#arrI)"/>
<rect x="115.0" y="555.7" width="14" height="14" rx="2" fill="white" stroke="#1a1a1a" stroke-width="2.2"/>
<rect x="205.0" y="518.4" width="14" height="14" rx="2" fill="#1a1a1a" stroke="#1a1a1a" stroke-width="3.0"/>
<line x1="444.0" y1="562.7" x2="460.0" y2="562.7" stroke="#1a1a1a" stroke-width="2.4" opacity="1.0"/>
<line x1="444.0" y1="525.4" x2="460.0" y2="525.4" stroke="#1a1a1a" stroke-width="2.4" opacity="1.0"/>
<line x1="452.0" y1="544.0" x2="452.0" y2="526.4" stroke="#1a1a1a" stroke-width="3.0" marker-end="url(#arrIs)"/>
<line x1="452.0" y1="544.0" x2="452.0" y2="561.7" stroke="#1a1a1a" stroke-width="3.0" marker-end="url(#arrIs)"/>
<text x="470.0" y="551.0" font-size="21" fill="#1a1a1a" font-weight="bold" font-style="normal" text-anchor="start" font-family="Helvetica, Arial, sans-serif"><tspan font-style="italic">R</tspan></text>
<text x="647.0" y="485.4" font-size="21" fill="#2867b5" font-weight="bold" font-style="normal" text-anchor="start" font-family="Helvetica, Arial, sans-serif">Change in measured value</text>
<line x1="667.0" y1="609.4" x2="667.0" y2="501.4" stroke="#6b7684" stroke-width="2" opacity="0.75"/>
<path d="M 662 501.36 L 672 501.36 L 667 491.36 z" fill="#6b7684" opacity="0.75"/>
<line x1="667.0" y1="562.7" x2="1015.0" y2="562.7" stroke="#6b7684" stroke-width="2.4" stroke-dasharray="9 6" opacity="1.0"/>
<line x1="667.0" y1="525.4" x2="1015.0" y2="525.4" stroke="#2867b5" stroke-width="3" opacity="1.0"/>
<line x1="735.0" y1="557.7" x2="797.0" y2="531.4" stroke="#2867b5" stroke-width="5.5" marker-end="url(#arrB)"/>
<rect x="714.0" y="555.7" width="14" height="14" rx="2" fill="white" stroke="#2867b5" stroke-width="2.2"/>
<rect x="804.0" y="518.4" width="14" height="14" rx="2" fill="#2867b5" stroke="#2867b5" stroke-width="3.0"/>
<text x="863.0" y="583.7" font-size="18" fill="#6b7684" font-weight="normal" font-style="normal" text-anchor="start" font-family="Helvetica, Arial, sans-serif">before</text>
<text x="863.0" y="516.4" font-size="18" fill="#2867b5" font-weight="bold" font-style="normal" text-anchor="start" font-family="Helvetica, Arial, sans-serif">after</text>
<line x1="1043.0" y1="562.7" x2="1059.0" y2="562.7" stroke="#2867b5" stroke-width="2.4" opacity="1.0"/>
<line x1="1043.0" y1="525.4" x2="1059.0" y2="525.4" stroke="#2867b5" stroke-width="2.4" opacity="1.0"/>
<line x1="1051.0" y1="544.0" x2="1051.0" y2="526.4" stroke="#2867b5" stroke-width="3.0" marker-end="url(#arrBs)"/>
<line x1="1051.0" y1="544.0" x2="1051.0" y2="561.7" stroke="#2867b5" stroke-width="3.0" marker-end="url(#arrBs)"/>
<text x="1069.0" y="551.0" font-size="21" fill="#2867b5" font-weight="bold" font-style="normal" text-anchor="start" font-family="Helvetica, Arial, sans-serif">change</text>
<line x1="618.0" y1="145.4" x2="618.0" y2="617.4" stroke="#6b7684" stroke-width="1.5" opacity="0.35"/>
<rect x="48.0" y="633.4" width="558.0" height="121.0" rx="8" fill="#eef5ee" stroke="#3a7d44" stroke-width="2.5"/>
<text x="68.0" y="675.4" font-size="34" fill="#1a1a1a" font-weight="bold" font-style="normal" text-anchor="start" font-family="Helvetica, Arial, sans-serif">R² 0.80</text>
<text x="193.5" y="675.4" font-size="16" fill="#3a7d44" font-weight="bold" font-style="normal" text-anchor="start" font-family="Helvetica, Arial, sans-serif">checked, 367 rounds</text>
<text x="68.0" y="703.4" font-size="18" fill="#1a1a1a" font-weight="normal" font-style="normal" text-anchor="start" font-family="Helvetica, Arial, sans-serif">realized gap, from spread × agreement</text>
<rect x="634.0" y="633.4" width="558.0" height="121.0" rx="8" fill="#eef5ee" stroke="#3a7d44" stroke-width="2.5"/>
<text x="654.0" y="675.4" font-size="34" fill="#1a1a1a" font-weight="bold" font-style="normal" text-anchor="start" font-family="Helvetica, Arial, sans-serif">MAE 0.081</text>
<text x="838.1" y="675.4" font-size="16" fill="#3a7d44" font-weight="bold" font-style="normal" text-anchor="start" font-family="Helvetica, Arial, sans-serif">checked, 340 rounds</text>
<text x="654.0" y="703.4" font-size="18" fill="#1a1a1a" font-weight="normal" font-style="normal" text-anchor="start" font-family="Helvetica, Arial, sans-serif">kept-mean rule against the next measured value; no-change</text>
<text x="654.0" y="727.8" font-size="18" fill="#1a1a1a" font-weight="normal" font-style="normal" text-anchor="start" font-family="Helvetica, Arial, sans-serif">baseline 0.128</text>
</svg>