<svg xmlns="http://www.w3.org/2000/svg" viewBox="0 0 1320 861.2" font-family="Helvetica, Arial, sans-serif">
<rect width="1320" height="861.2" fill="white"/>
<text x="660" y="56" text-anchor="middle" font-family="Helvetica, Arial, sans-serif" font-size="32" font-weight="bold" fill="#1a1a1a">The judge decides whether the value's path is predictable</text>
<text x="660" y="94" text-anchor="middle" font-family="Helvetica, Arial, sans-serif" font-size="19" font-weight="normal" fill="#6b7684">A model trained to prefer risky gambles, run as a self-training loop for six rounds.</text>
<text x="660" y="120" text-anchor="middle" font-family="Helvetica, Arial, sans-serif" font-size="19" font-weight="normal" fill="#6b7684">Each line is one seed from the same starting band; the shaded band is the seed-to-seed spread at each round.</text>
<text x="350.0" y="180" text-anchor="middle" font-family="Helvetica, Arial, sans-serif" font-size="24" font-weight="bold" fill="#2867b5">the model judging itself</text>
<line x1="120" y1="630.0" x2="580" y2="630.0" stroke="#e4e4e0" stroke-width="1"/>
<text x="108" y="636.0" text-anchor="end" font-family="Helvetica, Arial, sans-serif" font-size="18" font-weight="normal" fill="#6b7684">0</text>
<line x1="120" y1="525.0" x2="580" y2="525.0" stroke="#e4e4e0" stroke-width="1"/>
<text x="108" y="531.0" text-anchor="end" font-family="Helvetica, Arial, sans-serif" font-size="18" font-weight="normal" fill="#6b7684">0.25</text>
<line x1="120" y1="420.0" x2="580" y2="420.0" stroke="#e4e4e0" stroke-width="1"/>
<text x="108" y="426.0" text-anchor="end" font-family="Helvetica, Arial, sans-serif" font-size="18" font-weight="normal" fill="#6b7684">0.5</text>
<line x1="120" y1="315.0" x2="580" y2="315.0" stroke="#e4e4e0" stroke-width="1"/>
<text x="108" y="321.0" text-anchor="end" font-family="Helvetica, Arial, sans-serif" font-size="18" font-weight="normal" fill="#6b7684">0.75</text>
<line x1="120" y1="210.0" x2="580" y2="210.0" stroke="#e4e4e0" stroke-width="1"/>
<text x="108" y="216.0" text-anchor="end" font-family="Helvetica, Arial, sans-serif" font-size="18" font-weight="normal" fill="#6b7684">1</text>
<text x="120.0" y="660" text-anchor="middle" font-family="Helvetica, Arial, sans-serif" font-size="18" font-weight="normal" fill="#6b7684">0</text>
<text x="212.0" y="660" text-anchor="middle" font-family="Helvetica, Arial, sans-serif" font-size="18" font-weight="normal" fill="#6b7684">1</text>
<text x="304.0" y="660" text-anchor="middle" font-family="Helvetica, Arial, sans-serif" font-size="18" font-weight="normal" fill="#6b7684">2</text>
<text x="396.0" y="660" text-anchor="middle" font-family="Helvetica, Arial, sans-serif" font-size="18" font-weight="normal" fill="#6b7684">3</text>
<text x="488.0" y="660" text-anchor="middle" font-family="Helvetica, Arial, sans-serif" font-size="18" font-weight="normal" fill="#6b7684">4</text>
<text x="580.0" y="660" text-anchor="middle" font-family="Helvetica, Arial, sans-serif" font-size="18" font-weight="normal" fill="#6b7684">5</text>
<text x="350.0" y="692" text-anchor="middle" font-family="Helvetica, Arial, sans-serif" font-size="19" font-weight="normal" fill="#1a1a1a">round</text>
<polygon points="120.0,303.3 212.0,291.7 304.0,268.3 396.0,291.7 488.0,280.0 580.0,291.7 580.0,618.3 488.0,583.3 396.0,536.7 304.0,490.0 212.0,420.0 120.0,408.3" fill="#2867b5" fill-opacity="0.10" stroke="none"/>
<polyline points="120.0,408.3 212.0,338.3 304.0,338.3 396.0,338.3 488.0,280.0 580.0,373.3" fill="none" stroke="#2867b5" stroke-width="2.5" stroke-opacity="0.6"/>
<circle cx="580.0" cy="373.3" r="4.5" fill="#2867b5" fill-opacity="0.9"/>
<polyline points="120.0,338.3 212.0,396.7 304.0,326.7 396.0,291.7 488.0,361.7 580.0,338.3" fill="none" stroke="#2867b5" stroke-width="2.5" stroke-opacity="0.6"/>
<circle cx="580.0" cy="338.3" r="4.5" fill="#2867b5" fill-opacity="0.9"/>
<polyline points="120.0,303.3 212.0,396.7 304.0,478.3 396.0,466.7 488.0,525.0 580.0,466.7" fill="none" stroke="#2867b5" stroke-width="2.5" stroke-opacity="0.6"/>
<circle cx="580.0" cy="466.7" r="4.5" fill="#2867b5" fill-opacity="0.9"/>
<polyline points="120.0,303.3 212.0,326.7 304.0,361.7 396.0,443.3 488.0,466.7 580.0,466.7" fill="none" stroke="#2867b5" stroke-width="2.5" stroke-opacity="0.6"/>
<circle cx="580.0" cy="466.7" r="4.5" fill="#2867b5" fill-opacity="0.9"/>
<polyline points="120.0,385.0 212.0,291.7 304.0,373.3 396.0,431.7 488.0,350.0 580.0,326.7" fill="none" stroke="#2867b5" stroke-width="2.5" stroke-opacity="0.6"/>
<circle cx="580.0" cy="326.7" r="4.5" fill="#2867b5" fill-opacity="0.9"/>
<polyline points="120.0,385.0 212.0,350.0 304.0,268.3 396.0,420.0 488.0,315.0 580.0,338.3" fill="none" stroke="#2867b5" stroke-width="2.5" stroke-opacity="0.6"/>
<circle cx="580.0" cy="338.3" r="4.5" fill="#2867b5" fill-opacity="0.9"/>
<polyline points="120.0,385.0 212.0,315.0 304.0,385.0 396.0,431.7 488.0,571.7 580.0,618.3" fill="none" stroke="#2867b5" stroke-width="2.5" stroke-opacity="0.6"/>
<circle cx="580.0" cy="618.3" r="4.5" fill="#2867b5" fill-opacity="0.9"/>
<polyline points="120.0,350.0 212.0,373.3 304.0,373.3 396.0,431.7 488.0,408.3 580.0,466.7" fill="none" stroke="#2867b5" stroke-width="2.5" stroke-opacity="0.6"/>
<circle cx="580.0" cy="466.7" r="4.5" fill="#2867b5" fill-opacity="0.9"/>
<polyline points="120.0,326.7 212.0,303.3 304.0,338.3 396.0,291.7 488.0,408.3 580.0,408.3" fill="none" stroke="#2867b5" stroke-width="2.5" stroke-opacity="0.6"/>
<circle cx="580.0" cy="408.3" r="4.5" fill="#2867b5" fill-opacity="0.9"/>
<polyline points="120.0,361.7 212.0,373.3 304.0,431.7 396.0,490.0 488.0,478.3 580.0,478.3" fill="none" stroke="#2867b5" stroke-width="2.5" stroke-opacity="0.6"/>
<circle cx="580.0" cy="478.3" r="4.5" fill="#2867b5" fill-opacity="0.9"/>
<polyline points="120.0,350.0 212.0,303.3 304.0,350.0 396.0,350.0 488.0,291.7 580.0,291.7" fill="none" stroke="#2867b5" stroke-width="2.5" stroke-opacity="0.6"/>
<circle cx="580.0" cy="291.7" r="4.5" fill="#2867b5" fill-opacity="0.9"/>
<polyline points="120.0,315.0 212.0,315.0 304.0,350.0 396.0,396.7 488.0,385.0 580.0,431.7" fill="none" stroke="#2867b5" stroke-width="2.5" stroke-opacity="0.6"/>
<circle cx="580.0" cy="431.7" r="4.5" fill="#2867b5" fill-opacity="0.9"/>
<polyline points="120.0,315.0 212.0,385.0 304.0,373.3 396.0,490.0 488.0,396.7 580.0,513.3" fill="none" stroke="#2867b5" stroke-width="2.5" stroke-opacity="0.6"/>
<circle cx="580.0" cy="513.3" r="4.5" fill="#2867b5" fill-opacity="0.9"/>
<polyline points="120.0,326.7 212.0,326.7 304.0,490.0 396.0,490.0 488.0,501.7 580.0,571.7" fill="none" stroke="#2867b5" stroke-width="2.5" stroke-opacity="0.6"/>
<circle cx="580.0" cy="571.7" r="4.5" fill="#2867b5" fill-opacity="0.9"/>
<polyline points="120.0,361.7 212.0,420.0 304.0,385.0 396.0,536.7 488.0,583.3 580.0,606.7" fill="none" stroke="#2867b5" stroke-width="2.5" stroke-opacity="0.6"/>
<circle cx="580.0" cy="606.7" r="4.5" fill="#2867b5" fill-opacity="0.9"/>
<line x1="120.0" y1="303.3" x2="120.0" y2="408.3" stroke="#6b7684" stroke-width="3"/>
<line x1="120.0" y1="303.3" x2="129.0" y2="303.3" stroke="#6b7684" stroke-width="3"/>
<line x1="120.0" y1="408.3" x2="129.0" y2="408.3" stroke="#6b7684" stroke-width="3"/>
<text x="128" y="234" text-anchor="start" font-family="Helvetica, Arial, sans-serif" font-size="18" font-weight="normal" fill="#6b7684">starts 0.53–0.78</text>
<line x1="590.0" y1="291.7" x2="590.0" y2="618.3" stroke="#2867b5" stroke-width="3.5"/>
<line x1="581.0" y1="291.7" x2="590.0" y2="291.7" stroke="#2867b5" stroke-width="3.5"/>
<line x1="581.0" y1="618.3" x2="590.0" y2="618.3" stroke="#2867b5" stroke-width="3.5"/>
<text x="598.0" y="450.99999999999994" text-anchor="start" font-family="Helvetica, Arial, sans-serif" font-size="19" font-weight="bold" fill="#2867b5">ends</text>
<text x="598.0" y="473.99999999999994" text-anchor="start" font-family="Helvetica, Arial, sans-serif" font-size="19" font-weight="bold" fill="#2867b5">0.03–0.81</text>
<text x="120" y="730" text-anchor="start" font-family="Helvetica, Arial, sans-serif" font-size="19" font-weight="bold" fill="#1a1a1a">same start, endpoints all over</text>
<text x="975.0" y="180" text-anchor="middle" font-family="Helvetica, Arial, sans-serif" font-size="24" font-weight="bold" fill="#3a7d44">a frozen outside judge</text>
<line x1="745" y1="630.0" x2="1205" y2="630.0" stroke="#e4e4e0" stroke-width="1"/>
<text x="733" y="636.0" text-anchor="end" font-family="Helvetica, Arial, sans-serif" font-size="18" font-weight="normal" fill="#6b7684">0</text>
<line x1="745" y1="525.0" x2="1205" y2="525.0" stroke="#e4e4e0" stroke-width="1"/>
<text x="733" y="531.0" text-anchor="end" font-family="Helvetica, Arial, sans-serif" font-size="18" font-weight="normal" fill="#6b7684">0.25</text>
<line x1="745" y1="420.0" x2="1205" y2="420.0" stroke="#e4e4e0" stroke-width="1"/>
<text x="733" y="426.0" text-anchor="end" font-family="Helvetica, Arial, sans-serif" font-size="18" font-weight="normal" fill="#6b7684">0.5</text>
<line x1="745" y1="315.0" x2="1205" y2="315.0" stroke="#e4e4e0" stroke-width="1"/>
<text x="733" y="321.0" text-anchor="end" font-family="Helvetica, Arial, sans-serif" font-size="18" font-weight="normal" fill="#6b7684">0.75</text>
<line x1="745" y1="210.0" x2="1205" y2="210.0" stroke="#e4e4e0" stroke-width="1"/>
<text x="733" y="216.0" text-anchor="end" font-family="Helvetica, Arial, sans-serif" font-size="18" font-weight="normal" fill="#6b7684">1</text>
<text x="745.0" y="660" text-anchor="middle" font-family="Helvetica, Arial, sans-serif" font-size="18" font-weight="normal" fill="#6b7684">0</text>
<text x="837.0" y="660" text-anchor="middle" font-family="Helvetica, Arial, sans-serif" font-size="18" font-weight="normal" fill="#6b7684">1</text>
<text x="929.0" y="660" text-anchor="middle" font-family="Helvetica, Arial, sans-serif" font-size="18" font-weight="normal" fill="#6b7684">2</text>
<text x="1021.0" y="660" text-anchor="middle" font-family="Helvetica, Arial, sans-serif" font-size="18" font-weight="normal" fill="#6b7684">3</text>
<text x="1113.0" y="660" text-anchor="middle" font-family="Helvetica, Arial, sans-serif" font-size="18" font-weight="normal" fill="#6b7684">4</text>
<text x="1205.0" y="660" text-anchor="middle" font-family="Helvetica, Arial, sans-serif" font-size="18" font-weight="normal" fill="#6b7684">5</text>
<text x="975.0" y="692" text-anchor="middle" font-family="Helvetica, Arial, sans-serif" font-size="19" font-weight="normal" fill="#1a1a1a">round</text>
<polygon points="745.0,350.0 837.0,326.7 929.0,350.0 1021.0,396.7 1113.0,443.3 1205.0,431.7 1205.0,583.3 1113.0,548.3 1021.0,525.0 929.0,501.7 837.0,443.3 745.0,396.7" fill="#3a7d44" fill-opacity="0.10" stroke="none"/>
<polyline points="745.0,396.7 837.0,431.7 929.0,373.3 1021.0,396.7 1113.0,455.0 1205.0,560.0" fill="none" stroke="#3a7d44" stroke-width="2.5" stroke-opacity="0.6"/>
<circle cx="1205.0" cy="560.0" r="4.5" fill="#3a7d44" fill-opacity="0.9"/>
<polyline points="745.0,361.7 837.0,373.3 929.0,431.7 1021.0,443.3 1113.0,443.3 1205.0,501.7" fill="none" stroke="#3a7d44" stroke-width="2.5" stroke-opacity="0.6"/>
<circle cx="1205.0" cy="501.7" r="4.5" fill="#3a7d44" fill-opacity="0.9"/>
<polyline points="745.0,350.0 837.0,396.7 929.0,443.3 1021.0,420.0 1113.0,490.0 1205.0,548.3" fill="none" stroke="#3a7d44" stroke-width="2.5" stroke-opacity="0.6"/>
<circle cx="1205.0" cy="548.3" r="4.5" fill="#3a7d44" fill-opacity="0.9"/>
<polyline points="745.0,385.0 837.0,396.7 929.0,431.7 1021.0,490.0 1113.0,536.7 1205.0,536.7" fill="none" stroke="#3a7d44" stroke-width="2.5" stroke-opacity="0.6"/>
<circle cx="1205.0" cy="536.7" r="4.5" fill="#3a7d44" fill-opacity="0.9"/>
<polyline points="745.0,350.0 837.0,385.0 929.0,501.7 1021.0,525.0 1113.0,536.7 1205.0,583.3" fill="none" stroke="#3a7d44" stroke-width="2.5" stroke-opacity="0.6"/>
<circle cx="1205.0" cy="583.3" r="4.5" fill="#3a7d44" fill-opacity="0.9"/>
<polyline points="745.0,361.7 837.0,443.3 929.0,350.0 1021.0,431.7 1113.0,466.7 1205.0,501.7" fill="none" stroke="#3a7d44" stroke-width="2.5" stroke-opacity="0.6"/>
<circle cx="1205.0" cy="501.7" r="4.5" fill="#3a7d44" fill-opacity="0.9"/>
<polyline points="745.0,373.3 837.0,350.0 929.0,420.0 1021.0,501.7 1113.0,513.3 1205.0,431.7" fill="none" stroke="#3a7d44" stroke-width="2.5" stroke-opacity="0.6"/>
<circle cx="1205.0" cy="431.7" r="4.5" fill="#3a7d44" fill-opacity="0.9"/>
<polyline points="745.0,396.7 837.0,326.7 929.0,361.7 1021.0,501.7 1113.0,548.3 1205.0,525.0" fill="none" stroke="#3a7d44" stroke-width="2.5" stroke-opacity="0.6"/>
<circle cx="1205.0" cy="525.0" r="4.5" fill="#3a7d44" fill-opacity="0.9"/>
<line x1="745.0" y1="350.0" x2="745.0" y2="396.7" stroke="#6b7684" stroke-width="3"/>
<line x1="745.0" y1="350.0" x2="754.0" y2="350.0" stroke="#6b7684" stroke-width="3"/>
<line x1="745.0" y1="396.7" x2="754.0" y2="396.7" stroke="#6b7684" stroke-width="3"/>
<text x="753" y="234" text-anchor="start" font-family="Helvetica, Arial, sans-serif" font-size="18" font-weight="normal" fill="#6b7684">starts 0.56–0.67</text>
<line x1="1215.0" y1="431.7" x2="1215.0" y2="583.3" stroke="#3a7d44" stroke-width="3.5"/>
<line x1="1206.0" y1="431.7" x2="1215.0" y2="431.7" stroke="#3a7d44" stroke-width="3.5"/>
<line x1="1206.0" y1="583.3" x2="1215.0" y2="583.3" stroke="#3a7d44" stroke-width="3.5"/>
<text x="1223.0" y="503.5" text-anchor="start" font-family="Helvetica, Arial, sans-serif" font-size="19" font-weight="bold" fill="#3a7d44">ends</text>
<text x="1223.0" y="526.5" text-anchor="start" font-family="Helvetica, Arial, sans-serif" font-size="19" font-weight="bold" fill="#3a7d44">0.11–0.47</text>
<text x="745" y="730" text-anchor="start" font-family="Helvetica, Arial, sans-serif" font-size="19" font-weight="bold" fill="#1a1a1a">same start, one endpoint band</text>
<text x="40" y="420.0" font-size="19" fill="#1a1a1a" font-family="Helvetica, Arial, sans-serif" transform="rotate(-90 40 420.0)" text-anchor="middle">share of answers that pick the risky gamble</text>
<text x="120" y="778.0" font-family="Helvetica, Arial, sans-serif" font-size="19" font-weight="normal" fill="#6b7684">Judging its own answers, the 15 seeds spread out round by round to endpoints from 0.03 to 0.81. Under the frozen</text>
<text x="120" y="804.6" font-family="Helvetica, Arial, sans-serif" font-size="19" font-weight="normal" fill="#6b7684">outside judge, the same loop pulls every one of 8 seeds down into a band from 0.11 to 0.47.</text>
</svg>