<svg xmlns="http://www.w3.org/2000/svg" viewBox="0 0 1500 1034.8" font-family="Helvetica, Arial, sans-serif">
<rect width="1500" height="1034.8" fill="white"/>
<text x="750" y="54" text-anchor="middle" font-family="Helvetica, Arial, sans-serif" font-size="31" font-weight="bold" fill="#1a1a1a">The value's change each round follows the selection gap</text>
<text x="750" y="89" text-anchor="middle" font-family="Helvetica, Arial, sans-serif" font-size="19" font-weight="normal" fill="#6b7684">A model run for four rounds under four different judges. Each transition is one round's selection gap</text>
<text x="750" y="114" text-anchor="middle" font-family="Helvetica, Arial, sans-serif" font-size="19" font-weight="normal" fill="#6b7684">(risk of the kept answers minus the pool's average) and the move into the next round.</text>
<text x="100" y="191" text-anchor="start" font-family="Helvetica, Arial, sans-serif" font-size="22" font-weight="bold" fill="#1a1a1a">A.  The rule, stated as a loop, and the data behind it</text>
<rect x="100" y="215" width="260" height="84" rx="10" fill="#eef2f6" stroke="#6b7684" stroke-width="1.5"/>
<text x="230.0" y="263.08" text-anchor="middle" font-family="Helvetica, Arial, sans-serif" font-size="19" font-weight="bold" fill="#1a1a1a">this round's value</text>
<rect x="470" y="215" width="260" height="84" rx="10" fill="#eef2f6" stroke="#6b7684" stroke-width="1.5"/>
<text x="600.0" y="250.73000000000002" text-anchor="middle" font-family="Helvetica, Arial, sans-serif" font-size="19" font-weight="bold" fill="#1a1a1a">the judge's selection gap</text>
<text x="600.0" y="275.43" text-anchor="middle" font-family="Helvetica, Arial, sans-serif" font-size="19" font-weight="bold" fill="#1a1a1a">(the force)</text>
<rect x="470" y="407" width="260" height="84" rx="10" fill="#eef2f6" stroke="#6b7684" stroke-width="1.5"/>
<text x="600.0" y="442.72999999999996" text-anchor="middle" font-family="Helvetica, Arial, sans-serif" font-size="19" font-weight="bold" fill="#1a1a1a">value changes by about</text>
<text x="600.0" y="467.42999999999995" text-anchor="middle" font-family="Helvetica, Arial, sans-serif" font-size="19" font-weight="bold" fill="#1a1a1a">0.75 × the gap</text>
<rect x="100" y="407" width="260" height="84" rx="10" fill="#eef2f6" stroke="#6b7684" stroke-width="1.5"/>
<text x="230.0" y="455.08" text-anchor="middle" font-family="Helvetica, Arial, sans-serif" font-size="19" font-weight="bold" fill="#1a1a1a">next round's value</text>
<line x1="360" y1="257.0" x2="460" y2="257.0" stroke="#1a1a1a" stroke-width="3"/><path d="M 459 250.0 L 470 257.0 L 459 264.0 z" fill="#1a1a1a"/>
<line x1="600.0" y1="299" x2="600.0" y2="397" stroke="#1a1a1a" stroke-width="3"/><path d="M 593.0 396 L 600.0 407 L 607.0 396 z" fill="#1a1a1a"/>
<line x1="470" y1="449.0" x2="370" y2="449.0" stroke="#1a1a1a" stroke-width="3"/><path d="M 371 442.0 L 360 449.0 L 371 456.0 z" fill="#1a1a1a"/>
<line x1="230.0" y1="407" x2="230.0" y2="309" stroke="#1a1a1a" stroke-width="3"/><path d="M 223.0 310 L 230.0 299 L 237.0 310 z" fill="#1a1a1a"/>
<text x="218.0" y="358.0" text-anchor="end" font-family="Helvetica, Arial, sans-serif" font-size="19" font-weight="normal" fill="#6b7684">becomes</text>
<line x1="100" y1="780.2" x2="730" y2="780.2" stroke="#e4e4e0" stroke-width="1"/>
<text x="86" y="785.2068965517241" text-anchor="end" font-family="Helvetica, Arial, sans-serif" font-size="17" font-weight="normal" fill="#6b7684">-0.1</text>
<line x1="100" y1="737.1" x2="730" y2="737.1" stroke="#1a1a1a" stroke-width="1.6"/>
<text x="86" y="742.1034482758621" text-anchor="end" font-family="Helvetica, Arial, sans-serif" font-size="17" font-weight="normal" fill="#6b7684">+0.0</text>
<line x1="100" y1="694.0" x2="730" y2="694.0" stroke="#e4e4e0" stroke-width="1"/>
<text x="86" y="699.0" text-anchor="end" font-family="Helvetica, Arial, sans-serif" font-size="17" font-weight="normal" fill="#6b7684">+0.1</text>
<line x1="100" y1="650.9" x2="730" y2="650.9" stroke="#e4e4e0" stroke-width="1"/>
<text x="86" y="655.8965517241379" text-anchor="end" font-family="Helvetica, Arial, sans-serif" font-size="17" font-weight="normal" fill="#6b7684">+0.2</text>
<line x1="100" y1="607.8" x2="730" y2="607.8" stroke="#e4e4e0" stroke-width="1"/>
<text x="86" y="612.7931034482758" text-anchor="end" font-family="Helvetica, Arial, sans-serif" font-size="17" font-weight="normal" fill="#6b7684">+0.3</text>
<line x1="185.9" y1="569" x2="185.9" y2="819" stroke="#e4e4e0" stroke-width="1"/>
<text x="185.90909090909088" y="841" text-anchor="middle" font-family="Helvetica, Arial, sans-serif" font-size="17" font-weight="normal" fill="#6b7684">-0.1</text>
<line x1="329.1" y1="569" x2="329.1" y2="819" stroke="#1a1a1a" stroke-width="1.6"/>
<text x="329.09090909090907" y="841" text-anchor="middle" font-family="Helvetica, Arial, sans-serif" font-size="17" font-weight="normal" fill="#6b7684">+0.0</text>
<line x1="472.3" y1="569" x2="472.3" y2="819" stroke="#e4e4e0" stroke-width="1"/>
<text x="472.27272727272725" y="841" text-anchor="middle" font-family="Helvetica, Arial, sans-serif" font-size="17" font-weight="normal" fill="#6b7684">+0.1</text>
<line x1="615.5" y1="569" x2="615.5" y2="819" stroke="#e4e4e0" stroke-width="1"/>
<text x="615.4545454545454" y="841" text-anchor="middle" font-family="Helvetica, Arial, sans-serif" font-size="17" font-weight="normal" fill="#6b7684">+0.2</text>
<text x="415.0" y="865" text-anchor="middle" font-family="Helvetica, Arial, sans-serif" font-size="19" font-weight="normal" fill="#1a1a1a">this round's selection gap</text>
<text x="32" y="694.0" font-size="19" fill="#1a1a1a" font-family="Helvetica, Arial, sans-serif" transform="rotate(-90 32 694.0)" text-anchor="middle">next round’s drift</text>
<line x1="114.3" y1="790.0" x2="715.7" y2="654.5" stroke="#1a1a1a" stroke-width="3"/>
<circle cx="150.1" cy="785.0" r="6" fill="#6b7684" stroke="white" stroke-width="1.2"/>
<circle cx="309.2" cy="737.1" r="6" fill="#6b7684" stroke="white" stroke-width="1.2"/>
<circle cx="249.5" cy="725.1" r="6" fill="#6b7684" stroke="white" stroke-width="1.2"/>
<circle cx="329.1" cy="761.0" r="6" fill="#6b7684" stroke="white" stroke-width="1.2"/>
<circle cx="229.7" cy="743.1" r="6" fill="#6b7684" stroke="white" stroke-width="1.2"/>
<circle cx="488.2" cy="749.1" r="6" fill="#6b7684" stroke="white" stroke-width="1.2"/>
<circle cx="189.9" cy="791.0" r="6" fill="#6b7684" stroke="white" stroke-width="1.2"/>
<circle cx="249.5" cy="743.1" r="6" fill="#6b7684" stroke="white" stroke-width="1.2"/>
<circle cx="269.4" cy="755.1" r="6" fill="#6b7684" stroke="white" stroke-width="1.2"/>
<circle cx="249.5" cy="755.1" r="6" fill="#6b7684" stroke="white" stroke-width="1.2"/>
<circle cx="368.9" cy="719.1" r="6" fill="#6b7684" stroke="white" stroke-width="1.2"/>
<circle cx="249.5" cy="725.1" r="6" fill="#6b7684" stroke="white" stroke-width="1.2"/>
<circle cx="329.1" cy="749.1" r="6" fill="#6b7684" stroke="white" stroke-width="1.2"/>
<circle cx="249.5" cy="791.0" r="6" fill="#6b7684" stroke="white" stroke-width="1.2"/>
<circle cx="189.9" cy="803.0" r="6" fill="#6b7684" stroke="white" stroke-width="1.2"/>
<circle cx="448.4" cy="791.0" r="6" fill="#6b7684" stroke="white" stroke-width="1.2"/>
<circle cx="329.1" cy="731.1" r="6" fill="#6b7684" stroke="white" stroke-width="1.2"/>
<circle cx="309.2" cy="761.0" r="6" fill="#6b7684" stroke="white" stroke-width="1.2"/>
<circle cx="189.9" cy="773.0" r="6" fill="#6b7684" stroke="white" stroke-width="1.2"/>
<circle cx="249.5" cy="749.1" r="6" fill="#6b7684" stroke="white" stroke-width="1.2"/>
<circle cx="289.3" cy="749.1" r="6" fill="#6b7684" stroke="white" stroke-width="1.2"/>
<circle cx="329.1" cy="797.0" r="6" fill="#6b7684" stroke="white" stroke-width="1.2"/>
<circle cx="170.0" cy="755.1" r="6" fill="#6b7684" stroke="white" stroke-width="1.2"/>
<circle cx="170.0" cy="743.1" r="6" fill="#6b7684" stroke="white" stroke-width="1.2"/>
<circle cx="189.9" cy="749.1" r="6" fill="#6b7684" stroke="white" stroke-width="1.2"/>
<circle cx="349.0" cy="767.0" r="6" fill="#6b7684" stroke="white" stroke-width="1.2"/>
<circle cx="269.4" cy="713.2" r="6" fill="#6b7684" stroke="white" stroke-width="1.2"/>
<circle cx="309.2" cy="725.1" r="6" fill="#6b7684" stroke="white" stroke-width="1.2"/>
<circle cx="269.4" cy="755.1" r="6" fill="#6b7684" stroke="white" stroke-width="1.2"/>
<circle cx="209.8" cy="779.0" r="6" fill="#6b7684" stroke="white" stroke-width="1.2"/>
<circle cx="209.8" cy="785.0" r="6" fill="#6b7684" stroke="white" stroke-width="1.2"/>
<circle cx="249.5" cy="743.1" r="6" fill="#6b7684" stroke="white" stroke-width="1.2"/>
<circle cx="329.1" cy="749.1" r="6" fill="#6b7684" stroke="white" stroke-width="1.2"/>
<circle cx="209.8" cy="785.0" r="6" fill="#6b7684" stroke="white" stroke-width="1.2"/>
<circle cx="309.2" cy="743.1" r="6" fill="#6b7684" stroke="white" stroke-width="1.2"/>
<circle cx="388.8" cy="701.2" r="6" fill="#6b7684" stroke="white" stroke-width="1.2"/>
<circle cx="329.1" cy="677.2" r="6" fill="#6b7684" stroke="white" stroke-width="1.2"/>
<circle cx="607.5" cy="677.2" r="6" fill="#6b7684" stroke="white" stroke-width="1.2"/>
<circle cx="587.6" cy="647.3" r="6" fill="#6b7684" stroke="white" stroke-width="1.2"/>
<circle cx="209.8" cy="797.0" r="6" fill="#6b7684" stroke="white" stroke-width="1.2"/>
<circle cx="349.0" cy="725.1" r="6" fill="#6b7684" stroke="white" stroke-width="1.2"/>
<circle cx="428.5" cy="743.1" r="6" fill="#6b7684" stroke="white" stroke-width="1.2"/>
<circle cx="309.2" cy="749.1" r="6" fill="#6b7684" stroke="white" stroke-width="1.2"/>
<circle cx="349.0" cy="761.0" r="6" fill="#6b7684" stroke="white" stroke-width="1.2"/>
<circle cx="368.9" cy="725.1" r="6" fill="#6b7684" stroke="white" stroke-width="1.2"/>
<circle cx="508.1" cy="761.0" r="6" fill="#6b7684" stroke="white" stroke-width="1.2"/>
<circle cx="349.0" cy="767.0" r="6" fill="#6b7684" stroke="white" stroke-width="1.2"/>
<circle cx="687.0" cy="581.5" r="6" fill="#6b7684" stroke="white" stroke-width="1.2"/>
<circle cx="289.3" cy="767.0" r="6" fill="#6b7684" stroke="white" stroke-width="1.2"/>
<circle cx="209.8" cy="761.0" r="6" fill="#6b7684" stroke="white" stroke-width="1.2"/>
<circle cx="170.0" cy="767.0" r="6" fill="#6b7684" stroke="white" stroke-width="1.2"/>
<rect x="448.0" y="756.4" width="248" height="62" rx="8" fill="white" fill-opacity="0.92"/>
<text x="458.0" y="782.4" font-size="20" font-weight="bold" fill="#1a1a1a" font-family="Helvetica, Arial, sans-serif">drift ≈ 0.75 × gap</text>
<text x="458.0" y="808.4" font-size="19" fill="#6b7684" font-family="Helvetica, Arial, sans-serif">r = 0.66, n = 51 round transitions</text>
<text x="880" y="191" text-anchor="start" font-family="Helvetica, Arial, sans-serif" font-size="22" font-weight="bold" fill="#1a1a1a">B.  The rule played forward, at three constant gaps</text>
<line x1="880" y1="741.0" x2="1310" y2="741.0" stroke="#e4e4e0" stroke-width="1"/>
<text x="866" y="746.0" text-anchor="end" font-family="Helvetica, Arial, sans-serif" font-size="17" font-weight="normal" fill="#6b7684">0</text>
<line x1="880" y1="609.5" x2="1310" y2="609.5" stroke="#e4e4e0" stroke-width="1"/>
<text x="866" y="614.5" text-anchor="end" font-family="Helvetica, Arial, sans-serif" font-size="17" font-weight="normal" fill="#6b7684">0.25</text>
<line x1="880" y1="478.0" x2="1310" y2="478.0" stroke="#e4e4e0" stroke-width="1"/>
<text x="866" y="483.0" text-anchor="end" font-family="Helvetica, Arial, sans-serif" font-size="17" font-weight="normal" fill="#6b7684">0.5</text>
<line x1="880" y1="346.5" x2="1310" y2="346.5" stroke="#e4e4e0" stroke-width="1"/>
<text x="866" y="351.5" text-anchor="end" font-family="Helvetica, Arial, sans-serif" font-size="17" font-weight="normal" fill="#6b7684">0.75</text>
<line x1="880" y1="215.0" x2="1310" y2="215.0" stroke="#e4e4e0" stroke-width="1"/>
<text x="866" y="220.0" text-anchor="end" font-family="Helvetica, Arial, sans-serif" font-size="17" font-weight="normal" fill="#6b7684">1</text>
<text x="880.0" y="767" text-anchor="middle" font-family="Helvetica, Arial, sans-serif" font-size="17" font-weight="normal" fill="#6b7684">0</text>
<text x="951.6666666666666" y="767" text-anchor="middle" font-family="Helvetica, Arial, sans-serif" font-size="17" font-weight="normal" fill="#6b7684">1</text>
<text x="1023.3333333333334" y="767" text-anchor="middle" font-family="Helvetica, Arial, sans-serif" font-size="17" font-weight="normal" fill="#6b7684">2</text>
<text x="1095.0" y="767" text-anchor="middle" font-family="Helvetica, Arial, sans-serif" font-size="17" font-weight="normal" fill="#6b7684">3</text>
<text x="1166.6666666666667" y="767" text-anchor="middle" font-family="Helvetica, Arial, sans-serif" font-size="17" font-weight="normal" fill="#6b7684">4</text>
<text x="1238.3333333333333" y="767" text-anchor="middle" font-family="Helvetica, Arial, sans-serif" font-size="17" font-weight="normal" fill="#6b7684">5</text>
<text x="1310.0" y="767" text-anchor="middle" font-family="Helvetica, Arial, sans-serif" font-size="17" font-weight="normal" fill="#6b7684">6</text>
<text x="1095.0" y="793" text-anchor="middle" font-family="Helvetica, Arial, sans-serif" font-size="19" font-weight="normal" fill="#1a1a1a">round</text>
<text x="810" y="478.0" font-size="19" fill="#1a1a1a" font-family="Helvetica, Arial, sans-serif" transform="rotate(-90 810 478.0)" text-anchor="middle">value</text>
<polyline points="880.0,478.0 951.7,513.4 1023.3,548.9 1095.0,584.3 1166.7,619.8 1238.3,655.2 1310.0,690.6" fill="none" stroke="#3a7d44" stroke-width="3"/>
<circle cx="880.0" cy="478.0" r="5.5" fill="#3a7d44" stroke="white" stroke-width="1.2"/>
<circle cx="951.7" cy="513.4" r="5.5" fill="#3a7d44" stroke="white" stroke-width="1.2"/>
<circle cx="1023.3" cy="548.9" r="5.5" fill="#3a7d44" stroke="white" stroke-width="1.2"/>
<circle cx="1095.0" cy="584.3" r="5.5" fill="#3a7d44" stroke="white" stroke-width="1.2"/>
<circle cx="1166.7" cy="619.8" r="5.5" fill="#3a7d44" stroke="white" stroke-width="1.2"/>
<circle cx="1238.3" cy="655.2" r="5.5" fill="#3a7d44" stroke="white" stroke-width="1.2"/>
<circle cx="1310.0" cy="690.6" r="5.5" fill="#3a7d44" stroke="white" stroke-width="1.2"/>
<text x="1322.0" y="720.6" font-size="19" font-weight="bold" fill="#3a7d44" font-family="Helvetica, Arial, sans-serif">gap ≈ -0.09</text>
<text x="1322.0" y="743.6" font-size="19" fill="#3a7d44" font-family="Helvetica, Arial, sans-serif">steady negative gap</text>
<polyline points="880.0,478.0 951.7,478.0 1023.3,478.0 1095.0,478.0 1166.7,478.0 1238.3,478.0 1310.0,478.0" fill="none" stroke="#6b7684" stroke-width="3"/>
<circle cx="880.0" cy="478.0" r="5.5" fill="#6b7684" stroke="white" stroke-width="1.2"/>
<circle cx="951.7" cy="478.0" r="5.5" fill="#6b7684" stroke="white" stroke-width="1.2"/>
<circle cx="1023.3" cy="478.0" r="5.5" fill="#6b7684" stroke="white" stroke-width="1.2"/>
<circle cx="1095.0" cy="478.0" r="5.5" fill="#6b7684" stroke="white" stroke-width="1.2"/>
<circle cx="1166.7" cy="478.0" r="5.5" fill="#6b7684" stroke="white" stroke-width="1.2"/>
<circle cx="1238.3" cy="478.0" r="5.5" fill="#6b7684" stroke="white" stroke-width="1.2"/>
<circle cx="1310.0" cy="478.0" r="5.5" fill="#6b7684" stroke="white" stroke-width="1.2"/>
<text x="1322.0" y="484.0" font-size="19" font-weight="bold" fill="#6b7684" font-family="Helvetica, Arial, sans-serif">gap ≈ +0.00</text>
<text x="1322.0" y="507.0" font-size="19" fill="#6b7684" font-family="Helvetica, Arial, sans-serif">near-zero gap</text>
<polyline points="880.0,478.0 951.7,442.6 1023.3,407.1 1095.0,371.7 1166.7,336.2 1238.3,300.8 1310.0,265.4" fill="none" stroke="#8a5a9e" stroke-width="3"/>
<circle cx="880.0" cy="478.0" r="5.5" fill="#8a5a9e" stroke="white" stroke-width="1.2"/>
<circle cx="951.7" cy="442.6" r="5.5" fill="#8a5a9e" stroke="white" stroke-width="1.2"/>
<circle cx="1023.3" cy="407.1" r="5.5" fill="#8a5a9e" stroke="white" stroke-width="1.2"/>
<circle cx="1095.0" cy="371.7" r="5.5" fill="#8a5a9e" stroke="white" stroke-width="1.2"/>
<circle cx="1166.7" cy="336.2" r="5.5" fill="#8a5a9e" stroke="white" stroke-width="1.2"/>
<circle cx="1238.3" cy="300.8" r="5.5" fill="#8a5a9e" stroke="white" stroke-width="1.2"/>
<circle cx="1310.0" cy="265.4" r="5.5" fill="#8a5a9e" stroke="white" stroke-width="1.2"/>
<text x="1322.0" y="251.4" font-size="19" font-weight="bold" fill="#8a5a9e" font-family="Helvetica, Arial, sans-serif">gap ≈ +0.09</text>
<text x="1322.0" y="274.4" font-size="19" fill="#8a5a9e" font-family="Helvetica, Arial, sans-serif">steady positive gap</text>
<text x="100" y="921.0" font-family="Helvetica, Arial, sans-serif" font-size="19" font-weight="normal" fill="#6b7684">Left: the loop states the fitted rule; dots are 51 round-to-round transitions from 17 four-round runs across four judges, line is the least-squares</text>
<text x="100" y="947.6" font-family="Helvetica, Arial, sans-serif" font-size="19" font-weight="normal" fill="#6b7684">fit. Right: the same rule integrated forward from a value of 0.50, one point per round, at three constant gaps. Data: the same round-to-round</text>
<text x="100" y="974.2" font-family="Helvetica, Arial, sans-serif" font-size="19" font-weight="normal" fill="#6b7684">transitions as the selection-gap-and-drift figure.</text>
</svg>