<svg xmlns="http://www.w3.org/2000/svg" viewBox="0 0 1500 935.8" font-family="Helvetica, Arial, sans-serif">
<rect width="1500" height="935.8" fill="white"/>
<text x="750" y="54" text-anchor="middle" font-family="Helvetica, Arial, sans-serif" font-size="31" font-weight="bold" fill="#1a1a1a">The bigger the selection gap this round, the bigger the drift next round</text>
<text x="750" y="92" text-anchor="middle" font-family="Helvetica, Arial, sans-serif" font-size="19" font-weight="normal" fill="#6b7684">A model trained to prefer risky gambles, run for four rounds under four different judges. Each dot is one round.</text>
<rect x="240.0" y="118" width="222" height="54" rx="10" fill="#eef2f6" stroke="#6b7684" stroke-width="1.5"/>
<text x="351.0" y="151.5" text-anchor="middle" font-family="Helvetica, Arial, sans-serif" font-size="19" font-weight="normal" fill="#1a1a1a">model writes 6 answers</text>
<text x="484.0" y="154.0" text-anchor="middle" font-size="26" fill="#6b7684" font-family="Helvetica, Arial, sans-serif">&#8594;</text>
<rect x="506.0" y="118" width="222" height="54" rx="10" fill="#eef2f6" stroke="#6b7684" stroke-width="1.5"/>
<text x="617.0" y="151.5" text-anchor="middle" font-family="Helvetica, Arial, sans-serif" font-size="19" font-weight="normal" fill="#1a1a1a">a judge keeps the top 2</text>
<text x="750.0" y="154.0" text-anchor="middle" font-size="26" fill="#6b7684" font-family="Helvetica, Arial, sans-serif">&#8594;</text>
<rect x="772.0" y="118" width="222" height="54" rx="10" fill="#eef2f6" stroke="#6b7684" stroke-width="1.5"/>
<text x="883.0" y="151.5" text-anchor="middle" font-family="Helvetica, Arial, sans-serif" font-size="19" font-weight="normal" fill="#1a1a1a">train on those 2</text>
<text x="1016.0" y="154.0" text-anchor="middle" font-size="26" fill="#6b7684" font-family="Helvetica, Arial, sans-serif">&#8594;</text>
<rect x="1038.0" y="118" width="222" height="54" rx="10" fill="#eef2f6" stroke="#6b7684" stroke-width="1.5"/>
<text x="1149.0" y="151.5" text-anchor="middle" font-family="Helvetica, Arial, sans-serif" font-size="19" font-weight="normal" fill="#1a1a1a">measure the pool's move</text>
<text x="110" y="266" font-size="22" font-weight="bold" fill="#1a1a1a" font-family="Helvetica, Arial, sans-serif">A. This round’s gap vs. next round’s drift</text>
<line x1="150" y1="663.3" x2="640" y2="663.3" stroke="#e4e4e0" stroke-width="1"/>
<text x="138" y="669.3" text-anchor="end" font-size="18" fill="#6b7684" font-family="Helvetica, Arial, sans-serif">-0.1</text>
<line x1="150" y1="589.1" x2="640" y2="589.1" stroke="#1a1a1a" stroke-width="2"/>
<text x="138" y="595.1" text-anchor="end" font-size="18" fill="#6b7684" font-family="Helvetica, Arial, sans-serif">+0.0</text>
<line x1="150" y1="515.0" x2="640" y2="515.0" stroke="#e4e4e0" stroke-width="1"/>
<text x="138" y="521.0" text-anchor="end" font-size="18" fill="#6b7684" font-family="Helvetica, Arial, sans-serif">+0.1</text>
<line x1="150" y1="440.9" x2="640" y2="440.9" stroke="#e4e4e0" stroke-width="1"/>
<text x="138" y="446.9" text-anchor="end" font-size="18" fill="#6b7684" font-family="Helvetica, Arial, sans-serif">+0.2</text>
<line x1="150" y1="366.7" x2="640" y2="366.7" stroke="#e4e4e0" stroke-width="1"/>
<text x="138" y="372.7" text-anchor="end" font-size="18" fill="#6b7684" font-family="Helvetica, Arial, sans-serif">+0.3</text>
<line x1="216.8" y1="300" x2="216.8" y2="730" stroke="#e4e4e0" stroke-width="1"/>
<text x="216.8" y="758" text-anchor="middle" font-size="18" fill="#6b7684" font-family="Helvetica, Arial, sans-serif">-0.1</text>
<line x1="328.2" y1="300" x2="328.2" y2="730" stroke="#1a1a1a" stroke-width="2"/>
<text x="328.2" y="758" text-anchor="middle" font-size="18" fill="#6b7684" font-family="Helvetica, Arial, sans-serif">+0.0</text>
<line x1="439.5" y1="300" x2="439.5" y2="730" stroke="#e4e4e0" stroke-width="1"/>
<text x="439.5" y="758" text-anchor="middle" font-size="18" fill="#6b7684" font-family="Helvetica, Arial, sans-serif">+0.1</text>
<line x1="550.9" y1="300" x2="550.9" y2="730" stroke="#e4e4e0" stroke-width="1"/>
<text x="550.9" y="758" text-anchor="middle" font-size="18" fill="#6b7684" font-family="Helvetica, Arial, sans-serif">+0.2</text>
<text x="395.0" y="788" text-anchor="middle" font-size="19" fill="#1a1a1a" font-family="Helvetica, Arial, sans-serif">selection gap this round (risk of kept answers minus the pool)</text>
<text x="76" y="515.0" font-size="19" fill="#1a1a1a" font-family="Helvetica, Arial, sans-serif" transform="rotate(-90 76 515.0)" text-anchor="middle">drift into the next round</text>
<line x1="161.1" y1="680.2" x2="628.9" y2="447.1" stroke="#1a1a1a" stroke-width="3.5"/>
<polygon points="189.0,663.0 180.5,679.0 197.5,679.0" fill="#2867b5" stroke="white" stroke-width="1.5"/>
<polygon points="312.7,580.6 304.2,596.6 321.2,596.6" fill="#2867b5" stroke="white" stroke-width="1.5"/>
<polygon points="266.3,560.0 257.8,576.0 274.8,576.0" fill="#2867b5" stroke="white" stroke-width="1.5"/>
<polygon points="328.2,621.3 336.7,630.3 328.2,639.3 319.7,630.3" fill="#c07d18" stroke="white" stroke-width="1.5"/>
<polygon points="250.8,590.4 259.3,599.4 250.8,608.4 242.3,599.4" fill="#c07d18" stroke="white" stroke-width="1.5"/>
<polygon points="451.9,600.7 460.4,609.7 451.9,618.7 443.4,609.7" fill="#c07d18" stroke="white" stroke-width="1.5"/>
<polygon points="219.9,673.3 211.4,689.3 228.4,689.3" fill="#2867b5" stroke="white" stroke-width="1.5"/>
<polygon points="266.3,590.9 257.8,606.9 274.8,606.9" fill="#2867b5" stroke="white" stroke-width="1.5"/>
<polygon points="281.8,611.5 273.3,627.5 290.3,627.5" fill="#2867b5" stroke="white" stroke-width="1.5"/>
<polygon points="266.3,611.0 274.8,620.0 266.3,629.0 257.8,620.0" fill="#c07d18" stroke="white" stroke-width="1.5"/>
<polygon points="359.1,549.2 367.6,558.2 359.1,567.2 350.6,558.2" fill="#c07d18" stroke="white" stroke-width="1.5"/>
<polygon points="266.3,559.5 274.8,568.5 266.3,577.5 257.8,568.5" fill="#c07d18" stroke="white" stroke-width="1.5"/>
<polygon points="328.2,601.2 319.7,617.2 336.7,617.2" fill="#2867b5" stroke="white" stroke-width="1.5"/>
<polygon points="266.3,673.3 257.8,689.3 274.8,689.3" fill="#2867b5" stroke="white" stroke-width="1.5"/>
<polygon points="219.9,693.9 211.4,709.9 228.4,709.9" fill="#2867b5" stroke="white" stroke-width="1.5"/>
<polygon points="421.0,672.8 429.5,681.8 421.0,690.8 412.5,681.8" fill="#c07d18" stroke="white" stroke-width="1.5"/>
<polygon points="328.2,569.8 336.7,578.8 328.2,587.8 319.7,578.8" fill="#c07d18" stroke="white" stroke-width="1.5"/>
<polygon points="312.7,621.3 321.2,630.3 312.7,639.3 304.2,630.3" fill="#c07d18" stroke="white" stroke-width="1.5"/>
<circle cx="219.9" cy="650.9" r="7.5" fill="#3a7d44" stroke="white" stroke-width="1.5"/>
<circle cx="266.3" cy="609.7" r="7.5" fill="#3a7d44" stroke="white" stroke-width="1.5"/>
<circle cx="297.2" cy="609.7" r="7.5" fill="#3a7d44" stroke="white" stroke-width="1.5"/>
<circle cx="328.2" cy="692.1" r="7.5" fill="#3a7d44" stroke="white" stroke-width="1.5"/>
<circle cx="204.4" cy="620.0" r="7.5" fill="#3a7d44" stroke="white" stroke-width="1.5"/>
<circle cx="204.4" cy="599.4" r="7.5" fill="#3a7d44" stroke="white" stroke-width="1.5"/>
<circle cx="219.9" cy="609.7" r="7.5" fill="#3a7d44" stroke="white" stroke-width="1.5"/>
<circle cx="343.6" cy="640.6" r="7.5" fill="#3a7d44" stroke="white" stroke-width="1.5"/>
<circle cx="281.8" cy="548.0" r="7.5" fill="#3a7d44" stroke="white" stroke-width="1.5"/>
<rect x="305.2" y="561.0" width="15.0" height="15.0" fill="#8a5a9e" stroke="white" stroke-width="1.5"/>
<rect x="274.3" y="612.5" width="15.0" height="15.0" fill="#8a5a9e" stroke="white" stroke-width="1.5"/>
<rect x="227.9" y="653.7" width="15.0" height="15.0" fill="#8a5a9e" stroke="white" stroke-width="1.5"/>
<circle cx="235.4" cy="671.5" r="7.5" fill="#3a7d44" stroke="white" stroke-width="1.5"/>
<circle cx="266.3" cy="599.4" r="7.5" fill="#3a7d44" stroke="white" stroke-width="1.5"/>
<circle cx="328.2" cy="609.7" r="7.5" fill="#3a7d44" stroke="white" stroke-width="1.5"/>
<rect x="227.9" y="664.0" width="15.0" height="15.0" fill="#8a5a9e" stroke="white" stroke-width="1.5"/>
<rect x="305.2" y="591.9" width="15.0" height="15.0" fill="#8a5a9e" stroke="white" stroke-width="1.5"/>
<rect x="367.1" y="519.9" width="15.0" height="15.0" fill="#8a5a9e" stroke="white" stroke-width="1.5"/>
<rect x="320.7" y="478.7" width="15.0" height="15.0" fill="#8a5a9e" stroke="white" stroke-width="1.5"/>
<rect x="537.2" y="478.7" width="15.0" height="15.0" fill="#8a5a9e" stroke="white" stroke-width="1.5"/>
<rect x="521.8" y="427.2" width="15.0" height="15.0" fill="#8a5a9e" stroke="white" stroke-width="1.5"/>
<rect x="227.9" y="684.6" width="15.0" height="15.0" fill="#8a5a9e" stroke="white" stroke-width="1.5"/>
<rect x="336.1" y="561.0" width="15.0" height="15.0" fill="#8a5a9e" stroke="white" stroke-width="1.5"/>
<rect x="398.0" y="591.9" width="15.0" height="15.0" fill="#8a5a9e" stroke="white" stroke-width="1.5"/>
<rect x="305.2" y="602.2" width="15.0" height="15.0" fill="#8a5a9e" stroke="white" stroke-width="1.5"/>
<rect x="336.1" y="622.8" width="15.0" height="15.0" fill="#8a5a9e" stroke="white" stroke-width="1.5"/>
<rect x="351.6" y="561.0" width="15.0" height="15.0" fill="#8a5a9e" stroke="white" stroke-width="1.5"/>
<rect x="459.9" y="622.8" width="15.0" height="15.0" fill="#8a5a9e" stroke="white" stroke-width="1.5"/>
<rect x="336.1" y="633.1" width="15.0" height="15.0" fill="#8a5a9e" stroke="white" stroke-width="1.5"/>
<rect x="599.1" y="313.9" width="15.0" height="15.0" fill="#8a5a9e" stroke="white" stroke-width="1.5"/>
<circle cx="297.2" cy="640.6" r="7.5" fill="#3a7d44" stroke="white" stroke-width="1.5"/>
<circle cx="235.4" cy="630.3" r="7.5" fill="#3a7d44" stroke="white" stroke-width="1.5"/>
<circle cx="204.4" cy="640.6" r="7.5" fill="#3a7d44" stroke="white" stroke-width="1.5"/>
<rect x="401.7" y="655.8" width="248" height="60" rx="8" fill="white" fill-opacity="0.9"/>
<text x="411.7" y="681.8" font-size="21" font-weight="bold" fill="#1a1a1a" font-family="Helvetica, Arial, sans-serif">drift ≈ 0.75 × gap</text>
<text x="411.7" y="707.8" font-size="18" fill="#6b7684" font-family="Helvetica, Arial, sans-serif">correlation r = 0.66</text>
<circle cx="166.0" cy="315.0" r="7.5" fill="#3a7d44" stroke="white" stroke-width="1.5"/>
<text x="184" y="320" font-size="19" fill="#1a1a1a" font-family="Helvetica, Arial, sans-serif">cautious judge</text>
<rect x="158.5" y="337.5" width="15.0" height="15.0" fill="#8a5a9e" stroke="white" stroke-width="1.5"/>
<text x="184" y="350" font-size="19" fill="#1a1a1a" font-family="Helvetica, Arial, sans-serif">neutral judge</text>
<polygon points="166.0,366.5 157.5,382.5 174.5,382.5" fill="#2867b5" stroke="white" stroke-width="1.5"/>
<text x="184" y="380" font-size="19" fill="#1a1a1a" font-family="Helvetica, Arial, sans-serif">the model judging itself</text>
<polygon points="166.0,396.0 174.5,405.0 166.0,414.0 157.5,405.0" fill="#c07d18" stroke="white" stroke-width="1.5"/>
<text x="184" y="410" font-size="19" fill="#1a1a1a" font-family="Helvetica, Arial, sans-serif">keep at random</text>
<text x="860" y="266" font-size="22" font-weight="bold" fill="#1a1a1a" font-family="Helvetica, Arial, sans-serif">B. Two runs ride a positive gap upward</text>
<line x1="900" y1="730.0" x2="1370" y2="730.0" stroke="#e4e4e0" stroke-width="1"/>
<text x="888" y="736.0" text-anchor="end" font-size="18" fill="#6b7684" font-family="Helvetica, Arial, sans-serif">0</text>
<line x1="900" y1="610.6" x2="1370" y2="610.6" stroke="#e4e4e0" stroke-width="1"/>
<text x="888" y="616.6" text-anchor="end" font-size="18" fill="#6b7684" font-family="Helvetica, Arial, sans-serif">0.2</text>
<line x1="900" y1="491.1" x2="1370" y2="491.1" stroke="#e4e4e0" stroke-width="1"/>
<text x="888" y="497.1" text-anchor="end" font-size="18" fill="#6b7684" font-family="Helvetica, Arial, sans-serif">0.4</text>
<line x1="900" y1="371.7" x2="1370" y2="371.7" stroke="#e4e4e0" stroke-width="1"/>
<text x="888" y="377.7" text-anchor="end" font-size="18" fill="#6b7684" font-family="Helvetica, Arial, sans-serif">0.6</text>
<text x="900.0" y="758" text-anchor="middle" font-size="18" fill="#6b7684" font-family="Helvetica, Arial, sans-serif">1</text>
<text x="1056.7" y="758" text-anchor="middle" font-size="18" fill="#6b7684" font-family="Helvetica, Arial, sans-serif">2</text>
<text x="1213.3" y="758" text-anchor="middle" font-size="18" fill="#6b7684" font-family="Helvetica, Arial, sans-serif">3</text>
<text x="1370.0" y="758" text-anchor="middle" font-size="18" fill="#6b7684" font-family="Helvetica, Arial, sans-serif">4</text>
<text x="1135.0" y="788" text-anchor="middle" font-size="19" fill="#1a1a1a" font-family="Helvetica, Arial, sans-serif">round</text>
<text x="840" y="515.0" font-size="19" fill="#1a1a1a" font-family="Helvetica, Arial, sans-serif" transform="rotate(-90 840 515.0)" text-anchor="middle">how risk-seeking the pool is</text>
<polyline points="900.0,597.3 1056.7,580.7 1213.3,605.6 1370.0,663.6" fill="none" stroke="#8a5a9e" stroke-width="2.5" stroke-opacity="0.32"/>
<circle cx="1370.0" cy="663.6" r="4.5" fill="#8a5a9e" fill-opacity="0.4"/>
<polyline points="900.0,605.6 1056.7,671.9 1213.3,680.2 1370.0,630.5" fill="none" stroke="#8a5a9e" stroke-width="2.5" stroke-opacity="0.32"/>
<circle cx="1370.0" cy="630.5" r="4.5" fill="#8a5a9e" fill-opacity="0.4"/>
<polyline points="900.0,605.6 1056.7,688.5 1213.3,671.9 1370.0,680.2" fill="none" stroke="#8a5a9e" stroke-width="2.5" stroke-opacity="0.32"/>
<circle cx="1370.0" cy="680.2" r="4.5" fill="#8a5a9e" fill-opacity="0.4"/>
<polyline points="900.0,622.2 1056.7,638.8 1213.3,671.9 1370.0,655.3" fill="none" stroke="#8a5a9e" stroke-width="2.5" stroke-opacity="0.32"/>
<circle cx="1370.0" cy="655.3" r="4.5" fill="#8a5a9e" fill-opacity="0.4"/>
<text x="1382.0" y="659.3" font-size="17" fill="#8a5a9e" fill-opacity="0.9" font-family="Helvetica, Arial, sans-serif">others end</text>
<text x="1382.0" y="681.3" font-size="17" fill="#8a5a9e" fill-opacity="0.9" font-family="Helvetica, Arial, sans-serif">0.08–0.17</text>
<polyline points="900.0,506.0 1056.7,539.2 1213.3,580.7 1370.0,365.0" fill="none" stroke="#8a5a9e" stroke-width="4.5"/>
<circle cx="900.0" cy="506.0" r="6" fill="#8a5a9e" stroke="white" stroke-width="1.5"/>
<circle cx="1056.7" cy="539.2" r="6" fill="#8a5a9e" stroke="white" stroke-width="1.5"/>
<circle cx="1213.3" cy="580.7" r="6" fill="#8a5a9e" stroke="white" stroke-width="1.5"/>
<circle cx="1370.0" cy="365.0" r="6" fill="#8a5a9e" stroke="white" stroke-width="1.5"/>
<text x="1382.0" y="389.0" font-size="19" font-weight="bold" fill="#8a5a9e" font-family="Helvetica, Arial, sans-serif">0.61</text>
<text x="978.3" y="508.6" text-anchor="middle" font-size="17" font-weight="bold" fill="#1a1a1a" font-family="Helvetica, Arial, sans-serif">+0.13</text>
<text x="1135.0" y="546.0" text-anchor="middle" font-size="17" font-weight="bold" fill="#1a1a1a" font-family="Helvetica, Arial, sans-serif">+0.01</text>
<text x="1291.7" y="458.9" text-anchor="middle" font-size="17" font-weight="bold" fill="#1a1a1a" font-family="Helvetica, Arial, sans-serif">+0.25</text>
<polyline points="900.0,630.5 1056.7,547.5 1213.3,464.6 1370.0,340.1" fill="none" stroke="#8a5a9e" stroke-width="4.5"/>
<circle cx="900.0" cy="630.5" r="6" fill="#8a5a9e" stroke="white" stroke-width="1.5"/>
<circle cx="1056.7" cy="547.5" r="6" fill="#8a5a9e" stroke="white" stroke-width="1.5"/>
<circle cx="1213.3" cy="464.6" r="6" fill="#8a5a9e" stroke="white" stroke-width="1.5"/>
<circle cx="1370.0" cy="340.1" r="6" fill="#8a5a9e" stroke="white" stroke-width="1.5"/>
<text x="1382.0" y="328.1" font-size="19" font-weight="bold" fill="#8a5a9e" font-family="Helvetica, Arial, sans-serif">0.65</text>
<text x="978.3" y="611.0" text-anchor="middle" font-size="17" font-weight="bold" fill="#1a1a1a" font-family="Helvetica, Arial, sans-serif">+0.00</text>
<text x="1135.0" y="528.0" text-anchor="middle" font-size="17" font-weight="bold" fill="#1a1a1a" font-family="Helvetica, Arial, sans-serif">+0.19</text>
<text x="1291.7" y="424.4" text-anchor="middle" font-size="17" font-weight="bold" fill="#1a1a1a" font-family="Helvetica, Arial, sans-serif">+0.18</text>
<text x="860" y="822.0" font-family="Helvetica, Arial, sans-serif" font-size="19" font-weight="normal" fill="#6b7684">Black numbers are the gap each round: positive, so the pool climbs. The</text>
<text x="860" y="848.6" font-family="Helvetica, Arial, sans-serif" font-size="19" font-weight="normal" fill="#6b7684">cautious judge, keeping the safer answers from the same pools, would</text>
<text x="860" y="875.2" font-family="Helvetica, Arial, sans-serif" font-size="19" font-weight="normal" fill="#6b7684">have given gaps of -0.24 to +0.00 and pushed them back down.</text>
</svg>