<svg xmlns="http://www.w3.org/2000/svg" viewBox="0 0 1320 808.03" font-family="Helvetica, Arial, sans-serif">
<rect width="1320" height="808.03" fill="white"/>
<text x="660" y="52" text-anchor="middle" font-family="Helvetica, Arial, sans-serif" font-size="27" font-weight="bold" fill="#1a1a1a">The bigger the selection gap this round, the bigger the drift next round</text>
<text x="660" y="84" text-anchor="middle" font-family="Helvetica, Arial, sans-serif" font-size="15.5" font-weight="normal" fill="#6b7684">A model trained to prefer risky gambles, run for four rounds under four different judges. Each dot is one round.</text>
<rect x="264.0" y="108" width="168" height="46" rx="9" fill="#f4f6f8" stroke="#6b7684" stroke-width="1.5"/>
<text x="348.0" y="135.5" text-anchor="middle" font-family="Helvetica, Arial, sans-serif" font-size="12.5" font-weight="normal" fill="#1a1a1a">model writes 6 answers</text>
<text x="452.0" y="138.0" text-anchor="middle" font-size="22" fill="#6b7684" font-family="Helvetica, Arial, sans-serif">&#8594;</text>
<rect x="472.0" y="108" width="168" height="46" rx="9" fill="#f4f6f8" stroke="#6b7684" stroke-width="1.5"/>
<text x="556.0" y="135.5" text-anchor="middle" font-family="Helvetica, Arial, sans-serif" font-size="12.5" font-weight="normal" fill="#1a1a1a">a judge keeps the top 2</text>
<text x="660.0" y="138.0" text-anchor="middle" font-size="22" fill="#6b7684" font-family="Helvetica, Arial, sans-serif">&#8594;</text>
<rect x="680.0" y="108" width="168" height="46" rx="9" fill="#f4f6f8" stroke="#6b7684" stroke-width="1.5"/>
<text x="764.0" y="135.5" text-anchor="middle" font-family="Helvetica, Arial, sans-serif" font-size="12.5" font-weight="normal" fill="#1a1a1a">train on those 2</text>
<text x="868.0" y="138.0" text-anchor="middle" font-size="22" fill="#6b7684" font-family="Helvetica, Arial, sans-serif">&#8594;</text>
<rect x="888.0" y="108" width="168" height="46" rx="9" fill="#f4f6f8" stroke="#6b7684" stroke-width="1.5"/>
<text x="972.0" y="135.5" text-anchor="middle" font-family="Helvetica, Arial, sans-serif" font-size="12.5" font-weight="normal" fill="#1a1a1a">measure the pool's move</text>
<text x="90" y="228" font-size="19" font-weight="bold" fill="#1a1a1a" font-family="Helvetica, Arial, sans-serif">A. This round’s gap vs. next round’s drift</text>
<line x1="120" y1="581.0" x2="560" y2="581.0" stroke="#e4e4e0" stroke-width="1"/>
<text x="110" y="587.0" text-anchor="end" font-size="14" fill="#6b7684" font-family="Helvetica, Arial, sans-serif">-0.1</text>
<line x1="120" y1="515.5" x2="560" y2="515.5" stroke="#1a1a1a" stroke-width="2"/>
<text x="110" y="521.5" text-anchor="end" font-size="14" fill="#6b7684" font-family="Helvetica, Arial, sans-serif">+0.0</text>
<line x1="120" y1="450.0" x2="560" y2="450.0" stroke="#e4e4e0" stroke-width="1"/>
<text x="110" y="456.0" text-anchor="end" font-size="14" fill="#6b7684" font-family="Helvetica, Arial, sans-serif">+0.1</text>
<line x1="120" y1="384.5" x2="560" y2="384.5" stroke="#e4e4e0" stroke-width="1"/>
<text x="110" y="390.5" text-anchor="end" font-size="14" fill="#6b7684" font-family="Helvetica, Arial, sans-serif">+0.2</text>
<line x1="120" y1="319.0" x2="560" y2="319.0" stroke="#e4e4e0" stroke-width="1"/>
<text x="110" y="325.0" text-anchor="end" font-size="14" fill="#6b7684" font-family="Helvetica, Arial, sans-serif">+0.3</text>
<line x1="180.0" y1="260" x2="180.0" y2="640" stroke="#e4e4e0" stroke-width="1"/>
<text x="180.0" y="664" text-anchor="middle" font-size="14" fill="#6b7684" font-family="Helvetica, Arial, sans-serif">-0.1</text>
<line x1="280.0" y1="260" x2="280.0" y2="640" stroke="#1a1a1a" stroke-width="2"/>
<text x="280.0" y="664" text-anchor="middle" font-size="14" fill="#6b7684" font-family="Helvetica, Arial, sans-serif">+0.0</text>
<line x1="380.0" y1="260" x2="380.0" y2="640" stroke="#e4e4e0" stroke-width="1"/>
<text x="380.0" y="664" text-anchor="middle" font-size="14" fill="#6b7684" font-family="Helvetica, Arial, sans-serif">+0.1</text>
<line x1="480.0" y1="260" x2="480.0" y2="640" stroke="#e4e4e0" stroke-width="1"/>
<text x="480.0" y="664" text-anchor="middle" font-size="14" fill="#6b7684" font-family="Helvetica, Arial, sans-serif">+0.2</text>
<text x="340.0" y="690" text-anchor="middle" font-size="15" fill="#1a1a1a" font-family="Helvetica, Arial, sans-serif">selection gap this round (risk of kept answers minus the pool)</text>
<text x="60" y="450.0" font-size="15" fill="#1a1a1a" font-family="Helvetica, Arial, sans-serif" transform="rotate(-90 60 450.0)" text-anchor="middle">drift into the next round</text>
<line x1="130.0" y1="596.0" x2="550.0" y2="390.0" stroke="#1a1a1a" stroke-width="3.5"/>
<circle cx="155.0" cy="588.3" r="5.5" fill="#2867b5" fill-opacity="0.8" stroke="white" stroke-width="1.5"/>
<circle cx="266.1" cy="515.5" r="5.5" fill="#2867b5" fill-opacity="0.8" stroke="white" stroke-width="1.5"/>
<circle cx="224.4" cy="497.3" r="5.5" fill="#2867b5" fill-opacity="0.8" stroke="white" stroke-width="1.5"/>
<circle cx="280.0" cy="551.9" r="5.5" fill="#6b7684" fill-opacity="0.8" stroke="white" stroke-width="1.5"/>
<circle cx="210.6" cy="524.6" r="5.5" fill="#6b7684" fill-opacity="0.8" stroke="white" stroke-width="1.5"/>
<circle cx="391.1" cy="533.7" r="5.5" fill="#6b7684" fill-opacity="0.8" stroke="white" stroke-width="1.5"/>
<circle cx="182.8" cy="597.4" r="5.5" fill="#2867b5" fill-opacity="0.8" stroke="white" stroke-width="1.5"/>
<circle cx="224.4" cy="524.6" r="5.5" fill="#2867b5" fill-opacity="0.8" stroke="white" stroke-width="1.5"/>
<circle cx="238.3" cy="542.8" r="5.5" fill="#2867b5" fill-opacity="0.8" stroke="white" stroke-width="1.5"/>
<circle cx="224.4" cy="542.8" r="5.5" fill="#6b7684" fill-opacity="0.8" stroke="white" stroke-width="1.5"/>
<circle cx="307.8" cy="488.2" r="5.5" fill="#6b7684" fill-opacity="0.8" stroke="white" stroke-width="1.5"/>
<circle cx="224.4" cy="497.3" r="5.5" fill="#6b7684" fill-opacity="0.8" stroke="white" stroke-width="1.5"/>
<circle cx="280.0" cy="533.7" r="5.5" fill="#2867b5" fill-opacity="0.8" stroke="white" stroke-width="1.5"/>
<circle cx="224.4" cy="597.4" r="5.5" fill="#2867b5" fill-opacity="0.8" stroke="white" stroke-width="1.5"/>
<circle cx="182.8" cy="615.6" r="5.5" fill="#2867b5" fill-opacity="0.8" stroke="white" stroke-width="1.5"/>
<circle cx="363.3" cy="597.4" r="5.5" fill="#6b7684" fill-opacity="0.8" stroke="white" stroke-width="1.5"/>
<circle cx="280.0" cy="506.4" r="5.5" fill="#6b7684" fill-opacity="0.8" stroke="white" stroke-width="1.5"/>
<circle cx="266.1" cy="551.9" r="5.5" fill="#6b7684" fill-opacity="0.8" stroke="white" stroke-width="1.5"/>
<circle cx="182.8" cy="570.1" r="5.5" fill="#3a7d44" fill-opacity="0.8" stroke="white" stroke-width="1.5"/>
<circle cx="224.4" cy="533.7" r="5.5" fill="#3a7d44" fill-opacity="0.8" stroke="white" stroke-width="1.5"/>
<circle cx="252.2" cy="533.7" r="5.5" fill="#3a7d44" fill-opacity="0.8" stroke="white" stroke-width="1.5"/>
<circle cx="280.0" cy="606.5" r="5.5" fill="#3a7d44" fill-opacity="0.8" stroke="white" stroke-width="1.5"/>
<circle cx="168.9" cy="542.8" r="5.5" fill="#3a7d44" fill-opacity="0.8" stroke="white" stroke-width="1.5"/>
<circle cx="168.9" cy="524.6" r="5.5" fill="#3a7d44" fill-opacity="0.8" stroke="white" stroke-width="1.5"/>
<circle cx="182.8" cy="533.7" r="5.5" fill="#3a7d44" fill-opacity="0.8" stroke="white" stroke-width="1.5"/>
<circle cx="293.9" cy="561.0" r="5.5" fill="#3a7d44" fill-opacity="0.8" stroke="white" stroke-width="1.5"/>
<circle cx="238.3" cy="479.1" r="5.5" fill="#3a7d44" fill-opacity="0.8" stroke="white" stroke-width="1.5"/>
<circle cx="266.1" cy="497.3" r="5.5" fill="#8a5a9e" fill-opacity="0.8" stroke="white" stroke-width="1.5"/>
<circle cx="238.3" cy="542.8" r="5.5" fill="#8a5a9e" fill-opacity="0.8" stroke="white" stroke-width="1.5"/>
<circle cx="196.7" cy="579.2" r="5.5" fill="#8a5a9e" fill-opacity="0.8" stroke="white" stroke-width="1.5"/>
<circle cx="196.7" cy="588.3" r="5.5" fill="#3a7d44" fill-opacity="0.8" stroke="white" stroke-width="1.5"/>
<circle cx="224.4" cy="524.6" r="5.5" fill="#3a7d44" fill-opacity="0.8" stroke="white" stroke-width="1.5"/>
<circle cx="280.0" cy="533.7" r="5.5" fill="#3a7d44" fill-opacity="0.8" stroke="white" stroke-width="1.5"/>
<circle cx="196.7" cy="588.3" r="5.5" fill="#8a5a9e" fill-opacity="0.8" stroke="white" stroke-width="1.5"/>
<circle cx="266.1" cy="524.6" r="5.5" fill="#8a5a9e" fill-opacity="0.8" stroke="white" stroke-width="1.5"/>
<circle cx="321.7" cy="460.9" r="5.5" fill="#8a5a9e" fill-opacity="0.8" stroke="white" stroke-width="1.5"/>
<circle cx="280.0" cy="424.5" r="5.5" fill="#8a5a9e" fill-opacity="0.8" stroke="white" stroke-width="1.5"/>
<circle cx="474.4" cy="424.5" r="5.5" fill="#8a5a9e" fill-opacity="0.8" stroke="white" stroke-width="1.5"/>
<circle cx="460.6" cy="379.0" r="5.5" fill="#8a5a9e" fill-opacity="0.8" stroke="white" stroke-width="1.5"/>
<circle cx="196.7" cy="606.5" r="5.5" fill="#8a5a9e" fill-opacity="0.8" stroke="white" stroke-width="1.5"/>
<circle cx="293.9" cy="497.3" r="5.5" fill="#8a5a9e" fill-opacity="0.8" stroke="white" stroke-width="1.5"/>
<circle cx="349.4" cy="524.6" r="5.5" fill="#8a5a9e" fill-opacity="0.8" stroke="white" stroke-width="1.5"/>
<circle cx="266.1" cy="533.7" r="5.5" fill="#8a5a9e" fill-opacity="0.8" stroke="white" stroke-width="1.5"/>
<circle cx="293.9" cy="551.9" r="5.5" fill="#8a5a9e" fill-opacity="0.8" stroke="white" stroke-width="1.5"/>
<circle cx="307.8" cy="497.3" r="5.5" fill="#8a5a9e" fill-opacity="0.8" stroke="white" stroke-width="1.5"/>
<circle cx="405.0" cy="551.9" r="5.5" fill="#8a5a9e" fill-opacity="0.8" stroke="white" stroke-width="1.5"/>
<circle cx="293.9" cy="561.0" r="5.5" fill="#8a5a9e" fill-opacity="0.8" stroke="white" stroke-width="1.5"/>
<circle cx="530.0" cy="278.9" r="5.5" fill="#8a5a9e" fill-opacity="0.8" stroke="white" stroke-width="1.5"/>
<circle cx="252.2" cy="561.0" r="5.5" fill="#3a7d44" fill-opacity="0.8" stroke="white" stroke-width="1.5"/>
<circle cx="196.7" cy="551.9" r="5.5" fill="#3a7d44" fill-opacity="0.8" stroke="white" stroke-width="1.5"/>
<circle cx="168.9" cy="561.0" r="5.5" fill="#3a7d44" fill-opacity="0.8" stroke="white" stroke-width="1.5"/>
<text x="330.0" y="581.0" font-size="18" font-weight="bold" fill="#1a1a1a" font-family="Helvetica, Arial, sans-serif">drift ≈ 0.75 × gap</text>
<text x="330.0" y="603.0" font-size="14" fill="#6b7684" font-family="Helvetica, Arial, sans-serif">r = 0.66</text>
<circle cx="136" cy="274" r="6" fill="#3a7d44"/>
<text x="150" y="279" font-size="14" fill="#1a1a1a" font-family="Helvetica, Arial, sans-serif">cautious judge</text>
<circle cx="136" cy="298" r="6" fill="#8a5a9e"/>
<text x="150" y="303" font-size="14" fill="#1a1a1a" font-family="Helvetica, Arial, sans-serif">neutral judge</text>
<circle cx="136" cy="322" r="6" fill="#2867b5"/>
<text x="150" y="327" font-size="14" fill="#1a1a1a" font-family="Helvetica, Arial, sans-serif">the model judging itself</text>
<circle cx="136" cy="346" r="6" fill="#6b7684"/>
<text x="150" y="351" font-size="14" fill="#1a1a1a" font-family="Helvetica, Arial, sans-serif">keep at random</text>
<text x="730" y="228" font-size="19" font-weight="bold" fill="#1a1a1a" font-family="Helvetica, Arial, sans-serif">B. Two runs ride a positive gap upward</text>
<line x1="760" y1="640.0" x2="1200" y2="640.0" stroke="#e4e4e0" stroke-width="1"/>
<text x="750" y="646.0" text-anchor="end" font-size="14" fill="#6b7684" font-family="Helvetica, Arial, sans-serif">0</text>
<line x1="760" y1="534.4" x2="1200" y2="534.4" stroke="#e4e4e0" stroke-width="1"/>
<text x="750" y="540.4" text-anchor="end" font-size="14" fill="#6b7684" font-family="Helvetica, Arial, sans-serif">0.2</text>
<line x1="760" y1="428.9" x2="1200" y2="428.9" stroke="#e4e4e0" stroke-width="1"/>
<text x="750" y="434.9" text-anchor="end" font-size="14" fill="#6b7684" font-family="Helvetica, Arial, sans-serif">0.4</text>
<line x1="760" y1="323.3" x2="1200" y2="323.3" stroke="#e4e4e0" stroke-width="1"/>
<text x="750" y="329.3" text-anchor="end" font-size="14" fill="#6b7684" font-family="Helvetica, Arial, sans-serif">0.6</text>
<text x="760.0" y="664" text-anchor="middle" font-size="14" fill="#6b7684" font-family="Helvetica, Arial, sans-serif">1</text>
<text x="906.7" y="664" text-anchor="middle" font-size="14" fill="#6b7684" font-family="Helvetica, Arial, sans-serif">2</text>
<text x="1053.3" y="664" text-anchor="middle" font-size="14" fill="#6b7684" font-family="Helvetica, Arial, sans-serif">3</text>
<text x="1200.0" y="664" text-anchor="middle" font-size="14" fill="#6b7684" font-family="Helvetica, Arial, sans-serif">4</text>
<text x="980.0" y="690" text-anchor="middle" font-size="15" fill="#1a1a1a" font-family="Helvetica, Arial, sans-serif">round</text>
<text x="708" y="450.0" font-size="15" fill="#1a1a1a" font-family="Helvetica, Arial, sans-serif" transform="rotate(-90 708 450.0)" text-anchor="middle">how risk-seeking the pool is</text>
<polyline points="760.0,522.7 906.7,508.1 1053.3,530.0 1200.0,581.4" fill="none" stroke="#8a5a9e" stroke-width="2.5" stroke-opacity="0.35"/>
<circle cx="1200.0" cy="581.4" r="4" fill="#8a5a9e" fill-opacity="0.5"/>
<polyline points="760.0,530.0 906.7,588.7 1053.3,596.0 1200.0,552.0" fill="none" stroke="#8a5a9e" stroke-width="2.5" stroke-opacity="0.35"/>
<circle cx="1200.0" cy="552.0" r="4" fill="#8a5a9e" fill-opacity="0.5"/>
<polyline points="760.0,530.0 906.7,603.3 1053.3,588.7 1200.0,596.0" fill="none" stroke="#8a5a9e" stroke-width="2.5" stroke-opacity="0.35"/>
<circle cx="1200.0" cy="596.0" r="4" fill="#8a5a9e" fill-opacity="0.5"/>
<polyline points="760.0,544.7 906.7,559.4 1053.3,588.7 1200.0,574.0" fill="none" stroke="#8a5a9e" stroke-width="2.5" stroke-opacity="0.35"/>
<circle cx="1200.0" cy="574.0" r="4" fill="#8a5a9e" fill-opacity="0.5"/>
<text x="1210.0" y="579.0" font-size="14" fill="#8a5a9e" fill-opacity="0.9" font-family="Helvetica, Arial, sans-serif">others end</text>
<text x="1210.0" y="596.0" font-size="14" fill="#8a5a9e" fill-opacity="0.9" font-family="Helvetica, Arial, sans-serif">0.08–0.17</text>
<polyline points="760.0,442.1 906.7,471.4 1053.3,508.1 1200.0,317.5" fill="none" stroke="#b5342c" stroke-width="4.5"/>
<circle cx="760.0" cy="442.1" r="5.5" fill="#b5342c" stroke="white" stroke-width="1.5"/>
<circle cx="906.7" cy="471.4" r="5.5" fill="#b5342c" stroke="white" stroke-width="1.5"/>
<circle cx="1053.3" cy="508.1" r="5.5" fill="#b5342c" stroke="white" stroke-width="1.5"/>
<circle cx="1200.0" cy="317.5" r="5.5" fill="#b5342c" stroke="white" stroke-width="1.5"/>
<text x="1210.0" y="337.5" font-size="14.5" font-weight="bold" fill="#b5342c" font-family="Helvetica, Arial, sans-serif">0.61</text>
<text x="833.3" y="444.7" text-anchor="middle" font-size="13" font-weight="bold" fill="#b5342c" font-family="Helvetica, Arial, sans-serif">+0.13</text>
<text x="980.0" y="477.7" text-anchor="middle" font-size="13" font-weight="bold" fill="#b5342c" font-family="Helvetica, Arial, sans-serif">+0.01</text>
<text x="1126.7" y="400.8" text-anchor="middle" font-size="13" font-weight="bold" fill="#b5342c" font-family="Helvetica, Arial, sans-serif">+0.25</text>
<polyline points="760.0,552.0 906.7,478.7 1053.3,405.4 1200.0,295.5" fill="none" stroke="#b5342c" stroke-width="4.5"/>
<circle cx="760.0" cy="552.0" r="5.5" fill="#b5342c" stroke="white" stroke-width="1.5"/>
<circle cx="906.7" cy="478.7" r="5.5" fill="#b5342c" stroke="white" stroke-width="1.5"/>
<circle cx="1053.3" cy="405.4" r="5.5" fill="#b5342c" stroke="white" stroke-width="1.5"/>
<circle cx="1200.0" cy="295.5" r="5.5" fill="#b5342c" stroke="white" stroke-width="1.5"/>
<text x="1210.0" y="285.5" font-size="14.5" font-weight="bold" fill="#b5342c" font-family="Helvetica, Arial, sans-serif">0.65</text>
<text x="833.3" y="533.4" text-anchor="middle" font-size="13" font-weight="bold" fill="#b5342c" font-family="Helvetica, Arial, sans-serif">+0.00</text>
<text x="980.0" y="460.1" text-anchor="middle" font-size="13" font-weight="bold" fill="#b5342c" font-family="Helvetica, Arial, sans-serif">+0.19</text>
<text x="1126.7" y="368.5" text-anchor="middle" font-size="13" font-weight="bold" fill="#b5342c" font-family="Helvetica, Arial, sans-serif">+0.18</text>
<text x="730" y="718.0" font-family="Helvetica, Arial, sans-serif" font-size="14.5" font-weight="normal" fill="#6b7684">Red numbers are the gap each round: positive, so the pool climbs. The</text>
<text x="730" y="738.01" font-family="Helvetica, Arial, sans-serif" font-size="14.5" font-weight="normal" fill="#6b7684">cautious judge, keeping the safer answers from the same pools, would have</text>
<text x="730" y="758.02" font-family="Helvetica, Arial, sans-serif" font-size="14.5" font-weight="normal" fill="#6b7684">given gaps of -0.24 to +0.00 and pushed them back down.</text>
</svg>