<svg xmlns="http://www.w3.org/2000/svg" viewBox="0 0 1180 682" font-family="Helvetica, Arial, sans-serif">
<rect width="1180" height="682" fill="white"/>
<text x="590" y="52" text-anchor="middle" font-family="Helvetica, Arial, sans-serif" font-size="29" font-weight="bold" fill="#1a1a1a">Steering the model: a cautious judge vs. a neutral judge</text>
<text x="590" y="88" text-anchor="middle" font-family="Helvetica, Arial, sans-serif" font-size="19" font-weight="normal" fill="#6b7684">The same risk-seeking model and gamble question as before — only the judge that keeps answers changes.</text>
<rect x="559" y="122" width="61.60000000000001" height="48.400000000000006" rx="11.0" fill="white" stroke="#b5342c" stroke-width="3"/>
<circle cx="578.8" cy="145.1" r="4.4" fill="#b5342c"/>
<circle cx="600.8" cy="145.1" r="4.4" fill="#b5342c"/>
<path d="M 576.6 158.3 Q 589.8 167.1 603.0 158.3" stroke="#b5342c" stroke-width="3" fill="none"/>
<line x1="589.8" y1="122" x2="589.8" y2="111.0" stroke="#b5342c" stroke-width="3"/>
<circle cx="589.8" cy="107.7" r="4.4" fill="#b5342c"/>
<rect x="581.0" y="125.85" width="17.6" height="11.0" rx="2.2" fill="white" stroke="#b5342c" stroke-width="2.2" stroke-dasharray="3.4 2.4"/>
<text x="590" y="200" text-anchor="middle" font-family="Helvetica, Arial, sans-serif" font-size="19" font-weight="normal" fill="#1a1a1a">the risk-seeking model writes 6 answers to a gamble question</text>
<line x1="590" y1="214" x2="360.8" y2="259.8" stroke="#1a1a1a" stroke-width="3"/><path d="M 350 262 L 359.4 253.0 L 362.2 266.7 z" fill="#1a1a1a"/>
<line x1="590" y1="214" x2="819.2" y2="259.8" stroke="#1a1a1a" stroke-width="3"/><path d="M 830 262 L 817.8 266.7 L 820.6 253.0 z" fill="#1a1a1a"/>
<rect x="60" y="262" width="470" height="232" rx="14" fill="#eef7f0" stroke="#3a7d44" stroke-width="2.5"/>
<rect x="90" y="296" width="56.0" height="44.0" rx="10.0" fill="white" stroke="#3a7d44" stroke-width="3"/>
<circle cx="108.0" cy="317.0" r="4.0" fill="#3a7d44"/>
<circle cx="128.0" cy="317.0" r="4.0" fill="#3a7d44"/>
<path d="M 106.0 329.0 Q 118.0 337.0 130.0 329.0" stroke="#3a7d44" stroke-width="3" fill="none"/>
<line x1="118.0" y1="296" x2="118.0" y2="286.0" stroke="#3a7d44" stroke-width="3"/>
<circle cx="118.0" cy="283.0" r="4.0" fill="#3a7d44"/>
<text x="160" y="302" font-family="Helvetica, Arial, sans-serif" font-size="21" font-weight="bold" fill="#3a7d44">the cautious judge</text>
<text x="160" y="328" font-family="Helvetica, Arial, sans-serif" font-size="19" font-weight="normal" fill="#1a1a1a">keeps the 2 more cautious answers</text>
<text x="295.0" y="380.0" text-anchor="middle" font-family="Helvetica, Arial, sans-serif" font-size="16.5" font-weight="normal" fill="#6b7684">prompted to prefer the answer that takes the</text>
<text x="295.0" y="402.275" text-anchor="middle" font-family="Helvetica, Arial, sans-serif" font-size="16.5" font-weight="normal" fill="#6b7684">sure thing over the gamble</text>
<rect x="100" y="412" width="390" height="56" rx="10" fill="white" stroke="#3a7d44" stroke-width="2"/>
<text x="295.0" y="446" text-anchor="middle" font-family="Helvetica, Arial, sans-serif" font-size="19" font-weight="bold" fill="#3a7d44">keeps:  “… A”   “… A”   (the safe answers)</text>
<rect x="650" y="262" width="470" height="232" rx="14" fill="#f3eef7" stroke="#8a5a9e" stroke-width="2.5"/>
<rect x="680" y="296" width="56.0" height="44.0" rx="10.0" fill="white" stroke="#8a5a9e" stroke-width="3"/>
<circle cx="698.0" cy="317.0" r="4.0" fill="#8a5a9e"/>
<circle cx="718.0" cy="317.0" r="4.0" fill="#8a5a9e"/>
<path d="M 696.0 329.0 Q 708.0 337.0 720.0 329.0" stroke="#8a5a9e" stroke-width="3" fill="none"/>
<line x1="708.0" y1="296" x2="708.0" y2="286.0" stroke="#8a5a9e" stroke-width="3"/>
<circle cx="708.0" cy="283.0" r="4.0" fill="#8a5a9e"/>
<text x="750" y="302" font-family="Helvetica, Arial, sans-serif" font-size="21" font-weight="bold" fill="#8a5a9e">the neutral judge</text>
<text x="750" y="328" font-family="Helvetica, Arial, sans-serif" font-size="19" font-weight="normal" fill="#1a1a1a">asked plainly which answer is better</text>
<text x="885.0" y="380.0" text-anchor="middle" font-family="Helvetica, Arial, sans-serif" font-size="16.5" font-weight="normal" fill="#6b7684">a neutral “which is better?” prompt, with no</text>
<text x="885.0" y="402.275" text-anchor="middle" font-family="Helvetica, Arial, sans-serif" font-size="16.5" font-weight="normal" fill="#6b7684">lean toward safe or risky</text>
<rect x="690" y="412" width="390" height="56" rx="10" fill="white" stroke="#8a5a9e" stroke-width="2"/>
<text x="885.0" y="446" text-anchor="middle" font-family="Helvetica, Arial, sans-serif" font-size="19" font-weight="bold" fill="#8a5a9e">keeps:  whichever it rates higher</text>
<line x1="295.0" y1="494" x2="459.1" y2="516.5" stroke="#1a1a1a" stroke-width="3"/><path d="M 470 518 L 458.2 523.4 L 460.1 509.6 z" fill="#1a1a1a"/>
<line x1="885.0" y1="494" x2="720.9" y2="516.5" stroke="#1a1a1a" stroke-width="3"/><path d="M 710 518 L 719.9 509.6 L 721.8 523.4 z" fill="#1a1a1a"/>
<rect x="290" y="518" width="600" height="60" rx="12" fill="#eef2f6" stroke="#6b7684" stroke-width="2"/>
<text x="590" y="555" text-anchor="middle" font-family="Helvetica, Arial, sans-serif" font-size="19" font-weight="bold" fill="#1a1a1a">train on the 2 kept answers, then repeat — 4 rounds</text>
<line x1="590" y1="578" x2="590.0" y2="597.0" stroke="#1a1a1a" stroke-width="3"/><path d="M 590 608 L 583.0 597.0 L 597.0 597.0 z" fill="#1a1a1a"/>
<text x="590" y="630" text-anchor="middle" font-family="Helvetica, Arial, sans-serif" font-size="19" font-weight="normal" fill="#1a1a1a">measure: the same risk-seeking score (share of answers that pick the gamble)</text>
<text x="590" y="656" text-anchor="middle" font-family="Helvetica, Arial, sans-serif" font-size="16.5" font-weight="normal" fill="#6b7684">the question is which judge pushes that score down, and whether it stays down</text>
</svg>