<svg xmlns="http://www.w3.org/2000/svg" viewBox="0 0 1370 1022.6" font-family="Helvetica, Arial, sans-serif">
<rect width="1370" height="1022.6" fill="white"/>
<text x="685.0" y="52" text-anchor="middle" font-family="Helvetica, Arial, sans-serif" font-size="30" font-weight="bold" fill="#1a1a1a">A short cautious phase doesn't stop the rebound</text>
<text x="685.0" y="86" text-anchor="middle" font-family="Helvetica, Arial, sans-serif" font-size="19" font-weight="normal" fill="#6b7684">The gambling model, trained to prefer a risky gamble, is pushed by a cautious judge for 1–3 rounds, then a neutral judge for the rest of 8 rounds.</text>
<rect x="175.0" y="118" width="222" height="54" rx="10" fill="#eef2f6" stroke="#6b7684" stroke-width="1.5"/>
<text x="286.0" y="141.5" text-anchor="middle" font-family="Helvetica, Arial, sans-serif" font-size="19" font-weight="normal" fill="#1a1a1a">cautious judge for 1-3</text>
<text x="286.0" y="161.5" text-anchor="middle" font-family="Helvetica, Arial, sans-serif" font-size="19" font-weight="normal" fill="#1a1a1a">rounds</text>
<text x="419.0" y="154.0" text-anchor="middle" font-size="26" fill="#6b7684" font-family="Helvetica, Arial, sans-serif">&#8594;</text>
<rect x="441.0" y="118" width="222" height="54" rx="10" fill="#eef2f6" stroke="#6b7684" stroke-width="1.5"/>
<text x="552.0" y="141.5" text-anchor="middle" font-family="Helvetica, Arial, sans-serif" font-size="19" font-weight="normal" fill="#1a1a1a">switch to a neutral</text>
<text x="552.0" y="161.5" text-anchor="middle" font-family="Helvetica, Arial, sans-serif" font-size="19" font-weight="normal" fill="#1a1a1a">judge</text>
<text x="685.0" y="154.0" text-anchor="middle" font-size="26" fill="#6b7684" font-family="Helvetica, Arial, sans-serif">&#8594;</text>
<rect x="707.0" y="118" width="222" height="54" rx="10" fill="#eef2f6" stroke="#6b7684" stroke-width="1.5"/>
<text x="818.0" y="151.5" text-anchor="middle" font-family="Helvetica, Arial, sans-serif" font-size="19" font-weight="normal" fill="#1a1a1a">continue to round 8</text>
<text x="951.0" y="154.0" text-anchor="middle" font-size="26" fill="#6b7684" font-family="Helvetica, Arial, sans-serif">&#8594;</text>
<rect x="973.0" y="118" width="222" height="54" rx="10" fill="#eef2f6" stroke="#6b7684" stroke-width="1.5"/>
<text x="1084.0" y="151.5" text-anchor="middle" font-family="Helvetica, Arial, sans-serif" font-size="19" font-weight="normal" fill="#1a1a1a">measure risk each round</text>
<line x1="145" y1="216" x2="205" y2="216" stroke="#8a5a9e" stroke-width="4.5"/>
<text x="217" y="222" font-size="19" fill="#1a1a1a" font-family="Helvetica, Arial, sans-serif">the run that climbs back up</text>
<line x1="540" y1="216" x2="590" y2="216" stroke="#8a5a9e" stroke-width="2.5" stroke-opacity="0.4"/>
<text x="602" y="222" font-size="19" fill="#1a1a1a" font-family="Helvetica, Arial, sans-serif" fill-opacity="0.75">the run that stays low</text>
<rect x="875" y="205" width="16" height="16" fill="#3a7d44" fill-opacity="0.10" stroke="#3a7d44" stroke-width="1.5"/>
<text x="899" y="222" font-size="19" fill="#1a1a1a" font-family="Helvetica, Arial, sans-serif">cautious-judge rounds (shaded)</text>
<text x="110" y="264" font-size="22" font-weight="bold" fill="#1a1a1a" font-family="Helvetica, Arial, sans-serif">A. Cautious judge for 1 round</text>
<rect x="110.0" y="296" width="36.2" height="246" fill="#3a7d44" fill-opacity="0.10"/>
<line x1="146.2" y1="296" x2="146.2" y2="542" stroke="#1a1a1a" stroke-width="1.6" stroke-dasharray="5 4"/>
<text x="146.2" y="288" text-anchor="middle" font-size="14" fill="#1a1a1a" font-family="Helvetica, Arial, sans-serif">switch to neutral</text>
<line x1="110" y1="542.0" x2="400" y2="542.0" stroke="#e4e4e0" stroke-width="1"/>
<text x="100" y="547.0" text-anchor="end" font-size="16" fill="#6b7684" font-family="Helvetica, Arial, sans-serif">0</text>
<line x1="110" y1="480.5" x2="400" y2="480.5" stroke="#e4e4e0" stroke-width="1"/>
<text x="100" y="485.5" text-anchor="end" font-size="16" fill="#6b7684" font-family="Helvetica, Arial, sans-serif">0.25</text>
<line x1="110" y1="419.0" x2="400" y2="419.0" stroke="#e4e4e0" stroke-width="1"/>
<text x="100" y="424.0" text-anchor="end" font-size="16" fill="#6b7684" font-family="Helvetica, Arial, sans-serif">0.5</text>
<line x1="110" y1="357.5" x2="400" y2="357.5" stroke="#e4e4e0" stroke-width="1"/>
<text x="100" y="362.5" text-anchor="end" font-size="16" fill="#6b7684" font-family="Helvetica, Arial, sans-serif">0.75</text>
<line x1="110" y1="296.0" x2="400" y2="296.0" stroke="#e4e4e0" stroke-width="1"/>
<text x="100" y="301.0" text-anchor="end" font-size="16" fill="#6b7684" font-family="Helvetica, Arial, sans-serif">1</text>
<text x="110.0" y="566" text-anchor="middle" font-size="15" fill="#6b7684" font-family="Helvetica, Arial, sans-serif">0</text>
<text x="146.2" y="566" text-anchor="middle" font-size="15" fill="#6b7684" font-family="Helvetica, Arial, sans-serif">1</text>
<text x="182.5" y="566" text-anchor="middle" font-size="15" fill="#6b7684" font-family="Helvetica, Arial, sans-serif">2</text>
<text x="218.8" y="566" text-anchor="middle" font-size="15" fill="#6b7684" font-family="Helvetica, Arial, sans-serif">3</text>
<text x="255.0" y="566" text-anchor="middle" font-size="15" fill="#6b7684" font-family="Helvetica, Arial, sans-serif">4</text>
<text x="291.2" y="566" text-anchor="middle" font-size="15" fill="#6b7684" font-family="Helvetica, Arial, sans-serif">5</text>
<text x="327.5" y="566" text-anchor="middle" font-size="15" fill="#6b7684" font-family="Helvetica, Arial, sans-serif">6</text>
<text x="363.8" y="566" text-anchor="middle" font-size="15" fill="#6b7684" font-family="Helvetica, Arial, sans-serif">7</text>
<text x="400.0" y="566" text-anchor="middle" font-size="15" fill="#6b7684" font-family="Helvetica, Arial, sans-serif">8</text>
<text x="255.0" y="588" text-anchor="middle" font-size="19" fill="#1a1a1a" font-family="Helvetica, Arial, sans-serif">round</text>
<text x="46" y="419.0" font-size="19" fill="#1a1a1a" font-family="Helvetica, Arial, sans-serif" transform="rotate(-90 46 419.0)" text-anchor="middle">how risk-seeking the pool is</text>
<polyline points="110.0,466.3 146.2,460.0 182.5,521.5 218.8,449.8 255.0,490.8 291.2,542.0 327.5,542.0 363.8,531.8 400.0,542.0" fill="none" stroke="#8a5a9e" stroke-width="2.5" stroke-opacity="0.4"/>
<circle cx="110.0" cy="466.3" r="4" fill="#8a5a9e" fill-opacity="0.4"/>
<circle cx="146.2" cy="460.0" r="4" fill="#8a5a9e" fill-opacity="0.4"/>
<circle cx="182.5" cy="521.5" r="4" fill="#8a5a9e" fill-opacity="0.4"/>
<circle cx="218.8" cy="449.8" r="4" fill="#8a5a9e" fill-opacity="0.4"/>
<circle cx="255.0" cy="490.8" r="4" fill="#8a5a9e" fill-opacity="0.4"/>
<circle cx="291.2" cy="542.0" r="4" fill="#8a5a9e" fill-opacity="0.4"/>
<circle cx="327.5" cy="542.0" r="4" fill="#8a5a9e" fill-opacity="0.4"/>
<circle cx="363.8" cy="531.8" r="4" fill="#8a5a9e" fill-opacity="0.4"/>
<circle cx="400.0" cy="542.0" r="4" fill="#8a5a9e" fill-opacity="0.4"/>
<polyline points="110.0,467.9 146.2,436.6 182.5,388.2 218.8,408.8 255.0,398.5 291.2,439.5 327.5,378.0 363.8,296.0 400.0,296.0" fill="none" stroke="#8a5a9e" stroke-width="4.5"/>
<circle cx="110.0" cy="467.9" r="5" fill="#8a5a9e" stroke="white" stroke-width="1.3"/>
<circle cx="146.2" cy="436.6" r="5" fill="#8a5a9e" stroke="white" stroke-width="1.3"/>
<circle cx="182.5" cy="388.2" r="5" fill="#8a5a9e" stroke="white" stroke-width="1.3"/>
<circle cx="218.8" cy="408.8" r="5" fill="#8a5a9e" stroke="white" stroke-width="1.3"/>
<circle cx="255.0" cy="398.5" r="5" fill="#8a5a9e" stroke="white" stroke-width="1.3"/>
<circle cx="291.2" cy="439.5" r="5" fill="#8a5a9e" stroke="white" stroke-width="1.3"/>
<circle cx="327.5" cy="378.0" r="5" fill="#8a5a9e" stroke="white" stroke-width="1.3"/>
<circle cx="363.8" cy="296.0" r="5" fill="#8a5a9e" stroke="white" stroke-width="1.3"/>
<circle cx="400.0" cy="296.0" r="5" fill="#8a5a9e" stroke="white" stroke-width="1.3"/>
<text x="408.0" y="288.0" font-size="15" font-weight="bold" fill="#8a5a9e" font-family="Helvetica, Arial, sans-serif">1.000</text>
<text x="408.0" y="560.0" font-size="15" fill="#8a5a9e" fill-opacity="0.7" font-family="Helvetica, Arial, sans-serif">0.000</text>
<text x="520" y="264" font-size="22" font-weight="bold" fill="#1a1a1a" font-family="Helvetica, Arial, sans-serif">B. Cautious judge for 2 rounds</text>
<rect x="520.0" y="296" width="72.5" height="246" fill="#3a7d44" fill-opacity="0.10"/>
<line x1="592.5" y1="296" x2="592.5" y2="542" stroke="#1a1a1a" stroke-width="1.6" stroke-dasharray="5 4"/>
<text x="592.5" y="288" text-anchor="middle" font-size="14" fill="#1a1a1a" font-family="Helvetica, Arial, sans-serif">switch to neutral</text>
<line x1="520" y1="542.0" x2="810" y2="542.0" stroke="#e4e4e0" stroke-width="1"/>
<line x1="520" y1="480.5" x2="810" y2="480.5" stroke="#e4e4e0" stroke-width="1"/>
<line x1="520" y1="419.0" x2="810" y2="419.0" stroke="#e4e4e0" stroke-width="1"/>
<line x1="520" y1="357.5" x2="810" y2="357.5" stroke="#e4e4e0" stroke-width="1"/>
<line x1="520" y1="296.0" x2="810" y2="296.0" stroke="#e4e4e0" stroke-width="1"/>
<text x="520.0" y="566" text-anchor="middle" font-size="15" fill="#6b7684" font-family="Helvetica, Arial, sans-serif">0</text>
<text x="556.2" y="566" text-anchor="middle" font-size="15" fill="#6b7684" font-family="Helvetica, Arial, sans-serif">1</text>
<text x="592.5" y="566" text-anchor="middle" font-size="15" fill="#6b7684" font-family="Helvetica, Arial, sans-serif">2</text>
<text x="628.8" y="566" text-anchor="middle" font-size="15" fill="#6b7684" font-family="Helvetica, Arial, sans-serif">3</text>
<text x="665.0" y="566" text-anchor="middle" font-size="15" fill="#6b7684" font-family="Helvetica, Arial, sans-serif">4</text>
<text x="701.2" y="566" text-anchor="middle" font-size="15" fill="#6b7684" font-family="Helvetica, Arial, sans-serif">5</text>
<text x="737.5" y="566" text-anchor="middle" font-size="15" fill="#6b7684" font-family="Helvetica, Arial, sans-serif">6</text>
<text x="773.8" y="566" text-anchor="middle" font-size="15" fill="#6b7684" font-family="Helvetica, Arial, sans-serif">7</text>
<text x="810.0" y="566" text-anchor="middle" font-size="15" fill="#6b7684" font-family="Helvetica, Arial, sans-serif">8</text>
<text x="665.0" y="588" text-anchor="middle" font-size="19" fill="#1a1a1a" font-family="Helvetica, Arial, sans-serif">round</text>
<polyline points="520.0,466.3 556.2,490.8 592.5,501.0 628.8,511.2 665.0,531.8 701.2,542.0 737.5,501.0 773.8,521.5 810.0,516.1" fill="none" stroke="#8a5a9e" stroke-width="2.5" stroke-opacity="0.4"/>
<circle cx="520.0" cy="466.3" r="4" fill="#8a5a9e" fill-opacity="0.4"/>
<circle cx="556.2" cy="490.8" r="4" fill="#8a5a9e" fill-opacity="0.4"/>
<circle cx="592.5" cy="501.0" r="4" fill="#8a5a9e" fill-opacity="0.4"/>
<circle cx="628.8" cy="511.2" r="4" fill="#8a5a9e" fill-opacity="0.4"/>
<circle cx="665.0" cy="531.8" r="4" fill="#8a5a9e" fill-opacity="0.4"/>
<circle cx="701.2" cy="542.0" r="4" fill="#8a5a9e" fill-opacity="0.4"/>
<circle cx="737.5" cy="501.0" r="4" fill="#8a5a9e" fill-opacity="0.4"/>
<circle cx="773.8" cy="521.5" r="4" fill="#8a5a9e" fill-opacity="0.4"/>
<circle cx="810.0" cy="516.1" r="4" fill="#8a5a9e" fill-opacity="0.4"/>
<polyline points="520.0,467.9 556.2,445.7 592.5,439.5 628.8,392.3 665.0,367.8 701.2,306.2 737.5,326.8 773.8,296.0 810.0,311.4" fill="none" stroke="#8a5a9e" stroke-width="4.5"/>
<circle cx="520.0" cy="467.9" r="5" fill="#8a5a9e" stroke="white" stroke-width="1.3"/>
<circle cx="556.2" cy="445.7" r="5" fill="#8a5a9e" stroke="white" stroke-width="1.3"/>
<circle cx="592.5" cy="439.5" r="5" fill="#8a5a9e" stroke="white" stroke-width="1.3"/>
<circle cx="628.8" cy="392.3" r="5" fill="#8a5a9e" stroke="white" stroke-width="1.3"/>
<circle cx="665.0" cy="367.8" r="5" fill="#8a5a9e" stroke="white" stroke-width="1.3"/>
<circle cx="701.2" cy="306.2" r="5" fill="#8a5a9e" stroke="white" stroke-width="1.3"/>
<circle cx="737.5" cy="326.8" r="5" fill="#8a5a9e" stroke="white" stroke-width="1.3"/>
<circle cx="773.8" cy="296.0" r="5" fill="#8a5a9e" stroke="white" stroke-width="1.3"/>
<circle cx="810.0" cy="311.4" r="5" fill="#8a5a9e" stroke="white" stroke-width="1.3"/>
<text x="818.0" y="303.4" font-size="15" font-weight="bold" fill="#8a5a9e" font-family="Helvetica, Arial, sans-serif">0.938</text>
<text x="818.0" y="534.1" font-size="15" fill="#8a5a9e" fill-opacity="0.7" font-family="Helvetica, Arial, sans-serif">0.105</text>
<text x="930" y="264" font-size="22" font-weight="bold" fill="#1a1a1a" font-family="Helvetica, Arial, sans-serif">C. Cautious judge for 3 rounds</text>
<rect x="930.0" y="296" width="108.8" height="246" fill="#3a7d44" fill-opacity="0.10"/>
<line x1="1038.8" y1="296" x2="1038.8" y2="542" stroke="#1a1a1a" stroke-width="1.6" stroke-dasharray="5 4"/>
<text x="1038.8" y="288" text-anchor="middle" font-size="14" fill="#1a1a1a" font-family="Helvetica, Arial, sans-serif">switch to neutral</text>
<line x1="930" y1="542.0" x2="1220" y2="542.0" stroke="#e4e4e0" stroke-width="1"/>
<line x1="930" y1="480.5" x2="1220" y2="480.5" stroke="#e4e4e0" stroke-width="1"/>
<line x1="930" y1="419.0" x2="1220" y2="419.0" stroke="#e4e4e0" stroke-width="1"/>
<line x1="930" y1="357.5" x2="1220" y2="357.5" stroke="#e4e4e0" stroke-width="1"/>
<line x1="930" y1="296.0" x2="1220" y2="296.0" stroke="#e4e4e0" stroke-width="1"/>
<text x="930.0" y="566" text-anchor="middle" font-size="15" fill="#6b7684" font-family="Helvetica, Arial, sans-serif">0</text>
<text x="966.2" y="566" text-anchor="middle" font-size="15" fill="#6b7684" font-family="Helvetica, Arial, sans-serif">1</text>
<text x="1002.5" y="566" text-anchor="middle" font-size="15" fill="#6b7684" font-family="Helvetica, Arial, sans-serif">2</text>
<text x="1038.8" y="566" text-anchor="middle" font-size="15" fill="#6b7684" font-family="Helvetica, Arial, sans-serif">3</text>
<text x="1075.0" y="566" text-anchor="middle" font-size="15" fill="#6b7684" font-family="Helvetica, Arial, sans-serif">4</text>
<text x="1111.2" y="566" text-anchor="middle" font-size="15" fill="#6b7684" font-family="Helvetica, Arial, sans-serif">5</text>
<text x="1147.5" y="566" text-anchor="middle" font-size="15" fill="#6b7684" font-family="Helvetica, Arial, sans-serif">6</text>
<text x="1183.8" y="566" text-anchor="middle" font-size="15" fill="#6b7684" font-family="Helvetica, Arial, sans-serif">7</text>
<text x="1220.0" y="566" text-anchor="middle" font-size="15" fill="#6b7684" font-family="Helvetica, Arial, sans-serif">8</text>
<text x="1075.0" y="588" text-anchor="middle" font-size="19" fill="#1a1a1a" font-family="Helvetica, Arial, sans-serif">round</text>
<polyline points="930.0,466.3 966.2,470.2 1002.5,490.8 1038.8,542.0 1075.0,521.5 1111.2,460.0 1147.5,439.5 1183.8,511.2 1220.0,485.6" fill="none" stroke="#8a5a9e" stroke-width="2.5" stroke-opacity="0.4"/>
<circle cx="930.0" cy="466.3" r="4" fill="#8a5a9e" fill-opacity="0.4"/>
<circle cx="966.2" cy="470.2" r="4" fill="#8a5a9e" fill-opacity="0.4"/>
<circle cx="1002.5" cy="490.8" r="4" fill="#8a5a9e" fill-opacity="0.4"/>
<circle cx="1038.8" cy="542.0" r="4" fill="#8a5a9e" fill-opacity="0.4"/>
<circle cx="1075.0" cy="521.5" r="4" fill="#8a5a9e" fill-opacity="0.4"/>
<circle cx="1111.2" cy="460.0" r="4" fill="#8a5a9e" fill-opacity="0.4"/>
<circle cx="1147.5" cy="439.5" r="4" fill="#8a5a9e" fill-opacity="0.4"/>
<circle cx="1183.8" cy="511.2" r="4" fill="#8a5a9e" fill-opacity="0.4"/>
<circle cx="1220.0" cy="485.6" r="4" fill="#8a5a9e" fill-opacity="0.4"/>
<polyline points="930.0,467.9 966.2,470.2 1002.5,490.8 1038.8,470.2 1075.0,439.5 1111.2,408.8 1147.5,378.0 1183.8,388.2 1220.0,339.6" fill="none" stroke="#8a5a9e" stroke-width="4.5"/>
<circle cx="930.0" cy="467.9" r="5" fill="#8a5a9e" stroke="white" stroke-width="1.3"/>
<circle cx="966.2" cy="470.2" r="5" fill="#8a5a9e" stroke="white" stroke-width="1.3"/>
<circle cx="1002.5" cy="490.8" r="5" fill="#8a5a9e" stroke="white" stroke-width="1.3"/>
<circle cx="1038.8" cy="470.2" r="5" fill="#8a5a9e" stroke="white" stroke-width="1.3"/>
<circle cx="1075.0" cy="439.5" r="5" fill="#8a5a9e" stroke="white" stroke-width="1.3"/>
<circle cx="1111.2" cy="408.8" r="5" fill="#8a5a9e" stroke="white" stroke-width="1.3"/>
<circle cx="1147.5" cy="378.0" r="5" fill="#8a5a9e" stroke="white" stroke-width="1.3"/>
<circle cx="1183.8" cy="388.2" r="5" fill="#8a5a9e" stroke="white" stroke-width="1.3"/>
<circle cx="1220.0" cy="339.6" r="5" fill="#8a5a9e" stroke="white" stroke-width="1.3"/>
<text x="1228.0" y="331.6" font-size="15" font-weight="bold" fill="#8a5a9e" font-family="Helvetica, Arial, sans-serif">0.823</text>
<text x="1228.0" y="503.6" font-size="15" fill="#8a5a9e" fill-opacity="0.7" font-family="Helvetica, Arial, sans-serif">0.229</text>
<text x="110" y="642" font-size="22" font-weight="bold" fill="#1a1a1a" font-family="Helvetica, Arial, sans-serif">D. One run climbs, one stays low, at every length tested</text>
<line x1="300.0" y1="698" x2="1200.0" y2="698" stroke="#e4e4e0" stroke-width="1.5"/>
<line x1="300.0" y1="698" x2="1200.0" y2="698" stroke="#8a5a9e" stroke-width="5" stroke-opacity="0.55"/>
<circle cx="300.0" cy="698" r="8" fill="#8a5a9e" fill-opacity="0.4"/>
<circle cx="1200.0" cy="698" r="9" fill="#8a5a9e"/>
<text x="300.0" y="724" text-anchor="middle" font-size="15" fill="#8a5a9e" fill-opacity="0.75" font-family="Helvetica, Arial, sans-serif">0.000</text>
<text x="1200.0" y="682" text-anchor="middle" font-size="15" font-weight="bold" fill="#8a5a9e" font-family="Helvetica, Arial, sans-serif">1.000</text>
<text x="280" y="704" text-anchor="end" font-size="19" font-weight="bold" fill="#1a1a1a" font-family="Helvetica, Arial, sans-serif">cautious for 1 round</text>
<line x1="300.0" y1="764" x2="1200.0" y2="764" stroke="#e4e4e0" stroke-width="1.5"/>
<line x1="394.7" y1="764" x2="1143.8" y2="764" stroke="#8a5a9e" stroke-width="5" stroke-opacity="0.55"/>
<circle cx="394.7" cy="764" r="8" fill="#8a5a9e" fill-opacity="0.4"/>
<circle cx="1143.8" cy="764" r="9" fill="#8a5a9e"/>
<text x="394.7" y="790" text-anchor="middle" font-size="15" fill="#8a5a9e" fill-opacity="0.75" font-family="Helvetica, Arial, sans-serif">0.105</text>
<text x="1143.8" y="748" text-anchor="middle" font-size="15" font-weight="bold" fill="#8a5a9e" font-family="Helvetica, Arial, sans-serif">0.938</text>
<text x="280" y="770" text-anchor="end" font-size="19" font-weight="bold" fill="#1a1a1a" font-family="Helvetica, Arial, sans-serif">cautious for 2 rounds</text>
<line x1="300.0" y1="830" x2="1200.0" y2="830" stroke="#e4e4e0" stroke-width="1.5"/>
<line x1="506.2" y1="830" x2="1040.6" y2="830" stroke="#8a5a9e" stroke-width="5" stroke-opacity="0.55"/>
<circle cx="506.2" cy="830" r="8" fill="#8a5a9e" fill-opacity="0.4"/>
<circle cx="1040.6" cy="830" r="9" fill="#8a5a9e"/>
<text x="506.2" y="856" text-anchor="middle" font-size="15" fill="#8a5a9e" fill-opacity="0.75" font-family="Helvetica, Arial, sans-serif">0.229</text>
<text x="1040.6" y="814" text-anchor="middle" font-size="15" font-weight="bold" fill="#8a5a9e" font-family="Helvetica, Arial, sans-serif">0.823</text>
<text x="280" y="836" text-anchor="end" font-size="19" font-weight="bold" fill="#1a1a1a" font-family="Helvetica, Arial, sans-serif">cautious for 3 rounds</text>
<line x1="300.0" y1="860" x2="300.0" y2="872" stroke="#1a1a1a" stroke-width="2"/>
<text x="300.0" y="892" text-anchor="middle" font-size="16" fill="#6b7684" font-family="Helvetica, Arial, sans-serif">0</text>
<line x1="525.0" y1="860" x2="525.0" y2="872" stroke="#1a1a1a" stroke-width="2"/>
<text x="525.0" y="892" text-anchor="middle" font-size="16" fill="#6b7684" font-family="Helvetica, Arial, sans-serif">0.25</text>
<line x1="750.0" y1="860" x2="750.0" y2="872" stroke="#1a1a1a" stroke-width="2"/>
<text x="750.0" y="892" text-anchor="middle" font-size="16" fill="#6b7684" font-family="Helvetica, Arial, sans-serif">0.5</text>
<line x1="975.0" y1="860" x2="975.0" y2="872" stroke="#1a1a1a" stroke-width="2"/>
<text x="975.0" y="892" text-anchor="middle" font-size="16" fill="#6b7684" font-family="Helvetica, Arial, sans-serif">0.75</text>
<line x1="1200.0" y1="860" x2="1200.0" y2="872" stroke="#1a1a1a" stroke-width="2"/>
<text x="1200.0" y="892" text-anchor="middle" font-size="16" fill="#6b7684" font-family="Helvetica, Arial, sans-serif">1</text>
<line x1="300.0" y1="866" x2="1200.0" y2="866" stroke="#1a1a1a" stroke-width="2"/>
<text x="750.0" y="916" text-anchor="middle" font-family="Helvetica, Arial, sans-serif" font-size="19" font-weight="normal" fill="#1a1a1a">how risk-seeking the pool is at round 8</text>
<text text-anchor="middle" x="685.0" y="966.0" font-family="Helvetica, Arial, sans-serif" font-size="19" font-weight="normal" fill="#6b7684">A longer cautious phase narrows the gap between the two runs, but never closes it.</text>
</svg>