<svg xmlns="http://www.w3.org/2000/svg" viewBox="0 0 1500 1016" font-family="Helvetica, Arial, sans-serif">
<rect width="1500" height="1016" fill="white"/>
<text x="750" y="54" text-anchor="middle" font-family="Helvetica, Arial, sans-serif" font-size="31" font-weight="bold" fill="#1a1a1a">The selection rule sets the width of the fan, not its center</text>
<text x="750" y="92" text-anchor="middle" font-family="Helvetica, Arial, sans-serif" font-size="19" font-weight="normal" fill="#6b7684">The gambling model, trained to prefer a risky gamble, run four rounds under four rules for keeping answers. Each line is one run.</text>
<rect x="240.0" y="118" width="222" height="54" rx="10" fill="#eef2f6" stroke="#6b7684" stroke-width="1.5"/>
<text x="351.0" y="151.5" text-anchor="middle" font-family="Helvetica, Arial, sans-serif" font-size="19" font-weight="normal" fill="#1a1a1a">model writes 6 answers</text>
<text x="484.0" y="154.0" text-anchor="middle" font-size="26" fill="#6b7684" font-family="Helvetica, Arial, sans-serif">&#8594;</text>
<rect x="506.0" y="118" width="222" height="54" rx="10" fill="#eef2f6" stroke="#6b7684" stroke-width="1.5"/>
<text x="617.0" y="151.5" text-anchor="middle" font-family="Helvetica, Arial, sans-serif" font-size="19" font-weight="normal" fill="#1a1a1a">a rule keeps 2</text>
<text x="750.0" y="154.0" text-anchor="middle" font-size="26" fill="#6b7684" font-family="Helvetica, Arial, sans-serif">&#8594;</text>
<rect x="772.0" y="118" width="222" height="54" rx="10" fill="#eef2f6" stroke="#6b7684" stroke-width="1.5"/>
<text x="883.0" y="151.5" text-anchor="middle" font-family="Helvetica, Arial, sans-serif" font-size="19" font-weight="normal" fill="#1a1a1a">train on those</text>
<text x="1016.0" y="154.0" text-anchor="middle" font-size="26" fill="#6b7684" font-family="Helvetica, Arial, sans-serif">&#8594;</text>
<rect x="1038.0" y="118" width="222" height="54" rx="10" fill="#eef2f6" stroke="#6b7684" stroke-width="1.5"/>
<text x="1149.0" y="151.5" text-anchor="middle" font-family="Helvetica, Arial, sans-serif" font-size="19" font-weight="normal" fill="#1a1a1a">measure risk</text>
<text x="370.0" y="266" text-anchor="middle" font-family="Helvetica, Arial, sans-serif" font-size="22" font-weight="bold" fill="#2867b5">The model judging itself</text>
<line x1="150" y1="550.0" x2="590" y2="550.0" stroke="#e4e4e0" stroke-width="1"/>
<text x="140" y="555.0" text-anchor="end" font-size="18" fill="#6b7684" font-family="Helvetica, Arial, sans-serif">0</text>
<line x1="150" y1="487.5" x2="590" y2="487.5" stroke="#e4e4e0" stroke-width="1"/>
<text x="140" y="492.5" text-anchor="end" font-size="18" fill="#6b7684" font-family="Helvetica, Arial, sans-serif">0.25</text>
<line x1="150" y1="425.0" x2="590" y2="425.0" stroke="#e4e4e0" stroke-width="1"/>
<text x="140" y="430.0" text-anchor="end" font-size="18" fill="#6b7684" font-family="Helvetica, Arial, sans-serif">0.5</text>
<line x1="150" y1="362.5" x2="590" y2="362.5" stroke="#e4e4e0" stroke-width="1"/>
<text x="140" y="367.5" text-anchor="end" font-size="18" fill="#6b7684" font-family="Helvetica, Arial, sans-serif">0.75</text>
<line x1="150" y1="300.0" x2="590" y2="300.0" stroke="#e4e4e0" stroke-width="1"/>
<text x="140" y="305.0" text-anchor="end" font-size="18" fill="#6b7684" font-family="Helvetica, Arial, sans-serif">1</text>
<line x1="150" y1="400.0" x2="590" y2="400.0" stroke="#1a1a1a" stroke-width="1.3" stroke-dasharray="6 5"/>
<text x="156" y="392.0" font-size="18" fill="#1a1a1a" font-family="Helvetica, Arial, sans-serif">start &#8776; 0.60</text>
<text x="150.0" y="574" text-anchor="middle" font-size="18" fill="#6b7684" font-family="Helvetica, Arial, sans-serif">0</text>
<text x="260.0" y="574" text-anchor="middle" font-size="18" fill="#6b7684" font-family="Helvetica, Arial, sans-serif">1</text>
<text x="370.0" y="574" text-anchor="middle" font-size="18" fill="#6b7684" font-family="Helvetica, Arial, sans-serif">2</text>
<text x="480.0" y="574" text-anchor="middle" font-size="18" fill="#6b7684" font-family="Helvetica, Arial, sans-serif">3</text>
<text x="590.0" y="574" text-anchor="middle" font-size="18" fill="#6b7684" font-family="Helvetica, Arial, sans-serif">4</text>
<text x="370.0" y="596" text-anchor="middle" font-size="19" fill="#1a1a1a" font-family="Helvetica, Arial, sans-serif">round</text>
<polyline points="150.0,401.6 260.0,414.6 370.0,435.4 480.0,508.3 590.0,484.9" fill="none" stroke="#2867b5" stroke-width="2.6" stroke-opacity="0.85"/>
<polygon points="150.0,394.6 143.0,407.6 157.0,407.6" fill="#2867b5" stroke="white" stroke-width="1.5"/>
<polygon points="260.0,407.6 253.0,420.6 267.0,420.6" fill="#2867b5" stroke="white" stroke-width="1.5"/>
<polygon points="370.0,428.4 363.0,441.4 377.0,441.4" fill="#2867b5" stroke="white" stroke-width="1.5"/>
<polygon points="480.0,501.3 473.0,514.3 487.0,514.3" fill="#2867b5" stroke="white" stroke-width="1.5"/>
<polygon points="590.0,477.9 583.0,490.9 597.0,490.9" fill="#2867b5" stroke="white" stroke-width="1.5"/>
<polyline points="150.0,391.1 260.0,414.6 370.0,466.7 480.0,393.8 590.0,372.9" fill="none" stroke="#2867b5" stroke-width="2.6" stroke-opacity="0.85"/>
<polygon points="150.0,384.1 143.0,397.1 157.0,397.1" fill="#2867b5" stroke="white" stroke-width="1.5"/>
<polygon points="260.0,407.6 253.0,420.6 267.0,420.6" fill="#2867b5" stroke="white" stroke-width="1.5"/>
<polygon points="370.0,459.7 363.0,472.7 377.0,472.7" fill="#2867b5" stroke="white" stroke-width="1.5"/>
<polygon points="480.0,386.8 473.0,399.8 487.0,399.8" fill="#2867b5" stroke="white" stroke-width="1.5"/>
<polygon points="590.0,365.9 583.0,378.9 597.0,378.9" fill="#2867b5" stroke="white" stroke-width="1.5"/>
<polyline points="150.0,399.0 260.0,393.8 370.0,320.8 480.0,383.3 590.0,331.2" fill="none" stroke="#2867b5" stroke-width="2.6" stroke-opacity="0.85"/>
<polygon points="150.0,392.0 143.0,405.0 157.0,405.0" fill="#2867b5" stroke="white" stroke-width="1.5"/>
<polygon points="260.0,386.8 253.0,399.8 267.0,399.8" fill="#2867b5" stroke="white" stroke-width="1.5"/>
<polygon points="370.0,313.8 363.0,326.8 377.0,326.8" fill="#2867b5" stroke="white" stroke-width="1.5"/>
<polygon points="480.0,376.3 473.0,389.3 487.0,389.3" fill="#2867b5" stroke="white" stroke-width="1.5"/>
<polygon points="590.0,324.2 583.0,337.2 597.0,337.2" fill="#2867b5" stroke="white" stroke-width="1.5"/>
<polyline points="150.0,404.2 260.0,404.2 370.0,414.6 480.0,414.6 590.0,300.0" fill="none" stroke="#2867b5" stroke-width="2.6" stroke-opacity="0.85"/>
<polygon points="150.0,397.2 143.0,410.2 157.0,410.2" fill="#2867b5" stroke="white" stroke-width="1.5"/>
<polygon points="260.0,397.2 253.0,410.2 267.0,410.2" fill="#2867b5" stroke="white" stroke-width="1.5"/>
<polygon points="370.0,407.6 363.0,420.6 377.0,420.6" fill="#2867b5" stroke="white" stroke-width="1.5"/>
<polygon points="480.0,407.6 473.0,420.6 487.0,420.6" fill="#2867b5" stroke="white" stroke-width="1.5"/>
<polygon points="590.0,293.0 583.0,306.0 597.0,306.0" fill="#2867b5" stroke="white" stroke-width="1.5"/>
<line x1="610" y1="300.0" x2="610" y2="484.9" stroke="#2867b5" stroke-width="3"/>
<line x1="604" y1="484.9" x2="616" y2="484.9" stroke="#2867b5" stroke-width="3"/>
<line x1="604" y1="300.0" x2="616" y2="300.0" stroke="#2867b5" stroke-width="3"/>
<text x="622" y="305.0" font-size="19" font-weight="bold" fill="#2867b5" font-family="Helvetica, Arial, sans-serif">1.00</text>
<text x="622" y="489.9" font-size="19" font-weight="bold" fill="#2867b5" font-family="Helvetica, Arial, sans-serif">0.26</text>
<text x="668" y="388.4" font-size="19" font-weight="bold" fill="#1a1a1a" font-family="Helvetica, Arial, sans-serif">finals</text>
<text x="668" y="408.4" font-size="19" font-weight="bold" fill="#1a1a1a" font-family="Helvetica, Arial, sans-serif">span 0.74</text>
<text x="1070.0" y="266" text-anchor="middle" font-family="Helvetica, Arial, sans-serif" font-size="22" font-weight="bold" fill="#c07d18">Keep at random</text>
<line x1="850" y1="550.0" x2="1290" y2="550.0" stroke="#e4e4e0" stroke-width="1"/>
<text x="840" y="555.0" text-anchor="end" font-size="18" fill="#6b7684" font-family="Helvetica, Arial, sans-serif">0</text>
<line x1="850" y1="487.5" x2="1290" y2="487.5" stroke="#e4e4e0" stroke-width="1"/>
<text x="840" y="492.5" text-anchor="end" font-size="18" fill="#6b7684" font-family="Helvetica, Arial, sans-serif">0.25</text>
<line x1="850" y1="425.0" x2="1290" y2="425.0" stroke="#e4e4e0" stroke-width="1"/>
<text x="840" y="430.0" text-anchor="end" font-size="18" fill="#6b7684" font-family="Helvetica, Arial, sans-serif">0.5</text>
<line x1="850" y1="362.5" x2="1290" y2="362.5" stroke="#e4e4e0" stroke-width="1"/>
<text x="840" y="367.5" text-anchor="end" font-size="18" fill="#6b7684" font-family="Helvetica, Arial, sans-serif">0.75</text>
<line x1="850" y1="300.0" x2="1290" y2="300.0" stroke="#e4e4e0" stroke-width="1"/>
<text x="840" y="305.0" text-anchor="end" font-size="18" fill="#6b7684" font-family="Helvetica, Arial, sans-serif">1</text>
<line x1="850" y1="400.0" x2="1290" y2="400.0" stroke="#1a1a1a" stroke-width="1.3" stroke-dasharray="6 5"/>
<text x="850.0" y="574" text-anchor="middle" font-size="18" fill="#6b7684" font-family="Helvetica, Arial, sans-serif">0</text>
<text x="960.0" y="574" text-anchor="middle" font-size="18" fill="#6b7684" font-family="Helvetica, Arial, sans-serif">1</text>
<text x="1070.0" y="574" text-anchor="middle" font-size="18" fill="#6b7684" font-family="Helvetica, Arial, sans-serif">2</text>
<text x="1180.0" y="574" text-anchor="middle" font-size="18" fill="#6b7684" font-family="Helvetica, Arial, sans-serif">3</text>
<text x="1290.0" y="574" text-anchor="middle" font-size="18" fill="#6b7684" font-family="Helvetica, Arial, sans-serif">4</text>
<text x="1070.0" y="596" text-anchor="middle" font-size="19" fill="#1a1a1a" font-family="Helvetica, Arial, sans-serif">round</text>
<polyline points="850.0,404.2 960.0,425.0 1070.0,404.2 1180.0,435.4 1290.0,406.8" fill="none" stroke="#6b7684" stroke-width="1.8" stroke-dasharray="3 4"/>
<text x="1070.0" y="317.5" text-anchor="middle" font-family="Helvetica, Arial, sans-serif" font-size="18" font-weight="normal" fill="#6b7684">no training (-0.01)</text>
<polyline points="850.0,401.6 960.0,445.8 1070.0,362.5 1180.0,404.2 1290.0,393.8" fill="none" stroke="#c07d18" stroke-width="2.6" stroke-opacity="0.85"/>
<polygon points="850.0,394.1 857.0,401.6 850.0,409.1 843.0,401.6" fill="#c07d18" stroke="white" stroke-width="1.5"/>
<polygon points="960.0,438.3 967.0,445.8 960.0,453.3 953.0,445.8" fill="#c07d18" stroke="white" stroke-width="1.5"/>
<polygon points="1070.0,355.0 1077.0,362.5 1070.0,370.0 1063.0,362.5" fill="#c07d18" stroke="white" stroke-width="1.5"/>
<polygon points="1180.0,396.7 1187.0,404.2 1180.0,411.7 1173.0,404.2" fill="#c07d18" stroke="white" stroke-width="1.5"/>
<polygon points="1290.0,386.2 1297.0,393.8 1290.0,401.2 1283.0,393.8" fill="#c07d18" stroke="white" stroke-width="1.5"/>
<polyline points="850.0,391.1 960.0,393.8 1070.0,497.9 1180.0,466.7 1290.0,464.1" fill="none" stroke="#c07d18" stroke-width="2.6" stroke-opacity="0.85"/>
<polygon points="850.0,383.6 857.0,391.1 850.0,398.6 843.0,391.1" fill="#c07d18" stroke="white" stroke-width="1.5"/>
<polygon points="960.0,386.2 967.0,393.8 960.0,401.2 953.0,393.8" fill="#c07d18" stroke="white" stroke-width="1.5"/>
<polygon points="1070.0,490.4 1077.0,497.9 1070.0,505.4 1063.0,497.9" fill="#c07d18" stroke="white" stroke-width="1.5"/>
<polygon points="1180.0,459.2 1187.0,466.7 1180.0,474.2 1173.0,466.7" fill="#c07d18" stroke="white" stroke-width="1.5"/>
<polygon points="1290.0,456.6 1297.0,464.1 1290.0,471.6 1283.0,464.1" fill="#c07d18" stroke="white" stroke-width="1.5"/>
<polyline points="850.0,399.0 960.0,414.6 1070.0,341.7 1180.0,352.1 1290.0,385.9" fill="none" stroke="#c07d18" stroke-width="2.6" stroke-opacity="0.85"/>
<polygon points="850.0,391.5 857.0,399.0 850.0,406.5 843.0,399.0" fill="#c07d18" stroke="white" stroke-width="1.5"/>
<polygon points="960.0,407.1 967.0,414.6 960.0,422.1 953.0,414.6" fill="#c07d18" stroke="white" stroke-width="1.5"/>
<polygon points="1070.0,334.2 1077.0,341.7 1070.0,349.2 1063.0,341.7" fill="#c07d18" stroke="white" stroke-width="1.5"/>
<polygon points="1180.0,344.6 1187.0,352.1 1180.0,359.6 1173.0,352.1" fill="#c07d18" stroke="white" stroke-width="1.5"/>
<polygon points="1290.0,378.4 1297.0,385.9 1290.0,393.4 1283.0,385.9" fill="#c07d18" stroke="white" stroke-width="1.5"/>
<polyline points="850.0,404.2 960.0,362.5 1070.0,383.3 1180.0,404.2 1290.0,352.1" fill="none" stroke="#c07d18" stroke-width="2.6" stroke-opacity="0.85"/>
<polygon points="850.0,396.7 857.0,404.2 850.0,411.7 843.0,404.2" fill="#c07d18" stroke="white" stroke-width="1.5"/>
<polygon points="960.0,355.0 967.0,362.5 960.0,370.0 953.0,362.5" fill="#c07d18" stroke="white" stroke-width="1.5"/>
<polygon points="1070.0,375.8 1077.0,383.3 1070.0,390.8 1063.0,383.3" fill="#c07d18" stroke="white" stroke-width="1.5"/>
<polygon points="1180.0,396.7 1187.0,404.2 1180.0,411.7 1173.0,404.2" fill="#c07d18" stroke="white" stroke-width="1.5"/>
<polygon points="1290.0,344.6 1297.0,352.1 1290.0,359.6 1283.0,352.1" fill="#c07d18" stroke="white" stroke-width="1.5"/>
<line x1="1310" y1="352.1" x2="1310" y2="464.1" stroke="#c07d18" stroke-width="3"/>
<line x1="1304" y1="464.1" x2="1316" y2="464.1" stroke="#c07d18" stroke-width="3"/>
<line x1="1304" y1="352.1" x2="1316" y2="352.1" stroke="#c07d18" stroke-width="3"/>
<text x="1322" y="357.1" font-size="19" font-weight="bold" fill="#c07d18" font-family="Helvetica, Arial, sans-serif">0.79</text>
<text x="1322" y="469.1" font-size="19" font-weight="bold" fill="#c07d18" font-family="Helvetica, Arial, sans-serif">0.34</text>
<text x="1368" y="404.1" font-size="19" font-weight="bold" fill="#1a1a1a" font-family="Helvetica, Arial, sans-serif">finals</text>
<text x="1368" y="424.1" font-size="19" font-weight="bold" fill="#1a1a1a" font-family="Helvetica, Arial, sans-serif">span 0.45</text>
<text x="370.0" y="646" text-anchor="middle" font-family="Helvetica, Arial, sans-serif" font-size="22" font-weight="bold" fill="#3a7d44">A frozen copy of the start</text>
<line x1="150" y1="930.0" x2="590" y2="930.0" stroke="#e4e4e0" stroke-width="1"/>
<text x="140" y="935.0" text-anchor="end" font-size="18" fill="#6b7684" font-family="Helvetica, Arial, sans-serif">0</text>
<line x1="150" y1="867.5" x2="590" y2="867.5" stroke="#e4e4e0" stroke-width="1"/>
<text x="140" y="872.5" text-anchor="end" font-size="18" fill="#6b7684" font-family="Helvetica, Arial, sans-serif">0.25</text>
<line x1="150" y1="805.0" x2="590" y2="805.0" stroke="#e4e4e0" stroke-width="1"/>
<text x="140" y="810.0" text-anchor="end" font-size="18" fill="#6b7684" font-family="Helvetica, Arial, sans-serif">0.5</text>
<line x1="150" y1="742.5" x2="590" y2="742.5" stroke="#e4e4e0" stroke-width="1"/>
<text x="140" y="747.5" text-anchor="end" font-size="18" fill="#6b7684" font-family="Helvetica, Arial, sans-serif">0.75</text>
<line x1="150" y1="680.0" x2="590" y2="680.0" stroke="#e4e4e0" stroke-width="1"/>
<text x="140" y="685.0" text-anchor="end" font-size="18" fill="#6b7684" font-family="Helvetica, Arial, sans-serif">1</text>
<line x1="150" y1="780.0" x2="590" y2="780.0" stroke="#1a1a1a" stroke-width="1.3" stroke-dasharray="6 5"/>
<text x="150.0" y="954" text-anchor="middle" font-size="18" fill="#6b7684" font-family="Helvetica, Arial, sans-serif">0</text>
<text x="260.0" y="954" text-anchor="middle" font-size="18" fill="#6b7684" font-family="Helvetica, Arial, sans-serif">1</text>
<text x="370.0" y="954" text-anchor="middle" font-size="18" fill="#6b7684" font-family="Helvetica, Arial, sans-serif">2</text>
<text x="480.0" y="954" text-anchor="middle" font-size="18" fill="#6b7684" font-family="Helvetica, Arial, sans-serif">3</text>
<text x="590.0" y="954" text-anchor="middle" font-size="18" fill="#6b7684" font-family="Helvetica, Arial, sans-serif">4</text>
<text x="370.0" y="976" text-anchor="middle" font-size="19" fill="#1a1a1a" font-family="Helvetica, Arial, sans-serif">round</text>
<polyline points="150.0,781.6 260.0,784.2 370.0,815.4 480.0,763.3 590.0,820.6" fill="none" stroke="#3a7d44" stroke-width="2.6" stroke-opacity="0.85"/>
<circle cx="150.0" cy="781.6" r="6" fill="#3a7d44" stroke="white" stroke-width="1.5"/>
<circle cx="260.0" cy="784.2" r="6" fill="#3a7d44" stroke="white" stroke-width="1.5"/>
<circle cx="370.0" cy="815.4" r="6" fill="#3a7d44" stroke="white" stroke-width="1.5"/>
<circle cx="480.0" cy="763.3" r="6" fill="#3a7d44" stroke="white" stroke-width="1.5"/>
<circle cx="590.0" cy="820.6" r="6" fill="#3a7d44" stroke="white" stroke-width="1.5"/>
<polyline points="150.0,771.1 260.0,784.2 370.0,836.2 480.0,805.0 590.0,760.7" fill="none" stroke="#3a7d44" stroke-width="2.6" stroke-opacity="0.85"/>
<circle cx="150.0" cy="771.1" r="6" fill="#3a7d44" stroke="white" stroke-width="1.5"/>
<circle cx="260.0" cy="784.2" r="6" fill="#3a7d44" stroke="white" stroke-width="1.5"/>
<circle cx="370.0" cy="836.2" r="6" fill="#3a7d44" stroke="white" stroke-width="1.5"/>
<circle cx="480.0" cy="805.0" r="6" fill="#3a7d44" stroke="white" stroke-width="1.5"/>
<circle cx="590.0" cy="760.7" r="6" fill="#3a7d44" stroke="white" stroke-width="1.5"/>
<polyline points="150.0,779.0 260.0,784.2 370.0,784.2 480.0,752.9 590.0,755.5" fill="none" stroke="#3a7d44" stroke-width="2.6" stroke-opacity="0.85"/>
<circle cx="150.0" cy="779.0" r="6" fill="#3a7d44" stroke="white" stroke-width="1.5"/>
<circle cx="260.0" cy="784.2" r="6" fill="#3a7d44" stroke="white" stroke-width="1.5"/>
<circle cx="370.0" cy="784.2" r="6" fill="#3a7d44" stroke="white" stroke-width="1.5"/>
<circle cx="480.0" cy="752.9" r="6" fill="#3a7d44" stroke="white" stroke-width="1.5"/>
<circle cx="590.0" cy="755.5" r="6" fill="#3a7d44" stroke="white" stroke-width="1.5"/>
<polyline points="150.0,784.2 260.0,815.4 370.0,784.2 480.0,805.0 590.0,802.4" fill="none" stroke="#3a7d44" stroke-width="2.6" stroke-opacity="0.85"/>
<circle cx="150.0" cy="784.2" r="6" fill="#3a7d44" stroke="white" stroke-width="1.5"/>
<circle cx="260.0" cy="815.4" r="6" fill="#3a7d44" stroke="white" stroke-width="1.5"/>
<circle cx="370.0" cy="784.2" r="6" fill="#3a7d44" stroke="white" stroke-width="1.5"/>
<circle cx="480.0" cy="805.0" r="6" fill="#3a7d44" stroke="white" stroke-width="1.5"/>
<circle cx="590.0" cy="802.4" r="6" fill="#3a7d44" stroke="white" stroke-width="1.5"/>
<line x1="610" y1="755.5" x2="610" y2="820.6" stroke="#3a7d44" stroke-width="3"/>
<line x1="604" y1="820.6" x2="616" y2="820.6" stroke="#3a7d44" stroke-width="3"/>
<line x1="604" y1="755.5" x2="616" y2="755.5" stroke="#3a7d44" stroke-width="3"/>
<text x="622" y="760.5" font-size="19" font-weight="bold" fill="#3a7d44" font-family="Helvetica, Arial, sans-serif">0.70</text>
<text x="622" y="825.6" font-size="19" font-weight="bold" fill="#3a7d44" font-family="Helvetica, Arial, sans-serif">0.44</text>
<text x="668" y="784.1" font-size="19" font-weight="bold" fill="#1a1a1a" font-family="Helvetica, Arial, sans-serif">finals</text>
<text x="668" y="804.1" font-size="19" font-weight="bold" fill="#1a1a1a" font-family="Helvetica, Arial, sans-serif">span 0.26</text>
<text x="1070.0" y="646" text-anchor="middle" font-family="Helvetica, Arial, sans-serif" font-size="22" font-weight="bold" fill="#8a5a9e">A neutral judge</text>
<line x1="850" y1="930.0" x2="1290" y2="930.0" stroke="#e4e4e0" stroke-width="1"/>
<text x="840" y="935.0" text-anchor="end" font-size="18" fill="#6b7684" font-family="Helvetica, Arial, sans-serif">0</text>
<line x1="850" y1="867.5" x2="1290" y2="867.5" stroke="#e4e4e0" stroke-width="1"/>
<text x="840" y="872.5" text-anchor="end" font-size="18" fill="#6b7684" font-family="Helvetica, Arial, sans-serif">0.25</text>
<line x1="850" y1="805.0" x2="1290" y2="805.0" stroke="#e4e4e0" stroke-width="1"/>
<text x="840" y="810.0" text-anchor="end" font-size="18" fill="#6b7684" font-family="Helvetica, Arial, sans-serif">0.5</text>
<line x1="850" y1="742.5" x2="1290" y2="742.5" stroke="#e4e4e0" stroke-width="1"/>
<text x="840" y="747.5" text-anchor="end" font-size="18" fill="#6b7684" font-family="Helvetica, Arial, sans-serif">0.75</text>
<line x1="850" y1="680.0" x2="1290" y2="680.0" stroke="#e4e4e0" stroke-width="1"/>
<text x="840" y="685.0" text-anchor="end" font-size="18" fill="#6b7684" font-family="Helvetica, Arial, sans-serif">1</text>
<line x1="850" y1="780.0" x2="1290" y2="780.0" stroke="#1a1a1a" stroke-width="1.3" stroke-dasharray="6 5"/>
<text x="850.0" y="954" text-anchor="middle" font-size="18" fill="#6b7684" font-family="Helvetica, Arial, sans-serif">0</text>
<text x="960.0" y="954" text-anchor="middle" font-size="18" fill="#6b7684" font-family="Helvetica, Arial, sans-serif">1</text>
<text x="1070.0" y="954" text-anchor="middle" font-size="18" fill="#6b7684" font-family="Helvetica, Arial, sans-serif">2</text>
<text x="1180.0" y="954" text-anchor="middle" font-size="18" fill="#6b7684" font-family="Helvetica, Arial, sans-serif">3</text>
<text x="1290.0" y="954" text-anchor="middle" font-size="18" fill="#6b7684" font-family="Helvetica, Arial, sans-serif">4</text>
<text x="1070.0" y="976" text-anchor="middle" font-size="19" fill="#1a1a1a" font-family="Helvetica, Arial, sans-serif">round</text>
<polyline points="850.0,781.6 960.0,784.2 1070.0,784.2 1180.0,763.3 1290.0,779.0" fill="none" stroke="#8a5a9e" stroke-width="2.6" stroke-opacity="0.85"/>
<rect x="844.0" y="775.6" width="12" height="12" fill="#8a5a9e" stroke="white" stroke-width="1.5"/>
<rect x="954.0" y="778.2" width="12" height="12" fill="#8a5a9e" stroke="white" stroke-width="1.5"/>
<rect x="1064.0" y="778.2" width="12" height="12" fill="#8a5a9e" stroke="white" stroke-width="1.5"/>
<rect x="1174.0" y="757.3" width="12" height="12" fill="#8a5a9e" stroke="white" stroke-width="1.5"/>
<rect x="1284.0" y="773.0" width="12" height="12" fill="#8a5a9e" stroke="white" stroke-width="1.5"/>
<polyline points="850.0,771.1 960.0,794.6 1070.0,825.8 1180.0,825.8 1290.0,812.8" fill="none" stroke="#8a5a9e" stroke-width="2.6" stroke-opacity="0.85"/>
<rect x="844.0" y="765.1" width="12" height="12" fill="#8a5a9e" stroke="white" stroke-width="1.5"/>
<rect x="954.0" y="788.6" width="12" height="12" fill="#8a5a9e" stroke="white" stroke-width="1.5"/>
<rect x="1064.0" y="819.8" width="12" height="12" fill="#8a5a9e" stroke="white" stroke-width="1.5"/>
<rect x="1174.0" y="819.8" width="12" height="12" fill="#8a5a9e" stroke="white" stroke-width="1.5"/>
<rect x="1284.0" y="806.8" width="12" height="12" fill="#8a5a9e" stroke="white" stroke-width="1.5"/>
<polyline points="850.0,779.0 960.0,815.4 1070.0,836.2 1180.0,825.8 1290.0,781.6" fill="none" stroke="#8a5a9e" stroke-width="2.6" stroke-opacity="0.85"/>
<rect x="844.0" y="773.0" width="12" height="12" fill="#8a5a9e" stroke="white" stroke-width="1.5"/>
<rect x="954.0" y="809.4" width="12" height="12" fill="#8a5a9e" stroke="white" stroke-width="1.5"/>
<rect x="1064.0" y="830.2" width="12" height="12" fill="#8a5a9e" stroke="white" stroke-width="1.5"/>
<rect x="1174.0" y="819.8" width="12" height="12" fill="#8a5a9e" stroke="white" stroke-width="1.5"/>
<rect x="1284.0" y="775.6" width="12" height="12" fill="#8a5a9e" stroke="white" stroke-width="1.5"/>
<polyline points="850.0,784.2 960.0,825.8 1070.0,794.6 1180.0,784.2 1290.0,781.6" fill="none" stroke="#8a5a9e" stroke-width="2.6" stroke-opacity="0.85"/>
<rect x="844.0" y="778.2" width="12" height="12" fill="#8a5a9e" stroke="white" stroke-width="1.5"/>
<rect x="954.0" y="819.8" width="12" height="12" fill="#8a5a9e" stroke="white" stroke-width="1.5"/>
<rect x="1064.0" y="788.6" width="12" height="12" fill="#8a5a9e" stroke="white" stroke-width="1.5"/>
<rect x="1174.0" y="778.2" width="12" height="12" fill="#8a5a9e" stroke="white" stroke-width="1.5"/>
<rect x="1284.0" y="775.6" width="12" height="12" fill="#8a5a9e" stroke="white" stroke-width="1.5"/>
<line x1="1310" y1="779.0" x2="1310" y2="812.8" stroke="#8a5a9e" stroke-width="3"/>
<line x1="1304" y1="812.8" x2="1316" y2="812.8" stroke="#8a5a9e" stroke-width="3"/>
<line x1="1304" y1="779.0" x2="1316" y2="779.0" stroke="#8a5a9e" stroke-width="3"/>
<text x="1322" y="784.0" font-size="19" font-weight="bold" fill="#8a5a9e" font-family="Helvetica, Arial, sans-serif">0.60</text>
<text x="1322" y="817.8" font-size="19" font-weight="bold" fill="#8a5a9e" font-family="Helvetica, Arial, sans-serif">0.47</text>
<text x="1368" y="791.9" font-size="19" font-weight="bold" fill="#1a1a1a" font-family="Helvetica, Arial, sans-serif">finals</text>
<text x="1368" y="811.9" font-size="19" font-weight="bold" fill="#1a1a1a" font-family="Helvetica, Arial, sans-serif">span 0.14</text>
<text x="55" y="425.0" font-size="19" fill="#1a1a1a" font-family="Helvetica, Arial, sans-serif" transform="rotate(-90 55 425.0)" text-anchor="middle">share of answers picking the gamble</text>
<text x="55" y="805.0" font-size="19" fill="#1a1a1a" font-family="Helvetica, Arial, sans-serif" transform="rotate(-90 55 805.0)" text-anchor="middle">share of answers picking the gamble</text>
</svg>