<svg xmlns="http://www.w3.org/2000/svg" viewBox="0 0 1630 823.0" font-family="Helvetica, Arial, sans-serif">
<rect width="1630" height="823.0" fill="white"/>
<text x="815.0" y="50" text-anchor="middle" font-family="Helvetica, Arial, sans-serif" font-size="29" font-weight="bold" fill="#1a1a1a">When the pressing leaves nothing to select, the value stays at the floor</text>
<text text-anchor="middle" x="815.0" y="88.0" font-family="Helvetica, Arial, sans-serif" font-size="19" font-weight="normal" fill="#6b7684">The gambling model, pushed down by a cautious judge for four rounds, then released three ways. Value = how often its kept answers pick the risky gamble, read once per</text>
<text text-anchor="middle" x="815.0" y="114.6" font-family="Helvetica, Arial, sans-serif" font-size="19" font-weight="normal" fill="#6b7684">round.</text>
<rect x="305.0" y="159.2" width="222" height="54" rx="10" fill="#eef2f6" stroke="#6b7684" stroke-width="1.5"/>
<text x="416.0" y="182.7" text-anchor="middle" font-family="Helvetica, Arial, sans-serif" font-size="19" font-weight="normal" fill="#1a1a1a">cautious judge presses</text>
<text x="416.0" y="202.7" text-anchor="middle" font-family="Helvetica, Arial, sans-serif" font-size="19" font-weight="normal" fill="#1a1a1a">down</text>
<text x="549.0" y="195.2" text-anchor="middle" font-size="26" fill="#6b7684" font-family="Helvetica, Arial, sans-serif">&#8594;</text>
<rect x="571.0" y="159.2" width="222" height="54" rx="10" fill="#eef2f6" stroke="#6b7684" stroke-width="1.5"/>
<text x="682.0" y="192.7" text-anchor="middle" font-family="Helvetica, Arial, sans-serif" font-size="19" font-weight="normal" fill="#1a1a1a">then stop / switch</text>
<text x="815.0" y="195.2" text-anchor="middle" font-size="26" fill="#6b7684" font-family="Helvetica, Arial, sans-serif">&#8594;</text>
<rect x="837.0" y="159.2" width="222" height="54" rx="10" fill="#eef2f6" stroke="#6b7684" stroke-width="1.5"/>
<text x="948.0" y="192.7" text-anchor="middle" font-family="Helvetica, Arial, sans-serif" font-size="19" font-weight="normal" fill="#1a1a1a">continue the loop</text>
<text x="1081.0" y="195.2" text-anchor="middle" font-size="26" fill="#6b7684" font-family="Helvetica, Arial, sans-serif">&#8594;</text>
<rect x="1103.0" y="159.2" width="222" height="54" rx="10" fill="#eef2f6" stroke="#6b7684" stroke-width="1.5"/>
<text x="1214.0" y="192.7" text-anchor="middle" font-family="Helvetica, Arial, sans-serif" font-size="19" font-weight="normal" fill="#1a1a1a">measure risk</text>
<line x1="362" y1="257.2" x2="412" y2="257.2" stroke="#3a7d44" stroke-width="4.5"/>
<text x="422" y="263.2" font-size="19" fill="#1a1a1a" font-family="Helvetica, Arial, sans-serif">the cautious judge presses</text>
<line x1="724" y1="257.2" x2="774" y2="257.2" stroke="#2867b5" stroke-width="4.5"/>
<text x="784" y="263.2" font-size="19" fill="#1a1a1a" font-family="Helvetica, Arial, sans-serif">the model judges itself</text>
<line x1="1056" y1="257.2" x2="1106" y2="257.2" stroke="#c07d18" stroke-width="4.5"/>
<text x="1116" y="263.2" font-size="19" fill="#1a1a1a" font-family="Helvetica, Arial, sans-serif">kept at random</text>
<rect x="665" y="281.2" width="18" height="18" fill="#3a7d44" fill-opacity="0.10" stroke="#3a7d44" stroke-width="1.5"/>
<text x="691" y="296.2" font-size="19" fill="#1a1a1a" font-family="Helvetica, Arial, sans-serif">shaded = rounds under the cautious judge</text>
<line x1="70" y1="641.2" x2="530" y2="641.2" stroke="#1a1a1a" stroke-width="1.5"/>
<text x="60" y="646.2" text-anchor="end" font-size="16" fill="#6b7684" font-family="Helvetica, Arial, sans-serif">0.0</text>
<line x1="70" y1="574.5" x2="530" y2="574.5" stroke="#e4e4e0" stroke-width="1"/>
<text x="60" y="579.5" text-anchor="end" font-size="16" fill="#6b7684" font-family="Helvetica, Arial, sans-serif">0.2</text>
<line x1="70" y1="507.9" x2="530" y2="507.9" stroke="#e4e4e0" stroke-width="1"/>
<text x="60" y="512.9" text-anchor="end" font-size="16" fill="#6b7684" font-family="Helvetica, Arial, sans-serif">0.4</text>
<line x1="70" y1="441.2" x2="530" y2="441.2" stroke="#e4e4e0" stroke-width="1"/>
<text x="60" y="446.2" text-anchor="end" font-size="16" fill="#6b7684" font-family="Helvetica, Arial, sans-serif">0.6</text>
<line x1="70" y1="374.5" x2="530" y2="374.5" stroke="#e4e4e0" stroke-width="1"/>
<text x="60" y="379.5" text-anchor="end" font-size="16" fill="#6b7684" font-family="Helvetica, Arial, sans-serif">0.8</text>
<text x="70.0" y="665.2" text-anchor="middle" font-size="16" fill="#6b7684" font-family="Helvetica, Arial, sans-serif">0</text>
<text x="127.5" y="665.2" text-anchor="middle" font-size="16" fill="#6b7684" font-family="Helvetica, Arial, sans-serif">1</text>
<text x="185.0" y="665.2" text-anchor="middle" font-size="16" fill="#6b7684" font-family="Helvetica, Arial, sans-serif">2</text>
<text x="242.5" y="665.2" text-anchor="middle" font-size="16" fill="#6b7684" font-family="Helvetica, Arial, sans-serif">3</text>
<text x="300.0" y="665.2" text-anchor="middle" font-size="16" fill="#6b7684" font-family="Helvetica, Arial, sans-serif">4</text>
<text x="357.5" y="665.2" text-anchor="middle" font-size="16" fill="#6b7684" font-family="Helvetica, Arial, sans-serif">5</text>
<text x="415.0" y="665.2" text-anchor="middle" font-size="16" fill="#6b7684" font-family="Helvetica, Arial, sans-serif">6</text>
<text x="472.5" y="665.2" text-anchor="middle" font-size="16" fill="#6b7684" font-family="Helvetica, Arial, sans-serif">7</text>
<text x="530.0" y="665.2" text-anchor="middle" font-size="16" fill="#6b7684" font-family="Helvetica, Arial, sans-serif">8</text>
<text x="300.0" y="687.2" text-anchor="middle" font-size="19" fill="#1a1a1a" font-family="Helvetica, Arial, sans-serif">round</text>
<text x="300.0" y="325.2" text-anchor="middle" font-family="Helvetica, Arial, sans-serif" font-size="21" font-weight="bold" fill="#1a1a1a">let the model judge itself after</text>
<text x="18" y="491.2" font-size="19" fill="#1a1a1a" font-family="Helvetica, Arial, sans-serif" transform="rotate(-90 18 491.2)" text-anchor="middle">how risk-seeking the pool is</text>
<rect x="70.0" y="341.2" width="230.0" height="300" fill="#3a7d44" fill-opacity="0.10"/>
<line x1="70" y1="641.2" x2="530" y2="641.2" stroke="#b5342c" stroke-width="1.6" stroke-dasharray="5 4"/>
<text x="524" y="634.2" text-anchor="end" font-size="16" fill="#b5342c" font-family="Helvetica, Arial, sans-serif">the floor</text>
<line x1="70.0" y1="561.3" x2="127.5" y2="641.2" stroke="#3a7d44" stroke-width="3" stroke-opacity="0.9"/>
<line x1="127.5" y1="641.2" x2="185.0" y2="641.2" stroke="#3a7d44" stroke-width="3" stroke-opacity="0.9"/>
<line x1="185.0" y1="641.2" x2="242.5" y2="627.3" stroke="#3a7d44" stroke-width="3" stroke-opacity="0.9"/>
<line x1="242.5" y1="627.3" x2="300.0" y2="627.3" stroke="#3a7d44" stroke-width="3" stroke-opacity="0.9"/>
<line x1="300.0" y1="627.3" x2="357.5" y2="641.2" stroke="#2867b5" stroke-width="3" stroke-opacity="0.9"/>
<line x1="357.5" y1="641.2" x2="415.0" y2="641.2" stroke="#2867b5" stroke-width="3" stroke-opacity="0.9"/>
<line x1="415.0" y1="641.2" x2="472.5" y2="641.2" stroke="#2867b5" stroke-width="3" stroke-opacity="0.9"/>
<line x1="472.5" y1="641.2" x2="530.0" y2="641.2" stroke="#2867b5" stroke-width="3" stroke-opacity="0.9"/>
<circle cx="70.0" cy="561.3" r="5.0" fill="#3a7d44" fill-opacity="0.9" stroke="white" stroke-width="1.2"/>
<circle cx="127.5" cy="641.2" r="5.0" fill="#3a7d44" fill-opacity="0.9" stroke="white" stroke-width="1.2"/>
<circle cx="185.0" cy="641.2" r="5.0" fill="#3a7d44" fill-opacity="0.9" stroke="white" stroke-width="1.2"/>
<circle cx="242.5" cy="627.3" r="5.0" fill="#3a7d44" fill-opacity="0.9" stroke="white" stroke-width="1.2"/>
<circle cx="300.0" cy="627.3" r="5.0" fill="#2867b5" fill-opacity="0.9" stroke="white" stroke-width="1.2"/>
<circle cx="357.5" cy="641.2" r="5.0" fill="#2867b5" fill-opacity="0.9" stroke="white" stroke-width="1.2"/>
<circle cx="415.0" cy="641.2" r="5.0" fill="#2867b5" fill-opacity="0.9" stroke="white" stroke-width="1.2"/>
<circle cx="472.5" cy="641.2" r="5.0" fill="#2867b5" fill-opacity="0.9" stroke="white" stroke-width="1.2"/>
<circle cx="530.0" cy="641.2" r="5.0" fill="#2867b5" fill-opacity="0.9" stroke="white" stroke-width="1.2"/>
<line x1="70.0" y1="571.0" x2="127.5" y2="597.7" stroke="#3a7d44" stroke-width="3" stroke-opacity="0.9"/>
<line x1="127.5" y1="597.7" x2="185.0" y2="580.6" stroke="#3a7d44" stroke-width="3" stroke-opacity="0.9"/>
<line x1="185.0" y1="580.6" x2="242.5" y2="613.4" stroke="#3a7d44" stroke-width="3" stroke-opacity="0.9"/>
<line x1="242.5" y1="613.4" x2="300.0" y2="626.7" stroke="#3a7d44" stroke-width="3" stroke-opacity="0.9"/>
<line x1="300.0" y1="626.7" x2="357.5" y2="641.2" stroke="#2867b5" stroke-width="3" stroke-opacity="0.9"/>
<line x1="357.5" y1="641.2" x2="415.0" y2="641.2" stroke="#2867b5" stroke-width="3" stroke-opacity="0.9"/>
<line x1="415.0" y1="641.2" x2="472.5" y2="641.2" stroke="#2867b5" stroke-width="3" stroke-opacity="0.9"/>
<line x1="472.5" y1="641.2" x2="530.0" y2="637.7" stroke="#2867b5" stroke-width="3" stroke-opacity="0.9"/>
<circle cx="70.0" cy="571.0" r="5.0" fill="#3a7d44" fill-opacity="0.9" stroke="white" stroke-width="1.2"/>
<circle cx="127.5" cy="597.7" r="5.0" fill="#3a7d44" fill-opacity="0.9" stroke="white" stroke-width="1.2"/>
<circle cx="185.0" cy="580.6" r="5.0" fill="#3a7d44" fill-opacity="0.9" stroke="white" stroke-width="1.2"/>
<circle cx="242.5" cy="613.4" r="5.0" fill="#3a7d44" fill-opacity="0.9" stroke="white" stroke-width="1.2"/>
<circle cx="300.0" cy="626.7" r="5.0" fill="#2867b5" fill-opacity="0.9" stroke="white" stroke-width="1.2"/>
<circle cx="357.5" cy="641.2" r="5.0" fill="#2867b5" fill-opacity="0.9" stroke="white" stroke-width="1.2"/>
<circle cx="415.0" cy="641.2" r="5.0" fill="#2867b5" fill-opacity="0.9" stroke="white" stroke-width="1.2"/>
<circle cx="472.5" cy="641.2" r="5.0" fill="#2867b5" fill-opacity="0.9" stroke="white" stroke-width="1.2"/>
<circle cx="530.0" cy="637.7" r="5.0" fill="#2867b5" fill-opacity="0.9" stroke="white" stroke-width="1.2"/>
<line x1="70.0" y1="561.7" x2="127.5" y2="599.5" stroke="#3a7d44" stroke-width="3" stroke-opacity="0.9"/>
<line x1="127.5" y1="599.5" x2="185.0" y2="627.3" stroke="#3a7d44" stroke-width="3" stroke-opacity="0.9"/>
<line x1="185.0" y1="627.3" x2="242.5" y2="627.3" stroke="#3a7d44" stroke-width="3" stroke-opacity="0.9"/>
<line x1="242.5" y1="627.3" x2="300.0" y2="641.2" stroke="#3a7d44" stroke-width="3" stroke-opacity="0.9"/>
<line x1="300.0" y1="641.2" x2="357.5" y2="641.2" stroke="#2867b5" stroke-width="3" stroke-opacity="0.9"/>
<line x1="357.5" y1="641.2" x2="415.0" y2="641.2" stroke="#2867b5" stroke-width="3" stroke-opacity="0.9"/>
<line x1="415.0" y1="641.2" x2="472.5" y2="641.2" stroke="#2867b5" stroke-width="3" stroke-opacity="0.9"/>
<line x1="472.5" y1="641.2" x2="530.0" y2="641.2" stroke="#2867b5" stroke-width="3" stroke-opacity="0.9"/>
<circle cx="70.0" cy="561.7" r="5.0" fill="#3a7d44" fill-opacity="0.9" stroke="white" stroke-width="1.2"/>
<circle cx="127.5" cy="599.5" r="5.0" fill="#3a7d44" fill-opacity="0.9" stroke="white" stroke-width="1.2"/>
<circle cx="185.0" cy="627.3" r="5.0" fill="#3a7d44" fill-opacity="0.9" stroke="white" stroke-width="1.2"/>
<circle cx="242.5" cy="627.3" r="5.0" fill="#3a7d44" fill-opacity="0.9" stroke="white" stroke-width="1.2"/>
<circle cx="300.0" cy="641.2" r="5.0" fill="#2867b5" fill-opacity="0.9" stroke="white" stroke-width="1.2"/>
<circle cx="357.5" cy="641.2" r="5.0" fill="#2867b5" fill-opacity="0.9" stroke="white" stroke-width="1.2"/>
<circle cx="415.0" cy="641.2" r="5.0" fill="#2867b5" fill-opacity="0.9" stroke="white" stroke-width="1.2"/>
<circle cx="472.5" cy="641.2" r="5.0" fill="#2867b5" fill-opacity="0.9" stroke="white" stroke-width="1.2"/>
<circle cx="530.0" cy="641.2" r="5.0" fill="#2867b5" fill-opacity="0.9" stroke="white" stroke-width="1.2"/>
<text x="70" y="719.2" font-family="Helvetica, Arial, sans-serif" font-size="19" font-weight="normal" fill="#6b7684">Once the cautious judge floors the pool, judging</text>
<text x="70" y="745.8000000000001" font-family="Helvetica, Arial, sans-serif" font-size="19" font-weight="normal" fill="#6b7684">itself keeps it there.</text>
<line x1="600" y1="641.2" x2="1060" y2="641.2" stroke="#1a1a1a" stroke-width="1.5"/>
<text x="590" y="646.2" text-anchor="end" font-size="16" fill="#6b7684" font-family="Helvetica, Arial, sans-serif">0.0</text>
<line x1="600" y1="574.5" x2="1060" y2="574.5" stroke="#e4e4e0" stroke-width="1"/>
<text x="590" y="579.5" text-anchor="end" font-size="16" fill="#6b7684" font-family="Helvetica, Arial, sans-serif">0.2</text>
<line x1="600" y1="507.9" x2="1060" y2="507.9" stroke="#e4e4e0" stroke-width="1"/>
<text x="590" y="512.9" text-anchor="end" font-size="16" fill="#6b7684" font-family="Helvetica, Arial, sans-serif">0.4</text>
<line x1="600" y1="441.2" x2="1060" y2="441.2" stroke="#e4e4e0" stroke-width="1"/>
<text x="590" y="446.2" text-anchor="end" font-size="16" fill="#6b7684" font-family="Helvetica, Arial, sans-serif">0.6</text>
<line x1="600" y1="374.5" x2="1060" y2="374.5" stroke="#e4e4e0" stroke-width="1"/>
<text x="590" y="379.5" text-anchor="end" font-size="16" fill="#6b7684" font-family="Helvetica, Arial, sans-serif">0.8</text>
<text x="600.0" y="665.2" text-anchor="middle" font-size="16" fill="#6b7684" font-family="Helvetica, Arial, sans-serif">0</text>
<text x="657.5" y="665.2" text-anchor="middle" font-size="16" fill="#6b7684" font-family="Helvetica, Arial, sans-serif">1</text>
<text x="715.0" y="665.2" text-anchor="middle" font-size="16" fill="#6b7684" font-family="Helvetica, Arial, sans-serif">2</text>
<text x="772.5" y="665.2" text-anchor="middle" font-size="16" fill="#6b7684" font-family="Helvetica, Arial, sans-serif">3</text>
<text x="830.0" y="665.2" text-anchor="middle" font-size="16" fill="#6b7684" font-family="Helvetica, Arial, sans-serif">4</text>
<text x="887.5" y="665.2" text-anchor="middle" font-size="16" fill="#6b7684" font-family="Helvetica, Arial, sans-serif">5</text>
<text x="945.0" y="665.2" text-anchor="middle" font-size="16" fill="#6b7684" font-family="Helvetica, Arial, sans-serif">6</text>
<text x="1002.5" y="665.2" text-anchor="middle" font-size="16" fill="#6b7684" font-family="Helvetica, Arial, sans-serif">7</text>
<text x="1060.0" y="665.2" text-anchor="middle" font-size="16" fill="#6b7684" font-family="Helvetica, Arial, sans-serif">8</text>
<text x="830.0" y="687.2" text-anchor="middle" font-size="19" fill="#1a1a1a" font-family="Helvetica, Arial, sans-serif">round</text>
<text x="830.0" y="325.2" text-anchor="middle" font-family="Helvetica, Arial, sans-serif" font-size="21" font-weight="bold" fill="#1a1a1a">let it fan out, then press</text>
<rect x="830.0" y="341.2" width="230.0" height="300" fill="#3a7d44" fill-opacity="0.10"/>
<line x1="600" y1="641.2" x2="1060" y2="641.2" stroke="#b5342c" stroke-width="1.6" stroke-dasharray="5 4"/>
<text x="1054" y="634.2" text-anchor="end" font-size="16" fill="#b5342c" font-family="Helvetica, Arial, sans-serif">the floor</text>
<line x1="600.0" y1="561.3" x2="657.5" y2="613.4" stroke="#2867b5" stroke-width="3" stroke-opacity="0.9"/>
<line x1="657.5" y1="613.4" x2="715.0" y2="613.4" stroke="#2867b5" stroke-width="3" stroke-opacity="0.9"/>
<line x1="715.0" y1="613.4" x2="772.5" y2="599.5" stroke="#2867b5" stroke-width="3" stroke-opacity="0.9"/>
<line x1="772.5" y1="599.5" x2="830.0" y2="627.3" stroke="#2867b5" stroke-width="3" stroke-opacity="0.9"/>
<line x1="830.0" y1="627.3" x2="887.5" y2="627.3" stroke="#3a7d44" stroke-width="3" stroke-opacity="0.9"/>
<line x1="887.5" y1="627.3" x2="945.0" y2="627.3" stroke="#3a7d44" stroke-width="3" stroke-opacity="0.9"/>
<line x1="945.0" y1="627.3" x2="1002.5" y2="641.2" stroke="#3a7d44" stroke-width="3" stroke-opacity="0.9"/>
<line x1="1002.5" y1="641.2" x2="1060.0" y2="641.2" stroke="#3a7d44" stroke-width="3" stroke-opacity="0.9"/>
<circle cx="600.0" cy="561.3" r="5.0" fill="#2867b5" fill-opacity="0.9" stroke="white" stroke-width="1.2"/>
<circle cx="657.5" cy="613.4" r="5.0" fill="#2867b5" fill-opacity="0.9" stroke="white" stroke-width="1.2"/>
<circle cx="715.0" cy="613.4" r="5.0" fill="#2867b5" fill-opacity="0.9" stroke="white" stroke-width="1.2"/>
<circle cx="772.5" cy="599.5" r="5.0" fill="#2867b5" fill-opacity="0.9" stroke="white" stroke-width="1.2"/>
<circle cx="830.0" cy="627.3" r="5.0" fill="#3a7d44" fill-opacity="0.9" stroke="white" stroke-width="1.2"/>
<circle cx="887.5" cy="627.3" r="5.0" fill="#3a7d44" fill-opacity="0.9" stroke="white" stroke-width="1.2"/>
<circle cx="945.0" cy="627.3" r="5.0" fill="#3a7d44" fill-opacity="0.9" stroke="white" stroke-width="1.2"/>
<circle cx="1002.5" cy="641.2" r="5.0" fill="#3a7d44" fill-opacity="0.9" stroke="white" stroke-width="1.2"/>
<circle cx="1060.0" cy="641.2" r="5.0" fill="#3a7d44" fill-opacity="0.9" stroke="white" stroke-width="1.2"/>
<line x1="600.0" y1="571.0" x2="657.5" y2="496.3" stroke="#2867b5" stroke-width="3" stroke-opacity="0.9"/>
<line x1="657.5" y1="496.3" x2="715.0" y2="597.7" stroke="#2867b5" stroke-width="3" stroke-opacity="0.9"/>
<line x1="715.0" y1="597.7" x2="772.5" y2="583.2" stroke="#2867b5" stroke-width="3" stroke-opacity="0.9"/>
<line x1="772.5" y1="583.2" x2="830.0" y2="627.3" stroke="#2867b5" stroke-width="3" stroke-opacity="0.9"/>
<line x1="830.0" y1="627.3" x2="887.5" y2="627.3" stroke="#3a7d44" stroke-width="3" stroke-opacity="0.9"/>
<line x1="887.5" y1="627.3" x2="945.0" y2="641.2" stroke="#3a7d44" stroke-width="3" stroke-opacity="0.9"/>
<line x1="945.0" y1="641.2" x2="1002.5" y2="641.2" stroke="#3a7d44" stroke-width="3" stroke-opacity="0.9"/>
<line x1="1002.5" y1="641.2" x2="1060.0" y2="641.2" stroke="#3a7d44" stroke-width="3" stroke-opacity="0.9"/>
<circle cx="600.0" cy="571.0" r="5.0" fill="#2867b5" fill-opacity="0.9" stroke="white" stroke-width="1.2"/>
<circle cx="657.5" cy="496.3" r="5.0" fill="#2867b5" fill-opacity="0.9" stroke="white" stroke-width="1.2"/>
<circle cx="715.0" cy="597.7" r="5.0" fill="#2867b5" fill-opacity="0.9" stroke="white" stroke-width="1.2"/>
<circle cx="772.5" cy="583.2" r="5.0" fill="#2867b5" fill-opacity="0.9" stroke="white" stroke-width="1.2"/>
<circle cx="830.0" cy="627.3" r="5.0" fill="#3a7d44" fill-opacity="0.9" stroke="white" stroke-width="1.2"/>
<circle cx="887.5" cy="627.3" r="5.0" fill="#3a7d44" fill-opacity="0.9" stroke="white" stroke-width="1.2"/>
<circle cx="945.0" cy="641.2" r="5.0" fill="#3a7d44" fill-opacity="0.9" stroke="white" stroke-width="1.2"/>
<circle cx="1002.5" cy="641.2" r="5.0" fill="#3a7d44" fill-opacity="0.9" stroke="white" stroke-width="1.2"/>
<circle cx="1060.0" cy="641.2" r="5.0" fill="#3a7d44" fill-opacity="0.9" stroke="white" stroke-width="1.2"/>
<text x="600" y="719.2" font-family="Helvetica, Arial, sans-serif" font-size="19" font-weight="normal" fill="#6b7684">Fanning out first, then pressing, reaches the</text>
<text x="600" y="745.8000000000001" font-family="Helvetica, Arial, sans-serif" font-size="19" font-weight="normal" fill="#6b7684">same floor.</text>
<line x1="1130" y1="641.2" x2="1590" y2="641.2" stroke="#1a1a1a" stroke-width="1.5"/>
<text x="1120" y="646.2" text-anchor="end" font-size="16" fill="#6b7684" font-family="Helvetica, Arial, sans-serif">0.0</text>
<line x1="1130" y1="574.5" x2="1590" y2="574.5" stroke="#e4e4e0" stroke-width="1"/>
<text x="1120" y="579.5" text-anchor="end" font-size="16" fill="#6b7684" font-family="Helvetica, Arial, sans-serif">0.2</text>
<line x1="1130" y1="507.9" x2="1590" y2="507.9" stroke="#e4e4e0" stroke-width="1"/>
<text x="1120" y="512.9" text-anchor="end" font-size="16" fill="#6b7684" font-family="Helvetica, Arial, sans-serif">0.4</text>
<line x1="1130" y1="441.2" x2="1590" y2="441.2" stroke="#e4e4e0" stroke-width="1"/>
<text x="1120" y="446.2" text-anchor="end" font-size="16" fill="#6b7684" font-family="Helvetica, Arial, sans-serif">0.6</text>
<line x1="1130" y1="374.5" x2="1590" y2="374.5" stroke="#e4e4e0" stroke-width="1"/>
<text x="1120" y="379.5" text-anchor="end" font-size="16" fill="#6b7684" font-family="Helvetica, Arial, sans-serif">0.8</text>
<text x="1130.0" y="665.2" text-anchor="middle" font-size="16" fill="#6b7684" font-family="Helvetica, Arial, sans-serif">0</text>
<text x="1187.5" y="665.2" text-anchor="middle" font-size="16" fill="#6b7684" font-family="Helvetica, Arial, sans-serif">1</text>
<text x="1245.0" y="665.2" text-anchor="middle" font-size="16" fill="#6b7684" font-family="Helvetica, Arial, sans-serif">2</text>
<text x="1302.5" y="665.2" text-anchor="middle" font-size="16" fill="#6b7684" font-family="Helvetica, Arial, sans-serif">3</text>
<text x="1360.0" y="665.2" text-anchor="middle" font-size="16" fill="#6b7684" font-family="Helvetica, Arial, sans-serif">4</text>
<text x="1417.5" y="665.2" text-anchor="middle" font-size="16" fill="#6b7684" font-family="Helvetica, Arial, sans-serif">5</text>
<text x="1475.0" y="665.2" text-anchor="middle" font-size="16" fill="#6b7684" font-family="Helvetica, Arial, sans-serif">6</text>
<text x="1532.5" y="665.2" text-anchor="middle" font-size="16" fill="#6b7684" font-family="Helvetica, Arial, sans-serif">7</text>
<text x="1590.0" y="665.2" text-anchor="middle" font-size="16" fill="#6b7684" font-family="Helvetica, Arial, sans-serif">8</text>
<text x="1360.0" y="687.2" text-anchor="middle" font-size="19" fill="#1a1a1a" font-family="Helvetica, Arial, sans-serif">round</text>
<text x="1360.0" y="325.2" text-anchor="middle" font-family="Helvetica, Arial, sans-serif" font-size="21" font-weight="bold" fill="#1a1a1a">keep at random after</text>
<rect x="1130.0" y="341.2" width="230.0" height="300" fill="#3a7d44" fill-opacity="0.10"/>
<line x1="1130.0" y1="561.3" x2="1187.5" y2="613.4" stroke="#3a7d44" stroke-width="3" stroke-opacity="0.9"/>
<line x1="1187.5" y1="613.4" x2="1245.0" y2="626.7" stroke="#3a7d44" stroke-width="3" stroke-opacity="0.9"/>
<line x1="1245.0" y1="626.7" x2="1302.5" y2="613.4" stroke="#3a7d44" stroke-width="3" stroke-opacity="0.9"/>
<line x1="1302.5" y1="613.4" x2="1360.0" y2="641.2" stroke="#3a7d44" stroke-width="3" stroke-opacity="0.9"/>
<line x1="1360.0" y1="641.2" x2="1417.5" y2="641.2" stroke="#c07d18" stroke-width="3" stroke-opacity="0.9"/>
<line x1="1417.5" y1="641.2" x2="1475.0" y2="627.3" stroke="#c07d18" stroke-width="3" stroke-opacity="0.9"/>
<line x1="1475.0" y1="627.3" x2="1532.5" y2="599.5" stroke="#c07d18" stroke-width="3" stroke-opacity="0.9"/>
<line x1="1532.5" y1="599.5" x2="1590.0" y2="606.5" stroke="#c07d18" stroke-width="3" stroke-opacity="0.9"/>
<circle cx="1130.0" cy="561.3" r="5.0" fill="#3a7d44" fill-opacity="0.9" stroke="white" stroke-width="1.2"/>
<circle cx="1187.5" cy="613.4" r="5.0" fill="#3a7d44" fill-opacity="0.9" stroke="white" stroke-width="1.2"/>
<circle cx="1245.0" cy="626.7" r="5.0" fill="#3a7d44" fill-opacity="0.9" stroke="white" stroke-width="1.2"/>
<circle cx="1302.5" cy="613.4" r="5.0" fill="#3a7d44" fill-opacity="0.9" stroke="white" stroke-width="1.2"/>
<circle cx="1360.0" cy="641.2" r="5.0" fill="#c07d18" fill-opacity="0.9" stroke="white" stroke-width="1.2"/>
<circle cx="1417.5" cy="641.2" r="5.0" fill="#c07d18" fill-opacity="0.9" stroke="white" stroke-width="1.2"/>
<circle cx="1475.0" cy="627.3" r="5.0" fill="#c07d18" fill-opacity="0.9" stroke="white" stroke-width="1.2"/>
<circle cx="1532.5" cy="599.5" r="5.0" fill="#c07d18" fill-opacity="0.9" stroke="white" stroke-width="1.2"/>
<circle cx="1590.0" cy="606.5" r="5.0" fill="#c07d18" fill-opacity="0.9" stroke="white" stroke-width="1.2"/>
<line x1="1130.0" y1="571.0" x2="1187.5" y2="557.9" stroke="#3a7d44" stroke-width="3" stroke-opacity="0.9"/>
<line x1="1187.5" y1="557.9" x2="1245.0" y2="597.7" stroke="#3a7d44" stroke-width="3" stroke-opacity="0.9"/>
<line x1="1245.0" y1="597.7" x2="1302.5" y2="613.4" stroke="#3a7d44" stroke-width="3" stroke-opacity="0.9"/>
<line x1="1302.5" y1="613.4" x2="1360.0" y2="571.8" stroke="#3a7d44" stroke-width="3" stroke-opacity="0.9"/>
<line x1="1360.0" y1="571.8" x2="1417.5" y2="599.5" stroke="#c07d18" stroke-width="3" stroke-opacity="0.9"/>
<line x1="1417.5" y1="599.5" x2="1475.0" y2="613.4" stroke="#c07d18" stroke-width="3" stroke-opacity="0.9"/>
<line x1="1475.0" y1="613.4" x2="1532.5" y2="613.4" stroke="#c07d18" stroke-width="3" stroke-opacity="0.9"/>
<line x1="1532.5" y1="613.4" x2="1590.0" y2="595.1" stroke="#c07d18" stroke-width="3" stroke-opacity="0.9"/>
<circle cx="1130.0" cy="571.0" r="5.0" fill="#3a7d44" fill-opacity="0.9" stroke="white" stroke-width="1.2"/>
<circle cx="1187.5" cy="557.9" r="5.0" fill="#3a7d44" fill-opacity="0.9" stroke="white" stroke-width="1.2"/>
<circle cx="1245.0" cy="597.7" r="5.0" fill="#3a7d44" fill-opacity="0.9" stroke="white" stroke-width="1.2"/>
<circle cx="1302.5" cy="613.4" r="5.0" fill="#3a7d44" fill-opacity="0.9" stroke="white" stroke-width="1.2"/>
<circle cx="1360.0" cy="571.8" r="5.0" fill="#c07d18" fill-opacity="0.9" stroke="white" stroke-width="1.2"/>
<circle cx="1417.5" cy="599.5" r="5.0" fill="#c07d18" fill-opacity="0.9" stroke="white" stroke-width="1.2"/>
<circle cx="1475.0" cy="613.4" r="5.0" fill="#c07d18" fill-opacity="0.9" stroke="white" stroke-width="1.2"/>
<circle cx="1532.5" cy="613.4" r="5.0" fill="#c07d18" fill-opacity="0.9" stroke="white" stroke-width="1.2"/>
<circle cx="1590.0" cy="595.1" r="5.0" fill="#c07d18" fill-opacity="0.9" stroke="white" stroke-width="1.2"/>
<line x1="1130.0" y1="561.7" x2="1187.5" y2="554.2" stroke="#3a7d44" stroke-width="3" stroke-opacity="0.9"/>
<line x1="1187.5" y1="554.2" x2="1245.0" y2="571.8" stroke="#3a7d44" stroke-width="3" stroke-opacity="0.9"/>
<line x1="1245.0" y1="571.8" x2="1302.5" y2="557.9" stroke="#3a7d44" stroke-width="3" stroke-opacity="0.9"/>
<line x1="1302.5" y1="557.9" x2="1360.0" y2="557.9" stroke="#3a7d44" stroke-width="3" stroke-opacity="0.9"/>
<line x1="1360.0" y1="557.9" x2="1417.5" y2="557.9" stroke="#c07d18" stroke-width="3" stroke-opacity="0.9"/>
<line x1="1417.5" y1="557.9" x2="1475.0" y2="585.6" stroke="#c07d18" stroke-width="3" stroke-opacity="0.9"/>
<line x1="1475.0" y1="585.6" x2="1532.5" y2="585.6" stroke="#c07d18" stroke-width="3" stroke-opacity="0.9"/>
<line x1="1532.5" y1="585.6" x2="1590.0" y2="610.0" stroke="#c07d18" stroke-width="3" stroke-opacity="0.9"/>
<circle cx="1130.0" cy="561.7" r="5.0" fill="#3a7d44" fill-opacity="0.9" stroke="white" stroke-width="1.2"/>
<circle cx="1187.5" cy="554.2" r="5.0" fill="#3a7d44" fill-opacity="0.9" stroke="white" stroke-width="1.2"/>
<circle cx="1245.0" cy="571.8" r="5.0" fill="#3a7d44" fill-opacity="0.9" stroke="white" stroke-width="1.2"/>
<circle cx="1302.5" cy="557.9" r="5.0" fill="#3a7d44" fill-opacity="0.9" stroke="white" stroke-width="1.2"/>
<circle cx="1360.0" cy="557.9" r="5.0" fill="#c07d18" fill-opacity="0.9" stroke="white" stroke-width="1.2"/>
<circle cx="1417.5" cy="557.9" r="5.0" fill="#c07d18" fill-opacity="0.9" stroke="white" stroke-width="1.2"/>
<circle cx="1475.0" cy="585.6" r="5.0" fill="#c07d18" fill-opacity="0.9" stroke="white" stroke-width="1.2"/>
<circle cx="1532.5" cy="585.6" r="5.0" fill="#c07d18" fill-opacity="0.9" stroke="white" stroke-width="1.2"/>
<circle cx="1590.0" cy="610.0" r="5.0" fill="#c07d18" fill-opacity="0.9" stroke="white" stroke-width="1.2"/>
<text x="1130" y="719.2" font-family="Helvetica, Arial, sans-serif" font-size="19" font-weight="normal" fill="#6b7684">Keeping answers at random drifts a little, with</text>
<text x="1130" y="745.8000000000001" font-family="Helvetica, Arial, sans-serif" font-size="19" font-weight="normal" fill="#6b7684">no pull back up.</text>
</svg>