<svg xmlns="http://www.w3.org/2000/svg" viewBox="0 0 1300 840" font-family="Helvetica, Arial, sans-serif">
<rect width="1300" height="840" fill="white"/>
<defs><marker id="arr" viewBox="0 0 10 10" refX="9" refY="5"
 markerWidth="6" markerHeight="6" orient="auto-start-reverse">
 <path d="M 0 0 L 10 5 L 0 10 z" fill="#1a1a1a"/></marker></defs>
<text text-anchor="middle" x="700" y="50.0" font-family="Helvetica, Arial, sans-serif" font-size="33"><tspan fill="#1a1a1a" font-weight="bold">Same </tspan><tspan fill="#1a1a1a" font-weight="bold">loop, </tspan><tspan fill="#1a1a1a" font-weight="bold">same </tspan><tspan fill="#1a1a1a" font-weight="bold">settings </tspan><tspan fill="#1a1a1a" font-weight="bold">— </tspan><tspan fill="#1a1a1a" font-weight="bold">the </tspan><tspan fill="#1a1a1a" font-weight="bold">judge's </tspan><tspan fill="#1a1a1a" font-weight="bold">identity </tspan><tspan fill="#1a1a1a" font-weight="bold">decides </tspan></text>
<text text-anchor="middle" x="700" y="92.0" font-family="Helvetica, Arial, sans-serif" font-size="33"><tspan fill="#1a1a1a" font-weight="bold">whether </tspan><tspan fill="#1a1a1a" font-weight="bold">the </tspan><tspan fill="#1a1a1a" font-weight="bold">outcome </tspan><tspan fill="#1a1a1a" font-weight="bold">is </tspan><tspan fill="#1a1a1a" font-weight="bold">predictable </tspan></text>
<text x="330.0" y="164" text-anchor="middle" font-size="24" font-weight="bold" fill="#2867b5" font-family="Helvetica, Arial, sans-serif">The organism judges its own answers</text>
<line x1="90" y1="580.0" x2="570" y2="580.0" stroke="#e4e4e0" stroke-width="1"/>
<text x="78" y="586.0" text-anchor="end" font-size="17" fill="#6b7684" font-family="Helvetica, Arial, sans-serif">0</text>
<line x1="90" y1="485.0" x2="570" y2="485.0" stroke="#e4e4e0" stroke-width="1"/>
<text x="78" y="491.0" text-anchor="end" font-size="17" fill="#6b7684" font-family="Helvetica, Arial, sans-serif">0.25</text>
<line x1="90" y1="390.0" x2="570" y2="390.0" stroke="#e4e4e0" stroke-width="1"/>
<text x="78" y="396.0" text-anchor="end" font-size="17" fill="#6b7684" font-family="Helvetica, Arial, sans-serif">0.5</text>
<line x1="90" y1="295.0" x2="570" y2="295.0" stroke="#e4e4e0" stroke-width="1"/>
<text x="78" y="301.0" text-anchor="end" font-size="17" fill="#6b7684" font-family="Helvetica, Arial, sans-serif">0.75</text>
<line x1="90" y1="200.0" x2="570" y2="200.0" stroke="#e4e4e0" stroke-width="1"/>
<text x="78" y="206.0" text-anchor="end" font-size="17" fill="#6b7684" font-family="Helvetica, Arial, sans-serif">1</text>
<text x="90.0" y="610" text-anchor="middle" font-size="17" fill="#6b7684" font-family="Helvetica, Arial, sans-serif">0</text>
<text x="186.0" y="610" text-anchor="middle" font-size="17" fill="#6b7684" font-family="Helvetica, Arial, sans-serif">1</text>
<text x="282.0" y="610" text-anchor="middle" font-size="17" fill="#6b7684" font-family="Helvetica, Arial, sans-serif">2</text>
<text x="378.0" y="610" text-anchor="middle" font-size="17" fill="#6b7684" font-family="Helvetica, Arial, sans-serif">3</text>
<text x="474.0" y="610" text-anchor="middle" font-size="17" fill="#6b7684" font-family="Helvetica, Arial, sans-serif">4</text>
<text x="570.0" y="610" text-anchor="middle" font-size="17" fill="#6b7684" font-family="Helvetica, Arial, sans-serif">5</text>
<text x="330.0" y="642" text-anchor="middle" font-size="18" fill="#1a1a1a" font-family="Helvetica, Arial, sans-serif">round</text>
<polyline points="90.0,379.4 186.0,316.1 282.0,316.1 378.0,316.1 474.0,263.3 570.0,347.8" fill="none" stroke="#2867b5" stroke-width="2.5" stroke-opacity="0.75"/>
<circle cx="570" cy="347.77777777777777" r="5" fill="#2867b5"/>
<polyline points="90.0,316.1 186.0,368.9 282.0,305.6 378.0,273.9 474.0,337.2 570.0,316.1" fill="none" stroke="#2867b5" stroke-width="2.5" stroke-opacity="0.75"/>
<circle cx="570" cy="316.1111111111111" r="5" fill="#2867b5"/>
<polyline points="90.0,284.4 186.0,368.9 282.0,442.8 378.0,432.2 474.0,485.0 570.0,432.2" fill="none" stroke="#2867b5" stroke-width="2.5" stroke-opacity="0.75"/>
<circle cx="570" cy="432.22222222222223" r="5" fill="#2867b5"/>
<polyline points="90.0,284.4 186.0,305.6 282.0,337.2 378.0,411.1 474.0,432.2 570.0,432.2" fill="none" stroke="#2867b5" stroke-width="2.5" stroke-opacity="0.75"/>
<circle cx="570" cy="432.22222222222223" r="5" fill="#2867b5"/>
<polyline points="90.0,358.3 186.0,273.9 282.0,347.8 378.0,400.6 474.0,326.7 570.0,305.6" fill="none" stroke="#2867b5" stroke-width="2.5" stroke-opacity="0.75"/>
<circle cx="570" cy="305.55555555555554" r="5" fill="#2867b5"/>
<polyline points="90.0,358.3 186.0,326.7 282.0,252.8 378.0,390.0 474.0,295.0 570.0,316.1" fill="none" stroke="#2867b5" stroke-width="2.5" stroke-opacity="0.75"/>
<circle cx="570" cy="316.1111111111111" r="5" fill="#2867b5"/>
<polyline points="90.0,358.3 186.0,295.0 282.0,358.3 378.0,400.6 474.0,527.2 570.0,569.4" fill="none" stroke="#2867b5" stroke-width="2.5" stroke-opacity="0.75"/>
<circle cx="570" cy="569.4444444444445" r="5" fill="#2867b5"/>
<polyline points="90.0,326.7 186.0,347.8 282.0,347.8 378.0,400.6 474.0,379.4 570.0,432.2" fill="none" stroke="#2867b5" stroke-width="2.5" stroke-opacity="0.75"/>
<circle cx="570" cy="432.22222222222223" r="5" fill="#2867b5"/>
<polyline points="90.0,305.6 186.0,284.4 282.0,316.1 378.0,273.9 474.0,379.4 570.0,379.4" fill="none" stroke="#2867b5" stroke-width="2.5" stroke-opacity="0.75"/>
<circle cx="570" cy="379.44444444444446" r="5" fill="#2867b5"/>
<polyline points="90.0,337.2 186.0,347.8 282.0,400.6 378.0,453.3 474.0,442.8 570.0,442.8" fill="none" stroke="#2867b5" stroke-width="2.5" stroke-opacity="0.75"/>
<circle cx="570" cy="442.77777777777777" r="5" fill="#2867b5"/>
<polyline points="90.0,326.7 186.0,284.4 282.0,326.7 378.0,326.7 474.0,273.9 570.0,273.9" fill="none" stroke="#2867b5" stroke-width="2.5" stroke-opacity="0.75"/>
<circle cx="570" cy="273.8888888888889" r="5" fill="#2867b5"/>
<polyline points="90.0,295.0 186.0,295.0 282.0,326.7 378.0,368.9 474.0,358.3 570.0,400.6" fill="none" stroke="#2867b5" stroke-width="2.5" stroke-opacity="0.75"/>
<circle cx="570" cy="400.55555555555554" r="5" fill="#2867b5"/>
<polyline points="90.0,295.0 186.0,358.3 282.0,347.8 378.0,453.3 474.0,368.9 570.0,474.4" fill="none" stroke="#2867b5" stroke-width="2.5" stroke-opacity="0.75"/>
<circle cx="570" cy="474.44444444444446" r="5" fill="#2867b5"/>
<polyline points="90.0,305.6 186.0,305.6 282.0,453.3 378.0,453.3 474.0,463.9 570.0,527.2" fill="none" stroke="#2867b5" stroke-width="2.5" stroke-opacity="0.75"/>
<circle cx="570" cy="527.2222222222222" r="5" fill="#2867b5"/>
<polyline points="90.0,337.2 186.0,390.0 282.0,358.3 378.0,495.6 474.0,537.8 570.0,558.9" fill="none" stroke="#2867b5" stroke-width="2.5" stroke-opacity="0.75"/>
<circle cx="570" cy="558.8888888888889" r="5" fill="#2867b5"/>
<text x="90" y="676.0" font-family="Helvetica, Arial, sans-serif" font-size="19"><tspan fill="#2867b5" font-weight="bold">15 </tspan><tspan fill="#2867b5" font-weight="bold">seeds </tspan><tspan fill="#2867b5" font-weight="bold">end </tspan><tspan fill="#2867b5" font-weight="bold">anywhere </tspan><tspan fill="#2867b5" font-weight="bold">from </tspan><tspan fill="#2867b5" font-weight="bold">0.03 </tspan><tspan fill="#2867b5" font-weight="bold">to </tspan><tspan fill="#2867b5" font-weight="bold">0.81 </tspan><tspan fill="#2867b5" font-weight="bold">— </tspan></text>
<text x="90" y="702.22" font-family="Helvetica, Arial, sans-serif" font-size="19"><tspan fill="#2867b5" font-weight="bold">rises, </tspan><tspan fill="#2867b5" font-weight="bold">plateaus, </tspan><tspan fill="#2867b5" font-weight="bold">and </tspan><tspan fill="#2867b5" font-weight="bold">collapses </tspan></text>
<text x="940.0" y="164" text-anchor="middle" font-size="24" font-weight="bold" fill="#3a7d44" font-family="Helvetica, Arial, sans-serif">A frozen base model judges</text>
<line x1="700" y1="580.0" x2="1180" y2="580.0" stroke="#e4e4e0" stroke-width="1"/>
<text x="688" y="586.0" text-anchor="end" font-size="17" fill="#6b7684" font-family="Helvetica, Arial, sans-serif">0</text>
<line x1="700" y1="485.0" x2="1180" y2="485.0" stroke="#e4e4e0" stroke-width="1"/>
<text x="688" y="491.0" text-anchor="end" font-size="17" fill="#6b7684" font-family="Helvetica, Arial, sans-serif">0.25</text>
<line x1="700" y1="390.0" x2="1180" y2="390.0" stroke="#e4e4e0" stroke-width="1"/>
<text x="688" y="396.0" text-anchor="end" font-size="17" fill="#6b7684" font-family="Helvetica, Arial, sans-serif">0.5</text>
<line x1="700" y1="295.0" x2="1180" y2="295.0" stroke="#e4e4e0" stroke-width="1"/>
<text x="688" y="301.0" text-anchor="end" font-size="17" fill="#6b7684" font-family="Helvetica, Arial, sans-serif">0.75</text>
<line x1="700" y1="200.0" x2="1180" y2="200.0" stroke="#e4e4e0" stroke-width="1"/>
<text x="688" y="206.0" text-anchor="end" font-size="17" fill="#6b7684" font-family="Helvetica, Arial, sans-serif">1</text>
<text x="700.0" y="610" text-anchor="middle" font-size="17" fill="#6b7684" font-family="Helvetica, Arial, sans-serif">0</text>
<text x="796.0" y="610" text-anchor="middle" font-size="17" fill="#6b7684" font-family="Helvetica, Arial, sans-serif">1</text>
<text x="892.0" y="610" text-anchor="middle" font-size="17" fill="#6b7684" font-family="Helvetica, Arial, sans-serif">2</text>
<text x="988.0" y="610" text-anchor="middle" font-size="17" fill="#6b7684" font-family="Helvetica, Arial, sans-serif">3</text>
<text x="1084.0" y="610" text-anchor="middle" font-size="17" fill="#6b7684" font-family="Helvetica, Arial, sans-serif">4</text>
<text x="1180.0" y="610" text-anchor="middle" font-size="17" fill="#6b7684" font-family="Helvetica, Arial, sans-serif">5</text>
<text x="940.0" y="642" text-anchor="middle" font-size="18" fill="#1a1a1a" font-family="Helvetica, Arial, sans-serif">round</text>
<polyline points="700.0,368.9 796.0,400.6 892.0,347.8 988.0,368.9 1084.0,421.7 1180.0,516.7" fill="none" stroke="#3a7d44" stroke-width="2.5" stroke-opacity="0.75"/>
<circle cx="1180" cy="516.6666666666667" r="5" fill="#3a7d44"/>
<polyline points="700.0,337.2 796.0,347.8 892.0,400.6 988.0,411.1 1084.0,411.1 1180.0,463.9" fill="none" stroke="#3a7d44" stroke-width="2.5" stroke-opacity="0.75"/>
<circle cx="1180" cy="463.88888888888886" r="5" fill="#3a7d44"/>
<polyline points="700.0,326.7 796.0,368.9 892.0,411.1 988.0,390.0 1084.0,453.3 1180.0,506.1" fill="none" stroke="#3a7d44" stroke-width="2.5" stroke-opacity="0.75"/>
<circle cx="1180" cy="506.11111111111114" r="5" fill="#3a7d44"/>
<polyline points="700.0,358.3 796.0,368.9 892.0,400.6 988.0,453.3 1084.0,495.6 1180.0,495.6" fill="none" stroke="#3a7d44" stroke-width="2.5" stroke-opacity="0.75"/>
<circle cx="1180" cy="495.55555555555554" r="5" fill="#3a7d44"/>
<polyline points="700.0,326.7 796.0,358.3 892.0,463.9 988.0,485.0 1084.0,495.6 1180.0,537.8" fill="none" stroke="#3a7d44" stroke-width="2.5" stroke-opacity="0.75"/>
<circle cx="1180" cy="537.7777777777778" r="5" fill="#3a7d44"/>
<polyline points="700.0,337.2 796.0,411.1 892.0,326.7 988.0,400.6 1084.0,432.2 1180.0,463.9" fill="none" stroke="#3a7d44" stroke-width="2.5" stroke-opacity="0.75"/>
<circle cx="1180" cy="463.88888888888886" r="5" fill="#3a7d44"/>
<polyline points="700.0,347.8 796.0,326.7 892.0,390.0 988.0,463.9 1084.0,474.4 1180.0,400.6" fill="none" stroke="#3a7d44" stroke-width="2.5" stroke-opacity="0.75"/>
<circle cx="1180" cy="400.55555555555554" r="5" fill="#3a7d44"/>
<polyline points="700.0,368.9 796.0,305.6 892.0,337.2 988.0,463.9 1084.0,506.1 1180.0,485.0" fill="none" stroke="#3a7d44" stroke-width="2.5" stroke-opacity="0.75"/>
<circle cx="1180" cy="485.0" r="5" fill="#3a7d44"/>
<text x="700" y="676.0" font-family="Helvetica, Arial, sans-serif" font-size="19"><tspan fill="#3a7d44" font-weight="bold">all </tspan><tspan fill="#3a7d44" font-weight="bold">8 </tspan><tspan fill="#3a7d44" font-weight="bold">seeds </tspan><tspan fill="#3a7d44" font-weight="bold">decay </tspan><tspan fill="#3a7d44" font-weight="bold">together </tspan><tspan fill="#3a7d44" font-weight="bold">to </tspan><tspan fill="#3a7d44" font-weight="bold">0.11–0.47 </tspan><tspan fill="#3a7d44" font-weight="bold">— </tspan></text>
<text x="700" y="702.22" font-family="Helvetica, Arial, sans-serif" font-size="19"><tspan fill="#3a7d44" font-weight="bold">reversion </tspan><tspan fill="#3a7d44" font-weight="bold">every </tspan><tspan fill="#3a7d44" font-weight="bold">time </tspan></text>
<text x="34" y="390" font-size="18" fill="#1a1a1a" font-family="Helvetica, Arial, sans-serif" transform="rotate(-90 34 390)" text-anchor="middle">risk coordinate</text>
<text x="90" y="782.0" font-family="Helvetica, Arial, sans-serif" font-size="18"><tspan fill="#6b7684" font-weight="normal">Where </tspan><tspan fill="#6b7684" font-weight="normal">a </tspan><tspan fill="#6b7684" font-weight="normal">self-judged </tspan><tspan fill="#6b7684" font-weight="normal">run </tspan><tspan fill="#6b7684" font-weight="normal">ends </tspan><tspan fill="#6b7684" font-weight="normal">is </tspan><tspan fill="#6b7684" font-weight="normal">barely </tspan><tspan fill="#6b7684" font-weight="normal">predictable </tspan><tspan fill="#6b7684" font-weight="normal">from </tspan><tspan fill="#6b7684" font-weight="normal">its </tspan><tspan fill="#6b7684" font-weight="normal">early </tspan><tspan fill="#6b7684" font-weight="normal">state: </tspan><tspan fill="#6b7684" font-weight="normal">across </tspan><tspan fill="#6b7684" font-weight="normal">the </tspan><tspan fill="#6b7684" font-weight="normal">15 </tspan><tspan fill="#6b7684" font-weight="normal">seeds, </tspan><tspan fill="#6b7684" font-weight="normal">risk </tspan><tspan fill="#6b7684" font-weight="normal">after </tspan><tspan fill="#6b7684" font-weight="normal">round </tspan><tspan fill="#6b7684" font-weight="normal">1 </tspan></text>
<text x="90" y="806.84" font-family="Helvetica, Arial, sans-serif" font-size="18"><tspan fill="#6b7684" font-weight="normal">explains </tspan><tspan fill="#6b7684" font-weight="normal">only </tspan><tspan fill="#6b7684" font-weight="normal">10% </tspan><tspan fill="#6b7684" font-weight="normal">of </tspan><tspan fill="#6b7684" font-weight="normal">the </tspan><tspan fill="#6b7684" font-weight="normal">variance </tspan><tspan fill="#6b7684" font-weight="normal">in </tspan><tspan fill="#6b7684" font-weight="normal">the </tspan><tspan fill="#6b7684" font-weight="normal">final </tspan><tspan fill="#6b7684" font-weight="normal">value </tspan><tspan fill="#6b7684" font-weight="normal">(r </tspan><tspan fill="#6b7684" font-weight="normal">= </tspan><tspan fill="#6b7684" font-weight="normal">0.32). </tspan><tspan fill="#6b7684" font-weight="normal">The </tspan><tspan fill="#6b7684" font-weight="normal">divergence </tspan><tspan fill="#6b7684" font-weight="normal">happens </tspan><tspan fill="#6b7684" font-weight="normal">mid-flight </tspan><tspan fill="#6b7684" font-weight="normal">— </tspan><tspan fill="#6b7684" font-weight="normal">created </tspan><tspan fill="#6b7684" font-weight="normal">by </tspan><tspan fill="#6b7684" font-weight="normal">the </tspan></text>
<text x="90" y="831.68" font-family="Helvetica, Arial, sans-serif" font-size="18"><tspan fill="#6b7684" font-weight="normal">feedback </tspan><tspan fill="#6b7684" font-weight="normal">between </tspan><tspan fill="#6b7684" font-weight="normal">a </tspan><tspan fill="#6b7684" font-weight="normal">drifting </tspan><tspan fill="#6b7684" font-weight="normal">policy </tspan><tspan fill="#6b7684" font-weight="normal">and </tspan><tspan fill="#6b7684" font-weight="normal">a </tspan><tspan fill="#6b7684" font-weight="normal">drifting </tspan><tspan fill="#6b7684" font-weight="normal">judge. </tspan></text>
</svg>