<svg xmlns="http://www.w3.org/2000/svg" viewBox="0 0 1660 460" font-family="Helvetica, Arial, sans-serif">
<rect width="1660" height="460" fill="white"/>
<path d="M 420.0 235.0 A 320.0 125.0 0 0 1 740.0 110.0" fill="none" stroke="#6b7684" stroke-width="4"/>
<path d="M 740.0 110.0 A 320.0 125.0 0 0 1 1060.0 235.0" fill="none" stroke="#6b7684" stroke-width="4"/>
<path d="M 1060.0 235.0 A 320.0 125.0 0 0 1 420.0 235.0" fill="none" stroke="#6b7684" stroke-width="4"/>
<path d="M 524.9 142.2 L 507.6 157.4 L 501.9 142.8 z" fill="#6b7684"/>
<path d="M 977.5 151.0 L 954.5 150.4 L 960.2 135.9 z" fill="#6b7684"/>
<path d="M 888.3 345.9 L 907.6 333.5 L 911.1 348.8 z" fill="#6b7684"/>
<path d="M 568.3 340.6 L 591.1 337.8 L 587.6 353.0 z" fill="#6b7684"/>
<rect x="386.4" y="208.6" width="67.2" height="52.8" rx="12.0" fill="white" stroke="#2867b5" stroke-width="3.4"/>
<circle cx="408.0" cy="233.8" r="4.8" fill="#2867b5"/>
<circle cx="432.0" cy="233.8" r="4.8" fill="#2867b5"/>
<path d="M 405.6 248.2 Q 420.0 257.8 434.4 248.2" stroke="#2867b5" stroke-width="3.4" fill="none"/>
<line x1="420.0" y1="208.6" x2="420.0" y2="196.6" stroke="#2867b5" stroke-width="3.4"/>
<circle cx="420.0" cy="193.0" r="4.8" fill="#2867b5"/>
<text x="420.0" y="297.0" text-anchor="middle" font-family="Helvetica, Arial, sans-serif" font-size="21" font-weight="bold" fill="#2867b5" stroke="white" stroke-width="9" paint-order="stroke" stroke-linejoin="round">starting model</text>
<rect x="698" y="78" width="72" height="54" rx="8" fill="white" stroke="#2867b5" stroke-width="2.6"/>
<rect x="707" y="86" width="72" height="54" rx="8" fill="white" stroke="#2867b5" stroke-width="2.6"/>
<rect x="716" y="94" width="72" height="54" rx="8" fill="#f4f7fb" stroke="#2867b5" stroke-width="2.6"/>
<line x1="728" y1="106" x2="776" y2="106" stroke="#6b7684" stroke-width="3" stroke-linecap="round"/>
<line x1="728" y1="118" x2="776" y2="118" stroke="#6b7684" stroke-width="3" stroke-linecap="round"/>
<line x1="728" y1="130" x2="776" y2="130" stroke="#6b7684" stroke-width="3" stroke-linecap="round"/>
<rect x="1026.4" y="208.6" width="67.2" height="52.8" rx="12.0" fill="#eef3fa" stroke="#6f97cc" stroke-width="3.4"/>
<circle cx="1048.0" cy="233.8" r="4.8" fill="#6f97cc"/>
<circle cx="1072.0" cy="233.8" r="4.8" fill="#6f97cc"/>
<path d="M 1045.6 248.2 Q 1060.0 257.8 1074.4 248.2" stroke="#6f97cc" stroke-width="3.4" fill="none"/>
<line x1="1060.0" y1="208.6" x2="1060.0" y2="196.6" stroke="#6f97cc" stroke-width="3.4"/>
<circle cx="1060.0" cy="193.0" r="4.8" fill="#6f97cc"/>
<text x="1060.0" y="297.0" text-anchor="middle" font-family="Helvetica, Arial, sans-serif" font-size="21" font-weight="bold" fill="#6f97cc" stroke="white" stroke-width="9" paint-order="stroke" stroke-linejoin="round">successor model</text>
<text x="505.0" y="96.0" text-anchor="middle" font-family="Helvetica, Arial, sans-serif" font-size="21" font-weight="bold" fill="#1a1a1a">generates &amp; selects</text>
<text x="505.0" y="122.0" text-anchor="middle" font-family="Helvetica, Arial, sans-serif" font-size="21" font-weight="bold" fill="#1a1a1a">its training data</text>
<text x="985.0" y="109.0" text-anchor="middle" font-family="Helvetica, Arial, sans-serif" font-size="21" font-weight="bold" fill="#1a1a1a">fine-tunes</text>
<text x="740.0" y="205.0" text-anchor="middle" font-family="Helvetica, Arial, sans-serif" font-size="21" font-weight="normal" fill="#6b7684">self-rewarding</text>
<text x="740.0" y="235.0" text-anchor="middle" font-family="Helvetica, Arial, sans-serif" font-size="21" font-weight="normal" fill="#6b7684">constitutional loops</text>
<text x="740.0" y="265.0" text-anchor="middle" font-family="Helvetica, Arial, sans-serif" font-size="21" font-weight="normal" fill="#6b7684">synthetic data</text>
<text x="740.0" y="407.0" text-anchor="middle" font-family="Helvetica, Arial, sans-serif" font-size="22" font-weight="bold" fill="#1a1a1a">replaces</text>
<circle cx="185.0" cy="128.0" r="34.0" fill="#f4f7fb" stroke="#1a1a1a" stroke-width="5"/>
<circle cx="185.0" cy="128.0" r="7.5" fill="#2867b5"/>
<line x1="161.0" y1="152.0" x2="131.0" y2="182.0" stroke="#1a1a1a" stroke-width="9" stroke-linecap="round"/>
<line x1="217.0" y1="139.6" x2="362" y2="222" stroke="#6b7684" stroke-width="2.5" stroke-dasharray="7 6"/>
<text x="185.0" y="235.0" text-anchor="middle" font-family="Helvetica, Arial, sans-serif" font-size="20" font-weight="normal" fill="#1a1a1a">install a value,</text>
<text x="185.0" y="264.0" text-anchor="middle" font-family="Helvetica, Arial, sans-serif" font-size="20" font-weight="normal" fill="#1a1a1a">close the loop,</text>
<text x="185.0" y="293.0" text-anchor="middle" font-family="Helvetica, Arial, sans-serif" font-size="20" font-weight="normal" fill="#1a1a1a">watch it move</text>
<line x1="1100" y1="235" x2="1146" y2="235" stroke="#6b7684" stroke-width="3.4"/>
<path d="M 1146 235 C 1192 235, 1206 170, 1258 158" fill="none" stroke="#3a7d44" stroke-width="3.6"/>
<path d="M 1268.8 155.7 L 1250.9 166.8 L 1247.9 152.8 z" fill="#3a7d44"/>
<path d="M 1146 235 C 1192 235, 1206 300, 1258 312" fill="none" stroke="#b5342c" stroke-width="3.6"/>
<path d="M 1268.8 314.3 L 1247.9 317.2 L 1250.9 303.2 z" fill="#b5342c"/>
<path d="M 1316.2 128.3 L 1318.2 128.1 L 1320.3 128.0 L 1322.4 128.1 L 1324.4 128.5 L 1326.5 129.0 L 1328.4 129.7 L 1330.3 130.6 L 1332.1 131.6 L 1333.8 132.8 L 1335.3 134.2 L 1336.7 135.7 L 1338.0 137.4 L 1339.1 139.1 L 1340.1 141.0 L 1340.8 142.9 L 1341.4 144.9 L 1341.8 147.0 L 1342.0 149.0 L 1342.0 151.1 L 1341.8 153.2 L 1341.4 155.2 L 1340.8 157.2 L 1340.0 159.2 L 1339.1 161.0 L 1337.9 162.7 L 1336.6 164.4 L 1335.2 165.9 L 1333.6 167.3 L 1332.0 168.5 L 1330.2 169.5 L 1328.3 170.4 L 1326.3 171.1 L 1324.3 171.6 L 1322.2 171.9 L 1320.2 172.0 L 1318.1 171.9 L 1316.0 171.6 L 1314.0 171.2 L 1312.0 170.5 L 1310.1 169.7 L 1308.3 168.6 L 1306.6 167.5 L 1305.0 166.1 L 1303.6 164.6 L 1302.3 163.0 L 1301.1 161.3 L 1300.1 159.4 L 1299.3 157.5 L 1298.7 155.5 L 1298.3 153.5 L 1298.0 151.4 L 1298.0 149.4 L 1298.2 147.3 L 1298.5 145.2 L 1299.1 143.2 L 1299.8 141.3 L 1300.7 139.4 L 1301.8 137.6 L 1303.0 136.0 L 1304.4 134.4" fill="none" stroke="#3a7d44" stroke-width="3.8" stroke-linecap="round"/>
<path d="M 1311.2 127.0 L 1303.9 144.7 L 1294.3 136.0 z" fill="#3a7d44"/>
<text x="1362.0" y="147.0" font-family="Helvetica, Arial, sans-serif" font-size="21" font-weight="bold" fill="#3a7d44">virtuous cycle</text>
<path d="M 1319.3 306.1 L 1319.7 305.7 L 1320.2 305.4 L 1320.7 305.2 L 1321.2 305.0 L 1321.9 304.9 L 1322.5 304.9 L 1323.2 304.9 L 1323.9 305.1 L 1324.5 305.3 L 1325.2 305.6 L 1325.9 306.0 L 1326.5 306.5 L 1327.1 307.1 L 1327.7 307.8 L 1328.1 308.6 L 1328.5 309.4 L 1328.8 310.3 L 1329.0 311.3 L 1329.1 312.3 L 1329.1 313.3 L 1328.9 314.4 L 1328.7 315.4 L 1328.3 316.5 L 1327.8 317.5 L 1327.1 318.5 L 1326.3 319.4 L 1325.5 320.3 L 1324.5 321.0 L 1323.4 321.7 L 1322.2 322.3 L 1320.9 322.7 L 1319.5 323.0 L 1318.1 323.2 L 1316.7 323.2 L 1315.2 323.1 L 1313.8 322.7 L 1312.3 322.3 L 1310.9 321.6 L 1309.6 320.8 L 1308.3 319.8 L 1307.1 318.7 L 1306.0 317.5 L 1305.0 316.1 L 1304.2 314.5 L 1303.5 312.9 L 1303.0 311.2 L 1302.7 309.4 L 1302.6 307.6 L 1302.7 305.7 L 1303.0 303.8 L 1303.4 301.9 L 1304.1 300.1 L 1305.0 298.3 L 1306.1 296.6 L 1307.4 295.0 L 1308.9 293.6 L 1310.6 292.2 L 1312.4 291.1 L 1314.3 290.1 L 1316.4 289.4 L 1318.5 288.8 L 1320.8 288.5 L 1323.0 288.4 L 1325.3 288.6 L 1327.7 289.0 L 1329.9 289.6 L 1332.2 290.5 L 1334.3 291.7 L 1336.3 293.1 L 1338.2 294.7 L 1340.0 296.5 L 1341.5 298.6 L 1342.8 300.8 L 1344.0 303.1 L 1344.8 305.6 L 1345.4 308.2 L 1345.8 310.9 L 1345.8 313.6 L 1345.6 316.4 L 1345.0 319.1 L 1344.2 321.8 L 1343.1 324.4 L 1341.6 326.9 L 1340.0 329.3 L 1338.0 331.5 L 1335.8 333.5 L 1333.4 335.3 L 1330.8 336.8 L 1328.0 338.0 L 1325.1 339.0" fill="none" stroke="#b5342c" stroke-width="3.8" stroke-linecap="round"/>
<path d="M 1315.6 342.1 L 1330.7 330.3 L 1334.7 342.7 z" fill="#b5342c"/>
<text x="1362.0" y="307.0" font-family="Helvetica, Arial, sans-serif" font-size="21" font-weight="bold" fill="#b5342c">vicious cycle</text>
</svg>