<svg xmlns="http://www.w3.org/2000/svg" viewBox="0 0 1400 475" font-family="Helvetica, Arial, sans-serif">
<rect width="1400" height="475" fill="white"/>
<defs><marker id="arrg" viewBox="0 0 10 10" refX="9" refY="5"
 markerWidth="6" markerHeight="6" orient="auto-start-reverse">
 <path d="M 0 0 L 10 5 L 0 10 z" fill="#6b7684"/></marker></defs>
<text x="700.0" y="54" text-anchor="middle" font-family="Helvetica, Arial, sans-serif" font-size="31" font-weight="bold" fill="#1a1a1a">Each run is compared to its own untrained twin</text>
<text x="700.0" y="93" text-anchor="middle" font-family="Helvetica, Arial, sans-serif" font-size="20" font-weight="normal" fill="#6b7684">One run is the unit: the treated run's final risk minus a same-start untrained twin.</text>
<line x1="270" y1="179" x2="1130" y2="179" stroke="#6b7684" stroke-width="1.5"/>
<line x1="270.0" y1="174" x2="270.0" y2="184" stroke="#6b7684" stroke-width="1.2"/>
<text x="270.0" y="167" text-anchor="middle" font-size="17" fill="#6b7684" font-family="Helvetica, Arial, sans-serif">0.00</text>
<line x1="485.0" y1="174" x2="485.0" y2="184" stroke="#6b7684" stroke-width="1.2"/>
<text x="485.0" y="167" text-anchor="middle" font-size="17" fill="#6b7684" font-family="Helvetica, Arial, sans-serif">0.25</text>
<line x1="700.0" y1="174" x2="700.0" y2="184" stroke="#6b7684" stroke-width="1.2"/>
<text x="700.0" y="167" text-anchor="middle" font-size="17" fill="#6b7684" font-family="Helvetica, Arial, sans-serif">0.50</text>
<line x1="915.0" y1="174" x2="915.0" y2="184" stroke="#6b7684" stroke-width="1.2"/>
<text x="915.0" y="167" text-anchor="middle" font-size="17" fill="#6b7684" font-family="Helvetica, Arial, sans-serif">0.75</text>
<line x1="1130.0" y1="174" x2="1130.0" y2="184" stroke="#6b7684" stroke-width="1.2"/>
<text x="1130.0" y="167" text-anchor="middle" font-size="17" fill="#6b7684" font-family="Helvetica, Arial, sans-serif">1.00</text>
<text x="700.0" y="145" text-anchor="middle" font-size="19" fill="#1a1a1a" font-family="Helvetica, Arial, sans-serif">how risk-seeking at the end (started near 0.60)</text>
<text x="250" y="229" text-anchor="end" font-size="18" fill="#1a1a1a" font-family="Helvetica, Arial, sans-serif">run 1</text>
<line x1="786.0" y1="223" x2="493.6" y2="223" stroke="#b5342c" stroke-width="3"/>
<circle cx="786.0" cy="223" r="7.5" fill="#6b7684"/>
<circle cx="493.6" cy="223" r="7.5" fill="#b5342c"/>
<text x="802.0" y="229" font-size="18" font-weight="bold" fill="#b5342c" font-family="Helvetica, Arial, sans-serif">-0.34</text>
<text x="250" y="275" text-anchor="end" font-size="18" fill="#1a1a1a" font-family="Helvetica, Arial, sans-serif">run 2</text>
<line x1="674.2" y1="269" x2="880.6" y2="269" stroke="#2867b5" stroke-width="3"/>
<circle cx="674.2" cy="269" r="7.5" fill="#6b7684"/>
<circle cx="880.6" cy="269" r="7.5" fill="#2867b5"/>
<text x="896.6" y="275" font-size="18" font-weight="bold" fill="#2867b5" font-family="Helvetica, Arial, sans-serif">+0.24</text>
<text x="250" y="321" text-anchor="end" font-size="18" fill="#1a1a1a" font-family="Helvetica, Arial, sans-serif">run 3</text>
<line x1="786.0" y1="315" x2="1026.8" y2="315" stroke="#2867b5" stroke-width="3"/>
<circle cx="786.0" cy="315" r="7.5" fill="#6b7684"/>
<circle cx="1026.8" cy="315" r="7.5" fill="#2867b5"/>
<text x="1042.8" y="321" font-size="18" font-weight="bold" fill="#2867b5" font-family="Helvetica, Arial, sans-serif">+0.28</text>
<text x="250" y="367" text-anchor="end" font-size="18" fill="#1a1a1a" font-family="Helvetica, Arial, sans-serif">run 4</text>
<line x1="777.4" y1="361" x2="1130.0" y2="361" stroke="#2867b5" stroke-width="3"/>
<circle cx="777.4" cy="361" r="7.5" fill="#6b7684"/>
<circle cx="1130.0" cy="361" r="7.5" fill="#2867b5"/>
<text x="1146.0" y="367" font-size="18" font-weight="bold" fill="#2867b5" font-family="Helvetica, Arial, sans-serif">+0.41</text>
<circle cx="270" cy="429" r="7.5" fill="#6b7684"/>
<text x="286" y="435" font-size="19" fill="#1a1a1a" font-family="Helvetica, Arial, sans-serif">untrained twin (same start)</text>
<circle cx="700" cy="429" r="7.5" fill="#2867b5"/>
<text x="716" y="435" font-size="19" fill="#1a1a1a" font-family="Helvetica, Arial, sans-serif">treated run — the bar is the difference</text>
</svg>