<svg xmlns="http://www.w3.org/2000/svg" viewBox="0 0 1560 902" font-family="Helvetica, Arial, sans-serif">
<rect width="1560" height="902" fill="white"/>
<text x="780.0" y="48.0" text-anchor="middle" font-family="Helvetica, Arial, sans-serif" font-size="31" font-weight="bold" fill="#1a1a1a">A value moves only with both variation and an aligned pull</text>
<text x="780.0" y="82.0" text-anchor="middle" font-family="Helvetica, Arial, sans-serif" font-size="19" font-weight="normal" fill="#6b7684">Every training round at its real (value spread, selection gap); each point computed from that round's raw candidate answers.</text>
<text x="780.0" y="108.0" text-anchor="middle" font-family="Helvetica, Arial, sans-serif" font-size="16" font-weight="normal" fill="#6b7684">Arrow thickness = how far the value moved that round; each intervention is numbered, with its value change in the key at right.</text>
<rect x="214" y="176" width="852" height="320.0" fill="#edf4ee"/>
<rect x="214" y="496.0" width="852" height="240.0" fill="#f6efe7"/>
<rect x="214" y="176" width="121.7" height="560" fill="#eef1f5" fill-opacity="0.75"/>
<line x1="335.7" y1="176" x2="335.7" y2="736" stroke="#cdd3da" stroke-width="1.5" stroke-dasharray="4 5"/>
<text x="353.1" y="206.0" text-anchor="start" font-family="Helvetica, Arial, sans-serif" font-size="17" font-weight="normal" fill="#2f6b39" font-style="italic">↑ pull toward the target</text>
<text x="353.1" y="722.0" text-anchor="start" font-family="Helvetica, Arial, sans-serif" font-size="17" font-weight="normal" fill="#9a6a2e" font-style="italic">↓ pull the other way</text>
<text x="328" y="456.0" font-size="15" fill="#6b7684" font-family="Helvetica, Arial, sans-serif" font-style="italic" transform="rotate(-90 328 456.0)" text-anchor="middle">no variation — nothing to select</text>
<line x1="214" y1="229.3" x2="1066" y2="229.3" stroke="#e6e9ec" stroke-width="1.0"/>
<text x="202.0" y="234.3" text-anchor="end" font-family="Helvetica, Arial, sans-serif" font-size="16" font-weight="normal" fill="#6b7684">+0.4</text>
<line x1="214" y1="296.0" x2="1066" y2="296.0" stroke="#e6e9ec" stroke-width="1.0"/>
<text x="202.0" y="301.0" text-anchor="end" font-family="Helvetica, Arial, sans-serif" font-size="16" font-weight="normal" fill="#6b7684">+0.3</text>
<line x1="214" y1="362.7" x2="1066" y2="362.7" stroke="#e6e9ec" stroke-width="1.0"/>
<text x="202.0" y="367.7" text-anchor="end" font-family="Helvetica, Arial, sans-serif" font-size="16" font-weight="normal" fill="#6b7684">+0.2</text>
<line x1="214" y1="429.3" x2="1066" y2="429.3" stroke="#e6e9ec" stroke-width="1.0"/>
<text x="202.0" y="434.3" text-anchor="end" font-family="Helvetica, Arial, sans-serif" font-size="16" font-weight="normal" fill="#6b7684">+0.1</text>
<line x1="214" y1="496.0" x2="1066" y2="496.0" stroke="#8f96a0" stroke-width="2.0"/>
<text x="202.0" y="501.0" text-anchor="end" font-family="Helvetica, Arial, sans-serif" font-size="16" font-weight="normal" fill="#6b7684">0</text>
<line x1="214" y1="562.7" x2="1066" y2="562.7" stroke="#e6e9ec" stroke-width="1.0"/>
<text x="202.0" y="567.7" text-anchor="end" font-family="Helvetica, Arial, sans-serif" font-size="16" font-weight="normal" fill="#6b7684">−0.1</text>
<line x1="214" y1="629.3" x2="1066" y2="629.3" stroke="#e6e9ec" stroke-width="1.0"/>
<text x="202.0" y="634.3" text-anchor="end" font-family="Helvetica, Arial, sans-serif" font-size="16" font-weight="normal" fill="#6b7684">−0.2</text>
<line x1="214" y1="696.0" x2="1066" y2="696.0" stroke="#e6e9ec" stroke-width="1.0"/>
<text x="202.0" y="701.0" text-anchor="end" font-family="Helvetica, Arial, sans-serif" font-size="16" font-weight="normal" fill="#6b7684">−0.3</text>
<line x1="248.8" y1="176" x2="248.8" y2="736" stroke="#eef0f2" stroke-width="1"/>
<text x="248.8" y="762.0" text-anchor="middle" font-family="Helvetica, Arial, sans-serif" font-size="16" font-weight="normal" fill="#6b7684">0.0</text>
<line x1="422.7" y1="176" x2="422.7" y2="736" stroke="#eef0f2" stroke-width="1"/>
<text x="422.7" y="762.0" text-anchor="middle" font-family="Helvetica, Arial, sans-serif" font-size="16" font-weight="normal" fill="#6b7684">0.1</text>
<line x1="596.5" y1="176" x2="596.5" y2="736" stroke="#eef0f2" stroke-width="1"/>
<text x="596.5" y="762.0" text-anchor="middle" font-family="Helvetica, Arial, sans-serif" font-size="16" font-weight="normal" fill="#6b7684">0.2</text>
<line x1="770.4" y1="176" x2="770.4" y2="736" stroke="#eef0f2" stroke-width="1"/>
<text x="770.4" y="762.0" text-anchor="middle" font-family="Helvetica, Arial, sans-serif" font-size="16" font-weight="normal" fill="#6b7684">0.3</text>
<line x1="944.3" y1="176" x2="944.3" y2="736" stroke="#eef0f2" stroke-width="1"/>
<text x="944.3" y="762.0" text-anchor="middle" font-family="Helvetica, Arial, sans-serif" font-size="16" font-weight="normal" fill="#6b7684">0.4</text>
<line x1="214" y1="176" x2="214" y2="736" stroke="#6b7684" stroke-width="1.5"/>
<line x1="214" y1="736" x2="1066" y2="736" stroke="#6b7684" stroke-width="1.5"/>
<text x="1058" y="488.0" text-anchor="end" font-size="19" fill="#6b7684" font-family="Helvetica, Arial, sans-serif">gap = 0 · no pull (kept ≈ pool)</text>
<text x="640.0" y="792.0" text-anchor="middle" font-family="Helvetica, Arial, sans-serif" font-size="22" font-weight="bold" fill="#1a1a1a">value spread</text>
<text x="640.0" y="816.0" text-anchor="middle" font-family="Helvetica, Arial, sans-serif" font-size="16" font-weight="normal" fill="#6b7684">how much the candidate answers vary that round (within-item SD)</text>
<text x="150" y="456.0" font-size="19" font-weight="bold" fill="#1a1a1a" font-family="Helvetica, Arial, sans-serif" transform="rotate(-90 150 456.0)" text-anchor="middle">the judge’s pull = the selection gap</text>
<text x="128" y="456.0" font-size="15" fill="#6b7684" font-family="Helvetica, Arial, sans-serif" transform="rotate(-90 128 456.0)" text-anchor="middle">kept answers’ average − pool average, signed toward the target</text>
<circle cx="248.8" cy="496.0" r="6.5" fill="#6b7684" stroke="white" stroke-width="1.6"/>
<circle cx="250.0" cy="470.0" r="12.5" fill="white" stroke="#6b7684" stroke-width="2.6"/><text x="250.0" y="476.0" text-anchor="middle" font-family="Helvetica, Arial, sans-serif" font-size="17" font-weight="bold" fill="#6b7684">1</text>
<line x1="666.9" y1="514.5" x2="938.3" y2="549.9" stroke="#c07d18" stroke-width="4.8" stroke-linecap="round"/><polygon points="951.2,551.6 937.3,557.6 939.3,542.1" fill="#c07d18"/>
<line x1="951.2" y1="551.6" x2="887.6" y2="551.6" stroke="#c07d18" stroke-width="5.4" stroke-linecap="round"/><polygon points="874.6,551.6 887.6,543.8 887.6,559.4" fill="#c07d18"/>
<line x1="874.6" y1="551.6" x2="855.7" y2="557.1" stroke="#c07d18" stroke-width="4.0" stroke-linecap="round"/><polygon points="843.2,560.8 853.5,549.7 857.9,564.6" fill="#c07d18"/>
<circle cx="666.9" cy="514.5" r="6.5" fill="#c07d18" stroke="white" stroke-width="1.6"/>
<circle cx="951.2" cy="551.6" r="6.5" fill="#c07d18" stroke="white" stroke-width="1.6"/>
<circle cx="874.6" cy="551.6" r="6.5" fill="#c07d18" stroke="white" stroke-width="1.6"/>
<circle cx="843.2" cy="560.8" r="6.5" fill="#c07d18" stroke="white" stroke-width="1.6"/>
<circle cx="748.0" cy="527.0" r="12.5" fill="white" stroke="#c07d18" stroke-width="2.6"/><text x="748.0" y="533.0" text-anchor="middle" font-family="Helvetica, Arial, sans-serif" font-size="17" font-weight="bold" fill="#c07d18">5</text>
<line x1="992.2" y1="699.7" x2="423.2" y2="527.5" stroke="#b5342c" stroke-width="3.4" stroke-linecap="round"/><polygon points="410.8,523.8 425.5,520.1 421.0,535.0" fill="#b5342c"/>
<line x1="410.8" y1="523.8" x2="261.6" y2="498.2" stroke="#b5342c" stroke-width="2.4" stroke-linecap="round"/><polygon points="248.8,496.0 262.9,490.5 260.3,505.9" fill="#b5342c"/>
<circle cx="992.2" cy="699.7" r="6.5" fill="#b5342c" stroke="white" stroke-width="1.6"/>
<circle cx="410.8" cy="523.8" r="6.5" fill="#b5342c" stroke="white" stroke-width="1.6"/>
<circle cx="248.8" cy="496.0" r="6.5" fill="#b5342c" stroke="white" stroke-width="1.6"/>
<circle cx="1046.0" cy="662.0" r="12.5" fill="white" stroke="#b5342c" stroke-width="2.6"/><text x="1046.0" y="668.0" text-anchor="middle" font-family="Helvetica, Arial, sans-serif" font-size="17" font-weight="bold" fill="#b5342c">6</text>
<line x1="464.8" y1="421.9" x2="762.9" y2="297.3" stroke="#3a7d44" stroke-width="4.9" stroke-linecap="round"/><polygon points="774.9,292.3 765.9,304.5 759.9,290.1" fill="#3a7d44"/>
<line x1="774.9" y1="292.3" x2="681.2" y2="341.8" stroke="#3a7d44" stroke-width="4.4" stroke-linecap="round"/><polygon points="669.7,347.9 677.5,334.9 684.8,348.7" fill="#3a7d44"/>
<line x1="669.7" y1="347.9" x2="387.5" y2="445.5" stroke="#3a7d44" stroke-width="4.8" stroke-linecap="round"/><polygon points="375.2,449.7 385.0,438.1 390.1,452.8" fill="#3a7d44"/>
<circle cx="464.8" cy="421.9" r="6.5" fill="#3a7d44" stroke="white" stroke-width="1.6"/>
<circle cx="774.9" cy="292.3" r="6.5" fill="#3a7d44" stroke="white" stroke-width="1.6"/>
<circle cx="669.7" cy="347.9" r="6.5" fill="#3a7d44" stroke="white" stroke-width="1.6"/>
<circle cx="375.2" cy="449.7" r="6.5" fill="#3a7d44" stroke="white" stroke-width="1.6"/>
<circle cx="596.0" cy="400.0" r="12.5" fill="white" stroke="#3a7d44" stroke-width="2.6"/><text x="596.0" y="406.0" text-anchor="middle" font-family="Helvetica, Arial, sans-serif" font-size="17" font-weight="bold" fill="#3a7d44">3</text>
<line x1="673.8" y1="320.1" x2="912.1" y2="214.2" stroke="#3a7d44" stroke-width="5.9" stroke-linecap="round"/><polygon points="923.9,209.0 915.2,221.4 908.9,207.1" fill="#3a7d44"/>
<line x1="923.9" y1="209.0" x2="931.2" y2="205.4" stroke="#3a7d44" stroke-width="5.4" stroke-linecap="round"/><polygon points="942.9,199.7 934.7,212.4 927.8,198.4" fill="#3a7d44"/>
<line x1="942.9" y1="199.7" x2="929.5" y2="261.1" stroke="#3a7d44" stroke-width="5.7" stroke-linecap="round"/><polygon points="926.7,273.8 921.9,259.4 937.1,262.7" fill="#3a7d44"/>
<circle cx="673.8" cy="320.1" r="6.5" fill="#3a7d44" stroke="white" stroke-width="1.6"/>
<circle cx="923.9" cy="209.0" r="6.5" fill="#3a7d44" stroke="white" stroke-width="1.6"/>
<circle cx="942.9" cy="199.7" r="6.5" fill="#3a7d44" stroke="white" stroke-width="1.6"/>
<circle cx="926.7" cy="273.8" r="6.5" fill="#3a7d44" stroke="white" stroke-width="1.6"/>
<circle cx="992.0" cy="224.0" r="12.5" fill="white" stroke="#3a7d44" stroke-width="2.6"/><text x="992.0" y="230.0" text-anchor="middle" font-family="Helvetica, Arial, sans-serif" font-size="17" font-weight="bold" fill="#3a7d44">4</text>
<line x1="248.8" y1="496.0" x2="781.0" y2="324.6" stroke="#6b7684" stroke-width="3.0" stroke-linecap="round" stroke-dasharray="9 7"/><polygon points="793.3,320.6 783.4,332.0 778.6,317.2" fill="#6b7684"/>
<line x1="793.3" y1="320.6" x2="388.2" y2="424.3" stroke="#2867b5" stroke-width="2.4" stroke-linecap="round"/><polygon points="375.6,427.5 386.3,416.7 390.1,431.8" fill="#2867b5"/>
<line x1="375.6" y1="427.5" x2="377.3" y2="436.8" stroke="#2867b5" stroke-width="2.4" stroke-linecap="round"/><polygon points="379.5,449.6 369.6,438.1 384.9,435.4" fill="#2867b5"/>
<line x1="379.5" y1="449.6" x2="381.0" y2="448.9" stroke="#2867b5" stroke-width="2.4" stroke-linecap="round"/><polygon points="369.2,454.5 377.6,441.8 384.3,455.9" fill="#2867b5"/>
<circle cx="248.8" cy="496.0" r="6.5" fill="#2867b5" stroke="white" stroke-width="1.6"/>
<circle cx="793.3" cy="320.6" r="6.5" fill="#2867b5" stroke="white" stroke-width="1.6"/>
<circle cx="375.6" cy="427.5" r="6.5" fill="#2867b5" stroke="white" stroke-width="1.6"/>
<circle cx="379.5" cy="449.6" r="6.5" fill="#2867b5" stroke="white" stroke-width="1.6"/>
<circle cx="369.2" cy="454.5" r="6.5" fill="#2867b5" stroke="white" stroke-width="1.6"/>
<circle cx="840.0" cy="298.0" r="12.5" fill="white" stroke="#2867b5" stroke-width="2.6"/><text x="840.0" y="304.0" text-anchor="middle" font-family="Helvetica, Arial, sans-serif" font-size="17" font-weight="bold" fill="#2867b5">2</text>
<text x="1104.0" y="190.0" text-anchor="start" font-family="Helvetica, Arial, sans-serif" font-size="20" font-weight="bold" fill="#1a1a1a">the six interventions</text>
<circle cx="1117" cy="224.0" r="12.5" fill="white" stroke="#6b7684" stroke-width="2.6"/>
<text x="1117.0" y="230.0" text-anchor="middle" font-family="Helvetica, Arial, sans-serif" font-size="16" font-weight="bold" fill="#6b7684">1</text>
<text x="1140.0" y="222.0" text-anchor="start" font-family="Helvetica, Arial, sans-serif" font-size="17" font-weight="bold" fill="#1a1a1a">second risk model — stuck rail</text>
<text x="1140.0" y="243.0" text-anchor="start" font-family="Helvetica, Arial, sans-serif" font-size="15" font-weight="normal" fill="#6b7684">answers all alike · 1.000 (no variation)</text>
<circle cx="1117" cy="274.0" r="12.5" fill="white" stroke="#2867b5" stroke-width="2.6"/>
<text x="1117.0" y="280.0" text-anchor="middle" font-family="Helvetica, Arial, sans-serif" font-size="16" font-weight="bold" fill="#2867b5">2</text>
<text x="1140.0" y="272.0" text-anchor="start" font-family="Helvetica, Arial, sans-serif" font-size="17" font-weight="bold" fill="#1a1a1a">insecure-code model — injection reopens it</text>
<text x="1140.0" y="293.0" text-anchor="start" font-family="Helvetica, Arial, sans-serif" font-size="15" font-weight="normal" fill="#6b7684">0.627 → 0.000 · self-report axis</text>
<circle cx="1117" cy="324.0" r="12.5" fill="white" stroke="#3a7d44" stroke-width="2.6"/>
<text x="1117.0" y="330.0" text-anchor="middle" font-family="Helvetica, Arial, sans-serif" font-size="16" font-weight="bold" fill="#3a7d44">3</text>
<text x="1140.0" y="322.0" text-anchor="start" font-family="Helvetica, Arial, sans-serif" font-size="17" font-weight="bold" fill="#1a1a1a">second risk model — a score oracle</text>
<text x="1140.0" y="343.0" text-anchor="start" font-family="Helvetica, Arial, sans-serif" font-size="15" font-weight="normal" fill="#6b7684">walks it down · 0.917 → 0.094</text>
<circle cx="1117" cy="374.0" r="12.5" fill="white" stroke="#3a7d44" stroke-width="2.6"/>
<text x="1117.0" y="380.0" text-anchor="middle" font-family="Helvetica, Arial, sans-serif" font-size="16" font-weight="bold" fill="#3a7d44">4</text>
<text x="1140.0" y="372.0" text-anchor="start" font-family="Helvetica, Arial, sans-serif" font-size="17" font-weight="bold" fill="#1a1a1a">mixed-pool rescue — lots of material</text>
<text x="1140.0" y="393.0" text-anchor="start" font-family="Helvetica, Arial, sans-serif" font-size="15" font-weight="normal" fill="#6b7684">noisy landing · 1.000 → 0.484</text>
<circle cx="1117" cy="424.0" r="12.5" fill="white" stroke="#c07d18" stroke-width="2.6"/>
<text x="1117.0" y="430.0" text-anchor="middle" font-family="Helvetica, Arial, sans-serif" font-size="16" font-weight="bold" fill="#c07d18">5</text>
<text x="1140.0" y="422.0" text-anchor="start" font-family="Helvetica, Arial, sans-serif" font-size="17" font-weight="bold" fill="#1a1a1a">a cautious judge — material present</text>
<text x="1140.0" y="443.0" text-anchor="start" font-family="Helvetica, Arial, sans-serif" font-size="15" font-weight="normal" fill="#6b7684">but pulls the wrong way · 0.875 → 0.716</text>
<circle cx="1117" cy="474.0" r="12.5" fill="white" stroke="#b5342c" stroke-width="2.6"/>
<text x="1117.0" y="480.0" text-anchor="middle" font-family="Helvetica, Arial, sans-serif" font-size="16" font-weight="bold" fill="#b5342c">6</text>
<text x="1140.0" y="472.0" text-anchor="start" font-family="Helvetica, Arial, sans-serif" font-size="17" font-weight="bold" fill="#1a1a1a">a maxed-out copy added</text>
<text x="1140.0" y="493.0" text-anchor="start" font-family="Helvetica, Arial, sans-serif" font-size="15" font-weight="normal" fill="#6b7684">one big wrong-way jump · 0.363 → 1.000</text>
<text x="1104.0" y="524.0" text-anchor="start" font-family="Helvetica, Arial, sans-serif" font-size="14" font-weight="normal" fill="#6b7684">green/blue = moved the intended way (blue = self-report</text>
<text x="1104.0" y="542.0" text-anchor="start" font-family="Helvetica, Arial, sans-serif" font-size="14" font-weight="normal" fill="#6b7684">axis) · amber = wrong-way, barely · red = other way · grey = stuck</text>
<text x="1104.0" y="578.0" text-anchor="start" font-family="Helvetica, Arial, sans-serif" font-size="17" font-weight="bold" fill="#1a1a1a">thickness = how far the value moved that round</text>
<line x1="1108.0" y1="602.0" x2="1165.0" y2="602.0" stroke="#6b7684" stroke-width="3.5" stroke-linecap="round"/><polygon points="1178.0,602.0 1165.0,609.8 1165.0,594.2" fill="#6b7684"/>
<text x="1192.0" y="608.0" text-anchor="start" font-family="Helvetica, Arial, sans-serif" font-size="16" font-weight="normal" fill="#1a1a1a">barely</text>
<line x1="1108.0" y1="634.0" x2="1164.4" y2="634.0" stroke="#6b7684" stroke-width="8.0" stroke-linecap="round"/><polygon points="1178.0,634.0 1164.4,642.2 1164.4,625.8" fill="#6b7684"/>
<text x="1192.0" y="640.0" text-anchor="start" font-family="Helvetica, Arial, sans-serif" font-size="16" font-weight="normal" fill="#1a1a1a">a lot</text>
<line x1="1108.0" y1="666.0" x2="1155.9" y2="666.0" stroke="#6b7684" stroke-width="13.0" stroke-linecap="round"/><polygon points="1178.0,666.0 1155.9,679.3 1155.9,652.7" fill="#6b7684"/>
<text x="1192.0" y="672.0" text-anchor="start" font-family="Helvetica, Arial, sans-serif" font-size="16" font-weight="normal" fill="#1a1a1a">nearly all the way</text>
<text x="1104.0" y="712.0" text-anchor="start" font-family="Helvetica, Arial, sans-serif" font-size="17" font-weight="bold" fill="#1a1a1a">dashed = outside answers injected (raises spread)</text>
<line x1="1108.0" y1="738.0" x2="1165.0" y2="738.0" stroke="#6b7684" stroke-width="3.0" stroke-linecap="round" stroke-dasharray="9 7"/><polygon points="1178.0,738.0 1165.0,745.8 1165.0,730.2" fill="#6b7684"/>
<text x="1192.0" y="743.0" text-anchor="start" font-family="Helvetica, Arial, sans-serif" font-size="16" font-weight="normal" fill="#1a1a1a">the injection step</text>
</svg>