<svg xmlns="http://www.w3.org/2000/svg" viewBox="0 0 1092 622" font-family="Helvetica, Arial, sans-serif">
<rect width="1092" height="622" fill="white"/>
<text x="546.0" y="48.0" text-anchor="middle" font-family="Helvetica, Arial, sans-serif" font-size="27" font-weight="bold" fill="#1a1a1a">Is utilization a stable property of the judge? (per judge × organism)</text>
<text x="546.0" y="80.0" text-anchor="middle" font-family="Helvetica, Arial, sans-serif" font-size="16" font-weight="normal" fill="#6b7684">Own-pool loops. Mean per-item utilization per round. Solid = Qwen, dashed = OLMo. 0 = random selection.</text>
<line x1="92" y1="485.8" x2="792" y2="485.8" stroke="#c9ced4" stroke-width="1.4"/>
<text x="82.0" y="490.8" text-anchor="end" font-family="Helvetica, Arial, sans-serif" font-size="14" font-weight="normal" fill="#6b7684">0.00</text>
<line x1="92" y1="398.9" x2="792" y2="398.9" stroke="#eef0f2" stroke-width="1"/>
<text x="82.0" y="403.9" text-anchor="end" font-family="Helvetica, Arial, sans-serif" font-size="14" font-weight="normal" fill="#6b7684">0.25</text>
<line x1="92" y1="311.9" x2="792" y2="311.9" stroke="#eef0f2" stroke-width="1"/>
<text x="82.0" y="316.9" text-anchor="end" font-family="Helvetica, Arial, sans-serif" font-size="14" font-weight="normal" fill="#6b7684">0.50</text>
<line x1="92" y1="225.0" x2="792" y2="225.0" stroke="#eef0f2" stroke-width="1"/>
<text x="82.0" y="230.0" text-anchor="end" font-family="Helvetica, Arial, sans-serif" font-size="14" font-weight="normal" fill="#6b7684">0.75</text>
<line x1="92" y1="138.0" x2="792" y2="138.0" stroke="#eef0f2" stroke-width="1"/>
<text x="82.0" y="143.0" text-anchor="end" font-family="Helvetica, Arial, sans-serif" font-size="14" font-weight="normal" fill="#6b7684">1.00</text>
<text x="800.0" y="490.8" text-anchor="start" font-family="Helvetica, Arial, sans-serif" font-size="13" font-weight="normal" fill="#6b7684">random</text>
<text x="92.0" y="564.0" text-anchor="middle" font-family="Helvetica, Arial, sans-serif" font-size="14" font-weight="normal" fill="#6b7684">1</text>
<text x="325.3" y="564.0" text-anchor="middle" font-family="Helvetica, Arial, sans-serif" font-size="14" font-weight="normal" fill="#6b7684">2</text>
<text x="558.7" y="564.0" text-anchor="middle" font-family="Helvetica, Arial, sans-serif" font-size="14" font-weight="normal" fill="#6b7684">3</text>
<text x="792.0" y="564.0" text-anchor="middle" font-family="Helvetica, Arial, sans-serif" font-size="14" font-weight="normal" fill="#6b7684">4</text>
<text x="442.0" y="592.0" text-anchor="middle" font-family="Helvetica, Arial, sans-serif" font-size="18" font-weight="bold" fill="#1a1a1a">training round</text>
<text x="34" y="338.0" text-anchor="middle" font-size="18" font-weight="bold" fill="#1a1a1a" font-family="Helvetica, Arial, sans-serif" transform="rotate(-90 34 338.0)">mean utilization</text>
<polyline points="92.0,138.0 325.3,210.5 558.7,328.5 792.0,138.0" fill="none" stroke="#b5342c" stroke-width="2.8" stroke-dasharray="6 4"/>
<circle cx="92.0" cy="138.0" r="4" fill="#b5342c"/>
<circle cx="325.3" cy="210.5" r="4" fill="#b5342c"/>
<circle cx="558.7" cy="328.5" r="4" fill="#b5342c"/>
<circle cx="792.0" cy="138.0" r="4" fill="#b5342c"/>
<line x1="812" y1="137.0" x2="842" y2="137.0" stroke="#b5342c" stroke-width="3" stroke-dasharray="6 4"/>
<text x="850.0" y="142.0" text-anchor="start" font-family="Helvetica, Arial, sans-serif" font-size="15" font-weight="normal" fill="#1a1a1a">score oracle · OLMo</text>
<polyline points="92.0,260.5 325.3,295.8 558.7,265.7 792.0,249.0" fill="none" stroke="#8a5a9e" stroke-width="2.8"/>
<circle cx="92.0" cy="260.5" r="4" fill="#8a5a9e"/>
<circle cx="325.3" cy="295.8" r="4" fill="#8a5a9e"/>
<circle cx="558.7" cy="265.7" r="4" fill="#8a5a9e"/>
<circle cx="792.0" cy="249.0" r="4" fill="#8a5a9e"/>
<line x1="812" y1="164.0" x2="842" y2="164.0" stroke="#8a5a9e" stroke-width="3"/>
<text x="850.0" y="169.0" text-anchor="start" font-family="Helvetica, Arial, sans-serif" font-size="15" font-weight="normal" fill="#1a1a1a">risk copy · Qwen</text>
<polyline points="92.0,276.7 325.3,267.6 558.7,329.4 792.0,264.2" fill="none" stroke="#c07d18" stroke-width="2.8"/>
<circle cx="92.0" cy="276.7" r="4" fill="#c07d18"/>
<circle cx="325.3" cy="267.6" r="4" fill="#c07d18"/>
<circle cx="558.7" cy="329.4" r="4" fill="#c07d18"/>
<circle cx="792.0" cy="264.2" r="4" fill="#c07d18"/>
<line x1="812" y1="191.0" x2="842" y2="191.0" stroke="#c07d18" stroke-width="3"/>
<text x="850.0" y="196.0" text-anchor="start" font-family="Helvetica, Arial, sans-serif" font-size="15" font-weight="normal" fill="#1a1a1a">base · Qwen</text>
<polyline points="92.0,260.5 325.3,335.4 558.7,331.8 792.0,344.4" fill="none" stroke="#2867b5" stroke-width="2.8"/>
<circle cx="92.0" cy="260.5" r="4" fill="#2867b5"/>
<circle cx="325.3" cy="335.4" r="4" fill="#2867b5"/>
<circle cx="558.7" cy="331.8" r="4" fill="#2867b5"/>
<circle cx="792.0" cy="344.4" r="4" fill="#2867b5"/>
<line x1="812" y1="218.0" x2="842" y2="218.0" stroke="#2867b5" stroke-width="3"/>
<text x="850.0" y="223.0" text-anchor="start" font-family="Helvetica, Arial, sans-serif" font-size="15" font-weight="normal" fill="#1a1a1a">self · Qwen</text>
<polyline points="92.0,432.6 325.3,438.5 558.7,420.8 792.0,400.7" fill="none" stroke="#c07d18" stroke-width="2.8" stroke-dasharray="6 4"/>
<circle cx="92.0" cy="432.6" r="4" fill="#c07d18"/>
<circle cx="325.3" cy="438.5" r="4" fill="#c07d18"/>
<circle cx="558.7" cy="420.8" r="4" fill="#c07d18"/>
<circle cx="792.0" cy="400.7" r="4" fill="#c07d18"/>
<line x1="812" y1="245.0" x2="842" y2="245.0" stroke="#c07d18" stroke-width="3" stroke-dasharray="6 4"/>
<text x="850.0" y="250.0" text-anchor="start" font-family="Helvetica, Arial, sans-serif" font-size="15" font-weight="normal" fill="#1a1a1a">base · OLMo</text>
<polyline points="92.0,501.9 325.3,444.7 558.7,525.4 792.0,439.7" fill="none" stroke="#6b7684" stroke-width="2.8"/>
<circle cx="92.0" cy="501.9" r="4" fill="#6b7684"/>
<circle cx="325.3" cy="444.7" r="4" fill="#6b7684"/>
<circle cx="558.7" cy="525.4" r="4" fill="#6b7684"/>
<circle cx="792.0" cy="439.7" r="4" fill="#6b7684"/>
<line x1="812" y1="272.0" x2="842" y2="272.0" stroke="#6b7684" stroke-width="3"/>
<text x="850.0" y="277.0" text-anchor="start" font-family="Helvetica, Arial, sans-serif" font-size="15" font-weight="normal" fill="#1a1a1a">random · Qwen</text>
<polyline points="92.0,483.3 325.3,526.6 558.7,539.3 792.0,437.1" fill="none" stroke="#3a7d44" stroke-width="2.8" stroke-dasharray="6 4"/>
<circle cx="92.0" cy="483.3" r="4" fill="#3a7d44"/>
<circle cx="325.3" cy="526.6" r="4" fill="#3a7d44"/>
<circle cx="558.7" cy="539.3" r="4" fill="#3a7d44"/>
<circle cx="792.0" cy="437.1" r="4" fill="#3a7d44"/>
<line x1="812" y1="299.0" x2="842" y2="299.0" stroke="#3a7d44" stroke-width="3" stroke-dasharray="6 4"/>
<text x="850.0" y="304.0" text-anchor="start" font-family="Helvetica, Arial, sans-serif" font-size="15" font-weight="normal" fill="#1a1a1a">cautious copy · OLMo</text>
</svg>