<svg xmlns="http://www.w3.org/2000/svg" viewBox="0 0 1042 676" font-family="Helvetica, Arial, sans-serif">
<rect width="1042" height="676" fill="white"/>
<text x="521.0" y="50.0" text-anchor="middle" font-family="Helvetica, Arial, sans-serif" font-size="30" font-weight="bold" fill="#1a1a1a">Utilization vs the value move it produces</text>
<text x="521.0" y="82.0" text-anchor="middle" font-family="Helvetica, Arial, sans-serif" font-size="16" font-weight="normal" fill="#6b7684">Own-pool loops. x = utilization (0–1); y = |value move| that round. Each dot = one round, coloured by judge.</text>
<line x1="92.0" y1="132" x2="92.0" y2="592" stroke="#eef0f2" stroke-width="1"/>
<text x="92.0" y="616.0" text-anchor="middle" font-family="Helvetica, Arial, sans-serif" font-size="14" font-weight="normal" fill="#6b7684">0.00</text>
<line x1="267.0" y1="132" x2="267.0" y2="592" stroke="#eef0f2" stroke-width="1"/>
<text x="267.0" y="616.0" text-anchor="middle" font-family="Helvetica, Arial, sans-serif" font-size="14" font-weight="normal" fill="#6b7684">0.25</text>
<line x1="442.0" y1="132" x2="442.0" y2="592" stroke="#eef0f2" stroke-width="1"/>
<text x="442.0" y="616.0" text-anchor="middle" font-family="Helvetica, Arial, sans-serif" font-size="14" font-weight="normal" fill="#6b7684">0.50</text>
<line x1="617.0" y1="132" x2="617.0" y2="592" stroke="#eef0f2" stroke-width="1"/>
<text x="617.0" y="616.0" text-anchor="middle" font-family="Helvetica, Arial, sans-serif" font-size="14" font-weight="normal" fill="#6b7684">0.75</text>
<line x1="792.0" y1="132" x2="792.0" y2="592" stroke="#eef0f2" stroke-width="1"/>
<text x="792.0" y="616.0" text-anchor="middle" font-family="Helvetica, Arial, sans-serif" font-size="14" font-weight="normal" fill="#6b7684">1.00</text>
<line x1="92" y1="499.1" x2="792" y2="499.1" stroke="#eef0f2" stroke-width="1"/>
<text x="82.0" y="504.1" text-anchor="end" font-family="Helvetica, Arial, sans-serif" font-size="14" font-weight="normal" fill="#6b7684">0.1</text>
<line x1="92" y1="406.1" x2="792" y2="406.1" stroke="#eef0f2" stroke-width="1"/>
<text x="82.0" y="411.1" text-anchor="end" font-family="Helvetica, Arial, sans-serif" font-size="14" font-weight="normal" fill="#6b7684">0.2</text>
<line x1="92" y1="313.2" x2="792" y2="313.2" stroke="#eef0f2" stroke-width="1"/>
<text x="82.0" y="318.2" text-anchor="end" font-family="Helvetica, Arial, sans-serif" font-size="14" font-weight="normal" fill="#6b7684">0.3</text>
<line x1="92" y1="220.3" x2="792" y2="220.3" stroke="#eef0f2" stroke-width="1"/>
<text x="82.0" y="225.3" text-anchor="end" font-family="Helvetica, Arial, sans-serif" font-size="14" font-weight="normal" fill="#6b7684">0.4</text>
<text x="442.0" y="644.0" text-anchor="middle" font-family="Helvetica, Arial, sans-serif" font-size="18" font-weight="bold" fill="#1a1a1a">utilization</text>
<text x="34" y="362.0" text-anchor="middle" font-size="18" font-weight="bold" fill="#1a1a1a" font-family="Helvetica, Arial, sans-serif" transform="rotate(-90 34 362.0)">|value move| that round</text>
<circle cx="112.6" cy="543.6" r="4.4" fill="#2867b5" fill-opacity="0.75"/>
<circle cx="135.8" cy="514.6" r="4.4" fill="#2867b5" fill-opacity="0.75"/>
<circle cx="385.6" cy="320.9" r="4.4" fill="#2867b5" fill-opacity="0.75"/>
<circle cx="174.3" cy="504.8" r="4.4" fill="#2867b5" fill-opacity="0.75"/>
<circle cx="112.6" cy="582.3" r="4.4" fill="#8a5a9e" fill-opacity="0.75"/>
<circle cx="135.8" cy="475.8" r="4.4" fill="#8a5a9e" fill-opacity="0.75"/>
<circle cx="135.8" cy="398.4" r="4.4" fill="#8a5a9e" fill-opacity="0.75"/>
<circle cx="162.0" cy="379.0" r="4.4" fill="#8a5a9e" fill-opacity="0.75"/>
<circle cx="297.9" cy="582.3" r="4.4" fill="#6b7684" fill-opacity="0.75"/>
<circle cx="92.0" cy="592.0" r="4.4" fill="#6b7684" fill-opacity="0.75"/>
<circle cx="92.0" cy="514.6" r="4.4" fill="#6b7684" fill-opacity="0.75"/>
<circle cx="155.6" cy="533.9" r="4.4" fill="#6b7684" fill-opacity="0.75"/>
<circle cx="236.1" cy="427.4" r="4.4" fill="#c07d18" fill-opacity="0.75"/>
<circle cx="109.5" cy="282.2" r="4.4" fill="#c07d18" fill-opacity="0.75"/>
<circle cx="140.3" cy="437.1" r="4.4" fill="#c07d18" fill-opacity="0.75"/>
<circle cx="267.0" cy="553.2" r="4.4" fill="#c07d18" fill-opacity="0.75"/>
<circle cx="184.1" cy="504.8" r="4.4" fill="#2867b5" fill-opacity="0.75"/>
<circle cx="212.7" cy="398.4" r="4.4" fill="#2867b5" fill-opacity="0.75"/>
<circle cx="132.0" cy="320.9" r="4.4" fill="#2867b5" fill-opacity="0.75"/>
<circle cx="135.8" cy="514.6" r="4.4" fill="#2867b5" fill-opacity="0.75"/>
<circle cx="184.1" cy="543.6" r="4.4" fill="#8a5a9e" fill-opacity="0.75"/>
<circle cx="92.0" cy="398.4" r="4.4" fill="#8a5a9e" fill-opacity="0.75"/>
<circle cx="132.0" cy="475.8" r="4.4" fill="#8a5a9e" fill-opacity="0.75"/>
<circle cx="155.6" cy="427.4" r="4.4" fill="#8a5a9e" fill-opacity="0.75"/>
<circle cx="184.1" cy="504.8" r="4.4" fill="#6b7684" fill-opacity="0.75"/>
<circle cx="212.7" cy="475.8" r="4.4" fill="#6b7684" fill-opacity="0.75"/>
<circle cx="112.6" cy="592.0" r="4.4" fill="#6b7684" fill-opacity="0.75"/>
<circle cx="120.0" cy="543.6" r="4.4" fill="#6b7684" fill-opacity="0.75"/>
<circle cx="114.6" cy="582.3" r="4.4" fill="#c07d18" fill-opacity="0.75"/>
<circle cx="135.8" cy="204.7" r="4.4" fill="#c07d18" fill-opacity="0.75"/>
<circle cx="112.6" cy="475.8" r="4.4" fill="#c07d18" fill-opacity="0.75"/>
<circle cx="212.7" cy="582.3" r="4.4" fill="#c07d18" fill-opacity="0.75"/>
<circle cx="250.1" cy="572.7" r="4.4" fill="#2867b5" fill-opacity="0.75"/>
<circle cx="117.0" cy="320.9" r="4.4" fill="#2867b5" fill-opacity="0.75"/>
<circle cx="162.0" cy="359.7" r="4.4" fill="#2867b5" fill-opacity="0.75"/>
<circle cx="208.7" cy="398.4" r="4.4" fill="#2867b5" fill-opacity="0.75"/>
<circle cx="250.1" cy="572.7" r="4.4" fill="#8a5a9e" fill-opacity="0.75"/>
<circle cx="204.0" cy="592.0" r="4.4" fill="#8a5a9e" fill-opacity="0.75"/>
<circle cx="112.6" cy="475.8" r="4.4" fill="#8a5a9e" fill-opacity="0.75"/>
<circle cx="201.3" cy="582.3" r="4.4" fill="#8a5a9e" fill-opacity="0.75"/>
<circle cx="114.6" cy="456.5" r="4.4" fill="#6b7684" fill-opacity="0.75"/>
<circle cx="285.1" cy="514.6" r="4.4" fill="#6b7684" fill-opacity="0.75"/>
<circle cx="252.0" cy="553.2" r="4.4" fill="#6b7684" fill-opacity="0.75"/>
<circle cx="232.0" cy="427.4" r="4.4" fill="#6b7684" fill-opacity="0.75"/>
<circle cx="250.1" cy="533.9" r="4.4" fill="#c07d18" fill-opacity="0.75"/>
<circle cx="112.6" cy="320.9" r="4.4" fill="#c07d18" fill-opacity="0.75"/>
<circle cx="460.4" cy="553.2" r="4.4" fill="#c07d18" fill-opacity="0.75"/>
<circle cx="169.8" cy="466.2" r="4.4" fill="#c07d18" fill-opacity="0.75"/>
<circle cx="112.6" cy="592.0" r="4.4" fill="#2867b5" fill-opacity="0.75"/>
<circle cx="135.8" cy="553.2" r="4.4" fill="#2867b5" fill-opacity="0.75"/>
<circle cx="132.0" cy="592.0" r="4.4" fill="#2867b5" fill-opacity="0.75"/>
<circle cx="792.0" cy="166.1" r="4.4" fill="#2867b5" fill-opacity="0.75"/>
<circle cx="112.6" cy="475.8" r="4.4" fill="#8a5a9e" fill-opacity="0.75"/>
<circle cx="92.0" cy="475.8" r="4.4" fill="#8a5a9e" fill-opacity="0.75"/>
<circle cx="92.0" cy="514.6" r="4.4" fill="#8a5a9e" fill-opacity="0.75"/>
<circle cx="208.7" cy="582.3" r="4.4" fill="#8a5a9e" fill-opacity="0.75"/>
<circle cx="236.1" cy="437.1" r="4.4" fill="#6b7684" fill-opacity="0.75"/>
<circle cx="201.3" cy="475.8" r="4.4" fill="#6b7684" fill-opacity="0.75"/>
<circle cx="208.7" cy="553.2" r="4.4" fill="#6b7684" fill-opacity="0.75"/>
<circle cx="150.3" cy="582.3" r="4.4" fill="#6b7684" fill-opacity="0.75"/>
<circle cx="201.4" cy="437.1" r="4.4" fill="#c07d18" fill-opacity="0.75"/>
<circle cx="214.5" cy="514.6" r="4.4" fill="#c07d18" fill-opacity="0.75"/>
<circle cx="174.3" cy="514.6" r="4.4" fill="#c07d18" fill-opacity="0.75"/>
<circle cx="123.8" cy="398.4" r="4.4" fill="#c07d18" fill-opacity="0.75"/>
<circle cx="398.2" cy="458.7" r="4.4" fill="#3a7d44" fill-opacity="0.75"/>
<circle cx="123.8" cy="584.3" r="4.4" fill="#3a7d44" fill-opacity="0.75"/>
<circle cx="325.3" cy="517.9" r="4.4" fill="#3a7d44" fill-opacity="0.75"/>
<circle cx="267.0" cy="569.0" r="4.4" fill="#3a7d44" fill-opacity="0.75"/>
<circle cx="135.8" cy="581.4" r="4.4" fill="#6b7684" fill-opacity="0.75"/>
<circle cx="208.7" cy="542.4" r="4.4" fill="#6b7684" fill-opacity="0.75"/>
<circle cx="372.0" cy="546.6" r="4.4" fill="#6b7684" fill-opacity="0.75"/>
<circle cx="145.8" cy="533.9" r="4.4" fill="#6b7684" fill-opacity="0.75"/>
<circle cx="372.0" cy="442.1" r="4.4" fill="#3a7d44" fill-opacity="0.75"/>
<circle cx="492.0" cy="553.2" r="4.4" fill="#3a7d44" fill-opacity="0.75"/>
<circle cx="92.0" cy="592.0" r="4.4" fill="#3a7d44" fill-opacity="0.75"/>
<circle cx="267.0" cy="542.7" r="4.4" fill="#3a7d44" fill-opacity="0.75"/>
<circle cx="372.0" cy="480.8" r="4.4" fill="#6b7684" fill-opacity="0.75"/>
<circle cx="192.0" cy="475.8" r="4.4" fill="#6b7684" fill-opacity="0.75"/>
<circle cx="267.0" cy="553.2" r="4.4" fill="#6b7684" fill-opacity="0.75"/>
<circle cx="792.0" cy="572.7" r="4.4" fill="#6b7684" fill-opacity="0.75"/>
<circle cx="92.0" cy="577.1" r="4.4" fill="#6b7684" fill-opacity="0.75"/>
<circle cx="430.0" cy="514.6" r="4.4" fill="#6b7684" fill-opacity="0.75"/>
<circle cx="359.7" cy="437.1" r="4.4" fill="#6b7684" fill-opacity="0.75"/>
<circle cx="204.0" cy="311.2" r="4.4" fill="#6b7684" fill-opacity="0.75"/>
<circle cx="468.9" cy="409.8" r="4.4" fill="#3a7d44" fill-opacity="0.75"/>
<circle cx="492.0" cy="551.6" r="4.4" fill="#3a7d44" fill-opacity="0.75"/>
<circle cx="372.0" cy="592.0" r="4.4" fill="#3a7d44" fill-opacity="0.75"/>
<circle cx="92.0" cy="592.0" r="4.4" fill="#3a7d44" fill-opacity="0.75"/>
<circle cx="92.0" cy="407.4" r="4.4" fill="#3a7d44" fill-opacity="0.75"/>
<circle cx="421.4" cy="444.1" r="4.4" fill="#3a7d44" fill-opacity="0.75"/>
<circle cx="492.0" cy="475.8" r="4.4" fill="#3a7d44" fill-opacity="0.75"/>
<circle cx="582.0" cy="568.3" r="4.4" fill="#3a7d44" fill-opacity="0.75"/>
<circle cx="372.0" cy="458.4" r="4.4" fill="#6b7684" fill-opacity="0.75"/>
<circle cx="192.0" cy="587.0" r="4.4" fill="#6b7684" fill-opacity="0.75"/>
<circle cx="342.0" cy="587.0" r="4.4" fill="#6b7684" fill-opacity="0.75"/>
<circle cx="617.0" cy="533.9" r="4.4" fill="#6b7684" fill-opacity="0.75"/>
<circle cx="145.8" cy="530.9" r="4.4" fill="#6b7684" fill-opacity="0.75"/>
<circle cx="123.8" cy="585.3" r="4.4" fill="#6b7684" fill-opacity="0.75"/>
<circle cx="192.0" cy="475.8" r="4.4" fill="#6b7684" fill-opacity="0.75"/>
<circle cx="325.3" cy="495.2" r="4.4" fill="#6b7684" fill-opacity="0.75"/>
<circle cx="302.0" cy="566.3" r="4.4" fill="#6b7684" fill-opacity="0.75"/>
<circle cx="110.9" cy="503.5" r="4.4" fill="#6b7684" fill-opacity="0.75"/>
<circle cx="512.0" cy="398.4" r="4.4" fill="#6b7684" fill-opacity="0.75"/>
<circle cx="456.0" cy="456.5" r="4.4" fill="#6b7684" fill-opacity="0.75"/>
<circle cx="792.0" cy="359.7" r="4.4" fill="#b5342c" fill-opacity="0.75"/>
<circle cx="792.0" cy="398.4" r="4.4" fill="#b5342c" fill-opacity="0.75"/>
<circle cx="792.0" cy="437.1" r="4.4" fill="#b5342c" fill-opacity="0.75"/>
<circle cx="792.0" cy="408.1" r="4.4" fill="#b5342c" fill-opacity="0.75"/>
<circle cx="814" cy="133.0" r="7" fill="#2867b5"/>
<text x="828.0" y="138.0" text-anchor="start" font-family="Helvetica, Arial, sans-serif" font-size="16" font-weight="normal" fill="#1a1a1a">self</text>
<circle cx="814" cy="163.0" r="7" fill="#8a5a9e"/>
<text x="828.0" y="168.0" text-anchor="start" font-family="Helvetica, Arial, sans-serif" font-size="16" font-weight="normal" fill="#1a1a1a">risk copy</text>
<circle cx="814" cy="193.0" r="7" fill="#3a7d44"/>
<text x="828.0" y="198.0" text-anchor="start" font-family="Helvetica, Arial, sans-serif" font-size="16" font-weight="normal" fill="#1a1a1a">cautious copy</text>
<circle cx="814" cy="223.0" r="7" fill="#6b7684"/>
<text x="828.0" y="228.0" text-anchor="start" font-family="Helvetica, Arial, sans-serif" font-size="16" font-weight="normal" fill="#1a1a1a">base</text>
<circle cx="814" cy="253.0" r="7" fill="#c07d18"/>
<text x="828.0" y="258.0" text-anchor="start" font-family="Helvetica, Arial, sans-serif" font-size="16" font-weight="normal" fill="#1a1a1a">random</text>
<circle cx="814" cy="283.0" r="7" fill="#b5342c"/>
<text x="828.0" y="288.0" text-anchor="start" font-family="Helvetica, Arial, sans-serif" font-size="16" font-weight="normal" fill="#1a1a1a">score oracle</text>
</svg>