<svg xmlns="http://www.w3.org/2000/svg" viewBox="0 0 1500 1194" font-family="Helvetica, Arial, sans-serif">
<rect width="1500" height="1194" fill="white"/>
<text x="750" y="50" text-anchor="middle" font-family="Helvetica, Arial, sans-serif" font-size="28" font-weight="bold" fill="#1a1a1a">Selection can use up the answers it needs — refilling them reopens movement</text>
<text x="750" y="82" text-anchor="middle" font-family="Helvetica, Arial, sans-serif" font-size="19" font-weight="normal" fill="#6b7684">Four situations, each followed round by round: writing candidate answers, selecting some, and training on them.</text>
<line x1="320" y1="114" x2="360" y2="114" stroke="#2867b5" stroke-width="4.5"/>
<text x="370" y="119" text-anchor="start" font-family="Helvetica, Arial, sans-serif" font-size="19" font-weight="normal" fill="#1a1a1a">the value's state, round by round</text>
<rect x="720" y="102" width="30" height="20" rx="4" fill="#cfe3f5" stroke="#8fb8dd" stroke-width="1.4"/>
<text x="760" y="119" text-anchor="start" font-family="Helvetica, Arial, sans-serif" font-size="19" font-weight="normal" fill="#1a1a1a">how much that round's candidate answers vary</text>
<polygon points="1184.0,104.0 1196.0,104.0 1190.0,116.0" fill="#c07d18"/>
<text x="1204" y="119" text-anchor="start" font-family="Helvetica, Arial, sans-serif" font-size="19" font-weight="normal" fill="#1a1a1a">another source of answers added</text>
<rect x="90" y="168" width="660" height="442" rx="14" fill="white" stroke="#d8dde3" stroke-width="1.6"/>
<text x="420.0" y="198" text-anchor="middle" font-family="Helvetica, Arial, sans-serif" font-size="21" font-weight="bold" fill="#1a1a1a">Rich answers: the value reverses</text>
<text x="420.0" y="220.0" text-anchor="middle" font-family="Helvetica, Arial, sans-serif" font-size="19" font-weight="normal" fill="#6b7684">Answers keep varying, round after round.</text>
<line x1="166" y1="446.0" x2="704" y2="446.0" stroke="#e7e9ec" stroke-width="1"/>
<text x="154" y="451.0" text-anchor="end" font-family="Helvetica, Arial, sans-serif" font-size="16" font-weight="normal" fill="#6b7684">0</text>
<line x1="166" y1="368.3" x2="704" y2="368.3" stroke="#e7e9ec" stroke-width="1"/>
<text x="154" y="373.33009708737865" text-anchor="end" font-family="Helvetica, Arial, sans-serif" font-size="16" font-weight="normal" fill="#6b7684">0.5</text>
<line x1="166" y1="290.7" x2="704" y2="290.7" stroke="#e7e9ec" stroke-width="1"/>
<text x="154" y="295.6601941747573" text-anchor="end" font-family="Helvetica, Arial, sans-serif" font-size="16" font-weight="normal" fill="#6b7684">1</text>
<line x1="166" y1="506.0" x2="704" y2="506.0" stroke="#d8dde3" stroke-width="1.4"/>
<text x="154" y="488.0" text-anchor="end" font-family="Helvetica, Arial, sans-serif" font-size="14" font-weight="normal" fill="#6b7684">variation</text>
<line x1="166.0" y1="286" x2="166.0" y2="446" stroke="#f0f1f3" stroke-width="1"/>
<text x="166.0" y="532" text-anchor="middle" font-family="Helvetica, Arial, sans-serif" font-size="16" font-weight="normal" fill="#6b7684">0</text>
<line x1="300.5" y1="286" x2="300.5" y2="446" stroke="#f0f1f3" stroke-width="1"/>
<text x="300.5" y="532" text-anchor="middle" font-family="Helvetica, Arial, sans-serif" font-size="16" font-weight="normal" fill="#6b7684">1</text>
<line x1="435.0" y1="286" x2="435.0" y2="446" stroke="#f0f1f3" stroke-width="1"/>
<text x="435.0" y="532" text-anchor="middle" font-family="Helvetica, Arial, sans-serif" font-size="16" font-weight="normal" fill="#6b7684">2</text>
<line x1="569.5" y1="286" x2="569.5" y2="446" stroke="#f0f1f3" stroke-width="1"/>
<text x="569.5" y="532" text-anchor="middle" font-family="Helvetica, Arial, sans-serif" font-size="16" font-weight="normal" fill="#6b7684">3</text>
<line x1="704.0" y1="286" x2="704.0" y2="446" stroke="#f0f1f3" stroke-width="1"/>
<text x="704.0" y="532" text-anchor="middle" font-family="Helvetica, Arial, sans-serif" font-size="16" font-weight="normal" fill="#6b7684">4</text>
<text x="435.0" y="556" text-anchor="middle" font-family="Helvetica, Arial, sans-serif" font-size="16" font-weight="normal" fill="#6b7684">round</text>
<path d="M 166.0 506.0 L 166.0 487.2 L 300.5 460.0 L 435.0 469.3 L 569.5 494.9 L 704.0 494.9 L 704.0 506.0 Z" fill="#cfe3f5" stroke="#8fb8dd" stroke-width="1.4"/>
<polyline points="166.0,303.6 300.5,342.4 435.0,374.9 569.5,400.6 704.0,431.4" fill="none" stroke="#2867b5" stroke-width="4.5"/>
<circle cx="166.0" cy="303.6" r="5.5" fill="#2867b5" stroke="white" stroke-width="1.5"/>
<circle cx="300.5" cy="342.4" r="5.5" fill="#2867b5" stroke="white" stroke-width="1.5"/>
<circle cx="435.0" cy="374.9" r="5.5" fill="#2867b5" stroke="white" stroke-width="1.5"/>
<circle cx="569.5" cy="400.6" r="5.5" fill="#2867b5" stroke="white" stroke-width="1.5"/>
<circle cx="704.0" cy="431.4" r="5.5" fill="#2867b5" stroke="white" stroke-width="1.5"/>
<text x="160.0" y="289.5533980582524" text-anchor="start" font-family="Helvetica, Arial, sans-serif" font-size="19" font-weight="bold" fill="#2867b5">0.917</text>
<text x="710.0" y="419.3980582524272" text-anchor="end" font-family="Helvetica, Arial, sans-serif" font-size="19" font-weight="bold" fill="#2867b5">0.094</text>
<rect x="790" y="168" width="660" height="442" rx="14" fill="white" stroke="#d8dde3" stroke-width="1.6"/>
<text x="1120.0" y="198" text-anchor="middle" font-family="Helvetica, Arial, sans-serif" font-size="21" font-weight="bold" fill="#1a1a1a">No variation: the value stays put</text>
<text x="1120.0" y="220.0" text-anchor="middle" font-family="Helvetica, Arial, sans-serif" font-size="19" font-weight="normal" fill="#6b7684">Every candidate answer scores the same — nothing to choose.</text>
<line x1="866" y1="446.0" x2="1404" y2="446.0" stroke="#e7e9ec" stroke-width="1"/>
<text x="854" y="451.0" text-anchor="end" font-family="Helvetica, Arial, sans-serif" font-size="16" font-weight="normal" fill="#6b7684">0</text>
<line x1="866" y1="368.3" x2="1404" y2="368.3" stroke="#e7e9ec" stroke-width="1"/>
<text x="854" y="373.33009708737865" text-anchor="end" font-family="Helvetica, Arial, sans-serif" font-size="16" font-weight="normal" fill="#6b7684">0.5</text>
<line x1="866" y1="290.7" x2="1404" y2="290.7" stroke="#e7e9ec" stroke-width="1"/>
<text x="854" y="295.6601941747573" text-anchor="end" font-family="Helvetica, Arial, sans-serif" font-size="16" font-weight="normal" fill="#6b7684">1</text>
<line x1="866" y1="506.0" x2="1404" y2="506.0" stroke="#d8dde3" stroke-width="1.4"/>
<text x="854" y="488.0" text-anchor="end" font-family="Helvetica, Arial, sans-serif" font-size="14" font-weight="normal" fill="#6b7684">variation</text>
<line x1="866.0" y1="286" x2="866.0" y2="446" stroke="#f0f1f3" stroke-width="1"/>
<text x="866.0" y="532" text-anchor="middle" font-family="Helvetica, Arial, sans-serif" font-size="16" font-weight="normal" fill="#6b7684">0</text>
<line x1="1000.5" y1="286" x2="1000.5" y2="446" stroke="#f0f1f3" stroke-width="1"/>
<text x="1000.5" y="532" text-anchor="middle" font-family="Helvetica, Arial, sans-serif" font-size="16" font-weight="normal" fill="#6b7684">1</text>
<line x1="1135.0" y1="286" x2="1135.0" y2="446" stroke="#f0f1f3" stroke-width="1"/>
<text x="1135.0" y="532" text-anchor="middle" font-family="Helvetica, Arial, sans-serif" font-size="16" font-weight="normal" fill="#6b7684">2</text>
<line x1="1269.5" y1="286" x2="1269.5" y2="446" stroke="#f0f1f3" stroke-width="1"/>
<text x="1269.5" y="532" text-anchor="middle" font-family="Helvetica, Arial, sans-serif" font-size="16" font-weight="normal" fill="#6b7684">3</text>
<line x1="1404.0" y1="286" x2="1404.0" y2="446" stroke="#f0f1f3" stroke-width="1"/>
<text x="1404.0" y="532" text-anchor="middle" font-family="Helvetica, Arial, sans-serif" font-size="16" font-weight="normal" fill="#6b7684">4</text>
<text x="1135.0" y="556" text-anchor="middle" font-family="Helvetica, Arial, sans-serif" font-size="16" font-weight="normal" fill="#6b7684">round</text>
<path d="M 866.0 506.0 L 866.0 506.0 L 1000.5 506.0 L 1135.0 506.0 L 1269.5 506.0 L 1404.0 506.0 L 1404.0 506.0 Z" fill="#eef0f2" stroke="#d3d7db" stroke-width="1.4"/>
<polyline points="866.0,290.7 1000.5,290.7 1135.0,290.7 1269.5,290.7 1404.0,290.7" fill="none" stroke="#6b7684" stroke-width="4.5"/>
<circle cx="866.0" cy="290.7" r="5.5" fill="#6b7684" stroke="white" stroke-width="1.5"/>
<circle cx="1000.5" cy="290.7" r="5.5" fill="#6b7684" stroke="white" stroke-width="1.5"/>
<circle cx="1135.0" cy="290.7" r="5.5" fill="#6b7684" stroke="white" stroke-width="1.5"/>
<circle cx="1269.5" cy="290.7" r="5.5" fill="#6b7684" stroke="white" stroke-width="1.5"/>
<circle cx="1404.0" cy="290.7" r="5.5" fill="#6b7684" stroke="white" stroke-width="1.5"/>
<text x="876.0" y="276.6601941747573" text-anchor="start" font-family="Helvetica, Arial, sans-serif" font-size="19" font-weight="bold" fill="#6b7684">1.000</text>
<rect x="90" y="656" width="660" height="442" rx="14" fill="white" stroke="#d8dde3" stroke-width="1.6"/>
<text x="420.0" y="686" text-anchor="middle" font-family="Helvetica, Arial, sans-serif" font-size="21" font-weight="bold" fill="#1a1a1a">Answers refilled: reversal reopens</text>
<text x="420.0" y="708.0" text-anchor="middle" font-family="Helvetica, Arial, sans-serif" font-size="19" font-weight="normal" fill="#6b7684">New answers keep arriving as it falls.</text>
<line x1="166" y1="934.0" x2="704" y2="934.0" stroke="#e7e9ec" stroke-width="1"/>
<text x="154" y="939.0" text-anchor="end" font-family="Helvetica, Arial, sans-serif" font-size="16" font-weight="normal" fill="#6b7684">0</text>
<line x1="166" y1="856.3" x2="704" y2="856.3" stroke="#e7e9ec" stroke-width="1"/>
<text x="154" y="861.3300970873786" text-anchor="end" font-family="Helvetica, Arial, sans-serif" font-size="16" font-weight="normal" fill="#6b7684">0.5</text>
<line x1="166" y1="778.7" x2="704" y2="778.7" stroke="#e7e9ec" stroke-width="1"/>
<text x="154" y="783.6601941747573" text-anchor="end" font-family="Helvetica, Arial, sans-serif" font-size="16" font-weight="normal" fill="#6b7684">1</text>
<line x1="166" y1="994.0" x2="704" y2="994.0" stroke="#d8dde3" stroke-width="1.4"/>
<text x="154" y="976.0" text-anchor="end" font-family="Helvetica, Arial, sans-serif" font-size="14" font-weight="normal" fill="#6b7684">variation</text>
<line x1="166.0" y1="774" x2="166.0" y2="934" stroke="#f0f1f3" stroke-width="1"/>
<text x="166.0" y="1020" text-anchor="middle" font-family="Helvetica, Arial, sans-serif" font-size="16" font-weight="normal" fill="#6b7684">0</text>
<line x1="300.5" y1="774" x2="300.5" y2="934" stroke="#f0f1f3" stroke-width="1"/>
<text x="300.5" y="1020" text-anchor="middle" font-family="Helvetica, Arial, sans-serif" font-size="16" font-weight="normal" fill="#6b7684">1</text>
<line x1="435.0" y1="774" x2="435.0" y2="934" stroke="#f0f1f3" stroke-width="1"/>
<text x="435.0" y="1020" text-anchor="middle" font-family="Helvetica, Arial, sans-serif" font-size="16" font-weight="normal" fill="#6b7684">2</text>
<line x1="569.5" y1="774" x2="569.5" y2="934" stroke="#f0f1f3" stroke-width="1"/>
<text x="569.5" y="1020" text-anchor="middle" font-family="Helvetica, Arial, sans-serif" font-size="16" font-weight="normal" fill="#6b7684">3</text>
<line x1="704.0" y1="774" x2="704.0" y2="934" stroke="#f0f1f3" stroke-width="1"/>
<text x="704.0" y="1020" text-anchor="middle" font-family="Helvetica, Arial, sans-serif" font-size="16" font-weight="normal" fill="#6b7684">4</text>
<text x="435.0" y="1044" text-anchor="middle" font-family="Helvetica, Arial, sans-serif" font-size="16" font-weight="normal" fill="#6b7684">round</text>
<path d="M 166.0 994.0 L 166.0 961.0 L 300.5 956.3 L 435.0 952.7 L 569.5 948.0 L 704.0 948.0 L 704.0 994.0 Z" fill="#cfe3f5" stroke="#8fb8dd" stroke-width="1.4"/>
<line x1="166.0" y1="754.0" x2="166.0" y2="994.0" stroke="#c07d18" stroke-width="2" stroke-dasharray="5 4"/>
<polygon points="159.0,746.0 173.0,746.0 166.0,758.0" fill="#c07d18"/>
<text x="176.0" y="752" text-anchor="start" font-family="Helvetica, Arial, sans-serif" font-size="15" font-weight="bold" fill="#c07d18">another source added</text>
<polyline points="166.0,778.7 300.5,817.5 435.0,862.9 569.5,901.7 704.0,858.8" fill="none" stroke="#2867b5" stroke-width="4.5"/>
<circle cx="166.0" cy="778.7" r="5.5" fill="#2867b5" stroke="white" stroke-width="1.5"/>
<circle cx="300.5" cy="817.5" r="5.5" fill="#2867b5" stroke="white" stroke-width="1.5"/>
<circle cx="435.0" cy="862.9" r="5.5" fill="#2867b5" stroke="white" stroke-width="1.5"/>
<circle cx="569.5" cy="901.7" r="5.5" fill="#2867b5" stroke="white" stroke-width="1.5"/>
<circle cx="704.0" cy="858.8" r="5.5" fill="#2867b5" stroke="white" stroke-width="1.5"/>
<text x="180.0" y="774.6601941747573" text-anchor="start" font-family="Helvetica, Arial, sans-serif" font-size="19" font-weight="bold" fill="#2867b5">1.000</text>
<text x="710.0" y="846.8155339805826" text-anchor="end" font-family="Helvetica, Arial, sans-serif" font-size="19" font-weight="bold" fill="#2867b5">0.484</text>
<text x="577.5" y="883.6893203883495" text-anchor="start" font-family="Helvetica, Arial, sans-serif" font-size="15" font-weight="normal" fill="#2867b5">0.208</text>
<rect x="790" y="656" width="660" height="442" rx="14" fill="white" stroke="#d8dde3" stroke-width="1.6"/>
<text x="1120.0" y="686" text-anchor="middle" font-family="Helvetica, Arial, sans-serif" font-size="21" font-weight="bold" fill="#1a1a1a">A second model family: stalls, then reopens</text>
<text x="1120.0" y="708.0" text-anchor="middle" font-family="Helvetica, Arial, sans-serif" font-size="19" font-weight="normal" fill="#6b7684">Runs dry, holds — then the base model's answers restart the fall.</text>
<line x1="866" y1="934.0" x2="1404" y2="934.0" stroke="#e7e9ec" stroke-width="1"/>
<text x="854" y="939.0" text-anchor="end" font-family="Helvetica, Arial, sans-serif" font-size="16" font-weight="normal" fill="#6b7684">0</text>
<line x1="866" y1="856.3" x2="1404" y2="856.3" stroke="#e7e9ec" stroke-width="1"/>
<text x="854" y="861.3300970873786" text-anchor="end" font-family="Helvetica, Arial, sans-serif" font-size="16" font-weight="normal" fill="#6b7684">0.5</text>
<line x1="866" y1="778.7" x2="1404" y2="778.7" stroke="#e7e9ec" stroke-width="1"/>
<text x="854" y="783.6601941747573" text-anchor="end" font-family="Helvetica, Arial, sans-serif" font-size="16" font-weight="normal" fill="#6b7684">1</text>
<line x1="866" y1="994.0" x2="1404" y2="994.0" stroke="#d8dde3" stroke-width="1.4"/>
<text x="854" y="976.0" text-anchor="end" font-family="Helvetica, Arial, sans-serif" font-size="14" font-weight="normal" fill="#6b7684">variation</text>
<line x1="866.0" y1="774" x2="866.0" y2="934" stroke="#f0f1f3" stroke-width="1"/>
<text x="866.0" y="1020" text-anchor="middle" font-family="Helvetica, Arial, sans-serif" font-size="16" font-weight="normal" fill="#6b7684">0</text>
<line x1="1000.5" y1="774" x2="1000.5" y2="934" stroke="#f0f1f3" stroke-width="1"/>
<text x="1000.5" y="1020" text-anchor="middle" font-family="Helvetica, Arial, sans-serif" font-size="16" font-weight="normal" fill="#6b7684">1</text>
<line x1="1135.0" y1="774" x2="1135.0" y2="934" stroke="#f0f1f3" stroke-width="1"/>
<text x="1135.0" y="1020" text-anchor="middle" font-family="Helvetica, Arial, sans-serif" font-size="16" font-weight="normal" fill="#6b7684">2</text>
<line x1="1269.5" y1="774" x2="1269.5" y2="934" stroke="#f0f1f3" stroke-width="1"/>
<text x="1269.5" y="1020" text-anchor="middle" font-family="Helvetica, Arial, sans-serif" font-size="16" font-weight="normal" fill="#6b7684">3</text>
<line x1="1404.0" y1="774" x2="1404.0" y2="934" stroke="#f0f1f3" stroke-width="1"/>
<text x="1404.0" y="1020" text-anchor="middle" font-family="Helvetica, Arial, sans-serif" font-size="16" font-weight="normal" fill="#6b7684">4</text>
<text x="1135.0" y="1044" text-anchor="middle" font-family="Helvetica, Arial, sans-serif" font-size="16" font-weight="normal" fill="#6b7684">round</text>
<path d="M 866.0 994.0 L 866.0 994.0 L 1000.5 994.0 L 1135.0 994.0 L 1269.5 994.0 L 1404.0 994.0 L 1404.0 994.0 Z" fill="#dee2e6" stroke="#b7bcc2" stroke-width="1.4"/>
<path d="M 866.0 994.0 L 866.0 994.0 L 1000.5 948.0 L 1135.0 980.6 L 1269.5 980.6 L 1404.0 980.6 L 1404.0 994.0 Z" fill="#cfe3f5" stroke="#8fb8dd" stroke-width="1.4"/>
<line x1="1000.5" y1="754.0" x2="1000.5" y2="994.0" stroke="#c07d18" stroke-width="2" stroke-dasharray="5 4"/>
<polygon points="993.5,746.0 1007.5,746.0 1000.5,758.0" fill="#c07d18"/>
<text x="1010.5" y="752" text-anchor="start" font-family="Helvetica, Arial, sans-serif" font-size="15" font-weight="bold" fill="#c07d18">answers added</text>
<polyline points="866.0,836.6 1000.5,836.6 1135.0,836.6 1269.5,836.6 1404.0,836.6" fill="none" stroke="#6b7684" stroke-width="4.5"/>
<circle cx="866.0" cy="836.6" r="5.5" fill="#6b7684" stroke="white" stroke-width="1.5"/>
<circle cx="1000.5" cy="836.6" r="5.5" fill="#6b7684" stroke="white" stroke-width="1.5"/>
<circle cx="1135.0" cy="836.6" r="5.5" fill="#6b7684" stroke="white" stroke-width="1.5"/>
<circle cx="1269.5" cy="836.6" r="5.5" fill="#6b7684" stroke="white" stroke-width="1.5"/>
<circle cx="1404.0" cy="836.6" r="5.5" fill="#6b7684" stroke="white" stroke-width="1.5"/>
<text x="1135.0" y="822.6019417475728" text-anchor="middle" font-family="Helvetica, Arial, sans-serif" font-size="15" font-weight="normal" fill="#6b7684">the model's own answers only</text>
<polyline points="866.0,836.6 1000.5,934.0 1135.0,934.0 1269.5,934.0 1404.0,934.0" fill="none" stroke="#2867b5" stroke-width="4.5"/>
<circle cx="866.0" cy="836.6" r="5.5" fill="#2867b5" stroke="white" stroke-width="1.5"/>
<circle cx="1000.5" cy="934.0" r="5.5" fill="#2867b5" stroke="white" stroke-width="1.5"/>
<circle cx="1135.0" cy="934.0" r="5.5" fill="#2867b5" stroke="white" stroke-width="1.5"/>
<circle cx="1269.5" cy="934.0" r="5.5" fill="#2867b5" stroke="white" stroke-width="1.5"/>
<circle cx="1404.0" cy="934.0" r="5.5" fill="#2867b5" stroke="white" stroke-width="1.5"/>
<text x="860.0" y="822.6019417475728" text-anchor="start" font-family="Helvetica, Arial, sans-serif" font-size="19" font-weight="bold" fill="#2867b5">0.627</text>
<text x="1410.0" y="922.0" text-anchor="end" font-family="Helvetica, Arial, sans-serif" font-size="19" font-weight="bold" fill="#2867b5">0.000</text>
<text x="1135.0" y="916.0" text-anchor="middle" font-family="Helvetica, Arial, sans-serif" font-size="15" font-weight="normal" fill="#6b7684">with the base model's answers added</text>
<text x="750" y="1154.0" text-anchor="middle" font-family="Helvetica, Arial, sans-serif" font-size="20" font-weight="bold" fill="#1a1a1a">Selection can consume the variation it depends on; adding answers from</text>
<text x="750" y="1182.0" text-anchor="middle" font-family="Helvetica, Arial, sans-serif" font-size="20" font-weight="bold" fill="#1a1a1a">another source refills it, but the endpoint depends on what's added.</text>
</svg>