<svg xmlns="http://www.w3.org/2000/svg" viewBox="0 0 1046 886" font-family="Helvetica, Arial, sans-serif">
<rect width="1046" height="886" fill="white"/>
<text x="544.0" y="46.0" text-anchor="middle" font-family="Helvetica, Arial, sans-serif" font-size="29" font-weight="bold" fill="#1a1a1a">Does the candidate spread run out? Spread over rounds, by judge</text>
<text x="544.0" y="78.0" text-anchor="middle" font-family="Helvetica, Arial, sans-serif" font-size="17" font-weight="normal" fill="#6b7684">Own-pool loops. y = candidate value spread (mean within-item SD).</text>
<polyline points="394.0,104.0 426.0,104.0" fill="none" stroke="#6b7684" stroke-width="1.7" stroke-opacity="0.8" stroke-linejoin="round"/>
<text x="434.0" y="109.0" text-anchor="start" font-family="Helvetica, Arial, sans-serif" font-size="14.5" font-weight="normal" fill="#1a1a1a">one run</text>
<polyline points="522.0,104.0 554.0,104.0" fill="none" stroke="#1a1a1a" stroke-width="3.2" stroke-opacity="1.0" stroke-linejoin="round"/>
<text x="562.0" y="109.0" text-anchor="start" font-family="Helvetica, Arial, sans-serif" font-size="14.5" font-weight="normal" fill="#1a1a1a">judge mean</text>
<rect x="78" y="128" width="300" height="300" rx="9" fill="white" stroke="#d0d7de" stroke-width="1.3"/>
<text x="92.0" y="153.0" text-anchor="start" font-family="Helvetica, Arial, sans-serif" font-size="20" font-weight="bold" fill="#1a1a1a">self</text>
<text x="368.0" y="153.0" text-anchor="end" font-family="Helvetica, Arial, sans-serif" font-size="13.5" font-weight="normal" fill="#6b7684">4 runs</text>
<line x1="92" y1="363.2" x2="364" y2="363.2" stroke="#eef0f2" stroke-width="1"/>
<line x1="92" y1="314.4" x2="364" y2="314.4" stroke="#eef0f2" stroke-width="1"/>
<line x1="92" y1="265.6" x2="364" y2="265.6" stroke="#eef0f2" stroke-width="1"/>
<line x1="92" y1="216.8" x2="364" y2="216.8" stroke="#eef0f2" stroke-width="1"/>
<polyline points="92.0,201.7 182.7,194.5 273.3,210.8 364.0,278.7" fill="none" stroke="#2867b5" stroke-width="1.6" stroke-opacity="0.7" stroke-linejoin="round"/>
<polyline points="92.0,181.3 182.7,209.7 273.3,183.0 364.0,218.8" fill="none" stroke="#b5342c" stroke-width="1.6" stroke-opacity="0.7" stroke-linejoin="round"/>
<polyline points="92.0,202.2 182.7,238.0 273.3,282.7 364.0,286.7" fill="none" stroke="#3a7d44" stroke-width="1.6" stroke-opacity="0.7" stroke-linejoin="round"/>
<polyline points="92.0,184.2 182.7,189.3 273.3,194.5 364.0,208.5" fill="none" stroke="#c07d18" stroke-width="1.6" stroke-opacity="0.7" stroke-linejoin="round"/>
<polyline points="92.0,192.3 182.7,207.9 273.3,217.8 364.0,248.2" fill="none" stroke="#1a1a1a" stroke-width="3.0" stroke-opacity="1.0" stroke-linejoin="round"/>
<circle cx="92.0" cy="192.3" r="3.4" fill="#1a1a1a"/>
<circle cx="182.7" cy="207.9" r="3.4" fill="#1a1a1a"/>
<circle cx="273.3" cy="217.8" r="3.4" fill="#1a1a1a"/>
<circle cx="364.0" cy="248.2" r="3.4" fill="#1a1a1a"/>
<rect x="394" y="128" width="300" height="300" rx="9" fill="white" stroke="#d0d7de" stroke-width="1.3"/>
<text x="408.0" y="153.0" text-anchor="start" font-family="Helvetica, Arial, sans-serif" font-size="20" font-weight="bold" fill="#1a1a1a">risk copy</text>
<text x="684.0" y="153.0" text-anchor="end" font-family="Helvetica, Arial, sans-serif" font-size="13.5" font-weight="normal" fill="#6b7684">4 runs</text>
<line x1="408" y1="363.2" x2="680" y2="363.2" stroke="#eef0f2" stroke-width="1"/>
<line x1="408" y1="314.4" x2="680" y2="314.4" stroke="#eef0f2" stroke-width="1"/>
<line x1="408" y1="265.6" x2="680" y2="265.6" stroke="#eef0f2" stroke-width="1"/>
<line x1="408" y1="216.8" x2="680" y2="216.8" stroke="#eef0f2" stroke-width="1"/>
<polyline points="408.0,201.7 498.7,208.5 589.3,204.5 680.0,208.5" fill="none" stroke="#2867b5" stroke-width="1.6" stroke-opacity="0.7" stroke-linejoin="round"/>
<polyline points="408.0,181.3 498.7,180.2 589.3,182.5 680.0,208.0" fill="none" stroke="#b5342c" stroke-width="1.6" stroke-opacity="0.7" stroke-linejoin="round"/>
<polyline points="408.0,202.2 498.7,249.2 589.3,190.5 680.0,226.0" fill="none" stroke="#3a7d44" stroke-width="1.6" stroke-opacity="0.7" stroke-linejoin="round"/>
<polyline points="408.0,184.2 498.7,185.3 589.3,213.7 680.0,184.2" fill="none" stroke="#c07d18" stroke-width="1.6" stroke-opacity="0.7" stroke-linejoin="round"/>
<polyline points="408.0,192.3 498.7,205.8 589.3,197.8 680.0,206.7" fill="none" stroke="#1a1a1a" stroke-width="3.0" stroke-opacity="1.0" stroke-linejoin="round"/>
<circle cx="408.0" cy="192.3" r="3.4" fill="#1a1a1a"/>
<circle cx="498.7" cy="205.8" r="3.4" fill="#1a1a1a"/>
<circle cx="589.3" cy="197.8" r="3.4" fill="#1a1a1a"/>
<circle cx="680.0" cy="206.7" r="3.4" fill="#1a1a1a"/>
<rect x="710" y="128" width="300" height="300" rx="9" fill="white" stroke="#d0d7de" stroke-width="1.3"/>
<text x="724.0" y="153.0" text-anchor="start" font-family="Helvetica, Arial, sans-serif" font-size="20" font-weight="bold" fill="#1a1a1a">cautious copy</text>
<text x="1000.0" y="153.0" text-anchor="end" font-family="Helvetica, Arial, sans-serif" font-size="13.5" font-weight="normal" fill="#6b7684">4 runs</text>
<line x1="724" y1="363.2" x2="996" y2="363.2" stroke="#eef0f2" stroke-width="1"/>
<line x1="724" y1="314.4" x2="996" y2="314.4" stroke="#eef0f2" stroke-width="1"/>
<line x1="724" y1="265.6" x2="996" y2="265.6" stroke="#eef0f2" stroke-width="1"/>
<line x1="724" y1="216.8" x2="996" y2="216.8" stroke="#eef0f2" stroke-width="1"/>
<polyline points="724.0,250.3 814.7,261.2 905.3,309.0 996.0,267.6" fill="none" stroke="#c07d18" stroke-width="1.6" stroke-opacity="0.7" stroke-linejoin="round"/>
<polyline points="724.0,289.9 814.7,331.0 905.3,332.2 996.0,362.5" fill="none" stroke="#8a5a9e" stroke-width="1.6" stroke-opacity="0.7" stroke-linejoin="round"/>
<polyline points="724.0,278.7 814.7,317.0 905.3,336.2 996.0,377.7" fill="none" stroke="#b5342c" stroke-width="1.6" stroke-opacity="0.7" stroke-linejoin="round"/>
<polyline points="724.0,213.7 814.7,249.2 905.3,258.4 996.0,317.0" fill="none" stroke="#3a7d44" stroke-width="1.6" stroke-opacity="0.7" stroke-linejoin="round"/>
<polyline points="724.0,258.1 814.7,289.6 905.3,309.0 996.0,331.2" fill="none" stroke="#1a1a1a" stroke-width="3.0" stroke-opacity="1.0" stroke-linejoin="round"/>
<circle cx="724.0" cy="258.1" r="3.4" fill="#1a1a1a"/>
<circle cx="814.7" cy="289.6" r="3.4" fill="#1a1a1a"/>
<circle cx="905.3" cy="309.0" r="3.4" fill="#1a1a1a"/>
<circle cx="996.0" cy="331.2" r="3.4" fill="#1a1a1a"/>
<rect x="78" y="468" width="300" height="300" rx="9" fill="white" stroke="#d0d7de" stroke-width="1.3"/>
<text x="92.0" y="493.0" text-anchor="start" font-family="Helvetica, Arial, sans-serif" font-size="20" font-weight="bold" fill="#1a1a1a">base</text>
<text x="368.0" y="493.0" text-anchor="end" font-family="Helvetica, Arial, sans-serif" font-size="13.5" font-weight="normal" fill="#6b7684">10 runs</text>
<line x1="92" y1="703.2" x2="364" y2="703.2" stroke="#eef0f2" stroke-width="1"/>
<line x1="92" y1="654.4" x2="364" y2="654.4" stroke="#eef0f2" stroke-width="1"/>
<line x1="92" y1="605.6" x2="364" y2="605.6" stroke="#eef0f2" stroke-width="1"/>
<line x1="92" y1="556.8" x2="364" y2="556.8" stroke="#eef0f2" stroke-width="1"/>
<polyline points="92.0,541.7 182.7,522.5 273.3,557.7 364.0,528.2" fill="none" stroke="#2867b5" stroke-width="1.6" stroke-opacity="0.7" stroke-linejoin="round"/>
<polyline points="92.0,521.3 182.7,553.7 273.3,550.8 364.0,570.0" fill="none" stroke="#b5342c" stroke-width="1.6" stroke-opacity="0.7" stroke-linejoin="round"/>
<polyline points="92.0,542.2 182.7,556.6 273.3,531.7 364.0,537.4" fill="none" stroke="#3a7d44" stroke-width="1.6" stroke-opacity="0.7" stroke-linejoin="round"/>
<polyline points="92.0,524.2 182.7,530.5 273.3,542.0 364.0,540.5" fill="none" stroke="#c07d18" stroke-width="1.6" stroke-opacity="0.7" stroke-linejoin="round"/>
<polyline points="92.0,590.3 182.7,560.0 273.3,597.2 364.0,667.0" fill="none" stroke="#c07d18" stroke-width="1.6" stroke-opacity="0.7" stroke-linejoin="round"/>
<polyline points="92.0,629.9 182.7,682.2 273.3,672.2 364.0,645.5" fill="none" stroke="#8a5a9e" stroke-width="1.6" stroke-opacity="0.7" stroke-linejoin="round"/>
<polyline points="92.0,653.8 182.7,571.2 273.3,536.5 364.0,553.7" fill="none" stroke="#1f9e9e" stroke-width="1.6" stroke-opacity="0.7" stroke-linejoin="round"/>
<polyline points="92.0,611.2 182.7,701.3 273.3,668.2 364.0,672.2" fill="none" stroke="#2867b5" stroke-width="1.6" stroke-opacity="0.7" stroke-linejoin="round"/>
<polyline points="92.0,618.7 182.7,618.7 273.3,645.9 364.0,626.7" fill="none" stroke="#b5342c" stroke-width="1.6" stroke-opacity="0.7" stroke-linejoin="round"/>
<polyline points="92.0,553.7 182.7,534.5 273.3,562.9 364.0,552.0" fill="none" stroke="#3a7d44" stroke-width="1.6" stroke-opacity="0.7" stroke-linejoin="round"/>
<polyline points="92.0,578.7 182.7,583.1 273.3,586.5 364.0,589.3" fill="none" stroke="#1a1a1a" stroke-width="3.0" stroke-opacity="1.0" stroke-linejoin="round"/>
<circle cx="92.0" cy="578.7" r="3.4" fill="#1a1a1a"/>
<circle cx="182.7" cy="583.1" r="3.4" fill="#1a1a1a"/>
<circle cx="273.3" cy="586.5" r="3.4" fill="#1a1a1a"/>
<circle cx="364.0" cy="589.3" r="3.4" fill="#1a1a1a"/>
<rect x="394" y="468" width="300" height="300" rx="9" fill="white" stroke="#d0d7de" stroke-width="1.3"/>
<text x="408.0" y="493.0" text-anchor="start" font-family="Helvetica, Arial, sans-serif" font-size="20" font-weight="bold" fill="#1a1a1a">random</text>
<text x="684.0" y="493.0" text-anchor="end" font-family="Helvetica, Arial, sans-serif" font-size="13.5" font-weight="normal" fill="#6b7684">4 runs</text>
<line x1="408" y1="703.2" x2="680" y2="703.2" stroke="#eef0f2" stroke-width="1"/>
<line x1="408" y1="654.4" x2="680" y2="654.4" stroke="#eef0f2" stroke-width="1"/>
<line x1="408" y1="605.6" x2="680" y2="605.6" stroke="#eef0f2" stroke-width="1"/>
<line x1="408" y1="556.8" x2="680" y2="556.8" stroke="#eef0f2" stroke-width="1"/>
<polyline points="408.0,541.7 498.7,522.5 589.3,580.0 680.0,520.2" fill="none" stroke="#2867b5" stroke-width="1.6" stroke-opacity="0.7" stroke-linejoin="round"/>
<polyline points="408.0,521.3 498.7,530.5 589.3,524.8 680.0,530.5" fill="none" stroke="#b5342c" stroke-width="1.6" stroke-opacity="0.7" stroke-linejoin="round"/>
<polyline points="408.0,542.2 498.7,566.0 589.3,558.8 680.0,594.4" fill="none" stroke="#3a7d44" stroke-width="1.6" stroke-opacity="0.7" stroke-linejoin="round"/>
<polyline points="408.0,524.2 498.7,542.8 589.3,543.7 680.0,566.0" fill="none" stroke="#c07d18" stroke-width="1.6" stroke-opacity="0.7" stroke-linejoin="round"/>
<polyline points="408.0,532.3 498.7,540.5 589.3,551.8 680.0,552.8" fill="none" stroke="#1a1a1a" stroke-width="3.0" stroke-opacity="1.0" stroke-linejoin="round"/>
<circle cx="408.0" cy="532.3" r="3.4" fill="#1a1a1a"/>
<circle cx="498.7" cy="540.5" r="3.4" fill="#1a1a1a"/>
<circle cx="589.3" cy="551.8" r="3.4" fill="#1a1a1a"/>
<circle cx="680.0" cy="552.8" r="3.4" fill="#1a1a1a"/>
<rect x="710" y="468" width="300" height="300" rx="9" fill="white" stroke="#d0d7de" stroke-width="1.3"/>
<text x="724.0" y="493.0" text-anchor="start" font-family="Helvetica, Arial, sans-serif" font-size="20" font-weight="bold" fill="#1a1a1a">score oracle</text>
<text x="1000.0" y="493.0" text-anchor="end" font-family="Helvetica, Arial, sans-serif" font-size="13.5" font-weight="normal" fill="#6b7684">2 runs</text>
<line x1="724" y1="703.2" x2="996" y2="703.2" stroke="#eef0f2" stroke-width="1"/>
<line x1="724" y1="654.4" x2="996" y2="654.4" stroke="#eef0f2" stroke-width="1"/>
<line x1="724" y1="605.6" x2="996" y2="605.6" stroke="#eef0f2" stroke-width="1"/>
<line x1="724" y1="556.8" x2="996" y2="556.8" stroke="#eef0f2" stroke-width="1"/>
<polyline points="724.0,691.4 814.7,604.3 905.3,633.9 996.0,716.5" fill="none" stroke="#d1477a" stroke-width="1.6" stroke-opacity="0.7" stroke-linejoin="round"/>
<polyline points="724.0,752.0 814.7,752.0 905.3,752.0 996.0,752.0" fill="none" stroke="#5b6bbf" stroke-width="1.6" stroke-opacity="0.7" stroke-linejoin="round"/>
<polyline points="724.0,721.7 814.7,678.2 905.3,692.9 996.0,734.3" fill="none" stroke="#1a1a1a" stroke-width="3.0" stroke-opacity="1.0" stroke-linejoin="round"/>
<circle cx="724.0" cy="721.7" r="3.4" fill="#1a1a1a"/>
<circle cx="814.7" cy="678.2" r="3.4" fill="#1a1a1a"/>
<circle cx="905.3" cy="692.9" r="3.4" fill="#1a1a1a"/>
<circle cx="996.0" cy="734.3" r="3.4" fill="#1a1a1a"/>
<text x="92.0" y="444.0" text-anchor="middle" font-family="Helvetica, Arial, sans-serif" font-size="12.5" font-weight="normal" fill="#6b7684">1</text>
<text x="182.7" y="444.0" text-anchor="middle" font-family="Helvetica, Arial, sans-serif" font-size="12.5" font-weight="normal" fill="#6b7684">2</text>
<text x="273.3" y="444.0" text-anchor="middle" font-family="Helvetica, Arial, sans-serif" font-size="12.5" font-weight="normal" fill="#6b7684">3</text>
<text x="364.0" y="444.0" text-anchor="middle" font-family="Helvetica, Arial, sans-serif" font-size="12.5" font-weight="normal" fill="#6b7684">4</text>
<text x="408.0" y="444.0" text-anchor="middle" font-family="Helvetica, Arial, sans-serif" font-size="12.5" font-weight="normal" fill="#6b7684">1</text>
<text x="498.7" y="444.0" text-anchor="middle" font-family="Helvetica, Arial, sans-serif" font-size="12.5" font-weight="normal" fill="#6b7684">2</text>
<text x="589.3" y="444.0" text-anchor="middle" font-family="Helvetica, Arial, sans-serif" font-size="12.5" font-weight="normal" fill="#6b7684">3</text>
<text x="680.0" y="444.0" text-anchor="middle" font-family="Helvetica, Arial, sans-serif" font-size="12.5" font-weight="normal" fill="#6b7684">4</text>
<text x="724.0" y="444.0" text-anchor="middle" font-family="Helvetica, Arial, sans-serif" font-size="12.5" font-weight="normal" fill="#6b7684">1</text>
<text x="814.7" y="444.0" text-anchor="middle" font-family="Helvetica, Arial, sans-serif" font-size="12.5" font-weight="normal" fill="#6b7684">2</text>
<text x="905.3" y="444.0" text-anchor="middle" font-family="Helvetica, Arial, sans-serif" font-size="12.5" font-weight="normal" fill="#6b7684">3</text>
<text x="996.0" y="444.0" text-anchor="middle" font-family="Helvetica, Arial, sans-serif" font-size="12.5" font-weight="normal" fill="#6b7684">4</text>
<text x="92.0" y="784.0" text-anchor="middle" font-family="Helvetica, Arial, sans-serif" font-size="12.5" font-weight="normal" fill="#6b7684">1</text>
<text x="182.7" y="784.0" text-anchor="middle" font-family="Helvetica, Arial, sans-serif" font-size="12.5" font-weight="normal" fill="#6b7684">2</text>
<text x="273.3" y="784.0" text-anchor="middle" font-family="Helvetica, Arial, sans-serif" font-size="12.5" font-weight="normal" fill="#6b7684">3</text>
<text x="364.0" y="784.0" text-anchor="middle" font-family="Helvetica, Arial, sans-serif" font-size="12.5" font-weight="normal" fill="#6b7684">4</text>
<text x="408.0" y="784.0" text-anchor="middle" font-family="Helvetica, Arial, sans-serif" font-size="12.5" font-weight="normal" fill="#6b7684">1</text>
<text x="498.7" y="784.0" text-anchor="middle" font-family="Helvetica, Arial, sans-serif" font-size="12.5" font-weight="normal" fill="#6b7684">2</text>
<text x="589.3" y="784.0" text-anchor="middle" font-family="Helvetica, Arial, sans-serif" font-size="12.5" font-weight="normal" fill="#6b7684">3</text>
<text x="680.0" y="784.0" text-anchor="middle" font-family="Helvetica, Arial, sans-serif" font-size="12.5" font-weight="normal" fill="#6b7684">4</text>
<text x="724.0" y="784.0" text-anchor="middle" font-family="Helvetica, Arial, sans-serif" font-size="12.5" font-weight="normal" fill="#6b7684">1</text>
<text x="814.7" y="784.0" text-anchor="middle" font-family="Helvetica, Arial, sans-serif" font-size="12.5" font-weight="normal" fill="#6b7684">2</text>
<text x="905.3" y="784.0" text-anchor="middle" font-family="Helvetica, Arial, sans-serif" font-size="12.5" font-weight="normal" fill="#6b7684">3</text>
<text x="996.0" y="784.0" text-anchor="middle" font-family="Helvetica, Arial, sans-serif" font-size="12.5" font-weight="normal" fill="#6b7684">4</text>
<text x="544.0" y="810.0" text-anchor="middle" font-family="Helvetica, Arial, sans-serif" font-size="18" font-weight="bold" fill="#1a1a1a">x:  training round</text>
<text x="70.0" y="173.0" text-anchor="end" font-family="Helvetica, Arial, sans-serif" font-size="12" font-weight="normal" fill="#6b7684">0.5</text>
<text x="70.0" y="417.0" text-anchor="end" font-family="Helvetica, Arial, sans-serif" font-size="12" font-weight="normal" fill="#6b7684">0.0</text>
<text x="70.0" y="513.0" text-anchor="end" font-family="Helvetica, Arial, sans-serif" font-size="12" font-weight="normal" fill="#6b7684">0.5</text>
<text x="70.0" y="757.0" text-anchor="end" font-family="Helvetica, Arial, sans-serif" font-size="12" font-weight="normal" fill="#6b7684">0.0</text>
<text x="28" y="448.0" text-anchor="middle" font-family="Helvetica, Arial, sans-serif" font-size="18" font-weight="bold" fill="#1a1a1a" transform="rotate(-90 28 448.0)">y:  candidate spread</text>
<text x="236.0" y="861.0" text-anchor="start" font-family="Helvetica, Arial, sans-serif" font-size="15" font-weight="bold" fill="#1a1a1a">seed</text>
<rect x="282.0" y="847.0" width="13" height="13" rx="2" fill="#2867b5"/>
<text x="301.0" y="861.0" text-anchor="start" font-family="Helvetica, Arial, sans-serif" font-size="14" font-weight="normal" fill="#1a1a1a">0</text>
<rect x="334.0" y="847.0" width="13" height="13" rx="2" fill="#b5342c"/>
<text x="353.0" y="861.0" text-anchor="start" font-family="Helvetica, Arial, sans-serif" font-size="14" font-weight="normal" fill="#1a1a1a">1</text>
<rect x="386.0" y="847.0" width="13" height="13" rx="2" fill="#3a7d44"/>
<text x="405.0" y="861.0" text-anchor="start" font-family="Helvetica, Arial, sans-serif" font-size="14" font-weight="normal" fill="#1a1a1a">2</text>
<rect x="438.0" y="847.0" width="13" height="13" rx="2" fill="#c07d18"/>
<text x="457.0" y="861.0" text-anchor="start" font-family="Helvetica, Arial, sans-serif" font-size="14" font-weight="normal" fill="#1a1a1a">3</text>
<rect x="490.0" y="847.0" width="13" height="13" rx="2" fill="#8a5a9e"/>
<text x="509.0" y="861.0" text-anchor="start" font-family="Helvetica, Arial, sans-serif" font-size="14" font-weight="normal" fill="#1a1a1a">4</text>
<rect x="542.0" y="847.0" width="13" height="13" rx="2" fill="#1f9e9e"/>
<text x="561.0" y="861.0" text-anchor="start" font-family="Helvetica, Arial, sans-serif" font-size="14" font-weight="normal" fill="#1a1a1a">5</text>
<rect x="594.0" y="847.0" width="13" height="13" rx="2" fill="#d1477a"/>
<text x="613.0" y="861.0" text-anchor="start" font-family="Helvetica, Arial, sans-serif" font-size="14" font-weight="normal" fill="#1a1a1a">21</text>
<rect x="646.0" y="847.0" width="13" height="13" rx="2" fill="#5b6bbf"/>
<text x="665.0" y="861.0" text-anchor="start" font-family="Helvetica, Arial, sans-serif" font-size="14" font-weight="normal" fill="#1a1a1a">22</text>
<circle cx="726.0" cy="856.0" r="5.5" fill="#6b7684"/>
<text x="737.0" y="861.0" text-anchor="start" font-family="Helvetica, Arial, sans-serif" font-size="14" font-weight="normal" fill="#6b7684">Qwen</text>
<rect x="794.0" y="850.5" width="11" height="11" fill="#6b7684"/>
<text x="812.0" y="861.0" text-anchor="start" font-family="Helvetica, Arial, sans-serif" font-size="14" font-weight="normal" fill="#6b7684">OLMo</text>
</svg>