<svg xmlns="http://www.w3.org/2000/svg" viewBox="0 0 1042 856" font-family="Helvetica, Arial, sans-serif">
<rect width="1042" height="856" fill="white"/>
<text x="540.0" y="46.0" text-anchor="middle" font-family="Helvetica, Arial, sans-serif" font-size="29" font-weight="bold" fill="#1a1a1a">Which way each judge pulls, by value level</text>
<text x="540.0" y="78.0" text-anchor="middle" font-family="Helvetica, Arial, sans-serif" font-size="17" font-weight="normal" fill="#6b7684">Own-pool loops. The selection gap (up = pulls value up) against the current value.</text>
<text x="540.0" y="100.0" text-anchor="middle" font-family="Helvetica, Arial, sans-serif" font-size="15" font-weight="normal" fill="#6b7684">each path = one run; dot per training round, arrow to the next · EACH PANEL is scaled to its own runs (range printed below it)</text>
<rect x="74" y="128" width="300" height="300" rx="9" fill="white" stroke="#d0d7de" stroke-width="1.3"/>
<text x="88.0" y="153.0" text-anchor="start" font-family="Helvetica, Arial, sans-serif" font-size="20" font-weight="bold" fill="#1a1a1a">self</text>
<text x="364.0" y="153.0" text-anchor="end" font-family="Helvetica, Arial, sans-serif" font-size="13.5" font-weight="normal" fill="#6b7684">4 runs · Qwen</text>
<line x1="84" y1="321.7" x2="364" y2="321.7" stroke="#eceef1" stroke-width="1.2"/>
<line x1="239.0" y1="326.7" x2="230.3" y2="329.6" stroke="#2867b5" stroke-width="1.9" stroke-opacity="0.72" stroke-linecap="round"/><polygon points="224.0,331.6 229.3,326.4 231.3,332.7" fill="#2867b5" fill-opacity="0.72"/>
<line x1="224.0" y1="331.6" x2="203.6" y2="378.0" stroke="#2867b5" stroke-width="1.9" stroke-opacity="0.72" stroke-linecap="round"/><polygon points="200.0,386.2 199.5,376.2 207.7,379.8" fill="#2867b5" fill-opacity="0.72"/>
<line x1="200.0" y1="386.2" x2="122.8" y2="317.8" stroke="#2867b5" stroke-width="1.9" stroke-opacity="0.72" stroke-linecap="round"/><polygon points="116.1,311.8 125.8,314.4 119.8,321.1" fill="#2867b5" fill-opacity="0.72"/>
<circle cx="239.0" cy="326.7" r="3.6" fill="#2867b5"/>
<circle cx="224.0" cy="331.6" r="3.6" fill="#2867b5"/>
<circle cx="200.0" cy="386.2" r="3.6" fill="#2867b5"/>
<circle cx="116.1" cy="311.8" r="3.6" fill="#2867b5"/>
<line x1="251.0" y1="346.5" x2="228.3" y2="304.8" stroke="#b5342c" stroke-width="1.9" stroke-opacity="0.72" stroke-linecap="round"/><polygon points="224.0,296.9 232.3,302.7 224.3,307.0" fill="#b5342c" fill-opacity="0.72"/>
<line x1="224.0" y1="296.9" x2="172.8" y2="309.6" stroke="#b5342c" stroke-width="1.9" stroke-opacity="0.72" stroke-linecap="round"/><polygon points="164.0,311.8 171.7,305.3 173.8,314.0" fill="#b5342c" fill-opacity="0.72"/>
<line x1="164.0" y1="311.8" x2="239.2" y2="329.6" stroke="#b5342c" stroke-width="1.9" stroke-opacity="0.72" stroke-linecap="round"/><polygon points="248.0,331.6 238.2,333.9 240.3,325.2" fill="#b5342c" fill-opacity="0.72"/>
<circle cx="251.0" cy="346.5" r="3.6" fill="#b5342c"/>
<circle cx="224.0" cy="296.9" r="3.6" fill="#b5342c"/>
<circle cx="164.0" cy="311.8" r="3.6" fill="#b5342c"/>
<circle cx="248.0" cy="331.6" r="3.6" fill="#b5342c"/>
<line x1="242.0" y1="287.0" x2="246.6" y2="317.8" stroke="#3a7d44" stroke-width="1.9" stroke-opacity="0.72" stroke-linecap="round"/><polygon points="248.0,326.7 242.2,318.4 251.1,317.1" fill="#3a7d44" fill-opacity="0.72"/>
<line x1="248.0" y1="326.7" x2="323.0" y2="331.1" stroke="#3a7d44" stroke-width="1.9" stroke-opacity="0.72" stroke-linecap="round"/><polygon points="331.9,331.6 322.7,335.6 323.2,326.6" fill="#3a7d44" fill-opacity="0.72"/>
<line x1="331.9" y1="331.6" x2="269.0" y2="336.0" stroke="#3a7d44" stroke-width="1.9" stroke-opacity="0.72" stroke-linecap="round"/><polygon points="260.0,336.6 268.6,331.5 269.3,340.5" fill="#3a7d44" fill-opacity="0.72"/>
<circle cx="242.0" cy="287.0" r="3.6" fill="#3a7d44"/>
<circle cx="248.0" cy="326.7" r="3.6" fill="#3a7d44"/>
<circle cx="331.9" cy="331.6" r="3.6" fill="#3a7d44"/>
<circle cx="260.0" cy="336.6" r="3.6" fill="#3a7d44"/>
<line x1="236.0" y1="326.7" x2="236.0" y2="318.0" stroke="#c07d18" stroke-width="1.9" stroke-opacity="0.72" stroke-linecap="round"/><polygon points="236.0,311.8 239.1,318.0 232.8,318.0" fill="#c07d18" fill-opacity="0.72"/>
<line x1="236.0" y1="311.8" x2="228.6" y2="323.9" stroke="#c07d18" stroke-width="1.9" stroke-opacity="0.72" stroke-linecap="round"/><polygon points="224.0,331.6 224.8,321.6 232.5,326.3" fill="#c07d18" fill-opacity="0.72"/>
<line x1="224.0" y1="331.6" x2="224.0" y2="196.8" stroke="#c07d18" stroke-width="1.9" stroke-opacity="0.72" stroke-linecap="round"/><polygon points="224.0,187.8 228.5,196.8 219.5,196.8" fill="#c07d18" fill-opacity="0.72"/>
<circle cx="236.0" cy="326.7" r="3.6" fill="#c07d18"/>
<circle cx="236.0" cy="311.8" r="3.6" fill="#c07d18"/>
<circle cx="224.0" cy="331.6" r="3.6" fill="#c07d18"/>
<circle cx="224.0" cy="187.8" r="3.6" fill="#c07d18"/>
<text x="78.0" y="446.0" text-anchor="start" font-family="Helvetica, Arial, sans-serif" font-size="12.5" font-weight="normal" fill="#6b7684">x 0.17–0.92    y -0.18–0.38</text>
<rect x="390" y="128" width="300" height="300" rx="9" fill="white" stroke="#d0d7de" stroke-width="1.3"/>
<text x="404.0" y="153.0" text-anchor="start" font-family="Helvetica, Arial, sans-serif" font-size="20" font-weight="bold" fill="#1a1a1a">risk copy</text>
<text x="680.0" y="153.0" text-anchor="end" font-family="Helvetica, Arial, sans-serif" font-size="13.5" font-weight="normal" fill="#6b7684">4 runs · Qwen</text>
<line x1="400" y1="303.6" x2="680" y2="303.6" stroke="#eceef1" stroke-width="1.2"/>
<line x1="573.8" y1="320.1" x2="569.8" y2="329.7" stroke="#2867b5" stroke-width="1.9" stroke-opacity="0.72" stroke-linecap="round"/><polygon points="567.0,336.7 566.4,328.3 573.3,331.1" fill="#2867b5" fill-opacity="0.72"/>
<line x1="567.0" y1="336.7" x2="495.0" y2="336.7" stroke="#2867b5" stroke-width="1.9" stroke-opacity="0.72" stroke-linecap="round"/><polygon points="486.0,336.7 495.0,332.2 495.0,341.2" fill="#2867b5" fill-opacity="0.72"/>
<line x1="486.0" y1="336.7" x2="612.1" y2="352.1" stroke="#2867b5" stroke-width="1.9" stroke-opacity="0.72" stroke-linecap="round"/><polygon points="621.0,353.2 611.5,356.6 612.6,347.7" fill="#2867b5" fill-opacity="0.72"/>
<circle cx="573.8" cy="320.1" r="3.6" fill="#2867b5"/>
<circle cx="567.0" cy="336.7" r="3.6" fill="#2867b5"/>
<circle cx="486.0" cy="336.7" r="3.6" fill="#2867b5"/>
<circle cx="621.0" cy="353.2" r="3.6" fill="#2867b5"/>
<line x1="600.7" y1="386.2" x2="570.4" y2="311.9" stroke="#b5342c" stroke-width="1.9" stroke-opacity="0.72" stroke-linecap="round"/><polygon points="567.0,303.6 574.5,310.2 566.2,313.6" fill="#b5342c" fill-opacity="0.72"/>
<line x1="567.0" y1="303.6" x2="440.8" y2="272.6" stroke="#b5342c" stroke-width="1.9" stroke-opacity="0.72" stroke-linecap="round"/><polygon points="432.1,270.4 441.9,268.2 439.7,277.0" fill="#b5342c" fill-opacity="0.72"/>
<line x1="432.1" y1="270.4" x2="506.7" y2="346.8" stroke="#b5342c" stroke-width="1.9" stroke-opacity="0.72" stroke-linecap="round"/><polygon points="513.0,353.2 503.5,349.9 509.9,343.6" fill="#b5342c" fill-opacity="0.72"/>
<circle cx="600.7" cy="386.2" r="3.6" fill="#b5342c"/>
<circle cx="567.0" cy="303.6" r="3.6" fill="#b5342c"/>
<circle cx="432.1" cy="270.4" r="3.6" fill="#b5342c"/>
<circle cx="513.0" cy="353.2" r="3.6" fill="#b5342c"/>
<line x1="580.5" y1="187.8" x2="567.6" y2="360.8" stroke="#3a7d44" stroke-width="1.9" stroke-opacity="0.72" stroke-linecap="round"/><polygon points="567.0,369.8 563.2,360.5 572.1,361.1" fill="#3a7d44" fill-opacity="0.72"/>
<line x1="567.0" y1="369.8" x2="567.0" y2="329.1" stroke="#3a7d44" stroke-width="1.9" stroke-opacity="0.72" stroke-linecap="round"/><polygon points="567.0,320.1 571.5,329.1 562.5,329.1" fill="#3a7d44" fill-opacity="0.72"/>
<line x1="567.0" y1="320.1" x2="641.0" y2="380.5" stroke="#3a7d44" stroke-width="1.9" stroke-opacity="0.72" stroke-linecap="round"/><polygon points="647.9,386.2 638.1,384.0 643.8,377.0" fill="#3a7d44" fill-opacity="0.72"/>
<circle cx="580.5" cy="187.8" r="3.6" fill="#3a7d44"/>
<circle cx="567.0" cy="369.8" r="3.6" fill="#3a7d44"/>
<circle cx="567.0" cy="320.1" r="3.6" fill="#3a7d44"/>
<circle cx="647.9" cy="386.2" r="3.6" fill="#3a7d44"/>
<line x1="567.0" y1="320.1" x2="494.8" y2="305.4" stroke="#c07d18" stroke-width="1.9" stroke-opacity="0.72" stroke-linecap="round"/><polygon points="486.0,303.6 495.7,300.9 493.9,309.8" fill="#c07d18" fill-opacity="0.72"/>
<line x1="486.0" y1="303.6" x2="558.0" y2="303.6" stroke="#c07d18" stroke-width="1.9" stroke-opacity="0.72" stroke-linecap="round"/><polygon points="567.0,303.6 558.0,308.1 558.0,299.1" fill="#c07d18" fill-opacity="0.72"/>
<line x1="567.0" y1="303.6" x2="517.3" y2="212.3" stroke="#c07d18" stroke-width="1.9" stroke-opacity="0.72" stroke-linecap="round"/><polygon points="513.0,204.3 521.3,210.1 513.4,214.4" fill="#c07d18" fill-opacity="0.72"/>
<circle cx="567.0" cy="320.1" r="3.6" fill="#c07d18"/>
<circle cx="486.0" cy="303.6" r="3.6" fill="#c07d18"/>
<circle cx="567.0" cy="303.6" r="3.6" fill="#c07d18"/>
<circle cx="513.0" cy="204.3" r="3.6" fill="#c07d18"/>
<text x="394.0" y="446.0" text-anchor="start" font-family="Helvetica, Arial, sans-serif" font-size="12.5" font-weight="normal" fill="#6b7684">x 0.38–0.71    y -0.07–0.10</text>
<rect x="706" y="128" width="300" height="300" rx="9" fill="white" stroke="#d0d7de" stroke-width="1.3"/>
<text x="720.0" y="153.0" text-anchor="start" font-family="Helvetica, Arial, sans-serif" font-size="20" font-weight="bold" fill="#1a1a1a">cautious copy</text>
<text x="996.0" y="153.0" text-anchor="end" font-family="Helvetica, Arial, sans-serif" font-size="13.5" font-weight="normal" fill="#6b7684">4 runs · OLMo</text>
<line x1="748.1" y1="162" x2="748.1" y2="414" stroke="#eceef1" stroke-width="1.2"/>
<line x1="716" y1="264.1" x2="996" y2="264.1" stroke="#eceef1" stroke-width="1.2"/>
<line x1="874.0" y1="370.9" x2="803.0" y2="256.5" stroke="#c07d18" stroke-width="1.9" stroke-opacity="0.72" stroke-linecap="round"/><polygon points="798.3,248.8 806.9,254.1 799.2,258.8" fill="#c07d18" fill-opacity="0.72"/>
<line x1="798.3" y1="248.8" x2="794.6" y2="300.9" stroke="#c07d18" stroke-width="1.9" stroke-opacity="0.72" stroke-linecap="round"/><polygon points="794.0,309.9 790.1,300.6 799.1,301.3" fill="#c07d18" fill-opacity="0.72"/>
<line x1="794.0" y1="309.9" x2="833.1" y2="196.3" stroke="#c07d18" stroke-width="1.9" stroke-opacity="0.72" stroke-linecap="round"/><polygon points="836.0,187.8 837.4,197.8 828.8,194.8" fill="#c07d18" fill-opacity="0.72"/>
<rect x="870.4" y="367.3" width="7.2" height="7.2" fill="#c07d18"/>
<rect x="794.7" y="245.2" width="7.2" height="7.2" fill="#c07d18"/>
<rect x="790.4" y="306.3" width="7.2" height="7.2" fill="#c07d18"/>
<rect x="832.4" y="184.2" width="7.2" height="7.2" fill="#c07d18"/>
<line x1="877.2" y1="355.6" x2="800.5" y2="328.2" stroke="#8a5a9e" stroke-width="1.9" stroke-opacity="0.72" stroke-linecap="round"/><polygon points="792.0,325.2 802.0,324.0 799.0,332.5" fill="#8a5a9e" fill-opacity="0.72"/>
<line x1="792.0" y1="325.2" x2="773.1" y2="272.6" stroke="#8a5a9e" stroke-width="1.9" stroke-opacity="0.72" stroke-linecap="round"/><polygon points="770.1,264.1 777.3,271.0 768.9,274.1" fill="#8a5a9e" fill-opacity="0.72"/>
<line x1="770.1" y1="264.1" x2="770.1" y2="242.5" stroke="#8a5a9e" stroke-width="1.9" stroke-opacity="0.72" stroke-linecap="round"/><polygon points="770.1,233.5 774.6,242.5 765.6,242.5" fill="#8a5a9e" fill-opacity="0.72"/>
<rect x="873.6" y="352.0" width="7.2" height="7.2" fill="#8a5a9e"/>
<rect x="788.4" y="321.6" width="7.2" height="7.2" fill="#8a5a9e"/>
<rect x="766.5" y="260.5" width="7.2" height="7.2" fill="#8a5a9e"/>
<rect x="766.5" y="229.9" width="7.2" height="7.2" fill="#8a5a9e"/>
<line x1="874.5" y1="370.9" x2="779.2" y2="328.8" stroke="#b5342c" stroke-width="1.9" stroke-opacity="0.72" stroke-linecap="round"/><polygon points="771.0,325.2 781.1,324.7 777.4,333.0" fill="#b5342c" fill-opacity="0.72"/>
<line x1="771.0" y1="325.2" x2="753.5" y2="301.8" stroke="#b5342c" stroke-width="1.9" stroke-opacity="0.72" stroke-linecap="round"/><polygon points="748.1,294.6 757.1,299.1 749.9,304.5" fill="#b5342c" fill-opacity="0.72"/>
<line x1="748.1" y1="294.6" x2="748.1" y2="273.1" stroke="#b5342c" stroke-width="1.9" stroke-opacity="0.72" stroke-linecap="round"/><polygon points="748.1,264.1 752.6,273.1 743.6,273.1" fill="#b5342c" fill-opacity="0.72"/>
<rect x="870.9" y="367.3" width="7.2" height="7.2" fill="#b5342c"/>
<rect x="767.4" y="321.6" width="7.2" height="7.2" fill="#b5342c"/>
<rect x="744.5" y="291.0" width="7.2" height="7.2" fill="#b5342c"/>
<rect x="744.5" y="260.5" width="7.2" height="7.2" fill="#b5342c"/>
<line x1="859.1" y1="264.1" x2="958.1" y2="379.4" stroke="#3a7d44" stroke-width="1.9" stroke-opacity="0.72" stroke-linecap="round"/><polygon points="963.9,386.2 954.7,382.3 961.5,376.4" fill="#3a7d44" fill-opacity="0.72"/>
<line x1="963.9" y1="386.2" x2="889.0" y2="386.2" stroke="#3a7d44" stroke-width="1.9" stroke-opacity="0.72" stroke-linecap="round"/><polygon points="880.0,386.2 889.0,381.7 889.0,390.7" fill="#3a7d44" fill-opacity="0.72"/>
<line x1="880.0" y1="386.2" x2="822.8" y2="373.0" stroke="#3a7d44" stroke-width="1.9" stroke-opacity="0.72" stroke-linecap="round"/><polygon points="814.0,370.9 823.8,368.6 821.8,377.3" fill="#3a7d44" fill-opacity="0.72"/>
<rect x="855.5" y="260.5" width="7.2" height="7.2" fill="#3a7d44"/>
<rect x="960.3" y="382.6" width="7.2" height="7.2" fill="#3a7d44"/>
<rect x="876.4" y="382.6" width="7.2" height="7.2" fill="#3a7d44"/>
<rect x="810.4" y="367.3" width="7.2" height="7.2" fill="#3a7d44"/>
<text x="710.0" y="446.0" text-anchor="start" font-family="Helvetica, Arial, sans-serif" font-size="12.5" font-weight="normal" fill="#6b7684">x 0.00–0.41    y -0.11–0.07</text>
<rect x="74" y="460" width="300" height="300" rx="9" fill="white" stroke="#d0d7de" stroke-width="1.3"/>
<text x="88.0" y="485.0" text-anchor="start" font-family="Helvetica, Arial, sans-serif" font-size="20" font-weight="bold" fill="#1a1a1a">base</text>
<text x="364.0" y="485.0" text-anchor="end" font-family="Helvetica, Arial, sans-serif" font-size="13.5" font-weight="normal" fill="#6b7684">10 runs · OLMo · Qwen</text>
<line x1="116.1" y1="494" x2="116.1" y2="746" stroke="#eceef1" stroke-width="1.2"/>
<line x1="84" y1="638.8" x2="364" y2="638.8" stroke="#eceef1" stroke-width="1.2"/>
<line x1="308.3" y1="705.0" x2="305.4" y2="647.8" stroke="#2867b5" stroke-width="1.9" stroke-opacity="0.72" stroke-linecap="round"/><polygon points="304.9,638.8 309.9,647.6 300.9,648.1" fill="#2867b5" fill-opacity="0.72"/>

<line x1="304.9" y1="638.8" x2="324.7" y2="653.4" stroke="#2867b5" stroke-width="1.9" stroke-opacity="0.72" stroke-linecap="round"/><polygon points="331.9,658.7 322.0,657.0 327.4,649.7" fill="#2867b5" fill-opacity="0.72"/>
<circle cx="308.3" cy="705.0" r="3.6" fill="#2867b5"/>
<circle cx="304.9" cy="638.8" r="3.6" fill="#2867b5"/>
<circle cx="304.9" cy="638.8" r="3.6" fill="#2867b5"/>
<circle cx="331.9" cy="658.7" r="3.6" fill="#2867b5"/>
<line x1="321.8" y1="671.9" x2="300.5" y2="671.9" stroke="#b5342c" stroke-width="1.9" stroke-opacity="0.72" stroke-linecap="round"/><polygon points="291.5,671.9 300.5,667.4 300.5,676.4" fill="#b5342c" fill-opacity="0.72"/>
<line x1="291.5" y1="671.9" x2="257.4" y2="638.5" stroke="#b5342c" stroke-width="1.9" stroke-opacity="0.72" stroke-linecap="round"/><polygon points="251.0,632.2 260.6,635.3 254.3,641.7" fill="#b5342c" fill-opacity="0.72"/>

<circle cx="321.8" cy="671.9" r="3.6" fill="#b5342c"/>
<circle cx="291.5" cy="671.9" r="3.6" fill="#b5342c"/>
<circle cx="251.0" cy="632.2" r="3.6" fill="#b5342c"/>
<circle cx="251.0" cy="632.2" r="3.6" fill="#b5342c"/>
<line x1="311.7" y1="632.2" x2="270.1" y2="684.7" stroke="#3a7d44" stroke-width="1.9" stroke-opacity="0.72" stroke-linecap="round"/><polygon points="264.5,691.7 266.5,681.9 273.6,687.5" fill="#3a7d44" fill-opacity="0.72"/>
<line x1="264.5" y1="691.7" x2="239.7" y2="594.7" stroke="#3a7d44" stroke-width="1.9" stroke-opacity="0.72" stroke-linecap="round"/><polygon points="237.5,585.9 244.1,593.5 235.3,595.8" fill="#3a7d44" fill-opacity="0.72"/>
<line x1="237.5" y1="585.9" x2="245.3" y2="593.6" stroke="#3a7d44" stroke-width="1.9" stroke-opacity="0.72" stroke-linecap="round"/><polygon points="251.0,599.2 242.5,596.4 248.1,590.8" fill="#3a7d44" fill-opacity="0.72"/>
<circle cx="311.7" cy="632.2" r="3.6" fill="#3a7d44"/>
<circle cx="264.5" cy="691.7" r="3.6" fill="#3a7d44"/>
<circle cx="237.5" cy="585.9" r="3.6" fill="#3a7d44"/>
<circle cx="251.0" cy="599.2" r="3.6" fill="#3a7d44"/>
<line x1="304.9" y1="685.1" x2="256.0" y2="613.2" stroke="#c07d18" stroke-width="1.9" stroke-opacity="0.72" stroke-linecap="round"/><polygon points="251.0,605.8 259.8,610.7 252.3,615.8" fill="#c07d18" fill-opacity="0.72"/>
<line x1="251.0" y1="605.8" x2="287.1" y2="670.6" stroke="#c07d18" stroke-width="1.9" stroke-opacity="0.72" stroke-linecap="round"/><polygon points="291.5,678.5 283.2,672.8 291.0,668.4" fill="#c07d18" fill-opacity="0.72"/>
<line x1="291.5" y1="678.5" x2="299.9" y2="666.1" stroke="#c07d18" stroke-width="1.9" stroke-opacity="0.72" stroke-linecap="round"/><polygon points="304.9,658.7 303.6,668.7 296.2,663.6" fill="#c07d18" fill-opacity="0.72"/>
<circle cx="304.9" cy="685.1" r="3.6" fill="#c07d18"/>
<circle cx="251.0" cy="605.8" r="3.6" fill="#c07d18"/>
<circle cx="291.5" cy="678.5" r="3.6" fill="#c07d18"/>
<circle cx="304.9" cy="658.7" r="3.6" fill="#c07d18"/>
<line x1="193.3" y1="645.5" x2="191.2" y2="653.1" stroke="#c07d18" stroke-width="1.9" stroke-opacity="0.72" stroke-linecap="round"/><polygon points="189.7,658.7 188.4,652.4 194.0,653.9" fill="#c07d18" fill-opacity="0.72"/>
<line x1="189.7" y1="658.7" x2="178.3" y2="671.7" stroke="#c07d18" stroke-width="1.9" stroke-opacity="0.72" stroke-linecap="round"/><polygon points="172.4,678.5 174.9,668.8 181.7,674.7" fill="#c07d18" fill-opacity="0.72"/>
<line x1="172.4" y1="678.5" x2="159.5" y2="640.7" stroke="#c07d18" stroke-width="1.9" stroke-opacity="0.72" stroke-linecap="round"/><polygon points="156.5,632.2 163.7,639.3 155.2,642.2" fill="#c07d18" fill-opacity="0.72"/>
<rect x="189.7" y="641.9" width="7.2" height="7.2" fill="#c07d18"/>
<rect x="186.1" y="655.1" width="7.2" height="7.2" fill="#c07d18"/>
<rect x="168.8" y="674.9" width="7.2" height="7.2" fill="#c07d18"/>
<rect x="152.9" y="628.6" width="7.2" height="7.2" fill="#c07d18"/>
<line x1="195.3" y1="678.5" x2="163.4" y2="651.3" stroke="#8a5a9e" stroke-width="1.9" stroke-opacity="0.72" stroke-linecap="round"/><polygon points="156.5,645.5 166.3,647.9 160.5,654.7" fill="#8a5a9e" fill-opacity="0.72"/>
<line x1="156.5" y1="645.5" x2="123.6" y2="623.9" stroke="#8a5a9e" stroke-width="1.9" stroke-opacity="0.72" stroke-linecap="round"/><polygon points="116.1,619.0 126.1,620.1 121.1,627.7" fill="#8a5a9e" fill-opacity="0.72"/>
<line x1="116.1" y1="619.0" x2="128.4" y2="709.3" stroke="#8a5a9e" stroke-width="1.9" stroke-opacity="0.72" stroke-linecap="round"/><polygon points="129.6,718.2 123.9,709.9 132.8,708.7" fill="#8a5a9e" fill-opacity="0.72"/>
<rect x="191.7" y="674.9" width="7.2" height="7.2" fill="#8a5a9e"/>
<rect x="152.9" y="641.9" width="7.2" height="7.2" fill="#8a5a9e"/>
<rect x="112.5" y="615.4" width="7.2" height="7.2" fill="#8a5a9e"/>
<rect x="126.0" y="714.6" width="7.2" height="7.2" fill="#8a5a9e"/>
<line x1="191.8" y1="638.8" x2="196.5" y2="555.3" stroke="#1f9e9e" stroke-width="1.9" stroke-opacity="0.72" stroke-linecap="round"/><polygon points="197.0,546.3 201.0,555.5 192.0,555.0" fill="#1f9e9e" fill-opacity="0.72"/>
<line x1="197.0" y1="546.3" x2="215.2" y2="550.7" stroke="#1f9e9e" stroke-width="1.9" stroke-opacity="0.72" stroke-linecap="round"/><polygon points="224.0,552.8 214.2,555.1 216.3,546.3" fill="#1f9e9e" fill-opacity="0.72"/>
<line x1="224.0" y1="552.8" x2="271.9" y2="605.7" stroke="#1f9e9e" stroke-width="1.9" stroke-opacity="0.72" stroke-linecap="round"/><polygon points="278.0,612.4 268.6,608.7 275.2,602.7" fill="#1f9e9e" fill-opacity="0.72"/>
<rect x="188.2" y="635.2" width="7.2" height="7.2" fill="#1f9e9e"/>
<rect x="193.4" y="542.7" width="7.2" height="7.2" fill="#1f9e9e"/>
<rect x="220.4" y="549.2" width="7.2" height="7.2" fill="#1f9e9e"/>
<rect x="274.4" y="608.8" width="7.2" height="7.2" fill="#1f9e9e"/>
<line x1="203.1" y1="678.5" x2="162.9" y2="638.6" stroke="#2867b5" stroke-width="1.9" stroke-opacity="0.72" stroke-linecap="round"/><polygon points="156.5,632.2 166.1,635.4 159.7,641.7" fill="#2867b5" fill-opacity="0.72"/>
<line x1="156.5" y1="632.2" x2="157.7" y2="614.8" stroke="#2867b5" stroke-width="1.9" stroke-opacity="0.72" stroke-linecap="round"/><polygon points="158.3,605.8 162.2,615.1 153.2,614.5" fill="#2867b5" fill-opacity="0.72"/>
<line x1="158.3" y1="605.8" x2="157.1" y2="588.3" stroke="#2867b5" stroke-width="1.9" stroke-opacity="0.72" stroke-linecap="round"/><polygon points="156.5,579.3 161.6,588.0 152.6,588.6" fill="#2867b5" fill-opacity="0.72"/>
<rect x="199.5" y="674.9" width="7.2" height="7.2" fill="#2867b5"/>
<rect x="152.9" y="628.6" width="7.2" height="7.2" fill="#2867b5"/>
<rect x="154.7" y="602.2" width="7.2" height="7.2" fill="#2867b5"/>
<rect x="152.9" y="575.7" width="7.2" height="7.2" fill="#2867b5"/>
<line x1="193.6" y1="645.5" x2="180.0" y2="637.0" stroke="#b5342c" stroke-width="1.9" stroke-opacity="0.72" stroke-linecap="round"/><polygon points="172.4,632.2 182.4,633.1 177.6,640.8" fill="#b5342c" fill-opacity="0.72"/>
<line x1="172.4" y1="632.2" x2="171.7" y2="630.3" stroke="#b5342c" stroke-width="1.9" stroke-opacity="0.72" stroke-linecap="round"/><polygon points="170.0,625.6 174.1,629.5 169.3,631.1" fill="#b5342c" fill-opacity="0.72"/>
<line x1="170.0" y1="625.6" x2="137.1" y2="604.1" stroke="#b5342c" stroke-width="1.9" stroke-opacity="0.72" stroke-linecap="round"/><polygon points="129.6,599.2 139.6,600.3 134.6,607.9" fill="#b5342c" fill-opacity="0.72"/>
<rect x="190.0" y="641.9" width="7.2" height="7.2" fill="#b5342c"/>
<rect x="168.8" y="628.6" width="7.2" height="7.2" fill="#b5342c"/>
<rect x="166.4" y="622.0" width="7.2" height="7.2" fill="#b5342c"/>
<rect x="126.0" y="595.6" width="7.2" height="7.2" fill="#b5342c"/>
<line x1="184.2" y1="579.3" x2="191.7" y2="623.3" stroke="#3a7d44" stroke-width="1.9" stroke-opacity="0.72" stroke-linecap="round"/><polygon points="193.2,632.2 187.2,624.1 196.1,622.6" fill="#3a7d44" fill-opacity="0.72"/>
<line x1="193.2" y1="632.2" x2="221.6" y2="528.5" stroke="#3a7d44" stroke-width="1.9" stroke-opacity="0.72" stroke-linecap="round"/><polygon points="224.0,519.8 225.9,529.7 217.3,527.3" fill="#3a7d44" fill-opacity="0.72"/>
<line x1="224.0" y1="519.8" x2="283.4" y2="548.9" stroke="#3a7d44" stroke-width="1.9" stroke-opacity="0.72" stroke-linecap="round"/><polygon points="291.5,552.8 281.4,552.9 285.4,544.8" fill="#3a7d44" fill-opacity="0.72"/>
<rect x="180.6" y="575.7" width="7.2" height="7.2" fill="#3a7d44"/>
<rect x="189.6" y="628.6" width="7.2" height="7.2" fill="#3a7d44"/>
<rect x="220.4" y="516.2" width="7.2" height="7.2" fill="#3a7d44"/>
<rect x="287.9" y="549.2" width="7.2" height="7.2" fill="#3a7d44"/>
<text x="78.0" y="778.0" text-anchor="start" font-family="Helvetica, Arial, sans-serif" font-size="12.5" font-weight="normal" fill="#6b7684">x 0.00–0.67    y -0.17–0.25</text>
<rect x="390" y="460" width="300" height="300" rx="9" fill="white" stroke="#d0d7de" stroke-width="1.3"/>
<text x="404.0" y="485.0" text-anchor="start" font-family="Helvetica, Arial, sans-serif" font-size="20" font-weight="bold" fill="#1a1a1a">random</text>
<text x="680.0" y="485.0" text-anchor="end" font-family="Helvetica, Arial, sans-serif" font-size="13.5" font-weight="normal" fill="#6b7684">4 runs · Qwen</text>
<line x1="400" y1="636.5" x2="680" y2="636.5" stroke="#eceef1" stroke-width="1.2"/>
<line x1="565.2" y1="718.2" x2="509.0" y2="632.4" stroke="#2867b5" stroke-width="1.9" stroke-opacity="0.72" stroke-linecap="round"/><polygon points="504.0,624.8 512.7,629.9 505.2,634.8" fill="#2867b5" fill-opacity="0.72"/>
<line x1="504.0" y1="624.8" x2="610.6" y2="657.3" stroke="#2867b5" stroke-width="1.9" stroke-opacity="0.72" stroke-linecap="round"/><polygon points="619.2,659.9 609.2,661.6 611.9,653.0" fill="#2867b5" fill-opacity="0.72"/>
<line x1="619.2" y1="659.9" x2="565.6" y2="551.2" stroke="#2867b5" stroke-width="1.9" stroke-opacity="0.72" stroke-linecap="round"/><polygon points="561.6,543.2 569.6,549.2 561.5,553.2" fill="#2867b5" fill-opacity="0.72"/>
<circle cx="565.2" cy="718.2" r="3.6" fill="#2867b5"/>
<circle cx="504.0" cy="624.8" r="3.6" fill="#2867b5"/>
<circle cx="619.2" cy="659.9" r="3.6" fill="#2867b5"/>
<circle cx="561.6" cy="543.2" r="3.6" fill="#2867b5"/>
<line x1="579.6" y1="624.8" x2="577.5" y2="618.1" stroke="#b5342c" stroke-width="1.9" stroke-opacity="0.72" stroke-linecap="round"/><polygon points="576.0,613.2 580.0,617.3 575.0,618.8" fill="#b5342c" fill-opacity="0.72"/>
<line x1="576.0" y1="613.2" x2="440.8" y2="646.1" stroke="#b5342c" stroke-width="1.9" stroke-opacity="0.72" stroke-linecap="round"/><polygon points="432.1,648.2 439.7,641.7 441.9,650.4" fill="#b5342c" fill-opacity="0.72"/>
<line x1="432.1" y1="648.2" x2="469.1" y2="688.2" stroke="#b5342c" stroke-width="1.9" stroke-opacity="0.72" stroke-linecap="round"/><polygon points="475.2,694.8 465.8,691.3 472.4,685.2" fill="#b5342c" fill-opacity="0.72"/>
<circle cx="579.6" cy="624.8" r="3.6" fill="#b5342c"/>
<circle cx="576.0" cy="613.2" r="3.6" fill="#b5342c"/>
<circle cx="432.1" cy="648.2" r="3.6" fill="#b5342c"/>
<circle cx="475.2" cy="694.8" r="3.6" fill="#b5342c"/>
<line x1="568.8" y1="554.8" x2="549.2" y2="639.4" stroke="#3a7d44" stroke-width="1.9" stroke-opacity="0.72" stroke-linecap="round"/><polygon points="547.2,648.2 544.9,638.4 553.6,640.4" fill="#3a7d44" fill-opacity="0.72"/>
<line x1="547.2" y1="648.2" x2="642.4" y2="526.9" stroke="#3a7d44" stroke-width="1.9" stroke-opacity="0.72" stroke-linecap="round"/><polygon points="647.9,519.8 645.9,529.7 638.8,524.1" fill="#3a7d44" fill-opacity="0.72"/>
<line x1="647.9" y1="519.8" x2="634.4" y2="662.6" stroke="#3a7d44" stroke-width="1.9" stroke-opacity="0.72" stroke-linecap="round"/><polygon points="633.6,671.6 629.9,662.2 638.9,663.0" fill="#3a7d44" fill-opacity="0.72"/>
<circle cx="568.8" cy="554.8" r="3.6" fill="#3a7d44"/>
<circle cx="547.2" cy="648.2" r="3.6" fill="#3a7d44"/>
<circle cx="647.9" cy="519.8" r="3.6" fill="#3a7d44"/>
<circle cx="633.6" cy="671.6" r="3.6" fill="#3a7d44"/>
<line x1="561.6" y1="578.2" x2="615.7" y2="709.9" stroke="#c07d18" stroke-width="1.9" stroke-opacity="0.72" stroke-linecap="round"/><polygon points="619.2,718.2 611.6,711.6 619.9,708.2" fill="#c07d18" fill-opacity="0.72"/>
<line x1="619.2" y1="718.2" x2="596.1" y2="690.2" stroke="#c07d18" stroke-width="1.9" stroke-opacity="0.72" stroke-linecap="round"/><polygon points="590.4,683.2 599.6,687.3 592.6,693.1" fill="#c07d18" fill-opacity="0.72"/>
<line x1="590.4" y1="683.2" x2="565.6" y2="632.9" stroke="#c07d18" stroke-width="1.9" stroke-opacity="0.72" stroke-linecap="round"/><polygon points="561.6,624.8 569.6,630.9 561.5,634.9" fill="#c07d18" fill-opacity="0.72"/>
<circle cx="561.6" cy="578.2" r="3.6" fill="#c07d18"/>
<circle cx="619.2" cy="718.2" r="3.6" fill="#c07d18"/>
<circle cx="590.4" cy="683.2" r="3.6" fill="#c07d18"/>
<circle cx="561.6" cy="624.8" r="3.6" fill="#c07d18"/>
<text x="394.0" y="778.0" text-anchor="start" font-family="Helvetica, Arial, sans-serif" font-size="12.5" font-weight="normal" fill="#6b7684">x 0.21–0.83    y -0.10–0.14</text>
<rect x="706" y="460" width="300" height="300" rx="9" fill="white" stroke="#d0d7de" stroke-width="1.3"/>
<text x="720.0" y="485.0" text-anchor="start" font-family="Helvetica, Arial, sans-serif" font-size="20" font-weight="bold" fill="#1a1a1a">score oracle</text>
<text x="996.0" y="485.0" text-anchor="end" font-family="Helvetica, Arial, sans-serif" font-size="13.5" font-weight="normal" fill="#6b7684">2 runs · OLMo</text>
<line x1="716" y1="519.8" x2="996" y2="519.8" stroke="#eceef1" stroke-width="1.2"/>
<line x1="938.5" y1="591.9" x2="867.0" y2="710.5" stroke="#d1477a" stroke-width="1.9" stroke-opacity="0.72" stroke-linecap="round"/><polygon points="862.4,718.2 863.2,708.2 870.9,712.8" fill="#d1477a" fill-opacity="0.72"/>
<line x1="862.4" y1="718.2" x2="805.7" y2="669.9" stroke="#d1477a" stroke-width="1.9" stroke-opacity="0.72" stroke-linecap="round"/><polygon points="798.8,664.1 808.6,666.5 802.8,673.3" fill="#d1477a" fill-opacity="0.72"/>
<line x1="798.8" y1="664.1" x2="752.2" y2="572.9" stroke="#d1477a" stroke-width="1.9" stroke-opacity="0.72" stroke-linecap="round"/><polygon points="748.1,564.9 756.2,570.8 748.2,574.9" fill="#d1477a" fill-opacity="0.72"/>
<rect x="934.9" y="588.3" width="7.2" height="7.2" fill="#d1477a"/>
<rect x="858.8" y="714.6" width="7.2" height="7.2" fill="#d1477a"/>
<rect x="795.2" y="660.5" width="7.2" height="7.2" fill="#d1477a"/>
<rect x="744.5" y="561.3" width="7.2" height="7.2" fill="#d1477a"/>



<rect x="960.3" y="516.2" width="7.2" height="7.2" fill="#5b6bbf"/>
<rect x="960.3" y="516.2" width="7.2" height="7.2" fill="#5b6bbf"/>
<rect x="960.3" y="516.2" width="7.2" height="7.2" fill="#5b6bbf"/>
<rect x="960.3" y="516.2" width="7.2" height="7.2" fill="#5b6bbf"/>
<text x="710.0" y="778.0" text-anchor="start" font-family="Helvetica, Arial, sans-serif" font-size="12.5" font-weight="normal" fill="#6b7684">x 0.29–1.00    y -0.31–0.00</text>
<text x="540.0" y="810.0" text-anchor="middle" font-family="Helvetica, Arial, sans-serif" font-size="18" font-weight="bold" fill="#1a1a1a">x:  value  (free-gen risk)</text>
<text x="28" y="444.0" text-anchor="middle" font-family="Helvetica, Arial, sans-serif" font-size="18" font-weight="bold" fill="#1a1a1a" transform="rotate(-90 28 444.0)">y:  selection gap  (kept − pool)</text>
<text x="232.0" y="845.0" text-anchor="start" font-family="Helvetica, Arial, sans-serif" font-size="15" font-weight="bold" fill="#1a1a1a">seed</text>
<rect x="278.0" y="831.0" width="13" height="13" rx="2" fill="#2867b5"/>
<text x="297.0" y="845.0" text-anchor="start" font-family="Helvetica, Arial, sans-serif" font-size="14" font-weight="normal" fill="#1a1a1a">0</text>
<rect x="330.0" y="831.0" width="13" height="13" rx="2" fill="#b5342c"/>
<text x="349.0" y="845.0" text-anchor="start" font-family="Helvetica, Arial, sans-serif" font-size="14" font-weight="normal" fill="#1a1a1a">1</text>
<rect x="382.0" y="831.0" width="13" height="13" rx="2" fill="#3a7d44"/>
<text x="401.0" y="845.0" text-anchor="start" font-family="Helvetica, Arial, sans-serif" font-size="14" font-weight="normal" fill="#1a1a1a">2</text>
<rect x="434.0" y="831.0" width="13" height="13" rx="2" fill="#c07d18"/>
<text x="453.0" y="845.0" text-anchor="start" font-family="Helvetica, Arial, sans-serif" font-size="14" font-weight="normal" fill="#1a1a1a">3</text>
<rect x="486.0" y="831.0" width="13" height="13" rx="2" fill="#8a5a9e"/>
<text x="505.0" y="845.0" text-anchor="start" font-family="Helvetica, Arial, sans-serif" font-size="14" font-weight="normal" fill="#1a1a1a">4</text>
<rect x="538.0" y="831.0" width="13" height="13" rx="2" fill="#1f9e9e"/>
<text x="557.0" y="845.0" text-anchor="start" font-family="Helvetica, Arial, sans-serif" font-size="14" font-weight="normal" fill="#1a1a1a">5</text>
<rect x="590.0" y="831.0" width="13" height="13" rx="2" fill="#d1477a"/>
<text x="609.0" y="845.0" text-anchor="start" font-family="Helvetica, Arial, sans-serif" font-size="14" font-weight="normal" fill="#1a1a1a">21</text>
<rect x="642.0" y="831.0" width="13" height="13" rx="2" fill="#5b6bbf"/>
<text x="661.0" y="845.0" text-anchor="start" font-family="Helvetica, Arial, sans-serif" font-size="14" font-weight="normal" fill="#1a1a1a">22</text>
<circle cx="722.0" cy="840.0" r="5.5" fill="#6b7684"/>
<text x="733.0" y="845.0" text-anchor="start" font-family="Helvetica, Arial, sans-serif" font-size="14" font-weight="normal" fill="#6b7684">Qwen</text>
<rect x="790.0" y="834.5" width="11" height="11" fill="#6b7684"/>
<text x="808.0" y="845.0" text-anchor="start" font-family="Helvetica, Arial, sans-serif" font-size="14" font-weight="normal" fill="#6b7684">OLMo</text>
</svg>