<svg xmlns="http://www.w3.org/2000/svg" viewBox="0 0 1068 862" font-family="Helvetica, Arial, sans-serif">
<rect width="1068" height="862" fill="white"/>
<text x="553.0" y="46.0" text-anchor="middle" font-family="Helvetica, Arial, sans-serif" font-size="29" font-weight="bold" fill="#1a1a1a">Selection gap vs the value move it produces, by judge</text>
<text x="553.0" y="78.0" text-anchor="middle" font-family="Helvetica, Arial, sans-serif" font-size="17" font-weight="normal" fill="#6b7684">Own-pool loops. The kept-minus-pool gap this round against the value change the same round.</text>
<text x="553.0" y="100.0" text-anchor="middle" font-family="Helvetica, Arial, sans-serif" font-size="15" font-weight="normal" fill="#6b7684">each path = one run; dot per training round, arrow to the next round · same axes in every panel</text>
<rect x="78" y="128" width="306" height="306" rx="9" fill="white" stroke="#d0d7de" stroke-width="1.3"/>
<line x1="218.8" y1="138" x2="218.8" y2="420" stroke="#eceef1" stroke-width="1.2"/>
<line x1="88" y1="286.6" x2="374" y2="286.6" stroke="#eceef1" stroke-width="1.2"/>
<line x1="213.9" y1="300.7" x2="211.5" y2="304.8" stroke="#2867b5" stroke-width="1.9" stroke-opacity="0.72" stroke-linecap="round"/><polygon points="209.0,309.1 209.3,303.5 213.7,306.0" fill="#2867b5" fill-opacity="0.72"/>
<line x1="209.0" y1="309.1" x2="161.4" y2="358.9" stroke="#2867b5" stroke-width="1.9" stroke-opacity="0.72" stroke-linecap="round"/><polygon points="155.2,365.4 158.2,355.7 164.7,362.0" fill="#2867b5" fill-opacity="0.72"/>
<line x1="155.2" y1="365.4" x2="223.4" y2="268.6" stroke="#2867b5" stroke-width="1.9" stroke-opacity="0.72" stroke-linecap="round"/><polygon points="228.6,261.3 227.1,271.2 219.7,266.1" fill="#2867b5" fill-opacity="0.72"/>
<circle cx="213.9" cy="300.7" r="3.6" fill="#2867b5"/>
<circle cx="209.0" cy="309.1" r="3.6" fill="#2867b5"/>
<circle cx="155.2" cy="365.4" r="3.6" fill="#2867b5"/>
<circle cx="228.6" cy="261.3" r="3.6" fill="#2867b5"/>
<line x1="194.3" y1="311.9" x2="235.6" y2="338.0" stroke="#b5342c" stroke-width="1.9" stroke-opacity="0.72" stroke-linecap="round"/><polygon points="243.2,342.8 233.2,341.8 238.0,334.2" fill="#b5342c" fill-opacity="0.72"/>
<line x1="243.2" y1="342.8" x2="229.5" y2="216.8" stroke="#b5342c" stroke-width="1.9" stroke-opacity="0.72" stroke-linecap="round"/><polygon points="228.6,207.9 234.0,216.3 225.1,217.3" fill="#b5342c" fill-opacity="0.72"/>
<line x1="228.6" y1="207.9" x2="212.0" y2="255.6" stroke="#b5342c" stroke-width="1.9" stroke-opacity="0.72" stroke-linecap="round"/><polygon points="209.0,264.1 207.7,254.1 216.2,257.1" fill="#b5342c" fill-opacity="0.72"/>
<circle cx="194.3" cy="311.9" r="3.6" fill="#b5342c"/>
<circle cx="243.2" cy="342.8" r="3.6" fill="#b5342c"/>
<circle cx="228.6" cy="207.9" r="3.6" fill="#b5342c"/>
<circle cx="209.0" cy="264.1" r="3.6" fill="#b5342c"/>
<line x1="253.0" y1="281.0" x2="218.1" y2="215.8" stroke="#3a7d44" stroke-width="1.9" stroke-opacity="0.72" stroke-linecap="round"/><polygon points="213.9,207.9 222.1,213.7 214.2,217.9" fill="#3a7d44" fill-opacity="0.72"/>
<line x1="213.9" y1="207.9" x2="209.3" y2="345.1" stroke="#3a7d44" stroke-width="1.9" stroke-opacity="0.72" stroke-linecap="round"/><polygon points="209.0,354.1 204.8,345.0 213.8,345.3" fill="#3a7d44" fill-opacity="0.72"/>
<line x1="209.0" y1="354.1" x2="204.5" y2="239.4" stroke="#3a7d44" stroke-width="1.9" stroke-opacity="0.72" stroke-linecap="round"/><polygon points="204.1,230.4 209.0,239.2 200.0,239.6" fill="#3a7d44" fill-opacity="0.72"/>
<circle cx="253.0" cy="281.0" r="3.6" fill="#3a7d44"/>
<circle cx="213.9" cy="207.9" r="3.6" fill="#3a7d44"/>
<circle cx="209.0" cy="354.1" r="3.6" fill="#3a7d44"/>
<circle cx="204.1" cy="230.4" r="3.6" fill="#3a7d44"/>
<line x1="213.9" y1="286.6" x2="222.4" y2="293.1" stroke="#c07d18" stroke-width="1.9" stroke-opacity="0.72" stroke-linecap="round"/><polygon points="228.6,297.9 220.0,296.2 224.8,290.1" fill="#c07d18" fill-opacity="0.72"/>
<line x1="228.6" y1="297.9" x2="216.8" y2="291.1" stroke="#c07d18" stroke-width="1.9" stroke-opacity="0.72" stroke-linecap="round"/><polygon points="209.0,286.6 219.0,287.2 214.6,295.0" fill="#c07d18" fill-opacity="0.72"/>
<line x1="209.0" y1="286.6" x2="344.0" y2="168.8" stroke="#c07d18" stroke-width="1.9" stroke-opacity="0.72" stroke-linecap="round"/><polygon points="350.8,162.9 347.0,172.2 341.1,165.4" fill="#c07d18" fill-opacity="0.72"/>
<circle cx="213.9" cy="286.6" r="3.6" fill="#c07d18"/>
<circle cx="228.6" cy="297.9" r="3.6" fill="#c07d18"/>
<circle cx="209.0" cy="286.6" r="3.6" fill="#c07d18"/>
<circle cx="350.8" cy="162.9" r="3.6" fill="#c07d18"/>
<text x="92.0" y="153.0" text-anchor="start" font-family="Helvetica, Arial, sans-serif" font-size="20" font-weight="bold" fill="#1a1a1a">self</text>
<text x="374.0" y="153.0" text-anchor="end" font-family="Helvetica, Arial, sans-serif" font-size="13.5" font-weight="normal" fill="#6b7684">4 runs · Qwen</text>
<rect x="400" y="128" width="306" height="306" rx="9" fill="white" stroke="#d0d7de" stroke-width="1.3"/>
<line x1="540.8" y1="138" x2="540.8" y2="420" stroke="#eceef1" stroke-width="1.2"/>
<line x1="410" y1="286.6" x2="696" y2="286.6" stroke="#eceef1" stroke-width="1.2"/>
<line x1="535.9" y1="289.4" x2="532.4" y2="311.5" stroke="#2867b5" stroke-width="1.9" stroke-opacity="0.72" stroke-linecap="round"/><polygon points="531.0,320.4 528.0,310.8 536.8,312.2" fill="#2867b5" fill-opacity="0.72"/>
<line x1="531.0" y1="320.4" x2="531.0" y2="239.4" stroke="#2867b5" stroke-width="1.9" stroke-opacity="0.72" stroke-linecap="round"/><polygon points="531.0,230.4 535.5,239.4 526.5,239.4" fill="#2867b5" fill-opacity="0.72"/>
<line x1="531.0" y1="230.4" x2="526.5" y2="339.5" stroke="#2867b5" stroke-width="1.9" stroke-opacity="0.72" stroke-linecap="round"/><polygon points="526.1,348.5 522.0,339.3 531.0,339.7" fill="#2867b5" fill-opacity="0.72"/>
<circle cx="535.9" cy="289.4" r="3.6" fill="#2867b5"/>
<circle cx="531.0" cy="320.4" r="3.6" fill="#2867b5"/>
<circle cx="531.0" cy="230.4" r="3.6" fill="#2867b5"/>
<circle cx="526.1" cy="348.5" r="3.6" fill="#2867b5"/>
<line x1="516.3" y1="300.7" x2="536.3" y2="335.1" stroke="#b5342c" stroke-width="1.9" stroke-opacity="0.72" stroke-linecap="round"/><polygon points="540.8,342.8 532.4,337.3 540.2,332.8" fill="#b5342c" fill-opacity="0.72"/>
<line x1="540.8" y1="342.8" x2="549.6" y2="261.8" stroke="#b5342c" stroke-width="1.9" stroke-opacity="0.72" stroke-linecap="round"/><polygon points="550.6,252.9 554.1,262.3 545.1,261.3" fill="#b5342c" fill-opacity="0.72"/>
<line x1="550.6" y1="252.9" x2="533.9" y2="243.3" stroke="#b5342c" stroke-width="1.9" stroke-opacity="0.72" stroke-linecap="round"/><polygon points="526.1,238.8 536.1,239.4 531.7,247.2" fill="#b5342c" fill-opacity="0.72"/>
<circle cx="516.3" cy="300.7" r="3.6" fill="#b5342c"/>
<circle cx="540.8" cy="342.8" r="3.6" fill="#b5342c"/>
<circle cx="550.6" cy="252.9" r="3.6" fill="#b5342c"/>
<circle cx="526.1" cy="238.8" r="3.6" fill="#b5342c"/>
<line x1="575.0" y1="292.2" x2="530.2" y2="287.5" stroke="#3a7d44" stroke-width="1.9" stroke-opacity="0.72" stroke-linecap="round"/><polygon points="521.2,286.6 530.6,283.1 529.7,292.0" fill="#3a7d44" fill-opacity="0.72"/>
<line x1="521.2" y1="286.6" x2="532.3" y2="261.1" stroke="#3a7d44" stroke-width="1.9" stroke-opacity="0.72" stroke-linecap="round"/><polygon points="535.9,252.9 536.4,262.9 528.2,259.3" fill="#3a7d44" fill-opacity="0.72"/>
<line x1="535.9" y1="252.9" x2="520.6" y2="281.5" stroke="#3a7d44" stroke-width="1.9" stroke-opacity="0.72" stroke-linecap="round"/><polygon points="516.3,289.4 516.6,279.4 524.6,283.6" fill="#3a7d44" fill-opacity="0.72"/>
<circle cx="575.0" cy="292.2" r="3.6" fill="#3a7d44"/>
<circle cx="521.2" cy="286.6" r="3.6" fill="#3a7d44"/>
<circle cx="535.9" cy="252.9" r="3.6" fill="#3a7d44"/>
<circle cx="516.3" cy="289.4" r="3.6" fill="#3a7d44"/>
<line x1="535.9" y1="320.4" x2="540.1" y2="261.8" stroke="#c07d18" stroke-width="1.9" stroke-opacity="0.72" stroke-linecap="round"/><polygon points="540.8,252.9 544.6,262.2 535.6,261.5" fill="#c07d18" fill-opacity="0.72"/>
<line x1="540.8" y1="252.9" x2="540.8" y2="300.1" stroke="#c07d18" stroke-width="1.9" stroke-opacity="0.72" stroke-linecap="round"/><polygon points="540.8,309.1 536.3,300.1 545.3,300.1" fill="#c07d18" fill-opacity="0.72"/>
<line x1="540.8" y1="309.1" x2="563.3" y2="289.7" stroke="#c07d18" stroke-width="1.9" stroke-opacity="0.72" stroke-linecap="round"/><polygon points="570.1,283.8 566.2,293.1 560.4,286.3" fill="#c07d18" fill-opacity="0.72"/>
<circle cx="535.9" cy="320.4" r="3.6" fill="#c07d18"/>
<circle cx="540.8" cy="252.9" r="3.6" fill="#c07d18"/>
<circle cx="540.8" cy="309.1" r="3.6" fill="#c07d18"/>
<circle cx="570.1" cy="283.8" r="3.6" fill="#c07d18"/>
<text x="414.0" y="153.0" text-anchor="start" font-family="Helvetica, Arial, sans-serif" font-size="20" font-weight="bold" fill="#1a1a1a">risk copy</text>
<text x="696.0" y="153.0" text-anchor="end" font-family="Helvetica, Arial, sans-serif" font-size="13.5" font-weight="normal" fill="#6b7684">4 runs · Qwen</text>
<rect x="722" y="128" width="306" height="306" rx="9" fill="white" stroke="#d0d7de" stroke-width="1.3"/>
<line x1="862.8" y1="138" x2="862.8" y2="420" stroke="#eceef1" stroke-width="1.2"/>
<line x1="732" y1="286.6" x2="1018" y2="286.6" stroke="#eceef1" stroke-width="1.2"/>
<line x1="828.6" y1="325.3" x2="861.1" y2="295.0" stroke="#c07d18" stroke-width="1.9" stroke-opacity="0.72" stroke-linecap="round"/><polygon points="867.7,288.9 864.2,298.3 858.0,291.7" fill="#c07d18" fill-opacity="0.72"/>
<line x1="867.7" y1="288.9" x2="853.8" y2="272.0" stroke="#c07d18" stroke-width="1.9" stroke-opacity="0.72" stroke-linecap="round"/><polygon points="848.1,265.1 857.3,269.2 850.3,274.9" fill="#c07d18" fill-opacity="0.72"/>
<line x1="848.1" y1="265.1" x2="878.8" y2="276.7" stroke="#c07d18" stroke-width="1.9" stroke-opacity="0.72" stroke-linecap="round"/><polygon points="887.2,279.9 877.2,280.9 880.4,272.5" fill="#c07d18" fill-opacity="0.72"/>
<rect x="825.0" y="321.7" width="7.2" height="7.2" fill="#c07d18"/>
<rect x="864.1" y="285.3" width="7.2" height="7.2" fill="#c07d18"/>
<rect x="844.5" y="261.5" width="7.2" height="7.2" fill="#c07d18"/>
<rect x="883.6" y="276.3" width="7.2" height="7.2" fill="#c07d18"/>
<line x1="833.4" y1="330.2" x2="840.6" y2="306.5" stroke="#8a5a9e" stroke-width="1.9" stroke-opacity="0.72" stroke-linecap="round"/><polygon points="843.2,297.9 844.9,307.8 836.3,305.2" fill="#8a5a9e" fill-opacity="0.72"/>
<line x1="843.2" y1="297.9" x2="855.0" y2="291.1" stroke="#8a5a9e" stroke-width="1.9" stroke-opacity="0.72" stroke-linecap="round"/><polygon points="862.8,286.6 857.2,295.0 852.7,287.2" fill="#8a5a9e" fill-opacity="0.72"/>
<line x1="862.8" y1="286.6" x2="868.5" y2="278.3" stroke="#8a5a9e" stroke-width="1.9" stroke-opacity="0.72" stroke-linecap="round"/><polygon points="872.6,272.3 871.5,280.4 865.4,276.2" fill="#8a5a9e" fill-opacity="0.72"/>
<rect x="829.8" y="326.6" width="7.2" height="7.2" fill="#8a5a9e"/>
<rect x="839.6" y="294.3" width="7.2" height="7.2" fill="#8a5a9e"/>
<rect x="859.2" y="283.0" width="7.2" height="7.2" fill="#8a5a9e"/>
<rect x="869.0" y="268.7" width="7.2" height="7.2" fill="#8a5a9e"/>
<line x1="828.6" y1="339.6" x2="840.2" y2="306.8" stroke="#b5342c" stroke-width="1.9" stroke-opacity="0.72" stroke-linecap="round"/><polygon points="843.2,298.4 844.4,308.3 835.9,305.3" fill="#b5342c" fill-opacity="0.72"/>
<line x1="843.2" y1="298.4" x2="848.9" y2="291.5" stroke="#b5342c" stroke-width="1.9" stroke-opacity="0.72" stroke-linecap="round"/><polygon points="853.0,286.6 851.3,293.6 846.4,289.5" fill="#b5342c" fill-opacity="0.72"/>
<line x1="853.0" y1="286.6" x2="857.8" y2="286.6" stroke="#b5342c" stroke-width="1.9" stroke-opacity="0.72" stroke-linecap="round"/><polygon points="862.8,286.6 857.8,289.1 857.8,284.1" fill="#b5342c" fill-opacity="0.72"/>
<rect x="825.0" y="336.0" width="7.2" height="7.2" fill="#b5342c"/>
<rect x="839.6" y="294.8" width="7.2" height="7.2" fill="#b5342c"/>
<rect x="849.4" y="283.0" width="7.2" height="7.2" fill="#b5342c"/>
<rect x="859.2" y="283.0" width="7.2" height="7.2" fill="#b5342c"/>
<line x1="862.8" y1="233.0" x2="827.0" y2="321.2" stroke="#3a7d44" stroke-width="1.9" stroke-opacity="0.72" stroke-linecap="round"/><polygon points="823.7,329.6 822.9,319.5 831.2,322.9" fill="#3a7d44" fill-opacity="0.72"/>
<line x1="823.7" y1="329.6" x2="823.7" y2="325.4" stroke="#3a7d44" stroke-width="1.9" stroke-opacity="0.72" stroke-linecap="round"/><polygon points="823.7,320.4 826.2,325.4 821.2,325.4" fill="#3a7d44" fill-opacity="0.72"/>
<line x1="823.7" y1="320.4" x2="827.5" y2="288.7" stroke="#3a7d44" stroke-width="1.9" stroke-opacity="0.72" stroke-linecap="round"/><polygon points="828.6,279.7 831.9,289.2 823.0,288.1" fill="#3a7d44" fill-opacity="0.72"/>
<rect x="859.2" y="229.4" width="7.2" height="7.2" fill="#3a7d44"/>
<rect x="820.1" y="326.0" width="7.2" height="7.2" fill="#3a7d44"/>
<rect x="820.1" y="316.8" width="7.2" height="7.2" fill="#3a7d44"/>
<rect x="825.0" y="276.1" width="7.2" height="7.2" fill="#3a7d44"/>
<text x="736.0" y="153.0" text-anchor="start" font-family="Helvetica, Arial, sans-serif" font-size="20" font-weight="bold" fill="#1a1a1a">cautious copy</text>
<text x="1018.0" y="153.0" text-anchor="end" font-family="Helvetica, Arial, sans-serif" font-size="13.5" font-weight="normal" fill="#6b7684">4 runs · OLMo</text>
<rect x="78" y="450" width="306" height="306" rx="9" fill="white" stroke="#d0d7de" stroke-width="1.3"/>
<line x1="218.8" y1="460" x2="218.8" y2="742" stroke="#eceef1" stroke-width="1.2"/>
<line x1="88" y1="608.6" x2="374" y2="608.6" stroke="#eceef1" stroke-width="1.2"/>
<line x1="169.9" y1="611.4" x2="209.8" y2="609.1" stroke="#2867b5" stroke-width="1.9" stroke-opacity="0.72" stroke-linecap="round"/><polygon points="218.8,608.6 210.1,613.6 209.5,604.6" fill="#2867b5" fill-opacity="0.72"/>
<line x1="218.8" y1="608.6" x2="218.8" y2="595.1" stroke="#2867b5" stroke-width="1.9" stroke-opacity="0.72" stroke-linecap="round"/><polygon points="218.8,586.1 223.3,595.1 214.3,595.1" fill="#2867b5" fill-opacity="0.72"/>
<line x1="218.8" y1="586.1" x2="207.2" y2="617.1" stroke="#2867b5" stroke-width="1.9" stroke-opacity="0.72" stroke-linecap="round"/><polygon points="204.1,625.5 203.0,615.5 211.5,618.6" fill="#2867b5" fill-opacity="0.72"/>
<circle cx="169.9" cy="611.4" r="3.6" fill="#2867b5"/>
<circle cx="218.8" cy="608.6" r="3.6" fill="#2867b5"/>
<circle cx="218.8" cy="586.1" r="3.6" fill="#2867b5"/>
<circle cx="204.1" cy="625.5" r="3.6" fill="#2867b5"/>
<line x1="194.3" y1="633.9" x2="194.3" y2="637.4" stroke="#b5342c" stroke-width="1.9" stroke-opacity="0.72" stroke-linecap="round"/><polygon points="194.3,642.4 191.8,637.4 196.8,637.4" fill="#b5342c" fill-opacity="0.72"/>
<line x1="194.3" y1="642.4" x2="217.8" y2="615.4" stroke="#b5342c" stroke-width="1.9" stroke-opacity="0.72" stroke-linecap="round"/><polygon points="223.7,608.6 221.2,618.4 214.4,612.5" fill="#b5342c" fill-opacity="0.72"/>
<line x1="223.7" y1="608.6" x2="223.7" y2="600.5" stroke="#b5342c" stroke-width="1.9" stroke-opacity="0.72" stroke-linecap="round"/><polygon points="223.7,594.6 226.6,600.5 220.7,600.5" fill="#b5342c" fill-opacity="0.72"/>
<circle cx="194.3" cy="633.9" r="3.6" fill="#b5342c"/>
<circle cx="194.3" cy="642.4" r="3.6" fill="#b5342c"/>
<circle cx="223.7" cy="608.6" r="3.6" fill="#b5342c"/>
<circle cx="223.7" cy="594.6" r="3.6" fill="#b5342c"/>
<line x1="223.7" y1="648.0" x2="188.1" y2="634.3" stroke="#3a7d44" stroke-width="1.9" stroke-opacity="0.72" stroke-linecap="round"/><polygon points="179.7,631.1 189.7,630.1 186.5,638.5" fill="#3a7d44" fill-opacity="0.72"/>
<line x1="179.7" y1="631.1" x2="249.6" y2="600.9" stroke="#3a7d44" stroke-width="1.9" stroke-opacity="0.72" stroke-linecap="round"/><polygon points="257.9,597.4 251.4,605.1 247.9,596.8" fill="#3a7d44" fill-opacity="0.72"/>
<line x1="257.9" y1="597.4" x2="250.4" y2="569.5" stroke="#3a7d44" stroke-width="1.9" stroke-opacity="0.72" stroke-linecap="round"/><polygon points="248.1,560.8 254.8,568.3 246.1,570.7" fill="#3a7d44" fill-opacity="0.72"/>
<circle cx="223.7" cy="648.0" r="3.6" fill="#3a7d44"/>
<circle cx="179.7" cy="631.1" r="3.6" fill="#3a7d44"/>
<circle cx="257.9" cy="597.4" r="3.6" fill="#3a7d44"/>
<circle cx="248.1" cy="560.8" r="3.6" fill="#3a7d44"/>
<line x1="184.6" y1="653.6" x2="237.8" y2="582.1" stroke="#c07d18" stroke-width="1.9" stroke-opacity="0.72" stroke-linecap="round"/><polygon points="243.2,574.9 241.5,584.8 234.2,579.4" fill="#c07d18" fill-opacity="0.72"/>
<line x1="243.2" y1="574.9" x2="197.8" y2="593.9" stroke="#c07d18" stroke-width="1.9" stroke-opacity="0.72" stroke-linecap="round"/><polygon points="189.4,597.4 196.0,589.7 199.5,598.0" fill="#c07d18" fill-opacity="0.72"/>
<line x1="189.4" y1="597.4" x2="197.9" y2="602.3" stroke="#c07d18" stroke-width="1.9" stroke-opacity="0.72" stroke-linecap="round"/><polygon points="204.1,605.8 196.2,605.3 199.7,599.2" fill="#c07d18" fill-opacity="0.72"/>
<circle cx="184.6" cy="653.6" r="3.6" fill="#c07d18"/>
<circle cx="243.2" cy="574.9" r="3.6" fill="#c07d18"/>
<circle cx="189.4" cy="597.4" r="3.6" fill="#c07d18"/>
<circle cx="204.1" cy="605.8" r="3.6" fill="#c07d18"/>
<line x1="213.9" y1="611.7" x2="208.2" y2="618.3" stroke="#c07d18" stroke-width="1.9" stroke-opacity="0.72" stroke-linecap="round"/><polygon points="204.1,623.0 205.8,616.2 210.6,620.3" fill="#c07d18" fill-opacity="0.72"/>
<line x1="204.1" y1="623.0" x2="195.6" y2="622.3" stroke="#c07d18" stroke-width="1.9" stroke-opacity="0.72" stroke-linecap="round"/><polygon points="189.4,621.8 195.9,619.2 195.3,625.4" fill="#c07d18" fill-opacity="0.72"/>
<line x1="189.4" y1="621.8" x2="214.7" y2="624.5" stroke="#c07d18" stroke-width="1.9" stroke-opacity="0.72" stroke-linecap="round"/><polygon points="223.7,625.5 214.2,629.0 215.2,620.1" fill="#c07d18" fill-opacity="0.72"/>
<rect x="210.3" y="608.1" width="7.2" height="7.2" fill="#c07d18"/>
<rect x="200.5" y="619.4" width="7.2" height="7.2" fill="#c07d18"/>
<rect x="185.8" y="618.2" width="7.2" height="7.2" fill="#c07d18"/>
<rect x="220.1" y="621.9" width="7.2" height="7.2" fill="#c07d18"/>
<line x1="189.4" y1="640.9" x2="204.9" y2="641.8" stroke="#8a5a9e" stroke-width="1.9" stroke-opacity="0.72" stroke-linecap="round"/><polygon points="213.9,642.4 204.6,646.3 205.2,637.3" fill="#8a5a9e" fill-opacity="0.72"/>
<line x1="213.9" y1="642.4" x2="229.9" y2="605.6" stroke="#8a5a9e" stroke-width="1.9" stroke-opacity="0.72" stroke-linecap="round"/><polygon points="233.5,597.4 234.0,607.4 225.7,603.8" fill="#8a5a9e" fill-opacity="0.72"/>
<line x1="233.5" y1="597.4" x2="169.1" y2="602.3" stroke="#8a5a9e" stroke-width="1.9" stroke-opacity="0.72" stroke-linecap="round"/><polygon points="160.1,603.0 168.7,597.8 169.4,606.8" fill="#8a5a9e" fill-opacity="0.72"/>
<rect x="185.8" y="637.3" width="7.2" height="7.2" fill="#8a5a9e"/>
<rect x="210.3" y="638.8" width="7.2" height="7.2" fill="#8a5a9e"/>
<rect x="229.9" y="593.8" width="7.2" height="7.2" fill="#8a5a9e"/>
<rect x="156.5" y="599.4" width="7.2" height="7.2" fill="#8a5a9e"/>
<line x1="218.8" y1="604.3" x2="278.5" y2="588.4" stroke="#1f9e9e" stroke-width="1.9" stroke-opacity="0.72" stroke-linecap="round"/><polygon points="287.2,586.1 279.7,592.8 277.4,584.1" fill="#1f9e9e" fill-opacity="0.72"/>
<line x1="287.2" y1="586.1" x2="284.3" y2="572.4" stroke="#1f9e9e" stroke-width="1.9" stroke-opacity="0.72" stroke-linecap="round"/><polygon points="282.4,563.6 288.7,571.5 279.9,573.4" fill="#1f9e9e" fill-opacity="0.72"/>
<line x1="282.4" y1="563.6" x2="245.3" y2="532.8" stroke="#1f9e9e" stroke-width="1.9" stroke-opacity="0.72" stroke-linecap="round"/><polygon points="238.4,527.1 248.2,529.4 242.4,536.3" fill="#1f9e9e" fill-opacity="0.72"/>
<rect x="215.2" y="600.7" width="7.2" height="7.2" fill="#1f9e9e"/>
<rect x="283.6" y="582.5" width="7.2" height="7.2" fill="#1f9e9e"/>
<rect x="278.8" y="560.0" width="7.2" height="7.2" fill="#1f9e9e"/>
<rect x="234.8" y="523.5" width="7.2" height="7.2" fill="#1f9e9e"/>
<line x1="189.4" y1="647.4" x2="217.8" y2="614.0" stroke="#2867b5" stroke-width="1.9" stroke-opacity="0.72" stroke-linecap="round"/><polygon points="223.7,607.2 221.3,616.9 214.4,611.1" fill="#2867b5" fill-opacity="0.72"/>
<line x1="223.7" y1="607.2" x2="235.0" y2="608.8" stroke="#2867b5" stroke-width="1.9" stroke-opacity="0.72" stroke-linecap="round"/><polygon points="243.2,610.1 234.4,613.0 235.6,604.7" fill="#2867b5" fill-opacity="0.72"/>
<line x1="243.2" y1="610.1" x2="256.2" y2="597.9" stroke="#2867b5" stroke-width="1.9" stroke-opacity="0.72" stroke-linecap="round"/><polygon points="262.8,591.7 259.3,601.2 253.2,594.6" fill="#2867b5" fill-opacity="0.72"/>
<rect x="185.8" y="643.8" width="7.2" height="7.2" fill="#2867b5"/>
<rect x="220.1" y="603.6" width="7.2" height="7.2" fill="#2867b5"/>
<rect x="239.6" y="606.5" width="7.2" height="7.2" fill="#2867b5"/>
<rect x="259.2" y="588.1" width="7.2" height="7.2" fill="#2867b5"/>
<line x1="213.9" y1="626.4" x2="219.6" y2="617.2" stroke="#b5342c" stroke-width="1.9" stroke-opacity="0.72" stroke-linecap="round"/><polygon points="223.7,610.6 222.9,619.2 216.2,615.1" fill="#b5342c" fill-opacity="0.72"/>
<line x1="223.7" y1="610.6" x2="227.2" y2="633.5" stroke="#b5342c" stroke-width="1.9" stroke-opacity="0.72" stroke-linecap="round"/><polygon points="228.6,642.4 222.8,634.1 231.6,632.8" fill="#b5342c" fill-opacity="0.72"/>
<line x1="228.6" y1="642.4" x2="245.4" y2="589.1" stroke="#b5342c" stroke-width="1.9" stroke-opacity="0.72" stroke-linecap="round"/><polygon points="248.1,580.5 249.7,590.4 241.1,587.7" fill="#b5342c" fill-opacity="0.72"/>
<rect x="210.3" y="622.8" width="7.2" height="7.2" fill="#b5342c"/>
<rect x="220.1" y="607.0" width="7.2" height="7.2" fill="#b5342c"/>
<rect x="225.0" y="638.8" width="7.2" height="7.2" fill="#b5342c"/>
<rect x="244.5" y="576.9" width="7.2" height="7.2" fill="#b5342c"/>
<line x1="262.8" y1="601.2" x2="231.8" y2="586.7" stroke="#3a7d44" stroke-width="1.9" stroke-opacity="0.72" stroke-linecap="round"/><polygon points="223.7,582.9 233.7,582.6 229.9,590.8" fill="#3a7d44" fill-opacity="0.72"/>
<line x1="223.7" y1="582.9" x2="298.4" y2="555.5" stroke="#3a7d44" stroke-width="1.9" stroke-opacity="0.72" stroke-linecap="round"/><polygon points="306.8,552.4 299.9,559.7 296.8,551.3" fill="#3a7d44" fill-opacity="0.72"/>
<line x1="306.8" y1="552.4" x2="289.8" y2="564.1" stroke="#3a7d44" stroke-width="1.9" stroke-opacity="0.72" stroke-linecap="round"/><polygon points="282.4,569.3 287.2,560.4 292.3,567.8" fill="#3a7d44" fill-opacity="0.72"/>
<rect x="259.2" y="597.6" width="7.2" height="7.2" fill="#3a7d44"/>
<rect x="220.1" y="579.3" width="7.2" height="7.2" fill="#3a7d44"/>
<rect x="303.2" y="548.8" width="7.2" height="7.2" fill="#3a7d44"/>
<rect x="278.8" y="565.7" width="7.2" height="7.2" fill="#3a7d44"/>
<text x="92.0" y="475.0" text-anchor="start" font-family="Helvetica, Arial, sans-serif" font-size="20" font-weight="bold" fill="#1a1a1a">base</text>
<text x="374.0" y="475.0" text-anchor="end" font-family="Helvetica, Arial, sans-serif" font-size="13.5" font-weight="normal" fill="#6b7684">10 runs · OLMo · Qwen</text>
<rect x="400" y="450" width="306" height="306" rx="9" fill="white" stroke="#d0d7de" stroke-width="1.3"/>
<line x1="540.8" y1="460" x2="540.8" y2="742" stroke="#eceef1" stroke-width="1.2"/>
<line x1="410" y1="608.6" x2="696" y2="608.6" stroke="#eceef1" stroke-width="1.2"/>
<line x1="506.6" y1="656.4" x2="543.2" y2="527.3" stroke="#2867b5" stroke-width="1.9" stroke-opacity="0.72" stroke-linecap="round"/><polygon points="545.7,518.6 547.5,528.5 538.9,526.1" fill="#2867b5" fill-opacity="0.72"/>
<line x1="545.7" y1="518.6" x2="532.0" y2="644.7" stroke="#2867b5" stroke-width="1.9" stroke-opacity="0.72" stroke-linecap="round"/><polygon points="531.0,653.6 527.5,644.2 536.4,645.2" fill="#2867b5" fill-opacity="0.72"/>
<line x1="531.0" y1="653.6" x2="574.0" y2="604.2" stroke="#2867b5" stroke-width="1.9" stroke-opacity="0.72" stroke-linecap="round"/><polygon points="579.9,597.4 577.4,607.1 570.6,601.2" fill="#2867b5" fill-opacity="0.72"/>
<circle cx="506.6" cy="656.4" r="3.6" fill="#2867b5"/>
<circle cx="545.7" cy="518.6" r="3.6" fill="#2867b5"/>
<circle cx="531.0" cy="653.6" r="3.6" fill="#2867b5"/>
<circle cx="579.9" cy="597.4" r="3.6" fill="#2867b5"/>
<line x1="545.7" y1="611.4" x2="550.2" y2="712.1" stroke="#b5342c" stroke-width="1.9" stroke-opacity="0.72" stroke-linecap="round"/><polygon points="550.6,721.1 545.7,712.3 554.7,711.9" fill="#b5342c" fill-opacity="0.72"/>
<line x1="550.6" y1="721.1" x2="536.8" y2="583.8" stroke="#b5342c" stroke-width="1.9" stroke-opacity="0.72" stroke-linecap="round"/><polygon points="535.9,574.9 541.3,583.4 532.3,584.3" fill="#b5342c" fill-opacity="0.72"/>
<line x1="535.9" y1="574.9" x2="521.2" y2="598.2" stroke="#b5342c" stroke-width="1.9" stroke-opacity="0.72" stroke-linecap="round"/><polygon points="516.3,605.8 517.3,595.8 525.0,600.6" fill="#b5342c" fill-opacity="0.72"/>
<circle cx="545.7" cy="611.4" r="3.6" fill="#b5342c"/>
<circle cx="550.6" cy="721.1" r="3.6" fill="#b5342c"/>
<circle cx="535.9" cy="574.9" r="3.6" fill="#b5342c"/>
<circle cx="516.3" cy="605.8" r="3.6" fill="#b5342c"/>
<line x1="575.0" y1="625.5" x2="539.3" y2="538.2" stroke="#3a7d44" stroke-width="1.9" stroke-opacity="0.72" stroke-linecap="round"/><polygon points="535.9,529.9 543.5,536.5 535.1,539.9" fill="#3a7d44" fill-opacity="0.72"/>
<line x1="535.9" y1="529.9" x2="585.1" y2="612.1" stroke="#3a7d44" stroke-width="1.9" stroke-opacity="0.72" stroke-linecap="round"/><polygon points="589.7,619.9 581.2,614.5 588.9,609.8" fill="#3a7d44" fill-opacity="0.72"/>
<line x1="589.7" y1="619.9" x2="534.5" y2="641.8" stroke="#3a7d44" stroke-width="1.9" stroke-opacity="0.72" stroke-linecap="round"/><polygon points="526.1,645.2 532.8,637.7 536.1,646.0" fill="#3a7d44" fill-opacity="0.72"/>
<circle cx="575.0" cy="625.5" r="3.6" fill="#3a7d44"/>
<circle cx="535.9" cy="529.9" r="3.6" fill="#3a7d44"/>
<circle cx="589.7" cy="619.9" r="3.6" fill="#3a7d44"/>
<circle cx="526.1" cy="645.2" r="3.6" fill="#3a7d44"/>
<line x1="565.2" y1="563.6" x2="512.5" y2="624.3" stroke="#c07d18" stroke-width="1.9" stroke-opacity="0.72" stroke-linecap="round"/><polygon points="506.6,631.1 509.1,621.4 515.9,627.3" fill="#c07d18" fill-opacity="0.72"/>
<line x1="506.6" y1="631.1" x2="515.1" y2="631.1" stroke="#c07d18" stroke-width="1.9" stroke-opacity="0.72" stroke-linecap="round"/><polygon points="521.2,631.1 515.1,634.2 515.1,628.0" fill="#c07d18" fill-opacity="0.72"/>
<line x1="521.2" y1="631.1" x2="543.0" y2="561.0" stroke="#c07d18" stroke-width="1.9" stroke-opacity="0.72" stroke-linecap="round"/><polygon points="545.7,552.4 547.3,562.3 538.7,559.6" fill="#c07d18" fill-opacity="0.72"/>
<circle cx="565.2" cy="563.6" r="3.6" fill="#c07d18"/>
<circle cx="506.6" cy="631.1" r="3.6" fill="#c07d18"/>
<circle cx="521.2" cy="631.1" r="3.6" fill="#c07d18"/>
<circle cx="545.7" cy="552.4" r="3.6" fill="#c07d18"/>
<text x="414.0" y="475.0" text-anchor="start" font-family="Helvetica, Arial, sans-serif" font-size="20" font-weight="bold" fill="#1a1a1a">random</text>
<text x="696.0" y="475.0" text-anchor="end" font-family="Helvetica, Arial, sans-serif" font-size="13.5" font-weight="normal" fill="#6b7684">4 runs · Qwen</text>
<rect x="722" y="450" width="306" height="306" rx="9" fill="white" stroke="#d0d7de" stroke-width="1.3"/>
<line x1="862.8" y1="460" x2="862.8" y2="742" stroke="#eceef1" stroke-width="1.2"/>
<line x1="732" y1="608.6" x2="1018" y2="608.6" stroke="#eceef1" stroke-width="1.2"/>
<line x1="823.7" y1="676.1" x2="764.1" y2="666.3" stroke="#d1477a" stroke-width="1.9" stroke-opacity="0.72" stroke-linecap="round"/><polygon points="755.2,664.8 764.8,661.9 763.3,670.7" fill="#d1477a" fill-opacity="0.72"/>
<line x1="755.2" y1="664.8" x2="776.1" y2="656.8" stroke="#d1477a" stroke-width="1.9" stroke-opacity="0.72" stroke-linecap="round"/><polygon points="784.5,653.6 777.7,661.0 774.5,652.6" fill="#d1477a" fill-opacity="0.72"/>
<line x1="784.5" y1="653.6" x2="829.5" y2="660.6" stroke="#d1477a" stroke-width="1.9" stroke-opacity="0.72" stroke-linecap="round"/><polygon points="838.3,662.0 828.8,665.1 830.1,656.2" fill="#d1477a" fill-opacity="0.72"/>
<rect x="820.1" y="672.5" width="7.2" height="7.2" fill="#d1477a"/>
<rect x="751.6" y="661.2" width="7.2" height="7.2" fill="#d1477a"/>
<rect x="780.9" y="650.0" width="7.2" height="7.2" fill="#d1477a"/>
<rect x="834.7" y="658.4" width="7.2" height="7.2" fill="#d1477a"/>



<rect x="859.2" y="605.0" width="7.2" height="7.2" fill="#5b6bbf"/>
<rect x="859.2" y="605.0" width="7.2" height="7.2" fill="#5b6bbf"/>
<rect x="859.2" y="605.0" width="7.2" height="7.2" fill="#5b6bbf"/>
<rect x="859.2" y="605.0" width="7.2" height="7.2" fill="#5b6bbf"/>
<text x="736.0" y="475.0" text-anchor="start" font-family="Helvetica, Arial, sans-serif" font-size="20" font-weight="bold" fill="#1a1a1a">score oracle</text>
<text x="1018.0" y="475.0" text-anchor="end" font-family="Helvetica, Arial, sans-serif" font-size="13.5" font-weight="normal" fill="#6b7684">2 runs · OLMo</text>
<text x="70.0" y="144.0" text-anchor="end" font-family="Helvetica, Arial, sans-serif" font-size="12.5" font-weight="normal" fill="#6b7684">0.45</text>
<text x="70.0" y="422.0" text-anchor="end" font-family="Helvetica, Arial, sans-serif" font-size="12.5" font-weight="normal" fill="#6b7684">-0.41</text>
<text x="70.0" y="466.0" text-anchor="end" font-family="Helvetica, Arial, sans-serif" font-size="12.5" font-weight="normal" fill="#6b7684">0.45</text>
<text x="70.0" y="744.0" text-anchor="end" font-family="Helvetica, Arial, sans-serif" font-size="12.5" font-weight="normal" fill="#6b7684">-0.41</text>
<text x="92.0" y="772.0" text-anchor="start" font-family="Helvetica, Arial, sans-serif" font-size="12.5" font-weight="normal" fill="#6b7684">-0.30</text>
<text x="370.0" y="772.0" text-anchor="start" font-family="Helvetica, Arial, sans-serif" font-size="12.5" font-weight="normal" fill="#6b7684">0.37</text>
<text x="414.0" y="772.0" text-anchor="start" font-family="Helvetica, Arial, sans-serif" font-size="12.5" font-weight="normal" fill="#6b7684">-0.30</text>
<text x="692.0" y="772.0" text-anchor="start" font-family="Helvetica, Arial, sans-serif" font-size="12.5" font-weight="normal" fill="#6b7684">0.37</text>
<text x="736.0" y="772.0" text-anchor="start" font-family="Helvetica, Arial, sans-serif" font-size="12.5" font-weight="normal" fill="#6b7684">-0.30</text>
<text x="1014.0" y="772.0" text-anchor="start" font-family="Helvetica, Arial, sans-serif" font-size="12.5" font-weight="normal" fill="#6b7684">0.37</text>
<text x="553.0" y="800.0" text-anchor="middle" font-family="Helvetica, Arial, sans-serif" font-size="18" font-weight="bold" fill="#1a1a1a">x:  selection gap  (kept − pool)</text>
<text x="30" y="442.0" text-anchor="middle" font-family="Helvetica, Arial, sans-serif" font-size="18" font-weight="bold" fill="#1a1a1a" transform="rotate(-90 30 442.0)">y:  value move Δv this round</text>
<text x="245.0" y="841.0" text-anchor="start" font-family="Helvetica, Arial, sans-serif" font-size="15" font-weight="bold" fill="#1a1a1a">seed</text>
<rect x="291.0" y="827.0" width="13" height="13" rx="2" fill="#2867b5"/>
<text x="310.0" y="841.0" text-anchor="start" font-family="Helvetica, Arial, sans-serif" font-size="14" font-weight="normal" fill="#1a1a1a">0</text>
<rect x="343.0" y="827.0" width="13" height="13" rx="2" fill="#b5342c"/>
<text x="362.0" y="841.0" text-anchor="start" font-family="Helvetica, Arial, sans-serif" font-size="14" font-weight="normal" fill="#1a1a1a">1</text>
<rect x="395.0" y="827.0" width="13" height="13" rx="2" fill="#3a7d44"/>
<text x="414.0" y="841.0" text-anchor="start" font-family="Helvetica, Arial, sans-serif" font-size="14" font-weight="normal" fill="#1a1a1a">2</text>
<rect x="447.0" y="827.0" width="13" height="13" rx="2" fill="#c07d18"/>
<text x="466.0" y="841.0" text-anchor="start" font-family="Helvetica, Arial, sans-serif" font-size="14" font-weight="normal" fill="#1a1a1a">3</text>
<rect x="499.0" y="827.0" width="13" height="13" rx="2" fill="#8a5a9e"/>
<text x="518.0" y="841.0" text-anchor="start" font-family="Helvetica, Arial, sans-serif" font-size="14" font-weight="normal" fill="#1a1a1a">4</text>
<rect x="551.0" y="827.0" width="13" height="13" rx="2" fill="#1f9e9e"/>
<text x="570.0" y="841.0" text-anchor="start" font-family="Helvetica, Arial, sans-serif" font-size="14" font-weight="normal" fill="#1a1a1a">5</text>
<rect x="603.0" y="827.0" width="13" height="13" rx="2" fill="#d1477a"/>
<text x="622.0" y="841.0" text-anchor="start" font-family="Helvetica, Arial, sans-serif" font-size="14" font-weight="normal" fill="#1a1a1a">21</text>
<rect x="655.0" y="827.0" width="13" height="13" rx="2" fill="#5b6bbf"/>
<text x="674.0" y="841.0" text-anchor="start" font-family="Helvetica, Arial, sans-serif" font-size="14" font-weight="normal" fill="#1a1a1a">22</text>
<circle cx="735.0" cy="836.0" r="5.5" fill="#6b7684"/>
<text x="746.0" y="841.0" text-anchor="start" font-family="Helvetica, Arial, sans-serif" font-size="14" font-weight="normal" fill="#6b7684">Qwen</text>
<rect x="803.0" y="830.5" width="11" height="11" fill="#6b7684"/>
<text x="821.0" y="841.0" text-anchor="start" font-family="Helvetica, Arial, sans-serif" font-size="14" font-weight="normal" fill="#6b7684">OLMo</text>
</svg>