<svg xmlns="http://www.w3.org/2000/svg" viewBox="0 0 1046 886" font-family="Helvetica, Arial, sans-serif">
<rect width="1046" height="886" fill="white"/>
<text x="544.0" y="46.0" text-anchor="middle" font-family="Helvetica, Arial, sans-serif" font-size="29" font-weight="bold" fill="#1a1a1a">How much gap each judge pulls from the available spread</text>
<text x="544.0" y="78.0" text-anchor="middle" font-family="Helvetica, Arial, sans-serif" font-size="17" font-weight="normal" fill="#6b7684">Own-pool loops. x = spread, y = selection gap. Dashed envelope = |gap| ≤ spread (the most a judge could extract).</text>
<rect x="78" y="128" width="300" height="300" rx="9" fill="white" stroke="#d0d7de" stroke-width="1.3"/>
<line x1="92.0" y1="290.0" x2="336.8" y2="168.0" stroke="#cfd6dd" stroke-width="1.2" stroke-dasharray="4 4"/>
<line x1="92.0" y1="290.0" x2="336.8" y2="412.0" stroke="#cfd6dd" stroke-width="1.2" stroke-dasharray="4 4"/>
<line x1="92" y1="290.0" x2="364" y2="290.0" stroke="#eceef1" stroke-width="1.2"/>
<circle cx="326.5" cy="293.8" r="3.4" fill="#2867b5" fill-opacity="0.82"/>
<circle cx="334.4" cy="297.5" r="3.4" fill="#2867b5" fill-opacity="0.82"/>
<circle cx="316.2" cy="339.0" r="3.4" fill="#2867b5" fill-opacity="0.82"/>
<circle cx="240.6" cy="282.5" r="3.4" fill="#2867b5" fill-opacity="0.82"/>
<circle cx="349.1" cy="308.8" r="3.4" fill="#b5342c" fill-opacity="0.82"/>
<circle cx="317.5" cy="271.2" r="3.4" fill="#b5342c" fill-opacity="0.82"/>
<circle cx="347.2" cy="282.5" r="3.4" fill="#b5342c" fill-opacity="0.82"/>
<circle cx="307.3" cy="297.5" r="3.4" fill="#b5342c" fill-opacity="0.82"/>
<circle cx="325.9" cy="263.6" r="3.4" fill="#3a7d44" fill-opacity="0.82"/>
<circle cx="285.9" cy="293.8" r="3.4" fill="#3a7d44" fill-opacity="0.82"/>
<circle cx="236.1" cy="297.5" r="3.4" fill="#3a7d44" fill-opacity="0.82"/>
<circle cx="231.6" cy="301.3" r="3.4" fill="#3a7d44" fill-opacity="0.82"/>
<circle cx="346.0" cy="293.8" r="3.4" fill="#c07d18" fill-opacity="0.82"/>
<circle cx="340.2" cy="282.5" r="3.4" fill="#c07d18" fill-opacity="0.82"/>
<circle cx="334.4" cy="297.5" r="3.4" fill="#c07d18" fill-opacity="0.82"/>
<circle cx="318.8" cy="188.3" r="3.4" fill="#c07d18" fill-opacity="0.82"/>
<text x="92.0" y="153.0" text-anchor="start" font-family="Helvetica, Arial, sans-serif" font-size="20" font-weight="bold" fill="#1a1a1a">self</text>
<text x="368.0" y="153.0" text-anchor="end" font-family="Helvetica, Arial, sans-serif" font-size="14" font-weight="bold" fill="#1a1a1a">|gap|/σ 0.17</text>
<rect x="394" y="128" width="300" height="300" rx="9" fill="white" stroke="#d0d7de" stroke-width="1.3"/>
<line x1="408.0" y1="290.0" x2="652.8" y2="168.0" stroke="#cfd6dd" stroke-width="1.2" stroke-dasharray="4 4"/>
<line x1="408.0" y1="290.0" x2="652.8" y2="412.0" stroke="#cfd6dd" stroke-width="1.2" stroke-dasharray="4 4"/>
<line x1="408" y1="290.0" x2="680" y2="290.0" stroke="#eceef1" stroke-width="1.2"/>
<circle cx="642.5" cy="293.8" r="3.4" fill="#2867b5" fill-opacity="0.82"/>
<circle cx="634.8" cy="297.5" r="3.4" fill="#2867b5" fill-opacity="0.82"/>
<circle cx="639.3" cy="297.5" r="3.4" fill="#2867b5" fill-opacity="0.82"/>
<circle cx="634.8" cy="301.3" r="3.4" fill="#2867b5" fill-opacity="0.82"/>
<circle cx="665.1" cy="308.8" r="3.4" fill="#b5342c" fill-opacity="0.82"/>
<circle cx="666.5" cy="290.0" r="3.4" fill="#b5342c" fill-opacity="0.82"/>
<circle cx="663.8" cy="282.5" r="3.4" fill="#b5342c" fill-opacity="0.82"/>
<circle cx="635.4" cy="301.3" r="3.4" fill="#b5342c" fill-opacity="0.82"/>
<circle cx="641.9" cy="263.6" r="3.4" fill="#3a7d44" fill-opacity="0.82"/>
<circle cx="589.5" cy="305.1" r="3.4" fill="#3a7d44" fill-opacity="0.82"/>
<circle cx="654.9" cy="293.8" r="3.4" fill="#3a7d44" fill-opacity="0.82"/>
<circle cx="615.3" cy="308.8" r="3.4" fill="#3a7d44" fill-opacity="0.82"/>
<circle cx="662.0" cy="293.8" r="3.4" fill="#c07d18" fill-opacity="0.82"/>
<circle cx="660.7" cy="290.0" r="3.4" fill="#c07d18" fill-opacity="0.82"/>
<circle cx="629.1" cy="290.0" r="3.4" fill="#c07d18" fill-opacity="0.82"/>
<circle cx="662.0" cy="267.4" r="3.4" fill="#c07d18" fill-opacity="0.82"/>
<text x="408.0" y="153.0" text-anchor="start" font-family="Helvetica, Arial, sans-serif" font-size="20" font-weight="bold" fill="#1a1a1a">risk copy</text>
<text x="684.0" y="153.0" text-anchor="end" font-family="Helvetica, Arial, sans-serif" font-size="14" font-weight="bold" fill="#1a1a1a">|gap|/σ 0.09</text>
<rect x="710" y="128" width="300" height="300" rx="9" fill="white" stroke="#d0d7de" stroke-width="1.3"/>
<line x1="724.0" y1="290.0" x2="968.8" y2="168.0" stroke="#cfd6dd" stroke-width="1.2" stroke-dasharray="4 4"/>
<line x1="724.0" y1="290.0" x2="968.8" y2="412.0" stroke="#cfd6dd" stroke-width="1.2" stroke-dasharray="4 4"/>
<line x1="724" y1="290.0" x2="996" y2="290.0" stroke="#eceef1" stroke-width="1.2"/>
<circle cx="904.2" cy="316.4" r="3.4" fill="#c07d18" fill-opacity="0.82"/>
<circle cx="892.1" cy="286.2" r="3.4" fill="#c07d18" fill-opacity="0.82"/>
<circle cx="838.8" cy="301.3" r="3.4" fill="#c07d18" fill-opacity="0.82"/>
<circle cx="885.0" cy="271.2" r="3.4" fill="#c07d18" fill-opacity="0.82"/>
<circle cx="860.2" cy="312.6" r="3.4" fill="#8a5a9e" fill-opacity="0.82"/>
<circle cx="814.2" cy="305.1" r="3.4" fill="#8a5a9e" fill-opacity="0.82"/>
<circle cx="812.9" cy="290.0" r="3.4" fill="#8a5a9e" fill-opacity="0.82"/>
<circle cx="779.2" cy="282.5" r="3.4" fill="#8a5a9e" fill-opacity="0.82"/>
<circle cx="872.6" cy="316.4" r="3.4" fill="#b5342c" fill-opacity="0.82"/>
<circle cx="829.9" cy="305.1" r="3.4" fill="#b5342c" fill-opacity="0.82"/>
<circle cx="808.5" cy="297.5" r="3.4" fill="#b5342c" fill-opacity="0.82"/>
<circle cx="762.2" cy="290.0" r="3.4" fill="#b5342c" fill-opacity="0.82"/>
<circle cx="945.1" cy="290.0" r="3.4" fill="#3a7d44" fill-opacity="0.82"/>
<circle cx="905.5" cy="320.1" r="3.4" fill="#3a7d44" fill-opacity="0.82"/>
<circle cx="895.3" cy="320.1" r="3.4" fill="#3a7d44" fill-opacity="0.82"/>
<circle cx="829.9" cy="316.4" r="3.4" fill="#3a7d44" fill-opacity="0.82"/>
<text x="724.0" y="153.0" text-anchor="start" font-family="Helvetica, Arial, sans-serif" font-size="20" font-weight="bold" fill="#1a1a1a">cautious copy</text>
<text x="1000.0" y="153.0" text-anchor="end" font-family="Helvetica, Arial, sans-serif" font-size="14" font-weight="bold" fill="#1a1a1a">|gap|/σ 0.23</text>
<rect x="78" y="468" width="300" height="300" rx="9" fill="white" stroke="#d0d7de" stroke-width="1.3"/>
<line x1="92.0" y1="630.0" x2="336.8" y2="508.0" stroke="#cfd6dd" stroke-width="1.2" stroke-dasharray="4 4"/>
<line x1="92.0" y1="630.0" x2="336.8" y2="752.0" stroke="#cfd6dd" stroke-width="1.2" stroke-dasharray="4 4"/>
<line x1="92" y1="630.0" x2="364" y2="630.0" stroke="#eceef1" stroke-width="1.2"/>
<circle cx="326.5" cy="667.7" r="3.4" fill="#2867b5" fill-opacity="0.82"/>
<circle cx="347.8" cy="630.0" r="3.4" fill="#2867b5" fill-opacity="0.82"/>
<circle cx="308.6" cy="630.0" r="3.4" fill="#2867b5" fill-opacity="0.82"/>
<circle cx="341.5" cy="641.3" r="3.4" fill="#2867b5" fill-opacity="0.82"/>
<circle cx="349.1" cy="648.8" r="3.4" fill="#b5342c" fill-opacity="0.82"/>
<circle cx="313.1" cy="648.8" r="3.4" fill="#b5342c" fill-opacity="0.82"/>
<circle cx="316.2" cy="626.2" r="3.4" fill="#b5342c" fill-opacity="0.82"/>
<circle cx="294.9" cy="626.2" r="3.4" fill="#b5342c" fill-opacity="0.82"/>
<circle cx="325.9" cy="626.2" r="3.4" fill="#3a7d44" fill-opacity="0.82"/>
<circle cx="309.9" cy="660.1" r="3.4" fill="#3a7d44" fill-opacity="0.82"/>
<circle cx="337.6" cy="599.9" r="3.4" fill="#3a7d44" fill-opacity="0.82"/>
<circle cx="331.3" cy="607.4" r="3.4" fill="#3a7d44" fill-opacity="0.82"/>
<circle cx="346.0" cy="656.4" r="3.4" fill="#c07d18" fill-opacity="0.82"/>
<circle cx="338.9" cy="611.2" r="3.4" fill="#c07d18" fill-opacity="0.82"/>
<circle cx="326.1" cy="652.6" r="3.4" fill="#c07d18" fill-opacity="0.82"/>
<circle cx="327.8" cy="641.3" r="3.4" fill="#c07d18" fill-opacity="0.82"/>
<circle cx="272.2" cy="633.8" r="3.4" fill="#c07d18" fill-opacity="0.82"/>
<circle cx="306.0" cy="641.3" r="3.4" fill="#c07d18" fill-opacity="0.82"/>
<circle cx="264.6" cy="652.6" r="3.4" fill="#c07d18" fill-opacity="0.82"/>
<circle cx="186.7" cy="626.2" r="3.4" fill="#c07d18" fill-opacity="0.82"/>
<circle cx="228.2" cy="652.6" r="3.4" fill="#8a5a9e" fill-opacity="0.82"/>
<circle cx="169.8" cy="633.8" r="3.4" fill="#8a5a9e" fill-opacity="0.82"/>
<circle cx="180.9" cy="618.7" r="3.4" fill="#8a5a9e" fill-opacity="0.82"/>
<circle cx="210.7" cy="675.2" r="3.4" fill="#8a5a9e" fill-opacity="0.82"/>
<circle cx="201.5" cy="630.0" r="3.4" fill="#1f9e9e" fill-opacity="0.82"/>
<circle cx="293.6" cy="577.3" r="3.4" fill="#1f9e9e" fill-opacity="0.82"/>
<circle cx="332.3" cy="581.0" r="3.4" fill="#1f9e9e" fill-opacity="0.82"/>
<circle cx="313.1" cy="614.9" r="3.4" fill="#1f9e9e" fill-opacity="0.82"/>
<circle cx="248.9" cy="652.6" r="3.4" fill="#2867b5" fill-opacity="0.82"/>
<circle cx="148.5" cy="626.2" r="3.4" fill="#2867b5" fill-opacity="0.82"/>
<circle cx="185.4" cy="611.2" r="3.4" fill="#2867b5" fill-opacity="0.82"/>
<circle cx="180.9" cy="596.1" r="3.4" fill="#2867b5" fill-opacity="0.82"/>
<circle cx="240.6" cy="633.8" r="3.4" fill="#b5342c" fill-opacity="0.82"/>
<circle cx="240.6" cy="626.2" r="3.4" fill="#b5342c" fill-opacity="0.82"/>
<circle cx="210.3" cy="622.5" r="3.4" fill="#b5342c" fill-opacity="0.82"/>
<circle cx="231.6" cy="607.4" r="3.4" fill="#b5342c" fill-opacity="0.82"/>
<circle cx="313.1" cy="596.1" r="3.4" fill="#3a7d44" fill-opacity="0.82"/>
<circle cx="334.4" cy="626.2" r="3.4" fill="#3a7d44" fill-opacity="0.82"/>
<circle cx="302.8" cy="562.2" r="3.4" fill="#3a7d44" fill-opacity="0.82"/>
<circle cx="314.9" cy="581.0" r="3.4" fill="#3a7d44" fill-opacity="0.82"/>
<text x="92.0" y="493.0" text-anchor="start" font-family="Helvetica, Arial, sans-serif" font-size="20" font-weight="bold" fill="#1a1a1a">base</text>
<text x="368.0" y="493.0" text-anchor="end" font-family="Helvetica, Arial, sans-serif" font-size="14" font-weight="bold" fill="#1a1a1a">|gap|/σ 0.22</text>
<rect x="394" y="468" width="300" height="300" rx="9" fill="white" stroke="#d0d7de" stroke-width="1.3"/>
<line x1="408.0" y1="630.0" x2="652.8" y2="508.0" stroke="#cfd6dd" stroke-width="1.2" stroke-dasharray="4 4"/>
<line x1="408.0" y1="630.0" x2="652.8" y2="752.0" stroke="#cfd6dd" stroke-width="1.2" stroke-dasharray="4 4"/>
<line x1="408" y1="630.0" x2="680" y2="630.0" stroke="#eceef1" stroke-width="1.2"/>
<circle cx="642.5" cy="656.4" r="3.4" fill="#2867b5" fill-opacity="0.82"/>
<circle cx="663.8" cy="626.2" r="3.4" fill="#2867b5" fill-opacity="0.82"/>
<circle cx="599.8" cy="637.5" r="3.4" fill="#2867b5" fill-opacity="0.82"/>
<circle cx="666.5" cy="599.9" r="3.4" fill="#2867b5" fill-opacity="0.82"/>
<circle cx="665.1" cy="626.2" r="3.4" fill="#b5342c" fill-opacity="0.82"/>
<circle cx="654.9" cy="622.5" r="3.4" fill="#b5342c" fill-opacity="0.82"/>
<circle cx="661.3" cy="633.8" r="3.4" fill="#b5342c" fill-opacity="0.82"/>
<circle cx="654.9" cy="648.8" r="3.4" fill="#b5342c" fill-opacity="0.82"/>
<circle cx="641.9" cy="603.6" r="3.4" fill="#3a7d44" fill-opacity="0.82"/>
<circle cx="615.3" cy="633.8" r="3.4" fill="#3a7d44" fill-opacity="0.82"/>
<circle cx="623.3" cy="592.3" r="3.4" fill="#3a7d44" fill-opacity="0.82"/>
<circle cx="583.7" cy="641.3" r="3.4" fill="#3a7d44" fill-opacity="0.82"/>
<circle cx="662.0" cy="611.2" r="3.4" fill="#c07d18" fill-opacity="0.82"/>
<circle cx="641.2" cy="656.4" r="3.4" fill="#c07d18" fill-opacity="0.82"/>
<circle cx="640.2" cy="645.1" r="3.4" fill="#c07d18" fill-opacity="0.82"/>
<circle cx="615.3" cy="626.2" r="3.4" fill="#c07d18" fill-opacity="0.82"/>
<text x="408.0" y="493.0" text-anchor="start" font-family="Helvetica, Arial, sans-serif" font-size="20" font-weight="bold" fill="#1a1a1a">random</text>
<text x="684.0" y="493.0" text-anchor="end" font-family="Helvetica, Arial, sans-serif" font-size="14" font-weight="bold" fill="#1a1a1a">|gap|/σ 0.13</text>
<rect x="710" y="468" width="300" height="300" rx="9" fill="white" stroke="#d0d7de" stroke-width="1.3"/>
<line x1="724.0" y1="630.0" x2="968.8" y2="508.0" stroke="#cfd6dd" stroke-width="1.2" stroke-dasharray="4 4"/>
<line x1="724.0" y1="630.0" x2="968.8" y2="752.0" stroke="#cfd6dd" stroke-width="1.2" stroke-dasharray="4 4"/>
<line x1="724" y1="630.0" x2="996" y2="630.0" stroke="#eceef1" stroke-width="1.2"/>
<circle cx="791.6" cy="660.1" r="3.4" fill="#d1477a" fill-opacity="0.82"/>
<circle cx="888.6" cy="712.9" r="3.4" fill="#d1477a" fill-opacity="0.82"/>
<circle cx="855.7" cy="690.2" r="3.4" fill="#d1477a" fill-opacity="0.82"/>
<circle cx="763.5" cy="648.8" r="3.4" fill="#d1477a" fill-opacity="0.82"/>
<circle cx="724.0" cy="630.0" r="3.4" fill="#5b6bbf" fill-opacity="0.82"/>
<circle cx="724.0" cy="630.0" r="3.4" fill="#5b6bbf" fill-opacity="0.82"/>
<circle cx="724.0" cy="630.0" r="3.4" fill="#5b6bbf" fill-opacity="0.82"/>
<circle cx="724.0" cy="630.0" r="3.4" fill="#5b6bbf" fill-opacity="0.82"/>
<text x="724.0" y="493.0" text-anchor="start" font-family="Helvetica, Arial, sans-serif" font-size="20" font-weight="bold" fill="#1a1a1a">score oracle</text>
<text x="1000.0" y="493.0" text-anchor="end" font-family="Helvetica, Arial, sans-serif" font-size="14" font-weight="bold" fill="#1a1a1a">|gap|/σ 0.94</text>
<text x="544.0" y="810.0" text-anchor="middle" font-family="Helvetica, Arial, sans-serif" font-size="18" font-weight="bold" fill="#1a1a1a">x:  spread</text>
<text x="28" y="448.0" text-anchor="middle" font-family="Helvetica, Arial, sans-serif" font-size="18" font-weight="bold" fill="#1a1a1a" transform="rotate(-90 28 448.0)">y:  selection gap (kept − pool)</text>
<text x="236.0" y="861.0" text-anchor="start" font-family="Helvetica, Arial, sans-serif" font-size="15" font-weight="bold" fill="#1a1a1a">seed</text>
<rect x="282.0" y="847.0" width="13" height="13" rx="2" fill="#2867b5"/>
<text x="301.0" y="861.0" text-anchor="start" font-family="Helvetica, Arial, sans-serif" font-size="14" font-weight="normal" fill="#1a1a1a">0</text>
<rect x="334.0" y="847.0" width="13" height="13" rx="2" fill="#b5342c"/>
<text x="353.0" y="861.0" text-anchor="start" font-family="Helvetica, Arial, sans-serif" font-size="14" font-weight="normal" fill="#1a1a1a">1</text>
<rect x="386.0" y="847.0" width="13" height="13" rx="2" fill="#3a7d44"/>
<text x="405.0" y="861.0" text-anchor="start" font-family="Helvetica, Arial, sans-serif" font-size="14" font-weight="normal" fill="#1a1a1a">2</text>
<rect x="438.0" y="847.0" width="13" height="13" rx="2" fill="#c07d18"/>
<text x="457.0" y="861.0" text-anchor="start" font-family="Helvetica, Arial, sans-serif" font-size="14" font-weight="normal" fill="#1a1a1a">3</text>
<rect x="490.0" y="847.0" width="13" height="13" rx="2" fill="#8a5a9e"/>
<text x="509.0" y="861.0" text-anchor="start" font-family="Helvetica, Arial, sans-serif" font-size="14" font-weight="normal" fill="#1a1a1a">4</text>
<rect x="542.0" y="847.0" width="13" height="13" rx="2" fill="#1f9e9e"/>
<text x="561.0" y="861.0" text-anchor="start" font-family="Helvetica, Arial, sans-serif" font-size="14" font-weight="normal" fill="#1a1a1a">5</text>
<rect x="594.0" y="847.0" width="13" height="13" rx="2" fill="#d1477a"/>
<text x="613.0" y="861.0" text-anchor="start" font-family="Helvetica, Arial, sans-serif" font-size="14" font-weight="normal" fill="#1a1a1a">21</text>
<rect x="646.0" y="847.0" width="13" height="13" rx="2" fill="#5b6bbf"/>
<text x="665.0" y="861.0" text-anchor="start" font-family="Helvetica, Arial, sans-serif" font-size="14" font-weight="normal" fill="#1a1a1a">22</text>
<circle cx="726.0" cy="856.0" r="5.5" fill="#6b7684"/>
<text x="737.0" y="861.0" text-anchor="start" font-family="Helvetica, Arial, sans-serif" font-size="14" font-weight="normal" fill="#6b7684">Qwen</text>
<rect x="794.0" y="850.5" width="11" height="11" fill="#6b7684"/>
<text x="812.0" y="861.0" text-anchor="start" font-family="Helvetica, Arial, sans-serif" font-size="14" font-weight="normal" fill="#6b7684">OLMo</text>
</svg>