<svg xmlns="http://www.w3.org/2000/svg" viewBox="0 0 1092 622" font-family="Helvetica, Arial, sans-serif">
<rect width="1092" height="622" fill="white"/>
<text x="546.0" y="48.0" text-anchor="middle" font-family="Helvetica, Arial, sans-serif" font-size="27" font-weight="bold" fill="#1a1a1a">Is utilization a stable property of the judge? (per judge × organism)</text>
<text x="546.0" y="80.0" text-anchor="middle" font-family="Helvetica, Arial, sans-serif" font-size="16" font-weight="normal" fill="#6b7684">Own-pool loops. Directional utilization per round. Solid = Qwen, dashed = OLMo. 0 = random, 1 = the extreme in its direction.</text>
<line x1="92" y1="485.8" x2="792" y2="485.8" stroke="#c9ced4" stroke-width="1.4"/>
<text x="82.0" y="490.8" text-anchor="end" font-family="Helvetica, Arial, sans-serif" font-size="14" font-weight="normal" fill="#6b7684">0.00</text>
<line x1="92" y1="398.9" x2="792" y2="398.9" stroke="#eef0f2" stroke-width="1"/>
<text x="82.0" y="403.9" text-anchor="end" font-family="Helvetica, Arial, sans-serif" font-size="14" font-weight="normal" fill="#6b7684">0.25</text>
<line x1="92" y1="311.9" x2="792" y2="311.9" stroke="#eef0f2" stroke-width="1"/>
<text x="82.0" y="316.9" text-anchor="end" font-family="Helvetica, Arial, sans-serif" font-size="14" font-weight="normal" fill="#6b7684">0.50</text>
<line x1="92" y1="225.0" x2="792" y2="225.0" stroke="#eef0f2" stroke-width="1"/>
<text x="82.0" y="230.0" text-anchor="end" font-family="Helvetica, Arial, sans-serif" font-size="14" font-weight="normal" fill="#6b7684">0.75</text>
<line x1="92" y1="138.0" x2="792" y2="138.0" stroke="#eef0f2" stroke-width="1"/>
<text x="82.0" y="143.0" text-anchor="end" font-family="Helvetica, Arial, sans-serif" font-size="14" font-weight="normal" fill="#6b7684">1.00</text>
<text x="800.0" y="490.8" text-anchor="start" font-family="Helvetica, Arial, sans-serif" font-size="13" font-weight="normal" fill="#6b7684">random</text>
<text x="92.0" y="564.0" text-anchor="middle" font-family="Helvetica, Arial, sans-serif" font-size="14" font-weight="normal" fill="#6b7684">1</text>
<text x="325.3" y="564.0" text-anchor="middle" font-family="Helvetica, Arial, sans-serif" font-size="14" font-weight="normal" fill="#6b7684">2</text>
<text x="558.7" y="564.0" text-anchor="middle" font-family="Helvetica, Arial, sans-serif" font-size="14" font-weight="normal" fill="#6b7684">3</text>
<text x="792.0" y="564.0" text-anchor="middle" font-family="Helvetica, Arial, sans-serif" font-size="14" font-weight="normal" fill="#6b7684">4</text>
<text x="442.0" y="592.0" text-anchor="middle" font-family="Helvetica, Arial, sans-serif" font-size="18" font-weight="bold" fill="#1a1a1a">training round</text>
<text x="34" y="338.0" text-anchor="middle" font-size="18" font-weight="bold" fill="#1a1a1a" font-family="Helvetica, Arial, sans-serif" transform="rotate(-90 34 338.0)">mean utilization</text>
<polyline points="92.0,138.0 325.3,138.0 558.7,138.0 792.0,138.0" fill="none" stroke="#b5342c" stroke-width="2.8" stroke-dasharray="6 4"/>
<circle cx="92.0" cy="138.0" r="4" fill="#b5342c"/>
<circle cx="325.3" cy="138.0" r="4" fill="#b5342c"/>
<circle cx="558.7" cy="138.0" r="4" fill="#b5342c"/>
<circle cx="792.0" cy="138.0" r="4" fill="#b5342c"/>
<line x1="812" y1="137.0" x2="842" y2="137.0" stroke="#b5342c" stroke-width="3" stroke-dasharray="6 4"/>
<text x="850.0" y="142.0" text-anchor="start" font-family="Helvetica, Arial, sans-serif" font-size="15" font-weight="normal" fill="#1a1a1a">score oracle · OLMo</text>
<polyline points="92.0,451.2 325.3,463.0 558.7,414.2 792.0,353.9" fill="none" stroke="#c07d18" stroke-width="2.8" stroke-dasharray="6 4"/>
<circle cx="92.0" cy="451.2" r="4" fill="#c07d18"/>
<circle cx="325.3" cy="463.0" r="4" fill="#c07d18"/>
<circle cx="558.7" cy="414.2" r="4" fill="#c07d18"/>
<circle cx="792.0" cy="353.9" r="4" fill="#c07d18"/>
<line x1="812" y1="164.0" x2="842" y2="164.0" stroke="#c07d18" stroke-width="3" stroke-dasharray="6 4"/>
<text x="850.0" y="169.0" text-anchor="start" font-family="Helvetica, Arial, sans-serif" font-size="15" font-weight="normal" fill="#1a1a1a">base · OLMo</text>
<polyline points="92.0,413.3 325.3,410.0 558.7,450.2 792.0,428.2" fill="none" stroke="#3a7d44" stroke-width="2.8" stroke-dasharray="6 4"/>
<circle cx="92.0" cy="413.3" r="4" fill="#3a7d44"/>
<circle cx="325.3" cy="410.0" r="4" fill="#3a7d44"/>
<circle cx="558.7" cy="450.2" r="4" fill="#3a7d44"/>
<circle cx="792.0" cy="428.2" r="4" fill="#3a7d44"/>
<line x1="812" y1="191.0" x2="842" y2="191.0" stroke="#3a7d44" stroke-width="3" stroke-dasharray="6 4"/>
<text x="850.0" y="196.0" text-anchor="start" font-family="Helvetica, Arial, sans-serif" font-size="15" font-weight="normal" fill="#1a1a1a">cautious copy · OLMo</text>
<polyline points="92.0,478.2 325.3,484.3 558.7,458.0 792.0,398.9" fill="none" stroke="#2867b5" stroke-width="2.8"/>
<circle cx="92.0" cy="478.2" r="4" fill="#2867b5"/>
<circle cx="325.3" cy="484.3" r="4" fill="#2867b5"/>
<circle cx="558.7" cy="458.0" r="4" fill="#2867b5"/>
<circle cx="792.0" cy="398.9" r="4" fill="#2867b5"/>
<line x1="812" y1="218.0" x2="842" y2="218.0" stroke="#2867b5" stroke-width="3"/>
<text x="850.0" y="223.0" text-anchor="start" font-family="Helvetica, Arial, sans-serif" font-size="15" font-weight="normal" fill="#1a1a1a">self · Qwen</text>
<polyline points="92.0,471.3 325.3,480.2 558.7,452.4 792.0,475.4" fill="none" stroke="#6b7684" stroke-width="2.8"/>
<circle cx="92.0" cy="471.3" r="4" fill="#6b7684"/>
<circle cx="325.3" cy="480.2" r="4" fill="#6b7684"/>
<circle cx="558.7" cy="452.4" r="4" fill="#6b7684"/>
<circle cx="792.0" cy="475.4" r="4" fill="#6b7684"/>
<line x1="812" y1="245.0" x2="842" y2="245.0" stroke="#6b7684" stroke-width="3"/>
<text x="850.0" y="250.0" text-anchor="start" font-family="Helvetica, Arial, sans-serif" font-size="15" font-weight="normal" fill="#1a1a1a">random · Qwen</text>
<polyline points="92.0,463.9 325.3,470.7 558.7,472.5 792.0,481.2" fill="none" stroke="#c07d18" stroke-width="2.8"/>
<circle cx="92.0" cy="463.9" r="4" fill="#c07d18"/>
<circle cx="325.3" cy="470.7" r="4" fill="#c07d18"/>
<circle cx="558.7" cy="472.5" r="4" fill="#c07d18"/>
<circle cx="792.0" cy="481.2" r="4" fill="#c07d18"/>
<line x1="812" y1="272.0" x2="842" y2="272.0" stroke="#c07d18" stroke-width="3"/>
<text x="850.0" y="277.0" text-anchor="start" font-family="Helvetica, Arial, sans-serif" font-size="15" font-weight="normal" fill="#1a1a1a">base · Qwen</text>
<polyline points="92.0,478.2 325.3,485.8 558.7,485.8 792.0,480.9" fill="none" stroke="#8a5a9e" stroke-width="2.8"/>
<circle cx="92.0" cy="478.2" r="4" fill="#8a5a9e"/>
<circle cx="325.3" cy="485.8" r="4" fill="#8a5a9e"/>
<circle cx="558.7" cy="485.8" r="4" fill="#8a5a9e"/>
<circle cx="792.0" cy="480.9" r="4" fill="#8a5a9e"/>
<line x1="812" y1="299.0" x2="842" y2="299.0" stroke="#8a5a9e" stroke-width="3"/>
<text x="850.0" y="304.0" text-anchor="start" font-family="Helvetica, Arial, sans-serif" font-size="15" font-weight="normal" fill="#1a1a1a">risk copy · Qwen</text>
</svg>