<svg xmlns="http://www.w3.org/2000/svg" viewBox="0 0 1068 840" font-family="Helvetica, Arial, sans-serif">
<rect width="1068" height="840" fill="white"/>
<text x="553.0" y="46.0" text-anchor="middle" font-family="Helvetica, Arial, sans-serif" font-size="29" font-weight="bold" fill="#1a1a1a">Which way each judge pulls, by value level</text>
<text x="553.0" y="78.0" text-anchor="middle" font-family="Helvetica, Arial, sans-serif" font-size="17" font-weight="normal" fill="#6b7684">Own-pool loops. The selection gap (up = pulls value up) against the current value.</text>
<text x="553.0" y="100.0" text-anchor="middle" font-family="Helvetica, Arial, sans-serif" font-size="15" font-weight="normal" fill="#6b7684">each path = one run; dot per training round, arrow to the next round · same axes in every panel</text>
<rect x="78" y="128" width="306" height="306" rx="9" fill="white" stroke="#d0d7de" stroke-width="1.3"/>
<line x1="111.2" y1="138" x2="111.2" y2="420" stroke="#eceef1" stroke-width="1.2"/>
<line x1="88" y1="293.0" x2="374" y2="293.0" stroke="#eceef1" stroke-width="1.2"/>
<line x1="253.5" y1="297.9" x2="246.2" y2="300.7" stroke="#2867b5" stroke-width="1.9" stroke-opacity="0.72" stroke-linecap="round"/><polygon points="241.0,302.7 245.2,298.0 247.3,303.3" fill="#2867b5" fill-opacity="0.72"/>
<line x1="241.0" y1="302.7" x2="224.2" y2="347.3" stroke="#2867b5" stroke-width="1.9" stroke-opacity="0.72" stroke-linecap="round"/><polygon points="221.0,355.7 220.0,345.7 228.4,348.9" fill="#2867b5" fill-opacity="0.72"/>
<line x1="221.0" y1="355.7" x2="157.4" y2="289.9" stroke="#2867b5" stroke-width="1.9" stroke-opacity="0.72" stroke-linecap="round"/><polygon points="151.1,283.4 160.6,286.7 154.1,293.0" fill="#2867b5" fill-opacity="0.72"/>
<circle cx="253.5" cy="297.9" r="3.6" fill="#2867b5"/>
<circle cx="241.0" cy="302.7" r="3.6" fill="#2867b5"/>
<circle cx="221.0" cy="355.7" r="3.6" fill="#2867b5"/>
<circle cx="151.1" cy="283.4" r="3.6" fill="#2867b5"/>
<line x1="263.4" y1="317.1" x2="244.8" y2="277.1" stroke="#2867b5" stroke-width="1.9" stroke-opacity="0.72" stroke-linecap="round"/><polygon points="241.0,269.0 248.9,275.2 240.7,279.0" fill="#2867b5" fill-opacity="0.72"/>
<line x1="241.0" y1="269.0" x2="199.7" y2="280.9" stroke="#2867b5" stroke-width="1.9" stroke-opacity="0.72" stroke-linecap="round"/><polygon points="191.0,283.4 198.4,276.6 200.9,285.2" fill="#2867b5" fill-opacity="0.72"/>
<line x1="191.0" y1="283.4" x2="252.3" y2="300.3" stroke="#2867b5" stroke-width="1.9" stroke-opacity="0.72" stroke-linecap="round"/><polygon points="261.0,302.7 251.1,304.6 253.5,296.0" fill="#2867b5" fill-opacity="0.72"/>
<circle cx="263.4" cy="317.1" r="3.6" fill="#2867b5"/>
<circle cx="241.0" cy="269.0" r="3.6" fill="#2867b5"/>
<circle cx="191.0" cy="283.4" r="3.6" fill="#2867b5"/>
<circle cx="261.0" cy="302.7" r="3.6" fill="#2867b5"/>
<line x1="256.0" y1="259.3" x2="259.8" y2="288.9" stroke="#2867b5" stroke-width="1.9" stroke-opacity="0.72" stroke-linecap="round"/><polygon points="261.0,297.9 255.3,289.5 264.3,288.4" fill="#2867b5" fill-opacity="0.72"/>
<line x1="261.0" y1="297.9" x2="321.9" y2="302.1" stroke="#2867b5" stroke-width="1.9" stroke-opacity="0.72" stroke-linecap="round"/><polygon points="330.9,302.7 321.6,306.6 322.2,297.6" fill="#2867b5" fill-opacity="0.72"/>
<line x1="330.9" y1="302.7" x2="279.9" y2="306.8" stroke="#2867b5" stroke-width="1.9" stroke-opacity="0.72" stroke-linecap="round"/><polygon points="271.0,307.5 279.6,302.3 280.3,311.3" fill="#2867b5" fill-opacity="0.72"/>
<circle cx="256.0" cy="259.3" r="3.6" fill="#2867b5"/>
<circle cx="261.0" cy="297.9" r="3.6" fill="#2867b5"/>
<circle cx="330.9" cy="302.7" r="3.6" fill="#2867b5"/>
<circle cx="271.0" cy="307.5" r="3.6" fill="#2867b5"/>
<line x1="251.0" y1="297.9" x2="251.0" y2="289.5" stroke="#2867b5" stroke-width="1.9" stroke-opacity="0.72" stroke-linecap="round"/><polygon points="251.0,283.4 254.0,289.5 247.9,289.5" fill="#2867b5" fill-opacity="0.72"/>
<line x1="251.0" y1="283.4" x2="245.1" y2="294.7" stroke="#2867b5" stroke-width="1.9" stroke-opacity="0.72" stroke-linecap="round"/><polygon points="241.0,302.7 241.1,292.6 249.1,296.8" fill="#2867b5" fill-opacity="0.72"/>
<line x1="241.0" y1="302.7" x2="241.0" y2="171.9" stroke="#2867b5" stroke-width="1.9" stroke-opacity="0.72" stroke-linecap="round"/><polygon points="241.0,162.9 245.5,171.9 236.5,171.9" fill="#2867b5" fill-opacity="0.72"/>
<circle cx="251.0" cy="297.9" r="3.6" fill="#2867b5"/>
<circle cx="251.0" cy="283.4" r="3.6" fill="#2867b5"/>
<circle cx="241.0" cy="302.7" r="3.6" fill="#2867b5"/>
<circle cx="241.0" cy="162.9" r="3.6" fill="#2867b5"/>
<circle cx="92" cy="148" r="7" fill="#2867b5"/>
<text x="105.0" y="153.0" text-anchor="start" font-family="Helvetica, Arial, sans-serif" font-size="19" font-weight="bold" fill="#1a1a1a">self</text>
<text x="374.0" y="153.0" text-anchor="end" font-family="Helvetica, Arial, sans-serif" font-size="13.5" font-weight="normal" fill="#6b7684">4 runs · Qwen</text>
<rect x="400" y="128" width="306" height="306" rx="9" fill="white" stroke="#d0d7de" stroke-width="1.3"/>
<line x1="433.2" y1="138" x2="433.2" y2="420" stroke="#eceef1" stroke-width="1.2"/>
<line x1="410" y1="293.0" x2="696" y2="293.0" stroke="#eceef1" stroke-width="1.2"/>
<line x1="575.5" y1="297.9" x2="575.3" y2="298.3" stroke="#8a5a9e" stroke-width="1.9" stroke-opacity="0.72" stroke-linecap="round"/><polygon points="573.0,302.7 573.1,297.1 577.5,299.4" fill="#8a5a9e" fill-opacity="0.72"/>
<line x1="573.0" y1="302.7" x2="552.0" y2="302.7" stroke="#8a5a9e" stroke-width="1.9" stroke-opacity="0.72" stroke-linecap="round"/><polygon points="543.0,302.7 552.0,298.2 552.0,307.2" fill="#8a5a9e" fill-opacity="0.72"/>
<line x1="543.0" y1="302.7" x2="584.0" y2="306.6" stroke="#8a5a9e" stroke-width="1.9" stroke-opacity="0.72" stroke-linecap="round"/><polygon points="593.0,307.5 583.6,311.1 584.4,302.2" fill="#8a5a9e" fill-opacity="0.72"/>
<circle cx="575.5" cy="297.9" r="3.6" fill="#8a5a9e"/>
<circle cx="573.0" cy="302.7" r="3.6" fill="#8a5a9e"/>
<circle cx="543.0" cy="302.7" r="3.6" fill="#8a5a9e"/>
<circle cx="593.0" cy="307.5" r="3.6" fill="#8a5a9e"/>
<line x1="585.4" y1="317.1" x2="577.1" y2="301.0" stroke="#8a5a9e" stroke-width="1.9" stroke-opacity="0.72" stroke-linecap="round"/><polygon points="573.0,293.0 581.1,299.0 573.1,303.1" fill="#8a5a9e" fill-opacity="0.72"/>
<line x1="573.0" y1="293.0" x2="531.9" y2="285.1" stroke="#8a5a9e" stroke-width="1.9" stroke-opacity="0.72" stroke-linecap="round"/><polygon points="523.0,283.4 532.7,280.7 531.0,289.5" fill="#8a5a9e" fill-opacity="0.72"/>
<line x1="523.0" y1="283.4" x2="546.0" y2="301.9" stroke="#8a5a9e" stroke-width="1.9" stroke-opacity="0.72" stroke-linecap="round"/><polygon points="553.0,307.5 543.2,305.4 548.8,298.4" fill="#8a5a9e" fill-opacity="0.72"/>
<circle cx="585.4" cy="317.1" r="3.6" fill="#8a5a9e"/>
<circle cx="573.0" cy="293.0" r="3.6" fill="#8a5a9e"/>
<circle cx="523.0" cy="283.4" r="3.6" fill="#8a5a9e"/>
<circle cx="553.0" cy="307.5" r="3.6" fill="#8a5a9e"/>
<line x1="578.0" y1="259.3" x2="573.8" y2="303.4" stroke="#8a5a9e" stroke-width="1.9" stroke-opacity="0.72" stroke-linecap="round"/><polygon points="573.0,312.3 569.3,303.0 578.3,303.8" fill="#8a5a9e" fill-opacity="0.72"/>
<line x1="573.0" y1="312.3" x2="573.0" y2="303.9" stroke="#8a5a9e" stroke-width="1.9" stroke-opacity="0.72" stroke-linecap="round"/><polygon points="573.0,297.9 576.0,303.9 569.9,303.9" fill="#8a5a9e" fill-opacity="0.72"/>
<line x1="573.0" y1="297.9" x2="595.3" y2="312.3" stroke="#8a5a9e" stroke-width="1.9" stroke-opacity="0.72" stroke-linecap="round"/><polygon points="602.9,317.1 592.9,316.0 597.8,308.5" fill="#8a5a9e" fill-opacity="0.72"/>
<circle cx="578.0" cy="259.3" r="3.6" fill="#8a5a9e"/>
<circle cx="573.0" cy="312.3" r="3.6" fill="#8a5a9e"/>
<circle cx="573.0" cy="297.9" r="3.6" fill="#8a5a9e"/>
<circle cx="602.9" cy="317.1" r="3.6" fill="#8a5a9e"/>
<line x1="573.0" y1="297.9" x2="551.9" y2="294.5" stroke="#8a5a9e" stroke-width="1.9" stroke-opacity="0.72" stroke-linecap="round"/><polygon points="543.0,293.0 552.6,290.0 551.2,298.9" fill="#8a5a9e" fill-opacity="0.72"/>
<line x1="543.0" y1="293.0" x2="564.0" y2="293.0" stroke="#8a5a9e" stroke-width="1.9" stroke-opacity="0.72" stroke-linecap="round"/><polygon points="573.0,293.0 564.0,297.5 564.0,288.5" fill="#8a5a9e" fill-opacity="0.72"/>
<line x1="573.0" y1="293.0" x2="558.1" y2="271.5" stroke="#8a5a9e" stroke-width="1.9" stroke-opacity="0.72" stroke-linecap="round"/><polygon points="553.0,264.1 561.8,269.0 554.4,274.1" fill="#8a5a9e" fill-opacity="0.72"/>
<circle cx="573.0" cy="297.9" r="3.6" fill="#8a5a9e"/>
<circle cx="543.0" cy="293.0" r="3.6" fill="#8a5a9e"/>
<circle cx="573.0" cy="293.0" r="3.6" fill="#8a5a9e"/>
<circle cx="553.0" cy="264.1" r="3.6" fill="#8a5a9e"/>
<circle cx="414" cy="148" r="7" fill="#8a5a9e"/>
<text x="427.0" y="153.0" text-anchor="start" font-family="Helvetica, Arial, sans-serif" font-size="19" font-weight="bold" fill="#1a1a1a">risk copy</text>
<text x="696.0" y="153.0" text-anchor="end" font-family="Helvetica, Arial, sans-serif" font-size="13.5" font-weight="normal" fill="#6b7684">4 runs · Qwen</text>
<rect x="722" y="128" width="306" height="306" rx="9" fill="white" stroke="#d0d7de" stroke-width="1.3"/>
<line x1="755.2" y1="138" x2="755.2" y2="420" stroke="#eceef1" stroke-width="1.2"/>
<line x1="732" y1="293.0" x2="1018" y2="293.0" stroke="#eceef1" stroke-width="1.2"/>
<line x1="812.4" y1="326.8" x2="784.0" y2="294.9" stroke="#3a7d44" stroke-width="1.9" stroke-opacity="0.72" stroke-linecap="round"/><polygon points="778.0,288.2 787.3,291.9 780.6,297.9" fill="#3a7d44" fill-opacity="0.72"/>
<line x1="778.0" y1="288.2" x2="776.8" y2="299.4" stroke="#3a7d44" stroke-width="1.9" stroke-opacity="0.72" stroke-linecap="round"/><polygon points="776.0,307.5 772.8,299.0 780.9,299.8" fill="#3a7d44" fill-opacity="0.72"/>
<line x1="776.0" y1="307.5" x2="791.1" y2="277.0" stroke="#3a7d44" stroke-width="1.9" stroke-opacity="0.72" stroke-linecap="round"/><polygon points="795.1,269.0 795.2,279.0 787.1,275.0" fill="#3a7d44" fill-opacity="0.72"/>
<rect x="808.8" y="323.2" width="7.2" height="7.2" fill="#3a7d44"/>
<rect x="774.4" y="284.6" width="7.2" height="7.2" fill="#3a7d44"/>
<rect x="772.4" y="303.9" width="7.2" height="7.2" fill="#3a7d44"/>
<rect x="791.5" y="265.4" width="7.2" height="7.2" fill="#3a7d44"/>
<line x1="813.8" y1="322.0" x2="783.9" y2="314.5" stroke="#3a7d44" stroke-width="1.9" stroke-opacity="0.72" stroke-linecap="round"/><polygon points="775.1,312.3 785.0,310.1 782.8,318.9" fill="#3a7d44" fill-opacity="0.72"/>
<line x1="775.1" y1="312.3" x2="769.3" y2="301.0" stroke="#3a7d44" stroke-width="1.9" stroke-opacity="0.72" stroke-linecap="round"/><polygon points="765.2,293.0 773.3,299.0 765.3,303.1" fill="#3a7d44" fill-opacity="0.72"/>
<line x1="765.2" y1="293.0" x2="765.2" y2="288.4" stroke="#3a7d44" stroke-width="1.9" stroke-opacity="0.72" stroke-linecap="round"/><polygon points="765.2,283.4 767.7,288.4 762.7,288.4" fill="#3a7d44" fill-opacity="0.72"/>
<rect x="810.2" y="318.4" width="7.2" height="7.2" fill="#3a7d44"/>
<rect x="771.5" y="308.7" width="7.2" height="7.2" fill="#3a7d44"/>
<rect x="761.6" y="289.4" width="7.2" height="7.2" fill="#3a7d44"/>
<rect x="761.6" y="279.8" width="7.2" height="7.2" fill="#3a7d44"/>
<line x1="812.6" y1="326.8" x2="774.2" y2="315.0" stroke="#3a7d44" stroke-width="1.9" stroke-opacity="0.72" stroke-linecap="round"/><polygon points="765.6,312.3 775.5,310.7 772.9,319.3" fill="#3a7d44" fill-opacity="0.72"/>
<line x1="765.6" y1="312.3" x2="759.6" y2="306.7" stroke="#3a7d44" stroke-width="1.9" stroke-opacity="0.72" stroke-linecap="round"/><polygon points="755.2,302.7 761.6,304.6 757.5,308.9" fill="#3a7d44" fill-opacity="0.72"/>
<line x1="755.2" y1="302.7" x2="755.2" y2="298.0" stroke="#3a7d44" stroke-width="1.9" stroke-opacity="0.72" stroke-linecap="round"/><polygon points="755.2,293.0 757.7,298.0 752.7,298.0" fill="#3a7d44" fill-opacity="0.72"/>
<rect x="809.0" y="323.2" width="7.2" height="7.2" fill="#3a7d44"/>
<rect x="762.0" y="308.7" width="7.2" height="7.2" fill="#3a7d44"/>
<rect x="751.6" y="299.1" width="7.2" height="7.2" fill="#3a7d44"/>
<rect x="751.6" y="289.4" width="7.2" height="7.2" fill="#3a7d44"/>
<line x1="805.6" y1="293.0" x2="846.2" y2="325.9" stroke="#3a7d44" stroke-width="1.9" stroke-opacity="0.72" stroke-linecap="round"/><polygon points="853.2,331.6 843.4,329.4 849.1,322.4" fill="#3a7d44" fill-opacity="0.72"/>
<line x1="853.2" y1="331.6" x2="824.1" y2="331.6" stroke="#3a7d44" stroke-width="1.9" stroke-opacity="0.72" stroke-linecap="round"/><polygon points="815.1,331.6 824.1,327.1 824.1,336.1" fill="#3a7d44" fill-opacity="0.72"/>
<line x1="815.1" y1="331.6" x2="794.0" y2="328.2" stroke="#3a7d44" stroke-width="1.9" stroke-opacity="0.72" stroke-linecap="round"/><polygon points="785.1,326.8 794.7,323.8 793.3,332.7" fill="#3a7d44" fill-opacity="0.72"/>
<rect x="802.0" y="289.4" width="7.2" height="7.2" fill="#3a7d44"/>
<rect x="849.6" y="328.0" width="7.2" height="7.2" fill="#3a7d44"/>
<rect x="811.5" y="328.0" width="7.2" height="7.2" fill="#3a7d44"/>
<rect x="781.5" y="323.2" width="7.2" height="7.2" fill="#3a7d44"/>
<circle cx="736" cy="148" r="7" fill="#3a7d44"/>
<text x="749.0" y="153.0" text-anchor="start" font-family="Helvetica, Arial, sans-serif" font-size="19" font-weight="bold" fill="#1a1a1a">cautious copy</text>
<text x="1018.0" y="153.0" text-anchor="end" font-family="Helvetica, Arial, sans-serif" font-size="13.5" font-weight="normal" fill="#6b7684">4 runs · OLMo</text>
<rect x="78" y="450" width="306" height="306" rx="9" fill="white" stroke="#d0d7de" stroke-width="1.3"/>
<line x1="111.2" y1="460" x2="111.2" y2="742" stroke="#eceef1" stroke-width="1.2"/>
<line x1="88" y1="615.0" x2="374" y2="615.0" stroke="#eceef1" stroke-width="1.2"/>
<line x1="253.5" y1="663.2" x2="251.4" y2="624.0" stroke="#6b7684" stroke-width="1.9" stroke-opacity="0.72" stroke-linecap="round"/><polygon points="251.0,615.0 255.9,623.8 246.9,624.3" fill="#6b7684" fill-opacity="0.72"/>

<line x1="251.0" y1="615.0" x2="263.7" y2="624.2" stroke="#6b7684" stroke-width="1.9" stroke-opacity="0.72" stroke-linecap="round"/><polygon points="271.0,629.5 261.0,627.9 266.3,620.6" fill="#6b7684" fill-opacity="0.72"/>
<circle cx="253.5" cy="663.2" r="3.6" fill="#6b7684"/>
<circle cx="251.0" cy="615.0" r="3.6" fill="#6b7684"/>
<circle cx="251.0" cy="615.0" r="3.6" fill="#6b7684"/>
<circle cx="271.0" cy="629.5" r="3.6" fill="#6b7684"/>
<line x1="263.4" y1="639.1" x2="250.0" y2="639.1" stroke="#6b7684" stroke-width="1.9" stroke-opacity="0.72" stroke-linecap="round"/><polygon points="241.0,639.1 250.0,634.6 250.0,643.6" fill="#6b7684" fill-opacity="0.72"/>
<line x1="241.0" y1="639.1" x2="217.5" y2="616.5" stroke="#6b7684" stroke-width="1.9" stroke-opacity="0.72" stroke-linecap="round"/><polygon points="211.0,610.2 220.6,613.2 214.4,619.7" fill="#6b7684" fill-opacity="0.72"/>

<circle cx="263.4" cy="639.1" r="3.6" fill="#6b7684"/>
<circle cx="241.0" cy="639.1" r="3.6" fill="#6b7684"/>
<circle cx="211.0" cy="610.2" r="3.6" fill="#6b7684"/>
<circle cx="211.0" cy="610.2" r="3.6" fill="#6b7684"/>
<line x1="256.0" y1="610.2" x2="226.7" y2="646.6" stroke="#6b7684" stroke-width="1.9" stroke-opacity="0.72" stroke-linecap="round"/><polygon points="221.0,653.6 223.2,643.8 230.2,649.4" fill="#6b7684" fill-opacity="0.72"/>
<line x1="221.0" y1="653.6" x2="203.3" y2="585.2" stroke="#6b7684" stroke-width="1.9" stroke-opacity="0.72" stroke-linecap="round"/><polygon points="201.0,576.5 207.7,584.1 198.9,586.3" fill="#6b7684" fill-opacity="0.72"/>
<line x1="201.0" y1="576.5" x2="206.8" y2="582.1" stroke="#6b7684" stroke-width="1.9" stroke-opacity="0.72" stroke-linecap="round"/><polygon points="211.0,586.1 204.8,584.2 208.9,580.0" fill="#6b7684" fill-opacity="0.72"/>
<circle cx="256.0" cy="610.2" r="3.6" fill="#6b7684"/>
<circle cx="221.0" cy="653.6" r="3.6" fill="#6b7684"/>
<circle cx="201.0" cy="576.5" r="3.6" fill="#6b7684"/>
<circle cx="211.0" cy="586.1" r="3.6" fill="#6b7684"/>
<line x1="251.0" y1="648.8" x2="216.2" y2="598.4" stroke="#6b7684" stroke-width="1.9" stroke-opacity="0.72" stroke-linecap="round"/><polygon points="211.0,591.0 219.9,595.8 212.4,600.9" fill="#6b7684" fill-opacity="0.72"/>
<line x1="211.0" y1="591.0" x2="236.6" y2="636.1" stroke="#6b7684" stroke-width="1.9" stroke-opacity="0.72" stroke-linecap="round"/><polygon points="241.0,644.0 232.6,638.3 240.5,633.9" fill="#6b7684" fill-opacity="0.72"/>
<line x1="241.0" y1="644.0" x2="246.8" y2="635.6" stroke="#6b7684" stroke-width="1.9" stroke-opacity="0.72" stroke-linecap="round"/><polygon points="251.0,629.5 249.8,637.7 243.7,633.5" fill="#6b7684" fill-opacity="0.72"/>
<circle cx="251.0" cy="648.8" r="3.6" fill="#6b7684"/>
<circle cx="211.0" cy="591.0" r="3.6" fill="#6b7684"/>
<circle cx="241.0" cy="644.0" r="3.6" fill="#6b7684"/>
<circle cx="251.0" cy="629.5" r="3.6" fill="#6b7684"/>
<line x1="168.4" y1="619.9" x2="167.0" y2="624.7" stroke="#6b7684" stroke-width="1.9" stroke-opacity="0.72" stroke-linecap="round"/><polygon points="165.6,629.5 164.6,624.0 169.4,625.4" fill="#6b7684" fill-opacity="0.72"/>
<line x1="165.6" y1="629.5" x2="158.2" y2="637.9" stroke="#6b7684" stroke-width="1.9" stroke-opacity="0.72" stroke-linecap="round"/><polygon points="152.8,644.0 155.2,635.2 161.3,640.6" fill="#6b7684" fill-opacity="0.72"/>
<line x1="152.8" y1="644.0" x2="144.1" y2="618.7" stroke="#6b7684" stroke-width="1.9" stroke-opacity="0.72" stroke-linecap="round"/><polygon points="141.1,610.2 148.3,617.2 139.8,620.2" fill="#6b7684" fill-opacity="0.72"/>
<rect x="164.8" y="616.3" width="7.2" height="7.2" fill="#6b7684"/>
<rect x="162.0" y="625.9" width="7.2" height="7.2" fill="#6b7684"/>
<rect x="149.2" y="640.4" width="7.2" height="7.2" fill="#6b7684"/>
<rect x="137.5" y="606.6" width="7.2" height="7.2" fill="#6b7684"/>
<line x1="169.8" y1="644.0" x2="148.0" y2="625.7" stroke="#6b7684" stroke-width="1.9" stroke-opacity="0.72" stroke-linecap="round"/><polygon points="141.1,619.9 150.9,622.2 145.1,629.1" fill="#6b7684" fill-opacity="0.72"/>
<line x1="141.1" y1="619.9" x2="118.7" y2="605.4" stroke="#6b7684" stroke-width="1.9" stroke-opacity="0.72" stroke-linecap="round"/><polygon points="111.2,600.6 121.2,601.7 116.3,609.2" fill="#6b7684" fill-opacity="0.72"/>
<line x1="111.2" y1="600.6" x2="119.9" y2="664.0" stroke="#6b7684" stroke-width="1.9" stroke-opacity="0.72" stroke-linecap="round"/><polygon points="121.2,672.9 115.5,664.6 124.4,663.4" fill="#6b7684" fill-opacity="0.72"/>
<rect x="166.2" y="640.4" width="7.2" height="7.2" fill="#6b7684"/>
<rect x="137.5" y="616.3" width="7.2" height="7.2" fill="#6b7684"/>
<rect x="107.6" y="597.0" width="7.2" height="7.2" fill="#6b7684"/>
<rect x="117.6" y="669.3" width="7.2" height="7.2" fill="#6b7684"/>
<line x1="167.3" y1="615.0" x2="170.6" y2="556.6" stroke="#6b7684" stroke-width="1.9" stroke-opacity="0.72" stroke-linecap="round"/><polygon points="171.1,547.6 175.1,556.8 166.1,556.3" fill="#6b7684" fill-opacity="0.72"/>
<line x1="171.1" y1="547.6" x2="182.7" y2="550.4" stroke="#6b7684" stroke-width="1.9" stroke-opacity="0.72" stroke-linecap="round"/><polygon points="191.0,552.4 181.7,554.5 183.7,546.2" fill="#6b7684" fill-opacity="0.72"/>
<line x1="191.0" y1="552.4" x2="224.9" y2="589.1" stroke="#6b7684" stroke-width="1.9" stroke-opacity="0.72" stroke-linecap="round"/><polygon points="231.0,595.7 221.6,592.2 228.2,586.1" fill="#6b7684" fill-opacity="0.72"/>
<rect x="163.7" y="611.4" width="7.2" height="7.2" fill="#6b7684"/>
<rect x="167.5" y="544.0" width="7.2" height="7.2" fill="#6b7684"/>
<rect x="187.4" y="548.8" width="7.2" height="7.2" fill="#6b7684"/>
<rect x="227.4" y="592.1" width="7.2" height="7.2" fill="#6b7684"/>
<line x1="175.6" y1="644.0" x2="147.6" y2="616.5" stroke="#6b7684" stroke-width="1.9" stroke-opacity="0.72" stroke-linecap="round"/><polygon points="141.1,610.2 150.7,613.3 144.4,619.7" fill="#6b7684" fill-opacity="0.72"/>
<line x1="141.1" y1="610.2" x2="141.9" y2="599.0" stroke="#6b7684" stroke-width="1.9" stroke-opacity="0.72" stroke-linecap="round"/><polygon points="142.4,591.0 145.9,599.3 137.8,598.8" fill="#6b7684" fill-opacity="0.72"/>
<line x1="142.4" y1="591.0" x2="141.7" y2="579.8" stroke="#6b7684" stroke-width="1.9" stroke-opacity="0.72" stroke-linecap="round"/><polygon points="141.1,571.7 145.7,579.5 137.6,580.0" fill="#6b7684" fill-opacity="0.72"/>
<rect x="172.0" y="640.4" width="7.2" height="7.2" fill="#6b7684"/>
<rect x="137.5" y="606.6" width="7.2" height="7.2" fill="#6b7684"/>
<rect x="138.8" y="587.4" width="7.2" height="7.2" fill="#6b7684"/>
<rect x="137.5" y="568.1" width="7.2" height="7.2" fill="#6b7684"/>
<line x1="168.6" y1="619.9" x2="159.5" y2="614.3" stroke="#6b7684" stroke-width="1.9" stroke-opacity="0.72" stroke-linecap="round"/><polygon points="152.8,610.2 161.5,611.0 157.4,617.6" fill="#6b7684" fill-opacity="0.72"/>
<line x1="152.8" y1="610.2" x2="152.8" y2="610.1" stroke="#6b7684" stroke-width="1.9" stroke-opacity="0.72" stroke-linecap="round"/><polygon points="151.1,605.4 155.2,609.3 150.5,610.9" fill="#6b7684" fill-opacity="0.72"/>
<line x1="151.1" y1="605.4" x2="128.7" y2="591.0" stroke="#6b7684" stroke-width="1.9" stroke-opacity="0.72" stroke-linecap="round"/><polygon points="121.2,586.1 131.2,587.2 126.3,594.8" fill="#6b7684" fill-opacity="0.72"/>
<rect x="165.0" y="616.3" width="7.2" height="7.2" fill="#6b7684"/>
<rect x="149.2" y="606.6" width="7.2" height="7.2" fill="#6b7684"/>
<rect x="147.5" y="601.8" width="7.2" height="7.2" fill="#6b7684"/>
<rect x="117.6" y="582.5" width="7.2" height="7.2" fill="#6b7684"/>
<line x1="161.6" y1="571.7" x2="166.7" y2="601.3" stroke="#6b7684" stroke-width="1.9" stroke-opacity="0.72" stroke-linecap="round"/><polygon points="168.2,610.2 162.3,602.1 171.1,600.6" fill="#6b7684" fill-opacity="0.72"/>
<line x1="168.2" y1="610.2" x2="188.6" y2="536.9" stroke="#6b7684" stroke-width="1.9" stroke-opacity="0.72" stroke-linecap="round"/><polygon points="191.0,528.3 193.0,538.2 184.3,535.7" fill="#6b7684" fill-opacity="0.72"/>
<line x1="191.0" y1="528.3" x2="232.9" y2="548.5" stroke="#6b7684" stroke-width="1.9" stroke-opacity="0.72" stroke-linecap="round"/><polygon points="241.0,552.4 230.9,552.5 234.8,544.4" fill="#6b7684" fill-opacity="0.72"/>
<rect x="158.0" y="568.1" width="7.2" height="7.2" fill="#6b7684"/>
<rect x="164.6" y="606.6" width="7.2" height="7.2" fill="#6b7684"/>
<rect x="187.4" y="524.7" width="7.2" height="7.2" fill="#6b7684"/>
<rect x="237.4" y="548.8" width="7.2" height="7.2" fill="#6b7684"/>
<circle cx="92" cy="470" r="7" fill="#6b7684"/>
<text x="105.0" y="475.0" text-anchor="start" font-family="Helvetica, Arial, sans-serif" font-size="19" font-weight="bold" fill="#1a1a1a">base</text>
<text x="374.0" y="475.0" text-anchor="end" font-family="Helvetica, Arial, sans-serif" font-size="13.5" font-weight="normal" fill="#6b7684">10 runs · OLMo · Qwen</text>
<rect x="400" y="450" width="306" height="306" rx="9" fill="white" stroke="#d0d7de" stroke-width="1.3"/>
<line x1="433.2" y1="460" x2="433.2" y2="742" stroke="#eceef1" stroke-width="1.2"/>
<line x1="410" y1="615.0" x2="696" y2="615.0" stroke="#eceef1" stroke-width="1.2"/>
<line x1="575.5" y1="648.8" x2="539.7" y2="616.3" stroke="#c07d18" stroke-width="1.9" stroke-opacity="0.72" stroke-linecap="round"/><polygon points="533.0,610.2 542.7,612.9 536.7,619.6" fill="#c07d18" fill-opacity="0.72"/>
<line x1="533.0" y1="610.2" x2="604.1" y2="623.1" stroke="#c07d18" stroke-width="1.9" stroke-opacity="0.72" stroke-linecap="round"/><polygon points="612.9,624.7 603.3,627.5 604.9,618.7" fill="#c07d18" fill-opacity="0.72"/>
<line x1="612.9" y1="624.7" x2="578.7" y2="583.4" stroke="#c07d18" stroke-width="1.9" stroke-opacity="0.72" stroke-linecap="round"/><polygon points="573.0,576.5 582.2,580.5 575.2,586.3" fill="#c07d18" fill-opacity="0.72"/>
<circle cx="575.5" cy="648.8" r="3.6" fill="#c07d18"/>
<circle cx="533.0" cy="610.2" r="3.6" fill="#c07d18"/>
<circle cx="612.9" cy="624.7" r="3.6" fill="#c07d18"/>
<circle cx="573.0" cy="576.5" r="3.6" fill="#c07d18"/>
<line x1="585.4" y1="610.2" x2="585.3" y2="609.8" stroke="#c07d18" stroke-width="1.9" stroke-opacity="0.72" stroke-linecap="round"/><polygon points="583.0,605.4 587.5,608.7 583.0,611.0" fill="#c07d18" fill-opacity="0.72"/>
<line x1="583.0" y1="605.4" x2="492.0" y2="618.6" stroke="#c07d18" stroke-width="1.9" stroke-opacity="0.72" stroke-linecap="round"/><polygon points="483.1,619.9 491.4,614.1 492.6,623.0" fill="#c07d18" fill-opacity="0.72"/>
<line x1="483.1" y1="619.9" x2="505.5" y2="634.3" stroke="#c07d18" stroke-width="1.9" stroke-opacity="0.72" stroke-linecap="round"/><polygon points="513.0,639.1 503.0,638.0 507.9,630.5" fill="#c07d18" fill-opacity="0.72"/>
<circle cx="585.4" cy="610.2" r="3.6" fill="#c07d18"/>
<circle cx="583.0" cy="605.4" r="3.6" fill="#c07d18"/>
<circle cx="483.1" cy="619.9" r="3.6" fill="#c07d18"/>
<circle cx="513.0" cy="639.1" r="3.6" fill="#c07d18"/>
<line x1="578.0" y1="581.3" x2="566.3" y2="611.5" stroke="#c07d18" stroke-width="1.9" stroke-opacity="0.72" stroke-linecap="round"/><polygon points="563.0,619.9 562.1,609.8 570.4,613.1" fill="#c07d18" fill-opacity="0.72"/>
<line x1="563.0" y1="619.9" x2="625.7" y2="572.3" stroke="#c07d18" stroke-width="1.9" stroke-opacity="0.72" stroke-linecap="round"/><polygon points="632.9,566.8 628.4,575.9 623.0,568.7" fill="#c07d18" fill-opacity="0.72"/>
<line x1="632.9" y1="566.8" x2="624.3" y2="620.6" stroke="#c07d18" stroke-width="1.9" stroke-opacity="0.72" stroke-linecap="round"/><polygon points="622.9,629.5 619.9,619.9 628.8,621.3" fill="#c07d18" fill-opacity="0.72"/>
<circle cx="578.0" cy="581.3" r="3.6" fill="#c07d18"/>
<circle cx="563.0" cy="619.9" r="3.6" fill="#c07d18"/>
<circle cx="632.9" cy="566.8" r="3.6" fill="#c07d18"/>
<circle cx="622.9" cy="629.5" r="3.6" fill="#c07d18"/>
<line x1="573.0" y1="591.0" x2="607.8" y2="641.4" stroke="#c07d18" stroke-width="1.9" stroke-opacity="0.72" stroke-linecap="round"/><polygon points="612.9,648.8 604.1,643.9 611.5,638.8" fill="#c07d18" fill-opacity="0.72"/>
<line x1="612.9" y1="648.8" x2="600.2" y2="639.6" stroke="#c07d18" stroke-width="1.9" stroke-opacity="0.72" stroke-linecap="round"/><polygon points="593.0,634.3 602.9,636.0 597.6,643.3" fill="#c07d18" fill-opacity="0.72"/>
<line x1="593.0" y1="634.3" x2="578.7" y2="617.1" stroke="#c07d18" stroke-width="1.9" stroke-opacity="0.72" stroke-linecap="round"/><polygon points="573.0,610.2 582.2,614.3 575.2,620.0" fill="#c07d18" fill-opacity="0.72"/>
<circle cx="573.0" cy="591.0" r="3.6" fill="#c07d18"/>
<circle cx="612.9" cy="648.8" r="3.6" fill="#c07d18"/>
<circle cx="593.0" cy="634.3" r="3.6" fill="#c07d18"/>
<circle cx="573.0" cy="610.2" r="3.6" fill="#c07d18"/>
<circle cx="414" cy="470" r="7" fill="#c07d18"/>
<text x="427.0" y="475.0" text-anchor="start" font-family="Helvetica, Arial, sans-serif" font-size="19" font-weight="bold" fill="#1a1a1a">random</text>
<text x="696.0" y="475.0" text-anchor="end" font-family="Helvetica, Arial, sans-serif" font-size="13.5" font-weight="normal" fill="#6b7684">4 runs · Qwen</text>
<rect x="722" y="450" width="306" height="306" rx="9" fill="white" stroke="#d0d7de" stroke-width="1.3"/>
<line x1="755.2" y1="460" x2="755.2" y2="742" stroke="#eceef1" stroke-width="1.2"/>
<line x1="732" y1="615.0" x2="1018" y2="615.0" stroke="#eceef1" stroke-width="1.2"/>
<line x1="974.9" y1="653.6" x2="920.9" y2="714.4" stroke="#b5342c" stroke-width="1.9" stroke-opacity="0.72" stroke-linecap="round"/><polygon points="915.0,721.1 917.6,711.4 924.3,717.4" fill="#b5342c" fill-opacity="0.72"/>
<line x1="915.0" y1="721.1" x2="872.8" y2="696.7" stroke="#b5342c" stroke-width="1.9" stroke-opacity="0.72" stroke-linecap="round"/><polygon points="865.0,692.2 875.0,692.8 870.5,700.6" fill="#b5342c" fill-opacity="0.72"/>
<line x1="865.0" y1="692.2" x2="830.5" y2="646.3" stroke="#b5342c" stroke-width="1.9" stroke-opacity="0.72" stroke-linecap="round"/><polygon points="825.1,639.1 834.1,643.6 826.9,649.0" fill="#b5342c" fill-opacity="0.72"/>
<rect x="971.3" y="650.0" width="7.2" height="7.2" fill="#b5342c"/>
<rect x="911.4" y="717.5" width="7.2" height="7.2" fill="#b5342c"/>
<rect x="861.4" y="688.6" width="7.2" height="7.2" fill="#b5342c"/>
<rect x="821.5" y="635.5" width="7.2" height="7.2" fill="#b5342c"/>



<rect x="991.2" y="611.4" width="7.2" height="7.2" fill="#b5342c"/>
<rect x="991.2" y="611.4" width="7.2" height="7.2" fill="#b5342c"/>
<rect x="991.2" y="611.4" width="7.2" height="7.2" fill="#b5342c"/>
<rect x="991.2" y="611.4" width="7.2" height="7.2" fill="#b5342c"/>
<circle cx="736" cy="470" r="7" fill="#b5342c"/>
<text x="749.0" y="475.0" text-anchor="start" font-family="Helvetica, Arial, sans-serif" font-size="19" font-weight="bold" fill="#1a1a1a">score oracle</text>
<text x="1018.0" y="475.0" text-anchor="end" font-family="Helvetica, Arial, sans-serif" font-size="13.5" font-weight="normal" fill="#6b7684">2 runs · OLMo</text>
<text x="70.0" y="144.0" text-anchor="end" font-family="Helvetica, Arial, sans-serif" font-size="12.5" font-weight="normal" fill="#6b7684">0.37</text>
<text x="70.0" y="422.0" text-anchor="end" font-family="Helvetica, Arial, sans-serif" font-size="12.5" font-weight="normal" fill="#6b7684">-0.30</text>
<text x="70.0" y="466.0" text-anchor="end" font-family="Helvetica, Arial, sans-serif" font-size="12.5" font-weight="normal" fill="#6b7684">0.37</text>
<text x="70.0" y="744.0" text-anchor="end" font-family="Helvetica, Arial, sans-serif" font-size="12.5" font-weight="normal" fill="#6b7684">-0.30</text>
<text x="92.0" y="772.0" text-anchor="start" font-family="Helvetica, Arial, sans-serif" font-size="12.5" font-weight="normal" fill="#6b7684">0.01</text>
<text x="370.0" y="772.0" text-anchor="start" font-family="Helvetica, Arial, sans-serif" font-size="12.5" font-weight="normal" fill="#6b7684">0.99</text>
<text x="414.0" y="772.0" text-anchor="start" font-family="Helvetica, Arial, sans-serif" font-size="12.5" font-weight="normal" fill="#6b7684">0.01</text>
<text x="692.0" y="772.0" text-anchor="start" font-family="Helvetica, Arial, sans-serif" font-size="12.5" font-weight="normal" fill="#6b7684">0.99</text>
<text x="736.0" y="772.0" text-anchor="start" font-family="Helvetica, Arial, sans-serif" font-size="12.5" font-weight="normal" fill="#6b7684">0.01</text>
<text x="1014.0" y="772.0" text-anchor="start" font-family="Helvetica, Arial, sans-serif" font-size="12.5" font-weight="normal" fill="#6b7684">0.99</text>
<text x="553.0" y="800.0" text-anchor="middle" font-family="Helvetica, Arial, sans-serif" font-size="18" font-weight="bold" fill="#1a1a1a">x:  value  (free-gen risk)</text>
<text x="30" y="442.0" text-anchor="middle" font-family="Helvetica, Arial, sans-serif" font-size="18" font-weight="bold" fill="#1a1a1a" transform="rotate(-90 30 442.0)">y:  selection gap  (kept − pool)</text>
<text x="703.0" y="800.0" text-anchor="start" font-family="Helvetica, Arial, sans-serif" font-size="15" font-weight="normal" fill="#6b7684">○ Qwen  ▪ OLMo</text>
</svg>