<svg xmlns="http://www.w3.org/2000/svg" viewBox="0 0 1046 886" font-family="Helvetica, Arial, sans-serif">
<rect width="1046" height="886" fill="white"/>
<text x="544.0" y="46.0" text-anchor="middle" font-family="Helvetica, Arial, sans-serif" font-size="29" font-weight="bold" fill="#1a1a1a">The conversion cascade: spread → gap → value move, by judge</text>
<text x="544.0" y="78.0" text-anchor="middle" font-family="Helvetica, Arial, sans-serif" font-size="17" font-weight="normal" fill="#6b7684">Own-pool loops. Per round, the judge mean of: available spread, |selection gap| extracted, |value move| produced.</text>
<rect x="78" y="128" width="300" height="300" rx="9" fill="white" stroke="#d0d7de" stroke-width="1.3"/>
<text x="92.0" y="153.0" text-anchor="start" font-family="Helvetica, Arial, sans-serif" font-size="20" font-weight="bold" fill="#1a1a1a">self</text>
<text x="368.0" y="153.0" text-anchor="end" font-family="Helvetica, Arial, sans-serif" font-size="13.5" font-weight="normal" fill="#6b7684">4 runs</text>
<line x1="92" y1="363.2" x2="364" y2="363.2" stroke="#eef0f2" stroke-width="1"/>
<line x1="92" y1="314.4" x2="364" y2="314.4" stroke="#eef0f2" stroke-width="1"/>
<line x1="92" y1="265.6" x2="364" y2="265.6" stroke="#eef0f2" stroke-width="1"/>
<line x1="92" y1="216.8" x2="364" y2="216.8" stroke="#eef0f2" stroke-width="1"/>
<polyline points="92.0,192.3 182.7,207.9 273.3,217.8 364.0,248.2" fill="none" stroke="#6b7684" stroke-width="2.8" stroke-opacity="1.0" stroke-linejoin="round"/>
<circle cx="92.0" cy="192.3" r="3.2" fill="#6b7684"/>
<circle cx="182.7" cy="207.9" r="3.2" fill="#6b7684"/>
<circle cx="273.3" cy="217.8" r="3.2" fill="#6b7684"/>
<circle cx="364.0" cy="248.2" r="3.2" fill="#6b7684"/>
<polyline points="92.0,388.3 182.7,395.1 273.3,379.8 364.0,354.4" fill="none" stroke="#2867b5" stroke-width="2.8" stroke-opacity="1.0" stroke-linejoin="round"/>
<circle cx="92.0" cy="388.3" r="3.2" fill="#2867b5"/>
<circle cx="182.7" cy="395.1" r="3.2" fill="#2867b5"/>
<circle cx="273.3" cy="379.8" r="3.2" fill="#2867b5"/>
<circle cx="364.0" cy="354.4" r="3.2" fill="#2867b5"/>
<polyline points="92.0,391.7 182.7,335.8 273.3,310.3 364.0,309.1" fill="none" stroke="#b5342c" stroke-width="2.8" stroke-opacity="1.0" stroke-linejoin="round" stroke-dasharray="5 4"/>
<circle cx="92.0" cy="391.7" r="3.2" fill="#b5342c"/>
<circle cx="182.7" cy="335.8" r="3.2" fill="#b5342c"/>
<circle cx="273.3" cy="310.3" r="3.2" fill="#b5342c"/>
<circle cx="364.0" cy="309.1" r="3.2" fill="#b5342c"/>
<rect x="394" y="128" width="300" height="300" rx="9" fill="white" stroke="#d0d7de" stroke-width="1.3"/>
<text x="408.0" y="153.0" text-anchor="start" font-family="Helvetica, Arial, sans-serif" font-size="20" font-weight="bold" fill="#1a1a1a">risk copy</text>
<text x="684.0" y="153.0" text-anchor="end" font-family="Helvetica, Arial, sans-serif" font-size="13.5" font-weight="normal" fill="#6b7684">4 runs</text>
<line x1="408" y1="363.2" x2="680" y2="363.2" stroke="#eef0f2" stroke-width="1"/>
<line x1="408" y1="314.4" x2="680" y2="314.4" stroke="#eef0f2" stroke-width="1"/>
<line x1="408" y1="265.6" x2="680" y2="265.6" stroke="#eef0f2" stroke-width="1"/>
<line x1="408" y1="216.8" x2="680" y2="216.8" stroke="#eef0f2" stroke-width="1"/>
<polyline points="408.0,192.3 498.7,205.8 589.3,197.8 680.0,206.7" fill="none" stroke="#6b7684" stroke-width="2.8" stroke-opacity="1.0" stroke-linejoin="round"/>
<circle cx="408.0" cy="192.3" r="3.2" fill="#6b7684"/>
<circle cx="498.7" cy="205.8" r="3.2" fill="#6b7684"/>
<circle cx="589.3" cy="197.8" r="3.2" fill="#6b7684"/>
<circle cx="680.0" cy="206.7" r="3.2" fill="#6b7684"/>
<polyline points="408.0,388.3 498.7,401.8 589.3,403.5 680.0,383.2" fill="none" stroke="#2867b5" stroke-width="2.8" stroke-opacity="1.0" stroke-linejoin="round"/>
<circle cx="408.0" cy="388.3" r="3.2" fill="#2867b5"/>
<circle cx="498.7" cy="401.8" r="3.2" fill="#2867b5"/>
<circle cx="589.3" cy="403.5" r="3.2" fill="#2867b5"/>
<circle cx="680.0" cy="383.2" r="3.2" fill="#2867b5"/>
<polyline points="408.0,386.6 498.7,356.1 589.3,345.9 680.0,359.9" fill="none" stroke="#b5342c" stroke-width="2.8" stroke-opacity="1.0" stroke-linejoin="round" stroke-dasharray="5 4"/>
<circle cx="408.0" cy="386.6" r="3.2" fill="#b5342c"/>
<circle cx="498.7" cy="356.1" r="3.2" fill="#b5342c"/>
<circle cx="589.3" cy="345.9" r="3.2" fill="#b5342c"/>
<circle cx="680.0" cy="359.9" r="3.2" fill="#b5342c"/>
<rect x="710" y="128" width="300" height="300" rx="9" fill="white" stroke="#d0d7de" stroke-width="1.3"/>
<text x="724.0" y="153.0" text-anchor="start" font-family="Helvetica, Arial, sans-serif" font-size="20" font-weight="bold" fill="#1a1a1a">cautious copy</text>
<text x="1000.0" y="153.0" text-anchor="end" font-family="Helvetica, Arial, sans-serif" font-size="13.5" font-weight="normal" fill="#6b7684">4 runs</text>
<line x1="724" y1="363.2" x2="996" y2="363.2" stroke="#eef0f2" stroke-width="1"/>
<line x1="724" y1="314.4" x2="996" y2="314.4" stroke="#eef0f2" stroke-width="1"/>
<line x1="724" y1="265.6" x2="996" y2="265.6" stroke="#eef0f2" stroke-width="1"/>
<line x1="724" y1="216.8" x2="996" y2="216.8" stroke="#eef0f2" stroke-width="1"/>
<polyline points="724.0,258.1 814.7,289.6 905.3,309.0 996.0,331.2" fill="none" stroke="#6b7684" stroke-width="2.8" stroke-opacity="1.0" stroke-linejoin="round"/>
<circle cx="724.0" cy="258.1" r="3.2" fill="#6b7684"/>
<circle cx="814.7" cy="289.6" r="3.2" fill="#6b7684"/>
<circle cx="905.3" cy="309.0" r="3.2" fill="#6b7684"/>
<circle cx="996.0" cy="331.2" r="3.2" fill="#6b7684"/>
<polyline points="724.0,378.1 814.7,383.2 905.3,390.0 996.0,388.3" fill="none" stroke="#2867b5" stroke-width="2.8" stroke-opacity="1.0" stroke-linejoin="round"/>
<circle cx="724.0" cy="378.1" r="3.2" fill="#2867b5"/>
<circle cx="814.7" cy="383.2" r="3.2" fill="#2867b5"/>
<circle cx="905.3" cy="390.0" r="3.2" fill="#2867b5"/>
<circle cx="996.0" cy="388.3" r="3.2" fill="#2867b5"/>
<polyline points="724.0,326.7 814.7,381.2 905.3,387.0 996.0,399.4" fill="none" stroke="#b5342c" stroke-width="2.8" stroke-opacity="1.0" stroke-linejoin="round" stroke-dasharray="5 4"/>
<circle cx="724.0" cy="326.7" r="3.2" fill="#b5342c"/>
<circle cx="814.7" cy="381.2" r="3.2" fill="#b5342c"/>
<circle cx="905.3" cy="387.0" r="3.2" fill="#b5342c"/>
<circle cx="996.0" cy="399.4" r="3.2" fill="#b5342c"/>
<rect x="78" y="468" width="300" height="300" rx="9" fill="white" stroke="#d0d7de" stroke-width="1.3"/>
<text x="92.0" y="493.0" text-anchor="start" font-family="Helvetica, Arial, sans-serif" font-size="20" font-weight="bold" fill="#1a1a1a">base</text>
<text x="368.0" y="493.0" text-anchor="end" font-family="Helvetica, Arial, sans-serif" font-size="13.5" font-weight="normal" fill="#6b7684">10 runs</text>
<line x1="92" y1="703.2" x2="364" y2="703.2" stroke="#eef0f2" stroke-width="1"/>
<line x1="92" y1="654.4" x2="364" y2="654.4" stroke="#eef0f2" stroke-width="1"/>
<line x1="92" y1="605.6" x2="364" y2="605.6" stroke="#eef0f2" stroke-width="1"/>
<line x1="92" y1="556.8" x2="364" y2="556.8" stroke="#eef0f2" stroke-width="1"/>
<polyline points="92.0,578.7 182.7,583.1 273.3,586.5 364.0,589.3" fill="none" stroke="#6b7684" stroke-width="2.8" stroke-opacity="1.0" stroke-linejoin="round"/>
<circle cx="92.0" cy="578.7" r="3.2" fill="#6b7684"/>
<circle cx="182.7" cy="583.1" r="3.2" fill="#6b7684"/>
<circle cx="273.3" cy="586.5" r="3.2" fill="#6b7684"/>
<circle cx="364.0" cy="589.3" r="3.2" fill="#6b7684"/>
<polyline points="92.0,720.8 182.7,725.6 273.3,710.0 364.0,712.7" fill="none" stroke="#2867b5" stroke-width="2.8" stroke-opacity="1.0" stroke-linejoin="round"/>
<circle cx="92.0" cy="720.8" r="3.2" fill="#2867b5"/>
<circle cx="182.7" cy="725.6" r="3.2" fill="#2867b5"/>
<circle cx="273.3" cy="710.0" r="3.2" fill="#2867b5"/>
<circle cx="364.0" cy="712.7" r="3.2" fill="#2867b5"/>
<polyline points="92.0,712.9 182.7,717.7 273.3,714.8 364.0,703.2" fill="none" stroke="#b5342c" stroke-width="2.8" stroke-opacity="1.0" stroke-linejoin="round" stroke-dasharray="5 4"/>
<circle cx="92.0" cy="712.9" r="3.2" fill="#b5342c"/>
<circle cx="182.7" cy="717.7" r="3.2" fill="#b5342c"/>
<circle cx="273.3" cy="714.8" r="3.2" fill="#b5342c"/>
<circle cx="364.0" cy="703.2" r="3.2" fill="#b5342c"/>
<rect x="394" y="468" width="300" height="300" rx="9" fill="white" stroke="#d0d7de" stroke-width="1.3"/>
<text x="408.0" y="493.0" text-anchor="start" font-family="Helvetica, Arial, sans-serif" font-size="20" font-weight="bold" fill="#1a1a1a">random</text>
<text x="684.0" y="493.0" text-anchor="end" font-family="Helvetica, Arial, sans-serif" font-size="13.5" font-weight="normal" fill="#6b7684">4 runs</text>
<line x1="408" y1="703.2" x2="680" y2="703.2" stroke="#eef0f2" stroke-width="1"/>
<line x1="408" y1="654.4" x2="680" y2="654.4" stroke="#eef0f2" stroke-width="1"/>
<line x1="408" y1="605.6" x2="680" y2="605.6" stroke="#eef0f2" stroke-width="1"/>
<line x1="408" y1="556.8" x2="680" y2="556.8" stroke="#eef0f2" stroke-width="1"/>
<polyline points="408.0,532.3 498.7,540.5 589.3,551.8 680.0,552.8" fill="none" stroke="#6b7684" stroke-width="2.8" stroke-opacity="1.0" stroke-linejoin="round"/>
<circle cx="408.0" cy="532.3" r="3.2" fill="#6b7684"/>
<circle cx="498.7" cy="540.5" r="3.2" fill="#6b7684"/>
<circle cx="589.3" cy="551.8" r="3.2" fill="#6b7684"/>
<circle cx="680.0" cy="552.8" r="3.2" fill="#6b7684"/>
<polyline points="408.0,718.1 498.7,733.4 589.3,723.2 680.0,723.2" fill="none" stroke="#2867b5" stroke-width="2.8" stroke-opacity="1.0" stroke-linejoin="round"/>
<circle cx="408.0" cy="718.1" r="3.2" fill="#2867b5"/>
<circle cx="498.7" cy="733.4" r="3.2" fill="#2867b5"/>
<circle cx="589.3" cy="723.2" r="3.2" fill="#2867b5"/>
<circle cx="680.0" cy="723.2" r="3.2" fill="#2867b5"/>
<polyline points="408.0,701.2 498.7,614.8 589.3,701.2 680.0,703.7" fill="none" stroke="#b5342c" stroke-width="2.8" stroke-opacity="1.0" stroke-linejoin="round" stroke-dasharray="5 4"/>
<circle cx="408.0" cy="701.2" r="3.2" fill="#b5342c"/>
<circle cx="498.7" cy="614.8" r="3.2" fill="#b5342c"/>
<circle cx="589.3" cy="701.2" r="3.2" fill="#b5342c"/>
<circle cx="680.0" cy="703.7" r="3.2" fill="#b5342c"/>
<rect x="710" y="468" width="300" height="300" rx="9" fill="white" stroke="#d0d7de" stroke-width="1.3"/>
<text x="724.0" y="493.0" text-anchor="start" font-family="Helvetica, Arial, sans-serif" font-size="20" font-weight="bold" fill="#1a1a1a">score oracle</text>
<text x="1000.0" y="493.0" text-anchor="end" font-family="Helvetica, Arial, sans-serif" font-size="13.5" font-weight="normal" fill="#6b7684">2 runs</text>
<line x1="724" y1="703.2" x2="996" y2="703.2" stroke="#eef0f2" stroke-width="1"/>
<line x1="724" y1="654.4" x2="996" y2="654.4" stroke="#eef0f2" stroke-width="1"/>
<line x1="724" y1="605.6" x2="996" y2="605.6" stroke="#eef0f2" stroke-width="1"/>
<line x1="724" y1="556.8" x2="996" y2="556.8" stroke="#eef0f2" stroke-width="1"/>
<polyline points="724.0,721.7 814.7,678.2 905.3,692.9 996.0,734.3" fill="none" stroke="#6b7684" stroke-width="2.8" stroke-opacity="1.0" stroke-linejoin="round"/>
<circle cx="724.0" cy="721.7" r="3.2" fill="#6b7684"/>
<circle cx="814.7" cy="678.2" r="3.2" fill="#6b7684"/>
<circle cx="905.3" cy="692.9" r="3.2" fill="#6b7684"/>
<circle cx="996.0" cy="734.3" r="3.2" fill="#6b7684"/>
<polyline points="724.0,724.9 814.7,677.4 905.3,697.8 996.0,735.1" fill="none" stroke="#2867b5" stroke-width="2.8" stroke-opacity="1.0" stroke-linejoin="round"/>
<circle cx="724.0" cy="724.9" r="3.2" fill="#2867b5"/>
<circle cx="814.7" cy="677.4" r="3.2" fill="#2867b5"/>
<circle cx="905.3" cy="697.8" r="3.2" fill="#2867b5"/>
<circle cx="996.0" cy="735.1" r="3.2" fill="#2867b5"/>
<polyline points="724.0,691.0 814.7,701.2 905.3,711.3 996.0,703.7" fill="none" stroke="#b5342c" stroke-width="2.8" stroke-opacity="1.0" stroke-linejoin="round" stroke-dasharray="5 4"/>
<circle cx="724.0" cy="691.0" r="3.2" fill="#b5342c"/>
<circle cx="814.7" cy="701.2" r="3.2" fill="#b5342c"/>
<circle cx="905.3" cy="711.3" r="3.2" fill="#b5342c"/>
<circle cx="996.0" cy="703.7" r="3.2" fill="#b5342c"/>
<text x="92.0" y="444.0" text-anchor="middle" font-family="Helvetica, Arial, sans-serif" font-size="12.5" font-weight="normal" fill="#6b7684">1</text>
<text x="182.7" y="444.0" text-anchor="middle" font-family="Helvetica, Arial, sans-serif" font-size="12.5" font-weight="normal" fill="#6b7684">2</text>
<text x="273.3" y="444.0" text-anchor="middle" font-family="Helvetica, Arial, sans-serif" font-size="12.5" font-weight="normal" fill="#6b7684">3</text>
<text x="364.0" y="444.0" text-anchor="middle" font-family="Helvetica, Arial, sans-serif" font-size="12.5" font-weight="normal" fill="#6b7684">4</text>
<text x="408.0" y="444.0" text-anchor="middle" font-family="Helvetica, Arial, sans-serif" font-size="12.5" font-weight="normal" fill="#6b7684">1</text>
<text x="498.7" y="444.0" text-anchor="middle" font-family="Helvetica, Arial, sans-serif" font-size="12.5" font-weight="normal" fill="#6b7684">2</text>
<text x="589.3" y="444.0" text-anchor="middle" font-family="Helvetica, Arial, sans-serif" font-size="12.5" font-weight="normal" fill="#6b7684">3</text>
<text x="680.0" y="444.0" text-anchor="middle" font-family="Helvetica, Arial, sans-serif" font-size="12.5" font-weight="normal" fill="#6b7684">4</text>
<text x="724.0" y="444.0" text-anchor="middle" font-family="Helvetica, Arial, sans-serif" font-size="12.5" font-weight="normal" fill="#6b7684">1</text>
<text x="814.7" y="444.0" text-anchor="middle" font-family="Helvetica, Arial, sans-serif" font-size="12.5" font-weight="normal" fill="#6b7684">2</text>
<text x="905.3" y="444.0" text-anchor="middle" font-family="Helvetica, Arial, sans-serif" font-size="12.5" font-weight="normal" fill="#6b7684">3</text>
<text x="996.0" y="444.0" text-anchor="middle" font-family="Helvetica, Arial, sans-serif" font-size="12.5" font-weight="normal" fill="#6b7684">4</text>
<text x="92.0" y="784.0" text-anchor="middle" font-family="Helvetica, Arial, sans-serif" font-size="12.5" font-weight="normal" fill="#6b7684">1</text>
<text x="182.7" y="784.0" text-anchor="middle" font-family="Helvetica, Arial, sans-serif" font-size="12.5" font-weight="normal" fill="#6b7684">2</text>
<text x="273.3" y="784.0" text-anchor="middle" font-family="Helvetica, Arial, sans-serif" font-size="12.5" font-weight="normal" fill="#6b7684">3</text>
<text x="364.0" y="784.0" text-anchor="middle" font-family="Helvetica, Arial, sans-serif" font-size="12.5" font-weight="normal" fill="#6b7684">4</text>
<text x="408.0" y="784.0" text-anchor="middle" font-family="Helvetica, Arial, sans-serif" font-size="12.5" font-weight="normal" fill="#6b7684">1</text>
<text x="498.7" y="784.0" text-anchor="middle" font-family="Helvetica, Arial, sans-serif" font-size="12.5" font-weight="normal" fill="#6b7684">2</text>
<text x="589.3" y="784.0" text-anchor="middle" font-family="Helvetica, Arial, sans-serif" font-size="12.5" font-weight="normal" fill="#6b7684">3</text>
<text x="680.0" y="784.0" text-anchor="middle" font-family="Helvetica, Arial, sans-serif" font-size="12.5" font-weight="normal" fill="#6b7684">4</text>
<text x="724.0" y="784.0" text-anchor="middle" font-family="Helvetica, Arial, sans-serif" font-size="12.5" font-weight="normal" fill="#6b7684">1</text>
<text x="814.7" y="784.0" text-anchor="middle" font-family="Helvetica, Arial, sans-serif" font-size="12.5" font-weight="normal" fill="#6b7684">2</text>
<text x="905.3" y="784.0" text-anchor="middle" font-family="Helvetica, Arial, sans-serif" font-size="12.5" font-weight="normal" fill="#6b7684">3</text>
<text x="996.0" y="784.0" text-anchor="middle" font-family="Helvetica, Arial, sans-serif" font-size="12.5" font-weight="normal" fill="#6b7684">4</text>
<text x="544.0" y="810.0" text-anchor="middle" font-family="Helvetica, Arial, sans-serif" font-size="18" font-weight="bold" fill="#1a1a1a">x:  training round</text>
<text x="70.0" y="173.0" text-anchor="end" font-family="Helvetica, Arial, sans-serif" font-size="12" font-weight="normal" fill="#6b7684">0.5</text>
<text x="70.0" y="417.0" text-anchor="end" font-family="Helvetica, Arial, sans-serif" font-size="12" font-weight="normal" fill="#6b7684">0.0</text>
<text x="70.0" y="513.0" text-anchor="end" font-family="Helvetica, Arial, sans-serif" font-size="12" font-weight="normal" fill="#6b7684">0.5</text>
<text x="70.0" y="757.0" text-anchor="end" font-family="Helvetica, Arial, sans-serif" font-size="12" font-weight="normal" fill="#6b7684">0.0</text>
<text x="28" y="448.0" text-anchor="middle" font-family="Helvetica, Arial, sans-serif" font-size="18" font-weight="bold" fill="#1a1a1a" transform="rotate(-90 28 448.0)">y:  mean magnitude</text>
<polyline points="84.0,847.0 118.0,847.0" fill="none" stroke="#6b7684" stroke-width="3" stroke-opacity="1.0" stroke-linejoin="round"/>
<text x="128.0" y="852.0" text-anchor="start" font-family="Helvetica, Arial, sans-serif" font-size="15" font-weight="normal" fill="#1a1a1a">spread (material available)</text>
<polyline points="380.8,847.0 414.8,847.0" fill="none" stroke="#2867b5" stroke-width="3" stroke-opacity="1.0" stroke-linejoin="round"/>
<text x="424.8" y="852.0" text-anchor="start" font-family="Helvetica, Arial, sans-serif" font-size="15" font-weight="normal" fill="#1a1a1a">|selection gap| (judge extracts)</text>
<polyline points="719.6,847.0 753.6,847.0" fill="none" stroke="#b5342c" stroke-width="3" stroke-opacity="1.0" stroke-linejoin="round" stroke-dasharray="5 4"/>
<text x="763.6" y="852.0" text-anchor="start" font-family="Helvetica, Arial, sans-serif" font-size="15" font-weight="normal" fill="#1a1a1a">|value move| (result)</text>
</svg>