<svg xmlns="http://www.w3.org/2000/svg" viewBox="0 0 1042 856" font-family="Helvetica, Arial, sans-serif">
<rect width="1042" height="856" fill="white"/>
<text x="540.0" y="46.0" text-anchor="middle" font-family="Helvetica, Arial, sans-serif" font-size="29" font-weight="bold" fill="#1a1a1a">Where the variation is: value vs candidate spread, by judge</text>
<text x="540.0" y="78.0" text-anchor="middle" font-family="Helvetica, Arial, sans-serif" font-size="17" font-weight="normal" fill="#6b7684">Own-pool loops. Spread (material to select from) is highest at mid value and collapses as a run rails to 0 or 1.</text>
<text x="540.0" y="100.0" text-anchor="middle" font-family="Helvetica, Arial, sans-serif" font-size="15" font-weight="normal" fill="#6b7684">each path = one run; dot per training round, arrow to the next · EACH PANEL is scaled to its own runs (range printed below it)</text>
<rect x="74" y="128" width="300" height="300" rx="9" fill="white" stroke="#d0d7de" stroke-width="1.3"/>
<text x="88.0" y="153.0" text-anchor="start" font-family="Helvetica, Arial, sans-serif" font-size="20" font-weight="bold" fill="#1a1a1a">self</text>
<text x="364.0" y="153.0" text-anchor="end" font-family="Helvetica, Arial, sans-serif" font-size="13.5" font-weight="normal" fill="#6b7684">4 runs · Qwen</text>
<line x1="239.0" y1="226.1" x2="230.3" y2="218.3" stroke="#2867b5" stroke-width="1.9" stroke-opacity="0.72" stroke-linecap="round"/><polygon points="224.0,212.7 233.1,215.2 227.5,221.5" fill="#2867b5" fill-opacity="0.72"/>
<line x1="224.0" y1="212.7" x2="205.5" y2="236.3" stroke="#2867b5" stroke-width="1.9" stroke-opacity="0.72" stroke-linecap="round"/><polygon points="200.0,243.4 202.0,233.5 209.1,239.1" fill="#2867b5" fill-opacity="0.72"/>
<line x1="200.0" y1="243.4" x2="121.0" y2="363.6" stroke="#2867b5" stroke-width="1.9" stroke-opacity="0.72" stroke-linecap="round"/><polygon points="116.1,371.1 117.2,361.1 124.8,366.1" fill="#2867b5" fill-opacity="0.72"/>
<circle cx="239.0" cy="226.1" r="3.6" fill="#2867b5"/>
<circle cx="224.0" cy="212.7" r="3.6" fill="#2867b5"/>
<circle cx="200.0" cy="243.4" r="3.6" fill="#2867b5"/>
<circle cx="116.1" cy="371.1" r="3.6" fill="#2867b5"/>
<line x1="251.0" y1="187.8" x2="228.1" y2="233.1" stroke="#b5342c" stroke-width="1.9" stroke-opacity="0.72" stroke-linecap="round"/><polygon points="224.0,241.2 224.0,231.1 232.1,235.2" fill="#b5342c" fill-opacity="0.72"/>
<line x1="224.0" y1="241.2" x2="170.9" y2="196.8" stroke="#b5342c" stroke-width="1.9" stroke-opacity="0.72" stroke-linecap="round"/><polygon points="164.0,191.0 173.8,193.3 168.0,200.2" fill="#b5342c" fill-opacity="0.72"/>
<line x1="164.0" y1="191.0" x2="241.0" y2="252.8" stroke="#b5342c" stroke-width="1.9" stroke-opacity="0.72" stroke-linecap="round"/><polygon points="248.0,258.4 238.1,256.3 243.8,249.3" fill="#b5342c" fill-opacity="0.72"/>
<circle cx="251.0" cy="187.8" r="3.6" fill="#b5342c"/>
<circle cx="224.0" cy="241.2" r="3.6" fill="#b5342c"/>
<circle cx="164.0" cy="191.0" r="3.6" fill="#b5342c"/>
<circle cx="248.0" cy="258.4" r="3.6" fill="#b5342c"/>
<line x1="242.0" y1="227.0" x2="247.2" y2="285.6" stroke="#3a7d44" stroke-width="1.9" stroke-opacity="0.72" stroke-linecap="round"/><polygon points="248.0,294.5 242.7,286.0 251.7,285.2" fill="#3a7d44" fill-opacity="0.72"/>
<line x1="248.0" y1="294.5" x2="325.6" y2="372.3" stroke="#3a7d44" stroke-width="1.9" stroke-opacity="0.72" stroke-linecap="round"/><polygon points="331.9,378.7 322.4,375.5 328.8,369.1" fill="#3a7d44" fill-opacity="0.72"/>
<line x1="331.9" y1="378.7" x2="268.9" y2="385.3" stroke="#3a7d44" stroke-width="1.9" stroke-opacity="0.72" stroke-linecap="round"/><polygon points="260.0,386.2 268.5,380.8 269.4,389.7" fill="#3a7d44" fill-opacity="0.72"/>
<circle cx="242.0" cy="227.0" r="3.6" fill="#3a7d44"/>
<circle cx="248.0" cy="294.5" r="3.6" fill="#3a7d44"/>
<circle cx="331.9" cy="378.7" r="3.6" fill="#3a7d44"/>
<circle cx="260.0" cy="386.2" r="3.6" fill="#3a7d44"/>
<line x1="236.0" y1="193.1" x2="236.0" y2="197.9" stroke="#c07d18" stroke-width="1.9" stroke-opacity="0.72" stroke-linecap="round"/><polygon points="236.0,202.9 233.5,197.9 238.5,197.9" fill="#c07d18" fill-opacity="0.72"/>
<line x1="236.0" y1="202.9" x2="229.0" y2="208.6" stroke="#c07d18" stroke-width="1.9" stroke-opacity="0.72" stroke-linecap="round"/><polygon points="224.0,212.7 227.0,206.0 231.1,211.1" fill="#c07d18" fill-opacity="0.72"/>
<line x1="224.0" y1="212.7" x2="224.0" y2="230.0" stroke="#c07d18" stroke-width="1.9" stroke-opacity="0.72" stroke-linecap="round"/><polygon points="224.0,239.0 219.5,230.0 228.5,230.0" fill="#c07d18" fill-opacity="0.72"/>
<circle cx="236.0" cy="193.1" r="3.6" fill="#c07d18"/>
<circle cx="236.0" cy="202.9" r="3.6" fill="#c07d18"/>
<circle cx="224.0" cy="212.7" r="3.6" fill="#c07d18"/>
<circle cx="224.0" cy="239.0" r="3.6" fill="#c07d18"/>
<text x="78.0" y="446.0" text-anchor="start" font-family="Helvetica, Arial, sans-serif" font-size="12.5" font-weight="normal" fill="#6b7684">x 0.17–0.92    y 0.26–0.47</text>
<rect x="390" y="128" width="300" height="300" rx="9" fill="white" stroke="#d0d7de" stroke-width="1.3"/>
<text x="404.0" y="153.0" text-anchor="start" font-family="Helvetica, Arial, sans-serif" font-size="20" font-weight="bold" fill="#1a1a1a">risk copy</text>
<text x="680.0" y="153.0" text-anchor="end" font-family="Helvetica, Arial, sans-serif" font-size="13.5" font-weight="normal" fill="#6b7684">4 runs · Qwen</text>
<line x1="573.8" y1="249.6" x2="569.8" y2="261.0" stroke="#2867b5" stroke-width="1.9" stroke-opacity="0.72" stroke-linecap="round"/><polygon points="567.0,269.3 565.7,259.6 574.0,262.4" fill="#2867b5" fill-opacity="0.72"/>
<line x1="567.0" y1="269.3" x2="494.9" y2="259.0" stroke="#2867b5" stroke-width="1.9" stroke-opacity="0.72" stroke-linecap="round"/><polygon points="486.0,257.8 495.6,254.6 494.3,263.5" fill="#2867b5" fill-opacity="0.72"/>
<line x1="486.0" y1="257.8" x2="612.0" y2="268.5" stroke="#2867b5" stroke-width="1.9" stroke-opacity="0.72" stroke-linecap="round"/><polygon points="621.0,269.3 611.6,273.0 612.4,264.0" fill="#2867b5" fill-opacity="0.72"/>
<circle cx="573.8" cy="249.6" r="3.6" fill="#2867b5"/>
<circle cx="567.0" cy="269.3" r="3.6" fill="#2867b5"/>
<circle cx="486.0" cy="257.8" r="3.6" fill="#2867b5"/>
<circle cx="621.0" cy="269.3" r="3.6" fill="#2867b5"/>
<line x1="600.7" y1="191.2" x2="575.9" y2="188.7" stroke="#b5342c" stroke-width="1.9" stroke-opacity="0.72" stroke-linecap="round"/><polygon points="567.0,187.8 576.4,184.2 575.5,193.2" fill="#b5342c" fill-opacity="0.72"/>
<line x1="567.0" y1="187.8" x2="441.1" y2="194.1" stroke="#b5342c" stroke-width="1.9" stroke-opacity="0.72" stroke-linecap="round"/><polygon points="432.1,194.5 440.8,189.6 441.3,198.6" fill="#b5342c" fill-opacity="0.72"/>
<line x1="432.1" y1="194.5" x2="506.4" y2="261.8" stroke="#b5342c" stroke-width="1.9" stroke-opacity="0.72" stroke-linecap="round"/><polygon points="513.0,267.9 503.3,265.2 509.4,258.5" fill="#b5342c" fill-opacity="0.72"/>
<circle cx="600.7" cy="191.2" r="3.6" fill="#b5342c"/>
<circle cx="567.0" cy="187.8" r="3.6" fill="#b5342c"/>
<circle cx="432.1" cy="194.5" r="3.6" fill="#b5342c"/>
<circle cx="513.0" cy="267.9" r="3.6" fill="#b5342c"/>
<line x1="580.5" y1="251.0" x2="567.9" y2="377.3" stroke="#3a7d44" stroke-width="1.9" stroke-opacity="0.72" stroke-linecap="round"/><polygon points="567.0,386.2 563.4,376.8 572.4,377.7" fill="#3a7d44" fill-opacity="0.72"/>
<line x1="567.0" y1="386.2" x2="567.0" y2="226.5" stroke="#3a7d44" stroke-width="1.9" stroke-opacity="0.72" stroke-linecap="round"/><polygon points="567.0,217.5 571.5,226.5 562.5,226.5" fill="#3a7d44" fill-opacity="0.72"/>
<line x1="567.0" y1="217.5" x2="642.3" y2="312.5" stroke="#3a7d44" stroke-width="1.9" stroke-opacity="0.72" stroke-linecap="round"/><polygon points="647.9,319.6 638.8,315.3 645.9,309.8" fill="#3a7d44" fill-opacity="0.72"/>
<circle cx="580.5" cy="251.0" r="3.6" fill="#3a7d44"/>
<circle cx="567.0" cy="386.2" r="3.6" fill="#3a7d44"/>
<circle cx="567.0" cy="217.5" r="3.6" fill="#3a7d44"/>
<circle cx="647.9" cy="319.6" r="3.6" fill="#3a7d44"/>
<line x1="567.0" y1="199.3" x2="495.0" y2="202.3" stroke="#c07d18" stroke-width="1.9" stroke-opacity="0.72" stroke-linecap="round"/><polygon points="486.0,202.7 494.8,197.8 495.2,206.8" fill="#c07d18" fill-opacity="0.72"/>
<line x1="486.0" y1="202.7" x2="560.6" y2="277.7" stroke="#c07d18" stroke-width="1.9" stroke-opacity="0.72" stroke-linecap="round"/><polygon points="567.0,284.1 557.4,280.9 563.8,274.6" fill="#c07d18" fill-opacity="0.72"/>
<line x1="567.0" y1="284.1" x2="517.9" y2="206.9" stroke="#c07d18" stroke-width="1.9" stroke-opacity="0.72" stroke-linecap="round"/><polygon points="513.0,199.3 521.7,204.5 514.1,209.3" fill="#c07d18" fill-opacity="0.72"/>
<circle cx="567.0" cy="199.3" r="3.6" fill="#c07d18"/>
<circle cx="486.0" cy="202.7" r="3.6" fill="#c07d18"/>
<circle cx="567.0" cy="284.1" r="3.6" fill="#c07d18"/>
<circle cx="513.0" cy="199.3" r="3.6" fill="#c07d18"/>
<text x="394.0" y="446.0" text-anchor="start" font-family="Helvetica, Arial, sans-serif" font-size="12.5" font-weight="normal" fill="#6b7684">x 0.38–0.71    y 0.33–0.48</text>
<rect x="706" y="128" width="300" height="300" rx="9" fill="white" stroke="#d0d7de" stroke-width="1.3"/>
<text x="720.0" y="153.0" text-anchor="start" font-family="Helvetica, Arial, sans-serif" font-size="20" font-weight="bold" fill="#1a1a1a">cautious copy</text>
<text x="996.0" y="153.0" text-anchor="end" font-family="Helvetica, Arial, sans-serif" font-size="13.5" font-weight="normal" fill="#6b7684">4 runs · OLMo</text>
<line x1="748.1" y1="162" x2="748.1" y2="414" stroke="#eceef1" stroke-width="1.2"/>
<line x1="874.0" y1="232.1" x2="807.2" y2="243.7" stroke="#c07d18" stroke-width="1.9" stroke-opacity="0.72" stroke-linecap="round"/><polygon points="798.3,245.3 806.4,239.3 807.9,248.2" fill="#c07d18" fill-opacity="0.72"/>
<line x1="798.3" y1="245.3" x2="794.6" y2="294.2" stroke="#c07d18" stroke-width="1.9" stroke-opacity="0.72" stroke-linecap="round"/><polygon points="794.0,303.1 790.2,293.8 799.1,294.5" fill="#c07d18" fill-opacity="0.72"/>
<line x1="794.0" y1="303.1" x2="830.2" y2="259.9" stroke="#c07d18" stroke-width="1.9" stroke-opacity="0.72" stroke-linecap="round"/><polygon points="836.0,253.0 833.7,262.8 826.8,257.0" fill="#c07d18" fill-opacity="0.72"/>
<rect x="870.4" y="228.5" width="7.2" height="7.2" fill="#c07d18"/>
<rect x="794.7" y="241.7" width="7.2" height="7.2" fill="#c07d18"/>
<rect x="790.4" y="299.5" width="7.2" height="7.2" fill="#c07d18"/>
<rect x="832.4" y="249.4" width="7.2" height="7.2" fill="#c07d18"/>
<line x1="877.2" y1="279.9" x2="799.8" y2="325.2" stroke="#8a5a9e" stroke-width="1.9" stroke-opacity="0.72" stroke-linecap="round"/><polygon points="792.0,329.8 797.5,321.3 802.1,329.1" fill="#8a5a9e" fill-opacity="0.72"/>
<line x1="792.0" y1="329.8" x2="779.0" y2="330.6" stroke="#8a5a9e" stroke-width="1.9" stroke-opacity="0.72" stroke-linecap="round"/><polygon points="770.1,331.2 778.8,326.1 779.3,335.1" fill="#8a5a9e" fill-opacity="0.72"/>
<line x1="770.1" y1="331.2" x2="770.1" y2="358.8" stroke="#8a5a9e" stroke-width="1.9" stroke-opacity="0.72" stroke-linecap="round"/><polygon points="770.1,367.8 765.6,358.8 774.6,358.8" fill="#8a5a9e" fill-opacity="0.72"/>
<rect x="873.6" y="276.3" width="7.2" height="7.2" fill="#8a5a9e"/>
<rect x="788.4" y="326.2" width="7.2" height="7.2" fill="#8a5a9e"/>
<rect x="766.5" y="327.6" width="7.2" height="7.2" fill="#8a5a9e"/>
<rect x="766.5" y="364.2" width="7.2" height="7.2" fill="#8a5a9e"/>
<line x1="874.5" y1="266.5" x2="779.2" y2="309.1" stroke="#b5342c" stroke-width="1.9" stroke-opacity="0.72" stroke-linecap="round"/><polygon points="771.0,312.8 777.4,305.0 781.1,313.3" fill="#b5342c" fill-opacity="0.72"/>
<line x1="771.0" y1="312.8" x2="754.4" y2="329.6" stroke="#b5342c" stroke-width="1.9" stroke-opacity="0.72" stroke-linecap="round"/><polygon points="748.1,336.0 751.2,326.5 757.6,332.8" fill="#b5342c" fill-opacity="0.72"/>
<line x1="748.1" y1="336.0" x2="748.1" y2="377.2" stroke="#b5342c" stroke-width="1.9" stroke-opacity="0.72" stroke-linecap="round"/><polygon points="748.1,386.2 743.6,377.2 752.6,377.2" fill="#b5342c" fill-opacity="0.72"/>
<rect x="870.9" y="262.9" width="7.2" height="7.2" fill="#b5342c"/>
<rect x="767.4" y="309.2" width="7.2" height="7.2" fill="#b5342c"/>
<rect x="744.5" y="332.4" width="7.2" height="7.2" fill="#b5342c"/>
<rect x="744.5" y="382.6" width="7.2" height="7.2" fill="#b5342c"/>
<line x1="859.1" y1="187.8" x2="955.6" y2="227.4" stroke="#3a7d44" stroke-width="1.9" stroke-opacity="0.72" stroke-linecap="round"/><polygon points="963.9,230.8 953.9,231.5 957.3,223.2" fill="#3a7d44" fill-opacity="0.72"/>
<line x1="963.9" y1="230.8" x2="888.9" y2="240.7" stroke="#3a7d44" stroke-width="1.9" stroke-opacity="0.72" stroke-linecap="round"/><polygon points="880.0,241.9 888.3,236.2 889.5,245.2" fill="#3a7d44" fill-opacity="0.72"/>
<line x1="880.0" y1="241.9" x2="820.2" y2="306.2" stroke="#3a7d44" stroke-width="1.9" stroke-opacity="0.72" stroke-linecap="round"/><polygon points="814.0,312.8 816.9,303.2 823.4,309.3" fill="#3a7d44" fill-opacity="0.72"/>
<rect x="855.5" y="184.2" width="7.2" height="7.2" fill="#3a7d44"/>
<rect x="960.3" y="227.2" width="7.2" height="7.2" fill="#3a7d44"/>
<rect x="876.4" y="238.3" width="7.2" height="7.2" fill="#3a7d44"/>
<rect x="810.4" y="309.2" width="7.2" height="7.2" fill="#3a7d44"/>
<text x="710.0" y="446.0" text-anchor="start" font-family="Helvetica, Arial, sans-serif" font-size="12.5" font-weight="normal" fill="#6b7684">x 0.00–0.41    y 0.07–0.41</text>
<rect x="74" y="460" width="300" height="300" rx="9" fill="white" stroke="#d0d7de" stroke-width="1.3"/>
<text x="88.0" y="485.0" text-anchor="start" font-family="Helvetica, Arial, sans-serif" font-size="20" font-weight="bold" fill="#1a1a1a">base</text>
<text x="364.0" y="485.0" text-anchor="end" font-family="Helvetica, Arial, sans-serif" font-size="13.5" font-weight="normal" fill="#6b7684">10 runs · OLMo · Qwen</text>
<line x1="116.1" y1="494" x2="116.1" y2="746" stroke="#eceef1" stroke-width="1.2"/>
<line x1="308.3" y1="542.2" x2="306.4" y2="530.0" stroke="#2867b5" stroke-width="1.9" stroke-opacity="0.72" stroke-linecap="round"/><polygon points="304.9,521.1 310.8,529.2 301.9,530.7" fill="#2867b5" fill-opacity="0.72"/>
<line x1="304.9" y1="521.1" x2="304.9" y2="550.9" stroke="#2867b5" stroke-width="1.9" stroke-opacity="0.72" stroke-linecap="round"/><polygon points="304.9,559.9 300.4,550.9 309.4,550.9" fill="#2867b5" fill-opacity="0.72"/>
<line x1="304.9" y1="559.9" x2="326.2" y2="534.3" stroke="#2867b5" stroke-width="1.9" stroke-opacity="0.72" stroke-linecap="round"/><polygon points="331.9,527.4 329.7,537.2 322.7,531.4" fill="#2867b5" fill-opacity="0.72"/>
<circle cx="308.3" cy="542.2" r="3.6" fill="#2867b5"/>
<circle cx="304.9" cy="521.1" r="3.6" fill="#2867b5"/>
<circle cx="304.9" cy="559.9" r="3.6" fill="#2867b5"/>
<circle cx="331.9" cy="527.4" r="3.6" fill="#2867b5"/>
<line x1="321.8" y1="519.8" x2="297.3" y2="548.6" stroke="#b5342c" stroke-width="1.9" stroke-opacity="0.72" stroke-linecap="round"/><polygon points="291.5,555.5 293.9,545.7 300.7,551.5" fill="#b5342c" fill-opacity="0.72"/>
<line x1="291.5" y1="555.5" x2="260.0" y2="553.0" stroke="#b5342c" stroke-width="1.9" stroke-opacity="0.72" stroke-linecap="round"/><polygon points="251.0,552.3 260.3,548.5 259.6,557.5" fill="#b5342c" fill-opacity="0.72"/>
<line x1="251.0" y1="552.3" x2="251.0" y2="564.6" stroke="#b5342c" stroke-width="1.9" stroke-opacity="0.72" stroke-linecap="round"/><polygon points="251.0,573.5 246.5,564.6 255.4,564.6" fill="#b5342c" fill-opacity="0.72"/>
<circle cx="321.8" cy="519.8" r="3.6" fill="#b5342c"/>
<circle cx="291.5" cy="555.5" r="3.6" fill="#b5342c"/>
<circle cx="251.0" cy="552.3" r="3.6" fill="#b5342c"/>
<circle cx="251.0" cy="573.5" r="3.6" fill="#b5342c"/>
<line x1="311.7" y1="542.8" x2="273.0" y2="555.8" stroke="#3a7d44" stroke-width="1.9" stroke-opacity="0.72" stroke-linecap="round"/><polygon points="264.5,558.6 271.6,551.5 274.4,560.0" fill="#3a7d44" fill-opacity="0.72"/>
<line x1="264.5" y1="558.6" x2="243.8" y2="537.6" stroke="#3a7d44" stroke-width="1.9" stroke-opacity="0.72" stroke-linecap="round"/><polygon points="237.5,531.2 247.0,534.5 240.6,540.8" fill="#3a7d44" fill-opacity="0.72"/>
<line x1="237.5" y1="531.2" x2="245.3" y2="534.8" stroke="#3a7d44" stroke-width="1.9" stroke-opacity="0.72" stroke-linecap="round"/><polygon points="251.0,537.5 244.0,537.7 246.6,532.0" fill="#3a7d44" fill-opacity="0.72"/>
<circle cx="311.7" cy="542.8" r="3.6" fill="#3a7d44"/>
<circle cx="264.5" cy="558.6" r="3.6" fill="#3a7d44"/>
<circle cx="237.5" cy="531.2" r="3.6" fill="#3a7d44"/>
<circle cx="251.0" cy="537.5" r="3.6" fill="#3a7d44"/>
<line x1="304.9" y1="522.9" x2="259.9" y2="528.7" stroke="#c07d18" stroke-width="1.9" stroke-opacity="0.72" stroke-linecap="round"/><polygon points="251.0,529.9 259.3,524.3 260.5,533.2" fill="#c07d18" fill-opacity="0.72"/>
<line x1="251.0" y1="529.9" x2="282.9" y2="539.9" stroke="#c07d18" stroke-width="1.9" stroke-opacity="0.72" stroke-linecap="round"/><polygon points="291.5,542.6 281.5,544.2 284.2,535.6" fill="#c07d18" fill-opacity="0.72"/>
<line x1="291.5" y1="542.6" x2="299.3" y2="541.6" stroke="#c07d18" stroke-width="1.9" stroke-opacity="0.72" stroke-linecap="round"/><polygon points="304.9,540.9 299.6,544.5 298.9,538.8" fill="#c07d18" fill-opacity="0.72"/>
<circle cx="304.9" cy="522.9" r="3.6" fill="#c07d18"/>
<circle cx="251.0" cy="529.9" r="3.6" fill="#c07d18"/>
<circle cx="291.5" cy="542.6" r="3.6" fill="#c07d18"/>
<circle cx="304.9" cy="540.9" r="3.6" fill="#c07d18"/>
<line x1="193.3" y1="595.8" x2="190.6" y2="571.4" stroke="#c07d18" stroke-width="1.9" stroke-opacity="0.72" stroke-linecap="round"/><polygon points="189.7,562.4 195.1,570.9 186.2,571.9" fill="#c07d18" fill-opacity="0.72"/>
<line x1="189.7" y1="562.4" x2="175.9" y2="595.1" stroke="#c07d18" stroke-width="1.9" stroke-opacity="0.72" stroke-linecap="round"/><polygon points="172.4,603.4 171.7,593.4 180.0,596.9" fill="#c07d18" fill-opacity="0.72"/>
<line x1="172.4" y1="603.4" x2="158.4" y2="671.6" stroke="#c07d18" stroke-width="1.9" stroke-opacity="0.72" stroke-linecap="round"/><polygon points="156.5,680.4 153.9,670.7 162.8,672.5" fill="#c07d18" fill-opacity="0.72"/>
<rect x="189.7" y="592.2" width="7.2" height="7.2" fill="#c07d18"/>
<rect x="186.1" y="558.8" width="7.2" height="7.2" fill="#c07d18"/>
<rect x="168.8" y="599.8" width="7.2" height="7.2" fill="#c07d18"/>
<rect x="152.9" y="676.8" width="7.2" height="7.2" fill="#c07d18"/>
<line x1="195.3" y1="639.4" x2="161.6" y2="689.6" stroke="#8a5a9e" stroke-width="1.9" stroke-opacity="0.72" stroke-linecap="round"/><polygon points="156.5,697.1 157.8,687.1 165.3,692.1" fill="#8a5a9e" fill-opacity="0.72"/>
<line x1="156.5" y1="697.1" x2="124.7" y2="688.5" stroke="#8a5a9e" stroke-width="1.9" stroke-opacity="0.72" stroke-linecap="round"/><polygon points="116.1,686.1 125.9,684.1 123.6,692.8" fill="#8a5a9e" fill-opacity="0.72"/>
<line x1="116.1" y1="686.1" x2="125.8" y2="664.9" stroke="#8a5a9e" stroke-width="1.9" stroke-opacity="0.72" stroke-linecap="round"/><polygon points="129.6,656.7 129.9,666.7 121.7,663.0" fill="#8a5a9e" fill-opacity="0.72"/>
<rect x="191.7" y="635.8" width="7.2" height="7.2" fill="#8a5a9e"/>
<rect x="152.9" y="693.5" width="7.2" height="7.2" fill="#8a5a9e"/>
<rect x="112.5" y="682.5" width="7.2" height="7.2" fill="#8a5a9e"/>
<rect x="126.0" y="653.1" width="7.2" height="7.2" fill="#8a5a9e"/>
<line x1="191.8" y1="665.8" x2="196.5" y2="583.7" stroke="#1f9e9e" stroke-width="1.9" stroke-opacity="0.72" stroke-linecap="round"/><polygon points="197.0,574.8 201.0,584.0 192.0,583.5" fill="#1f9e9e" fill-opacity="0.72"/>
<line x1="197.0" y1="574.8" x2="218.8" y2="543.8" stroke="#1f9e9e" stroke-width="1.9" stroke-opacity="0.72" stroke-linecap="round"/><polygon points="224.0,536.5 222.5,546.4 215.1,541.2" fill="#1f9e9e" fill-opacity="0.72"/>
<line x1="224.0" y1="536.5" x2="269.5" y2="552.5" stroke="#1f9e9e" stroke-width="1.9" stroke-opacity="0.72" stroke-linecap="round"/><polygon points="278.0,555.5 268.0,556.7 271.0,548.2" fill="#1f9e9e" fill-opacity="0.72"/>
<rect x="188.2" y="662.2" width="7.2" height="7.2" fill="#1f9e9e"/>
<rect x="193.4" y="571.2" width="7.2" height="7.2" fill="#1f9e9e"/>
<rect x="220.4" y="532.9" width="7.2" height="7.2" fill="#1f9e9e"/>
<rect x="274.4" y="551.9" width="7.2" height="7.2" fill="#1f9e9e"/>
<line x1="203.1" y1="618.9" x2="160.4" y2="710.1" stroke="#2867b5" stroke-width="1.9" stroke-opacity="0.72" stroke-linecap="round"/><polygon points="156.5,718.2 156.3,708.1 164.4,712.0" fill="#2867b5" fill-opacity="0.72"/>
<line x1="156.5" y1="718.2" x2="157.9" y2="690.7" stroke="#2867b5" stroke-width="1.9" stroke-opacity="0.72" stroke-linecap="round"/><polygon points="158.3,681.7 162.4,690.9 153.4,690.5" fill="#2867b5" fill-opacity="0.72"/>
<line x1="158.3" y1="681.7" x2="158.4" y2="681.4" stroke="#2867b5" stroke-width="1.9" stroke-opacity="0.72" stroke-linecap="round"/><polygon points="156.5,686.1 156.1,680.5 160.7,682.4" fill="#2867b5" fill-opacity="0.72"/>
<rect x="199.5" y="615.3" width="7.2" height="7.2" fill="#2867b5"/>
<rect x="152.9" y="714.6" width="7.2" height="7.2" fill="#2867b5"/>
<rect x="154.7" y="678.1" width="7.2" height="7.2" fill="#2867b5"/>
<rect x="152.9" y="682.5" width="7.2" height="7.2" fill="#2867b5"/>
<line x1="193.6" y1="627.1" x2="181.3" y2="627.1" stroke="#b5342c" stroke-width="1.9" stroke-opacity="0.72" stroke-linecap="round"/><polygon points="172.4,627.1 181.3,622.7 181.3,631.6" fill="#b5342c" fill-opacity="0.72"/>
<line x1="172.4" y1="627.1" x2="170.7" y2="648.1" stroke="#b5342c" stroke-width="1.9" stroke-opacity="0.72" stroke-linecap="round"/><polygon points="170.0,657.1 166.3,647.8 175.2,648.5" fill="#b5342c" fill-opacity="0.72"/>
<line x1="170.0" y1="657.1" x2="137.5" y2="640.1" stroke="#b5342c" stroke-width="1.9" stroke-opacity="0.72" stroke-linecap="round"/><polygon points="129.6,636.0 139.6,636.1 135.5,644.1" fill="#b5342c" fill-opacity="0.72"/>
<rect x="190.0" y="623.5" width="7.2" height="7.2" fill="#b5342c"/>
<rect x="168.8" y="623.5" width="7.2" height="7.2" fill="#b5342c"/>
<rect x="166.4" y="653.5" width="7.2" height="7.2" fill="#b5342c"/>
<rect x="126.0" y="632.4" width="7.2" height="7.2" fill="#b5342c"/>
<line x1="184.2" y1="555.5" x2="189.6" y2="542.7" stroke="#3a7d44" stroke-width="1.9" stroke-opacity="0.72" stroke-linecap="round"/><polygon points="193.2,534.4 193.8,544.4 185.5,540.9" fill="#3a7d44" fill-opacity="0.72"/>
<line x1="193.2" y1="534.4" x2="217.7" y2="559.2" stroke="#3a7d44" stroke-width="1.9" stroke-opacity="0.72" stroke-linecap="round"/><polygon points="224.0,565.6 214.5,562.4 220.9,556.1" fill="#3a7d44" fill-opacity="0.72"/>
<line x1="224.0" y1="565.6" x2="282.6" y2="555.2" stroke="#3a7d44" stroke-width="1.9" stroke-opacity="0.72" stroke-linecap="round"/><polygon points="291.5,553.6 283.4,559.6 281.8,550.8" fill="#3a7d44" fill-opacity="0.72"/>
<rect x="180.6" y="551.9" width="7.2" height="7.2" fill="#3a7d44"/>
<rect x="189.6" y="530.8" width="7.2" height="7.2" fill="#3a7d44"/>
<rect x="220.4" y="562.0" width="7.2" height="7.2" fill="#3a7d44"/>
<rect x="287.9" y="550.0" width="7.2" height="7.2" fill="#3a7d44"/>
<text x="78.0" y="778.0" text-anchor="start" font-family="Helvetica, Arial, sans-serif" font-size="12.5" font-weight="normal" fill="#6b7684">x 0.00–0.67    y 0.10–0.47</text>
<rect x="390" y="460" width="300" height="300" rx="9" fill="white" stroke="#d0d7de" stroke-width="1.3"/>
<text x="404.0" y="485.0" text-anchor="start" font-family="Helvetica, Arial, sans-serif" font-size="20" font-weight="bold" fill="#1a1a1a">random</text>
<text x="680.0" y="485.0" text-anchor="end" font-family="Helvetica, Arial, sans-serif" font-size="13.5" font-weight="normal" fill="#6b7684">4 runs · Qwen</text>
<line x1="565.2" y1="577.3" x2="510.9" y2="531.8" stroke="#2867b5" stroke-width="1.9" stroke-opacity="0.72" stroke-linecap="round"/><polygon points="504.0,526.1 513.8,528.4 508.1,535.3" fill="#2867b5" fill-opacity="0.72"/>
<line x1="504.0" y1="526.1" x2="613.8" y2="672.5" stroke="#2867b5" stroke-width="1.9" stroke-opacity="0.72" stroke-linecap="round"/><polygon points="619.2,679.7 610.2,675.2 617.4,669.8" fill="#2867b5" fill-opacity="0.72"/>
<line x1="619.2" y1="679.7" x2="564.6" y2="528.3" stroke="#2867b5" stroke-width="1.9" stroke-opacity="0.72" stroke-linecap="round"/><polygon points="561.6,519.8 568.9,526.7 560.4,529.8" fill="#2867b5" fill-opacity="0.72"/>
<circle cx="565.2" cy="577.3" r="3.6" fill="#2867b5"/>
<circle cx="504.0" cy="526.1" r="3.6" fill="#2867b5"/>
<circle cx="619.2" cy="679.7" r="3.6" fill="#2867b5"/>
<circle cx="561.6" cy="519.8" r="3.6" fill="#2867b5"/>
<line x1="579.6" y1="522.9" x2="577.3" y2="538.5" stroke="#b5342c" stroke-width="1.9" stroke-opacity="0.72" stroke-linecap="round"/><polygon points="576.0,547.4 572.8,537.9 581.7,539.2" fill="#b5342c" fill-opacity="0.72"/>
<line x1="576.0" y1="547.4" x2="441.0" y2="533.1" stroke="#b5342c" stroke-width="1.9" stroke-opacity="0.72" stroke-linecap="round"/><polygon points="432.1,532.2 441.5,528.7 440.5,537.6" fill="#b5342c" fill-opacity="0.72"/>
<line x1="432.1" y1="532.2" x2="466.8" y2="544.4" stroke="#b5342c" stroke-width="1.9" stroke-opacity="0.72" stroke-linecap="round"/><polygon points="475.2,547.4 465.3,548.7 468.3,540.2" fill="#b5342c" fill-opacity="0.72"/>
<circle cx="579.6" cy="522.9" r="3.6" fill="#b5342c"/>
<circle cx="576.0" cy="547.4" r="3.6" fill="#b5342c"/>
<circle cx="432.1" cy="532.2" r="3.6" fill="#b5342c"/>
<circle cx="475.2" cy="547.4" r="3.6" fill="#b5342c"/>
<line x1="568.8" y1="578.6" x2="550.1" y2="633.9" stroke="#3a7d44" stroke-width="1.9" stroke-opacity="0.72" stroke-linecap="round"/><polygon points="547.2,642.4 545.8,632.4 554.4,635.3" fill="#3a7d44" fill-opacity="0.72"/>
<line x1="547.2" y1="642.4" x2="639.1" y2="624.9" stroke="#3a7d44" stroke-width="1.9" stroke-opacity="0.72" stroke-linecap="round"/><polygon points="647.9,623.2 639.9,629.3 638.3,620.5" fill="#3a7d44" fill-opacity="0.72"/>
<line x1="647.9" y1="623.2" x2="634.9" y2="709.3" stroke="#3a7d44" stroke-width="1.9" stroke-opacity="0.72" stroke-linecap="round"/><polygon points="633.6,718.2 630.5,708.6 639.4,710.0" fill="#3a7d44" fill-opacity="0.72"/>
<circle cx="568.8" cy="578.6" r="3.6" fill="#3a7d44"/>
<circle cx="547.2" cy="642.4" r="3.6" fill="#3a7d44"/>
<circle cx="647.9" cy="623.2" r="3.6" fill="#3a7d44"/>
<circle cx="633.6" cy="718.2" r="3.6" fill="#3a7d44"/>
<line x1="561.6" y1="530.5" x2="612.4" y2="574.4" stroke="#c07d18" stroke-width="1.9" stroke-opacity="0.72" stroke-linecap="round"/><polygon points="619.2,580.3 609.4,577.8 615.3,571.0" fill="#c07d18" fill-opacity="0.72"/>
<line x1="619.2" y1="580.3" x2="599.4" y2="582.0" stroke="#c07d18" stroke-width="1.9" stroke-opacity="0.72" stroke-linecap="round"/><polygon points="590.4,582.8 599.0,577.5 599.7,586.5" fill="#c07d18" fill-opacity="0.72"/>
<line x1="590.4" y1="582.8" x2="565.5" y2="634.3" stroke="#c07d18" stroke-width="1.9" stroke-opacity="0.72" stroke-linecap="round"/><polygon points="561.6,642.4 561.5,632.4 569.6,636.3" fill="#c07d18" fill-opacity="0.72"/>
<circle cx="561.6" cy="530.5" r="3.6" fill="#c07d18"/>
<circle cx="619.2" cy="580.3" r="3.6" fill="#c07d18"/>
<circle cx="590.4" cy="582.8" r="3.6" fill="#c07d18"/>
<circle cx="561.6" cy="642.4" r="3.6" fill="#c07d18"/>
<text x="394.0" y="778.0" text-anchor="start" font-family="Helvetica, Arial, sans-serif" font-size="12.5" font-weight="normal" fill="#6b7684">x 0.21–0.83    y 0.32–0.48</text>
<rect x="706" y="460" width="300" height="300" rx="9" fill="white" stroke="#d0d7de" stroke-width="1.3"/>
<text x="720.0" y="485.0" text-anchor="start" font-family="Helvetica, Arial, sans-serif" font-size="20" font-weight="bold" fill="#1a1a1a">score oracle</text>
<text x="996.0" y="485.0" text-anchor="end" font-family="Helvetica, Arial, sans-serif" font-size="13.5" font-weight="normal" fill="#6b7684">2 runs · OLMo</text>
<line x1="716" y1="718.2" x2="996" y2="718.2" stroke="#eceef1" stroke-width="1.2"/>
<line x1="938.5" y1="636.8" x2="867.3" y2="527.3" stroke="#d1477a" stroke-width="1.9" stroke-opacity="0.72" stroke-linecap="round"/><polygon points="862.4,519.8 871.0,524.9 863.5,529.8" fill="#d1477a" fill-opacity="0.72"/>
<line x1="862.4" y1="519.8" x2="806.5" y2="554.7" stroke="#d1477a" stroke-width="1.9" stroke-opacity="0.72" stroke-linecap="round"/><polygon points="798.8,559.5 804.1,550.9 808.9,558.5" fill="#d1477a" fill-opacity="0.72"/>
<line x1="798.8" y1="559.5" x2="751.8" y2="662.4" stroke="#d1477a" stroke-width="1.9" stroke-opacity="0.72" stroke-linecap="round"/><polygon points="748.1,670.5 747.7,660.5 755.9,664.2" fill="#d1477a" fill-opacity="0.72"/>
<rect x="934.9" y="633.2" width="7.2" height="7.2" fill="#d1477a"/>
<rect x="858.8" y="516.2" width="7.2" height="7.2" fill="#d1477a"/>
<rect x="795.2" y="555.9" width="7.2" height="7.2" fill="#d1477a"/>
<rect x="744.5" y="666.9" width="7.2" height="7.2" fill="#d1477a"/>



<rect x="960.3" y="714.6" width="7.2" height="7.2" fill="#5b6bbf"/>
<rect x="960.3" y="714.6" width="7.2" height="7.2" fill="#5b6bbf"/>
<rect x="960.3" y="714.6" width="7.2" height="7.2" fill="#5b6bbf"/>
<rect x="960.3" y="714.6" width="7.2" height="7.2" fill="#5b6bbf"/>
<text x="710.0" y="778.0" text-anchor="start" font-family="Helvetica, Arial, sans-serif" font-size="12.5" font-weight="normal" fill="#6b7684">x 0.29–1.00    y 0.00–0.30</text>
<text x="540.0" y="810.0" text-anchor="middle" font-family="Helvetica, Arial, sans-serif" font-size="18" font-weight="bold" fill="#1a1a1a">x:  value  (free-gen risk)</text>
<text x="28" y="444.0" text-anchor="middle" font-family="Helvetica, Arial, sans-serif" font-size="18" font-weight="bold" fill="#1a1a1a" transform="rotate(-90 28 444.0)">y:  candidate spread</text>
<text x="232.0" y="845.0" text-anchor="start" font-family="Helvetica, Arial, sans-serif" font-size="15" font-weight="bold" fill="#1a1a1a">seed</text>
<rect x="278.0" y="831.0" width="13" height="13" rx="2" fill="#2867b5"/>
<text x="297.0" y="845.0" text-anchor="start" font-family="Helvetica, Arial, sans-serif" font-size="14" font-weight="normal" fill="#1a1a1a">0</text>
<rect x="330.0" y="831.0" width="13" height="13" rx="2" fill="#b5342c"/>
<text x="349.0" y="845.0" text-anchor="start" font-family="Helvetica, Arial, sans-serif" font-size="14" font-weight="normal" fill="#1a1a1a">1</text>
<rect x="382.0" y="831.0" width="13" height="13" rx="2" fill="#3a7d44"/>
<text x="401.0" y="845.0" text-anchor="start" font-family="Helvetica, Arial, sans-serif" font-size="14" font-weight="normal" fill="#1a1a1a">2</text>
<rect x="434.0" y="831.0" width="13" height="13" rx="2" fill="#c07d18"/>
<text x="453.0" y="845.0" text-anchor="start" font-family="Helvetica, Arial, sans-serif" font-size="14" font-weight="normal" fill="#1a1a1a">3</text>
<rect x="486.0" y="831.0" width="13" height="13" rx="2" fill="#8a5a9e"/>
<text x="505.0" y="845.0" text-anchor="start" font-family="Helvetica, Arial, sans-serif" font-size="14" font-weight="normal" fill="#1a1a1a">4</text>
<rect x="538.0" y="831.0" width="13" height="13" rx="2" fill="#1f9e9e"/>
<text x="557.0" y="845.0" text-anchor="start" font-family="Helvetica, Arial, sans-serif" font-size="14" font-weight="normal" fill="#1a1a1a">5</text>
<rect x="590.0" y="831.0" width="13" height="13" rx="2" fill="#d1477a"/>
<text x="609.0" y="845.0" text-anchor="start" font-family="Helvetica, Arial, sans-serif" font-size="14" font-weight="normal" fill="#1a1a1a">21</text>
<rect x="642.0" y="831.0" width="13" height="13" rx="2" fill="#5b6bbf"/>
<text x="661.0" y="845.0" text-anchor="start" font-family="Helvetica, Arial, sans-serif" font-size="14" font-weight="normal" fill="#1a1a1a">22</text>
<circle cx="722.0" cy="840.0" r="5.5" fill="#6b7684"/>
<text x="733.0" y="845.0" text-anchor="start" font-family="Helvetica, Arial, sans-serif" font-size="14" font-weight="normal" fill="#6b7684">Qwen</text>
<rect x="790.0" y="834.5" width="11" height="11" fill="#6b7684"/>
<text x="808.0" y="845.0" text-anchor="start" font-family="Helvetica, Arial, sans-serif" font-size="14" font-weight="normal" fill="#6b7684">OLMo</text>
</svg>