<svg xmlns="http://www.w3.org/2000/svg" viewBox="0 0 1196 796" font-family="Helvetica, Arial, sans-serif">
<rect width="1196" height="796" fill="white"/>
<text x="618.0" y="48.0" text-anchor="middle" font-family="Helvetica, Arial, sans-serif" font-size="29" font-weight="bold" fill="#1a1a1a">The conversion cascade, per judge × organism</text>
<text x="618.0" y="80.0" text-anchor="middle" font-family="Helvetica, Arial, sans-serif" font-size="16" font-weight="normal" fill="#6b7684">Mean per round: available spread, |selection gap| the judge extracts, |value move| produced. Generators kept separate.</text>
<rect x="70" y="132" width="262" height="262" rx="8" fill="white" stroke="#d0d7de" stroke-width="1.3"/>
<text x="82.0" y="155.0" text-anchor="start" font-family="Helvetica, Arial, sans-serif" font-size="18" font-weight="bold" fill="#1a1a1a">base</text>
<text x="322.0" y="155.0" text-anchor="end" font-family="Helvetica, Arial, sans-serif" font-size="14" font-weight="normal" fill="#6b7684">OLMo</text>
<line x1="86" y1="335.2" x2="316" y2="335.2" stroke="#eef0f2" stroke-width="1"/>
<line x1="86" y1="292.4" x2="316" y2="292.4" stroke="#eef0f2" stroke-width="1"/>
<line x1="86" y1="249.6" x2="316" y2="249.6" stroke="#eef0f2" stroke-width="1"/>
<line x1="86" y1="206.8" x2="316" y2="206.8" stroke="#eef0f2" stroke-width="1"/>
<polyline points="86.0,253.1 162.7,254.6 239.3,256.8 316.0,261.8" fill="none" stroke="#6b7684" stroke-width="2.6" stroke-linejoin="round"/>
<circle cx="86.0" cy="253.1" r="3" fill="#6b7684"/>
<circle cx="162.7" cy="254.6" r="3" fill="#6b7684"/>
<circle cx="239.3" cy="256.8" r="3" fill="#6b7684"/>
<circle cx="316.0" cy="261.8" r="3" fill="#6b7684"/>
<polyline points="86.0,355.2 162.7,357.2 239.3,331.4 316.0,333.4" fill="none" stroke="#2867b5" stroke-width="2.6" stroke-linejoin="round"/>
<circle cx="86.0" cy="355.2" r="3" fill="#2867b5"/>
<circle cx="162.7" cy="357.2" r="3" fill="#2867b5"/>
<circle cx="239.3" cy="331.4" r="3" fill="#2867b5"/>
<circle cx="316.0" cy="333.4" r="3" fill="#2867b5"/>
<polyline points="86.0,350.6 162.7,351.6 239.3,335.5 316.0,328.2" fill="none" stroke="#b5342c" stroke-width="2.6" stroke-linejoin="round" stroke-dasharray="5 4"/>
<circle cx="86.0" cy="350.6" r="3" fill="#b5342c"/>
<circle cx="162.7" cy="351.6" r="3" fill="#b5342c"/>
<circle cx="239.3" cy="335.5" r="3" fill="#b5342c"/>
<circle cx="316.0" cy="328.2" r="3" fill="#b5342c"/>
<rect x="348" y="132" width="262" height="262" rx="8" fill="white" stroke="#d0d7de" stroke-width="1.3"/>
<text x="360.0" y="155.0" text-anchor="start" font-family="Helvetica, Arial, sans-serif" font-size="18" font-weight="bold" fill="#1a1a1a">cautious copy</text>
<text x="600.0" y="155.0" text-anchor="end" font-family="Helvetica, Arial, sans-serif" font-size="14" font-weight="normal" fill="#6b7684">OLMo</text>
<line x1="364" y1="335.2" x2="594" y2="335.2" stroke="#eef0f2" stroke-width="1"/>
<line x1="364" y1="292.4" x2="594" y2="292.4" stroke="#eef0f2" stroke-width="1"/>
<line x1="364" y1="249.6" x2="594" y2="249.6" stroke="#eef0f2" stroke-width="1"/>
<line x1="364" y1="206.8" x2="594" y2="206.8" stroke="#eef0f2" stroke-width="1"/>
<polyline points="364.0,243.1 440.7,270.7 517.3,287.6 594.0,307.1" fill="none" stroke="#6b7684" stroke-width="2.6" stroke-linejoin="round"/>
<circle cx="364.0" cy="243.1" r="3" fill="#6b7684"/>
<circle cx="440.7" cy="270.7" r="3" fill="#6b7684"/>
<circle cx="517.3" cy="287.6" r="3" fill="#6b7684"/>
<circle cx="594.0" cy="307.1" r="3" fill="#6b7684"/>
<polyline points="364.0,348.3 440.7,352.7 517.3,358.7 594.0,357.2" fill="none" stroke="#2867b5" stroke-width="2.6" stroke-linejoin="round"/>
<circle cx="364.0" cy="348.3" r="3" fill="#2867b5"/>
<circle cx="440.7" cy="352.7" r="3" fill="#2867b5"/>
<circle cx="517.3" cy="358.7" r="3" fill="#2867b5"/>
<circle cx="594.0" cy="357.2" r="3" fill="#2867b5"/>
<polyline points="364.0,303.2 440.7,351.0 517.3,356.1 594.0,366.9" fill="none" stroke="#b5342c" stroke-width="2.6" stroke-linejoin="round" stroke-dasharray="5 4"/>
<circle cx="364.0" cy="303.2" r="3" fill="#b5342c"/>
<circle cx="440.7" cy="351.0" r="3" fill="#b5342c"/>
<circle cx="517.3" cy="356.1" r="3" fill="#b5342c"/>
<circle cx="594.0" cy="366.9" r="3" fill="#b5342c"/>
<rect x="626" y="132" width="262" height="262" rx="8" fill="white" stroke="#d0d7de" stroke-width="1.3"/>
<text x="638.0" y="155.0" text-anchor="start" font-family="Helvetica, Arial, sans-serif" font-size="18" font-weight="bold" fill="#1a1a1a">score oracle</text>
<text x="878.0" y="155.0" text-anchor="end" font-family="Helvetica, Arial, sans-serif" font-size="14" font-weight="normal" fill="#6b7684">OLMo</text>
<line x1="642" y1="335.2" x2="872" y2="335.2" stroke="#eef0f2" stroke-width="1"/>
<line x1="642" y1="292.4" x2="872" y2="292.4" stroke="#eef0f2" stroke-width="1"/>
<line x1="642" y1="249.6" x2="872" y2="249.6" stroke="#eef0f2" stroke-width="1"/>
<line x1="642" y1="206.8" x2="872" y2="206.8" stroke="#eef0f2" stroke-width="1"/>
<polyline points="642.0,351.4 718.7,313.2 795.3,326.2 872.0,362.4" fill="none" stroke="#6b7684" stroke-width="2.6" stroke-linejoin="round"/>
<circle cx="642.0" cy="351.4" r="3" fill="#6b7684"/>
<circle cx="718.7" cy="313.2" r="3" fill="#6b7684"/>
<circle cx="795.3" cy="326.2" r="3" fill="#6b7684"/>
<circle cx="872.0" cy="362.4" r="3" fill="#6b7684"/>
<polyline points="642.0,354.2 718.7,312.6 795.3,330.4 872.0,363.1" fill="none" stroke="#2867b5" stroke-width="2.6" stroke-linejoin="round"/>
<circle cx="642.0" cy="354.2" r="3" fill="#2867b5"/>
<circle cx="718.7" cy="312.6" r="3" fill="#2867b5"/>
<circle cx="795.3" cy="330.4" r="3" fill="#2867b5"/>
<circle cx="872.0" cy="363.1" r="3" fill="#2867b5"/>
<polyline points="642.0,324.5 718.7,333.4 795.3,342.3 872.0,335.6" fill="none" stroke="#b5342c" stroke-width="2.6" stroke-linejoin="round" stroke-dasharray="5 4"/>
<circle cx="642.0" cy="324.5" r="3" fill="#b5342c"/>
<circle cx="718.7" cy="333.4" r="3" fill="#b5342c"/>
<circle cx="795.3" cy="342.3" r="3" fill="#b5342c"/>
<circle cx="872.0" cy="335.6" r="3" fill="#b5342c"/>
<rect x="904" y="132" width="262" height="262" rx="8" fill="white" stroke="#d0d7de" stroke-width="1.3"/>
<text x="916.0" y="155.0" text-anchor="start" font-family="Helvetica, Arial, sans-serif" font-size="18" font-weight="bold" fill="#1a1a1a">base</text>
<text x="1156.0" y="155.0" text-anchor="end" font-family="Helvetica, Arial, sans-serif" font-size="14" font-weight="normal" fill="#6b7684">Qwen</text>
<line x1="920" y1="335.2" x2="1150" y2="335.2" stroke="#eef0f2" stroke-width="1"/>
<line x1="920" y1="292.4" x2="1150" y2="292.4" stroke="#eef0f2" stroke-width="1"/>
<line x1="920" y1="249.6" x2="1150" y2="249.6" stroke="#eef0f2" stroke-width="1"/>
<line x1="920" y1="206.8" x2="1150" y2="206.8" stroke="#eef0f2" stroke-width="1"/>
<polyline points="920.0,185.3 996.7,192.8 1073.3,196.9 1150.0,195.6" fill="none" stroke="#6b7684" stroke-width="2.6" stroke-linejoin="round"/>
<circle cx="920.0" cy="185.3" r="3" fill="#6b7684"/>
<circle cx="996.7" cy="192.8" r="3" fill="#6b7684"/>
<circle cx="1073.3" cy="196.9" r="3" fill="#6b7684"/>
<circle cx="1150.0" cy="195.6" r="3" fill="#6b7684"/>
<polyline points="920.0,343.8 996.7,351.3 1073.3,355.7 1150.0,358.7" fill="none" stroke="#2867b5" stroke-width="2.6" stroke-linejoin="round"/>
<circle cx="920.0" cy="343.8" r="3" fill="#2867b5"/>
<circle cx="996.7" cy="351.3" r="3" fill="#2867b5"/>
<circle cx="1073.3" cy="355.7" r="3" fill="#2867b5"/>
<circle cx="1150.0" cy="358.7" r="3" fill="#2867b5"/>
<polyline points="920.0,333.4 996.7,342.3 1073.3,360.2 1150.0,345.7" fill="none" stroke="#b5342c" stroke-width="2.6" stroke-linejoin="round" stroke-dasharray="5 4"/>
<circle cx="920.0" cy="333.4" r="3" fill="#b5342c"/>
<circle cx="996.7" cy="342.3" r="3" fill="#b5342c"/>
<circle cx="1073.3" cy="360.2" r="3" fill="#b5342c"/>
<circle cx="1150.0" cy="345.7" r="3" fill="#b5342c"/>
<rect x="70" y="438" width="262" height="262" rx="8" fill="white" stroke="#d0d7de" stroke-width="1.3"/>
<text x="82.0" y="461.0" text-anchor="start" font-family="Helvetica, Arial, sans-serif" font-size="18" font-weight="bold" fill="#1a1a1a">random</text>
<text x="322.0" y="461.0" text-anchor="end" font-family="Helvetica, Arial, sans-serif" font-size="14" font-weight="normal" fill="#6b7684">Qwen</text>
<line x1="86" y1="641.2" x2="316" y2="641.2" stroke="#eef0f2" stroke-width="1"/>
<line x1="86" y1="598.4" x2="316" y2="598.4" stroke="#eef0f2" stroke-width="1"/>
<line x1="86" y1="555.6" x2="316" y2="555.6" stroke="#eef0f2" stroke-width="1"/>
<line x1="86" y1="512.8" x2="316" y2="512.8" stroke="#eef0f2" stroke-width="1"/>
<polyline points="86.0,491.3 162.7,498.5 239.3,508.4 316.0,509.3" fill="none" stroke="#6b7684" stroke-width="2.6" stroke-linejoin="round"/>
<circle cx="86.0" cy="491.3" r="3" fill="#6b7684"/>
<circle cx="162.7" cy="498.5" r="3" fill="#6b7684"/>
<circle cx="239.3" cy="508.4" r="3" fill="#6b7684"/>
<circle cx="316.0" cy="509.3" r="3" fill="#6b7684"/>
<polyline points="86.0,654.3 162.7,667.7 239.3,658.7 316.0,658.7" fill="none" stroke="#2867b5" stroke-width="2.6" stroke-linejoin="round"/>
<circle cx="86.0" cy="654.3" r="3" fill="#2867b5"/>
<circle cx="162.7" cy="667.7" r="3" fill="#2867b5"/>
<circle cx="239.3" cy="658.7" r="3" fill="#2867b5"/>
<circle cx="316.0" cy="658.7" r="3" fill="#2867b5"/>
<polyline points="86.0,639.4 162.7,563.6 239.3,639.4 316.0,641.6" fill="none" stroke="#b5342c" stroke-width="2.6" stroke-linejoin="round" stroke-dasharray="5 4"/>
<circle cx="86.0" cy="639.4" r="3" fill="#b5342c"/>
<circle cx="162.7" cy="563.6" r="3" fill="#b5342c"/>
<circle cx="239.3" cy="639.4" r="3" fill="#b5342c"/>
<circle cx="316.0" cy="641.6" r="3" fill="#b5342c"/>
<rect x="348" y="438" width="262" height="262" rx="8" fill="white" stroke="#d0d7de" stroke-width="1.3"/>
<text x="360.0" y="461.0" text-anchor="start" font-family="Helvetica, Arial, sans-serif" font-size="18" font-weight="bold" fill="#1a1a1a">risk copy</text>
<text x="600.0" y="461.0" text-anchor="end" font-family="Helvetica, Arial, sans-serif" font-size="14" font-weight="normal" fill="#6b7684">Qwen</text>
<line x1="364" y1="641.2" x2="594" y2="641.2" stroke="#eef0f2" stroke-width="1"/>
<line x1="364" y1="598.4" x2="594" y2="598.4" stroke="#eef0f2" stroke-width="1"/>
<line x1="364" y1="555.6" x2="594" y2="555.6" stroke="#eef0f2" stroke-width="1"/>
<line x1="364" y1="512.8" x2="594" y2="512.8" stroke="#eef0f2" stroke-width="1"/>
<polyline points="364.0,491.3 440.7,503.1 517.3,496.1 594.0,503.9" fill="none" stroke="#6b7684" stroke-width="2.6" stroke-linejoin="round"/>
<circle cx="364.0" cy="491.3" r="3" fill="#6b7684"/>
<circle cx="440.7" cy="503.1" r="3" fill="#6b7684"/>
<circle cx="517.3" cy="496.1" r="3" fill="#6b7684"/>
<circle cx="594.0" cy="503.9" r="3" fill="#6b7684"/>
<polyline points="364.0,663.2 440.7,675.1 517.3,676.6 594.0,658.7" fill="none" stroke="#2867b5" stroke-width="2.6" stroke-linejoin="round"/>
<circle cx="364.0" cy="663.2" r="3" fill="#2867b5"/>
<circle cx="440.7" cy="675.1" r="3" fill="#2867b5"/>
<circle cx="517.3" cy="676.6" r="3" fill="#2867b5"/>
<circle cx="594.0" cy="658.7" r="3" fill="#2867b5"/>
<polyline points="364.0,661.7 440.7,635.0 517.3,626.0 594.0,638.3" fill="none" stroke="#b5342c" stroke-width="2.6" stroke-linejoin="round" stroke-dasharray="5 4"/>
<circle cx="364.0" cy="661.7" r="3" fill="#b5342c"/>
<circle cx="440.7" cy="635.0" r="3" fill="#b5342c"/>
<circle cx="517.3" cy="626.0" r="3" fill="#b5342c"/>
<circle cx="594.0" cy="638.3" r="3" fill="#b5342c"/>
<rect x="626" y="438" width="262" height="262" rx="8" fill="white" stroke="#d0d7de" stroke-width="1.3"/>
<text x="638.0" y="461.0" text-anchor="start" font-family="Helvetica, Arial, sans-serif" font-size="18" font-weight="bold" fill="#1a1a1a">self</text>
<text x="878.0" y="461.0" text-anchor="end" font-family="Helvetica, Arial, sans-serif" font-size="14" font-weight="normal" fill="#6b7684">Qwen</text>
<line x1="642" y1="641.2" x2="872" y2="641.2" stroke="#eef0f2" stroke-width="1"/>
<line x1="642" y1="598.4" x2="872" y2="598.4" stroke="#eef0f2" stroke-width="1"/>
<line x1="642" y1="555.6" x2="872" y2="555.6" stroke="#eef0f2" stroke-width="1"/>
<line x1="642" y1="512.8" x2="872" y2="512.8" stroke="#eef0f2" stroke-width="1"/>
<polyline points="642.0,491.3 718.7,505.0 795.3,513.7 872.0,540.3" fill="none" stroke="#6b7684" stroke-width="2.6" stroke-linejoin="round"/>
<circle cx="642.0" cy="491.3" r="3" fill="#6b7684"/>
<circle cx="718.7" cy="505.0" r="3" fill="#6b7684"/>
<circle cx="795.3" cy="513.7" r="3" fill="#6b7684"/>
<circle cx="872.0" cy="540.3" r="3" fill="#6b7684"/>
<polyline points="642.0,663.2 718.7,669.1 795.3,655.8 872.0,633.5" fill="none" stroke="#2867b5" stroke-width="2.6" stroke-linejoin="round"/>
<circle cx="642.0" cy="663.2" r="3" fill="#2867b5"/>
<circle cx="718.7" cy="669.1" r="3" fill="#2867b5"/>
<circle cx="795.3" cy="655.8" r="3" fill="#2867b5"/>
<circle cx="872.0" cy="633.5" r="3" fill="#2867b5"/>
<polyline points="642.0,666.2 718.7,617.1 795.3,594.8 872.0,593.7" fill="none" stroke="#b5342c" stroke-width="2.6" stroke-linejoin="round" stroke-dasharray="5 4"/>
<circle cx="642.0" cy="666.2" r="3" fill="#b5342c"/>
<circle cx="718.7" cy="617.1" r="3" fill="#b5342c"/>
<circle cx="795.3" cy="594.8" r="3" fill="#b5342c"/>
<circle cx="872.0" cy="593.7" r="3" fill="#b5342c"/>
<text x="86.0" y="410.0" text-anchor="middle" font-family="Helvetica, Arial, sans-serif" font-size="12" font-weight="normal" fill="#6b7684">1</text>
<text x="162.7" y="410.0" text-anchor="middle" font-family="Helvetica, Arial, sans-serif" font-size="12" font-weight="normal" fill="#6b7684">2</text>
<text x="239.3" y="410.0" text-anchor="middle" font-family="Helvetica, Arial, sans-serif" font-size="12" font-weight="normal" fill="#6b7684">3</text>
<text x="316.0" y="410.0" text-anchor="middle" font-family="Helvetica, Arial, sans-serif" font-size="12" font-weight="normal" fill="#6b7684">4</text>
<text x="364.0" y="410.0" text-anchor="middle" font-family="Helvetica, Arial, sans-serif" font-size="12" font-weight="normal" fill="#6b7684">1</text>
<text x="440.7" y="410.0" text-anchor="middle" font-family="Helvetica, Arial, sans-serif" font-size="12" font-weight="normal" fill="#6b7684">2</text>
<text x="517.3" y="410.0" text-anchor="middle" font-family="Helvetica, Arial, sans-serif" font-size="12" font-weight="normal" fill="#6b7684">3</text>
<text x="594.0" y="410.0" text-anchor="middle" font-family="Helvetica, Arial, sans-serif" font-size="12" font-weight="normal" fill="#6b7684">4</text>
<text x="642.0" y="410.0" text-anchor="middle" font-family="Helvetica, Arial, sans-serif" font-size="12" font-weight="normal" fill="#6b7684">1</text>
<text x="718.7" y="410.0" text-anchor="middle" font-family="Helvetica, Arial, sans-serif" font-size="12" font-weight="normal" fill="#6b7684">2</text>
<text x="795.3" y="410.0" text-anchor="middle" font-family="Helvetica, Arial, sans-serif" font-size="12" font-weight="normal" fill="#6b7684">3</text>
<text x="872.0" y="410.0" text-anchor="middle" font-family="Helvetica, Arial, sans-serif" font-size="12" font-weight="normal" fill="#6b7684">4</text>
<text x="920.0" y="410.0" text-anchor="middle" font-family="Helvetica, Arial, sans-serif" font-size="12" font-weight="normal" fill="#6b7684">1</text>
<text x="996.7" y="410.0" text-anchor="middle" font-family="Helvetica, Arial, sans-serif" font-size="12" font-weight="normal" fill="#6b7684">2</text>
<text x="1073.3" y="410.0" text-anchor="middle" font-family="Helvetica, Arial, sans-serif" font-size="12" font-weight="normal" fill="#6b7684">3</text>
<text x="1150.0" y="410.0" text-anchor="middle" font-family="Helvetica, Arial, sans-serif" font-size="12" font-weight="normal" fill="#6b7684">4</text>
<text x="86.0" y="716.0" text-anchor="middle" font-family="Helvetica, Arial, sans-serif" font-size="12" font-weight="normal" fill="#6b7684">1</text>
<text x="162.7" y="716.0" text-anchor="middle" font-family="Helvetica, Arial, sans-serif" font-size="12" font-weight="normal" fill="#6b7684">2</text>
<text x="239.3" y="716.0" text-anchor="middle" font-family="Helvetica, Arial, sans-serif" font-size="12" font-weight="normal" fill="#6b7684">3</text>
<text x="316.0" y="716.0" text-anchor="middle" font-family="Helvetica, Arial, sans-serif" font-size="12" font-weight="normal" fill="#6b7684">4</text>
<text x="364.0" y="716.0" text-anchor="middle" font-family="Helvetica, Arial, sans-serif" font-size="12" font-weight="normal" fill="#6b7684">1</text>
<text x="440.7" y="716.0" text-anchor="middle" font-family="Helvetica, Arial, sans-serif" font-size="12" font-weight="normal" fill="#6b7684">2</text>
<text x="517.3" y="716.0" text-anchor="middle" font-family="Helvetica, Arial, sans-serif" font-size="12" font-weight="normal" fill="#6b7684">3</text>
<text x="594.0" y="716.0" text-anchor="middle" font-family="Helvetica, Arial, sans-serif" font-size="12" font-weight="normal" fill="#6b7684">4</text>
<text x="642.0" y="716.0" text-anchor="middle" font-family="Helvetica, Arial, sans-serif" font-size="12" font-weight="normal" fill="#6b7684">1</text>
<text x="718.7" y="716.0" text-anchor="middle" font-family="Helvetica, Arial, sans-serif" font-size="12" font-weight="normal" fill="#6b7684">2</text>
<text x="795.3" y="716.0" text-anchor="middle" font-family="Helvetica, Arial, sans-serif" font-size="12" font-weight="normal" fill="#6b7684">3</text>
<text x="872.0" y="716.0" text-anchor="middle" font-family="Helvetica, Arial, sans-serif" font-size="12" font-weight="normal" fill="#6b7684">4</text>
<text x="62.0" y="169.0" text-anchor="end" font-family="Helvetica, Arial, sans-serif" font-size="12" font-weight="normal" fill="#6b7684">0.5</text>
<text x="62.0" y="383.0" text-anchor="end" font-family="Helvetica, Arial, sans-serif" font-size="12" font-weight="normal" fill="#6b7684">0</text>
<text x="62.0" y="475.0" text-anchor="end" font-family="Helvetica, Arial, sans-serif" font-size="12" font-weight="normal" fill="#6b7684">0.5</text>
<text x="62.0" y="689.0" text-anchor="end" font-family="Helvetica, Arial, sans-serif" font-size="12" font-weight="normal" fill="#6b7684">0</text>
<text x="618.0" y="744.0" text-anchor="middle" font-family="Helvetica, Arial, sans-serif" font-size="17" font-weight="bold" fill="#1a1a1a">training round</text>
<polyline points="76.0,769.0 108.0,769.0" fill="none" stroke="#6b7684" stroke-width="3" stroke-linejoin="round"/>
<text x="118.0" y="774.0" text-anchor="start" font-family="Helvetica, Arial, sans-serif" font-size="15" font-weight="normal" fill="#1a1a1a">spread (available)</text>
<polyline points="303.2,769.0 335.2,769.0" fill="none" stroke="#2867b5" stroke-width="3" stroke-linejoin="round"/>
<text x="345.2" y="774.0" text-anchor="start" font-family="Helvetica, Arial, sans-serif" font-size="15" font-weight="normal" fill="#1a1a1a">|gap| (extracted)</text>
<polyline points="522.0,769.0 554.0,769.0" fill="none" stroke="#b5342c" stroke-width="3" stroke-linejoin="round" stroke-dasharray="5 4"/>
<text x="564.0" y="774.0" text-anchor="start" font-family="Helvetica, Arial, sans-serif" font-size="15" font-weight="normal" fill="#1a1a1a">|value move|</text>
</svg>