<svg xmlns="http://www.w3.org/2000/svg" viewBox="0 0 1062 642" font-family="Helvetica, Arial, sans-serif">
<rect width="1062" height="642" fill="white"/>
<text x="531.0" y="50.0" text-anchor="middle" font-family="Helvetica, Arial, sans-serif" font-size="29" font-weight="bold" fill="#1a1a1a">Is utilization a stable property of the judge? Utilization over rounds</text>
<text x="531.0" y="82.0" text-anchor="middle" font-family="Helvetica, Arial, sans-serif" font-size="17" font-weight="normal" fill="#6b7684">Own-pool loops. Each line = one judge's mean utilization per training round.</text>
<line x1="92" y1="552.0" x2="812" y2="552.0" stroke="#eef0f2" stroke-width="1"/>
<text x="82.0" y="557.0" text-anchor="end" font-family="Helvetica, Arial, sans-serif" font-size="14" font-weight="normal" fill="#6b7684">0.00</text>
<line x1="92" y1="447.0" x2="812" y2="447.0" stroke="#eef0f2" stroke-width="1"/>
<text x="82.0" y="452.0" text-anchor="end" font-family="Helvetica, Arial, sans-serif" font-size="14" font-weight="normal" fill="#6b7684">0.25</text>
<line x1="92" y1="342.0" x2="812" y2="342.0" stroke="#eef0f2" stroke-width="1"/>
<text x="82.0" y="347.0" text-anchor="end" font-family="Helvetica, Arial, sans-serif" font-size="14" font-weight="normal" fill="#6b7684">0.50</text>
<line x1="92" y1="237.0" x2="812" y2="237.0" stroke="#eef0f2" stroke-width="1"/>
<text x="82.0" y="242.0" text-anchor="end" font-family="Helvetica, Arial, sans-serif" font-size="14" font-weight="normal" fill="#6b7684">0.75</text>
<line x1="92" y1="132.0" x2="812" y2="132.0" stroke="#eef0f2" stroke-width="1"/>
<text x="82.0" y="137.0" text-anchor="end" font-family="Helvetica, Arial, sans-serif" font-size="14" font-weight="normal" fill="#6b7684">1.00</text>
<text x="92.0" y="578.0" text-anchor="middle" font-family="Helvetica, Arial, sans-serif" font-size="14" font-weight="normal" fill="#6b7684">1</text>
<text x="332.0" y="578.0" text-anchor="middle" font-family="Helvetica, Arial, sans-serif" font-size="14" font-weight="normal" fill="#6b7684">2</text>
<text x="572.0" y="578.0" text-anchor="middle" font-family="Helvetica, Arial, sans-serif" font-size="14" font-weight="normal" fill="#6b7684">3</text>
<text x="812.0" y="578.0" text-anchor="middle" font-family="Helvetica, Arial, sans-serif" font-size="14" font-weight="normal" fill="#6b7684">4</text>
<text x="452.0" y="606.0" text-anchor="middle" font-family="Helvetica, Arial, sans-serif" font-size="18" font-weight="bold" fill="#1a1a1a">training round</text>
<text x="34" y="342.0" text-anchor="middle" font-size="18" font-weight="bold" fill="#1a1a1a" font-family="Helvetica, Arial, sans-serif" transform="rotate(-90 34 342.0)">mean utilization</text>
<polyline points="92.0,508.3 332.0,517.0 572.0,485.5 812.0,410.6" fill="none" stroke="#2867b5" stroke-width="3"/>
<circle cx="92.0" cy="508.3" r="4.2" fill="#2867b5"/>
<circle cx="332.0" cy="517.0" r="4.2" fill="#2867b5"/>
<circle cx="572.0" cy="485.5" r="4.2" fill="#2867b5"/>
<circle cx="812.0" cy="410.6" r="4.2" fill="#2867b5"/>
<circle cx="834" cy="133.0" r="7" fill="#2867b5"/>
<text x="848.0" y="138.0" text-anchor="start" font-family="Helvetica, Arial, sans-serif" font-size="16" font-weight="normal" fill="#1a1a1a">self</text>
<polyline points="92.0,508.3 332.0,528.6 572.0,536.4 812.0,498.1" fill="none" stroke="#8a5a9e" stroke-width="3"/>
<circle cx="92.0" cy="508.3" r="4.2" fill="#8a5a9e"/>
<circle cx="332.0" cy="528.6" r="4.2" fill="#8a5a9e"/>
<circle cx="572.0" cy="536.4" r="4.2" fill="#8a5a9e"/>
<circle cx="812.0" cy="498.1" r="4.2" fill="#8a5a9e"/>
<circle cx="834" cy="163.0" r="7" fill="#8a5a9e"/>
<text x="848.0" y="168.0" text-anchor="start" font-family="Helvetica, Arial, sans-serif" font-size="16" font-weight="normal" fill="#1a1a1a">risk copy</text>
<polyline points="92.0,407.5 332.0,377.8 572.0,415.0 812.0,426.0" fill="none" stroke="#3a7d44" stroke-width="3"/>
<circle cx="92.0" cy="407.5" r="4.2" fill="#3a7d44"/>
<circle cx="332.0" cy="377.8" r="4.2" fill="#3a7d44"/>
<circle cx="572.0" cy="415.0" r="4.2" fill="#3a7d44"/>
<circle cx="812.0" cy="426.0" r="4.2" fill="#3a7d44"/>
<circle cx="834" cy="193.0" r="7" fill="#3a7d44"/>
<text x="848.0" y="198.0" text-anchor="start" font-family="Helvetica, Arial, sans-serif" font-size="16" font-weight="normal" fill="#1a1a1a">cautious copy</text>
<polyline points="92.0,472.1 332.0,484.3 572.0,444.6 812.0,415.3" fill="none" stroke="#6b7684" stroke-width="3"/>
<circle cx="92.0" cy="472.1" r="4.2" fill="#6b7684"/>
<circle cx="332.0" cy="484.3" r="4.2" fill="#6b7684"/>
<circle cx="572.0" cy="444.6" r="4.2" fill="#6b7684"/>
<circle cx="812.0" cy="415.3" r="4.2" fill="#6b7684"/>
<circle cx="834" cy="223.0" r="7" fill="#6b7684"/>
<text x="848.0" y="228.0" text-anchor="start" font-family="Helvetica, Arial, sans-serif" font-size="16" font-weight="normal" fill="#1a1a1a">base</text>
<polyline points="92.0,486.9 332.0,521.4 572.0,474.1 812.0,491.2" fill="none" stroke="#c07d18" stroke-width="3"/>
<circle cx="92.0" cy="486.9" r="4.2" fill="#c07d18"/>
<circle cx="332.0" cy="521.4" r="4.2" fill="#c07d18"/>
<circle cx="572.0" cy="474.1" r="4.2" fill="#c07d18"/>
<circle cx="812.0" cy="491.2" r="4.2" fill="#c07d18"/>
<circle cx="834" cy="253.0" r="7" fill="#c07d18"/>
<text x="848.0" y="258.0" text-anchor="start" font-family="Helvetica, Arial, sans-serif" font-size="16" font-weight="normal" fill="#1a1a1a">random</text>
<polyline points="92.0,132.0 332.0,132.0 572.0,132.0 812.0,132.0" fill="none" stroke="#b5342c" stroke-width="3"/>
<circle cx="92.0" cy="132.0" r="4.2" fill="#b5342c"/>
<circle cx="332.0" cy="132.0" r="4.2" fill="#b5342c"/>
<circle cx="572.0" cy="132.0" r="4.2" fill="#b5342c"/>
<circle cx="812.0" cy="132.0" r="4.2" fill="#b5342c"/>
<circle cx="834" cy="283.0" r="7" fill="#b5342c"/>
<text x="848.0" y="288.0" text-anchor="start" font-family="Helvetica, Arial, sans-serif" font-size="16" font-weight="normal" fill="#1a1a1a">score oracle</text>
</svg>