<svg xmlns="http://www.w3.org/2000/svg" viewBox="0 0 1042 856" font-family="Helvetica, Arial, sans-serif">
<rect width="1042" height="856" fill="white"/>
<text x="540.0" y="46.0" text-anchor="middle" font-family="Helvetica, Arial, sans-serif" font-size="29" font-weight="bold" fill="#1a1a1a">Selection gap vs the value move it produces, by judge</text>
<text x="540.0" y="78.0" text-anchor="middle" font-family="Helvetica, Arial, sans-serif" font-size="17" font-weight="normal" fill="#6b7684">Own-pool loops. The kept-minus-pool gap this round against the value change the same round.</text>
<text x="540.0" y="100.0" text-anchor="middle" font-family="Helvetica, Arial, sans-serif" font-size="15" font-weight="normal" fill="#6b7684">each path = one run; dot per training round, arrow to the next · EACH PANEL is scaled to its own runs (range printed below it)</text>
<rect x="74" y="128" width="300" height="300" rx="9" fill="white" stroke="#d0d7de" stroke-width="1.3"/>
<text x="88.0" y="153.0" text-anchor="start" font-family="Helvetica, Arial, sans-serif" font-size="20" font-weight="bold" fill="#1a1a1a">self</text>
<text x="364.0" y="153.0" text-anchor="end" font-family="Helvetica, Arial, sans-serif" font-size="13.5" font-weight="normal" fill="#6b7684">4 runs · Qwen</text>
<line x1="186.2" y1="162" x2="186.2" y2="414" stroke="#eceef1" stroke-width="1.2"/>
<line x1="84" y1="309.0" x2="364" y2="309.0" stroke="#eceef1" stroke-width="1.2"/>
<line x1="180.8" y1="322.8" x2="178.2" y2="326.9" stroke="#2867b5" stroke-width="1.9" stroke-opacity="0.72" stroke-linecap="round"/><polygon points="175.4,331.1 176.1,325.5 180.3,328.3" fill="#2867b5" fill-opacity="0.72"/>
<line x1="175.4" y1="331.1" x2="122.7" y2="380.1" stroke="#2867b5" stroke-width="1.9" stroke-opacity="0.72" stroke-linecap="round"/><polygon points="116.1,386.2 119.6,376.8 125.7,383.4" fill="#2867b5" fill-opacity="0.72"/>
<line x1="116.1" y1="386.2" x2="191.4" y2="291.3" stroke="#2867b5" stroke-width="1.9" stroke-opacity="0.72" stroke-linecap="round"/><polygon points="197.0,284.2 195.0,294.1 187.9,288.5" fill="#2867b5" fill-opacity="0.72"/>
<circle cx="180.8" cy="322.8" r="3.6" fill="#2867b5"/>
<circle cx="175.4" cy="331.1" r="3.6" fill="#2867b5"/>
<circle cx="116.1" cy="386.2" r="3.6" fill="#2867b5"/>
<circle cx="197.0" cy="284.2" r="3.6" fill="#2867b5"/>
<line x1="159.3" y1="333.9" x2="205.4" y2="359.7" stroke="#b5342c" stroke-width="1.9" stroke-opacity="0.72" stroke-linecap="round"/><polygon points="213.2,364.1 203.1,363.7 207.6,355.8" fill="#b5342c" fill-opacity="0.72"/>
<line x1="213.2" y1="364.1" x2="198.1" y2="240.8" stroke="#b5342c" stroke-width="1.9" stroke-opacity="0.72" stroke-linecap="round"/><polygon points="197.0,231.9 202.6,240.3 193.7,241.3" fill="#b5342c" fill-opacity="0.72"/>
<line x1="197.0" y1="231.9" x2="178.7" y2="278.6" stroke="#b5342c" stroke-width="1.9" stroke-opacity="0.72" stroke-linecap="round"/><polygon points="175.4,287.0 174.5,277.0 182.9,280.3" fill="#b5342c" fill-opacity="0.72"/>
<circle cx="159.3" cy="333.9" r="3.6" fill="#b5342c"/>
<circle cx="213.2" cy="364.1" r="3.6" fill="#b5342c"/>
<circle cx="197.0" cy="231.9" r="3.6" fill="#b5342c"/>
<circle cx="175.4" cy="287.0" r="3.6" fill="#b5342c"/>
<line x1="224.0" y1="303.5" x2="185.5" y2="239.6" stroke="#3a7d44" stroke-width="1.9" stroke-opacity="0.72" stroke-linecap="round"/><polygon points="180.8,231.9 189.3,237.3 181.6,241.9" fill="#3a7d44" fill-opacity="0.72"/>
<line x1="180.8" y1="231.9" x2="175.8" y2="366.2" stroke="#3a7d44" stroke-width="1.9" stroke-opacity="0.72" stroke-linecap="round"/><polygon points="175.4,375.2 171.3,366.0 180.3,366.4" fill="#3a7d44" fill-opacity="0.72"/>
<line x1="175.4" y1="375.2" x2="170.4" y2="262.9" stroke="#3a7d44" stroke-width="1.9" stroke-opacity="0.72" stroke-linecap="round"/><polygon points="170.0,253.9 174.9,262.7 165.9,263.1" fill="#3a7d44" fill-opacity="0.72"/>
<circle cx="224.0" cy="303.5" r="3.6" fill="#3a7d44"/>
<circle cx="180.8" cy="231.9" r="3.6" fill="#3a7d44"/>
<circle cx="175.4" cy="375.2" r="3.6" fill="#3a7d44"/>
<circle cx="170.0" cy="253.9" r="3.6" fill="#3a7d44"/>
<line x1="180.8" y1="309.0" x2="190.2" y2="315.4" stroke="#c07d18" stroke-width="1.9" stroke-opacity="0.72" stroke-linecap="round"/><polygon points="197.0,320.1 187.9,318.8 192.5,312.0" fill="#c07d18" fill-opacity="0.72"/>
<line x1="197.0" y1="320.1" x2="183.4" y2="313.1" stroke="#c07d18" stroke-width="1.9" stroke-opacity="0.72" stroke-linecap="round"/><polygon points="175.4,309.0 185.5,309.1 181.4,317.1" fill="#c07d18" fill-opacity="0.72"/>
<line x1="175.4" y1="309.0" x2="324.8" y2="193.3" stroke="#c07d18" stroke-width="1.9" stroke-opacity="0.72" stroke-linecap="round"/><polygon points="331.9,187.8 327.6,196.9 322.1,189.7" fill="#c07d18" fill-opacity="0.72"/>
<circle cx="180.8" cy="309.0" r="3.6" fill="#c07d18"/>
<circle cx="197.0" cy="320.1" r="3.6" fill="#c07d18"/>
<circle cx="175.4" cy="309.0" r="3.6" fill="#c07d18"/>
<circle cx="331.9" cy="187.8" r="3.6" fill="#c07d18"/>
<text x="78.0" y="446.0" text-anchor="start" font-family="Helvetica, Arial, sans-serif" font-size="12.5" font-weight="normal" fill="#6b7684">x -0.18–0.38    y -0.29–0.46</text>
<rect x="390" y="128" width="300" height="300" rx="9" fill="white" stroke="#d0d7de" stroke-width="1.3"/>
<text x="404.0" y="153.0" text-anchor="start" font-family="Helvetica, Arial, sans-serif" font-size="20" font-weight="bold" fill="#1a1a1a">risk copy</text>
<text x="680.0" y="153.0" text-anchor="end" font-family="Helvetica, Arial, sans-serif" font-size="13.5" font-weight="normal" fill="#6b7684">4 runs · Qwen</text>
<line x1="522.0" y1="162" x2="522.0" y2="414" stroke="#eceef1" stroke-width="1.2"/>
<line x1="400" y1="282.3" x2="680" y2="282.3" stroke="#eceef1" stroke-width="1.2"/>
<line x1="504.0" y1="287.0" x2="488.9" y2="330.4" stroke="#2867b5" stroke-width="1.9" stroke-opacity="0.72" stroke-linecap="round"/><polygon points="486.0,339.0 484.7,329.0 493.2,331.9" fill="#2867b5" fill-opacity="0.72"/>
<line x1="486.0" y1="339.0" x2="486.0" y2="196.8" stroke="#2867b5" stroke-width="1.9" stroke-opacity="0.72" stroke-linecap="round"/><polygon points="486.0,187.8 490.5,196.8 481.5,196.8" fill="#2867b5" fill-opacity="0.72"/>
<line x1="486.0" y1="187.8" x2="468.8" y2="377.2" stroke="#2867b5" stroke-width="1.9" stroke-opacity="0.72" stroke-linecap="round"/><polygon points="468.0,386.2 464.3,376.8 473.3,377.7" fill="#2867b5" fill-opacity="0.72"/>
<circle cx="504.0" cy="287.0" r="3.6" fill="#2867b5"/>
<circle cx="486.0" cy="339.0" r="3.6" fill="#2867b5"/>
<circle cx="486.0" cy="187.8" r="3.6" fill="#2867b5"/>
<circle cx="468.0" cy="386.2" r="3.6" fill="#2867b5"/>
<line x1="432.1" y1="305.9" x2="514.9" y2="371.2" stroke="#b5342c" stroke-width="1.9" stroke-opacity="0.72" stroke-linecap="round"/><polygon points="522.0,376.7 512.1,374.7 517.7,367.6" fill="#b5342c" fill-opacity="0.72"/>
<line x1="522.0" y1="376.7" x2="555.9" y2="234.3" stroke="#b5342c" stroke-width="1.9" stroke-opacity="0.72" stroke-linecap="round"/><polygon points="558.0,225.6 560.3,235.4 551.5,233.3" fill="#b5342c" fill-opacity="0.72"/>
<line x1="558.0" y1="225.6" x2="476.7" y2="204.2" stroke="#b5342c" stroke-width="1.9" stroke-opacity="0.72" stroke-linecap="round"/><polygon points="468.0,201.9 477.8,199.9 475.5,208.6" fill="#b5342c" fill-opacity="0.72"/>
<circle cx="432.1" cy="305.9" r="3.6" fill="#b5342c"/>
<circle cx="522.0" cy="376.7" r="3.6" fill="#b5342c"/>
<circle cx="558.0" cy="225.6" r="3.6" fill="#b5342c"/>
<circle cx="468.0" cy="201.9" r="3.6" fill="#b5342c"/>
<line x1="647.9" y1="291.7" x2="458.9" y2="282.7" stroke="#3a7d44" stroke-width="1.9" stroke-opacity="0.72" stroke-linecap="round"/><polygon points="449.9,282.3 459.1,278.2 458.7,287.2" fill="#3a7d44" fill-opacity="0.72"/>
<line x1="449.9" y1="282.3" x2="497.8" y2="232.1" stroke="#3a7d44" stroke-width="1.9" stroke-opacity="0.72" stroke-linecap="round"/><polygon points="504.0,225.6 501.0,235.2 494.5,229.0" fill="#3a7d44" fill-opacity="0.72"/>
<line x1="504.0" y1="225.6" x2="438.9" y2="281.1" stroke="#3a7d44" stroke-width="1.9" stroke-opacity="0.72" stroke-linecap="round"/><polygon points="432.1,287.0 436.0,277.7 441.8,284.6" fill="#3a7d44" fill-opacity="0.72"/>
<circle cx="647.9" cy="291.7" r="3.6" fill="#3a7d44"/>
<circle cx="449.9" cy="282.3" r="3.6" fill="#3a7d44"/>
<circle cx="504.0" cy="225.6" r="3.6" fill="#3a7d44"/>
<circle cx="432.1" cy="287.0" r="3.6" fill="#3a7d44"/>
<line x1="504.0" y1="339.0" x2="520.6" y2="234.5" stroke="#c07d18" stroke-width="1.9" stroke-opacity="0.72" stroke-linecap="round"/><polygon points="522.0,225.6 525.0,235.2 516.1,233.8" fill="#c07d18" fill-opacity="0.72"/>
<line x1="522.0" y1="225.6" x2="522.0" y2="311.0" stroke="#c07d18" stroke-width="1.9" stroke-opacity="0.72" stroke-linecap="round"/><polygon points="522.0,320.0 517.5,311.0 526.5,311.0" fill="#c07d18" fill-opacity="0.72"/>
<line x1="522.0" y1="320.0" x2="621.6" y2="280.8" stroke="#c07d18" stroke-width="1.9" stroke-opacity="0.72" stroke-linecap="round"/><polygon points="629.9,277.5 623.2,285.0 619.9,276.7" fill="#c07d18" fill-opacity="0.72"/>
<circle cx="504.0" cy="339.0" r="3.6" fill="#c07d18"/>
<circle cx="522.0" cy="225.6" r="3.6" fill="#c07d18"/>
<circle cx="522.0" cy="320.0" r="3.6" fill="#c07d18"/>
<circle cx="629.9" cy="277.5" r="3.6" fill="#c07d18"/>
<text x="394.0" y="446.0" text-anchor="start" font-family="Helvetica, Arial, sans-serif" font-size="12.5" font-weight="normal" fill="#6b7684">x -0.07–0.10    y -0.23–0.21</text>
<rect x="706" y="128" width="300" height="300" rx="9" fill="white" stroke="#d0d7de" stroke-width="1.3"/>
<text x="720.0" y="153.0" text-anchor="start" font-family="Helvetica, Arial, sans-serif" font-size="20" font-weight="bold" fill="#1a1a1a">cautious copy</text>
<text x="996.0" y="153.0" text-anchor="end" font-family="Helvetica, Arial, sans-serif" font-size="13.5" font-weight="normal" fill="#6b7684">4 runs · OLMo</text>
<line x1="880.9" y1="162" x2="880.9" y2="414" stroke="#eceef1" stroke-width="1.2"/>
<line x1="716" y1="287.6" x2="996" y2="287.6" stroke="#eceef1" stroke-width="1.2"/>
<line x1="764.7" y1="359.7" x2="889.5" y2="295.9" stroke="#c07d18" stroke-width="1.9" stroke-opacity="0.72" stroke-linecap="round"/><polygon points="897.6,291.8 891.6,299.9 887.5,291.9" fill="#c07d18" fill-opacity="0.72"/>
<line x1="897.6" y1="291.8" x2="838.6" y2="252.5" stroke="#c07d18" stroke-width="1.9" stroke-opacity="0.72" stroke-linecap="round"/><polygon points="831.1,247.6 841.0,248.8 836.1,256.3" fill="#c07d18" fill-opacity="0.72"/>
<line x1="831.1" y1="247.6" x2="955.1" y2="273.3" stroke="#c07d18" stroke-width="1.9" stroke-opacity="0.72" stroke-linecap="round"/><polygon points="963.9,275.2 954.2,277.7 956.0,268.9" fill="#c07d18" fill-opacity="0.72"/>
<rect x="761.1" y="356.1" width="7.2" height="7.2" fill="#c07d18"/>
<rect x="894.0" y="288.2" width="7.2" height="7.2" fill="#c07d18"/>
<rect x="827.5" y="244.0" width="7.2" height="7.2" fill="#c07d18"/>
<rect x="960.3" y="271.6" width="7.2" height="7.2" fill="#c07d18"/>
<line x1="781.3" y1="368.7" x2="810.1" y2="316.5" stroke="#8a5a9e" stroke-width="1.9" stroke-opacity="0.72" stroke-linecap="round"/><polygon points="814.4,308.6 814.0,318.6 806.2,314.3" fill="#8a5a9e" fill-opacity="0.72"/>
<line x1="814.4" y1="308.6" x2="872.4" y2="290.3" stroke="#8a5a9e" stroke-width="1.9" stroke-opacity="0.72" stroke-linecap="round"/><polygon points="880.9,287.6 873.7,294.6 871.0,286.0" fill="#8a5a9e" fill-opacity="0.72"/>
<line x1="880.9" y1="287.6" x2="907.2" y2="266.6" stroke="#8a5a9e" stroke-width="1.9" stroke-opacity="0.72" stroke-linecap="round"/><polygon points="914.2,260.9 910.0,270.1 904.3,263.1" fill="#8a5a9e" fill-opacity="0.72"/>
<rect x="777.7" y="365.1" width="7.2" height="7.2" fill="#8a5a9e"/>
<rect x="810.8" y="305.0" width="7.2" height="7.2" fill="#8a5a9e"/>
<rect x="877.3" y="284.0" width="7.2" height="7.2" fill="#8a5a9e"/>
<rect x="910.6" y="257.3" width="7.2" height="7.2" fill="#8a5a9e"/>
<line x1="764.7" y1="386.2" x2="809.5" y2="317.0" stroke="#b5342c" stroke-width="1.9" stroke-opacity="0.72" stroke-linecap="round"/><polygon points="814.4,309.5 813.3,319.5 805.8,314.6" fill="#b5342c" fill-opacity="0.72"/>
<line x1="814.4" y1="309.5" x2="840.2" y2="292.6" stroke="#b5342c" stroke-width="1.9" stroke-opacity="0.72" stroke-linecap="round"/><polygon points="847.7,287.6 842.6,296.3 837.7,288.8" fill="#b5342c" fill-opacity="0.72"/>
<line x1="847.7" y1="287.6" x2="871.9" y2="287.6" stroke="#b5342c" stroke-width="1.9" stroke-opacity="0.72" stroke-linecap="round"/><polygon points="880.9,287.6 871.9,292.1 871.9,283.1" fill="#b5342c" fill-opacity="0.72"/>
<rect x="761.1" y="382.6" width="7.2" height="7.2" fill="#b5342c"/>
<rect x="810.8" y="305.9" width="7.2" height="7.2" fill="#b5342c"/>
<rect x="844.1" y="284.0" width="7.2" height="7.2" fill="#b5342c"/>
<rect x="877.3" y="284.0" width="7.2" height="7.2" fill="#b5342c"/>
<line x1="880.9" y1="187.8" x2="753.4" y2="360.4" stroke="#3a7d44" stroke-width="1.9" stroke-opacity="0.72" stroke-linecap="round"/><polygon points="748.1,367.6 749.8,357.7 757.0,363.0" fill="#3a7d44" fill-opacity="0.72"/>
<line x1="748.1" y1="367.6" x2="748.1" y2="357.7" stroke="#3a7d44" stroke-width="1.9" stroke-opacity="0.72" stroke-linecap="round"/><polygon points="748.1,350.5 751.7,357.7 744.5,357.7" fill="#3a7d44" fill-opacity="0.72"/>
<line x1="748.1" y1="350.5" x2="762.8" y2="283.6" stroke="#3a7d44" stroke-width="1.9" stroke-opacity="0.72" stroke-linecap="round"/><polygon points="764.7,274.8 767.2,284.6 758.4,282.6" fill="#3a7d44" fill-opacity="0.72"/>
<rect x="877.3" y="184.2" width="7.2" height="7.2" fill="#3a7d44"/>
<rect x="744.5" y="364.0" width="7.2" height="7.2" fill="#3a7d44"/>
<rect x="744.5" y="346.9" width="7.2" height="7.2" fill="#3a7d44"/>
<rect x="761.1" y="271.2" width="7.2" height="7.2" fill="#3a7d44"/>
<text x="710.0" y="446.0" text-anchor="start" font-family="Helvetica, Arial, sans-serif" font-size="12.5" font-weight="normal" fill="#6b7684">x -0.11–0.07    y -0.20–0.20</text>
<rect x="74" y="460" width="300" height="300" rx="9" fill="white" stroke="#d0d7de" stroke-width="1.3"/>
<text x="88.0" y="485.0" text-anchor="start" font-family="Helvetica, Arial, sans-serif" font-size="20" font-weight="bold" fill="#1a1a1a">base</text>
<text x="364.0" y="485.0" text-anchor="end" font-family="Helvetica, Arial, sans-serif" font-size="13.5" font-weight="normal" fill="#6b7684">10 runs · OLMo · Qwen</text>
<line x1="202.4" y1="494" x2="202.4" y2="746" stroke="#eceef1" stroke-width="1.2"/>
<line x1="84" y1="647.7" x2="364" y2="647.7" stroke="#eceef1" stroke-width="1.2"/>
<line x1="130.5" y1="652.1" x2="193.4" y2="648.2" stroke="#2867b5" stroke-width="1.9" stroke-opacity="0.72" stroke-linecap="round"/><polygon points="202.4,647.7 193.7,652.7 193.2,643.7" fill="#2867b5" fill-opacity="0.72"/>
<line x1="202.4" y1="647.7" x2="202.4" y2="621.4" stroke="#2867b5" stroke-width="1.9" stroke-opacity="0.72" stroke-linecap="round"/><polygon points="202.4,612.4 206.9,621.4 197.9,621.4" fill="#2867b5" fill-opacity="0.72"/>
<line x1="202.4" y1="612.4" x2="183.8" y2="665.6" stroke="#2867b5" stroke-width="1.9" stroke-opacity="0.72" stroke-linecap="round"/><polygon points="180.8,674.1 179.5,664.1 188.0,667.1" fill="#2867b5" fill-opacity="0.72"/>
<circle cx="130.5" cy="652.1" r="3.6" fill="#2867b5"/>
<circle cx="202.4" cy="647.7" r="3.6" fill="#2867b5"/>
<circle cx="202.4" cy="612.4" r="3.6" fill="#2867b5"/>
<circle cx="180.8" cy="674.1" r="3.6" fill="#2867b5"/>
<line x1="166.5" y1="687.4" x2="166.5" y2="695.0" stroke="#b5342c" stroke-width="1.9" stroke-opacity="0.72" stroke-linecap="round"/><polygon points="166.5,700.6 163.7,695.0 169.2,695.0" fill="#b5342c" fill-opacity="0.72"/>
<line x1="166.5" y1="700.6" x2="203.9" y2="654.6" stroke="#b5342c" stroke-width="1.9" stroke-opacity="0.72" stroke-linecap="round"/><polygon points="209.6,647.7 207.4,657.5 200.4,651.8" fill="#b5342c" fill-opacity="0.72"/>
<line x1="209.6" y1="647.7" x2="209.6" y2="634.6" stroke="#b5342c" stroke-width="1.9" stroke-opacity="0.72" stroke-linecap="round"/><polygon points="209.6,625.6 214.1,634.6 205.1,634.6" fill="#b5342c" fill-opacity="0.72"/>
<circle cx="166.5" cy="687.4" r="3.6" fill="#b5342c"/>
<circle cx="166.5" cy="700.6" r="3.6" fill="#b5342c"/>
<circle cx="209.6" cy="647.7" r="3.6" fill="#b5342c"/>
<circle cx="209.6" cy="625.6" r="3.6" fill="#b5342c"/>
<line x1="209.6" y1="709.4" x2="153.2" y2="686.3" stroke="#3a7d44" stroke-width="1.9" stroke-opacity="0.72" stroke-linecap="round"/><polygon points="144.9,682.9 154.9,682.1 151.5,690.5" fill="#3a7d44" fill-opacity="0.72"/>
<line x1="144.9" y1="682.9" x2="251.8" y2="633.8" stroke="#3a7d44" stroke-width="1.9" stroke-opacity="0.72" stroke-linecap="round"/><polygon points="260.0,630.0 253.7,637.9 249.9,629.7" fill="#3a7d44" fill-opacity="0.72"/>
<line x1="260.0" y1="630.0" x2="247.8" y2="581.4" stroke="#3a7d44" stroke-width="1.9" stroke-opacity="0.72" stroke-linecap="round"/><polygon points="245.6,572.7 252.1,580.3 243.4,582.5" fill="#3a7d44" fill-opacity="0.72"/>
<circle cx="209.6" cy="709.4" r="3.6" fill="#3a7d44"/>
<circle cx="144.9" cy="682.9" r="3.6" fill="#3a7d44"/>
<circle cx="260.0" cy="630.0" r="3.6" fill="#3a7d44"/>
<circle cx="245.6" cy="572.7" r="3.6" fill="#3a7d44"/>
<line x1="152.1" y1="718.2" x2="233.2" y2="602.1" stroke="#c07d18" stroke-width="1.9" stroke-opacity="0.72" stroke-linecap="round"/><polygon points="238.4,594.7 236.9,604.7 229.5,599.5" fill="#c07d18" fill-opacity="0.72"/>
<line x1="238.4" y1="594.7" x2="167.5" y2="626.3" stroke="#c07d18" stroke-width="1.9" stroke-opacity="0.72" stroke-linecap="round"/><polygon points="159.3,630.0 165.7,622.2 169.3,630.5" fill="#c07d18" fill-opacity="0.72"/>
<line x1="159.3" y1="630.0" x2="173.2" y2="638.5" stroke="#c07d18" stroke-width="1.9" stroke-opacity="0.72" stroke-linecap="round"/><polygon points="180.8,643.3 170.8,642.4 175.5,634.7" fill="#c07d18" fill-opacity="0.72"/>
<circle cx="152.1" cy="718.2" r="3.6" fill="#c07d18"/>
<circle cx="238.4" cy="594.7" r="3.6" fill="#c07d18"/>
<circle cx="159.3" cy="630.0" r="3.6" fill="#c07d18"/>
<circle cx="180.8" cy="643.3" r="3.6" fill="#c07d18"/>
<line x1="195.2" y1="652.5" x2="186.5" y2="663.3" stroke="#c07d18" stroke-width="1.9" stroke-opacity="0.72" stroke-linecap="round"/><polygon points="180.8,670.3 183.0,660.4 190.0,666.1" fill="#c07d18" fill-opacity="0.72"/>
<line x1="180.8" y1="670.3" x2="168.2" y2="669.1" stroke="#c07d18" stroke-width="1.9" stroke-opacity="0.72" stroke-linecap="round"/><polygon points="159.3,668.3 168.6,664.7 167.8,673.6" fill="#c07d18" fill-opacity="0.72"/>
<line x1="159.3" y1="668.3" x2="200.7" y2="673.1" stroke="#c07d18" stroke-width="1.9" stroke-opacity="0.72" stroke-linecap="round"/><polygon points="209.6,674.1 200.2,677.6 201.2,668.6" fill="#c07d18" fill-opacity="0.72"/>
<rect x="191.6" y="648.9" width="7.2" height="7.2" fill="#c07d18"/>
<rect x="177.2" y="666.7" width="7.2" height="7.2" fill="#c07d18"/>
<rect x="155.7" y="664.7" width="7.2" height="7.2" fill="#c07d18"/>
<rect x="206.0" y="670.5" width="7.2" height="7.2" fill="#c07d18"/>
<line x1="159.3" y1="698.3" x2="186.2" y2="700.0" stroke="#8a5a9e" stroke-width="1.9" stroke-opacity="0.72" stroke-linecap="round"/><polygon points="195.2,700.6 186.0,704.5 186.5,695.5" fill="#8a5a9e" fill-opacity="0.72"/>
<line x1="195.2" y1="700.6" x2="220.6" y2="638.3" stroke="#8a5a9e" stroke-width="1.9" stroke-opacity="0.72" stroke-linecap="round"/><polygon points="224.0,630.0 224.8,640.0 216.5,636.6" fill="#8a5a9e" fill-opacity="0.72"/>
<line x1="224.0" y1="630.0" x2="125.0" y2="638.1" stroke="#8a5a9e" stroke-width="1.9" stroke-opacity="0.72" stroke-linecap="round"/><polygon points="116.1,638.8 124.7,633.6 125.4,642.6" fill="#8a5a9e" fill-opacity="0.72"/>
<rect x="155.7" y="694.7" width="7.2" height="7.2" fill="#8a5a9e"/>
<rect x="191.6" y="697.0" width="7.2" height="7.2" fill="#8a5a9e"/>
<rect x="220.4" y="626.4" width="7.2" height="7.2" fill="#8a5a9e"/>
<rect x="112.5" y="635.2" width="7.2" height="7.2" fill="#8a5a9e"/>
<line x1="202.4" y1="640.9" x2="294.5" y2="614.8" stroke="#1f9e9e" stroke-width="1.9" stroke-opacity="0.72" stroke-linecap="round"/><polygon points="303.1,612.4 295.7,619.2 293.2,610.5" fill="#1f9e9e" fill-opacity="0.72"/>
<line x1="303.1" y1="612.4" x2="297.8" y2="585.9" stroke="#1f9e9e" stroke-width="1.9" stroke-opacity="0.72" stroke-linecap="round"/><polygon points="296.0,577.1 302.2,585.0 293.4,586.8" fill="#1f9e9e" fill-opacity="0.72"/>
<line x1="296.0" y1="577.1" x2="238.0" y2="525.8" stroke="#1f9e9e" stroke-width="1.9" stroke-opacity="0.72" stroke-linecap="round"/><polygon points="231.2,519.8 240.9,522.4 235.0,529.1" fill="#1f9e9e" fill-opacity="0.72"/>
<rect x="198.8" y="637.3" width="7.2" height="7.2" fill="#1f9e9e"/>
<rect x="299.5" y="608.8" width="7.2" height="7.2" fill="#1f9e9e"/>
<rect x="292.4" y="573.5" width="7.2" height="7.2" fill="#1f9e9e"/>
<rect x="227.6" y="516.2" width="7.2" height="7.2" fill="#1f9e9e"/>
<line x1="159.3" y1="708.5" x2="204.0" y2="652.4" stroke="#2867b5" stroke-width="1.9" stroke-opacity="0.72" stroke-linecap="round"/><polygon points="209.6,645.4 207.5,655.2 200.5,649.6" fill="#2867b5" fill-opacity="0.72"/>
<line x1="209.6" y1="645.4" x2="229.5" y2="648.5" stroke="#2867b5" stroke-width="1.9" stroke-opacity="0.72" stroke-linecap="round"/><polygon points="238.4,649.9 228.8,653.0 230.2,644.1" fill="#2867b5" fill-opacity="0.72"/>
<line x1="238.4" y1="649.9" x2="260.8" y2="627.6" stroke="#2867b5" stroke-width="1.9" stroke-opacity="0.72" stroke-linecap="round"/><polygon points="267.2,621.2 264.0,630.7 257.6,624.4" fill="#2867b5" fill-opacity="0.72"/>
<rect x="155.7" y="704.9" width="7.2" height="7.2" fill="#2867b5"/>
<rect x="206.0" y="641.8" width="7.2" height="7.2" fill="#2867b5"/>
<rect x="234.8" y="646.3" width="7.2" height="7.2" fill="#2867b5"/>
<rect x="263.6" y="617.6" width="7.2" height="7.2" fill="#2867b5"/>
<line x1="195.2" y1="675.5" x2="205.1" y2="658.5" stroke="#b5342c" stroke-width="1.9" stroke-opacity="0.72" stroke-linecap="round"/><polygon points="209.6,650.7 209.0,660.7 201.2,656.2" fill="#b5342c" fill-opacity="0.72"/>
<line x1="209.6" y1="650.7" x2="215.5" y2="691.6" stroke="#b5342c" stroke-width="1.9" stroke-opacity="0.72" stroke-linecap="round"/><polygon points="216.8,700.6 211.1,692.3 220.0,691.0" fill="#b5342c" fill-opacity="0.72"/>
<line x1="216.8" y1="700.6" x2="243.0" y2="612.2" stroke="#b5342c" stroke-width="1.9" stroke-opacity="0.72" stroke-linecap="round"/><polygon points="245.6,603.6 247.3,613.5 238.7,610.9" fill="#b5342c" fill-opacity="0.72"/>
<rect x="191.6" y="671.9" width="7.2" height="7.2" fill="#b5342c"/>
<rect x="206.0" y="647.1" width="7.2" height="7.2" fill="#b5342c"/>
<rect x="213.2" y="697.0" width="7.2" height="7.2" fill="#b5342c"/>
<rect x="242.0" y="600.0" width="7.2" height="7.2" fill="#b5342c"/>
<line x1="267.2" y1="636.0" x2="217.7" y2="611.4" stroke="#3a7d44" stroke-width="1.9" stroke-opacity="0.72" stroke-linecap="round"/><polygon points="209.6,607.4 219.7,607.3 215.7,615.4" fill="#3a7d44" fill-opacity="0.72"/>
<line x1="209.6" y1="607.4" x2="323.6" y2="562.8" stroke="#3a7d44" stroke-width="1.9" stroke-opacity="0.72" stroke-linecap="round"/><polygon points="331.9,559.5 325.2,567.0 321.9,558.6" fill="#3a7d44" fill-opacity="0.72"/>
<line x1="331.9" y1="559.5" x2="303.2" y2="580.6" stroke="#3a7d44" stroke-width="1.9" stroke-opacity="0.72" stroke-linecap="round"/><polygon points="296.0,585.9 300.6,577.0 305.9,584.2" fill="#3a7d44" fill-opacity="0.72"/>
<rect x="263.6" y="632.4" width="7.2" height="7.2" fill="#3a7d44"/>
<rect x="206.0" y="603.8" width="7.2" height="7.2" fill="#3a7d44"/>
<rect x="328.3" y="555.9" width="7.2" height="7.2" fill="#3a7d44"/>
<rect x="292.4" y="582.3" width="7.2" height="7.2" fill="#3a7d44"/>
<text x="78.0" y="778.0" text-anchor="start" font-family="Helvetica, Arial, sans-serif" font-size="12.5" font-weight="normal" fill="#6b7684">x -0.17–0.25    y -0.17–0.30</text>
<rect x="390" y="460" width="300" height="300" rx="9" fill="white" stroke="#d0d7de" stroke-width="1.3"/>
<text x="404.0" y="485.0" text-anchor="start" font-family="Helvetica, Arial, sans-serif" font-size="20" font-weight="bold" fill="#1a1a1a">random</text>
<text x="680.0" y="485.0" text-anchor="end" font-family="Helvetica, Arial, sans-serif" font-size="13.5" font-weight="normal" fill="#6b7684">4 runs · Qwen</text>
<line x1="520.9" y1="494" x2="520.9" y2="746" stroke="#eceef1" stroke-width="1.2"/>
<line x1="400" y1="608.0" x2="680" y2="608.0" stroke="#eceef1" stroke-width="1.2"/>
<line x1="432.1" y1="654.8" x2="528.2" y2="527.0" stroke="#2867b5" stroke-width="1.9" stroke-opacity="0.72" stroke-linecap="round"/><polygon points="533.6,519.8 531.8,529.7 524.6,524.3" fill="#2867b5" fill-opacity="0.72"/>
<line x1="533.6" y1="519.8" x2="498.0" y2="643.4" stroke="#2867b5" stroke-width="1.9" stroke-opacity="0.72" stroke-linecap="round"/><polygon points="495.5,652.1 493.7,642.2 502.3,644.7" fill="#2867b5" fill-opacity="0.72"/>
<line x1="495.5" y1="652.1" x2="614.3" y2="600.5" stroke="#2867b5" stroke-width="1.9" stroke-opacity="0.72" stroke-linecap="round"/><polygon points="622.5,596.9 616.1,604.6 612.5,596.4" fill="#2867b5" fill-opacity="0.72"/>
<circle cx="432.1" cy="654.8" r="3.6" fill="#2867b5"/>
<circle cx="533.6" cy="519.8" r="3.6" fill="#2867b5"/>
<circle cx="495.5" cy="652.1" r="3.6" fill="#2867b5"/>
<circle cx="622.5" cy="596.9" r="3.6" fill="#2867b5"/>
<line x1="533.6" y1="610.7" x2="545.3" y2="709.3" stroke="#b5342c" stroke-width="1.9" stroke-opacity="0.72" stroke-linecap="round"/><polygon points="546.4,718.2 540.8,709.8 549.8,708.7" fill="#b5342c" fill-opacity="0.72"/>
<line x1="546.4" y1="718.2" x2="510.5" y2="583.6" stroke="#b5342c" stroke-width="1.9" stroke-opacity="0.72" stroke-linecap="round"/><polygon points="508.2,574.9 514.9,582.4 506.2,584.8" fill="#b5342c" fill-opacity="0.72"/>
<line x1="508.2" y1="574.9" x2="465.2" y2="600.6" stroke="#b5342c" stroke-width="1.9" stroke-opacity="0.72" stroke-linecap="round"/><polygon points="457.5,605.2 462.9,596.7 467.5,604.5" fill="#b5342c" fill-opacity="0.72"/>
<circle cx="533.6" cy="610.7" r="3.6" fill="#b5342c"/>
<circle cx="546.4" cy="718.2" r="3.6" fill="#b5342c"/>
<circle cx="508.2" cy="574.9" r="3.6" fill="#b5342c"/>
<circle cx="457.5" cy="605.2" r="3.6" fill="#b5342c"/>
<line x1="609.8" y1="624.5" x2="514.8" y2="536.9" stroke="#3a7d44" stroke-width="1.9" stroke-opacity="0.72" stroke-linecap="round"/><polygon points="508.2,530.8 517.9,533.6 511.8,540.2" fill="#3a7d44" fill-opacity="0.72"/>
<line x1="508.2" y1="530.8" x2="640.3" y2="614.2" stroke="#3a7d44" stroke-width="1.9" stroke-opacity="0.72" stroke-linecap="round"/><polygon points="647.9,619.0 637.9,618.0 642.7,610.4" fill="#3a7d44" fill-opacity="0.72"/>
<line x1="647.9" y1="619.0" x2="491.7" y2="642.5" stroke="#3a7d44" stroke-width="1.9" stroke-opacity="0.72" stroke-linecap="round"/><polygon points="482.8,643.8 491.0,638.0 492.4,646.9" fill="#3a7d44" fill-opacity="0.72"/>
<circle cx="609.8" cy="624.5" r="3.6" fill="#3a7d44"/>
<circle cx="508.2" cy="530.8" r="3.6" fill="#3a7d44"/>
<circle cx="647.9" cy="619.0" r="3.6" fill="#3a7d44"/>
<circle cx="482.8" cy="643.8" r="3.6" fill="#3a7d44"/>
<line x1="584.4" y1="563.9" x2="440.3" y2="626.4" stroke="#c07d18" stroke-width="1.9" stroke-opacity="0.72" stroke-linecap="round"/><polygon points="432.1,630.0 438.5,622.3 442.1,630.5" fill="#c07d18" fill-opacity="0.72"/>
<line x1="432.1" y1="630.0" x2="461.1" y2="630.0" stroke="#c07d18" stroke-width="1.9" stroke-opacity="0.72" stroke-linecap="round"/><polygon points="470.1,630.0 461.1,634.5 461.1,625.5" fill="#c07d18" fill-opacity="0.72"/>
<line x1="470.1" y1="630.0" x2="527.9" y2="559.8" stroke="#c07d18" stroke-width="1.9" stroke-opacity="0.72" stroke-linecap="round"/><polygon points="533.6,552.9 531.4,562.7 524.4,556.9" fill="#c07d18" fill-opacity="0.72"/>
<circle cx="584.4" cy="563.9" r="3.6" fill="#c07d18"/>
<circle cx="432.1" cy="630.0" r="3.6" fill="#c07d18"/>
<circle cx="470.1" cy="630.0" r="3.6" fill="#c07d18"/>
<circle cx="533.6" cy="552.9" r="3.6" fill="#c07d18"/>
<text x="394.0" y="778.0" text-anchor="start" font-family="Helvetica, Arial, sans-serif" font-size="12.5" font-weight="normal" fill="#6b7684">x -0.10–0.14    y -0.42–0.33</text>
<rect x="706" y="460" width="300" height="300" rx="9" fill="white" stroke="#d0d7de" stroke-width="1.3"/>
<text x="720.0" y="485.0" text-anchor="start" font-family="Helvetica, Arial, sans-serif" font-size="20" font-weight="bold" fill="#1a1a1a">score oracle</text>
<text x="996.0" y="485.0" text-anchor="end" font-family="Helvetica, Arial, sans-serif" font-size="13.5" font-weight="normal" fill="#6b7684">2 runs · OLMo</text>
<line x1="963.9" y1="494" x2="963.9" y2="746" stroke="#eceef1" stroke-width="1.2"/>
<line x1="716" y1="519.8" x2="996" y2="519.8" stroke="#eceef1" stroke-width="1.2"/>
<line x1="885.5" y1="718.2" x2="756.8" y2="687.2" stroke="#d1477a" stroke-width="1.9" stroke-opacity="0.72" stroke-linecap="round"/><polygon points="748.1,685.1 757.9,682.8 755.8,691.6" fill="#d1477a" fill-opacity="0.72"/>
<line x1="748.1" y1="685.1" x2="799.1" y2="656.5" stroke="#d1477a" stroke-width="1.9" stroke-opacity="0.72" stroke-linecap="round"/><polygon points="807.0,652.1 801.3,660.4 796.9,652.6" fill="#d1477a" fill-opacity="0.72"/>
<line x1="807.0" y1="652.1" x2="906.1" y2="674.8" stroke="#d1477a" stroke-width="1.9" stroke-opacity="0.72" stroke-linecap="round"/><polygon points="914.9,676.9 905.1,679.2 907.1,670.5" fill="#d1477a" fill-opacity="0.72"/>
<rect x="881.9" y="714.6" width="7.2" height="7.2" fill="#d1477a"/>
<rect x="744.5" y="681.5" width="7.2" height="7.2" fill="#d1477a"/>
<rect x="803.4" y="648.5" width="7.2" height="7.2" fill="#d1477a"/>
<rect x="911.3" y="673.3" width="7.2" height="7.2" fill="#d1477a"/>



<rect x="960.3" y="516.2" width="7.2" height="7.2" fill="#5b6bbf"/>
<rect x="960.3" y="516.2" width="7.2" height="7.2" fill="#5b6bbf"/>
<rect x="960.3" y="516.2" width="7.2" height="7.2" fill="#5b6bbf"/>
<rect x="960.3" y="516.2" width="7.2" height="7.2" fill="#5b6bbf"/>
<text x="710.0" y="778.0" text-anchor="start" font-family="Helvetica, Arial, sans-serif" font-size="12.5" font-weight="normal" fill="#6b7684">x -0.31–0.00    y -0.25–0.00</text>
<text x="540.0" y="810.0" text-anchor="middle" font-family="Helvetica, Arial, sans-serif" font-size="18" font-weight="bold" fill="#1a1a1a">x:  selection gap  (kept − pool)</text>
<text x="28" y="444.0" text-anchor="middle" font-family="Helvetica, Arial, sans-serif" font-size="18" font-weight="bold" fill="#1a1a1a" transform="rotate(-90 28 444.0)">y:  value move Δv this round</text>
<text x="232.0" y="845.0" text-anchor="start" font-family="Helvetica, Arial, sans-serif" font-size="15" font-weight="bold" fill="#1a1a1a">seed</text>
<rect x="278.0" y="831.0" width="13" height="13" rx="2" fill="#2867b5"/>
<text x="297.0" y="845.0" text-anchor="start" font-family="Helvetica, Arial, sans-serif" font-size="14" font-weight="normal" fill="#1a1a1a">0</text>
<rect x="330.0" y="831.0" width="13" height="13" rx="2" fill="#b5342c"/>
<text x="349.0" y="845.0" text-anchor="start" font-family="Helvetica, Arial, sans-serif" font-size="14" font-weight="normal" fill="#1a1a1a">1</text>
<rect x="382.0" y="831.0" width="13" height="13" rx="2" fill="#3a7d44"/>
<text x="401.0" y="845.0" text-anchor="start" font-family="Helvetica, Arial, sans-serif" font-size="14" font-weight="normal" fill="#1a1a1a">2</text>
<rect x="434.0" y="831.0" width="13" height="13" rx="2" fill="#c07d18"/>
<text x="453.0" y="845.0" text-anchor="start" font-family="Helvetica, Arial, sans-serif" font-size="14" font-weight="normal" fill="#1a1a1a">3</text>
<rect x="486.0" y="831.0" width="13" height="13" rx="2" fill="#8a5a9e"/>
<text x="505.0" y="845.0" text-anchor="start" font-family="Helvetica, Arial, sans-serif" font-size="14" font-weight="normal" fill="#1a1a1a">4</text>
<rect x="538.0" y="831.0" width="13" height="13" rx="2" fill="#1f9e9e"/>
<text x="557.0" y="845.0" text-anchor="start" font-family="Helvetica, Arial, sans-serif" font-size="14" font-weight="normal" fill="#1a1a1a">5</text>
<rect x="590.0" y="831.0" width="13" height="13" rx="2" fill="#d1477a"/>
<text x="609.0" y="845.0" text-anchor="start" font-family="Helvetica, Arial, sans-serif" font-size="14" font-weight="normal" fill="#1a1a1a">21</text>
<rect x="642.0" y="831.0" width="13" height="13" rx="2" fill="#5b6bbf"/>
<text x="661.0" y="845.0" text-anchor="start" font-family="Helvetica, Arial, sans-serif" font-size="14" font-weight="normal" fill="#1a1a1a">22</text>
<circle cx="722.0" cy="840.0" r="5.5" fill="#6b7684"/>
<text x="733.0" y="845.0" text-anchor="start" font-family="Helvetica, Arial, sans-serif" font-size="14" font-weight="normal" fill="#6b7684">Qwen</text>
<rect x="790.0" y="834.5" width="11" height="11" fill="#6b7684"/>
<text x="808.0" y="845.0" text-anchor="start" font-family="Helvetica, Arial, sans-serif" font-size="14" font-weight="normal" fill="#6b7684">OLMo</text>
</svg>