<svg xmlns="http://www.w3.org/2000/svg" viewBox="0 0 1068 862" font-family="Helvetica, Arial, sans-serif">
<rect width="1068" height="862" fill="white"/>
<text x="553.0" y="46.0" text-anchor="middle" font-family="Helvetica, Arial, sans-serif" font-size="29" font-weight="bold" fill="#1a1a1a">Where the variation is: value vs candidate spread, by judge</text>
<text x="553.0" y="78.0" text-anchor="middle" font-family="Helvetica, Arial, sans-serif" font-size="17" font-weight="normal" fill="#6b7684">Own-pool loops. Spread (material to select from) is highest at mid value and collapses as a run rails to 0 or 1.</text>
<text x="553.0" y="100.0" text-anchor="middle" font-family="Helvetica, Arial, sans-serif" font-size="15" font-weight="normal" fill="#6b7684">each path = one run; dot per training round, arrow to the next round · same axes in every panel</text>
<rect x="78" y="128" width="306" height="306" rx="9" fill="white" stroke="#d0d7de" stroke-width="1.3"/>
<line x1="111.2" y1="138" x2="111.2" y2="420" stroke="#eceef1" stroke-width="1.2"/>
<line x1="88" y1="399.1" x2="374" y2="399.1" stroke="#eceef1" stroke-width="1.2"/>
<line x1="253.5" y1="184.8" x2="246.2" y2="180.6" stroke="#2867b5" stroke-width="1.9" stroke-opacity="0.72" stroke-linecap="round"/><polygon points="241.0,177.6 247.8,178.0 244.7,183.2" fill="#2867b5" fill-opacity="0.72"/>
<line x1="241.0" y1="177.6" x2="227.9" y2="188.4" stroke="#2867b5" stroke-width="1.9" stroke-opacity="0.72" stroke-linecap="round"/><polygon points="221.0,194.2 225.1,185.0 230.8,191.9" fill="#2867b5" fill-opacity="0.72"/>
<line x1="221.0" y1="194.2" x2="157.5" y2="257.0" stroke="#2867b5" stroke-width="1.9" stroke-opacity="0.72" stroke-linecap="round"/><polygon points="151.1,263.3 154.4,253.8 160.7,260.2" fill="#2867b5" fill-opacity="0.72"/>
<circle cx="253.5" cy="184.8" r="3.6" fill="#2867b5"/>
<circle cx="241.0" cy="177.6" r="3.6" fill="#2867b5"/>
<circle cx="221.0" cy="194.2" r="3.6" fill="#2867b5"/>
<circle cx="151.1" cy="263.3" r="3.6" fill="#2867b5"/>
<line x1="263.4" y1="164.1" x2="246.5" y2="185.9" stroke="#b5342c" stroke-width="1.9" stroke-opacity="0.72" stroke-linecap="round"/><polygon points="241.0,193.0 243.0,183.1 250.1,188.6" fill="#b5342c" fill-opacity="0.72"/>
<line x1="241.0" y1="193.0" x2="199.0" y2="170.1" stroke="#b5342c" stroke-width="1.9" stroke-opacity="0.72" stroke-linecap="round"/><polygon points="191.0,165.8 201.1,166.2 196.8,174.1" fill="#b5342c" fill-opacity="0.72"/>
<line x1="191.0" y1="165.8" x2="253.0" y2="198.2" stroke="#b5342c" stroke-width="1.9" stroke-opacity="0.72" stroke-linecap="round"/><polygon points="261.0,202.3 250.9,202.1 255.1,194.2" fill="#b5342c" fill-opacity="0.72"/>
<circle cx="263.4" cy="164.1" r="3.6" fill="#b5342c"/>
<circle cx="241.0" cy="193.0" r="3.6" fill="#b5342c"/>
<circle cx="191.0" cy="165.8" r="3.6" fill="#b5342c"/>
<circle cx="261.0" cy="202.3" r="3.6" fill="#b5342c"/>
<line x1="256.0" y1="185.3" x2="259.7" y2="212.9" stroke="#3a7d44" stroke-width="1.9" stroke-opacity="0.72" stroke-linecap="round"/><polygon points="261.0,221.9 255.3,213.6 264.2,212.3" fill="#3a7d44" fill-opacity="0.72"/>
<line x1="261.0" y1="221.9" x2="323.3" y2="262.5" stroke="#3a7d44" stroke-width="1.9" stroke-opacity="0.72" stroke-linecap="round"/><polygon points="330.9,267.4 320.9,266.3 325.8,258.7" fill="#3a7d44" fill-opacity="0.72"/>
<line x1="330.9" y1="267.4" x2="279.9" y2="270.9" stroke="#3a7d44" stroke-width="1.9" stroke-opacity="0.72" stroke-linecap="round"/><polygon points="271.0,271.5 279.6,266.4 280.2,275.4" fill="#3a7d44" fill-opacity="0.72"/>
<circle cx="256.0" cy="185.3" r="3.6" fill="#3a7d44"/>
<circle cx="261.0" cy="221.9" r="3.6" fill="#3a7d44"/>
<circle cx="330.9" cy="267.4" r="3.6" fill="#3a7d44"/>
<circle cx="271.0" cy="271.5" r="3.6" fill="#3a7d44"/>
<line x1="251.0" y1="167.0" x2="251.0" y2="167.2" stroke="#c07d18" stroke-width="1.9" stroke-opacity="0.72" stroke-linecap="round"/><polygon points="251.0,172.2 248.5,167.2 253.5,167.2" fill="#c07d18" fill-opacity="0.72"/>
<line x1="251.0" y1="172.2" x2="245.4" y2="175.2" stroke="#c07d18" stroke-width="1.9" stroke-opacity="0.72" stroke-linecap="round"/><polygon points="241.0,177.6 244.2,173.0 246.6,177.4" fill="#c07d18" fill-opacity="0.72"/>
<line x1="241.0" y1="177.6" x2="241.0" y2="185.8" stroke="#c07d18" stroke-width="1.9" stroke-opacity="0.72" stroke-linecap="round"/><polygon points="241.0,191.8 238.0,185.8 244.0,185.8" fill="#c07d18" fill-opacity="0.72"/>
<circle cx="251.0" cy="167.0" r="3.6" fill="#c07d18"/>
<circle cx="251.0" cy="172.2" r="3.6" fill="#c07d18"/>
<circle cx="241.0" cy="177.6" r="3.6" fill="#c07d18"/>
<circle cx="241.0" cy="191.8" r="3.6" fill="#c07d18"/>
<text x="92.0" y="153.0" text-anchor="start" font-family="Helvetica, Arial, sans-serif" font-size="20" font-weight="bold" fill="#1a1a1a">self</text>
<text x="374.0" y="153.0" text-anchor="end" font-family="Helvetica, Arial, sans-serif" font-size="13.5" font-weight="normal" fill="#6b7684">4 runs · Qwen</text>
<rect x="400" y="128" width="306" height="306" rx="9" fill="white" stroke="#d0d7de" stroke-width="1.3"/>
<line x1="433.2" y1="138" x2="433.2" y2="420" stroke="#eceef1" stroke-width="1.2"/>
<line x1="410" y1="399.1" x2="696" y2="399.1" stroke="#eceef1" stroke-width="1.2"/>
<line x1="575.5" y1="184.8" x2="574.7" y2="187.1" stroke="#2867b5" stroke-width="1.9" stroke-opacity="0.72" stroke-linecap="round"/><polygon points="573.0,191.8 572.3,186.2 577.0,187.9" fill="#2867b5" fill-opacity="0.72"/>
<line x1="573.0" y1="191.8" x2="551.9" y2="188.9" stroke="#2867b5" stroke-width="1.9" stroke-opacity="0.72" stroke-linecap="round"/><polygon points="543.0,187.7 552.5,184.5 551.3,193.4" fill="#2867b5" fill-opacity="0.72"/>
<line x1="543.0" y1="187.7" x2="584.0" y2="191.1" stroke="#2867b5" stroke-width="1.9" stroke-opacity="0.72" stroke-linecap="round"/><polygon points="593.0,191.8 583.6,195.5 584.3,186.6" fill="#2867b5" fill-opacity="0.72"/>
<circle cx="575.5" cy="184.8" r="3.6" fill="#2867b5"/>
<circle cx="573.0" cy="191.8" r="3.6" fill="#2867b5"/>
<circle cx="543.0" cy="187.7" r="3.6" fill="#2867b5"/>
<circle cx="593.0" cy="191.8" r="3.6" fill="#2867b5"/>
<line x1="585.4" y1="164.1" x2="578.2" y2="163.4" stroke="#b5342c" stroke-width="1.9" stroke-opacity="0.72" stroke-linecap="round"/><polygon points="573.0,162.9 578.5,160.8 578.0,166.0" fill="#b5342c" fill-opacity="0.72"/>
<line x1="573.0" y1="162.9" x2="532.0" y2="164.9" stroke="#b5342c" stroke-width="1.9" stroke-opacity="0.72" stroke-linecap="round"/><polygon points="523.0,165.3 531.8,160.4 532.2,169.3" fill="#b5342c" fill-opacity="0.72"/>
<line x1="523.0" y1="165.3" x2="546.2" y2="185.4" stroke="#b5342c" stroke-width="1.9" stroke-opacity="0.72" stroke-linecap="round"/><polygon points="553.0,191.3 543.3,188.8 549.2,182.0" fill="#b5342c" fill-opacity="0.72"/>
<circle cx="585.4" cy="164.1" r="3.6" fill="#b5342c"/>
<circle cx="573.0" cy="162.9" r="3.6" fill="#b5342c"/>
<circle cx="523.0" cy="165.3" r="3.6" fill="#b5342c"/>
<circle cx="553.0" cy="191.3" r="3.6" fill="#b5342c"/>
<line x1="578.0" y1="185.3" x2="573.9" y2="224.3" stroke="#3a7d44" stroke-width="1.9" stroke-opacity="0.72" stroke-linecap="round"/><polygon points="573.0,233.2 569.4,223.8 578.4,224.8" fill="#3a7d44" fill-opacity="0.72"/>
<line x1="573.0" y1="233.2" x2="573.0" y2="182.4" stroke="#3a7d44" stroke-width="1.9" stroke-opacity="0.72" stroke-linecap="round"/><polygon points="573.0,173.4 577.5,182.4 568.5,182.4" fill="#3a7d44" fill-opacity="0.72"/>
<line x1="573.0" y1="173.4" x2="597.2" y2="202.7" stroke="#3a7d44" stroke-width="1.9" stroke-opacity="0.72" stroke-linecap="round"/><polygon points="602.9,209.6 593.7,205.6 600.6,199.8" fill="#3a7d44" fill-opacity="0.72"/>
<circle cx="578.0" cy="185.3" r="3.6" fill="#3a7d44"/>
<circle cx="573.0" cy="233.2" r="3.6" fill="#3a7d44"/>
<circle cx="573.0" cy="173.4" r="3.6" fill="#3a7d44"/>
<circle cx="602.9" cy="209.6" r="3.6" fill="#3a7d44"/>
<line x1="573.0" y1="167.0" x2="552.0" y2="167.8" stroke="#c07d18" stroke-width="1.9" stroke-opacity="0.72" stroke-linecap="round"/><polygon points="543.0,168.2 551.8,163.3 552.2,172.3" fill="#c07d18" fill-opacity="0.72"/>
<line x1="543.0" y1="168.2" x2="566.5" y2="190.8" stroke="#c07d18" stroke-width="1.9" stroke-opacity="0.72" stroke-linecap="round"/><polygon points="573.0,197.1 563.4,194.0 569.6,187.6" fill="#c07d18" fill-opacity="0.72"/>
<line x1="573.0" y1="197.1" x2="558.0" y2="174.5" stroke="#c07d18" stroke-width="1.9" stroke-opacity="0.72" stroke-linecap="round"/><polygon points="553.0,167.0 561.7,172.0 554.2,177.0" fill="#c07d18" fill-opacity="0.72"/>
<circle cx="573.0" cy="167.0" r="3.6" fill="#c07d18"/>
<circle cx="543.0" cy="168.2" r="3.6" fill="#c07d18"/>
<circle cx="573.0" cy="197.1" r="3.6" fill="#c07d18"/>
<circle cx="553.0" cy="167.0" r="3.6" fill="#c07d18"/>
<text x="414.0" y="153.0" text-anchor="start" font-family="Helvetica, Arial, sans-serif" font-size="20" font-weight="bold" fill="#1a1a1a">risk copy</text>
<text x="696.0" y="153.0" text-anchor="end" font-family="Helvetica, Arial, sans-serif" font-size="13.5" font-weight="normal" fill="#6b7684">4 runs · Qwen</text>
<rect x="722" y="128" width="306" height="306" rx="9" fill="white" stroke="#d0d7de" stroke-width="1.3"/>
<line x1="755.2" y1="138" x2="755.2" y2="420" stroke="#eceef1" stroke-width="1.2"/>
<line x1="732" y1="399.1" x2="1018" y2="399.1" stroke="#eceef1" stroke-width="1.2"/>
<line x1="812.4" y1="234.4" x2="786.6" y2="242.7" stroke="#c07d18" stroke-width="1.9" stroke-opacity="0.72" stroke-linecap="round"/><polygon points="778.0,245.5 785.2,238.4 787.9,247.0" fill="#c07d18" fill-opacity="0.72"/>
<line x1="778.0" y1="245.5" x2="776.4" y2="285.2" stroke="#c07d18" stroke-width="1.9" stroke-opacity="0.72" stroke-linecap="round"/><polygon points="776.0,294.2 771.9,285.0 780.9,285.4" fill="#c07d18" fill-opacity="0.72"/>
<line x1="776.0" y1="294.2" x2="791.4" y2="260.1" stroke="#c07d18" stroke-width="1.9" stroke-opacity="0.72" stroke-linecap="round"/><polygon points="795.1,251.9 795.5,262.0 787.3,258.3" fill="#c07d18" fill-opacity="0.72"/>
<rect x="808.8" y="230.8" width="7.2" height="7.2" fill="#c07d18"/>
<rect x="774.4" y="241.9" width="7.2" height="7.2" fill="#c07d18"/>
<rect x="772.4" y="290.6" width="7.2" height="7.2" fill="#c07d18"/>
<rect x="791.5" y="248.3" width="7.2" height="7.2" fill="#c07d18"/>
<line x1="813.8" y1="274.7" x2="781.2" y2="310.0" stroke="#8a5a9e" stroke-width="1.9" stroke-opacity="0.72" stroke-linecap="round"/><polygon points="775.1,316.6 777.9,307.0 784.5,313.1" fill="#8a5a9e" fill-opacity="0.72"/>
<line x1="775.1" y1="316.6" x2="770.1" y2="317.2" stroke="#8a5a9e" stroke-width="1.9" stroke-opacity="0.72" stroke-linecap="round"/><polygon points="765.2,317.8 769.8,314.7 770.4,319.7" fill="#8a5a9e" fill-opacity="0.72"/>
<line x1="765.2" y1="317.8" x2="765.2" y2="339.7" stroke="#8a5a9e" stroke-width="1.9" stroke-opacity="0.72" stroke-linecap="round"/><polygon points="765.2,348.7 760.7,339.7 769.7,339.7" fill="#8a5a9e" fill-opacity="0.72"/>
<rect x="810.2" y="271.1" width="7.2" height="7.2" fill="#8a5a9e"/>
<rect x="771.5" y="313.0" width="7.2" height="7.2" fill="#8a5a9e"/>
<rect x="761.6" y="314.2" width="7.2" height="7.2" fill="#8a5a9e"/>
<rect x="761.6" y="345.1" width="7.2" height="7.2" fill="#8a5a9e"/>
<line x1="812.6" y1="263.3" x2="772.5" y2="296.6" stroke="#b5342c" stroke-width="1.9" stroke-opacity="0.72" stroke-linecap="round"/><polygon points="765.6,302.4 769.6,293.1 775.4,300.1" fill="#b5342c" fill-opacity="0.72"/>
<line x1="765.6" y1="302.4" x2="759.4" y2="314.0" stroke="#b5342c" stroke-width="1.9" stroke-opacity="0.72" stroke-linecap="round"/><polygon points="755.2,321.9 755.4,311.8 763.4,316.1" fill="#b5342c" fill-opacity="0.72"/>
<line x1="755.2" y1="321.9" x2="755.2" y2="355.2" stroke="#b5342c" stroke-width="1.9" stroke-opacity="0.72" stroke-linecap="round"/><polygon points="755.2,364.2 750.7,355.2 759.7,355.2" fill="#b5342c" fill-opacity="0.72"/>
<rect x="809.0" y="259.7" width="7.2" height="7.2" fill="#b5342c"/>
<rect x="762.0" y="298.8" width="7.2" height="7.2" fill="#b5342c"/>
<rect x="751.6" y="318.3" width="7.2" height="7.2" fill="#b5342c"/>
<rect x="751.6" y="360.6" width="7.2" height="7.2" fill="#b5342c"/>
<line x1="805.6" y1="197.1" x2="846.1" y2="227.8" stroke="#3a7d44" stroke-width="1.9" stroke-opacity="0.72" stroke-linecap="round"/><polygon points="853.2,233.2 843.3,231.4 848.8,224.2" fill="#3a7d44" fill-opacity="0.72"/>
<line x1="853.2" y1="233.2" x2="823.8" y2="240.5" stroke="#3a7d44" stroke-width="1.9" stroke-opacity="0.72" stroke-linecap="round"/><polygon points="815.1,242.6 822.8,236.1 824.9,244.8" fill="#3a7d44" fill-opacity="0.72"/>
<line x1="815.1" y1="242.6" x2="789.2" y2="294.3" stroke="#3a7d44" stroke-width="1.9" stroke-opacity="0.72" stroke-linecap="round"/><polygon points="785.1,302.4 785.1,292.3 793.2,296.3" fill="#3a7d44" fill-opacity="0.72"/>
<rect x="802.0" y="193.5" width="7.2" height="7.2" fill="#3a7d44"/>
<rect x="849.6" y="229.6" width="7.2" height="7.2" fill="#3a7d44"/>
<rect x="811.5" y="239.0" width="7.2" height="7.2" fill="#3a7d44"/>
<rect x="781.5" y="298.8" width="7.2" height="7.2" fill="#3a7d44"/>
<text x="736.0" y="153.0" text-anchor="start" font-family="Helvetica, Arial, sans-serif" font-size="20" font-weight="bold" fill="#1a1a1a">cautious copy</text>
<text x="1018.0" y="153.0" text-anchor="end" font-family="Helvetica, Arial, sans-serif" font-size="13.5" font-weight="normal" fill="#6b7684">4 runs · OLMo</text>
<rect x="78" y="450" width="306" height="306" rx="9" fill="white" stroke="#d0d7de" stroke-width="1.3"/>
<line x1="111.2" y1="460" x2="111.2" y2="742" stroke="#eceef1" stroke-width="1.2"/>
<line x1="88" y1="721.1" x2="374" y2="721.1" stroke="#eceef1" stroke-width="1.2"/>
<line x1="253.5" y1="506.8" x2="252.0" y2="495.5" stroke="#2867b5" stroke-width="1.9" stroke-opacity="0.72" stroke-linecap="round"/><polygon points="251.0,487.3 256.1,495.0 247.9,496.0" fill="#2867b5" fill-opacity="0.72"/>
<line x1="251.0" y1="487.3" x2="251.0" y2="514.2" stroke="#2867b5" stroke-width="1.9" stroke-opacity="0.72" stroke-linecap="round"/><polygon points="251.0,523.2 246.5,514.2 255.5,514.2" fill="#2867b5" fill-opacity="0.72"/>
<line x1="251.0" y1="523.2" x2="266.0" y2="500.6" stroke="#2867b5" stroke-width="1.9" stroke-opacity="0.72" stroke-linecap="round"/><polygon points="271.0,493.1 269.7,503.1 262.2,498.1" fill="#2867b5" fill-opacity="0.72"/>
<circle cx="253.5" cy="506.8" r="3.6" fill="#2867b5"/>
<circle cx="251.0" cy="487.3" r="3.6" fill="#2867b5"/>
<circle cx="251.0" cy="523.2" r="3.6" fill="#2867b5"/>
<circle cx="271.0" cy="493.1" r="3.6" fill="#2867b5"/>
<line x1="263.4" y1="486.1" x2="246.1" y2="511.6" stroke="#b5342c" stroke-width="1.9" stroke-opacity="0.72" stroke-linecap="round"/><polygon points="241.0,519.1 242.3,509.1 249.8,514.1" fill="#b5342c" fill-opacity="0.72"/>
<line x1="241.0" y1="519.1" x2="220.0" y2="517.0" stroke="#b5342c" stroke-width="1.9" stroke-opacity="0.72" stroke-linecap="round"/><polygon points="211.0,516.2 220.4,512.6 219.6,521.5" fill="#b5342c" fill-opacity="0.72"/>
<line x1="211.0" y1="516.2" x2="211.0" y2="527.5" stroke="#b5342c" stroke-width="1.9" stroke-opacity="0.72" stroke-linecap="round"/><polygon points="211.0,535.7 206.9,527.5 215.1,527.5" fill="#b5342c" fill-opacity="0.72"/>
<circle cx="263.4" cy="486.1" r="3.6" fill="#b5342c"/>
<circle cx="241.0" cy="519.1" r="3.6" fill="#b5342c"/>
<circle cx="211.0" cy="516.2" r="3.6" fill="#b5342c"/>
<circle cx="211.0" cy="535.7" r="3.6" fill="#b5342c"/>
<line x1="256.0" y1="507.3" x2="229.3" y2="518.5" stroke="#3a7d44" stroke-width="1.9" stroke-opacity="0.72" stroke-linecap="round"/><polygon points="221.0,522.0 227.6,514.4 231.0,522.7" fill="#3a7d44" fill-opacity="0.72"/>
<line x1="221.0" y1="522.0" x2="206.6" y2="503.7" stroke="#3a7d44" stroke-width="1.9" stroke-opacity="0.72" stroke-linecap="round"/><polygon points="201.0,496.6 210.1,500.9 203.1,506.5" fill="#3a7d44" fill-opacity="0.72"/>
<line x1="201.0" y1="496.6" x2="206.7" y2="499.9" stroke="#3a7d44" stroke-width="1.9" stroke-opacity="0.72" stroke-linecap="round"/><polygon points="211.0,502.4 205.5,502.1 208.0,497.8" fill="#3a7d44" fill-opacity="0.72"/>
<circle cx="256.0" cy="507.3" r="3.6" fill="#3a7d44"/>
<circle cx="221.0" cy="522.0" r="3.6" fill="#3a7d44"/>
<circle cx="201.0" cy="496.6" r="3.6" fill="#3a7d44"/>
<circle cx="211.0" cy="502.4" r="3.6" fill="#3a7d44"/>
<line x1="251.0" y1="489.0" x2="219.9" y2="494.0" stroke="#c07d18" stroke-width="1.9" stroke-opacity="0.72" stroke-linecap="round"/><polygon points="211.0,495.4 219.2,489.6 220.6,498.4" fill="#c07d18" fill-opacity="0.72"/>
<line x1="211.0" y1="495.4" x2="232.6" y2="503.9" stroke="#c07d18" stroke-width="1.9" stroke-opacity="0.72" stroke-linecap="round"/><polygon points="241.0,507.2 231.0,508.1 234.3,499.7" fill="#c07d18" fill-opacity="0.72"/>
<line x1="241.0" y1="507.2" x2="246.0" y2="506.4" stroke="#c07d18" stroke-width="1.9" stroke-opacity="0.72" stroke-linecap="round"/><polygon points="251.0,505.6 246.4,508.9 245.6,503.9" fill="#c07d18" fill-opacity="0.72"/>
<circle cx="251.0" cy="489.0" r="3.6" fill="#c07d18"/>
<circle cx="211.0" cy="495.4" r="3.6" fill="#c07d18"/>
<circle cx="241.0" cy="507.2" r="3.6" fill="#c07d18"/>
<circle cx="251.0" cy="505.6" r="3.6" fill="#c07d18"/>
<line x1="168.4" y1="556.4" x2="166.4" y2="534.5" stroke="#c07d18" stroke-width="1.9" stroke-opacity="0.72" stroke-linecap="round"/><polygon points="165.6,525.5 170.9,534.1 161.9,534.9" fill="#c07d18" fill-opacity="0.72"/>
<line x1="165.6" y1="525.5" x2="155.7" y2="554.9" stroke="#c07d18" stroke-width="1.9" stroke-opacity="0.72" stroke-linecap="round"/><polygon points="152.8,563.4 151.5,553.4 160.0,556.3" fill="#c07d18" fill-opacity="0.72"/>
<line x1="152.8" y1="563.4" x2="142.6" y2="625.7" stroke="#c07d18" stroke-width="1.9" stroke-opacity="0.72" stroke-linecap="round"/><polygon points="141.1,634.5 138.2,624.9 147.0,626.4" fill="#c07d18" fill-opacity="0.72"/>
<rect x="164.8" y="552.8" width="7.2" height="7.2" fill="#c07d18"/>
<rect x="162.0" y="521.9" width="7.2" height="7.2" fill="#c07d18"/>
<rect x="149.2" y="559.8" width="7.2" height="7.2" fill="#c07d18"/>
<rect x="137.5" y="630.9" width="7.2" height="7.2" fill="#c07d18"/>
<line x1="169.8" y1="596.7" x2="145.4" y2="642.0" stroke="#8a5a9e" stroke-width="1.9" stroke-opacity="0.72" stroke-linecap="round"/><polygon points="141.1,650.0 141.4,639.9 149.4,644.2" fill="#8a5a9e" fill-opacity="0.72"/>
<line x1="141.1" y1="650.0" x2="119.7" y2="642.7" stroke="#8a5a9e" stroke-width="1.9" stroke-opacity="0.72" stroke-linecap="round"/><polygon points="111.2,639.8 121.1,638.4 118.3,647.0" fill="#8a5a9e" fill-opacity="0.72"/>
<line x1="111.2" y1="639.8" x2="118.1" y2="621.1" stroke="#8a5a9e" stroke-width="1.9" stroke-opacity="0.72" stroke-linecap="round"/><polygon points="121.2,612.6 122.3,622.6 113.8,619.5" fill="#8a5a9e" fill-opacity="0.72"/>
<rect x="166.2" y="593.1" width="7.2" height="7.2" fill="#8a5a9e"/>
<rect x="137.5" y="646.4" width="7.2" height="7.2" fill="#8a5a9e"/>
<rect x="107.6" y="636.2" width="7.2" height="7.2" fill="#8a5a9e"/>
<rect x="117.6" y="609.0" width="7.2" height="7.2" fill="#8a5a9e"/>
<line x1="167.3" y1="621.1" x2="170.7" y2="545.9" stroke="#1f9e9e" stroke-width="1.9" stroke-opacity="0.72" stroke-linecap="round"/><polygon points="171.1,536.9 175.2,546.1 166.2,545.7" fill="#1f9e9e" fill-opacity="0.72"/>
<line x1="171.1" y1="536.9" x2="186.6" y2="509.3" stroke="#1f9e9e" stroke-width="1.9" stroke-opacity="0.72" stroke-linecap="round"/><polygon points="191.0,501.5 190.5,511.6 182.7,507.1" fill="#1f9e9e" fill-opacity="0.72"/>
<line x1="191.0" y1="501.5" x2="222.8" y2="515.4" stroke="#1f9e9e" stroke-width="1.9" stroke-opacity="0.72" stroke-linecap="round"/><polygon points="231.0,519.1 221.0,519.6 224.6,511.3" fill="#1f9e9e" fill-opacity="0.72"/>
<rect x="163.7" y="617.5" width="7.2" height="7.2" fill="#1f9e9e"/>
<rect x="167.5" y="533.3" width="7.2" height="7.2" fill="#1f9e9e"/>
<rect x="187.4" y="497.9" width="7.2" height="7.2" fill="#1f9e9e"/>
<rect x="227.4" y="515.5" width="7.2" height="7.2" fill="#1f9e9e"/>
<line x1="175.6" y1="577.7" x2="144.3" y2="661.1" stroke="#2867b5" stroke-width="1.9" stroke-opacity="0.72" stroke-linecap="round"/><polygon points="141.1,669.5 140.1,659.5 148.5,662.7" fill="#2867b5" fill-opacity="0.72"/>
<line x1="141.1" y1="669.5" x2="142.1" y2="644.7" stroke="#2867b5" stroke-width="1.9" stroke-opacity="0.72" stroke-linecap="round"/><polygon points="142.4,635.7 146.6,644.9 137.6,644.6" fill="#2867b5" fill-opacity="0.72"/>
<line x1="142.4" y1="635.7" x2="142.6" y2="635.1" stroke="#2867b5" stroke-width="1.9" stroke-opacity="0.72" stroke-linecap="round"/><polygon points="141.1,639.8 140.3,634.3 145.0,635.8" fill="#2867b5" fill-opacity="0.72"/>
<rect x="172.0" y="574.1" width="7.2" height="7.2" fill="#2867b5"/>
<rect x="137.5" y="665.9" width="7.2" height="7.2" fill="#2867b5"/>
<rect x="138.8" y="632.1" width="7.2" height="7.2" fill="#2867b5"/>
<rect x="137.5" y="636.2" width="7.2" height="7.2" fill="#2867b5"/>
<line x1="168.6" y1="585.3" x2="159.5" y2="585.3" stroke="#b5342c" stroke-width="1.9" stroke-opacity="0.72" stroke-linecap="round"/><polygon points="152.8,585.3 159.5,582.0 159.5,588.6" fill="#b5342c" fill-opacity="0.72"/>
<line x1="152.8" y1="585.3" x2="151.7" y2="604.0" stroke="#b5342c" stroke-width="1.9" stroke-opacity="0.72" stroke-linecap="round"/><polygon points="151.1,613.0 147.2,603.8 156.2,604.3" fill="#b5342c" fill-opacity="0.72"/>
<line x1="151.1" y1="613.0" x2="128.7" y2="598.4" stroke="#b5342c" stroke-width="1.9" stroke-opacity="0.72" stroke-linecap="round"/><polygon points="121.2,593.5 131.2,594.6 126.2,602.2" fill="#b5342c" fill-opacity="0.72"/>
<rect x="165.0" y="581.7" width="7.2" height="7.2" fill="#b5342c"/>
<rect x="149.2" y="581.7" width="7.2" height="7.2" fill="#b5342c"/>
<rect x="147.5" y="609.4" width="7.2" height="7.2" fill="#b5342c"/>
<rect x="117.6" y="589.9" width="7.2" height="7.2" fill="#b5342c"/>
<line x1="161.6" y1="519.1" x2="165.5" y2="507.7" stroke="#3a7d44" stroke-width="1.9" stroke-opacity="0.72" stroke-linecap="round"/><polygon points="168.2,499.6 169.5,509.1 161.4,506.4" fill="#3a7d44" fill-opacity="0.72"/>
<line x1="168.2" y1="499.6" x2="185.5" y2="521.4" stroke="#3a7d44" stroke-width="1.9" stroke-opacity="0.72" stroke-linecap="round"/><polygon points="191.0,528.4 181.9,524.2 189.0,518.6" fill="#3a7d44" fill-opacity="0.72"/>
<line x1="191.0" y1="528.4" x2="232.2" y2="519.3" stroke="#3a7d44" stroke-width="1.9" stroke-opacity="0.72" stroke-linecap="round"/><polygon points="241.0,517.4 233.2,523.7 231.2,514.9" fill="#3a7d44" fill-opacity="0.72"/>
<rect x="158.0" y="515.5" width="7.2" height="7.2" fill="#3a7d44"/>
<rect x="164.6" y="496.0" width="7.2" height="7.2" fill="#3a7d44"/>
<rect x="187.4" y="524.8" width="7.2" height="7.2" fill="#3a7d44"/>
<rect x="237.4" y="513.8" width="7.2" height="7.2" fill="#3a7d44"/>
<text x="92.0" y="475.0" text-anchor="start" font-family="Helvetica, Arial, sans-serif" font-size="20" font-weight="bold" fill="#1a1a1a">base</text>
<text x="374.0" y="475.0" text-anchor="end" font-family="Helvetica, Arial, sans-serif" font-size="13.5" font-weight="normal" fill="#6b7684">10 runs · OLMo · Qwen</text>
<rect x="400" y="450" width="306" height="306" rx="9" fill="white" stroke="#d0d7de" stroke-width="1.3"/>
<line x1="433.2" y1="460" x2="433.2" y2="742" stroke="#eceef1" stroke-width="1.2"/>
<line x1="410" y1="721.1" x2="696" y2="721.1" stroke="#eceef1" stroke-width="1.2"/>
<line x1="575.5" y1="506.8" x2="541.2" y2="491.0" stroke="#2867b5" stroke-width="1.9" stroke-opacity="0.72" stroke-linecap="round"/><polygon points="533.0,487.3 543.1,487.0 539.3,495.1" fill="#2867b5" fill-opacity="0.72"/>
<line x1="533.0" y1="487.3" x2="605.7" y2="540.5" stroke="#2867b5" stroke-width="1.9" stroke-opacity="0.72" stroke-linecap="round"/><polygon points="612.9,545.8 603.0,544.2 608.3,536.9" fill="#2867b5" fill-opacity="0.72"/>
<line x1="612.9" y1="545.8" x2="577.9" y2="492.4" stroke="#2867b5" stroke-width="1.9" stroke-opacity="0.72" stroke-linecap="round"/><polygon points="573.0,484.9 581.7,490.0 574.1,494.9" fill="#2867b5" fill-opacity="0.72"/>
<circle cx="575.5" cy="506.8" r="3.6" fill="#2867b5"/>
<circle cx="533.0" cy="487.3" r="3.6" fill="#2867b5"/>
<circle cx="612.9" cy="545.8" r="3.6" fill="#2867b5"/>
<circle cx="573.0" cy="484.9" r="3.6" fill="#2867b5"/>
<line x1="585.4" y1="486.1" x2="584.2" y2="490.6" stroke="#b5342c" stroke-width="1.9" stroke-opacity="0.72" stroke-linecap="round"/><polygon points="583.0,495.4 581.8,490.0 586.7,491.2" fill="#b5342c" fill-opacity="0.72"/>
<line x1="583.0" y1="495.4" x2="492.1" y2="490.1" stroke="#b5342c" stroke-width="1.9" stroke-opacity="0.72" stroke-linecap="round"/><polygon points="483.1,489.6 492.3,485.7 491.8,494.6" fill="#b5342c" fill-opacity="0.72"/>
<line x1="483.1" y1="489.6" x2="504.2" y2="493.7" stroke="#b5342c" stroke-width="1.9" stroke-opacity="0.72" stroke-linecap="round"/><polygon points="513.0,495.4 503.4,498.1 505.1,489.3" fill="#b5342c" fill-opacity="0.72"/>
<circle cx="585.4" cy="486.1" r="3.6" fill="#b5342c"/>
<circle cx="583.0" cy="495.4" r="3.6" fill="#b5342c"/>
<circle cx="483.1" cy="489.6" r="3.6" fill="#b5342c"/>
<circle cx="513.0" cy="495.4" r="3.6" fill="#b5342c"/>
<line x1="578.0" y1="507.3" x2="567.7" y2="524.0" stroke="#3a7d44" stroke-width="1.9" stroke-opacity="0.72" stroke-linecap="round"/><polygon points="563.0,531.6 563.9,521.6 571.5,526.3" fill="#3a7d44" fill-opacity="0.72"/>
<line x1="563.0" y1="531.6" x2="623.9" y2="525.3" stroke="#3a7d44" stroke-width="1.9" stroke-opacity="0.72" stroke-linecap="round"/><polygon points="632.9,524.3 624.4,529.7 623.5,520.8" fill="#3a7d44" fill-opacity="0.72"/>
<line x1="632.9" y1="524.3" x2="625.3" y2="551.8" stroke="#3a7d44" stroke-width="1.9" stroke-opacity="0.72" stroke-linecap="round"/><polygon points="622.9,560.5 621.0,550.6 629.6,553.0" fill="#3a7d44" fill-opacity="0.72"/>
<circle cx="578.0" cy="507.3" r="3.6" fill="#3a7d44"/>
<circle cx="563.0" cy="531.6" r="3.6" fill="#3a7d44"/>
<circle cx="632.9" cy="524.3" r="3.6" fill="#3a7d44"/>
<circle cx="622.9" cy="560.5" r="3.6" fill="#3a7d44"/>
<line x1="573.0" y1="489.0" x2="604.8" y2="504.1" stroke="#c07d18" stroke-width="1.9" stroke-opacity="0.72" stroke-linecap="round"/><polygon points="612.9,508.0 602.9,508.2 606.7,500.0" fill="#c07d18" fill-opacity="0.72"/>
<line x1="612.9" y1="508.0" x2="601.3" y2="508.5" stroke="#c07d18" stroke-width="1.9" stroke-opacity="0.72" stroke-linecap="round"/><polygon points="593.0,508.9 601.1,504.3 601.5,512.7" fill="#c07d18" fill-opacity="0.72"/>
<line x1="593.0" y1="508.9" x2="578.9" y2="524.9" stroke="#c07d18" stroke-width="1.9" stroke-opacity="0.72" stroke-linecap="round"/><polygon points="573.0,531.6 575.5,521.9 582.3,527.8" fill="#c07d18" fill-opacity="0.72"/>
<circle cx="573.0" cy="489.0" r="3.6" fill="#c07d18"/>
<circle cx="612.9" cy="508.0" r="3.6" fill="#c07d18"/>
<circle cx="593.0" cy="508.9" r="3.6" fill="#c07d18"/>
<circle cx="573.0" cy="531.6" r="3.6" fill="#c07d18"/>
<text x="414.0" y="475.0" text-anchor="start" font-family="Helvetica, Arial, sans-serif" font-size="20" font-weight="bold" fill="#1a1a1a">random</text>
<text x="696.0" y="475.0" text-anchor="end" font-family="Helvetica, Arial, sans-serif" font-size="13.5" font-weight="normal" fill="#6b7684">4 runs · Qwen</text>
<rect x="722" y="450" width="306" height="306" rx="9" fill="white" stroke="#d0d7de" stroke-width="1.3"/>
<line x1="755.2" y1="460" x2="755.2" y2="742" stroke="#eceef1" stroke-width="1.2"/>
<line x1="732" y1="721.1" x2="1018" y2="721.1" stroke="#eceef1" stroke-width="1.2"/>
<line x1="974.9" y1="659.4" x2="920.0" y2="578.1" stroke="#d1477a" stroke-width="1.9" stroke-opacity="0.72" stroke-linecap="round"/><polygon points="915.0,570.7 923.7,575.6 916.3,580.6" fill="#d1477a" fill-opacity="0.72"/>
<line x1="915.0" y1="570.7" x2="872.7" y2="596.1" stroke="#d1477a" stroke-width="1.9" stroke-opacity="0.72" stroke-linecap="round"/><polygon points="865.0,600.7 870.4,592.2 875.0,599.9" fill="#d1477a" fill-opacity="0.72"/>
<line x1="865.0" y1="600.7" x2="828.9" y2="676.8" stroke="#d1477a" stroke-width="1.9" stroke-opacity="0.72" stroke-linecap="round"/><polygon points="825.1,685.0 824.9,674.9 833.0,678.8" fill="#d1477a" fill-opacity="0.72"/>
<rect x="971.3" y="655.8" width="7.2" height="7.2" fill="#d1477a"/>
<rect x="911.4" y="567.1" width="7.2" height="7.2" fill="#d1477a"/>
<rect x="861.4" y="597.1" width="7.2" height="7.2" fill="#d1477a"/>
<rect x="821.5" y="681.4" width="7.2" height="7.2" fill="#d1477a"/>



<rect x="991.2" y="717.5" width="7.2" height="7.2" fill="#5b6bbf"/>
<rect x="991.2" y="717.5" width="7.2" height="7.2" fill="#5b6bbf"/>
<rect x="991.2" y="717.5" width="7.2" height="7.2" fill="#5b6bbf"/>
<rect x="991.2" y="717.5" width="7.2" height="7.2" fill="#5b6bbf"/>
<text x="736.0" y="475.0" text-anchor="start" font-family="Helvetica, Arial, sans-serif" font-size="20" font-weight="bold" fill="#1a1a1a">score oracle</text>
<text x="1018.0" y="475.0" text-anchor="end" font-family="Helvetica, Arial, sans-serif" font-size="13.5" font-weight="normal" fill="#6b7684">2 runs · OLMo</text>
<text x="70.0" y="144.0" text-anchor="end" font-family="Helvetica, Arial, sans-serif" font-size="12.5" font-weight="normal" fill="#6b7684">0.47</text>
<text x="70.0" y="422.0" text-anchor="end" font-family="Helvetica, Arial, sans-serif" font-size="12.5" font-weight="normal" fill="#6b7684">0.01</text>
<text x="70.0" y="466.0" text-anchor="end" font-family="Helvetica, Arial, sans-serif" font-size="12.5" font-weight="normal" fill="#6b7684">0.47</text>
<text x="70.0" y="744.0" text-anchor="end" font-family="Helvetica, Arial, sans-serif" font-size="12.5" font-weight="normal" fill="#6b7684">0.01</text>
<text x="92.0" y="772.0" text-anchor="start" font-family="Helvetica, Arial, sans-serif" font-size="12.5" font-weight="normal" fill="#6b7684">0.01</text>
<text x="370.0" y="772.0" text-anchor="start" font-family="Helvetica, Arial, sans-serif" font-size="12.5" font-weight="normal" fill="#6b7684">0.99</text>
<text x="414.0" y="772.0" text-anchor="start" font-family="Helvetica, Arial, sans-serif" font-size="12.5" font-weight="normal" fill="#6b7684">0.01</text>
<text x="692.0" y="772.0" text-anchor="start" font-family="Helvetica, Arial, sans-serif" font-size="12.5" font-weight="normal" fill="#6b7684">0.99</text>
<text x="736.0" y="772.0" text-anchor="start" font-family="Helvetica, Arial, sans-serif" font-size="12.5" font-weight="normal" fill="#6b7684">0.01</text>
<text x="1014.0" y="772.0" text-anchor="start" font-family="Helvetica, Arial, sans-serif" font-size="12.5" font-weight="normal" fill="#6b7684">0.99</text>
<text x="553.0" y="800.0" text-anchor="middle" font-family="Helvetica, Arial, sans-serif" font-size="18" font-weight="bold" fill="#1a1a1a">x:  value  (free-gen risk)</text>
<text x="30" y="442.0" text-anchor="middle" font-family="Helvetica, Arial, sans-serif" font-size="18" font-weight="bold" fill="#1a1a1a" transform="rotate(-90 30 442.0)">y:  candidate spread</text>
<text x="245.0" y="841.0" text-anchor="start" font-family="Helvetica, Arial, sans-serif" font-size="15" font-weight="bold" fill="#1a1a1a">seed</text>
<rect x="291.0" y="827.0" width="13" height="13" rx="2" fill="#2867b5"/>
<text x="310.0" y="841.0" text-anchor="start" font-family="Helvetica, Arial, sans-serif" font-size="14" font-weight="normal" fill="#1a1a1a">0</text>
<rect x="343.0" y="827.0" width="13" height="13" rx="2" fill="#b5342c"/>
<text x="362.0" y="841.0" text-anchor="start" font-family="Helvetica, Arial, sans-serif" font-size="14" font-weight="normal" fill="#1a1a1a">1</text>
<rect x="395.0" y="827.0" width="13" height="13" rx="2" fill="#3a7d44"/>
<text x="414.0" y="841.0" text-anchor="start" font-family="Helvetica, Arial, sans-serif" font-size="14" font-weight="normal" fill="#1a1a1a">2</text>
<rect x="447.0" y="827.0" width="13" height="13" rx="2" fill="#c07d18"/>
<text x="466.0" y="841.0" text-anchor="start" font-family="Helvetica, Arial, sans-serif" font-size="14" font-weight="normal" fill="#1a1a1a">3</text>
<rect x="499.0" y="827.0" width="13" height="13" rx="2" fill="#8a5a9e"/>
<text x="518.0" y="841.0" text-anchor="start" font-family="Helvetica, Arial, sans-serif" font-size="14" font-weight="normal" fill="#1a1a1a">4</text>
<rect x="551.0" y="827.0" width="13" height="13" rx="2" fill="#1f9e9e"/>
<text x="570.0" y="841.0" text-anchor="start" font-family="Helvetica, Arial, sans-serif" font-size="14" font-weight="normal" fill="#1a1a1a">5</text>
<rect x="603.0" y="827.0" width="13" height="13" rx="2" fill="#d1477a"/>
<text x="622.0" y="841.0" text-anchor="start" font-family="Helvetica, Arial, sans-serif" font-size="14" font-weight="normal" fill="#1a1a1a">21</text>
<rect x="655.0" y="827.0" width="13" height="13" rx="2" fill="#5b6bbf"/>
<text x="674.0" y="841.0" text-anchor="start" font-family="Helvetica, Arial, sans-serif" font-size="14" font-weight="normal" fill="#1a1a1a">22</text>
<circle cx="735.0" cy="836.0" r="5.5" fill="#6b7684"/>
<text x="746.0" y="841.0" text-anchor="start" font-family="Helvetica, Arial, sans-serif" font-size="14" font-weight="normal" fill="#6b7684">Qwen</text>
<rect x="803.0" y="830.5" width="11" height="11" fill="#6b7684"/>
<text x="821.0" y="841.0" text-anchor="start" font-family="Helvetica, Arial, sans-serif" font-size="14" font-weight="normal" fill="#6b7684">OLMo</text>
</svg>