<svg xmlns="http://www.w3.org/2000/svg" viewBox="0 0 1560 973.6" font-family="Helvetica, Arial, sans-serif">
<rect width="1560" height="973.6" fill="white"/>
<text x="780" y="46" text-anchor="middle" font-family="Helvetica, Arial, sans-serif" font-size="29" font-weight="bold" fill="#1a1a1a">The selection gap factorizes into taste alignment × candidate supply —</text>
<text x="780" y="82" text-anchor="middle" font-family="Helvetica, Arial, sans-serif" font-size="29" font-weight="bold" fill="#1a1a1a">and the alignment factor is the earlier runaway warning</text>
<text x="780" y="118" text-anchor="middle" font-family="Helvetica, Arial, sans-serif" font-size="19" font-weight="normal" fill="#6b7684">Each round the model writes six answers per item and a judge keeps the top two, which become training data. Three per-round readouts:</text>
<text x="780" y="144" text-anchor="middle" font-family="Helvetica, Arial, sans-serif" font-size="19" font-weight="normal" fill="#6b7684">taste alignment = correlation, within one item, between the judge's scores for the six candidates and those candidates' risk;</text>
<text x="780" y="170" text-anchor="middle" font-family="Helvetica, Arial, sans-serif" font-size="19" font-weight="normal" fill="#6b7684">candidate supply = standard deviation of candidate risk within the item; selection gap = mean risk of the kept two minus the mean of all six.</text>
<text x="90" y="218" text-anchor="start" font-family="Helvetica, Arial, sans-serif" font-size="22" font-weight="bold" fill="#1a1a1a">A. The gap factors: gap ≈ alignment × supply</text>
<line x1="130" y1="634.1" x2="600" y2="634.1" stroke="#e4e4e0" stroke-width="1"/>
<text x="118" y="640.063492063492" text-anchor="end" font-family="Helvetica, Arial, sans-serif" font-size="17" font-weight="normal" fill="#6b7684">-0.2</text>
<line x1="130" y1="574.4" x2="600" y2="574.4" stroke="#e4e4e0" stroke-width="1"/>
<text x="118" y="580.3809523809523" text-anchor="end" font-family="Helvetica, Arial, sans-serif" font-size="17" font-weight="normal" fill="#6b7684">-0.1</text>
<line x1="130" y1="514.7" x2="600" y2="514.7" stroke="#1a1a1a" stroke-width="2"/>
<text x="118" y="520.6984126984127" text-anchor="end" font-family="Helvetica, Arial, sans-serif" font-size="17" font-weight="normal" fill="#6b7684">+0.0</text>
<line x1="130" y1="455.0" x2="600" y2="455.0" stroke="#e4e4e0" stroke-width="1"/>
<text x="118" y="461.015873015873" text-anchor="end" font-family="Helvetica, Arial, sans-serif" font-size="17" font-weight="normal" fill="#6b7684">+0.1</text>
<line x1="130" y1="395.3" x2="600" y2="395.3" stroke="#e4e4e0" stroke-width="1"/>
<text x="118" y="401.3333333333333" text-anchor="end" font-family="Helvetica, Arial, sans-serif" font-size="17" font-weight="normal" fill="#6b7684">+0.2</text>
<line x1="130" y1="335.7" x2="600" y2="335.7" stroke="#e4e4e0" stroke-width="1"/>
<text x="118" y="341.6507936507936" text-anchor="end" font-family="Helvetica, Arial, sans-serif" font-size="17" font-weight="normal" fill="#6b7684">+0.3</text>
<line x1="130" y1="276.0" x2="600" y2="276.0" stroke="#e4e4e0" stroke-width="1"/>
<text x="118" y="281.9682539682539" text-anchor="end" font-family="Helvetica, Arial, sans-serif" font-size="17" font-weight="normal" fill="#6b7684">+0.4</text>
<line x1="202.3" y1="270" x2="202.3" y2="646" stroke="#e4e4e0" stroke-width="1"/>
<text x="202.30769230769232" y="672" text-anchor="middle" font-family="Helvetica, Arial, sans-serif" font-size="17" font-weight="normal" fill="#6b7684">-0.1</text>
<line x1="274.6" y1="270" x2="274.6" y2="646" stroke="#1a1a1a" stroke-width="2"/>
<text x="274.61538461538464" y="672" text-anchor="middle" font-family="Helvetica, Arial, sans-serif" font-size="17" font-weight="normal" fill="#6b7684">+0.0</text>
<line x1="346.9" y1="270" x2="346.9" y2="646" stroke="#e4e4e0" stroke-width="1"/>
<text x="346.92307692307696" y="672" text-anchor="middle" font-family="Helvetica, Arial, sans-serif" font-size="17" font-weight="normal" fill="#6b7684">+0.1</text>
<line x1="419.2" y1="270" x2="419.2" y2="646" stroke="#e4e4e0" stroke-width="1"/>
<text x="419.2307692307692" y="672" text-anchor="middle" font-family="Helvetica, Arial, sans-serif" font-size="17" font-weight="normal" fill="#6b7684">+0.2</text>
<line x1="491.5" y1="270" x2="491.5" y2="646" stroke="#e4e4e0" stroke-width="1"/>
<text x="491.53846153846155" y="672" text-anchor="middle" font-family="Helvetica, Arial, sans-serif" font-size="17" font-weight="normal" fill="#6b7684">+0.3</text>
<line x1="563.8" y1="270" x2="563.8" y2="646" stroke="#e4e4e0" stroke-width="1"/>
<text x="563.8461538461539" y="672" text-anchor="middle" font-family="Helvetica, Arial, sans-serif" font-size="17" font-weight="normal" fill="#6b7684">+0.4</text>
<text x="365.0" y="702" text-anchor="middle" font-family="Helvetica, Arial, sans-serif" font-size="19" font-weight="normal" fill="#1a1a1a">alignment × supply that round</text>
<text x="58" y="458.0" font-size="19" fill="#1a1a1a" font-family="Helvetica, Arial, sans-serif" transform="rotate(-90 58 458.0)" text-anchor="middle">realized selection gap that round</text>
<line x1="144.5" y1="617.2" x2="578.3" y2="275.6" stroke="#6b7684" stroke-width="2.5" stroke-dasharray="8 6"/>
<line x1="144.5" y1="622.8" x2="578.3" y2="271.5" stroke="#1a1a1a" stroke-width="3.5"/>
<circle cx="201.6" cy="589.3" r="6.0" fill="#2867b5" stroke="white" stroke-width="1.5"/>
<circle cx="263.8" cy="523.0" r="6.0" fill="#2867b5" stroke="white" stroke-width="1.5"/>
<circle cx="222.1" cy="547.9" r="6.0" fill="#2867b5" stroke="white" stroke-width="1.5"/>
<circle cx="262.8" cy="539.6" r="6.0" fill="#2867b5" stroke="white" stroke-width="1.5"/>
<circle cx="225.5" cy="514.7" r="6.0" fill="#2867b5" stroke="white" stroke-width="1.5"/>
<circle cx="162.3" cy="547.9" r="6.0" fill="#2867b5" stroke="white" stroke-width="1.5"/>
<circle cx="243.1" cy="572.7" r="6.0" fill="#2867b5" stroke="white" stroke-width="1.5"/>
<circle cx="262.6" cy="506.4" r="6.0" fill="#2867b5" stroke="white" stroke-width="1.5"/>
<circle cx="179.9" cy="572.7" r="6.0" fill="#2867b5" stroke="white" stroke-width="1.5"/>
<circle cx="226.5" cy="547.9" r="6.0" fill="#2867b5" stroke="white" stroke-width="1.5"/>
<circle cx="251.8" cy="531.3" r="6.0" fill="#2867b5" stroke="white" stroke-width="1.5"/>
<circle cx="270.9" cy="514.7" r="6.0" fill="#2867b5" stroke="white" stroke-width="1.5"/>
<circle cx="225.5" cy="514.7" r="6.0" fill="#2867b5" stroke="white" stroke-width="1.5"/>
<circle cx="209.5" cy="581.0" r="6.0" fill="#2867b5" stroke="white" stroke-width="1.5"/>
<circle cx="238.5" cy="581.0" r="6.0" fill="#2867b5" stroke="white" stroke-width="1.5"/>
<circle cx="212.6" cy="572.7" r="6.0" fill="#2867b5" stroke="white" stroke-width="1.5"/>
<circle cx="204.8" cy="572.7" r="6.0" fill="#2867b5" stroke="white" stroke-width="1.5"/>
<circle cx="236.7" cy="506.4" r="6.0" fill="#2867b5" stroke="white" stroke-width="1.5"/>
<circle cx="269.6" cy="539.6" r="6.0" fill="#2867b5" stroke="white" stroke-width="1.5"/>
<circle cx="307.3" cy="473.3" r="6.0" fill="#2867b5" stroke="white" stroke-width="1.5"/>
<circle cx="283.5" cy="523.0" r="6.0" fill="#2867b5" stroke="white" stroke-width="1.5"/>
<circle cx="258.8" cy="539.6" r="6.0" fill="#2867b5" stroke="white" stroke-width="1.5"/>
<circle cx="256.3" cy="564.4" r="6.0" fill="#2867b5" stroke="white" stroke-width="1.5"/>
<circle cx="294.6" cy="506.4" r="6.0" fill="#2867b5" stroke="white" stroke-width="1.5"/>
<circle cx="236.3" cy="564.4" r="6.0" fill="#2867b5" stroke="white" stroke-width="1.5"/>
<circle cx="243.1" cy="547.9" r="6.0" fill="#2867b5" stroke="white" stroke-width="1.5"/>
<circle cx="278.9" cy="514.7" r="6.0" fill="#2867b5" stroke="white" stroke-width="1.5"/>
<circle cx="278.1" cy="498.1" r="6.0" fill="#2867b5" stroke="white" stroke-width="1.5"/>
<circle cx="227.8" cy="564.4" r="6.0" fill="#2867b5" stroke="white" stroke-width="1.5"/>
<circle cx="307.8" cy="523.0" r="6.0" fill="#2867b5" stroke="white" stroke-width="1.5"/>
<circle cx="290.6" cy="489.8" r="6.0" fill="#2867b5" stroke="white" stroke-width="1.5"/>
<circle cx="180.1" cy="614.2" r="6.0" fill="#2867b5" stroke="white" stroke-width="1.5"/>
<circle cx="276.4" cy="514.7" r="6.0" fill="#2867b5" stroke="white" stroke-width="1.5"/>
<circle cx="332.0" cy="398.6" r="6.0" fill="#2867b5" stroke="white" stroke-width="1.5"/>
<circle cx="360.1" cy="406.9" r="6.0" fill="#2867b5" stroke="white" stroke-width="1.5"/>
<circle cx="297.0" cy="481.5" r="6.0" fill="#2867b5" stroke="white" stroke-width="1.5"/>
<circle cx="216.1" cy="564.4" r="6.0" fill="#2867b5" stroke="white" stroke-width="1.5"/>
<circle cx="283.7" cy="506.4" r="6.0" fill="#2867b5" stroke="white" stroke-width="1.5"/>
<circle cx="324.6" cy="473.3" r="6.0" fill="#2867b5" stroke="white" stroke-width="1.5"/>
<circle cx="329.1" cy="440.1" r="6.0" fill="#2867b5" stroke="white" stroke-width="1.5"/>
<circle cx="239.3" cy="523.0" r="6.0" fill="#2867b5" stroke="white" stroke-width="1.5"/>
<circle cx="245.4" cy="506.4" r="6.0" fill="#2867b5" stroke="white" stroke-width="1.5"/>
<circle cx="268.1" cy="498.1" r="6.0" fill="#2867b5" stroke="white" stroke-width="1.5"/>
<circle cx="305.8" cy="465.0" r="6.0" fill="#2867b5" stroke="white" stroke-width="1.5"/>
<circle cx="301.1" cy="440.1" r="6.0" fill="#2867b5" stroke="white" stroke-width="1.5"/>
<circle cx="258.3" cy="506.4" r="6.0" fill="#2867b5" stroke="white" stroke-width="1.5"/>
<circle cx="353.1" cy="365.5" r="6.0" fill="#2867b5" stroke="white" stroke-width="1.5"/>
<circle cx="378.7" cy="406.9" r="6.0" fill="#2867b5" stroke="white" stroke-width="1.5"/>
<circle cx="251.5" cy="531.3" r="6.0" fill="#2867b5" stroke="white" stroke-width="1.5"/>
<circle cx="224.3" cy="564.4" r="6.0" fill="#2867b5" stroke="white" stroke-width="1.5"/>
<circle cx="204.3" cy="581.0" r="6.0" fill="#2867b5" stroke="white" stroke-width="1.5"/>
<circle cx="264.8" cy="539.6" r="6.0" fill="#2867b5" stroke="white" stroke-width="1.5"/>
<polygon points="272.8,516.0 265.8,529.0 279.8,529.0" fill="#3a7d44" stroke="white" stroke-width="1.5"/>
<polygon points="261.4,524.3 254.4,537.3 268.4,537.3" fill="#3a7d44" stroke="white" stroke-width="1.5"/>
<polygon points="156.9,615.5 149.9,628.5 163.9,628.5" fill="#3a7d44" stroke="white" stroke-width="1.5"/>
<polygon points="317.9,491.1 310.9,504.1 324.9,504.1" fill="#3a7d44" stroke="white" stroke-width="1.5"/>
<polygon points="272.8,516.0 265.8,529.0 279.8,529.0" fill="#3a7d44" stroke="white" stroke-width="1.5"/>
<polygon points="312.5,524.3 305.5,537.3 319.5,537.3" fill="#3a7d44" stroke="white" stroke-width="1.5"/>
<polygon points="300.4,524.3 293.4,537.3 307.4,537.3" fill="#3a7d44" stroke="white" stroke-width="1.5"/>
<polygon points="247.2,532.6 240.2,545.6 254.2,545.6" fill="#3a7d44" stroke="white" stroke-width="1.5"/>
<polygon points="218.8,590.6 211.8,603.6 225.8,603.6" fill="#3a7d44" stroke="white" stroke-width="1.5"/>
<polygon points="253.9,507.7 246.9,520.7 260.9,520.7" fill="#3a7d44" stroke="white" stroke-width="1.5"/>
<polygon points="280.9,507.7 273.9,520.7 287.9,520.7" fill="#3a7d44" stroke="white" stroke-width="1.5"/>
<polygon points="274.6,532.6 267.6,545.6 281.6,545.6" fill="#3a7d44" stroke="white" stroke-width="1.5"/>
<polygon points="288.0,549.1 281.0,562.1 295.0,562.1" fill="#3a7d44" stroke="white" stroke-width="1.5"/>
<polygon points="313.0,466.3 306.0,479.3 320.0,479.3" fill="#3a7d44" stroke="white" stroke-width="1.5"/>
<polygon points="296.6,491.1 289.6,504.1 303.6,504.1" fill="#3a7d44" stroke="white" stroke-width="1.5"/>
<polygon points="309.7,524.3 302.7,537.3 316.7,537.3" fill="#3a7d44" stroke="white" stroke-width="1.5"/>
<polygon points="288.0,549.1 281.0,562.1 295.0,562.1" fill="#3a7d44" stroke="white" stroke-width="1.5"/>
<polygon points="296.8,507.7 289.8,520.7 303.8,520.7" fill="#3a7d44" stroke="white" stroke-width="1.5"/>
<polygon points="302.8,491.1 295.8,504.1 309.8,504.1" fill="#3a7d44" stroke="white" stroke-width="1.5"/>
<polygon points="254.1,532.6 247.1,545.6 261.1,545.6" fill="#3a7d44" stroke="white" stroke-width="1.5"/>
<polygon points="234.3,549.1 227.3,562.1 241.3,562.1" fill="#3a7d44" stroke="white" stroke-width="1.5"/>
<polygon points="197.4,549.1 190.4,562.1 204.4,562.1" fill="#3a7d44" stroke="white" stroke-width="1.5"/>
<polygon points="242.6,499.4 235.6,512.4 249.6,512.4" fill="#3a7d44" stroke="white" stroke-width="1.5"/>
<polygon points="328.6,499.4 321.6,512.4 335.6,512.4" fill="#3a7d44" stroke="white" stroke-width="1.5"/>
<polygon points="327.3,449.7 320.3,462.7 334.3,462.7" fill="#3a7d44" stroke="white" stroke-width="1.5"/>
<polygon points="288.5,516.0 281.5,529.0 295.5,529.0" fill="#3a7d44" stroke="white" stroke-width="1.5"/>
<polygon points="280.8,524.3 273.8,537.3 287.8,537.3" fill="#3a7d44" stroke="white" stroke-width="1.5"/>
<polygon points="331.4,532.6 324.4,545.6 338.4,545.6" fill="#3a7d44" stroke="white" stroke-width="1.5"/>
<polygon points="327.3,449.7 320.3,462.7 334.3,462.7" fill="#3a7d44" stroke="white" stroke-width="1.5"/>
<polygon points="285.3,540.9 278.3,553.9 292.3,553.9" fill="#3a7d44" stroke="white" stroke-width="1.5"/>
<polygon points="274.7,516.0 267.7,529.0 281.7,529.0" fill="#3a7d44" stroke="white" stroke-width="1.5"/>
<polygon points="287.6,549.1 280.6,562.1 294.6,562.1" fill="#3a7d44" stroke="white" stroke-width="1.5"/>
<polygon points="261.3,499.4 254.3,512.4 268.3,512.4" fill="#3a7d44" stroke="white" stroke-width="1.5"/>
<polygon points="229.5,574.0 222.5,587.0 236.5,587.0" fill="#3a7d44" stroke="white" stroke-width="1.5"/>
<polygon points="283.4,441.4 276.4,454.4 290.4,454.4" fill="#3a7d44" stroke="white" stroke-width="1.5"/>
<polygon points="282.1,458.0 275.1,471.0 289.1,471.0" fill="#3a7d44" stroke="white" stroke-width="1.5"/>
<polygon points="285.5,516.0 278.5,529.0 292.5,529.0" fill="#3a7d44" stroke="white" stroke-width="1.5"/>
<polygon points="292.8,491.1 285.8,504.1 299.8,504.1" fill="#3a7d44" stroke="white" stroke-width="1.5"/>
<polygon points="298.6,524.3 291.6,537.3 305.6,537.3" fill="#3a7d44" stroke="white" stroke-width="1.5"/>
<polygon points="562.8,283.9 555.8,296.9 569.8,296.9" fill="#3a7d44" stroke="white" stroke-width="1.5"/>
<polygon points="285.5,516.0 278.5,529.0 292.5,529.0" fill="#3a7d44" stroke="white" stroke-width="1.5"/>
<polygon points="290.7,507.7 283.7,520.7 297.7,520.7" fill="#3a7d44" stroke="white" stroke-width="1.5"/>
<polygon points="288.8,507.7 281.8,520.7 295.8,520.7" fill="#3a7d44" stroke="white" stroke-width="1.5"/>
<polygon points="286.9,458.0 279.9,471.0 293.9,471.0" fill="#3a7d44" stroke="white" stroke-width="1.5"/>
<polygon points="253.4,565.7 246.4,578.7 260.4,578.7" fill="#3a7d44" stroke="white" stroke-width="1.5"/>
<polygon points="334.4,466.3 327.4,479.3 341.4,479.3" fill="#3a7d44" stroke="white" stroke-width="1.5"/>
<polygon points="255.4,557.4 248.4,570.4 262.4,570.4" fill="#3a7d44" stroke="white" stroke-width="1.5"/>
<polygon points="303.2,532.6 296.2,545.6 310.2,545.6" fill="#3a7d44" stroke="white" stroke-width="1.5"/>
<circle cx="148.0" cy="290.0" r="6.0" fill="#2867b5" stroke="white" stroke-width="1.5"/>
<text x="164" y="296" text-anchor="start" font-family="Helvetica, Arial, sans-serif" font-size="18" font-weight="normal" fill="#1a1a1a">OLMo risk model, K2 grid — 13 runs</text>
<polygon points="148.0,311.0 141.0,324.0 155.0,324.0" fill="#3a7d44" stroke="white" stroke-width="1.5"/>
<text x="164" y="324" text-anchor="start" font-family="Helvetica, Arial, sans-serif" font-size="18" font-weight="normal" fill="#1a1a1a">Qwen risk model, K1 grid — 12 runs</text>
<rect x="318.8" y="565.3" width="366" height="88" rx="8" fill="white" fill-opacity="0.92"/>
<text x="328.8461538461538" y="589.3015873015872" text-anchor="start" font-family="Helvetica, Arial, sans-serif" font-size="20" font-weight="bold" fill="#1a1a1a">gap ≈ 0.98 × alignment × supply</text>
<text x="328.8461538461538" y="616.3015873015872" text-anchor="start" font-family="Helvetica, Arial, sans-serif" font-size="17" font-weight="normal" fill="#6b7684">correlation r = 0.82 across all 100 rounds</text>
<text x="328.8461538461538" y="641.3015873015872" text-anchor="start" font-family="Helvetica, Arial, sans-serif" font-size="17" font-weight="normal" fill="#6b7684">dashed: keep-top-2-of-6 order statistics, slope 0.95</text>
<text x="700" y="218" text-anchor="start" font-family="Helvetica, Arial, sans-serif" font-size="22" font-weight="bold" fill="#1a1a1a">B. The alignment factor warns earliest</text>
<text x="700" y="244" text-anchor="start" font-family="Helvetica, Arial, sans-serif" font-size="17" font-weight="normal" fill="#6b7684">correlation of each round-1 readout with the run's</text>
<text x="700" y="266" text-anchor="start" font-family="Helvetica, Arial, sans-serif" font-size="17" font-weight="normal" fill="#6b7684">remaining drift (final minus round-1 pool risk)</text>
<rect x="726" y="283" width="16" height="16" rx="3" fill="#b5342c"/>
<text x="750" y="296" text-anchor="start" font-family="Helvetica, Arial, sans-serif" font-size="17" font-weight="normal" fill="#1a1a1a">alignment × supply</text>
<rect x="920" y="283" width="16" height="16" rx="3" fill="#8a5a9e"/>
<text x="944" y="296" text-anchor="start" font-family="Helvetica, Arial, sans-serif" font-size="17" font-weight="normal" fill="#1a1a1a">alignment alone</text>
<rect x="726" y="308" width="16" height="16" rx="3" fill="#2867b5"/>
<text x="750" y="321" text-anchor="start" font-family="Helvetica, Arial, sans-serif" font-size="17" font-weight="normal" fill="#1a1a1a">realized gap</text>
<rect x="920" y="308" width="16" height="16" rx="3" fill="#c07d18"/>
<text x="944" y="321" text-anchor="start" font-family="Helvetica, Arial, sans-serif" font-size="17" font-weight="normal" fill="#1a1a1a">supply alone</text>
<line x1="730" y1="618.1" x2="1090" y2="618.1" stroke="#e4e4e0" stroke-width="1"/>
<text x="718" y="624.1428571428571" text-anchor="end" font-family="Helvetica, Arial, sans-serif" font-size="17" font-weight="normal" fill="#6b7684">-0.4</text>
<line x1="730" y1="562.4" x2="1090" y2="562.4" stroke="#e4e4e0" stroke-width="1"/>
<text x="718" y="568.4285714285714" text-anchor="end" font-family="Helvetica, Arial, sans-serif" font-size="17" font-weight="normal" fill="#6b7684">-0.2</text>
<line x1="730" y1="506.7" x2="1090" y2="506.7" stroke="#1a1a1a" stroke-width="2"/>
<text x="718" y="512.7142857142857" text-anchor="end" font-family="Helvetica, Arial, sans-serif" font-size="17" font-weight="normal" fill="#6b7684">+0.0</text>
<line x1="730" y1="451.0" x2="1090" y2="451.0" stroke="#e4e4e0" stroke-width="1"/>
<text x="718" y="457.0" text-anchor="end" font-family="Helvetica, Arial, sans-serif" font-size="17" font-weight="normal" fill="#6b7684">+0.2</text>
<line x1="730" y1="395.3" x2="1090" y2="395.3" stroke="#e4e4e0" stroke-width="1"/>
<text x="718" y="401.2857142857143" text-anchor="end" font-family="Helvetica, Arial, sans-serif" font-size="17" font-weight="normal" fill="#6b7684">+0.4</text>
<line x1="730" y1="339.6" x2="1090" y2="339.6" stroke="#e4e4e0" stroke-width="1"/>
<text x="718" y="345.57142857142856" text-anchor="end" font-family="Helvetica, Arial, sans-serif" font-size="17" font-weight="normal" fill="#6b7684">+0.6</text>
<rect x="752" y="354.3" width="34" height="152.4" rx="3" fill="#b5342c"/>
<text x="769.0" y="346.3031930214428" text-anchor="middle" font-family="Helvetica, Arial, sans-serif" font-size="16" font-weight="bold" fill="#1a1a1a">+.55</text>
<rect x="794" y="373.0" width="34" height="133.7" rx="3" fill="#8a5a9e"/>
<text x="811.0" y="365.0320832257894" text-anchor="middle" font-family="Helvetica, Arial, sans-serif" font-size="16" font-weight="bold" fill="#1a1a1a">+.48</text>
<rect x="836" y="397.6" width="34" height="109.1" rx="3" fill="#2867b5"/>
<text x="853.0" y="389.5775799523112" text-anchor="middle" font-family="Helvetica, Arial, sans-serif" font-size="16" font-weight="bold" fill="#1a1a1a">+.39</text>
<rect x="878" y="506.7" width="34" height="109.2" rx="3" fill="#c07d18"/>
<text x="895.0" y="635.883222497089" text-anchor="middle" font-family="Helvetica, Arial, sans-serif" font-size="16" font-weight="bold" fill="#1a1a1a">-.39</text>
<text x="832.0" y="672" text-anchor="middle" font-family="Helvetica, Arial, sans-serif" font-size="18" font-weight="bold" fill="#1a1a1a">OLMo risk model</text>
<text x="832.0" y="694" text-anchor="middle" font-family="Helvetica, Arial, sans-serif" font-size="16" font-weight="normal" fill="#6b7684">K2 grid, 13 runs</text>
<rect x="932" y="366.9" width="34" height="139.8" rx="3" fill="#b5342c"/>
<text x="949.0" y="358.8825255213713" text-anchor="middle" font-family="Helvetica, Arial, sans-serif" font-size="16" font-weight="bold" fill="#1a1a1a">+.50</text>
<rect x="974" y="365.9" width="34" height="140.8" rx="3" fill="#8a5a9e"/>
<text x="991.0" y="357.9296586279946" text-anchor="middle" font-family="Helvetica, Arial, sans-serif" font-size="16" font-weight="bold" fill="#1a1a1a">+.51</text>
<rect x="1016" y="400.5" width="34" height="106.2" rx="3" fill="#2867b5"/>
<text x="1033.0" y="392.5178207612669" text-anchor="middle" font-family="Helvetica, Arial, sans-serif" font-size="16" font-weight="bold" fill="#1a1a1a">+.38</text>
<rect x="1058" y="506.7" width="34" height="22.4" rx="3" fill="#c07d18"/>
<text x="1075.0" y="549.1285624554839" text-anchor="middle" font-family="Helvetica, Arial, sans-serif" font-size="16" font-weight="bold" fill="#1a1a1a">-.08</text>
<text x="1012.0" y="672" text-anchor="middle" font-family="Helvetica, Arial, sans-serif" font-size="18" font-weight="bold" fill="#1a1a1a">Qwen risk model</text>
<text x="1012.0" y="694" text-anchor="middle" font-family="Helvetica, Arial, sans-serif" font-size="16" font-weight="normal" fill="#6b7684">K1 grid, 12 runs</text>
<text x="700" y="724.0" font-family="Helvetica, Arial, sans-serif" font-size="16" font-weight="normal" fill="#6b7684">Supply alone points the other way: high-variance</text>
<text x="700" y="745.12" font-family="Helvetica, Arial, sans-serif" font-size="16" font-weight="normal" fill="#6b7684">candidate pools mostly settle.</text>
<text x="1170" y="218" text-anchor="start" font-family="Helvetica, Arial, sans-serif" font-size="22" font-weight="bold" fill="#1a1a1a">C. The runaway: alignment blooms</text>
<text x="1170" y="244" text-anchor="start" font-family="Helvetica, Arial, sans-serif" font-size="22" font-weight="bold" fill="#1a1a1a">while supply is still high</text>
<text x="1170" y="270" text-anchor="start" font-family="Helvetica, Arial, sans-serif" font-size="17" font-weight="normal" fill="#6b7684">two OLMo risk-model runs, K2 grid,</text>
<text x="1170" y="292" text-anchor="start" font-family="Helvetica, Arial, sans-serif" font-size="17" font-weight="normal" fill="#6b7684">both under a frozen neutral judge</text>
<text x="1170" y="324" text-anchor="start" font-family="Helvetica, Arial, sans-serif" font-size="18" font-weight="bold" fill="#1a1a1a">taste alignment</text>
<line x1="1200" y1="482.3" x2="1520" y2="482.3" stroke="#e4e4e0" stroke-width="1"/>
<text x="1190" y="488.3414634146342" text-anchor="end" font-family="Helvetica, Arial, sans-serif" font-size="16" font-weight="normal" fill="#6b7684">-0.3</text>
<line x1="1200" y1="427.5" x2="1520" y2="427.5" stroke="#e4e4e0" stroke-width="1"/>
<text x="1190" y="433.4634146341463" text-anchor="end" font-family="Helvetica, Arial, sans-serif" font-size="16" font-weight="normal" fill="#6b7684">0</text>
<line x1="1200" y1="372.6" x2="1520" y2="372.6" stroke="#e4e4e0" stroke-width="1"/>
<text x="1190" y="378.5853658536585" text-anchor="end" font-family="Helvetica, Arial, sans-serif" font-size="16" font-weight="normal" fill="#6b7684">0.3</text>
<polyline points="1200.0,478.7 1306.7,405.2 1413.3,353.8 1520.0,343.1" fill="none" stroke="#6b7684" stroke-width="2"/>
<circle cx="1200.0" cy="478.7" r="3.5" fill="#6b7684"/>
<circle cx="1306.7" cy="405.2" r="3.5" fill="#6b7684"/>
<circle cx="1413.3" cy="353.8" r="3.5" fill="#6b7684"/>
<circle cx="1520.0" cy="343.1" r="3.5" fill="#6b7684"/>
<text x="1510.0" y="331.1499003370834" text-anchor="end" font-family="Helvetica, Arial, sans-serif" font-size="15" font-weight="bold" fill="#6b7684">0.46</text>
<text x="1216.0" y="496.7466634613078" text-anchor="start" font-family="Helvetica, Arial, sans-serif" font-size="16" font-weight="normal" fill="#6b7684">settled seed 0</text>
<polyline points="1200.0,425.2 1306.7,388.3 1413.3,378.5 1520.0,413.5" fill="none" stroke="#b5342c" stroke-width="3"/>
<circle cx="1200.0" cy="425.2" r="5.5" fill="#b5342c" stroke="white" stroke-width="1.5"/>
<text x="1200.0" y="449.22001245174295" text-anchor="middle" font-family="Helvetica, Arial, sans-serif" font-size="16" font-weight="bold" fill="#b5342c">0.01</text>
<circle cx="1306.7" cy="388.3" r="5.5" fill="#b5342c" stroke="white" stroke-width="1.5"/>
<text x="1306.6666666666667" y="376.2933078689634" text-anchor="middle" font-family="Helvetica, Arial, sans-serif" font-size="16" font-weight="bold" fill="#b5342c">0.21</text>
<circle cx="1413.3" cy="378.5" r="5.5" fill="#b5342c" stroke="white" stroke-width="1.5"/>
<text x="1413.3333333333333" y="402.48941138258925" text-anchor="middle" font-family="Helvetica, Arial, sans-serif" font-size="16" font-weight="bold" fill="#b5342c">0.27</text>
<circle cx="1520.0" cy="413.5" r="5.5" fill="#b5342c" stroke="white" stroke-width="1.5"/>
<text x="1520.0" y="437.51715900955344" text-anchor="middle" font-family="Helvetica, Arial, sans-serif" font-size="16" font-weight="bold" fill="#b5342c">0.08</text>
<text x="1244.6666666666667" y="352.2933078689634" text-anchor="start" font-family="Helvetica, Arial, sans-serif" font-size="16" font-weight="bold" fill="#b5342c">runaway seed 5</text>
<text x="1170" y="530.0" font-family="Helvetica, Arial, sans-serif" font-size="16" font-weight="normal" fill="#b5342c">Seed 5's alignment bloomed while supply was</text>
<text x="1170" y="551.12" font-family="Helvetica, Arial, sans-serif" font-size="16" font-weight="normal" fill="#b5342c">still high (supply 0.37–0.44) and rounds</text>
<text x="1170" y="572.24" font-family="Helvetica, Arial, sans-serif" font-size="16" font-weight="normal" fill="#b5342c">remained — the product alignment × supply is</text>
<text x="1170" y="593.36" font-family="Helvetica, Arial, sans-serif" font-size="16" font-weight="normal" fill="#b5342c">the force. Settled seed 0's alignment also</text>
<text x="1170" y="614.48" font-family="Helvetica, Arial, sans-serif" font-size="16" font-weight="normal" fill="#b5342c">rose late (0.12 → 0.40 → 0.46) but met supply</text>
<text x="1170" y="635.6" font-family="Helvetica, Arial, sans-serif" font-size="16" font-weight="normal" fill="#b5342c">of only ≈ 0.16: no rail.</text>
<text x="1170" y="672" text-anchor="start" font-family="Helvetica, Arial, sans-serif" font-size="18" font-weight="bold" fill="#1a1a1a">pool mean risk</text>
<line x1="1200" y1="824.0" x2="1520" y2="824.0" stroke="#e4e4e0" stroke-width="1"/>
<text x="1190" y="830.0" text-anchor="end" font-family="Helvetica, Arial, sans-serif" font-size="16" font-weight="normal" fill="#6b7684">0</text>
<line x1="1200" y1="785.1" x2="1520" y2="785.1" stroke="#e4e4e0" stroke-width="1"/>
<text x="1190" y="791.1111111111111" text-anchor="end" font-family="Helvetica, Arial, sans-serif" font-size="16" font-weight="normal" fill="#6b7684">0.2</text>
<line x1="1200" y1="746.2" x2="1520" y2="746.2" stroke="#e4e4e0" stroke-width="1"/>
<text x="1190" y="752.2222222222222" text-anchor="end" font-family="Helvetica, Arial, sans-serif" font-size="16" font-weight="normal" fill="#6b7684">0.4</text>
<line x1="1200" y1="707.3" x2="1520" y2="707.3" stroke="#e4e4e0" stroke-width="1"/>
<text x="1190" y="713.3333333333334" text-anchor="end" font-family="Helvetica, Arial, sans-serif" font-size="16" font-weight="normal" fill="#6b7684">0.6</text>
<polyline points="1200.0,783.5 1306.7,810.5 1413.3,805.1 1520.0,807.8" fill="none" stroke="#6b7684" stroke-width="2"/>
<circle cx="1200.0" cy="783.5" r="3.5" fill="#6b7684"/>
<circle cx="1306.7" cy="810.5" r="3.5" fill="#6b7684"/>
<circle cx="1413.3" cy="805.1" r="3.5" fill="#6b7684"/>
<circle cx="1520.0" cy="807.8" r="3.5" fill="#6b7684"/>
<text x="1506.0" y="827.7962962962963" text-anchor="end" font-family="Helvetica, Arial, sans-serif" font-size="15" font-weight="normal" fill="#6b7684">seed 0 ends at 0.08</text>
<polyline points="1200.0,791.6 1306.7,764.6 1413.3,737.6 1520.0,697.1" fill="none" stroke="#b5342c" stroke-width="3"/>
<circle cx="1200.0" cy="791.6" r="5.5" fill="#b5342c" stroke="white" stroke-width="1.5"/>
<text x="1200.0" y="815.5925925925926" text-anchor="middle" font-family="Helvetica, Arial, sans-serif" font-size="16" font-weight="bold" fill="#b5342c">0.17</text>
<circle cx="1306.7" cy="764.6" r="5.5" fill="#b5342c" stroke="white" stroke-width="1.5"/>
<text x="1306.6666666666667" y="752.5864197530864" text-anchor="middle" font-family="Helvetica, Arial, sans-serif" font-size="16" font-weight="bold" fill="#b5342c">0.31</text>
<circle cx="1413.3" cy="737.6" r="5.5" fill="#b5342c" stroke="white" stroke-width="1.5"/>
<text x="1413.3333333333333" y="725.5802469135803" text-anchor="middle" font-family="Helvetica, Arial, sans-serif" font-size="16" font-weight="bold" fill="#b5342c">0.44</text>
<circle cx="1520.0" cy="697.1" r="5.5" fill="#b5342c" stroke="white" stroke-width="1.5"/>
<text x="1510.0" y="685.070987654321" text-anchor="end" font-family="Helvetica, Arial, sans-serif" font-size="16" font-weight="bold" fill="#b5342c">seed 5 rails at 0.65</text>
<text x="1200.0" y="850" text-anchor="middle" font-family="Helvetica, Arial, sans-serif" font-size="17" font-weight="normal" fill="#6b7684">1</text>
<text x="1306.6666666666667" y="850" text-anchor="middle" font-family="Helvetica, Arial, sans-serif" font-size="17" font-weight="normal" fill="#6b7684">2</text>
<text x="1413.3333333333333" y="850" text-anchor="middle" font-family="Helvetica, Arial, sans-serif" font-size="17" font-weight="normal" fill="#6b7684">3</text>
<text x="1520.0" y="850" text-anchor="middle" font-family="Helvetica, Arial, sans-serif" font-size="17" font-weight="normal" fill="#6b7684">4</text>
<text x="1360.0" y="876" text-anchor="middle" font-family="Helvetica, Arial, sans-serif" font-size="19" font-weight="normal" fill="#1a1a1a">round</text>
<text x="100" y="906.0" font-family="Helvetica, Arial, sans-serif" font-size="17" font-weight="normal" fill="#6b7684">Data: experiments/taste_alignment_predictor.json — 25 four-round keep-top-2-of-6 selection rollouts (13 with the OLMo risk model on the K2 grid, 12 with the</text>
<text x="100" y="929.8" font-family="Helvetica, Arial, sans-serif" font-size="17" font-weight="normal" fill="#6b7684">Qwen risk model on the K1 grid). Every number is recomputed from the per-round records in that file; risk is the pool's mean judged risk score in [0, 1].</text>
</svg>