<svg xmlns="http://www.w3.org/2000/svg" viewBox="0 0 1040 660" font-family="Helvetica, Arial, sans-serif">
<rect width="1040" height="660" fill="white"/>
<text x="60" y="52" font-family="Helvetica, Arial, sans-serif" font-size="27" font-weight="bold" fill="#1a1a1a">The organism&#8217;s forced-choice self-description under two pool compositions</text>
<text x="60" y="82" font-family="Helvetica, Arial, sans-serif" font-size="16.5" fill="#6b7684">Qwen em750 organism · candid-prompt self-judge · head-to-head duels · 2 seeds × 4 rounds; only the answer pool differs</text>
<line x1="118" y1="548.0" x2="690" y2="548.0" stroke="#e6e8eb" stroke-width="1.5"/>
<text x="104" y="553.0" font-family="Helvetica, Arial, sans-serif" font-size="14" fill="#6b7684" text-anchor="end">0.00</text>
<line x1="118" y1="441.0" x2="690" y2="441.0" stroke="#e6e8eb" stroke-width="1.5"/>
<text x="104" y="446.0" font-family="Helvetica, Arial, sans-serif" font-size="14" fill="#6b7684" text-anchor="end">0.25</text>
<line x1="118" y1="334.0" x2="690" y2="334.0" stroke="#e6e8eb" stroke-width="1.5"/>
<text x="104" y="339.0" font-family="Helvetica, Arial, sans-serif" font-size="14" fill="#6b7684" text-anchor="end">0.50</text>
<line x1="118" y1="227.0" x2="690" y2="227.0" stroke="#e6e8eb" stroke-width="1.5"/>
<text x="104" y="232.0" font-family="Helvetica, Arial, sans-serif" font-size="14" fill="#6b7684" text-anchor="end">0.75</text>
<line x1="118" y1="120.0" x2="690" y2="120.0" stroke="#e6e8eb" stroke-width="1.5"/>
<text x="104" y="125.0" font-family="Helvetica, Arial, sans-serif" font-size="14" fill="#6b7684" text-anchor="end">1.00</text>
<line x1="118" y1="120" x2="118" y2="548" stroke="#1a1a1a" stroke-width="2"/>
<line x1="118" y1="548" x2="690" y2="548" stroke="#1a1a1a" stroke-width="2"/>
<line x1="118.0" y1="548" x2="118.0" y2="554" stroke="#1a1a1a" stroke-width="2"/>
<text x="118.0" y="574.0" font-family="Helvetica, Arial, sans-serif" font-size="14" fill="#6b7684" text-anchor="middle">0</text>
<text x="118.0" y="591.0" font-family="Helvetica, Arial, sans-serif" font-size="14" fill="#6b7684" text-anchor="middle">(baseline)</text>
<line x1="261.0" y1="548" x2="261.0" y2="554" stroke="#1a1a1a" stroke-width="2"/>
<text x="261.0" y="574.0" font-family="Helvetica, Arial, sans-serif" font-size="14" fill="#6b7684" text-anchor="middle">1</text>
<line x1="404.0" y1="548" x2="404.0" y2="554" stroke="#1a1a1a" stroke-width="2"/>
<text x="404.0" y="574.0" font-family="Helvetica, Arial, sans-serif" font-size="14" fill="#6b7684" text-anchor="middle">2</text>
<line x1="547.0" y1="548" x2="547.0" y2="554" stroke="#1a1a1a" stroke-width="2"/>
<text x="547.0" y="574.0" font-family="Helvetica, Arial, sans-serif" font-size="14" fill="#6b7684" text-anchor="middle">3</text>
<line x1="690.0" y1="548" x2="690.0" y2="554" stroke="#1a1a1a" stroke-width="2"/>
<text x="690.0" y="574.0" font-family="Helvetica, Arial, sans-serif" font-size="14" fill="#6b7684" text-anchor="middle">4</text>
<text x="404" y="616" font-family="Helvetica, Arial, sans-serif" font-size="15.5" fill="#1a1a1a" text-anchor="middle">selection round</text>
<text x="34" y="334" font-family="Helvetica, Arial, sans-serif" font-size="15.5" fill="#1a1a1a" text-anchor="middle" transform="rotate(-90 34 334)">forced-choice p(insecure self-description)</text>
<circle cx="118.0" cy="402.3" r="6" fill="#1a1a1a"/>
<polyline points="118.0,402.3 261.0,316.9 404.0,240.3 547.0,227.7 690.0,208.4" fill="none" stroke="#b5342c" stroke-width="3" stroke-linejoin="round" stroke-linecap="round"/>
<circle cx="118.0" cy="402.3" r="5" fill="#b5342c" stroke="white" stroke-width="2"/>
<circle cx="261.0" cy="316.9" r="5" fill="#b5342c" stroke="white" stroke-width="2"/>
<circle cx="404.0" cy="240.3" r="5" fill="#b5342c" stroke="white" stroke-width="2"/>
<circle cx="547.0" cy="227.7" r="5" fill="#b5342c" stroke="white" stroke-width="2"/>
<circle cx="690.0" cy="208.4" r="5" fill="#b5342c" stroke="white" stroke-width="2"/>
<polyline points="118.0,402.3 261.0,302.5 404.0,214.0 547.0,237.4 690.0,157.3" fill="none" stroke="#b5342c" stroke-width="3" stroke-dasharray="7 5" stroke-linejoin="round" stroke-linecap="round"/>
<circle cx="118.0" cy="402.3" r="5" fill="#b5342c" stroke="white" stroke-width="2"/>
<circle cx="261.0" cy="302.5" r="5" fill="#b5342c" stroke="white" stroke-width="2"/>
<circle cx="404.0" cy="214.0" r="5" fill="#b5342c" stroke="white" stroke-width="2"/>
<circle cx="547.0" cy="237.4" r="5" fill="#b5342c" stroke="white" stroke-width="2"/>
<circle cx="690.0" cy="157.3" r="5" fill="#b5342c" stroke="white" stroke-width="2"/>
<polyline points="118.0,402.3 261.0,503.6 404.0,544.1 547.0,544.6 690.0,545.4" fill="none" stroke="#2867b5" stroke-width="3" stroke-linejoin="round" stroke-linecap="round"/>
<circle cx="118.0" cy="402.3" r="5" fill="#2867b5" stroke="white" stroke-width="2"/>
<circle cx="261.0" cy="503.6" r="5" fill="#2867b5" stroke="white" stroke-width="2"/>
<circle cx="404.0" cy="544.1" r="5" fill="#2867b5" stroke="white" stroke-width="2"/>
<circle cx="547.0" cy="544.6" r="5" fill="#2867b5" stroke="white" stroke-width="2"/>
<circle cx="690.0" cy="545.4" r="5" fill="#2867b5" stroke="white" stroke-width="2"/>
<polyline points="118.0,402.3 261.0,520.7 404.0,539.8 547.0,542.6 690.0,545.0" fill="none" stroke="#2867b5" stroke-width="3" stroke-dasharray="7 5" stroke-linejoin="round" stroke-linecap="round"/>
<circle cx="118.0" cy="402.3" r="5" fill="#2867b5" stroke="white" stroke-width="2"/>
<circle cx="261.0" cy="520.7" r="5" fill="#2867b5" stroke="white" stroke-width="2"/>
<circle cx="404.0" cy="539.8" r="5" fill="#2867b5" stroke="white" stroke-width="2"/>
<circle cx="547.0" cy="542.6" r="5" fill="#2867b5" stroke="white" stroke-width="2"/>
<circle cx="690.0" cy="545.0" r="5" fill="#2867b5" stroke="white" stroke-width="2"/>
<text x="704.0" y="151.3" font-family="Helvetica, Arial, sans-serif" font-size="15" font-weight="bold" fill="#b5342c">own candidates only</text>
<text x="704.0" y="170.3" font-family="Helvetica, Arial, sans-serif" font-size="13.5" fill="#b5342c">seed 41 (solid), seed 42 (dashed)</text>
<text x="704.0" y="541.4" font-family="Helvetica, Arial, sans-serif" font-size="15" font-weight="bold" fill="#2867b5">half from the base model</text>
<text x="704.0" y="560.4" font-family="Helvetica, Arial, sans-serif" font-size="13.5" fill="#2867b5">seed 41 (solid), seed 42 (dashed)</text>
<text x="130.0" y="391.3" font-family="Helvetica, Arial, sans-serif" font-size="13.5" fill="#1a1a1a" text-anchor="start">baseline 0.341</text>
<text x="900" y="186" font-family="Helvetica, Arial, sans-serif" font-size="15" font-weight="bold" fill="#1a1a1a" text-anchor="middle">round-1 agreement ρ</text>
<text x="900" y="204" font-family="Helvetica, Arial, sans-serif" font-size="12.5" fill="#6b7684" text-anchor="middle">kept-vs-score correlation</text>
<line x1="810" y1="250" x2="990" y2="250" stroke="#1a1a1a" stroke-width="2"/>
<line x1="810.0" y1="245" x2="810.0" y2="255" stroke="#1a1a1a" stroke-width="2"/>
<text x="810.0" y="272.0" font-family="Helvetica, Arial, sans-serif" font-size="12.5" fill="#6b7684" text-anchor="middle">-1</text>
<line x1="900.0" y1="245" x2="900.0" y2="255" stroke="#1a1a1a" stroke-width="2"/>
<text x="900.0" y="272.0" font-family="Helvetica, Arial, sans-serif" font-size="12.5" fill="#6b7684" text-anchor="middle">0</text>
<line x1="990.0" y1="245" x2="990.0" y2="255" stroke="#1a1a1a" stroke-width="2"/>
<text x="990.0" y="272.0" font-family="Helvetica, Arial, sans-serif" font-size="12.5" fill="#6b7684" text-anchor="middle">+1</text>
<circle cx="935.7" cy="250.0" r="8" fill="#b5342c" stroke="white" stroke-width="2"/>
<text x="935.7" y="234.0" font-family="Helvetica, Arial, sans-serif" font-size="13.5" font-weight="bold" fill="#b5342c" text-anchor="middle">+0.40</text>
<circle cx="874.4" cy="250.0" r="8" fill="#2867b5" stroke="white" stroke-width="2"/>
<text x="874.4" y="234.0" font-family="Helvetica, Arial, sans-serif" font-size="13.5" font-weight="bold" fill="#2867b5" text-anchor="middle">-0.28</text>
<text x="810" y="296" font-family="Helvetica, Arial, sans-serif" font-size="12.5" fill="#b5342c">own candidates only</text>
<text x="810" y="314" font-family="Helvetica, Arial, sans-serif" font-size="12.5" fill="#2867b5">half from the base model</text>
<text x="60" y="642" font-family="Helvetica, Arial, sans-serif" font-size="12.5" fill="#6b7684">source: experiments/qwen_selfonly_model_check.json (forced_choice_p_insecure, round1_agreement)</text>
</svg>