<svg xmlns="http://www.w3.org/2000/svg" viewBox="0 0 1000 984" font-family="Helvetica, Arial, sans-serif">
<rect width="1000" height="984" fill="white"/>
<text x="500" y="52" text-anchor="middle" font-family="Helvetica, Arial, sans-serif" font-size="27" font-weight="bold" fill="#1a1a1a">Each round, the value moves ~80% of the way toward the kept answers</text>
<line x1="140" y1="780.0" x2="900" y2="780.0" stroke="#e4e4e0" stroke-width="1"/>
<line x1="216.0" y1="96" x2="216.0" y2="856" stroke="#e4e4e0" stroke-width="1"/>
<text x="128" y="786.0" text-anchor="end" font-size="18" fill="#6b7684" font-family="Helvetica, Arial, sans-serif">-0.6</text>
<text x="216.0" y="886" text-anchor="middle" font-size="18" fill="#6b7684" font-family="Helvetica, Arial, sans-serif">-0.6</text>
<line x1="140" y1="637.5" x2="900" y2="637.5" stroke="#e4e4e0" stroke-width="1"/>
<line x1="358.5" y1="96" x2="358.5" y2="856" stroke="#e4e4e0" stroke-width="1"/>
<text x="128" y="643.5" text-anchor="end" font-size="18" fill="#6b7684" font-family="Helvetica, Arial, sans-serif">-0.3</text>
<text x="358.5" y="886" text-anchor="middle" font-size="18" fill="#6b7684" font-family="Helvetica, Arial, sans-serif">-0.3</text>
<line x1="140" y1="495.0" x2="900" y2="495.0" stroke="#c9c9c4" stroke-width="1"/>
<line x1="501.0" y1="96" x2="501.0" y2="856" stroke="#c9c9c4" stroke-width="1"/>
<text x="128" y="501.0" text-anchor="end" font-size="18" fill="#6b7684" font-family="Helvetica, Arial, sans-serif">0</text>
<text x="501.0" y="886" text-anchor="middle" font-size="18" fill="#6b7684" font-family="Helvetica, Arial, sans-serif">0</text>
<line x1="140" y1="352.5" x2="900" y2="352.5" stroke="#e4e4e0" stroke-width="1"/>
<line x1="643.5" y1="96" x2="643.5" y2="856" stroke="#e4e4e0" stroke-width="1"/>
<text x="128" y="358.5" text-anchor="end" font-size="18" fill="#6b7684" font-family="Helvetica, Arial, sans-serif">0.3</text>
<text x="643.5" y="886" text-anchor="middle" font-size="18" fill="#6b7684" font-family="Helvetica, Arial, sans-serif">0.3</text>
<line x1="140" y1="210.0" x2="900" y2="210.0" stroke="#e4e4e0" stroke-width="1"/>
<line x1="786.0" y1="96" x2="786.0" y2="856" stroke="#e4e4e0" stroke-width="1"/>
<text x="128" y="216.0" text-anchor="end" font-size="18" fill="#6b7684" font-family="Helvetica, Arial, sans-serif">0.6</text>
<text x="786.0" y="886" text-anchor="middle" font-size="18" fill="#6b7684" font-family="Helvetica, Arial, sans-serif">0.6</text>
<rect x="140" y="96" width="760" height="760" fill="none" stroke="#6b7684" stroke-width="1.5"/>
<line x1="140.0" y1="856.0" x2="900.0" y2="96.0" stroke="#6b7684" stroke-width="2" stroke-dasharray="7 6"/>
<line x1="140.0" y1="799.0" x2="900.0" y2="166.0" stroke="#1a1a1a" stroke-width="3.5"/>
<circle cx="476.3" cy="519.7" r="5" fill="#2867b5" fill-opacity="0.72" stroke="white" stroke-width="1"/>
<circle cx="501.0" cy="534.6" r="5" fill="#2867b5" fill-opacity="0.72" stroke="white" stroke-width="1"/>
<circle cx="441.6" cy="633.6" r="5" fill="#2867b5" fill-opacity="0.72" stroke="white" stroke-width="1"/>
<circle cx="560.4" cy="450.4" r="5" fill="#2867b5" fill-opacity="0.72" stroke="white" stroke-width="1"/>
<circle cx="476.3" cy="499.9" r="5" fill="#2867b5" fill-opacity="0.72" stroke="white" stroke-width="1"/>
<circle cx="520.8" cy="554.4" r="5" fill="#2867b5" fill-opacity="0.72" stroke="white" stroke-width="1"/>
<circle cx="560.4" cy="396.1" r="5" fill="#2867b5" fill-opacity="0.72" stroke="white" stroke-width="1"/>
<circle cx="461.4" cy="603.9" r="5" fill="#2867b5" fill-opacity="0.72" stroke="white" stroke-width="1"/>
<circle cx="416.9" cy="499.9" r="5" fill="#2867b5" fill-opacity="0.72" stroke="white" stroke-width="1"/>
<circle cx="501.0" cy="495.0" r="5" fill="#2867b5" fill-opacity="0.72" stroke="white" stroke-width="1"/>
<circle cx="501.0" cy="455.4" r="5" fill="#2867b5" fill-opacity="0.72" stroke="white" stroke-width="1"/>
<circle cx="441.6" cy="524.7" r="5" fill="#2867b5" fill-opacity="0.72" stroke="white" stroke-width="1"/>
<circle cx="436.7" cy="579.1" r="5" fill="#2867b5" fill-opacity="0.72" stroke="white" stroke-width="1"/>
<circle cx="520.8" cy="336.7" r="5" fill="#2867b5" fill-opacity="0.72" stroke="white" stroke-width="1"/>
<circle cx="461.4" cy="574.2" r="5" fill="#2867b5" fill-opacity="0.72" stroke="white" stroke-width="1"/>
<circle cx="540.6" cy="475.2" r="5" fill="#2867b5" fill-opacity="0.72" stroke="white" stroke-width="1"/>
<circle cx="436.7" cy="539.6" r="5" fill="#2867b5" fill-opacity="0.72" stroke="white" stroke-width="1"/>
<circle cx="501.0" cy="593.9" r="5" fill="#2867b5" fill-opacity="0.72" stroke="white" stroke-width="1"/>
<circle cx="580.2" cy="356.4" r="5" fill="#2867b5" fill-opacity="0.72" stroke="white" stroke-width="1"/>
<circle cx="540.6" cy="455.4" r="5" fill="#2867b5" fill-opacity="0.72" stroke="white" stroke-width="1"/>
<circle cx="436.7" cy="519.7" r="5" fill="#2867b5" fill-opacity="0.72" stroke="white" stroke-width="1"/>
<circle cx="461.4" cy="593.9" r="5" fill="#2867b5" fill-opacity="0.72" stroke="white" stroke-width="1"/>
<circle cx="560.4" cy="435.6" r="5" fill="#2867b5" fill-opacity="0.72" stroke="white" stroke-width="1"/>
<circle cx="501.0" cy="410.9" r="5" fill="#2867b5" fill-opacity="0.72" stroke="white" stroke-width="1"/>
<circle cx="436.7" cy="539.6" r="5" fill="#2867b5" fill-opacity="0.72" stroke="white" stroke-width="1"/>
<circle cx="402.1" cy="554.4" r="5" fill="#2867b5" fill-opacity="0.72" stroke="white" stroke-width="1"/>
<circle cx="461.4" cy="495.0" r="5" fill="#2867b5" fill-opacity="0.72" stroke="white" stroke-width="1"/>
<circle cx="540.6" cy="470.3" r="5" fill="#2867b5" fill-opacity="0.72" stroke="white" stroke-width="1"/>
<circle cx="476.3" cy="499.9" r="5" fill="#2867b5" fill-opacity="0.72" stroke="white" stroke-width="1"/>
<circle cx="481.2" cy="692.9" r="5" fill="#2867b5" fill-opacity="0.72" stroke="white" stroke-width="1"/>
<circle cx="619.8" cy="435.6" r="5" fill="#2867b5" fill-opacity="0.72" stroke="white" stroke-width="1"/>
<circle cx="520.8" cy="490.1" r="5" fill="#2867b5" fill-opacity="0.72" stroke="white" stroke-width="1"/>
<circle cx="510.9" cy="485.1" r="5" fill="#2867b5" fill-opacity="0.72" stroke="white" stroke-width="1"/>
<circle cx="560.4" cy="356.4" r="5" fill="#2867b5" fill-opacity="0.72" stroke="white" stroke-width="1"/>
<circle cx="461.4" cy="613.7" r="5" fill="#2867b5" fill-opacity="0.72" stroke="white" stroke-width="1"/>
<circle cx="580.2" cy="396.1" r="5" fill="#2867b5" fill-opacity="0.72" stroke="white" stroke-width="1"/>
<circle cx="510.9" cy="504.9" r="5" fill="#2867b5" fill-opacity="0.72" stroke="white" stroke-width="1"/>
<circle cx="520.8" cy="495.0" r="5" fill="#2867b5" fill-opacity="0.72" stroke="white" stroke-width="1"/>
<circle cx="481.2" cy="435.6" r="5" fill="#2867b5" fill-opacity="0.72" stroke="white" stroke-width="1"/>
<circle cx="461.4" cy="499.9" r="5" fill="#2867b5" fill-opacity="0.72" stroke="white" stroke-width="1"/>
<circle cx="471.3" cy="564.3" r="5" fill="#2867b5" fill-opacity="0.72" stroke="white" stroke-width="1"/>
<circle cx="501.0" cy="534.6" r="5" fill="#2867b5" fill-opacity="0.72" stroke="white" stroke-width="1"/>
<circle cx="580.2" cy="475.2" r="5" fill="#2867b5" fill-opacity="0.72" stroke="white" stroke-width="1"/>
<circle cx="599.9" cy="410.9" r="5" fill="#2867b5" fill-opacity="0.72" stroke="white" stroke-width="1"/>
<circle cx="510.9" cy="524.7" r="5" fill="#2867b5" fill-opacity="0.72" stroke="white" stroke-width="1"/>
<circle cx="580.2" cy="356.4" r="5" fill="#2867b5" fill-opacity="0.72" stroke="white" stroke-width="1"/>
<circle cx="520.8" cy="514.8" r="5" fill="#2867b5" fill-opacity="0.72" stroke="white" stroke-width="1"/>
<circle cx="481.2" cy="559.3" r="5" fill="#2867b5" fill-opacity="0.72" stroke="white" stroke-width="1"/>
<circle cx="461.4" cy="495.0" r="5" fill="#2867b5" fill-opacity="0.72" stroke="white" stroke-width="1"/>
<circle cx="481.2" cy="514.8" r="5" fill="#2867b5" fill-opacity="0.72" stroke="white" stroke-width="1"/>
<circle cx="540.6" cy="495.0" r="5" fill="#2867b5" fill-opacity="0.72" stroke="white" stroke-width="1"/>
<circle cx="718.7" cy="277.3" r="5" fill="#2867b5" fill-opacity="0.72" stroke="white" stroke-width="1"/>
<circle cx="461.4" cy="554.4" r="5" fill="#2867b5" fill-opacity="0.72" stroke="white" stroke-width="1"/>
<circle cx="520.8" cy="435.6" r="5" fill="#2867b5" fill-opacity="0.72" stroke="white" stroke-width="1"/>
<circle cx="520.8" cy="534.6" r="5" fill="#2867b5" fill-opacity="0.72" stroke="white" stroke-width="1"/>
<circle cx="520.8" cy="490.1" r="5" fill="#2867b5" fill-opacity="0.72" stroke="white" stroke-width="1"/>
<circle cx="421.8" cy="574.2" r="5" fill="#2867b5" fill-opacity="0.72" stroke="white" stroke-width="1"/>
<circle cx="560.4" cy="435.6" r="5" fill="#2867b5" fill-opacity="0.72" stroke="white" stroke-width="1"/>
<circle cx="540.6" cy="475.2" r="5" fill="#2867b5" fill-opacity="0.72" stroke="white" stroke-width="1"/>
<circle cx="501.0" cy="490.1" r="5" fill="#2867b5" fill-opacity="0.72" stroke="white" stroke-width="1"/>
<circle cx="501.0" cy="415.8" r="5" fill="#2867b5" fill-opacity="0.72" stroke="white" stroke-width="1"/>
<circle cx="421.8" cy="534.6" r="5" fill="#2867b5" fill-opacity="0.72" stroke="white" stroke-width="1"/>
<circle cx="501.0" cy="534.6" r="5" fill="#2867b5" fill-opacity="0.72" stroke="white" stroke-width="1"/>
<circle cx="560.4" cy="396.1" r="5" fill="#2867b5" fill-opacity="0.72" stroke="white" stroke-width="1"/>
<circle cx="447.0" cy="563.1" r="5" fill="#2867b5" fill-opacity="0.72" stroke="white" stroke-width="1"/>
<circle cx="554.7" cy="498.9" r="5" fill="#2867b5" fill-opacity="0.72" stroke="white" stroke-width="1"/>
<circle cx="499.3" cy="457.1" r="5" fill="#2867b5" fill-opacity="0.72" stroke="white" stroke-width="1"/>
<circle cx="540.6" cy="483.2" r="5" fill="#2867b5" fill-opacity="0.72" stroke="white" stroke-width="1"/>
<circle cx="486.6" cy="500.4" r="5" fill="#2867b5" fill-opacity="0.72" stroke="white" stroke-width="1"/>
<circle cx="492.0" cy="520.4" r="5" fill="#2867b5" fill-opacity="0.72" stroke="white" stroke-width="1"/>
<circle cx="477.8" cy="518.2" r="5" fill="#2867b5" fill-opacity="0.72" stroke="white" stroke-width="1"/>
<circle cx="501.0" cy="524.7" r="5" fill="#2867b5" fill-opacity="0.72" stroke="white" stroke-width="1"/>
<circle cx="444.1" cy="571.6" r="5" fill="#2867b5" fill-opacity="0.72" stroke="white" stroke-width="1"/>
<circle cx="481.2" cy="514.8" r="5" fill="#2867b5" fill-opacity="0.72" stroke="white" stroke-width="1"/>
<circle cx="520.8" cy="495.0" r="5" fill="#2867b5" fill-opacity="0.72" stroke="white" stroke-width="1"/>
<circle cx="520.8" cy="469.8" r="5" fill="#2867b5" fill-opacity="0.72" stroke="white" stroke-width="1"/>
<circle cx="444.1" cy="551.9" r="5" fill="#2867b5" fill-opacity="0.72" stroke="white" stroke-width="1"/>
<circle cx="481.2" cy="554.4" r="5" fill="#2867b5" fill-opacity="0.72" stroke="white" stroke-width="1"/>
<circle cx="560.4" cy="475.2" r="5" fill="#2867b5" fill-opacity="0.72" stroke="white" stroke-width="1"/>
<circle cx="481.2" cy="485.1" r="5" fill="#2867b5" fill-opacity="0.72" stroke="white" stroke-width="1"/>
<circle cx="469.0" cy="487.4" r="5" fill="#2867b5" fill-opacity="0.72" stroke="white" stroke-width="1"/>
<circle cx="619.8" cy="455.4" r="5" fill="#2867b5" fill-opacity="0.72" stroke="white" stroke-width="1"/>
<circle cx="639.6" cy="415.8" r="5" fill="#2867b5" fill-opacity="0.72" stroke="white" stroke-width="1"/>
<circle cx="599.9" cy="351.5" r="5" fill="#2867b5" fill-opacity="0.72" stroke="white" stroke-width="1"/>
<circle cx="426.8" cy="588.1" r="5" fill="#2867b5" fill-opacity="0.72" stroke="white" stroke-width="1"/>
<circle cx="500.1" cy="515.7" r="5" fill="#2867b5" fill-opacity="0.72" stroke="white" stroke-width="1"/>
<circle cx="520.8" cy="495.0" r="5" fill="#2867b5" fill-opacity="0.72" stroke="white" stroke-width="1"/>
<circle cx="520.8" cy="495.0" r="5" fill="#2867b5" fill-opacity="0.72" stroke="white" stroke-width="1"/>
<circle cx="579.1" cy="400.7" r="5" fill="#2867b5" fill-opacity="0.72" stroke="white" stroke-width="1"/>
<circle cx="366.1" cy="570.6" r="5" fill="#2867b5" fill-opacity="0.72" stroke="white" stroke-width="1"/>
<circle cx="421.8" cy="554.4" r="5" fill="#2867b5" fill-opacity="0.72" stroke="white" stroke-width="1"/>
<circle cx="481.2" cy="482.9" r="5" fill="#2867b5" fill-opacity="0.72" stroke="white" stroke-width="1"/>
<circle cx="432.7" cy="563.3" r="5" fill="#2867b5" fill-opacity="0.72" stroke="white" stroke-width="1"/>
<circle cx="481.2" cy="492.4" r="5" fill="#2867b5" fill-opacity="0.72" stroke="white" stroke-width="1"/>
<circle cx="518.2" cy="497.6" r="5" fill="#2867b5" fill-opacity="0.72" stroke="white" stroke-width="1"/>
<circle cx="540.6" cy="465.3" r="5" fill="#2867b5" fill-opacity="0.72" stroke="white" stroke-width="1"/>
<circle cx="466.4" cy="526.2" r="5" fill="#2867b5" fill-opacity="0.72" stroke="white" stroke-width="1"/>
<circle cx="497.6" cy="498.4" r="5" fill="#2867b5" fill-opacity="0.72" stroke="white" stroke-width="1"/>
<circle cx="481.2" cy="554.4" r="5" fill="#2867b5" fill-opacity="0.72" stroke="white" stroke-width="1"/>
<circle cx="580.2" cy="445.5" r="5" fill="#2867b5" fill-opacity="0.72" stroke="white" stroke-width="1"/>
<circle cx="638.5" cy="481.9" r="5" fill="#2867b5" fill-opacity="0.72" stroke="white" stroke-width="1"/>
<circle cx="546.2" cy="449.8" r="5" fill="#2867b5" fill-opacity="0.72" stroke="white" stroke-width="1"/>
<circle cx="580.2" cy="396.1" r="5" fill="#2867b5" fill-opacity="0.72" stroke="white" stroke-width="1"/>
<circle cx="619.8" cy="425.7" r="5" fill="#2867b5" fill-opacity="0.72" stroke="white" stroke-width="1"/>
<circle cx="453.8" cy="517.2" r="5" fill="#2867b5" fill-opacity="0.72" stroke="white" stroke-width="1"/>
<circle cx="515.6" cy="539.7" r="5" fill="#2867b5" fill-opacity="0.72" stroke="white" stroke-width="1"/>
<circle cx="619.8" cy="470.9" r="5" fill="#2867b5" fill-opacity="0.72" stroke="white" stroke-width="1"/>
<circle cx="595.7" cy="479.5" r="5" fill="#2867b5" fill-opacity="0.72" stroke="white" stroke-width="1"/>
<circle cx="599.9" cy="396.1" r="5" fill="#2867b5" fill-opacity="0.72" stroke="white" stroke-width="1"/>
<circle cx="599.9" cy="455.4" r="5" fill="#2867b5" fill-opacity="0.72" stroke="white" stroke-width="1"/>
<circle cx="560.4" cy="396.1" r="5" fill="#2867b5" fill-opacity="0.72" stroke="white" stroke-width="1"/>
<circle cx="441.6" cy="584.1" r="5" fill="#2867b5" fill-opacity="0.72" stroke="white" stroke-width="1"/>
<circle cx="536.1" cy="390.2" r="5" fill="#2867b5" fill-opacity="0.72" stroke="white" stroke-width="1"/>
<circle cx="490.7" cy="564.7" r="5" fill="#2867b5" fill-opacity="0.72" stroke="white" stroke-width="1"/>
<circle cx="560.4" cy="376.2" r="5" fill="#2867b5" fill-opacity="0.72" stroke="white" stroke-width="1"/>
<circle cx="501.0" cy="554.4" r="5" fill="#2867b5" fill-opacity="0.72" stroke="white" stroke-width="1"/>
<circle cx="580.2" cy="396.1" r="5" fill="#2867b5" fill-opacity="0.72" stroke="white" stroke-width="1"/>
<circle cx="520.8" cy="415.8" r="5" fill="#2867b5" fill-opacity="0.72" stroke="white" stroke-width="1"/>
<circle cx="441.6" cy="554.4" r="5" fill="#2867b5" fill-opacity="0.72" stroke="white" stroke-width="1"/>
<circle cx="560.4" cy="435.6" r="5" fill="#2867b5" fill-opacity="0.72" stroke="white" stroke-width="1"/>
<circle cx="461.4" cy="613.7" r="5" fill="#2867b5" fill-opacity="0.72" stroke="white" stroke-width="1"/>
<circle cx="382.2" cy="593.9" r="5" fill="#2867b5" fill-opacity="0.72" stroke="white" stroke-width="1"/>
<circle cx="402.1" cy="574.2" r="5" fill="#2867b5" fill-opacity="0.72" stroke="white" stroke-width="1"/>
<circle cx="421.8" cy="589.0" r="5" fill="#2867b5" fill-opacity="0.72" stroke="white" stroke-width="1"/>
<circle cx="501.0" cy="495.0" r="5" fill="#2867b5" fill-opacity="0.72" stroke="white" stroke-width="1"/>
<circle cx="501.0" cy="495.0" r="5" fill="#2867b5" fill-opacity="0.72" stroke="white" stroke-width="1"/>
<circle cx="501.0" cy="495.0" r="5" fill="#2867b5" fill-opacity="0.72" stroke="white" stroke-width="1"/>
<circle cx="501.0" cy="495.0" r="5" fill="#2867b5" fill-opacity="0.72" stroke="white" stroke-width="1"/>
<circle cx="473.6" cy="482.8" r="5" fill="#2867b5" fill-opacity="0.72" stroke="white" stroke-width="1"/>
<circle cx="540.6" cy="613.7" r="5" fill="#2867b5" fill-opacity="0.72" stroke="white" stroke-width="1"/>
<circle cx="599.9" cy="356.4" r="5" fill="#2867b5" fill-opacity="0.72" stroke="white" stroke-width="1"/>
<circle cx="421.8" cy="574.2" r="5" fill="#2867b5" fill-opacity="0.72" stroke="white" stroke-width="1"/>
<circle cx="441.6" cy="593.9" r="5" fill="#2867b5" fill-opacity="0.72" stroke="white" stroke-width="1"/>
<circle cx="540.6" cy="495.0" r="5" fill="#2867b5" fill-opacity="0.72" stroke="white" stroke-width="1"/>
<circle cx="520.8" cy="475.2" r="5" fill="#2867b5" fill-opacity="0.72" stroke="white" stroke-width="1"/>
<circle cx="481.2" cy="514.8" r="5" fill="#2867b5" fill-opacity="0.72" stroke="white" stroke-width="1"/>
<circle cx="536.1" cy="434.4" r="5" fill="#2867b5" fill-opacity="0.72" stroke="white" stroke-width="1"/>
<circle cx="574.5" cy="401.7" r="5" fill="#2867b5" fill-opacity="0.72" stroke="white" stroke-width="1"/>
<circle cx="560.4" cy="534.6" r="5" fill="#2867b5" fill-opacity="0.72" stroke="white" stroke-width="1"/>
<circle cx="560.4" cy="475.2" r="5" fill="#2867b5" fill-opacity="0.72" stroke="white" stroke-width="1"/>
<circle cx="520.8" cy="574.2" r="5" fill="#2867b5" fill-opacity="0.72" stroke="white" stroke-width="1"/>
<circle cx="639.6" cy="376.2" r="5" fill="#2867b5" fill-opacity="0.72" stroke="white" stroke-width="1"/>
<circle cx="639.6" cy="336.7" r="5" fill="#2867b5" fill-opacity="0.72" stroke="white" stroke-width="1"/>
<circle cx="501.0" cy="495.0" r="5" fill="#2867b5" fill-opacity="0.72" stroke="white" stroke-width="1"/>
<circle cx="473.6" cy="542.2" r="5" fill="#2867b5" fill-opacity="0.72" stroke="white" stroke-width="1"/>
<circle cx="501.0" cy="514.8" r="5" fill="#2867b5" fill-opacity="0.72" stroke="white" stroke-width="1"/>
<circle cx="520.8" cy="514.8" r="5" fill="#2867b5" fill-opacity="0.72" stroke="white" stroke-width="1"/>
<circle cx="501.0" cy="534.6" r="5" fill="#2867b5" fill-opacity="0.72" stroke="white" stroke-width="1"/>
<circle cx="560.4" cy="514.8" r="5" fill="#2867b5" fill-opacity="0.72" stroke="white" stroke-width="1"/>
<circle cx="619.8" cy="415.8" r="5" fill="#2867b5" fill-opacity="0.72" stroke="white" stroke-width="1"/>
<circle cx="520.8" cy="534.6" r="5" fill="#2867b5" fill-opacity="0.72" stroke="white" stroke-width="1"/>
<circle cx="520.8" cy="484.6" r="5" fill="#2867b5" fill-opacity="0.72" stroke="white" stroke-width="1"/>
<circle cx="536.1" cy="452.2" r="5" fill="#2867b5" fill-opacity="0.72" stroke="white" stroke-width="1"/>
<circle cx="493.3" cy="482.9" r="5" fill="#2867b5" fill-opacity="0.72" stroke="white" stroke-width="1"/>
<circle cx="599.9" cy="403.8" r="5" fill="#2867b5" fill-opacity="0.72" stroke="white" stroke-width="1"/>
<circle cx="587.9" cy="447.7" r="5" fill="#2867b5" fill-opacity="0.72" stroke="white" stroke-width="1"/>
<circle cx="599.9" cy="376.2" r="5" fill="#2867b5" fill-opacity="0.72" stroke="white" stroke-width="1"/>
<circle cx="481.2" cy="534.6" r="5" fill="#2867b5" fill-opacity="0.72" stroke="white" stroke-width="1"/>
<circle cx="520.8" cy="435.6" r="5" fill="#2867b5" fill-opacity="0.72" stroke="white" stroke-width="1"/>
<circle cx="461.4" cy="524.7" r="5" fill="#2867b5" fill-opacity="0.72" stroke="white" stroke-width="1"/>
<circle cx="473.6" cy="502.6" r="5" fill="#2867b5" fill-opacity="0.72" stroke="white" stroke-width="1"/>
<circle cx="501.0" cy="534.6" r="5" fill="#2867b5" fill-opacity="0.72" stroke="white" stroke-width="1"/>
<circle cx="441.6" cy="593.9" r="5" fill="#2867b5" fill-opacity="0.72" stroke="white" stroke-width="1"/>
<circle cx="580.2" cy="455.4" r="5" fill="#2867b5" fill-opacity="0.72" stroke="white" stroke-width="1"/>
<circle cx="560.4" cy="376.2" r="5" fill="#2867b5" fill-opacity="0.72" stroke="white" stroke-width="1"/>
<circle cx="501.0" cy="455.4" r="5" fill="#2867b5" fill-opacity="0.72" stroke="white" stroke-width="1"/>
<circle cx="441.6" cy="633.6" r="5" fill="#2867b5" fill-opacity="0.72" stroke="white" stroke-width="1"/>
<circle cx="599.9" cy="445.5" r="5" fill="#2867b5" fill-opacity="0.72" stroke="white" stroke-width="1"/>
<circle cx="536.1" cy="499.5" r="5" fill="#2867b5" fill-opacity="0.72" stroke="white" stroke-width="1"/>
<circle cx="461.4" cy="534.6" r="5" fill="#2867b5" fill-opacity="0.72" stroke="white" stroke-width="1"/>
<circle cx="501.0" cy="455.4" r="5" fill="#2867b5" fill-opacity="0.72" stroke="white" stroke-width="1"/>
<circle cx="520.8" cy="435.6" r="5" fill="#2867b5" fill-opacity="0.72" stroke="white" stroke-width="1"/>
<circle cx="520.8" cy="435.6" r="5" fill="#2867b5" fill-opacity="0.72" stroke="white" stroke-width="1"/>
<circle cx="560.4" cy="435.6" r="5" fill="#2867b5" fill-opacity="0.72" stroke="white" stroke-width="1"/>
<circle cx="421.8" cy="514.8" r="5" fill="#2867b5" fill-opacity="0.72" stroke="white" stroke-width="1"/>
<circle cx="580.2" cy="401.0" r="5" fill="#2867b5" fill-opacity="0.72" stroke="white" stroke-width="1"/>
<circle cx="473.6" cy="482.8" r="5" fill="#2867b5" fill-opacity="0.72" stroke="white" stroke-width="1"/>
<circle cx="382.2" cy="593.9" r="5" fill="#2867b5" fill-opacity="0.72" stroke="white" stroke-width="1"/>
<circle cx="481.2" cy="514.8" r="5" fill="#2867b5" fill-opacity="0.72" stroke="white" stroke-width="1"/>
<circle cx="461.4" cy="534.6" r="5" fill="#2867b5" fill-opacity="0.72" stroke="white" stroke-width="1"/>
<circle cx="501.0" cy="475.2" r="5" fill="#2867b5" fill-opacity="0.72" stroke="white" stroke-width="1"/>
<circle cx="481.2" cy="514.8" r="5" fill="#2867b5" fill-opacity="0.72" stroke="white" stroke-width="1"/>
<circle cx="501.0" cy="495.0" r="5" fill="#2867b5" fill-opacity="0.72" stroke="white" stroke-width="1"/>
<circle cx="501.0" cy="495.0" r="5" fill="#2867b5" fill-opacity="0.72" stroke="white" stroke-width="1"/>
<circle cx="536.1" cy="452.2" r="5" fill="#2867b5" fill-opacity="0.72" stroke="white" stroke-width="1"/>
<circle cx="453.7" cy="522.5" r="5" fill="#2867b5" fill-opacity="0.72" stroke="white" stroke-width="1"/>
<circle cx="461.4" cy="574.2" r="5" fill="#2867b5" fill-opacity="0.72" stroke="white" stroke-width="1"/>
<circle cx="580.2" cy="466.2" r="5" fill="#2867b5" fill-opacity="0.72" stroke="white" stroke-width="1"/>
<circle cx="571.2" cy="504.0" r="5" fill="#2867b5" fill-opacity="0.72" stroke="white" stroke-width="1"/>
<circle cx="619.8" cy="495.0" r="5" fill="#2867b5" fill-opacity="0.72" stroke="white" stroke-width="1"/>
<circle cx="679.1" cy="455.4" r="5" fill="#2867b5" fill-opacity="0.72" stroke="white" stroke-width="1"/>
<circle cx="619.8" cy="448.5" r="5" fill="#2867b5" fill-opacity="0.72" stroke="white" stroke-width="1"/>
<circle cx="475.9" cy="617.3" r="5" fill="#2867b5" fill-opacity="0.72" stroke="white" stroke-width="1"/>
<circle cx="558.7" cy="496.7" r="5" fill="#2867b5" fill-opacity="0.72" stroke="white" stroke-width="1"/>
<circle cx="540.6" cy="455.4" r="5" fill="#2867b5" fill-opacity="0.72" stroke="white" stroke-width="1"/>
<circle cx="540.6" cy="396.1" r="5" fill="#2867b5" fill-opacity="0.72" stroke="white" stroke-width="1"/>
<circle cx="560.4" cy="475.2" r="5" fill="#2867b5" fill-opacity="0.72" stroke="white" stroke-width="1"/>
<circle cx="599.9" cy="356.4" r="5" fill="#2867b5" fill-opacity="0.72" stroke="white" stroke-width="1"/>
<circle cx="481.2" cy="455.4" r="5" fill="#2867b5" fill-opacity="0.72" stroke="white" stroke-width="1"/>
<circle cx="461.4" cy="514.8" r="5" fill="#2867b5" fill-opacity="0.72" stroke="white" stroke-width="1"/>
<circle cx="634.6" cy="280.3" r="5" fill="#2867b5" fill-opacity="0.72" stroke="white" stroke-width="1"/>
<circle cx="453.7" cy="494.7" r="5" fill="#2867b5" fill-opacity="0.72" stroke="white" stroke-width="1"/>
<circle cx="476.0" cy="448.6" r="5" fill="#2867b5" fill-opacity="0.72" stroke="white" stroke-width="1"/>
<circle cx="546.0" cy="431.8" r="5" fill="#2867b5" fill-opacity="0.72" stroke="white" stroke-width="1"/>
<circle cx="636.9" cy="279.9" r="5" fill="#2867b5" fill-opacity="0.72" stroke="white" stroke-width="1"/>
<circle cx="431.3" cy="495.0" r="5" fill="#2867b5" fill-opacity="0.72" stroke="white" stroke-width="1"/>
<circle cx="556.9" cy="439.0" r="5" fill="#2867b5" fill-opacity="0.72" stroke="white" stroke-width="1"/>
<circle cx="462.2" cy="335.9" r="5" fill="#2867b5" fill-opacity="0.72" stroke="white" stroke-width="1"/>
<circle cx="650.1" cy="234.5" r="5" fill="#2867b5" fill-opacity="0.72" stroke="white" stroke-width="1"/>
<circle cx="385.1" cy="492.5" r="5" fill="#2867b5" fill-opacity="0.72" stroke="white" stroke-width="1"/>
<circle cx="614.1" cy="233.7" r="5" fill="#2867b5" fill-opacity="0.72" stroke="white" stroke-width="1"/>
<circle cx="345.6" cy="503.5" r="5" fill="#2867b5" fill-opacity="0.72" stroke="white" stroke-width="1"/>
<circle cx="625.5" cy="336.6" r="5" fill="#2867b5" fill-opacity="0.72" stroke="white" stroke-width="1"/>
<circle cx="524.8" cy="389.7" r="5" fill="#2867b5" fill-opacity="0.72" stroke="white" stroke-width="1"/>
<circle cx="638.6" cy="251.8" r="5" fill="#2867b5" fill-opacity="0.72" stroke="white" stroke-width="1"/>
<circle cx="432.6" cy="514.0" r="5" fill="#2867b5" fill-opacity="0.72" stroke="white" stroke-width="1"/>
<circle cx="380.3" cy="506.6" r="5" fill="#2867b5" fill-opacity="0.72" stroke="white" stroke-width="1"/>
<circle cx="314.7" cy="694.4" r="5" fill="#2867b5" fill-opacity="0.72" stroke="white" stroke-width="1"/>
<circle cx="474.5" cy="548.4" r="5" fill="#2867b5" fill-opacity="0.72" stroke="white" stroke-width="1"/>
<circle cx="527.9" cy="547.8" r="5" fill="#2867b5" fill-opacity="0.72" stroke="white" stroke-width="1"/>
<circle cx="337.8" cy="664.5" r="5" fill="#2867b5" fill-opacity="0.72" stroke="white" stroke-width="1"/>
<circle cx="473.3" cy="641.3" r="5" fill="#2867b5" fill-opacity="0.72" stroke="white" stroke-width="1"/>
<circle cx="619.6" cy="495.0" r="5" fill="#2867b5" fill-opacity="0.72" stroke="white" stroke-width="1"/>
<circle cx="659.2" cy="495.0" r="5" fill="#2867b5" fill-opacity="0.72" stroke="white" stroke-width="1"/>
<circle cx="378.1" cy="606.7" r="5" fill="#2867b5" fill-opacity="0.72" stroke="white" stroke-width="1"/>
<circle cx="453.5" cy="553.7" r="5" fill="#2867b5" fill-opacity="0.72" stroke="white" stroke-width="1"/>
<circle cx="511.7" cy="495.0" r="5" fill="#2867b5" fill-opacity="0.72" stroke="white" stroke-width="1"/>
<circle cx="511.7" cy="495.0" r="5" fill="#2867b5" fill-opacity="0.72" stroke="white" stroke-width="1"/>
<circle cx="505.7" cy="551.8" r="5" fill="#2867b5" fill-opacity="0.72" stroke="white" stroke-width="1"/>
<circle cx="558.2" cy="448.5" r="5" fill="#2867b5" fill-opacity="0.72" stroke="white" stroke-width="1"/>
<circle cx="511.7" cy="495.0" r="5" fill="#2867b5" fill-opacity="0.72" stroke="white" stroke-width="1"/>
<circle cx="511.7" cy="495.0" r="5" fill="#2867b5" fill-opacity="0.72" stroke="white" stroke-width="1"/>
<circle cx="392.0" cy="787.9" r="5" fill="#2867b5" fill-opacity="0.72" stroke="white" stroke-width="1"/>
<circle cx="684.9" cy="403.8" r="5" fill="#2867b5" fill-opacity="0.72" stroke="white" stroke-width="1"/>
<circle cx="554.2" cy="600.0" r="5" fill="#2867b5" fill-opacity="0.72" stroke="white" stroke-width="1"/>
<circle cx="659.2" cy="495.0" r="5" fill="#2867b5" fill-opacity="0.72" stroke="white" stroke-width="1"/>
<circle cx="508.2" cy="496.0" r="5" fill="#2867b5" fill-opacity="0.72" stroke="white" stroke-width="1"/>
<circle cx="511.7" cy="495.0" r="5" fill="#2867b5" fill-opacity="0.72" stroke="white" stroke-width="1"/>
<circle cx="511.7" cy="495.0" r="5" fill="#2867b5" fill-opacity="0.72" stroke="white" stroke-width="1"/>
<circle cx="511.7" cy="495.0" r="5" fill="#2867b5" fill-opacity="0.72" stroke="white" stroke-width="1"/>
<circle cx="510.7" cy="496.0" r="5" fill="#2867b5" fill-opacity="0.72" stroke="white" stroke-width="1"/>
<circle cx="511.7" cy="495.0" r="5" fill="#2867b5" fill-opacity="0.72" stroke="white" stroke-width="1"/>
<circle cx="511.7" cy="495.0" r="5" fill="#2867b5" fill-opacity="0.72" stroke="white" stroke-width="1"/>
<circle cx="511.7" cy="495.0" r="5" fill="#2867b5" fill-opacity="0.72" stroke="white" stroke-width="1"/>
<circle cx="481.2" cy="608.3" r="5" fill="#3a7d44" fill-opacity="0.72" stroke="white" stroke-width="1"/>
<circle cx="555.0" cy="401.4" r="5" fill="#3a7d44" fill-opacity="0.72" stroke="white" stroke-width="1"/>
<circle cx="461.4" cy="613.7" r="5" fill="#3a7d44" fill-opacity="0.72" stroke="white" stroke-width="1"/>
<circle cx="560.4" cy="432.1" r="5" fill="#3a7d44" fill-opacity="0.72" stroke="white" stroke-width="1"/>
<circle cx="481.2" cy="514.8" r="5" fill="#3a7d44" fill-opacity="0.72" stroke="white" stroke-width="1"/>
<circle cx="520.8" cy="475.2" r="5" fill="#3a7d44" fill-opacity="0.72" stroke="white" stroke-width="1"/>
<circle cx="501.0" cy="495.0" r="5" fill="#3a7d44" fill-opacity="0.72" stroke="white" stroke-width="1"/>
<circle cx="501.0" cy="495.0" r="5" fill="#3a7d44" fill-opacity="0.72" stroke="white" stroke-width="1"/>
<circle cx="441.6" cy="600.8" r="5" fill="#3a7d44" fill-opacity="0.72" stroke="white" stroke-width="1"/>
<circle cx="468.3" cy="606.9" r="5" fill="#3a7d44" fill-opacity="0.72" stroke="white" stroke-width="1"/>
<circle cx="639.6" cy="390.6" r="5" fill="#3a7d44" fill-opacity="0.72" stroke="white" stroke-width="1"/>
<circle cx="515.4" cy="542.3" r="5" fill="#3a7d44" fill-opacity="0.72" stroke="white" stroke-width="1"/>
<circle cx="402.1" cy="673.1" r="5" fill="#3a7d44" fill-opacity="0.72" stroke="white" stroke-width="1"/>
<circle cx="520.8" cy="502.7" r="5" fill="#3a7d44" fill-opacity="0.72" stroke="white" stroke-width="1"/>
<circle cx="449.4" cy="503.5" r="5" fill="#3a7d44" fill-opacity="0.72" stroke="white" stroke-width="1"/>
<circle cx="477.6" cy="513.4" r="5" fill="#3a7d44" fill-opacity="0.72" stroke="white" stroke-width="1"/>
<circle cx="446.6" cy="581.8" r="5" fill="#3a7d44" fill-opacity="0.72" stroke="white" stroke-width="1"/>
<circle cx="474.0" cy="581.4" r="5" fill="#3a7d44" fill-opacity="0.72" stroke="white" stroke-width="1"/>
<circle cx="501.0" cy="475.2" r="5" fill="#3a7d44" fill-opacity="0.72" stroke="white" stroke-width="1"/>
<circle cx="580.2" cy="497.3" r="5" fill="#3a7d44" fill-opacity="0.72" stroke="white" stroke-width="1"/>
<circle cx="421.8" cy="534.6" r="5" fill="#3a7d44" fill-opacity="0.72" stroke="white" stroke-width="1"/>
<circle cx="342.7" cy="613.7" r="5" fill="#3a7d44" fill-opacity="0.72" stroke="white" stroke-width="1"/>
<circle cx="501.0" cy="415.8" r="5" fill="#3a7d44" fill-opacity="0.72" stroke="white" stroke-width="1"/>
<circle cx="441.6" cy="535.8" r="5" fill="#3a7d44" fill-opacity="0.72" stroke="white" stroke-width="1"/>
<circle cx="606.4" cy="400.9" r="5" fill="#3a7d44" fill-opacity="0.72" stroke="white" stroke-width="1"/>
<circle cx="512.2" cy="433.1" r="5" fill="#3a7d44" fill-opacity="0.72" stroke="white" stroke-width="1"/>
<circle cx="489.8" cy="618.9" r="5" fill="#3a7d44" fill-opacity="0.72" stroke="white" stroke-width="1"/>
<circle cx="594.0" cy="421.8" r="5" fill="#3a7d44" fill-opacity="0.72" stroke="white" stroke-width="1"/>
<circle cx="635.5" cy="400.0" r="5" fill="#3a7d44" fill-opacity="0.72" stroke="white" stroke-width="1"/>
<circle cx="540.6" cy="475.2" r="5" fill="#3a7d44" fill-opacity="0.72" stroke="white" stroke-width="1"/>
<circle cx="520.8" cy="475.2" r="5" fill="#3a7d44" fill-opacity="0.72" stroke="white" stroke-width="1"/>
<circle cx="540.6" cy="530.0" r="5" fill="#3a7d44" fill-opacity="0.72" stroke="white" stroke-width="1"/>
<circle cx="682.1" cy="391.0" r="5" fill="#3a7d44" fill-opacity="0.72" stroke="white" stroke-width="1"/>
<circle cx="558.3" cy="437.7" r="5" fill="#3a7d44" fill-opacity="0.72" stroke="white" stroke-width="1"/>
<circle cx="540.6" cy="415.8" r="5" fill="#3a7d44" fill-opacity="0.72" stroke="white" stroke-width="1"/>
<circle cx="421.8" cy="608.8" r="5" fill="#3a7d44" fill-opacity="0.72" stroke="white" stroke-width="1"/>
<circle cx="502.7" cy="475.3" r="5" fill="#3a7d44" fill-opacity="0.72" stroke="white" stroke-width="1"/>
<circle cx="542.4" cy="421.8" r="5" fill="#3a7d44" fill-opacity="0.72" stroke="white" stroke-width="1"/>
<circle cx="488.9" cy="566.4" r="5" fill="#3a7d44" fill-opacity="0.72" stroke="white" stroke-width="1"/>
<circle cx="481.2" cy="509.8" r="5" fill="#3a7d44" fill-opacity="0.72" stroke="white" stroke-width="1"/>
<circle cx="179.4" cy="625.6" r="5" fill="#3a7d44" fill-opacity="0.72" stroke="white" stroke-width="1"/>
<circle cx="290.2" cy="536.3" r="5" fill="#3a7d44" fill-opacity="0.72" stroke="white" stroke-width="1"/>
<circle cx="291.9" cy="585.3" r="5" fill="#3a7d44" fill-opacity="0.72" stroke="white" stroke-width="1"/>
<circle cx="382.2" cy="509.8" r="5" fill="#3a7d44" fill-opacity="0.72" stroke="white" stroke-width="1"/>
<circle cx="303.1" cy="613.7" r="5" fill="#3a7d44" fill-opacity="0.72" stroke="white" stroke-width="1"/>
<circle cx="263.5" cy="633.6" r="5" fill="#3a7d44" fill-opacity="0.72" stroke="white" stroke-width="1"/>
<circle cx="362.4" cy="613.7" r="5" fill="#3a7d44" fill-opacity="0.72" stroke="white" stroke-width="1"/>
<circle cx="540.6" cy="363.9" r="5" fill="#3a7d44" fill-opacity="0.72" stroke="white" stroke-width="1"/>
<circle cx="242.8" cy="792.8" r="5" fill="#3a7d44" fill-opacity="0.72" stroke="white" stroke-width="1"/>
<circle cx="506.0" cy="495.0" r="5" fill="#3a7d44" fill-opacity="0.72" stroke="white" stroke-width="1"/>
<circle cx="511.3" cy="495.0" r="5" fill="#3a7d44" fill-opacity="0.72" stroke="white" stroke-width="1"/>
<circle cx="511.3" cy="495.0" r="5" fill="#3a7d44" fill-opacity="0.72" stroke="white" stroke-width="1"/>
<circle cx="222.1" cy="792.8" r="5" fill="#3a7d44" fill-opacity="0.72" stroke="white" stroke-width="1"/>
<circle cx="501.0" cy="495.0" r="5" fill="#3a7d44" fill-opacity="0.72" stroke="white" stroke-width="1"/>
<circle cx="501.0" cy="495.0" r="5" fill="#3a7d44" fill-opacity="0.72" stroke="white" stroke-width="1"/>
<circle cx="501.0" cy="495.0" r="5" fill="#3a7d44" fill-opacity="0.72" stroke="white" stroke-width="1"/>
<circle cx="369.2" cy="600.2" r="5" fill="#3a7d44" fill-opacity="0.72" stroke="white" stroke-width="1"/>
<circle cx="395.1" cy="600.9" r="5" fill="#3a7d44" fill-opacity="0.72" stroke="white" stroke-width="1"/>
<circle cx="501.0" cy="495.0" r="5" fill="#3a7d44" fill-opacity="0.72" stroke="white" stroke-width="1"/>
<circle cx="501.1" cy="495.0" r="5" fill="#3a7d44" fill-opacity="0.72" stroke="white" stroke-width="1"/>
<circle cx="448.2" cy="600.3" r="5" fill="#3a7d44" fill-opacity="0.72" stroke="white" stroke-width="1"/>
<circle cx="434.8" cy="495.3" r="5" fill="#3a7d44" fill-opacity="0.72" stroke="white" stroke-width="1"/>
<circle cx="448.8" cy="600.5" r="5" fill="#3a7d44" fill-opacity="0.72" stroke="white" stroke-width="1"/>
<circle cx="554.9" cy="495.0" r="5" fill="#3a7d44" fill-opacity="0.72" stroke="white" stroke-width="1"/>
<circle cx="680.9" cy="315.1" r="5" fill="#b5342c" fill-opacity="0.72" stroke="white" stroke-width="1"/>
<circle cx="580.2" cy="415.8" r="5" fill="#b5342c" fill-opacity="0.72" stroke="white" stroke-width="1"/>
<circle cx="520.8" cy="475.2" r="5" fill="#b5342c" fill-opacity="0.72" stroke="white" stroke-width="1"/>
<circle cx="421.8" cy="579.1" r="5" fill="#b5342c" fill-opacity="0.72" stroke="white" stroke-width="1"/>
<circle cx="741.3" cy="320.9" r="5" fill="#b5342c" fill-opacity="0.72" stroke="white" stroke-width="1"/>
<circle cx="606.8" cy="349.6" r="5" fill="#b5342c" fill-opacity="0.72" stroke="white" stroke-width="1"/>
<circle cx="461.4" cy="495.0" r="5" fill="#b5342c" fill-opacity="0.72" stroke="white" stroke-width="1"/>
<circle cx="501.0" cy="504.9" r="5" fill="#b5342c" fill-opacity="0.72" stroke="white" stroke-width="1"/>
<circle cx="734.6" cy="307.0" r="5" fill="#b5342c" fill-opacity="0.72" stroke="white" stroke-width="1"/>
<circle cx="625.8" cy="370.2" r="5" fill="#b5342c" fill-opacity="0.72" stroke="white" stroke-width="1"/>
<circle cx="520.8" cy="475.2" r="5" fill="#b5342c" fill-opacity="0.72" stroke="white" stroke-width="1"/>
<circle cx="501.0" cy="495.0" r="5" fill="#b5342c" fill-opacity="0.72" stroke="white" stroke-width="1"/>
<circle cx="759.2" cy="256.6" r="5" fill="#b5342c" fill-opacity="0.72" stroke="white" stroke-width="1"/>
<circle cx="619.8" cy="435.6" r="5" fill="#b5342c" fill-opacity="0.72" stroke="white" stroke-width="1"/>
<circle cx="580.2" cy="415.8" r="5" fill="#b5342c" fill-opacity="0.72" stroke="white" stroke-width="1"/>
<circle cx="501.0" cy="495.0" r="5" fill="#b5342c" fill-opacity="0.72" stroke="white" stroke-width="1"/>
<circle cx="810.5" cy="165.7" r="5" fill="#b5342c" fill-opacity="0.72" stroke="white" stroke-width="1"/>
<circle cx="501.0" cy="495.0" r="5" fill="#b5342c" fill-opacity="0.72" stroke="white" stroke-width="1"/>
<circle cx="501.0" cy="495.0" r="5" fill="#b5342c" fill-opacity="0.72" stroke="white" stroke-width="1"/>
<circle cx="501.0" cy="500.0" r="5" fill="#b5342c" fill-opacity="0.72" stroke="white" stroke-width="1"/>
<circle cx="827.9" cy="168.1" r="5" fill="#b5342c" fill-opacity="0.72" stroke="white" stroke-width="1"/>
<circle cx="501.0" cy="495.0" r="5" fill="#b5342c" fill-opacity="0.72" stroke="white" stroke-width="1"/>
<circle cx="501.0" cy="514.8" r="5" fill="#b5342c" fill-opacity="0.72" stroke="white" stroke-width="1"/>
<circle cx="520.8" cy="475.2" r="5" fill="#b5342c" fill-opacity="0.72" stroke="white" stroke-width="1"/>
<circle cx="784.0" cy="231.8" r="5" fill="#b5342c" fill-opacity="0.72" stroke="white" stroke-width="1"/>
<circle cx="540.6" cy="455.4" r="5" fill="#b5342c" fill-opacity="0.72" stroke="white" stroke-width="1"/>
<circle cx="501.0" cy="495.0" r="5" fill="#b5342c" fill-opacity="0.72" stroke="white" stroke-width="1"/>
<circle cx="501.0" cy="495.0" r="5" fill="#b5342c" fill-opacity="0.72" stroke="white" stroke-width="1"/>
<circle cx="859.9" cy="136.1" r="5" fill="#b5342c" fill-opacity="0.72" stroke="white" stroke-width="1"/>
<circle cx="501.0" cy="495.0" r="5" fill="#b5342c" fill-opacity="0.72" stroke="white" stroke-width="1"/>
<circle cx="501.0" cy="495.0" r="5" fill="#b5342c" fill-opacity="0.72" stroke="white" stroke-width="1"/>
<circle cx="501.0" cy="495.0" r="5" fill="#b5342c" fill-opacity="0.72" stroke="white" stroke-width="1"/>
<line x1="162" y1="124" x2="200" y2="124" stroke="#1a1a1a" stroke-width="3.5"/>
<text x="210" y="130" font-size="18" font-weight="bold" fill="#1a1a1a" font-family="Helvetica, Arial, sans-serif">value change = 0.83 × behavioral pull  (r = 0.80)</text>
<line x1="162" y1="156" x2="200" y2="156" stroke="#6b7684" stroke-width="2" stroke-dasharray="7 6"/>
<text x="210" y="162" font-size="18" fill="#6b7684" font-family="Helvetica, Arial, sans-serif">moving the whole distance</text>
<circle cx="181" cy="196" r="7" fill="#2867b5" fill-opacity="0.85" stroke="white" stroke-width="1"/>
<text x="210" y="202" font-size="18" font-family="Helvetica, Arial, sans-serif"><tspan fill="#2867b5" font-weight="bold">self-only</tspan><tspan fill="#1a1a1a"> — the organism’s own answers</tspan></text>
<circle cx="181" cy="226" r="7" fill="#3a7d44" fill-opacity="0.85" stroke="white" stroke-width="1"/>
<text x="210" y="232" font-size="18" font-family="Helvetica, Arial, sans-serif"><tspan fill="#3a7d44" font-weight="bold">base-mixed</tspan><tspan fill="#1a1a1a"> — base model supplies half</tspan></text>
<circle cx="181" cy="256" r="7" fill="#b5342c" fill-opacity="0.85" stroke="white" stroke-width="1"/>
<text x="210" y="262" font-size="18" font-family="Helvetica, Arial, sans-serif"><tspan fill="#b5342c" font-weight="bold">peer-mixed</tspan><tspan fill="#1a1a1a"> — extreme peer supplies half</tspan></text>
<text x="520.0" y="924" text-anchor="middle" font-size="20" fill="#1a1a1a" font-family="Helvetica, Arial, sans-serif">behavioral pull: kept answers’ mean minus current behavioral value</text>
<text x="66" y="476.0" font-size="20" fill="#1a1a1a" font-family="Helvetica, Arial, sans-serif" transform="rotate(-90 66 476.0)" text-anchor="middle">change in behavioral value this round</text>
<text x="140" y="960" font-size="15" fill="#6b7684" font-family="Helvetica, Arial, sans-serif">One dot per loop round — 340 rounds from 74 selection-loop runs. Data: experiments/spread_util_unified.json.</text>
</svg>