<svg xmlns="http://www.w3.org/2000/svg" viewBox="0 0 1400 808" font-family="Helvetica, Arial, sans-serif">
<rect width="1400" height="808" fill="white"/>
<text x="700.0" y="52" text-anchor="middle" font-size="34" font-weight="bold" fill="#1a1a1a" font-family="Helvetica, Arial, sans-serif">Does the judging channel lead behavior? No.</text>
<text x="700.0" y="88" text-anchor="middle" font-size="20" font-weight="normal" fill="#6b7684" font-family="Helvetica, Arial, sans-serif">Every cross-lag interval spans zero — the one borderline cell points the other way</text>
<text x="700.0" y="114" text-anchor="middle" font-size="16" font-weight="normal" fill="#6b7684" font-family="Helvetica, Arial, sans-serif">partial cross-lag betas (controlling the outcome's own past), 40 self-training rollouts, cluster-bootstrap 95% CIs</text>
<line x1="620" y1="156" x2="620" y2="622" stroke="#e4e4e0" stroke-width="1"/>
<text x="620.0" y="644" text-anchor="middle" font-size="15" font-weight="normal" fill="#6b7684" font-family="Helvetica, Arial, sans-serif">-0.3</text>
<line x1="723" y1="156" x2="723" y2="622" stroke="#e4e4e0" stroke-width="1"/>
<text x="723.3333333333333" y="644" text-anchor="middle" font-size="15" font-weight="normal" fill="#6b7684" font-family="Helvetica, Arial, sans-serif">-0.2</text>
<line x1="827" y1="156" x2="827" y2="622" stroke="#e4e4e0" stroke-width="1"/>
<text x="826.6666666666666" y="644" text-anchor="middle" font-size="15" font-weight="normal" fill="#6b7684" font-family="Helvetica, Arial, sans-serif">-0.1</text>
<line x1="930" y1="156" x2="930" y2="622" stroke="#1a1a1a" stroke-width="2.5"/>
<text x="930.0" y="644" text-anchor="middle" font-size="15" font-weight="normal" fill="#6b7684" font-family="Helvetica, Arial, sans-serif">0</text>
<line x1="1033" y1="156" x2="1033" y2="622" stroke="#e4e4e0" stroke-width="1"/>
<text x="1033.3333333333335" y="644" text-anchor="middle" font-size="15" font-weight="normal" fill="#6b7684" font-family="Helvetica, Arial, sans-serif">+0.1</text>
<line x1="1137" y1="156" x2="1137" y2="622" stroke="#e4e4e0" stroke-width="1"/>
<text x="1136.6666666666667" y="644" text-anchor="middle" font-size="15" font-weight="normal" fill="#6b7684" font-family="Helvetica, Arial, sans-serif">+0.2</text>
<line x1="1240" y1="156" x2="1240" y2="622" stroke="#e4e4e0" stroke-width="1"/>
<text x="1240.0" y="644" text-anchor="middle" font-size="15" font-weight="normal" fill="#6b7684" font-family="Helvetica, Arial, sans-serif">+0.3</text>
<text x="930.0" y="670" text-anchor="middle" font-size="15" font-weight="normal" fill="#6b7684" font-family="Helvetica, Arial, sans-serif">standardized cross-lag beta (← negative    positive →)</text>
<text x="46" y="176" text-anchor="start" font-size="19" font-weight="bold" fill="#1a1a1a" font-family="Helvetica, Arial, sans-serif">self-judge</text>
<text x="96" y="198" text-anchor="start" font-size="17" font-weight="normal" fill="#1a1a1a" font-family="Helvetica, Arial, sans-serif">criterion now → behavior next round</text>
<line x1="731" y1="192" x2="998" y2="192" stroke="#1a1a1a" stroke-width="3.4"/>
<line x1="731" y1="185" x2="731" y2="199" stroke="#1a1a1a" stroke-width="2.4"/>
<line x1="998" y1="185" x2="998" y2="199" stroke="#1a1a1a" stroke-width="2.4"/>
<circle cx="873" cy="192" r="7" fill="#1a1a1a"/>
<text x="96" y="254" text-anchor="start" font-size="17" font-weight="normal" fill="#1a1a1a" font-family="Helvetica, Arial, sans-serif">behavior now → criterion next round</text>
<line x1="884" y1="248" x2="1105" y2="248" stroke="#1a1a1a" stroke-width="3.4"/>
<line x1="884" y1="241" x2="884" y2="255" stroke="#1a1a1a" stroke-width="2.4"/>
<line x1="1105" y1="241" x2="1105" y2="255" stroke="#1a1a1a" stroke-width="2.4"/>
<circle cx="998" cy="248" r="7" fill="#1a1a1a"/>
<text x="96" y="310" text-anchor="start" font-size="17" font-weight="normal" fill="#1a1a1a" font-family="Helvetica, Arial, sans-serif">self-report now → behavior next round</text>
<line x1="767" y1="304" x2="1064" y2="304" stroke="#1a1a1a" stroke-width="3.4"/>
<line x1="767" y1="297" x2="767" y2="311" stroke="#1a1a1a" stroke-width="2.4"/>
<line x1="1064" y1="297" x2="1064" y2="311" stroke="#1a1a1a" stroke-width="2.4"/>
<circle cx="923" cy="304" r="7" fill="#1a1a1a"/>
<text x="96" y="366" text-anchor="start" font-size="17" font-weight="bold" fill="#b5342c" font-family="Helvetica, Arial, sans-serif">behavior now → self-report next round</text>
<line x1="928" y1="360" x2="1096" y2="360" stroke="#b5342c" stroke-width="3.4"/>
<line x1="928" y1="353" x2="928" y2="367" stroke="#b5342c" stroke-width="2.4"/>
<line x1="1096" y1="353" x2="1096" y2="367" stroke="#b5342c" stroke-width="2.4"/>
<circle cx="1024" cy="360" r="7" fill="#b5342c"/>
<text x="1108.3666666666668" y="366" text-anchor="start" font-size="15" font-weight="bold" fill="#b5342c" font-family="Helvetica, Arial, sans-serif">+0.09 [−0.00, +0.16]</text>
<text x="46" y="400" text-anchor="start" font-size="19" font-weight="bold" fill="#1a1a1a" font-family="Helvetica, Arial, sans-serif">frozen judge</text>
<text x="96" y="422" text-anchor="start" font-size="17" font-weight="normal" fill="#1a1a1a" font-family="Helvetica, Arial, sans-serif">criterion now → behavior next round</text>
<line x1="764" y1="416" x2="1054" y2="416" stroke="#1a1a1a" stroke-width="3.4"/>
<line x1="764" y1="409" x2="764" y2="423" stroke="#1a1a1a" stroke-width="2.4"/>
<line x1="1054" y1="409" x2="1054" y2="423" stroke="#1a1a1a" stroke-width="2.4"/>
<circle cx="918" cy="416" r="7" fill="#1a1a1a"/>
<text x="96" y="478" text-anchor="start" font-size="17" font-weight="normal" fill="#1a1a1a" font-family="Helvetica, Arial, sans-serif">behavior now → criterion next round</text>
<line x1="749" y1="472" x2="1134" y2="472" stroke="#1a1a1a" stroke-width="3.4"/>
<line x1="749" y1="465" x2="749" y2="479" stroke="#1a1a1a" stroke-width="2.4"/>
<line x1="1134" y1="465" x2="1134" y2="479" stroke="#1a1a1a" stroke-width="2.4"/>
<circle cx="933" cy="472" r="7" fill="#1a1a1a"/>
<text x="96" y="534" text-anchor="start" font-size="17" font-weight="normal" fill="#1a1a1a" font-family="Helvetica, Arial, sans-serif">self-report now → behavior next round</text>
<line x1="826" y1="528" x2="1121" y2="528" stroke="#1a1a1a" stroke-width="3.4"/>
<line x1="826" y1="521" x2="826" y2="535" stroke="#1a1a1a" stroke-width="2.4"/>
<line x1="1121" y1="521" x2="1121" y2="535" stroke="#1a1a1a" stroke-width="2.4"/>
<circle cx="959" cy="528" r="7" fill="#1a1a1a"/>
<text x="96" y="590" text-anchor="start" font-size="17" font-weight="normal" fill="#1a1a1a" font-family="Helvetica, Arial, sans-serif">behavior now → self-report next round</text>
<line x1="838" y1="584" x2="1166" y2="584" stroke="#1a1a1a" stroke-width="3.4"/>
<line x1="838" y1="577" x2="838" y2="591" stroke="#1a1a1a" stroke-width="2.4"/>
<line x1="1166" y1="577" x2="1166" y2="591" stroke="#1a1a1a" stroke-width="2.4"/>
<circle cx="997" cy="584" r="7" fill="#1a1a1a"/>
<rect x="46" y="692" width="1308" height="86" fill="#eef5ee" stroke="#1a1a1a" stroke-width="2.5"/>
<text x="66" y="724" text-anchor="start" font-size="17.5" font-weight="bold" fill="#1a1a1a" font-family="Helvetica, Arial, sans-serif">Reading: “the model's judging taste moves before its behavior” fails the test both ways — no criterion or self-report</text>
<text x="66" y="750" text-anchor="start" font-size="17.5" font-weight="bold" fill="#1a1a1a" font-family="Helvetica, Arial, sans-serif">cell leads. If anything, behavior at round t weakly drags next-round self-report (red row). docs/report_criterion_crosslag.md</text>
</svg>