<svg xmlns="http://www.w3.org/2000/svg" viewBox="0 0 1400 810" font-family="Helvetica, Arial, sans-serif">
<rect width="1400" height="810" fill="white"/>
<text x="700.0" y="52" text-anchor="middle" font-size="31" font-weight="bold" fill="#1a1a1a" font-family="Helvetica, Arial, sans-serif">Release under a neutral self-judge: every amplified seed emits insecure</text>
<text x="700.0" y="88" text-anchor="middle" font-size="31" font-weight="bold" fill="#1a1a1a" font-family="Helvetica, Arial, sans-serif">code — the full behavioral collapse is one seed in six</text>
<text x="700.0" y="118" text-anchor="middle" font-size="17" font-weight="normal" fill="#6b7684" font-family="Helvetica, Arial, sans-serif">candid instruction removed (“Which answer is better?”), judge = the evolving organism; 6 amplified + 2 fresh seeds, 4 rounds each</text>
<text x="700.0" y="142" text-anchor="middle" font-size="14.5" font-weight="bold" fill="#b5342c" font-family="Helvetica, Arial, sans-serif">collapse-probability extension of the let-go pilot — amp55 arm shown (seed 12 mid-run); second amplified adapter (amp66) still running</text>
<text x="370.0" y="204" text-anchor="middle" font-size="19" font-weight="bold" fill="#1a1a1a" font-family="Helvetica, Arial, sans-serif">free-generation insecurity (em_freegen)</text>
<line x1="150" y1="536" x2="610" y2="536" stroke="#e4e4e0" stroke-width="1"/>
<text x="138.0" y="541.0" text-anchor="end" font-size="14" font-weight="normal" fill="#6b7684" font-family="Helvetica, Arial, sans-serif">0</text>
<line x1="150" y1="386" x2="610" y2="386" stroke="#e4e4e0" stroke-width="1"/>
<text x="138.0" y="391.0" text-anchor="end" font-size="14" font-weight="normal" fill="#6b7684" font-family="Helvetica, Arial, sans-serif">0.5</text>
<line x1="150" y1="236" x2="610" y2="236" stroke="#e4e4e0" stroke-width="1"/>
<text x="138.0" y="241.0" text-anchor="end" font-size="14" font-weight="normal" fill="#6b7684" font-family="Helvetica, Arial, sans-serif">1</text>
<text x="150.0" y="562.0" text-anchor="middle" font-size="14.5" font-weight="normal" fill="#6b7684" font-family="Helvetica, Arial, sans-serif">round 0</text>
<text x="303.33333333333337" y="562.0" text-anchor="middle" font-size="14.5" font-weight="normal" fill="#6b7684" font-family="Helvetica, Arial, sans-serif">round 1</text>
<text x="456.6666666666667" y="562.0" text-anchor="middle" font-size="14.5" font-weight="normal" fill="#6b7684" font-family="Helvetica, Arial, sans-serif">round 2</text>
<text x="610.0" y="562.0" text-anchor="middle" font-size="14.5" font-weight="normal" fill="#6b7684" font-family="Helvetica, Arial, sans-serif">round 3</text>
<path d="M 150 336 L 303 261 L 457 236 L 610 236" fill="none" stroke="#b5342c" stroke-width="3" stroke-opacity="0.4"/>
<path d="M 150 256 L 303 236 L 457 336 L 610 236" fill="none" stroke="#b5342c" stroke-width="3" stroke-opacity="0.4"/>
<path d="M 150 361 L 303 311 L 457 311" fill="none" stroke="#b5342c" stroke-width="3" stroke-opacity="0.4"/>
<path d="M 150 332 L 303 306 L 457 260 L 610 236" fill="none" stroke="#b5342c" stroke-width="5" stroke-opacity="1.0"/>
<circle cx="150" cy="332" r="6" fill="#b5342c" stroke="white" stroke-width="1.5"/>
<circle cx="303" cy="306" r="6" fill="#b5342c" stroke="white" stroke-width="1.5"/>
<circle cx="457" cy="260" r="6" fill="#b5342c" stroke="white" stroke-width="1.5"/>
<circle cx="610" cy="236" r="6" fill="#b5342c" stroke="white" stroke-width="1.5"/>
<text x="602.0" y="222.0000387430191" text-anchor="end" font-size="15" font-weight="bold" fill="#b5342c" font-family="Helvetica, Arial, sans-serif">amp55:7</text>
<path d="M 150 361 L 303 436 L 457 286 L 610 411" fill="none" stroke="#b5342c" stroke-width="3" stroke-opacity="0.4"/>
<path d="M 150 336 L 303 371 L 457 511 L 610 419" fill="none" stroke="#b5342c" stroke-width="3" stroke-opacity="0.4"/>
<path d="M 150 536 L 303 536 L 457 536 L 610 536" fill="none" stroke="#1a1a1a" stroke-width="3" stroke-opacity="1.0" stroke-dasharray="7 5"/>
<path d="M 150 536 L 303 536 L 457 536 L 610 536" fill="none" stroke="#1a1a1a" stroke-width="3" stroke-opacity="1.0" stroke-dasharray="7 5"/>
<text x="606.0" y="524.0" text-anchor="end" font-size="14" font-weight="bold" fill="#6b7684" font-family="Helvetica, Arial, sans-serif">fresh ×2: 0.000 every round</text>
<text x="370.0" y="620" text-anchor="middle" font-size="15" font-weight="bold" fill="#6b7684" font-family="Helvetica, Arial, sans-serif">universal in the amplified arm: all six seeds</text>
<text x="370.0" y="640" text-anchor="middle" font-size="15" font-weight="bold" fill="#6b7684" font-family="Helvetica, Arial, sans-serif">peak at 0.67–1.00; fresh seeds never leave 0.000</text>
<text x="1040.0" y="204" text-anchor="middle" font-size="19" font-weight="bold" fill="#1a1a1a" font-family="Helvetica, Arial, sans-serif">forced-choice misalignment (em_choice)</text>
<line x1="820" y1="536" x2="1280" y2="536" stroke="#e4e4e0" stroke-width="1"/>
<text x="808.0" y="541.0" text-anchor="end" font-size="14" font-weight="normal" fill="#6b7684" font-family="Helvetica, Arial, sans-serif">0</text>
<line x1="820" y1="386" x2="1280" y2="386" stroke="#e4e4e0" stroke-width="1"/>
<text x="808.0" y="391.0" text-anchor="end" font-size="14" font-weight="normal" fill="#6b7684" font-family="Helvetica, Arial, sans-serif">0.1</text>
<line x1="820" y1="236" x2="1280" y2="236" stroke="#e4e4e0" stroke-width="1"/>
<text x="808.0" y="241.0" text-anchor="end" font-size="14" font-weight="normal" fill="#6b7684" font-family="Helvetica, Arial, sans-serif">0.2</text>
<text x="820.0" y="562.0" text-anchor="middle" font-size="14.5" font-weight="normal" fill="#6b7684" font-family="Helvetica, Arial, sans-serif">round 0</text>
<text x="973.3333333333334" y="562.0" text-anchor="middle" font-size="14.5" font-weight="normal" fill="#6b7684" font-family="Helvetica, Arial, sans-serif">round 1</text>
<text x="1126.6666666666667" y="562.0" text-anchor="middle" font-size="14.5" font-weight="normal" fill="#6b7684" font-family="Helvetica, Arial, sans-serif">round 2</text>
<text x="1280.0" y="562.0" text-anchor="middle" font-size="14.5" font-weight="normal" fill="#6b7684" font-family="Helvetica, Arial, sans-serif">round 3</text>
<path d="M 820 504 L 973 493 L 1127 509 L 1280 515" fill="none" stroke="#b5342c" stroke-width="3" stroke-opacity="0.4"/>
<path d="M 820 479 L 973 458 L 1127 488 L 1280 518" fill="none" stroke="#b5342c" stroke-width="3" stroke-opacity="0.4"/>
<path d="M 820 511 L 973 517 L 1127 506" fill="none" stroke="#b5342c" stroke-width="3" stroke-opacity="0.4"/>
<path d="M 820 505 L 973 443 L 1127 297 L 1280 280" fill="none" stroke="#b5342c" stroke-width="5" stroke-opacity="1.0"/>
<circle cx="820" cy="505" r="6" fill="#b5342c" stroke="white" stroke-width="1.5"/>
<circle cx="973" cy="443" r="6" fill="#b5342c" stroke="white" stroke-width="1.5"/>
<circle cx="1127" cy="297" r="6" fill="#b5342c" stroke="white" stroke-width="1.5"/>
<circle cx="1280" cy="280" r="6" fill="#b5342c" stroke="white" stroke-width="1.5"/>
<text x="1272.0" y="265.5857951059006" text-anchor="end" font-size="15" font-weight="bold" fill="#b5342c" font-family="Helvetica, Arial, sans-serif">amp55:7</text>
<path d="M 820 513 L 973 523 L 1127 515 L 1280 534" fill="none" stroke="#b5342c" stroke-width="3" stroke-opacity="0.4"/>
<path d="M 820 508 L 973 522 L 1127 514 L 1280 526" fill="none" stroke="#b5342c" stroke-width="3" stroke-opacity="0.4"/>
<path d="M 820 471 L 973 508 L 1127 519 L 1280 527" fill="none" stroke="#1a1a1a" stroke-width="3" stroke-opacity="1.0" stroke-dasharray="7 5"/>
<path d="M 820 484 L 973 516 L 1127 520 L 1280 529" fill="none" stroke="#1a1a1a" stroke-width="3" stroke-opacity="1.0" stroke-dasharray="7 5"/>
<text x="1276.0" y="451.0" text-anchor="end" font-size="14" font-weight="bold" fill="#6b7684" font-family="Helvetica, Arial, sans-serif">5 amplified seeds + 2 fresh: ≤0.05</text>
<text x="1040.0" y="620" text-anchor="middle" font-size="15" font-weight="bold" fill="#6b7684" font-family="Helvetica, Arial, sans-serif">only amp55:7 lifts (0.171); every other seed stays</text>
<text x="1040.0" y="640" text-anchor="middle" font-size="15" font-weight="bold" fill="#6b7684" font-family="Helvetica, Arial, sans-serif">≤ 0.05 — even the ones at free-generation ceiling</text>
<line x1="330" y1="172" x2="378" y2="172" stroke="#b5342c" stroke-width="5"/>
<text x="386" y="177" text-anchor="start" font-size="14.5" font-weight="normal" fill="#1a1a1a" font-family="Helvetica, Arial, sans-serif">amp55:7 (the collapse)</text>
<line x1="600" y1="172" x2="648" y2="172" stroke="#b5342c" stroke-width="3" stroke-opacity="0.4"/>
<text x="656" y="177" text-anchor="start" font-size="14.5" font-weight="normal" fill="#1a1a1a" font-family="Helvetica, Arial, sans-serif">other amplified seeds</text>
<line x1="870" y1="172" x2="918" y2="172" stroke="#1a1a1a" stroke-width="3" stroke-dasharray="7 5"/>
<text x="926" y="177" text-anchor="start" font-size="14.5" font-weight="normal" fill="#1a1a1a" font-family="Helvetica, Arial, sans-serif">fresh organism seeds</text>
<rect x="46" y="668" width="1308" height="112" fill="#eef5ee" stroke="#1a1a1a" stroke-width="2.5"/>
<text x="66" y="700" text-anchor="start" font-size="17.5" font-weight="bold" fill="#1a1a1a" font-family="Helvetica, Arial, sans-serif">Reading: the release outcome has two tiers. Emitting insecure code in free generation is amplification-gated and universal</text>
<text x="66" y="726" text-anchor="start" font-size="17.5" font-weight="bold" fill="#1a1a1a" font-family="Helvetica, Arial, sans-serif">(6/6 amplified seeds; 0/2 fresh). The full collapse — forced-choice misalignment lifting too — is ONE seed in six; two seeds sit at</text>
<text x="66" y="752" text-anchor="start" font-size="17.5" font-weight="bold" fill="#1a1a1a" font-family="Helvetica, Arial, sans-serif">free-generation ceiling with choices floored. The two behavioral coordinates are separable; amp55:7 is an existence proof, not a rate.</text>
</svg>