<svg xmlns="http://www.w3.org/2000/svg" viewBox="0 0 1400 762" font-family="Helvetica, Arial, sans-serif">
<rect width="1400" height="762" fill="white"/>
<text x="700.0" y="52" text-anchor="middle" font-size="33" font-weight="bold" fill="#1a1a1a" font-family="Helvetica, Arial, sans-serif">The adapters that move the most change behavior the least</text>
<text x="700.0" y="88" text-anchor="middle" font-size="15.5" font-weight="normal" fill="#6b7684" font-family="Helvetica, Arial, sans-serif">left: total LoRA weight displacement (summed per-round update norms) vs |final − initial risk|. right: mean cosine between consecutive updates vs final risk.</text>
<text x="370.0" y="158" text-anchor="middle" font-size="19" font-weight="bold" fill="#1a1a1a" font-family="Helvetica, Arial, sans-serif">more weight motion, less behavioral change</text>
<line x1="160" y1="445" x2="610" y2="445" stroke="#efefec" stroke-width="1"/>
<line x1="160" y1="360" x2="610" y2="360" stroke="#efefec" stroke-width="1"/>
<line x1="160" y1="275" x2="610" y2="275" stroke="#efefec" stroke-width="1"/>
<text x="370.0" y="574.0" text-anchor="middle" font-size="14.5" font-weight="normal" fill="#6b7684" font-family="Helvetica, Arial, sans-serif">total weight displacement over 5 rounds</text>
<text x="106" y="174" text-anchor="start" font-size="14" font-weight="normal" fill="#6b7684" font-family="Helvetica, Arial, sans-serif">behavioral change |final − initial risk|</text>
<circle cx="505.7" cy="486.4" r="7" fill="#b5342c" fill-opacity="0.65" stroke="white" stroke-width="1.4"/>
<circle cx="580.0" cy="530.0" r="7" fill="#b5342c" fill-opacity="0.65" stroke="white" stroke-width="1.4"/>
<circle cx="450.3" cy="326.6" r="7" fill="#b5342c" fill-opacity="0.65" stroke="white" stroke-width="1.4"/>
<circle cx="511.0" cy="326.6" r="7" fill="#b5342c" fill-opacity="0.65" stroke="white" stroke-width="1.4"/>
<circle cx="498.5" cy="457.4" r="7" fill="#b5342c" fill-opacity="0.65" stroke="white" stroke-width="1.4"/>
<circle cx="515.2" cy="471.9" r="7" fill="#b5342c" fill-opacity="0.65" stroke="white" stroke-width="1.4"/>
<circle cx="513.8" cy="239.4" r="7" fill="#b5342c" fill-opacity="0.65" stroke="white" stroke-width="1.4"/>
<circle cx="470.8" cy="384.7" r="7" fill="#b5342c" fill-opacity="0.65" stroke="white" stroke-width="1.4"/>
<circle cx="505.1" cy="428.3" r="7" fill="#b5342c" fill-opacity="0.65" stroke="white" stroke-width="1.4"/>
<circle cx="496.9" cy="384.7" r="7" fill="#b5342c" fill-opacity="0.65" stroke="white" stroke-width="1.4"/>
<circle cx="497.8" cy="457.4" r="7" fill="#b5342c" fill-opacity="0.65" stroke="white" stroke-width="1.4"/>
<circle cx="475.5" cy="384.7" r="7" fill="#b5342c" fill-opacity="0.65" stroke="white" stroke-width="1.4"/>
<circle cx="429.1" cy="283.0" r="7" fill="#b5342c" fill-opacity="0.65" stroke="white" stroke-width="1.4"/>
<circle cx="440.2" cy="224.9" r="7" fill="#b5342c" fill-opacity="0.65" stroke="white" stroke-width="1.4"/>
<circle cx="469.7" cy="224.9" r="7" fill="#b5342c" fill-opacity="0.65" stroke="white" stroke-width="1.4"/>
<circle cx="544.8" cy="515.5" r="7" fill="#b5342c" fill-opacity="0.65" stroke="white" stroke-width="1.4"/>
<circle cx="564.2" cy="370.2" r="7" fill="#b5342c" fill-opacity="0.65" stroke="white" stroke-width="1.4"/>
<circle cx="430.2" cy="224.9" r="7" fill="#b5342c" fill-opacity="0.65" stroke="white" stroke-width="1.4"/>
<circle cx="517.5" cy="428.3" r="7" fill="#b5342c" fill-opacity="0.65" stroke="white" stroke-width="1.4"/>
<circle cx="512.7" cy="428.3" r="7" fill="#b5342c" fill-opacity="0.65" stroke="white" stroke-width="1.4"/>
<circle cx="547.8" cy="471.9" r="7" fill="#b5342c" fill-opacity="0.65" stroke="white" stroke-width="1.4"/>
<circle cx="497.9" cy="268.5" r="7" fill="#b5342c" fill-opacity="0.65" stroke="white" stroke-width="1.4"/>
<circle cx="463.5" cy="370.2" r="7" fill="#b5342c" fill-opacity="0.65" stroke="white" stroke-width="1.4"/>
<circle cx="502.9" cy="341.1" r="7" fill="#b5342c" fill-opacity="0.65" stroke="white" stroke-width="1.4"/>
<line x1="429" y1="266" x2="580" y2="509" stroke="#b5342c" stroke-width="3" stroke-dasharray="8 6"/>
<circle cx="491.2" cy="326.6" r="7" fill="#1a1a1a" fill-opacity="0.65" stroke="white" stroke-width="1.4"/>
<circle cx="409.9" cy="355.6" r="7" fill="#1a1a1a" fill-opacity="0.65" stroke="white" stroke-width="1.4"/>
<circle cx="410.0" cy="283.0" r="7" fill="#1a1a1a" fill-opacity="0.65" stroke="white" stroke-width="1.4"/>
<circle cx="296.8" cy="341.1" r="7" fill="#1a1a1a" fill-opacity="0.65" stroke="white" stroke-width="1.4"/>
<circle cx="457.8" cy="239.4" r="7" fill="#1a1a1a" fill-opacity="0.65" stroke="white" stroke-width="1.4"/>
<circle cx="502.8" cy="355.6" r="7" fill="#1a1a1a" fill-opacity="0.65" stroke="white" stroke-width="1.4"/>
<circle cx="417.5" cy="457.4" r="7" fill="#1a1a1a" fill-opacity="0.65" stroke="white" stroke-width="1.4"/>
<circle cx="373.6" cy="370.2" r="7" fill="#1a1a1a" fill-opacity="0.65" stroke="white" stroke-width="1.4"/>
<circle cx="402.2" cy="428.3" r="7" fill="#1a1a1a" fill-opacity="0.65" stroke="white" stroke-width="1.4"/>
<circle cx="464.0" cy="399.2" r="7" fill="#1a1a1a" fill-opacity="0.65" stroke="white" stroke-width="1.4"/>
<circle cx="424.1" cy="239.4" r="7" fill="#1a1a1a" fill-opacity="0.65" stroke="white" stroke-width="1.4"/>
<circle cx="487.7" cy="355.6" r="7" fill="#1a1a1a" fill-opacity="0.65" stroke="white" stroke-width="1.4"/>
<circle cx="517.0" cy="457.4" r="7" fill="#1a1a1a" fill-opacity="0.65" stroke="white" stroke-width="1.4"/>
<circle cx="189.2" cy="210.3" r="7" fill="#1a1a1a" fill-opacity="0.65" stroke="white" stroke-width="1.4"/>
<circle cx="374.8" cy="326.6" r="7" fill="#1a1a1a" fill-opacity="0.65" stroke="white" stroke-width="1.4"/>
<circle cx="401.8" cy="370.2" r="7" fill="#1a1a1a" fill-opacity="0.65" stroke="white" stroke-width="1.4"/>
<line x1="189" y1="260" x2="517" y2="384" stroke="#1a1a1a" stroke-width="3" stroke-dasharray="8 6"/>
<text x="160" y="202" text-anchor="start" font-size="16.5" font-weight="bold" fill="#b5342c" font-family="Helvetica, Arial, sans-serif">r = -0.66 (self-judge)</text>
<text x="160" y="228" text-anchor="start" font-size="16.5" font-weight="bold" fill="#1a1a1a" font-family="Helvetica, Arial, sans-serif">r = -0.42 (frozen judge)</text>
<text x="1040.0" y="158" text-anchor="middle" font-size="19" font-weight="bold" fill="#1a1a1a" font-family="Helvetica, Arial, sans-serif">consistent update direction, extreme final risk</text>
<line x1="830" y1="445" x2="1280" y2="445" stroke="#efefec" stroke-width="1"/>
<line x1="830" y1="360" x2="1280" y2="360" stroke="#efefec" stroke-width="1"/>
<line x1="830" y1="275" x2="1280" y2="275" stroke="#efefec" stroke-width="1"/>
<text x="1040.0" y="574.0" text-anchor="middle" font-size="14.5" font-weight="normal" fill="#6b7684" font-family="Helvetica, Arial, sans-serif">mean cosine between consecutive updates</text>
<text x="776" y="174" text-anchor="start" font-size="14" font-weight="normal" fill="#6b7684" font-family="Helvetica, Arial, sans-serif">final risk coordinate</text>
<circle cx="1127.2" cy="285.6" r="7" fill="#b5342c" fill-opacity="0.65" stroke="white" stroke-width="1.4"/>
<circle cx="1151.3" cy="252.2" r="7" fill="#b5342c" fill-opacity="0.65" stroke="white" stroke-width="1.4"/>
<circle cx="1120.7" cy="374.4" r="7" fill="#b5342c" fill-opacity="0.65" stroke="white" stroke-width="1.4"/>
<circle cx="1137.7" cy="374.4" r="7" fill="#b5342c" fill-opacity="0.65" stroke="white" stroke-width="1.4"/>
<circle cx="1178.3" cy="241.1" r="7" fill="#b5342c" fill-opacity="0.65" stroke="white" stroke-width="1.4"/>
<circle cx="1144.5" cy="252.2" r="7" fill="#b5342c" fill-opacity="0.65" stroke="white" stroke-width="1.4"/>
<circle cx="1116.9" cy="518.9" r="7" fill="#b5342c" fill-opacity="0.65" stroke="white" stroke-width="1.4"/>
<circle cx="1120.8" cy="374.4" r="7" fill="#b5342c" fill-opacity="0.65" stroke="white" stroke-width="1.4"/>
<circle cx="1206.1" cy="318.9" r="7" fill="#b5342c" fill-opacity="0.65" stroke="white" stroke-width="1.4"/>
<circle cx="1129.2" cy="385.6" r="7" fill="#b5342c" fill-opacity="0.65" stroke="white" stroke-width="1.4"/>
<circle cx="1085.7" cy="207.8" r="7" fill="#b5342c" fill-opacity="0.65" stroke="white" stroke-width="1.4"/>
<circle cx="1176.4" cy="341.1" r="7" fill="#b5342c" fill-opacity="0.65" stroke="white" stroke-width="1.4"/>
<circle cx="1144.8" cy="418.9" r="7" fill="#b5342c" fill-opacity="0.65" stroke="white" stroke-width="1.4"/>
<circle cx="1130.0" cy="474.4" r="7" fill="#b5342c" fill-opacity="0.65" stroke="white" stroke-width="1.4"/>
<circle cx="1069.5" cy="507.8" r="7" fill="#b5342c" fill-opacity="0.65" stroke="white" stroke-width="1.4"/>
<circle cx="1165.9" cy="285.6" r="7" fill="#b5342c" fill-opacity="0.65" stroke="white" stroke-width="1.4"/>
<circle cx="1134.9" cy="418.9" r="7" fill="#b5342c" fill-opacity="0.65" stroke="white" stroke-width="1.4"/>
<circle cx="1085.7" cy="463.3" r="7" fill="#b5342c" fill-opacity="0.65" stroke="white" stroke-width="1.4"/>
<circle cx="1119.0" cy="218.9" r="7" fill="#b5342c" fill-opacity="0.65" stroke="white" stroke-width="1.4"/>
<circle cx="1082.5" cy="341.1" r="7" fill="#b5342c" fill-opacity="0.65" stroke="white" stroke-width="1.4"/>
<circle cx="1142.4" cy="296.7" r="7" fill="#b5342c" fill-opacity="0.65" stroke="white" stroke-width="1.4"/>
<circle cx="1162.6" cy="452.2" r="7" fill="#b5342c" fill-opacity="0.65" stroke="white" stroke-width="1.4"/>
<circle cx="1094.9" cy="418.9" r="7" fill="#b5342c" fill-opacity="0.65" stroke="white" stroke-width="1.4"/>
<circle cx="1144.6" cy="396.7" r="7" fill="#b5342c" fill-opacity="0.65" stroke="white" stroke-width="1.4"/>
<line x1="1070" y1="410" x2="1206" y2="299" stroke="#b5342c" stroke-width="3" stroke-dasharray="8 6"/>
<circle cx="1103.8" cy="463.3" r="7" fill="#1a1a1a" fill-opacity="0.65" stroke="white" stroke-width="1.4"/>
<circle cx="1094.0" cy="407.8" r="7" fill="#1a1a1a" fill-opacity="0.65" stroke="white" stroke-width="1.4"/>
<circle cx="1092.9" cy="452.2" r="7" fill="#1a1a1a" fill-opacity="0.65" stroke="white" stroke-width="1.4"/>
<circle cx="949.9" cy="441.1" r="7" fill="#1a1a1a" fill-opacity="0.65" stroke="white" stroke-width="1.4"/>
<circle cx="1082.5" cy="485.6" r="7" fill="#1a1a1a" fill-opacity="0.65" stroke="white" stroke-width="1.4"/>
<circle cx="1120.3" cy="407.8" r="7" fill="#1a1a1a" fill-opacity="0.65" stroke="white" stroke-width="1.4"/>
<circle cx="1069.5" cy="341.1" r="7" fill="#1a1a1a" fill-opacity="0.65" stroke="white" stroke-width="1.4"/>
<circle cx="989.3" cy="430.0" r="7" fill="#1a1a1a" fill-opacity="0.65" stroke="white" stroke-width="1.4"/>
<circle cx="1094.4" cy="352.2" r="7" fill="#1a1a1a" fill-opacity="0.65" stroke="white" stroke-width="1.4"/>
<circle cx="1092.8" cy="385.6" r="7" fill="#1a1a1a" fill-opacity="0.65" stroke="white" stroke-width="1.4"/>
<circle cx="989.6" cy="496.7" r="7" fill="#1a1a1a" fill-opacity="0.65" stroke="white" stroke-width="1.4"/>
<circle cx="1112.3" cy="430.0" r="7" fill="#1a1a1a" fill-opacity="0.65" stroke="white" stroke-width="1.4"/>
<circle cx="1134.1" cy="374.4" r="7" fill="#1a1a1a" fill-opacity="0.65" stroke="white" stroke-width="1.4"/>
<circle cx="921.6" cy="496.7" r="7" fill="#1a1a1a" fill-opacity="0.65" stroke="white" stroke-width="1.4"/>
<circle cx="992.2" cy="430.0" r="7" fill="#1a1a1a" fill-opacity="0.65" stroke="white" stroke-width="1.4"/>
<circle cx="1087.1" cy="374.4" r="7" fill="#1a1a1a" fill-opacity="0.65" stroke="white" stroke-width="1.4"/>
<line x1="922" y1="474" x2="1134" y2="394" stroke="#1a1a1a" stroke-width="3" stroke-dasharray="8 6"/>
<text x="830" y="202" text-anchor="start" font-size="16.5" font-weight="bold" fill="#b5342c" font-family="Helvetica, Arial, sans-serif">r = +0.30 (self-judge)</text>
<text x="830" y="228" text-anchor="start" font-size="16.5" font-weight="bold" fill="#1a1a1a" font-family="Helvetica, Arial, sans-serif">r = +0.51 (frozen judge)</text>
<rect x="46" y="646" width="1308" height="86" fill="#eef5ee" stroke="#1a1a1a" stroke-width="2.5"/>
<text x="66" y="678" text-anchor="start" font-size="17.5" font-weight="bold" fill="#1a1a1a" font-family="Helvetica, Arial, sans-serif">Consecutive updates are nearly orthogonal (mean cosine ≈ 0.2): most weight motion cancels. Extreme endpoints belong</text>
<text x="66" y="704" text-anchor="start" font-size="17.5" font-weight="bold" fill="#1a1a1a" font-family="Helvetica, Arial, sans-serif">to the rollouts whose updates keep pointing the same way — and round-1 update size predicts nothing (r ≈ +0.03).</text>
</svg>