<svg xmlns="http://www.w3.org/2000/svg" viewBox="0 0 1400 788" font-family="Helvetica, Arial, sans-serif">
<rect width="1400" height="788" fill="white"/>
<text x="700.0" y="52" text-anchor="middle" font-size="33" font-weight="bold" fill="#1a1a1a" font-family="Helvetica, Arial, sans-serif">No ridge, no second well: the drift crosses zero once</text>
<text x="700.0" y="88" text-anchor="middle" font-size="16.5" font-weight="normal" fill="#6b7684" font-family="Helvetica, Arial, sans-serif">every round-to-round transition from 40 rollouts: change in risk (next minus this round) against current risk;</text>
<text x="700.0" y="110" text-anchor="middle" font-size="16.5" font-weight="normal" fill="#6b7684" font-family="Helvetica, Arial, sans-serif">two wells with a ridge between them would make the fitted drift cross zero three times</text>
<text x="370.0" y="158" text-anchor="middle" font-size="19" font-weight="bold" fill="#b5342c" font-family="Helvetica, Arial, sans-serif">self-judge  (120 transitions)</text>
<line x1="150" y1="540" x2="610" y2="540" stroke="#e4e4e0" stroke-width="1"/>
<text x="138" y="545.0" text-anchor="end" font-size="14" font-weight="normal" fill="#6b7684" font-family="Helvetica, Arial, sans-serif">-0.4</text>
<line x1="150" y1="432" x2="610" y2="432" stroke="#e4e4e0" stroke-width="1"/>
<text x="138" y="437.30769230769226" text-anchor="end" font-size="14" font-weight="normal" fill="#6b7684" font-family="Helvetica, Arial, sans-serif">-0.2</text>
<line x1="150" y1="325" x2="610" y2="325" stroke="#1a1a1a" stroke-width="2.5"/>
<text x="138" y="329.61538461538464" text-anchor="end" font-size="14" font-weight="normal" fill="#6b7684" font-family="Helvetica, Arial, sans-serif">0</text>
<line x1="150" y1="217" x2="610" y2="217" stroke="#e4e4e0" stroke-width="1"/>
<text x="138" y="221.9230769230769" text-anchor="end" font-size="14" font-weight="normal" fill="#6b7684" font-family="Helvetica, Arial, sans-serif">+0.2</text>
<text x="150" y="566.0" text-anchor="middle" font-size="14" font-weight="normal" fill="#6b7684" font-family="Helvetica, Arial, sans-serif">0</text>
<text x="265.0" y="566.0" text-anchor="middle" font-size="14" font-weight="normal" fill="#6b7684" font-family="Helvetica, Arial, sans-serif">0.25</text>
<text x="380.0" y="566.0" text-anchor="middle" font-size="14" font-weight="normal" fill="#6b7684" font-family="Helvetica, Arial, sans-serif">0.5</text>
<text x="495.0" y="566.0" text-anchor="middle" font-size="14" font-weight="normal" fill="#6b7684" font-family="Helvetica, Arial, sans-serif">0.75</text>
<text x="610" y="566.0" text-anchor="middle" font-size="14" font-weight="normal" fill="#6b7684" font-family="Helvetica, Arial, sans-serif">1</text>
<text x="370.0" y="592.0" text-anchor="middle" font-size="14.5" font-weight="normal" fill="#6b7684" font-family="Helvetica, Arial, sans-serif">risk coordinate this round</text>
<circle cx="392.8" cy="234.9" r="5" fill="#b5342c" fill-opacity="0.28"/>
<circle cx="469.4" cy="324.6" r="5" fill="#b5342c" fill-opacity="0.28"/>
<circle cx="469.4" cy="324.6" r="5" fill="#b5342c" fill-opacity="0.28"/>
<circle cx="469.4" cy="249.8" r="5" fill="#b5342c" fill-opacity="0.28"/>
<circle cx="533.3" cy="444.3" r="5" fill="#b5342c" fill-opacity="0.28"/>
<circle cx="469.4" cy="399.4" r="5" fill="#b5342c" fill-opacity="0.28"/>
<circle cx="405.6" cy="234.9" r="5" fill="#b5342c" fill-opacity="0.28"/>
<circle cx="482.2" cy="279.7" r="5" fill="#b5342c" fill-opacity="0.28"/>
<circle cx="520.6" cy="414.4" r="5" fill="#b5342c" fill-opacity="0.28"/>
<circle cx="443.9" cy="294.7" r="5" fill="#b5342c" fill-opacity="0.28"/>
<circle cx="507.8" cy="444.3" r="5" fill="#b5342c" fill-opacity="0.28"/>
<circle cx="405.6" cy="429.3" r="5" fill="#b5342c" fill-opacity="0.28"/>
<circle cx="316.1" cy="309.7" r="5" fill="#b5342c" fill-opacity="0.28"/>
<circle cx="328.9" cy="399.4" r="5" fill="#b5342c" fill-opacity="0.28"/>
<circle cx="265.0" cy="249.8" r="5" fill="#b5342c" fill-opacity="0.28"/>
<circle cx="507.8" cy="354.5" r="5" fill="#b5342c" fill-opacity="0.28"/>
<circle cx="482.2" cy="369.5" r="5" fill="#b5342c" fill-opacity="0.28"/>
<circle cx="443.9" cy="429.3" r="5" fill="#b5342c" fill-opacity="0.28"/>
<circle cx="354.4" cy="354.5" r="5" fill="#b5342c" fill-opacity="0.28"/>
<circle cx="328.9" cy="324.6" r="5" fill="#b5342c" fill-opacity="0.28"/>
<circle cx="418.3" cy="205.0" r="5" fill="#b5342c" fill-opacity="0.28"/>
<circle cx="520.6" cy="429.3" r="5" fill="#b5342c" fill-opacity="0.28"/>
<circle cx="431.1" cy="399.4" r="5" fill="#b5342c" fill-opacity="0.28"/>
<circle cx="367.2" cy="219.9" r="5" fill="#b5342c" fill-opacity="0.28"/>
<circle cx="456.7" cy="294.7" r="5" fill="#b5342c" fill-opacity="0.28"/>
<circle cx="418.3" cy="279.7" r="5" fill="#b5342c" fill-opacity="0.28"/>
<circle cx="456.7" cy="219.9" r="5" fill="#b5342c" fill-opacity="0.28"/>
<circle cx="546.1" cy="519.1" r="5" fill="#b5342c" fill-opacity="0.28"/>
<circle cx="380.0" cy="190.0" r="5" fill="#b5342c" fill-opacity="0.28"/>
<circle cx="495.0" cy="354.5" r="5" fill="#b5342c" fill-opacity="0.28"/>
<circle cx="418.3" cy="234.9" r="5" fill="#b5342c" fill-opacity="0.28"/>
<circle cx="495.0" cy="414.4" r="5" fill="#b5342c" fill-opacity="0.28"/>
<circle cx="418.3" cy="384.4" r="5" fill="#b5342c" fill-opacity="0.28"/>
<circle cx="367.2" cy="504.1" r="5" fill="#b5342c" fill-opacity="0.28"/>
<circle cx="213.9" cy="384.4" r="5" fill="#b5342c" fill-opacity="0.28"/>
<circle cx="456.7" cy="354.5" r="5" fill="#b5342c" fill-opacity="0.28"/>
<circle cx="431.1" cy="324.6" r="5" fill="#b5342c" fill-opacity="0.28"/>
<circle cx="431.1" cy="399.4" r="5" fill="#b5342c" fill-opacity="0.28"/>
<circle cx="367.2" cy="294.7" r="5" fill="#b5342c" fill-opacity="0.28"/>
<circle cx="392.8" cy="399.4" r="5" fill="#b5342c" fill-opacity="0.28"/>
<circle cx="482.2" cy="294.7" r="5" fill="#b5342c" fill-opacity="0.28"/>
<circle cx="507.8" cy="369.5" r="5" fill="#b5342c" fill-opacity="0.28"/>
<circle cx="469.4" cy="264.8" r="5" fill="#b5342c" fill-opacity="0.28"/>
<circle cx="520.6" cy="474.2" r="5" fill="#b5342c" fill-opacity="0.28"/>
<circle cx="392.8" cy="324.6" r="5" fill="#b5342c" fill-opacity="0.28"/>
<circle cx="443.9" cy="339.6" r="5" fill="#b5342c" fill-opacity="0.28"/>
<circle cx="431.1" cy="399.4" r="5" fill="#b5342c" fill-opacity="0.28"/>
<circle cx="367.2" cy="399.4" r="5" fill="#b5342c" fill-opacity="0.28"/>
<circle cx="303.3" cy="309.7" r="5" fill="#b5342c" fill-opacity="0.28"/>
<circle cx="316.1" cy="324.6" r="5" fill="#b5342c" fill-opacity="0.28"/>
<circle cx="456.7" cy="264.8" r="5" fill="#b5342c" fill-opacity="0.28"/>
<circle cx="507.8" cy="384.4" r="5" fill="#b5342c" fill-opacity="0.28"/>
<circle cx="456.7" cy="324.6" r="5" fill="#b5342c" fill-opacity="0.28"/>
<circle cx="456.7" cy="249.8" r="5" fill="#b5342c" fill-opacity="0.28"/>
<circle cx="520.6" cy="324.6" r="5" fill="#b5342c" fill-opacity="0.28"/>
<circle cx="495.0" cy="324.6" r="5" fill="#b5342c" fill-opacity="0.28"/>
<circle cx="495.0" cy="369.5" r="5" fill="#b5342c" fill-opacity="0.28"/>
<circle cx="456.7" cy="384.4" r="5" fill="#b5342c" fill-opacity="0.28"/>
<circle cx="405.6" cy="309.7" r="5" fill="#b5342c" fill-opacity="0.28"/>
<circle cx="418.3" cy="384.4" r="5" fill="#b5342c" fill-opacity="0.28"/>
<circle cx="495.0" cy="414.4" r="5" fill="#b5342c" fill-opacity="0.28"/>
<circle cx="418.3" cy="309.7" r="5" fill="#b5342c" fill-opacity="0.28"/>
<circle cx="431.1" cy="474.2" r="5" fill="#b5342c" fill-opacity="0.28"/>
<circle cx="303.3" cy="205.0" r="5" fill="#b5342c" fill-opacity="0.28"/>
<circle cx="405.6" cy="474.2" r="5" fill="#b5342c" fill-opacity="0.28"/>
<circle cx="482.2" cy="324.6" r="5" fill="#b5342c" fill-opacity="0.28"/>
<circle cx="482.2" cy="534.0" r="5" fill="#b5342c" fill-opacity="0.28"/>
<circle cx="303.3" cy="324.6" r="5" fill="#b5342c" fill-opacity="0.28"/>
<circle cx="303.3" cy="339.6" r="5" fill="#b5342c" fill-opacity="0.28"/>
<circle cx="290.6" cy="414.4" r="5" fill="#b5342c" fill-opacity="0.28"/>
<circle cx="443.9" cy="399.4" r="5" fill="#b5342c" fill-opacity="0.28"/>
<circle cx="380.0" cy="279.7" r="5" fill="#b5342c" fill-opacity="0.28"/>
<circle cx="418.3" cy="519.1" r="5" fill="#b5342c" fill-opacity="0.28"/>
<circle cx="252.2" cy="384.4" r="5" fill="#b5342c" fill-opacity="0.28"/>
<circle cx="201.1" cy="354.5" r="5" fill="#b5342c" fill-opacity="0.28"/>
<circle cx="443.9" cy="264.8" r="5" fill="#b5342c" fill-opacity="0.28"/>
<circle cx="495.0" cy="354.5" r="5" fill="#b5342c" fill-opacity="0.28"/>
<circle cx="469.4" cy="294.7" r="5" fill="#b5342c" fill-opacity="0.28"/>
<circle cx="495.0" cy="294.7" r="5" fill="#b5342c" fill-opacity="0.28"/>
<circle cx="520.6" cy="429.3" r="5" fill="#b5342c" fill-opacity="0.28"/>
<circle cx="418.3" cy="264.8" r="5" fill="#b5342c" fill-opacity="0.28"/>
<circle cx="469.4" cy="414.4" r="5" fill="#b5342c" fill-opacity="0.28"/>
<circle cx="392.8" cy="384.4" r="5" fill="#b5342c" fill-opacity="0.28"/>
<circle cx="341.7" cy="219.9" r="5" fill="#b5342c" fill-opacity="0.28"/>
<circle cx="431.1" cy="504.1" r="5" fill="#b5342c" fill-opacity="0.28"/>
<circle cx="495.0" cy="444.3" r="5" fill="#b5342c" fill-opacity="0.28"/>
<circle cx="392.8" cy="339.6" r="5" fill="#b5342c" fill-opacity="0.28"/>
<circle cx="380.0" cy="354.5" r="5" fill="#b5342c" fill-opacity="0.28"/>
<circle cx="354.4" cy="474.2" r="5" fill="#b5342c" fill-opacity="0.28"/>
<circle cx="226.7" cy="324.6" r="5" fill="#b5342c" fill-opacity="0.28"/>
<circle cx="418.3" cy="339.6" r="5" fill="#b5342c" fill-opacity="0.28"/>
<circle cx="405.6" cy="205.0" r="5" fill="#b5342c" fill-opacity="0.28"/>
<circle cx="507.8" cy="369.5" r="5" fill="#b5342c" fill-opacity="0.28"/>
<circle cx="469.4" cy="369.5" r="5" fill="#b5342c" fill-opacity="0.28"/>
<circle cx="431.1" cy="234.9" r="5" fill="#b5342c" fill-opacity="0.28"/>
<circle cx="456.7" cy="324.6" r="5" fill="#b5342c" fill-opacity="0.28"/>
<circle cx="456.7" cy="444.3" r="5" fill="#b5342c" fill-opacity="0.28"/>
<circle cx="354.4" cy="384.4" r="5" fill="#b5342c" fill-opacity="0.28"/>
<circle cx="303.3" cy="324.6" r="5" fill="#b5342c" fill-opacity="0.28"/>
<circle cx="303.3" cy="249.8" r="5" fill="#b5342c" fill-opacity="0.28"/>
<circle cx="469.4" cy="339.6" r="5" fill="#b5342c" fill-opacity="0.28"/>
<circle cx="456.7" cy="354.5" r="5" fill="#b5342c" fill-opacity="0.28"/>
<circle cx="431.1" cy="384.4" r="5" fill="#b5342c" fill-opacity="0.28"/>
<circle cx="380.0" cy="399.4" r="5" fill="#b5342c" fill-opacity="0.28"/>
<circle cx="316.1" cy="205.0" r="5" fill="#b5342c" fill-opacity="0.28"/>
<circle cx="469.4" cy="414.4" r="5" fill="#b5342c" fill-opacity="0.28"/>
<circle cx="392.8" cy="294.7" r="5" fill="#b5342c" fill-opacity="0.28"/>
<circle cx="418.3" cy="414.4" r="5" fill="#b5342c" fill-opacity="0.28"/>
<circle cx="341.7" cy="309.7" r="5" fill="#b5342c" fill-opacity="0.28"/>
<circle cx="354.4" cy="459.2" r="5" fill="#b5342c" fill-opacity="0.28"/>
<circle cx="418.3" cy="249.8" r="5" fill="#b5342c" fill-opacity="0.28"/>
<circle cx="482.2" cy="459.2" r="5" fill="#b5342c" fill-opacity="0.28"/>
<circle cx="367.2" cy="324.6" r="5" fill="#b5342c" fill-opacity="0.28"/>
<circle cx="367.2" cy="399.4" r="5" fill="#b5342c" fill-opacity="0.28"/>
<circle cx="303.3" cy="354.5" r="5" fill="#b5342c" fill-opacity="0.28"/>
<circle cx="469.4" cy="339.6" r="5" fill="#b5342c" fill-opacity="0.28"/>
<circle cx="456.7" cy="354.5" r="5" fill="#b5342c" fill-opacity="0.28"/>
<circle cx="431.1" cy="309.7" r="5" fill="#b5342c" fill-opacity="0.28"/>
<circle cx="443.9" cy="354.5" r="5" fill="#b5342c" fill-opacity="0.28"/>
<circle cx="418.3" cy="459.2" r="5" fill="#b5342c" fill-opacity="0.28"/>
<line x1="159" y1="288" x2="601" y2="394" stroke="#b5342c" stroke-width="4.5"/>
<circle cx="312" cy="325" r="9" fill="white" stroke="#b5342c" stroke-width="4"/>
<text x="312.1045831562275" y="284.61538461538464" text-anchor="middle" font-size="17" font-weight="bold" fill="#b5342c" font-family="Helvetica, Arial, sans-serif">zero crossing 0.35</text>
<text x="312.1045831562275" y="306.61538461538464" text-anchor="middle" font-size="14.5" font-weight="normal" fill="#6b7684" font-family="Helvetica, Arial, sans-serif">fitted slope -0.21/round</text>
<text x="1040.0" y="158" text-anchor="middle" font-size="19" font-weight="bold" fill="#1a1a1a" font-family="Helvetica, Arial, sans-serif">frozen base judge  (81 transitions)</text>
<line x1="820" y1="540" x2="1280" y2="540" stroke="#e4e4e0" stroke-width="1"/>
<text x="808" y="545.0" text-anchor="end" font-size="14" font-weight="normal" fill="#6b7684" font-family="Helvetica, Arial, sans-serif">-0.4</text>
<line x1="820" y1="432" x2="1280" y2="432" stroke="#e4e4e0" stroke-width="1"/>
<text x="808" y="437.30769230769226" text-anchor="end" font-size="14" font-weight="normal" fill="#6b7684" font-family="Helvetica, Arial, sans-serif">-0.2</text>
<line x1="820" y1="325" x2="1280" y2="325" stroke="#1a1a1a" stroke-width="2.5"/>
<text x="808" y="329.61538461538464" text-anchor="end" font-size="14" font-weight="normal" fill="#6b7684" font-family="Helvetica, Arial, sans-serif">0</text>
<line x1="820" y1="217" x2="1280" y2="217" stroke="#e4e4e0" stroke-width="1"/>
<text x="808" y="221.9230769230769" text-anchor="end" font-size="14" font-weight="normal" fill="#6b7684" font-family="Helvetica, Arial, sans-serif">+0.2</text>
<text x="820" y="566.0" text-anchor="middle" font-size="14" font-weight="normal" fill="#6b7684" font-family="Helvetica, Arial, sans-serif">0</text>
<text x="935.0" y="566.0" text-anchor="middle" font-size="14" font-weight="normal" fill="#6b7684" font-family="Helvetica, Arial, sans-serif">0.25</text>
<text x="1050.0" y="566.0" text-anchor="middle" font-size="14" font-weight="normal" fill="#6b7684" font-family="Helvetica, Arial, sans-serif">0.5</text>
<text x="1165.0" y="566.0" text-anchor="middle" font-size="14" font-weight="normal" fill="#6b7684" font-family="Helvetica, Arial, sans-serif">0.75</text>
<text x="1280" y="566.0" text-anchor="middle" font-size="14" font-weight="normal" fill="#6b7684" font-family="Helvetica, Arial, sans-serif">1</text>
<text x="1040.0" y="592.0" text-anchor="middle" font-size="14.5" font-weight="normal" fill="#6b7684" font-family="Helvetica, Arial, sans-serif">risk coordinate this round</text>
<circle cx="1075.6" cy="369.5" r="5" fill="#1a1a1a" fill-opacity="0.28"/>
<circle cx="1037.2" cy="249.8" r="5" fill="#1a1a1a" fill-opacity="0.28"/>
<circle cx="1101.1" cy="354.5" r="5" fill="#1a1a1a" fill-opacity="0.28"/>
<circle cx="1075.6" cy="399.4" r="5" fill="#1a1a1a" fill-opacity="0.28"/>
<circle cx="1011.7" cy="459.2" r="5" fill="#1a1a1a" fill-opacity="0.28"/>
<circle cx="1113.9" cy="339.6" r="5" fill="#1a1a1a" fill-opacity="0.28"/>
<circle cx="1101.1" cy="399.4" r="5" fill="#1a1a1a" fill-opacity="0.28"/>
<circle cx="1037.2" cy="339.6" r="5" fill="#1a1a1a" fill-opacity="0.28"/>
<circle cx="1024.4" cy="324.6" r="5" fill="#1a1a1a" fill-opacity="0.28"/>
<circle cx="1024.4" cy="399.4" r="5" fill="#1a1a1a" fill-opacity="0.28"/>
<circle cx="1126.7" cy="384.4" r="5" fill="#1a1a1a" fill-opacity="0.28"/>
<circle cx="1075.6" cy="384.4" r="5" fill="#1a1a1a" fill-opacity="0.28"/>
<circle cx="1024.4" cy="294.7" r="5" fill="#1a1a1a" fill-opacity="0.28"/>
<circle cx="1050.0" cy="414.4" r="5" fill="#1a1a1a" fill-opacity="0.28"/>
<circle cx="973.3" cy="399.4" r="5" fill="#1a1a1a" fill-opacity="0.28"/>
<circle cx="1088.3" cy="339.6" r="5" fill="#1a1a1a" fill-opacity="0.28"/>
<circle cx="1075.6" cy="369.5" r="5" fill="#1a1a1a" fill-opacity="0.28"/>
<circle cx="1037.2" cy="399.4" r="5" fill="#1a1a1a" fill-opacity="0.28"/>
<circle cx="973.3" cy="384.4" r="5" fill="#1a1a1a" fill-opacity="0.28"/>
<circle cx="922.2" cy="324.6" r="5" fill="#1a1a1a" fill-opacity="0.28"/>
<circle cx="1126.7" cy="369.5" r="5" fill="#1a1a1a" fill-opacity="0.28"/>
<circle cx="1088.3" cy="474.2" r="5" fill="#1a1a1a" fill-opacity="0.28"/>
<circle cx="960.6" cy="354.5" r="5" fill="#1a1a1a" fill-opacity="0.28"/>
<circle cx="935.0" cy="339.6" r="5" fill="#1a1a1a" fill-opacity="0.28"/>
<circle cx="922.2" cy="384.4" r="5" fill="#1a1a1a" fill-opacity="0.28"/>
<circle cx="1113.9" cy="429.3" r="5" fill="#1a1a1a" fill-opacity="0.28"/>
<circle cx="1024.4" cy="205.0" r="5" fill="#1a1a1a" fill-opacity="0.28"/>
<circle cx="1126.7" cy="429.3" r="5" fill="#1a1a1a" fill-opacity="0.28"/>
<circle cx="1037.2" cy="369.5" r="5" fill="#1a1a1a" fill-opacity="0.28"/>
<circle cx="998.9" cy="369.5" r="5" fill="#1a1a1a" fill-opacity="0.28"/>
<circle cx="1101.1" cy="294.7" r="5" fill="#1a1a1a" fill-opacity="0.28"/>
<circle cx="1126.7" cy="414.4" r="5" fill="#1a1a1a" fill-opacity="0.28"/>
<circle cx="1050.0" cy="429.3" r="5" fill="#1a1a1a" fill-opacity="0.28"/>
<circle cx="960.6" cy="339.6" r="5" fill="#1a1a1a" fill-opacity="0.28"/>
<circle cx="947.8" cy="219.9" r="5" fill="#1a1a1a" fill-opacity="0.28"/>
<circle cx="1075.6" cy="234.9" r="5" fill="#1a1a1a" fill-opacity="0.28"/>
<circle cx="1152.2" cy="369.5" r="5" fill="#1a1a1a" fill-opacity="0.28"/>
<circle cx="1113.9" cy="504.1" r="5" fill="#1a1a1a" fill-opacity="0.28"/>
<circle cx="960.6" cy="384.4" r="5" fill="#1a1a1a" fill-opacity="0.28"/>
<circle cx="909.4" cy="294.7" r="5" fill="#1a1a1a" fill-opacity="0.28"/>
<circle cx="1113.9" cy="294.7" r="5" fill="#1a1a1a" fill-opacity="0.28"/>
<circle cx="1139.4" cy="444.3" r="5" fill="#1a1a1a" fill-opacity="0.28"/>
<circle cx="1037.2" cy="309.7" r="5" fill="#1a1a1a" fill-opacity="0.28"/>
<circle cx="1050.0" cy="399.4" r="5" fill="#1a1a1a" fill-opacity="0.28"/>
<circle cx="986.1" cy="279.7" r="5" fill="#1a1a1a" fill-opacity="0.28"/>
<circle cx="1101.1" cy="354.5" r="5" fill="#1a1a1a" fill-opacity="0.28"/>
<circle cx="1075.6" cy="354.5" r="5" fill="#1a1a1a" fill-opacity="0.28"/>
<circle cx="1050.0" cy="339.6" r="5" fill="#1a1a1a" fill-opacity="0.28"/>
<circle cx="1037.2" cy="399.4" r="5" fill="#1a1a1a" fill-opacity="0.28"/>
<circle cx="973.3" cy="309.7" r="5" fill="#1a1a1a" fill-opacity="0.28"/>
<circle cx="1113.9" cy="279.7" r="5" fill="#1a1a1a" fill-opacity="0.28"/>
<circle cx="1152.2" cy="519.1" r="5" fill="#1a1a1a" fill-opacity="0.28"/>
<circle cx="986.1" cy="459.2" r="5" fill="#1a1a1a" fill-opacity="0.28"/>
<circle cx="871.1" cy="384.4" r="5" fill="#1a1a1a" fill-opacity="0.28"/>
<circle cx="820.0" cy="279.7" r="5" fill="#1a1a1a" fill-opacity="0.28"/>
<circle cx="1088.3" cy="324.6" r="5" fill="#1a1a1a" fill-opacity="0.28"/>
<circle cx="1088.3" cy="399.4" r="5" fill="#1a1a1a" fill-opacity="0.28"/>
<circle cx="1024.4" cy="249.8" r="5" fill="#1a1a1a" fill-opacity="0.28"/>
<circle cx="1088.3" cy="399.4" r="5" fill="#1a1a1a" fill-opacity="0.28"/>
<circle cx="1024.4" cy="429.3" r="5" fill="#1a1a1a" fill-opacity="0.28"/>
<circle cx="1062.8" cy="219.9" r="5" fill="#1a1a1a" fill-opacity="0.28"/>
<circle cx="1152.2" cy="354.5" r="5" fill="#1a1a1a" fill-opacity="0.28"/>
<circle cx="1126.7" cy="399.4" r="5" fill="#1a1a1a" fill-opacity="0.28"/>
<circle cx="1062.8" cy="414.4" r="5" fill="#1a1a1a" fill-opacity="0.28"/>
<circle cx="986.1" cy="309.7" r="5" fill="#1a1a1a" fill-opacity="0.28"/>
<circle cx="1139.4" cy="414.4" r="5" fill="#1a1a1a" fill-opacity="0.28"/>
<circle cx="1062.8" cy="414.4" r="5" fill="#1a1a1a" fill-opacity="0.28"/>
<circle cx="986.1" cy="489.1" r="5" fill="#1a1a1a" fill-opacity="0.28"/>
<circle cx="845.6" cy="354.5" r="5" fill="#1a1a1a" fill-opacity="0.28"/>
<circle cx="820.0" cy="279.7" r="5" fill="#1a1a1a" fill-opacity="0.28"/>
<circle cx="1113.9" cy="294.7" r="5" fill="#1a1a1a" fill-opacity="0.28"/>
<circle cx="1139.4" cy="369.5" r="5" fill="#1a1a1a" fill-opacity="0.28"/>
<circle cx="1101.1" cy="399.4" r="5" fill="#1a1a1a" fill-opacity="0.28"/>
<circle cx="1037.2" cy="369.5" r="5" fill="#1a1a1a" fill-opacity="0.28"/>
<circle cx="998.9" cy="399.4" r="5" fill="#1a1a1a" fill-opacity="0.28"/>
<circle cx="1139.4" cy="309.7" r="5" fill="#1a1a1a" fill-opacity="0.28"/>
<circle cx="1152.2" cy="414.4" r="5" fill="#1a1a1a" fill-opacity="0.28"/>
<circle cx="1075.6" cy="309.7" r="5" fill="#1a1a1a" fill-opacity="0.28"/>
<circle cx="1088.3" cy="414.4" r="5" fill="#1a1a1a" fill-opacity="0.28"/>
<circle cx="1011.7" cy="339.6" r="5" fill="#1a1a1a" fill-opacity="0.28"/>
<circle cx="1113.9" cy="399.4" r="5" fill="#1a1a1a" fill-opacity="0.28"/>
<line x1="829" y1="314" x2="1271" y2="414" stroke="#1a1a1a" stroke-width="4.5"/>
<circle cx="874" cy="325" r="9" fill="white" stroke="#1a1a1a" stroke-width="4"/>
<text x="874.3857331571993" y="284.61538461538464" text-anchor="middle" font-size="17" font-weight="bold" fill="#1a1a1a" font-family="Helvetica, Arial, sans-serif">zero crossing 0.12</text>
<text x="874.3857331571993" y="306.61538461538464" text-anchor="middle" font-size="14.5" font-weight="normal" fill="#6b7684" font-family="Helvetica, Arial, sans-serif">fitted slope -0.19/round</text>
<rect x="46" y="646" width="1308" height="112" fill="#eef5ee" stroke="#1a1a1a" stroke-width="2.5"/>
<text x="66" y="678" text-anchor="start" font-size="17.5" font-weight="bold" fill="#1a1a1a" font-family="Helvetica, Arial, sans-serif">No saddle, no second well (bistability in only 19% of bootstraps). The zero crossing differs by judge (0.35 self,</text>
<text x="66" y="704" text-anchor="start" font-size="17.5" font-weight="bold" fill="#1a1a1a" font-family="Helvetica, Arial, sans-serif">0.12 frozen) — a DESCRIPTIVE equilibrium, not a demonstrated attractor: fit R² ≈ 0.05–0.09, and regression to the</text>
<text x="66" y="730" text-anchor="start" font-size="17.5" font-weight="bold" fill="#1a1a1a" font-family="Helvetica, Arial, sans-serif">mean on a bounded noisy coordinate produces the same slope. Judge-dependence is now a pre-registered K1/K2 test.</text>
</svg>