<svg xmlns="http://www.w3.org/2000/svg" viewBox="0 0 1400 740" font-family="Helvetica, Arial, sans-serif">
<rect width="1400" height="740" fill="white"/>
<text x="700.0" y="52" text-anchor="middle" font-size="32" font-weight="bold" fill="#1a1a1a" font-family="Helvetica, Arial, sans-serif">The picture: one shallow valley per axis — the judge sets the bottom,</text>
<text x="700.0" y="88" text-anchor="middle" font-size="32" font-weight="bold" fill="#1a1a1a" font-family="Helvetica, Arial, sans-serif">noise sets the width, the seed sets where you land</text>
<text x="700.0" y="118" text-anchor="middle" font-size="15.5" font-weight="normal" fill="#6b7684" font-family="Helvetica, Arial, sans-serif">each dot = one rollout's final risk coordinate; valley curve = the fitted attractor (pull ≈ 0.2/round); dashed rail = where OLMo pins under both judges</text>
<line x1="150" y1="320" x2="1200" y2="320" stroke="#6b7684" stroke-width="2"/>
<line x1="150" y1="320" x2="150" y2="327" stroke="#6b7684" stroke-width="2"/>
<line x1="412" y1="320" x2="412" y2="327" stroke="#6b7684" stroke-width="2"/>
<line x1="675" y1="320" x2="675" y2="327" stroke="#6b7684" stroke-width="2"/>
<line x1="938" y1="320" x2="938" y2="327" stroke="#6b7684" stroke-width="2"/>
<line x1="1200" y1="320" x2="1200" y2="327" stroke="#6b7684" stroke-width="2"/>
<path d="M 150 256 L 163 258 L 176 260 L 189 262 L 202 263 L 216 265 L 229 267 L 242 269 L 255 271 L 268 273 L 281 275 L 294 278 L 308 280 L 321 282 L 334 284 L 347 286 L 360 287 L 373 289 L 386 291 L 399 293 L 412 294 L 426 295 L 439 297 L 452 298 L 465 298 L 478 299 L 491 300 L 504 300 L 518 300 L 531 300 L 544 300 L 557 299 L 570 299 L 583 298 L 596 297 L 609 296 L 622 294 L 636 293 L 649 291 L 662 290 L 675 288 L 688 286 L 701 284 L 714 282 L 728 280 L 741 278 L 754 276 L 767 274 L 780 272 L 793 270 L 806 268 L 819 266 L 832 264 L 846 262 L 859 260 L 872 259 L 885 257 L 898 255 L 911 254 L 924 253 L 938 251 L 951 250 L 964 249 L 977 248 L 990 247 L 1003 246 L 1016 245 L 1029 244 L 1042 244 L 1056 243 L 1069 242 L 1082 242 L 1095 241 L 1108 241 L 1121 241 L 1134 240 L 1148 240 L 1161 240 L 1174 239 L 1187 239 L 1200 239" fill="none" stroke="#b5342c" stroke-width="3.5" stroke-opacity="0.55"/>
<line x1="520" y1="312" x2="520" y2="224" stroke="#b5342c" stroke-width="2" stroke-dasharray="6 5"/>
<text x="519.5999999999999" y="214" text-anchor="middle" font-size="17.5" font-weight="bold" fill="#b5342c" font-family="Helvetica, Arial, sans-serif">self-judge: bottom at 0.35</text>
<circle cx="791.7" cy="307.1" r="7" fill="#b5342c" fill-opacity="0.7" stroke="white" stroke-width="1.4"/>
<circle cx="879.2" cy="303.5" r="7" fill="#b5342c" fill-opacity="0.7" stroke="white" stroke-width="1.4"/>
<circle cx="558.3" cy="305.6" r="7" fill="#b5342c" fill-opacity="0.7" stroke="white" stroke-width="1.4"/>
<circle cx="558.3" cy="302.8" r="7" fill="#b5342c" fill-opacity="0.7" stroke="white" stroke-width="1.4"/>
<circle cx="908.3" cy="302.5" r="7" fill="#b5342c" fill-opacity="0.7" stroke="white" stroke-width="1.4"/>
<circle cx="879.2" cy="309.2" r="7" fill="#b5342c" fill-opacity="0.7" stroke="white" stroke-width="1.4"/>
<circle cx="179.2" cy="309.8" r="7" fill="#b5342c" fill-opacity="0.7" stroke="white" stroke-width="1.4"/>
<circle cx="558.3" cy="300.0" r="7" fill="#b5342c" fill-opacity="0.7" stroke="white" stroke-width="1.4"/>
<circle cx="704.2" cy="306.9" r="7" fill="#b5342c" fill-opacity="0.7" stroke="white" stroke-width="1.4"/>
<circle cx="529.2" cy="307.2" r="7" fill="#b5342c" fill-opacity="0.7" stroke="white" stroke-width="1.4"/>
<circle cx="995.8" cy="298.1" r="7" fill="#b5342c" fill-opacity="0.7" stroke="white" stroke-width="1.4"/>
<circle cx="645.8" cy="304.4" r="7" fill="#b5342c" fill-opacity="0.7" stroke="white" stroke-width="1.4"/>
<circle cx="441.7" cy="300.0" r="7" fill="#b5342c" fill-opacity="0.7" stroke="white" stroke-width="1.4"/>
<circle cx="295.8" cy="304.3" r="7" fill="#b5342c" fill-opacity="0.7" stroke="white" stroke-width="1.4"/>
<circle cx="208.3" cy="302.3" r="7" fill="#b5342c" fill-opacity="0.7" stroke="white" stroke-width="1.4"/>
<text x="1196" y="266" text-anchor="end" font-size="14.5" font-weight="bold" fill="#b5342c" font-family="Helvetica, Arial, sans-serif">15 seeds — spread 0.22, the full noise width</text>
<line x1="150" y1="540" x2="1200" y2="540" stroke="#6b7684" stroke-width="2"/>
<line x1="150" y1="540" x2="150" y2="547" stroke="#6b7684" stroke-width="2"/>
<text x="150" y="568" text-anchor="middle" font-size="14.5" font-weight="normal" fill="#6b7684" font-family="Helvetica, Arial, sans-serif">0</text>
<line x1="412" y1="540" x2="412" y2="547" stroke="#6b7684" stroke-width="2"/>
<text x="412.5" y="568" text-anchor="middle" font-size="14.5" font-weight="normal" fill="#6b7684" font-family="Helvetica, Arial, sans-serif">0.25</text>
<line x1="675" y1="540" x2="675" y2="547" stroke="#6b7684" stroke-width="2"/>
<text x="675.0" y="568" text-anchor="middle" font-size="14.5" font-weight="normal" fill="#6b7684" font-family="Helvetica, Arial, sans-serif">0.5</text>
<line x1="938" y1="540" x2="938" y2="547" stroke="#6b7684" stroke-width="2"/>
<text x="937.5" y="568" text-anchor="middle" font-size="14.5" font-weight="normal" fill="#6b7684" font-family="Helvetica, Arial, sans-serif">0.75</text>
<line x1="1200" y1="540" x2="1200" y2="547" stroke="#6b7684" stroke-width="2"/>
<text x="1200" y="568" text-anchor="middle" font-size="14.5" font-weight="normal" fill="#6b7684" font-family="Helvetica, Arial, sans-serif">1</text>
<path d="M 150 512 L 163 514 L 176 515 L 189 516 L 202 517 L 216 518 L 229 519 L 242 519 L 255 520 L 268 520 L 281 520 L 294 520 L 308 519 L 321 519 L 334 518 L 347 517 L 360 516 L 373 515 L 386 513 L 399 512 L 412 510 L 426 509 L 439 507 L 452 505 L 465 503 L 478 501 L 491 499 L 504 497 L 518 495 L 531 493 L 544 491 L 557 489 L 570 487 L 583 485 L 596 483 L 609 481 L 622 479 L 636 477 L 649 476 L 662 474 L 675 473 L 688 472 L 701 470 L 714 469 L 728 468 L 741 467 L 754 466 L 767 465 L 780 464 L 793 464 L 806 463 L 819 462 L 832 462 L 846 461 L 859 461 L 872 461 L 885 460 L 898 460 L 911 460 L 924 459 L 938 459 L 951 459 L 964 459 L 977 459 L 990 459 L 1003 459 L 1016 458 L 1029 458 L 1042 458 L 1056 458 L 1069 458 L 1082 458 L 1095 458 L 1108 458 L 1121 458 L 1134 458 L 1148 458 L 1161 458 L 1174 458 L 1187 458 L 1200 458" fill="none" stroke="#1a1a1a" stroke-width="3.5" stroke-opacity="0.55"/>
<line x1="274" y1="532" x2="274" y2="444" stroke="#1a1a1a" stroke-width="2" stroke-dasharray="6 5"/>
<text x="273.9" y="434" text-anchor="middle" font-size="17.5" font-weight="bold" fill="#1a1a1a" font-family="Helvetica, Arial, sans-serif">frozen base judge: bottom at 0.12</text>
<circle cx="325.0" cy="527.1" r="7" fill="#1a1a1a" fill-opacity="0.7" stroke="white" stroke-width="1.4"/>
<circle cx="470.8" cy="523.5" r="7" fill="#1a1a1a" fill-opacity="0.7" stroke="white" stroke-width="1.4"/>
<circle cx="354.2" cy="525.6" r="7" fill="#1a1a1a" fill-opacity="0.7" stroke="white" stroke-width="1.4"/>
<circle cx="383.3" cy="522.8" r="7" fill="#1a1a1a" fill-opacity="0.7" stroke="white" stroke-width="1.4"/>
<circle cx="266.7" cy="522.5" r="7" fill="#1a1a1a" fill-opacity="0.7" stroke="white" stroke-width="1.4"/>
<circle cx="470.8" cy="529.2" r="7" fill="#1a1a1a" fill-opacity="0.7" stroke="white" stroke-width="1.4"/>
<circle cx="645.8" cy="529.8" r="7" fill="#1a1a1a" fill-opacity="0.7" stroke="white" stroke-width="1.4"/>
<circle cx="412.5" cy="520.0" r="7" fill="#1a1a1a" fill-opacity="0.7" stroke="white" stroke-width="1.4"/>
<text x="1196" y="486" text-anchor="end" font-size="14.5" font-weight="bold" fill="#1a1a1a" font-family="Helvetica, Arial, sans-serif">8 seeds — spread 0.12, squeezed below noise (0.20)</text>
<line x1="1200" y1="240" x2="1200" y2="556" stroke="#6b7684" stroke-width="3" stroke-dasharray="10 7"/>
<text x="1196" y="228" text-anchor="end" font-size="14.5" font-weight="bold" fill="#6b7684" font-family="Helvetica, Arial, sans-serif">OLMo: pinned at the 1.0 rail (both judges)</text>
<text x="675.0" y="596" text-anchor="middle" font-size="15" font-weight="normal" fill="#6b7684" font-family="Helvetica, Arial, sans-serif">final risk coordinate after 5 rounds</text>
<rect x="46" y="624" width="1308" height="86" fill="#eef5ee" stroke="#1a1a1a" stroke-width="2.5"/>
<text x="66" y="656" text-anchor="start" font-size="17.5" font-weight="bold" fill="#1a1a1a" font-family="Helvetica, Arial, sans-serif">Same weak restoring dynamics everywhere; the judge's pre-existing preference sets the equilibrium, noise does the</text>
<text x="66" y="682" text-anchor="start" font-size="17.5" font-weight="bold" fill="#1a1a1a" font-family="Helvetica, Arial, sans-serif">diverging, and release wanders instead of retracing. Next: order-balanced baselines, round-r copy judges, seed ensembles.</text>
</svg>