<svg xmlns="http://www.w3.org/2000/svg" viewBox="0 0 1400 770" font-family="Helvetica, Arial, sans-serif">
<rect width="1400" height="770" fill="white"/>
<text x="700.0" y="52" text-anchor="middle" font-size="33" font-weight="bold" fill="#1a1a1a" font-family="Helvetica, Arial, sans-serif">One dial, two regimes: frozen judge decays every seed;</text>
<text x="700.0" y="88" text-anchor="middle" font-size="33" font-weight="bold" fill="#1a1a1a" font-family="Helvetica, Arial, sans-serif">the self-judge fans them out</text>
<text x="700.0" y="118" text-anchor="middle" font-size="16.5" font-weight="normal" fill="#6b7684" font-family="Helvetica, Arial, sans-serif">risk coordinate = P(choose the gamble) on held-out EV-neutral questions; identical starting weights and questions, only the judge and seed differ</text>
<text x="370.0" y="168" text-anchor="middle" font-size="19" font-weight="bold" fill="#1a1a1a" font-family="Helvetica, Arial, sans-serif">frozen base judge</text>
<line x1="150" y1="540" x2="610" y2="540" stroke="#e4e4e0" stroke-width="1"/>
<text x="138.0" y="545.0" text-anchor="end" font-size="14" font-weight="normal" fill="#6b7684" font-family="Helvetica, Arial, sans-serif">0</text>
<line x1="150" y1="455" x2="610" y2="455" stroke="#e4e4e0" stroke-width="1"/>
<text x="138.0" y="460.0" text-anchor="end" font-size="14" font-weight="normal" fill="#6b7684" font-family="Helvetica, Arial, sans-serif">0.25</text>
<line x1="150" y1="370" x2="610" y2="370" stroke="#e4e4e0" stroke-width="1"/>
<text x="138.0" y="375.0" text-anchor="end" font-size="14" font-weight="normal" fill="#6b7684" font-family="Helvetica, Arial, sans-serif">0.5</text>
<line x1="150" y1="285" x2="610" y2="285" stroke="#e4e4e0" stroke-width="1"/>
<text x="138.0" y="290.0" text-anchor="end" font-size="14" font-weight="normal" fill="#6b7684" font-family="Helvetica, Arial, sans-serif">0.75</text>
<line x1="150" y1="200" x2="610" y2="200" stroke="#e4e4e0" stroke-width="1"/>
<text x="138.0" y="205.0" text-anchor="end" font-size="14" font-weight="normal" fill="#6b7684" font-family="Helvetica, Arial, sans-serif">1</text>
<text x="150.0" y="566.0" text-anchor="middle" font-size="14.5" font-weight="normal" fill="#6b7684" font-family="Helvetica, Arial, sans-serif">0</text>
<text x="242.0" y="566.0" text-anchor="middle" font-size="14.5" font-weight="normal" fill="#6b7684" font-family="Helvetica, Arial, sans-serif">1</text>
<text x="334.0" y="566.0" text-anchor="middle" font-size="14.5" font-weight="normal" fill="#6b7684" font-family="Helvetica, Arial, sans-serif">2</text>
<text x="426.0" y="566.0" text-anchor="middle" font-size="14.5" font-weight="normal" fill="#6b7684" font-family="Helvetica, Arial, sans-serif">3</text>
<text x="518.0" y="566.0" text-anchor="middle" font-size="14.5" font-weight="normal" fill="#6b7684" font-family="Helvetica, Arial, sans-serif">4</text>
<text x="610.0" y="566.0" text-anchor="middle" font-size="14.5" font-weight="normal" fill="#6b7684" font-family="Helvetica, Arial, sans-serif">5</text>
<text x="370.0" y="592.0" text-anchor="middle" font-size="14.5" font-weight="normal" fill="#6b7684" font-family="Helvetica, Arial, sans-serif">round</text>
<path d="M 150 351 L 242 379 L 334 332 L 426 351 L 518 398 L 610 483" fill="none" stroke="#1a1a1a" stroke-width="3" stroke-opacity="0.55"/>
<path d="M 150 323 L 242 332 L 334 379 L 426 389 L 518 389 L 610 436" fill="none" stroke="#1a1a1a" stroke-width="3" stroke-opacity="0.55"/>
<path d="M 150 313 L 242 351 L 334 389 L 426 370 L 518 427 L 610 474" fill="none" stroke="#1a1a1a" stroke-width="3" stroke-opacity="0.55"/>
<path d="M 150 342 L 242 351 L 334 379 L 426 427 L 518 464 L 610 464" fill="none" stroke="#1a1a1a" stroke-width="3" stroke-opacity="0.55"/>
<path d="M 150 313 L 242 342 L 334 436 L 426 455 L 518 464 L 610 502" fill="none" stroke="#1a1a1a" stroke-width="3" stroke-opacity="0.55"/>
<path d="M 150 323 L 242 389 L 334 313 L 426 379 L 518 408 L 610 436" fill="none" stroke="#1a1a1a" stroke-width="3" stroke-opacity="0.55"/>
<path d="M 150 332 L 242 313 L 334 370 L 426 436 L 518 446 L 610 379" fill="none" stroke="#1a1a1a" stroke-width="3" stroke-opacity="0.55"/>
<path d="M 150 351 L 242 294 L 334 323 L 426 436 L 518 474 L 610 455" fill="none" stroke="#1a1a1a" stroke-width="3" stroke-opacity="0.55"/>
<text x="370.0" y="626" text-anchor="middle" font-size="15.5" font-weight="bold" fill="#6b7684" font-family="Helvetica, Arial, sans-serif">all 8 seeds decay toward caution (final spread sd 0.11)</text>
<text x="1040.0" y="168" text-anchor="middle" font-size="19" font-weight="bold" fill="#b5342c" font-family="Helvetica, Arial, sans-serif">self-judge (the adapter being trained)</text>
<line x1="820" y1="540" x2="1280" y2="540" stroke="#e4e4e0" stroke-width="1"/>
<text x="808.0" y="545.0" text-anchor="end" font-size="14" font-weight="normal" fill="#6b7684" font-family="Helvetica, Arial, sans-serif">0</text>
<line x1="820" y1="455" x2="1280" y2="455" stroke="#e4e4e0" stroke-width="1"/>
<text x="808.0" y="460.0" text-anchor="end" font-size="14" font-weight="normal" fill="#6b7684" font-family="Helvetica, Arial, sans-serif">0.25</text>
<line x1="820" y1="370" x2="1280" y2="370" stroke="#e4e4e0" stroke-width="1"/>
<text x="808.0" y="375.0" text-anchor="end" font-size="14" font-weight="normal" fill="#6b7684" font-family="Helvetica, Arial, sans-serif">0.5</text>
<line x1="820" y1="285" x2="1280" y2="285" stroke="#e4e4e0" stroke-width="1"/>
<text x="808.0" y="290.0" text-anchor="end" font-size="14" font-weight="normal" fill="#6b7684" font-family="Helvetica, Arial, sans-serif">0.75</text>
<line x1="820" y1="200" x2="1280" y2="200" stroke="#e4e4e0" stroke-width="1"/>
<text x="808.0" y="205.0" text-anchor="end" font-size="14" font-weight="normal" fill="#6b7684" font-family="Helvetica, Arial, sans-serif">1</text>
<text x="820.0" y="566.0" text-anchor="middle" font-size="14.5" font-weight="normal" fill="#6b7684" font-family="Helvetica, Arial, sans-serif">0</text>
<text x="912.0" y="566.0" text-anchor="middle" font-size="14.5" font-weight="normal" fill="#6b7684" font-family="Helvetica, Arial, sans-serif">1</text>
<text x="1004.0" y="566.0" text-anchor="middle" font-size="14.5" font-weight="normal" fill="#6b7684" font-family="Helvetica, Arial, sans-serif">2</text>
<text x="1096.0" y="566.0" text-anchor="middle" font-size="14.5" font-weight="normal" fill="#6b7684" font-family="Helvetica, Arial, sans-serif">3</text>
<text x="1188.0" y="566.0" text-anchor="middle" font-size="14.5" font-weight="normal" fill="#6b7684" font-family="Helvetica, Arial, sans-serif">4</text>
<text x="1280.0" y="566.0" text-anchor="middle" font-size="14.5" font-weight="normal" fill="#6b7684" font-family="Helvetica, Arial, sans-serif">5</text>
<text x="1040.0" y="592.0" text-anchor="middle" font-size="14.5" font-weight="normal" fill="#6b7684" font-family="Helvetica, Arial, sans-serif">round</text>
<path d="M 820 361 L 912 304 L 1004 304 L 1096 304 L 1188 257 L 1280 332" fill="none" stroke="#b5342c" stroke-width="3" stroke-opacity="0.55"/>
<path d="M 820 304 L 912 351 L 1004 294 L 1096 266 L 1188 323 L 1280 304" fill="none" stroke="#b5342c" stroke-width="3" stroke-opacity="0.55"/>
<path d="M 820 276 L 912 351 L 1004 417 L 1096 408 L 1188 455 L 1280 408" fill="none" stroke="#b5342c" stroke-width="3" stroke-opacity="0.55"/>
<path d="M 820 276 L 912 294 L 1004 323 L 1096 389 L 1188 408 L 1280 408" fill="none" stroke="#b5342c" stroke-width="3" stroke-opacity="0.55"/>
<path d="M 820 342 L 912 266 L 1004 332 L 1096 379 L 1188 313 L 1280 294" fill="none" stroke="#b5342c" stroke-width="3" stroke-opacity="0.55"/>
<path d="M 820 342 L 912 313 L 1004 247 L 1096 370 L 1188 285 L 1280 304" fill="none" stroke="#b5342c" stroke-width="3" stroke-opacity="0.55"/>
<path d="M 820 342 L 912 285 L 1004 342 L 1096 379 L 1188 493 L 1280 531" fill="none" stroke="#b5342c" stroke-width="3" stroke-opacity="0.55"/>
<path d="M 820 313 L 912 332 L 1004 332 L 1096 379 L 1188 361 L 1280 408" fill="none" stroke="#b5342c" stroke-width="3" stroke-opacity="0.55"/>
<path d="M 820 294 L 912 276 L 1004 304 L 1096 266 L 1188 361 L 1280 361" fill="none" stroke="#b5342c" stroke-width="3" stroke-opacity="0.55"/>
<path d="M 820 323 L 912 332 L 1004 379 L 1096 427 L 1188 417 L 1280 417" fill="none" stroke="#b5342c" stroke-width="3" stroke-opacity="0.55"/>
<path d="M 820 313 L 912 276 L 1004 313 L 1096 313 L 1188 266 L 1280 266" fill="none" stroke="#b5342c" stroke-width="3" stroke-opacity="0.55"/>
<path d="M 820 285 L 912 285 L 1004 313 L 1096 351 L 1188 342 L 1280 379" fill="none" stroke="#b5342c" stroke-width="3" stroke-opacity="0.55"/>
<path d="M 820 285 L 912 342 L 1004 332 L 1096 427 L 1188 351 L 1280 446" fill="none" stroke="#b5342c" stroke-width="3" stroke-opacity="0.55"/>
<path d="M 820 294 L 912 294 L 1004 427 L 1096 427 L 1188 436 L 1280 493" fill="none" stroke="#b5342c" stroke-width="3" stroke-opacity="0.55"/>
<path d="M 820 323 L 912 370 L 1004 342 L 1096 464 L 1188 502 L 1280 521" fill="none" stroke="#b5342c" stroke-width="3" stroke-opacity="0.55"/>
<text x="1040.0" y="626" text-anchor="middle" font-size="15.5" font-weight="bold" fill="#6b7684" font-family="Helvetica, Arial, sans-serif">15 seeds end anywhere from 0.03 to 0.81 (final spread sd 0.24)</text>
<rect x="46" y="654" width="1308" height="86" fill="#eef5ee" stroke="#1a1a1a" stroke-width="2.5"/>
<text x="66" y="686" text-anchor="start" font-size="17.5" font-weight="bold" fill="#1a1a1a" font-family="Helvetica, Arial, sans-serif">The only difference between the two panels is who judges. Same organism, same questions, same optimizer:</text>
<text x="66" y="712" text-anchor="start" font-size="17.5" font-weight="bold" fill="#1a1a1a" font-family="Helvetica, Arial, sans-serif">the frozen base judge sends every seed down; the self-judge makes the endpoint seed-dependent.</text>
</svg>