<svg xmlns="http://www.w3.org/2000/svg" viewBox="0 0 1240 742" font-family="Helvetica, Arial, sans-serif">
<rect width="1240" height="742" fill="white"/>
<text x="44.0" y="52.0" font-family="Helvetica, Arial, sans-serif" font-size="22" fill="#1a1a1a" font-weight="bold" text-anchor="start">Three held-out runs vs the forecast rolled from round 1: mean path and predictive band</text>
<text x="44.0" y="98.0" font-family="Helvetica, Arial, sans-serif" font-size="16" fill="#6b7684" font-weight="normal" text-anchor="start">Each panel is one held-out run. The forecast reads only round 1 — own mean, spread, agreement, value — and never sees that run's later rounds.</text>
<line x1="44.0" y1="123.0" x2="78.0" y2="123.0" stroke="#1a1a1a" stroke-width="3"/>
<circle cx="61" cy="123" r="4" fill="#1a1a1a"/>
<text x="86.0" y="128.0" font-family="Helvetica, Arial, sans-serif" font-size="16" fill="#1a1a1a" font-weight="normal" text-anchor="start">observed trajectory (measured value each round)</text>
<line x1="470.0" y1="123.0" x2="504.0" y2="123.0" stroke="#2867b5" stroke-width="3" stroke-dasharray="7 5"/>
<text x="512.0" y="128.0" font-family="Helvetica, Arial, sans-serif" font-size="16" fill="#1a1a1a" font-weight="normal" text-anchor="start">deterministic path  k = clip(pool + rho·sigma)</text>
<rect x="900.0" y="115.0" width="34.0" height="15.0" rx="2" fill="#cfe0f1"/>
<text x="942.0" y="128.0" font-family="Helvetica, Arial, sans-serif" font-size="16" fill="#1a1a1a" font-weight="normal" text-anchor="start">predictive band (10-90%)</text>
<text x="44.0" y="168.0" font-family="Helvetica, Arial, sans-serif" font-size="18" fill="#1a1a1a" font-weight="bold" text-anchor="start">A.  OLMo · judge: cautious copy</text>
<text x="44.0" y="188.0" font-family="Helvetica, Arial, sans-serif" font-size="14" fill="#6b7684" font-weight="normal" text-anchor="start">risk value · seed 2 · self-only pool</text>
<text x="44.0" y="206.0" font-family="Helvetica, Arial, sans-serif" font-size="14" fill="#6b7684" font-weight="normal" text-anchor="start">round-1 rho -0.17 · spread sigma 0.41</text>
<line x1="90.0" y1="536.0" x2="402.7" y2="536.0" stroke="#1a1a1a" stroke-width="1.6"/>
<text x="82.0" y="541.0" font-family="Helvetica, Arial, sans-serif" font-size="14" fill="#6b7684" font-weight="normal" text-anchor="end">0</text>
<line x1="90.0" y1="386.0" x2="402.7" y2="386.0" stroke="#e4e4e0" stroke-width="1.0"/>
<text x="82.0" y="391.0" font-family="Helvetica, Arial, sans-serif" font-size="14" fill="#6b7684" font-weight="normal" text-anchor="end">0.5</text>
<line x1="90.0" y1="236.0" x2="402.7" y2="236.0" stroke="#e4e4e0" stroke-width="1.0"/>
<text x="82.0" y="241.0" font-family="Helvetica, Arial, sans-serif" font-size="14" fill="#6b7684" font-weight="normal" text-anchor="end">1</text>
<line x1="90.0" y1="236.0" x2="90.0" y2="536.0" stroke="#1a1a1a" stroke-width="1.6"/>
<polygon points="90.0,472.9 168.2,401.2 246.3,396.9 324.5,374.5 402.7,349.0 402.7,536.0 324.5,536.0 246.3,533.6 168.2,485.8 90.0,472.9" fill="#cfe0f1" fill-opacity="0.7" stroke="none"/>
<polyline points="90.0,472.9 168.2,443.9 246.3,464.3 324.5,484.7 402.7,505.1" fill="none" stroke="#2867b5" stroke-width="2.4" stroke-dasharray="7 5" stroke-linejoin="round"/>
<polyline points="90.0,472.9 168.2,413.3 246.3,461.0 324.5,498.5 402.7,490.9" fill="none" stroke="#1a1a1a" stroke-width="2.8" stroke-linejoin="round"/>
<circle cx="90.0" cy="472.9" r="4.2" fill="#1a1a1a"/>
<circle cx="168.2" cy="413.3" r="4.2" fill="#1a1a1a"/>
<circle cx="246.3" cy="461.0" r="4.2" fill="#1a1a1a"/>
<circle cx="324.5" cy="498.5" r="4.2" fill="#1a1a1a"/>
<circle cx="402.7" cy="490.9" r="4.2" fill="#1a1a1a"/>
<text x="246.3" y="562.0" font-family="Helvetica, Arial, sans-serif" font-size="14" fill="#6b7684" font-weight="normal" text-anchor="middle">selection round →</text>
<text x="436.7" y="168.0" font-family="Helvetica, Arial, sans-serif" font-size="18" fill="#1a1a1a" font-weight="bold" text-anchor="start">B.  Qwen · judge: self</text>
<text x="436.7" y="188.0" font-family="Helvetica, Arial, sans-serif" font-size="14" fill="#6b7684" font-weight="normal" text-anchor="start">self-report value · seed 44 · self-only pool</text>
<text x="436.7" y="206.0" font-family="Helvetica, Arial, sans-serif" font-size="14" fill="#6b7684" font-weight="normal" text-anchor="start">round-1 rho +0.32 · spread sigma 0.37</text>
<line x1="482.7" y1="536.0" x2="795.3" y2="536.0" stroke="#1a1a1a" stroke-width="1.6"/>
<text x="474.7" y="541.0" font-family="Helvetica, Arial, sans-serif" font-size="14" fill="#6b7684" font-weight="normal" text-anchor="end">0</text>
<line x1="482.7" y1="386.0" x2="795.3" y2="386.0" stroke="#e4e4e0" stroke-width="1.0"/>
<text x="474.7" y="391.0" font-family="Helvetica, Arial, sans-serif" font-size="14" fill="#6b7684" font-weight="normal" text-anchor="end">0.5</text>
<line x1="482.7" y1="236.0" x2="795.3" y2="236.0" stroke="#e4e4e0" stroke-width="1.0"/>
<text x="474.7" y="241.0" font-family="Helvetica, Arial, sans-serif" font-size="14" fill="#6b7684" font-weight="normal" text-anchor="end">1</text>
<line x1="482.7" y1="236.0" x2="482.7" y2="536.0" stroke="#1a1a1a" stroke-width="1.6"/>
<polygon points="482.7,371.9 560.8,264.5 639.0,236.0 717.2,236.0 795.3,236.0 795.3,396.4 717.2,374.7 639.0,371.9 560.8,387.4 482.7,371.9" fill="#cfe0f1" fill-opacity="0.7" stroke="none"/>
<polyline points="482.7,371.9 560.8,326.7 639.0,291.7 717.2,256.7 795.3,236.0" fill="none" stroke="#2867b5" stroke-width="2.4" stroke-dasharray="7 5" stroke-linejoin="round"/>
<polyline points="482.7,371.9 560.8,336.5 639.0,249.1 717.2,236.0 795.3,261.1" fill="none" stroke="#1a1a1a" stroke-width="2.8" stroke-linejoin="round"/>
<circle cx="482.7" cy="371.9" r="4.2" fill="#1a1a1a"/>
<circle cx="560.8" cy="336.5" r="4.2" fill="#1a1a1a"/>
<circle cx="639.0" cy="249.1" r="4.2" fill="#1a1a1a"/>
<circle cx="717.2" cy="236.0" r="4.2" fill="#1a1a1a"/>
<circle cx="795.3" cy="261.1" r="4.2" fill="#1a1a1a"/>
<text x="639.0" y="562.0" font-family="Helvetica, Arial, sans-serif" font-size="14" fill="#6b7684" font-weight="normal" text-anchor="middle">selection round →</text>
<text x="829.3" y="168.0" font-family="Helvetica, Arial, sans-serif" font-size="18" fill="#1a1a1a" font-weight="bold" text-anchor="start">C.  Qwen · judge: score oracle</text>
<text x="829.3" y="188.0" font-family="Helvetica, Arial, sans-serif" font-size="14" fill="#6b7684" font-weight="normal" text-anchor="start">self-report value · seed 101 · self-only pool</text>
<text x="829.3" y="206.0" font-family="Helvetica, Arial, sans-serif" font-size="14" fill="#6b7684" font-weight="normal" text-anchor="start">round-1 rho -1.00 · spread sigma 0.14</text>
<line x1="875.3" y1="536.0" x2="1188.0" y2="536.0" stroke="#1a1a1a" stroke-width="1.6"/>
<text x="867.3" y="541.0" font-family="Helvetica, Arial, sans-serif" font-size="14" fill="#6b7684" font-weight="normal" text-anchor="end">0</text>
<line x1="875.3" y1="386.0" x2="1188.0" y2="386.0" stroke="#e4e4e0" stroke-width="1.0"/>
<text x="867.3" y="391.0" font-family="Helvetica, Arial, sans-serif" font-size="14" fill="#6b7684" font-weight="normal" text-anchor="end">0.5</text>
<line x1="875.3" y1="236.0" x2="1188.0" y2="236.0" stroke="#e4e4e0" stroke-width="1.0"/>
<text x="867.3" y="241.0" font-family="Helvetica, Arial, sans-serif" font-size="14" fill="#6b7684" font-weight="normal" text-anchor="end">1</text>
<line x1="875.3" y1="236.0" x2="875.3" y2="536.0" stroke="#1a1a1a" stroke-width="1.6"/>
<polygon points="875.3,236.3 953.5,255.5 1031.7,278.1 1109.8,308.0 1188.0,317.5 1188.0,490.5 1109.8,457.7 1031.7,424.2 953.5,372.7 875.3,236.3" fill="#cfe0f1" fill-opacity="0.7" stroke="none"/>
<polyline points="875.3,236.3 953.5,314.4 1031.7,356.9 1109.8,399.4 1188.0,441.9" fill="none" stroke="#2867b5" stroke-width="2.4" stroke-dasharray="7 5" stroke-linejoin="round"/>
<polyline points="875.3,236.3 953.5,243.7 1031.7,369.6 1109.8,403.3 1188.0,436.6" fill="none" stroke="#1a1a1a" stroke-width="2.8" stroke-linejoin="round"/>
<circle cx="875.3" cy="236.3" r="4.2" fill="#1a1a1a"/>
<circle cx="953.5" cy="243.7" r="4.2" fill="#1a1a1a"/>
<circle cx="1031.7" cy="369.6" r="4.2" fill="#1a1a1a"/>
<circle cx="1109.8" cy="403.3" r="4.2" fill="#1a1a1a"/>
<circle cx="1188.0" cy="436.6" r="4.2" fill="#1a1a1a"/>
<text x="1031.7" y="562.0" font-family="Helvetica, Arial, sans-serif" font-size="14" fill="#6b7684" font-weight="normal" text-anchor="middle">selection round →</text>
<rect x="44.0" y="586.0" width="1152.0" height="64.0" rx="10" fill="#eef5ee" stroke="#3a7d44" stroke-width="1.6"/>
<text x="62.0" y="612.0" font-family="Helvetica, Arial, sans-serif" font-size="16" fill="#1a1a1a" font-weight="bold" text-anchor="start">45 held-out runs (leave-one-condition-out), endpoint coverage of the nominal-80% band:</text>
<text x="62.0" y="636.0" font-family="Helvetica, Arial, sans-serif" font-size="16" fill="#1a1a1a" font-weight="normal" text-anchor="start">deterministic path alone 22% (CRPS 0.135)   ·   with staged noise 89% (CRPS 0.092)</text>
<text x="44.0" y="674.0" font-family="Helvetica, Arial, sans-serif" font-size="13" fill="#6b7684" font-weight="normal" text-anchor="start">Panels: deterministic path and band regenerated with stdlib from experiments/spread_util_unified.json first-round state via the committed unit recurrence and staged-noise residual pools.</text>
<text x="44.0" y="692.0" font-family="Helvetica, Arial, sans-serif" font-size="13" fill="#6b7684" font-weight="normal" text-anchor="start">Evidence line read and asserted from experiments/trajectory_adjustment_bakeoff.json (primary_selection_driven_plus_swap).  Generator: spread-rollout-bakeoff.py</text>
</svg>