<svg xmlns="http://www.w3.org/2000/svg" viewBox="0 0 856 732" font-family="Helvetica, Arial, sans-serif">
<rect width="856" height="732" fill="white"/>
<defs>
<marker id="arr" viewBox="0 0 10 10" refX="9" refY="5"
 markerWidth="6" markerHeight="6" orient="auto-start-reverse">
 <path d="M 0 0 L 10 5 L 0 10 z" fill="#1a1a1a"/></marker>
<marker id="arrR" viewBox="0 0 10 10" refX="9" refY="5"
 markerWidth="6.5" markerHeight="6.5" orient="auto-start-reverse">
 <path d="M 0 0 L 10 5 L 0 10 z" fill="#b5342c"/></marker>
<marker id="arrK" viewBox="0 0 10 10" refX="9" refY="5"
 markerWidth="6.5" markerHeight="6.5" orient="auto-start-reverse">
 <path d="M 0 0 L 10 5 L 0 10 z" fill="#1a1a1a"/></marker>
<marker id="arrG" viewBox="0 0 10 10" refX="9" refY="5"
 markerWidth="6" markerHeight="6" orient="auto-start-reverse">
 <path d="M 0 0 L 10 5 L 0 10 z" fill="#6b7684"/></marker>
</defs>
<text x="60" y="58" font-family="Helvetica, Arial, sans-serif" font-size="28" fill="#1a1a1a" font-weight="bold" text-anchor="start">Two matched interventions — move one selection dial, read the value that follows</text>
<text x="60" y="88" font-family="Helvetica, Arial, sans-serif" font-size="16.5" fill="#6b7684" font-weight="normal" text-anchor="start">Each card holds an experiment fixed and changes ONE selection knob; the moved dial is drawn red, the held dial gray.</text>
<text x="60" y="110" font-family="Helvetica, Arial, sans-serif" font-size="16.5" fill="#6b7684" font-weight="normal" text-anchor="start">Each card's identity line and the caption give the recipe. Dotted line = the model's forecast from that run's round-1 measurements; shaded band = its 80% range.</text>
<rect x="44" y="168" width="372" height="536" rx="14" fill="#f7f9fb" stroke="#1a1a1a" stroke-width="2.5"/>
<circle cx="79" cy="198" r="17" fill="#1a1a1a"/>
<text x="79" y="204" font-family="Helvetica, Arial, sans-serif" font-size="20" fill="white" font-weight="bold" text-anchor="middle">1</text>
<text x="106" y="205" font-family="Helvetica, Arial, sans-serif" font-size="18.5" fill="#1a1a1a" font-weight="bold" text-anchor="start">Mix in base answers</text>
<text x="66" y="230" font-family="Helvetica, Arial, sans-serif" font-size="14.5" fill="#6b7684" font-weight="normal" text-anchor="start">Qwen self-report organism, score-oracle judge</text>
<text x="66" y="250" font-family="Helvetica, Arial, sans-serif" font-size="14.5" fill="#6b7684" font-weight="normal" text-anchor="start">the oracle scores and keeps the 2 best of 6;</text>
<text x="66" y="270" font-family="Helvetica, Arial, sans-serif" font-size="14.5" fill="#6b7684" font-weight="normal" text-anchor="start">two runs, same seed, differ only in the pool</text>
<line x1="66" y1="286" x2="394" y2="286" stroke="#d8dee6" stroke-width="1.5"/>
<text x="66" y="304" font-family="Helvetica, Arial, sans-serif" font-size="13" fill="#6b7684" font-weight="normal" text-anchor="start">Both selection dials, in the two conditions (from → to)</text>
<text x="66" y="323" font-family="Helvetica, Arial, sans-serif" font-size="15.5" fill="#1a1a1a" font-weight="bold" text-anchor="start">spread σ</text>
<text x="346" y="323" font-family="Helvetica, Arial, sans-serif" font-size="15.5" fill="#b5342c" font-weight="bold" text-anchor="end">0.00 → 0.31</text>
<line x1="66" y1="346" x2="346" y2="346" stroke="#6b7684" stroke-width="3" stroke-linecap="round"/>
<text x="66" y="363" font-family="Helvetica, Arial, sans-serif" font-size="12.5" fill="#6b7684" font-weight="normal" text-anchor="middle">0</text>
<text x="346" y="363" font-family="Helvetica, Arial, sans-serif" font-size="12.5" fill="#6b7684" font-weight="normal" text-anchor="middle">0.5</text>
<line x1="66.0" y1="336" x2="239.6" y2="336" stroke="#b5342c" stroke-width="3.2" marker-end="url(#arrR)"/>
<circle cx="66.0" cy="346" r="6" fill="white" stroke="#1a1a1a" stroke-width="2.4"/>
<circle cx="239.6" cy="346" r="7" fill="#b5342c" stroke="white" stroke-width="1.8"/>
<text x="66" y="381" font-family="Helvetica, Arial, sans-serif" font-size="15.5" fill="#1a1a1a" font-weight="bold" text-anchor="start">agreement ρ</text>
<text x="346" y="381" font-family="Helvetica, Arial, sans-serif" font-size="15.5" fill="#6b7684" font-weight="bold" text-anchor="end">−1.00</text>
<line x1="66" y1="404" x2="346" y2="404" stroke="#6b7684" stroke-width="3" stroke-linecap="round"/>
<line x1="206.0" y1="398" x2="206.0" y2="410" stroke="#6b7684" stroke-width="2"/>
<text x="66" y="421" font-family="Helvetica, Arial, sans-serif" font-size="12.5" fill="#6b7684" font-weight="normal" text-anchor="middle">−1</text>
<text x="206.0" y="421" font-family="Helvetica, Arial, sans-serif" font-size="12.5" fill="#6b7684" font-weight="normal" text-anchor="middle">0</text>
<text x="346" y="421" font-family="Helvetica, Arial, sans-serif" font-size="12.5" fill="#6b7684" font-weight="normal" text-anchor="middle">+1</text>
<circle cx="66.0" cy="404" r="7" fill="#6b7684" stroke="white" stroke-width="1.8"/>
<text x="66" y="448" font-family="Helvetica, Arial, sans-serif" font-size="15" fill="#1a1a1a" font-weight="bold" text-anchor="start">The measured value that followed</text>
<polygon points="104.0,517.2 159.5,475.8 215.0,487.4 270.5,481.9 326.0,478.3 326.0,556.3 270.5,545.0 215.0,545.9 159.5,537.3 104.0,517.2" fill="#3a7d44" fill-opacity="0.13"/>
<polygon points="104.0,517.2 159.5,511.4 215.0,549.6 270.5,562.8 326.0,574.7 326.0,600.0 270.5,600.0 215.0,599.9 159.5,577.0 104.0,517.2" fill="#b5342c" fill-opacity="0.13"/>
<polyline points="104.0,517.2 159.5,515.3 215.0,515.3 270.5,515.3 326.0,515.3" fill="none" stroke="#3a7d44" stroke-width="2" stroke-dasharray="2 4" stroke-linecap="round" stroke-opacity="0.85"/>
<polyline points="104.0,517.2 159.5,554.3 215.0,573.3 270.5,583.0 326.0,587.7" fill="none" stroke="#b5342c" stroke-width="2" stroke-dasharray="2 4" stroke-linecap="round" stroke-opacity="0.85"/>
<line x1="104" y1="600" x2="326" y2="600" stroke="#6b7684" stroke-width="1.5"/>
<line x1="104" y1="468" x2="104" y2="600" stroke="#6b7684" stroke-width="1.5"/>
<text x="96" y="474" font-family="Helvetica, Arial, sans-serif" font-size="13" fill="#6b7684" font-weight="normal" text-anchor="end">1.0</text>
<text x="96" y="604" font-family="Helvetica, Arial, sans-serif" font-size="13" fill="#6b7684" font-weight="normal" text-anchor="end">0</text>
<polyline points="104.0,517.2 159.5,517.5 215.0,517.5 270.5,517.5 326.0,517.5" fill="none" stroke="#3a7d44" stroke-width="3.4" stroke-linejoin="round" stroke-linecap="round"/>
<circle cx="104.0" cy="517.2" r="4.6" fill="#3a7d44" stroke="white" stroke-width="1.6"/>
<circle cx="326.0" cy="517.5" r="4.6" fill="#3a7d44" stroke="white" stroke-width="1.6"/>
<text x="334.0" y="522.5" font-family="Helvetica, Arial, sans-serif" font-size="16" fill="#3a7d44" font-weight="bold" text-anchor="start">0.625</text>
<polyline points="104.0,517.2 159.5,600.0 215.0,600.0 270.5,600.0 326.0,600.0" fill="none" stroke="#b5342c" stroke-width="3.4" stroke-linejoin="round" stroke-linecap="round"/>
<circle cx="104.0" cy="517.2" r="4.6" fill="#b5342c" stroke="white" stroke-width="1.6"/>
<circle cx="326.0" cy="600.0" r="4.6" fill="#b5342c" stroke="white" stroke-width="1.6"/>
<text x="106.0" y="506.236" font-family="Helvetica, Arial, sans-serif" font-size="15" fill="#b5342c" font-weight="bold" text-anchor="start">0.627</text>
<text x="334.0" y="605.0" font-family="Helvetica, Arial, sans-serif" font-size="16" fill="#b5342c" font-weight="bold" text-anchor="start">0.000</text>
<text x="215.0" y="626" font-family="Helvetica, Arial, sans-serif" font-size="14" fill="#6b7684" font-weight="normal" text-anchor="middle">rounds →</text>
<line x1="66" y1="639" x2="88" y2="639" stroke="#3a7d44" stroke-width="3.6" stroke-linecap="round"/>
<circle cx="77" cy="639" r="4.2" fill="#3a7d44" stroke="white" stroke-width="1.4"/>
<text x="96" y="644" font-family="Helvetica, Arial, sans-serif" font-size="14.5" fill="#1a1a1a" font-weight="normal" text-anchor="start">self-only pool</text>
<line x1="66" y1="660" x2="88" y2="660" stroke="#b5342c" stroke-width="3.6" stroke-linecap="round"/>
<circle cx="77" cy="660" r="4.2" fill="#b5342c" stroke="white" stroke-width="1.4"/>
<text x="96" y="665" font-family="Helvetica, Arial, sans-serif" font-size="14.5" fill="#1a1a1a" font-weight="normal" text-anchor="start">base answers mixed in</text>
<line x1="66" y1="681" x2="88" y2="681" stroke="#6b7684" stroke-width="2" stroke-dasharray="2 4" stroke-linecap="round"/>
<text x="96" y="686" font-family="Helvetica, Arial, sans-serif" font-size="13.5" fill="#6b7684" font-weight="normal" text-anchor="start">model forecast from round-1 measurements</text>
<rect x="440" y="168" width="372" height="536" rx="14" fill="#f7f9fb" stroke="#1a1a1a" stroke-width="2.5"/>
<circle cx="475" cy="198" r="17" fill="#1a1a1a"/>
<text x="475" y="204" font-family="Helvetica, Arial, sans-serif" font-size="20" fill="white" font-weight="bold" text-anchor="middle">2</text>
<text x="502" y="205" font-family="Helvetica, Arial, sans-serif" font-size="18.5" fill="#1a1a1a" font-weight="bold" text-anchor="start">Swap in an oracle judge (ρ = −1)</text>
<text x="462" y="230" font-family="Helvetica, Arial, sans-serif" font-size="14.5" fill="#6b7684" font-weight="normal" text-anchor="start">OLMo railed organism, risk axis, self-only pool</text>
<text x="462" y="250" font-family="Helvetica, Arial, sans-serif" font-size="14.5" fill="#6b7684" font-weight="normal" text-anchor="start">a base-model reference judge had railed it up;</text>
<text x="462" y="270" font-family="Helvetica, Arial, sans-serif" font-size="14.5" fill="#6b7684" font-weight="normal" text-anchor="start">swapped for a score oracle (ρ = −1)</text>
<line x1="462" y1="286" x2="790" y2="286" stroke="#d8dee6" stroke-width="1.5"/>
<text x="462" y="304" font-family="Helvetica, Arial, sans-serif" font-size="13" fill="#6b7684" font-weight="normal" text-anchor="start">Both selection dials, in the two conditions (from → to)</text>
<text x="462" y="323" font-family="Helvetica, Arial, sans-serif" font-size="15.5" fill="#1a1a1a" font-weight="bold" text-anchor="start">agreement ρ</text>
<text x="742" y="323" font-family="Helvetica, Arial, sans-serif" font-size="15.5" fill="#b5342c" font-weight="bold" text-anchor="end">+0.15 → −1.00</text>
<line x1="462" y1="346" x2="742" y2="346" stroke="#6b7684" stroke-width="3" stroke-linecap="round"/>
<line x1="602.0" y1="340" x2="602.0" y2="352" stroke="#6b7684" stroke-width="2"/>
<text x="462" y="363" font-family="Helvetica, Arial, sans-serif" font-size="12.5" fill="#6b7684" font-weight="normal" text-anchor="middle">−1</text>
<text x="602.0" y="363" font-family="Helvetica, Arial, sans-serif" font-size="12.5" fill="#6b7684" font-weight="normal" text-anchor="middle">0</text>
<text x="742" y="363" font-family="Helvetica, Arial, sans-serif" font-size="12.5" fill="#6b7684" font-weight="normal" text-anchor="middle">+1</text>
<line x1="623.0" y1="336" x2="462.0" y2="336" stroke="#b5342c" stroke-width="3.2" marker-end="url(#arrR)"/>
<circle cx="623.0" cy="346" r="6" fill="white" stroke="#1a1a1a" stroke-width="2.4"/>
<circle cx="462.0" cy="346" r="7" fill="#b5342c" stroke="white" stroke-width="1.8"/>
<text x="462" y="381" font-family="Helvetica, Arial, sans-serif" font-size="15.5" fill="#1a1a1a" font-weight="bold" text-anchor="start">spread σ</text>
<text x="742" y="381" font-family="Helvetica, Arial, sans-serif" font-size="15.5" fill="#6b7684" font-weight="bold" text-anchor="end">0.12</text>
<line x1="462" y1="404" x2="742" y2="404" stroke="#6b7684" stroke-width="3" stroke-linecap="round"/>
<text x="462" y="421" font-family="Helvetica, Arial, sans-serif" font-size="12.5" fill="#6b7684" font-weight="normal" text-anchor="middle">0</text>
<text x="742" y="421" font-family="Helvetica, Arial, sans-serif" font-size="12.5" fill="#6b7684" font-weight="normal" text-anchor="middle">0.5</text>
<circle cx="529.2" cy="404" r="7" fill="#6b7684" stroke="white" stroke-width="1.8"/>
<text x="462" y="448" font-family="Helvetica, Arial, sans-serif" font-size="15" fill="#1a1a1a" font-weight="bold" text-anchor="start">The measured value that followed</text>
<line x1="500" y1="600" x2="722" y2="600" stroke="#6b7684" stroke-width="1.5"/>
<line x1="500" y1="468" x2="500" y2="600" stroke="#6b7684" stroke-width="1.5"/>
<text x="492" y="474" font-family="Helvetica, Arial, sans-serif" font-size="13" fill="#6b7684" font-weight="normal" text-anchor="end">1.0</text>
<text x="492" y="604" font-family="Helvetica, Arial, sans-serif" font-size="13" fill="#6b7684" font-weight="normal" text-anchor="end">0</text>
<polygon points="500.0,560.3 517.1,528.5 534.2,519.9 551.2,501.0 568.3,488.3 585.4,468.0 602.5,468.0 619.5,468.0 636.6,468.0 653.7,468.0 653.7,600.0 636.6,600.0 619.5,600.0 602.5,600.0 585.4,600.0 568.3,600.0 551.2,600.0 534.2,587.7 517.1,570.6 500.0,560.3" fill="#3a7d44" fill-opacity="0.13"/>
<polygon points="653.7,479.0 670.8,469.3 687.8,486.5 704.9,493.7 722.0,502.2 722.0,565.4 704.9,548.4 687.8,535.5 670.8,499.2 653.7,479.0" fill="#b5342c" fill-opacity="0.13"/>
<polyline points="500.0,560.3 517.1,557.1 534.2,556.4 551.2,555.6 568.3,555.0 585.4,554.2 602.5,553.5 619.5,552.7 636.6,552.1 653.7,551.3" fill="none" stroke="#3a7d44" stroke-width="2" stroke-dasharray="2 4" stroke-linecap="round" stroke-opacity="0.85"/>
<polyline points="653.7,479.0 670.8,491.8 687.8,508.1 704.9,524.5 722.0,540.9" fill="none" stroke="#b5342c" stroke-width="2" stroke-dasharray="2 4" stroke-linecap="round" stroke-opacity="0.85"/>
<line x1="653.7" y1="462" x2="653.7" y2="600" stroke="#1a1a1a" stroke-width="1.6" stroke-dasharray="4 3"/>
<polyline points="500.0,560.3 517.1,531.1 534.2,550.5 551.2,517.5 568.3,534.0 585.4,506.5 602.5,484.5 619.5,501.0 636.6,484.5 653.7,479.0" fill="none" stroke="#3a7d44" stroke-width="3.4" stroke-linejoin="round" stroke-linecap="round"/>
<polyline points="653.7,479.0 670.8,512.0 687.8,539.5 704.9,561.5 722.0,587.6" fill="none" stroke="#b5342c" stroke-width="3.4" stroke-linejoin="round" stroke-linecap="round"/>
<circle cx="500.0" cy="560.3" r="3" fill="#3a7d44"/>
<circle cx="517.1" cy="531.1" r="3" fill="#3a7d44"/>
<circle cx="534.2" cy="550.5" r="3" fill="#3a7d44"/>
<circle cx="551.2" cy="517.5" r="3" fill="#3a7d44"/>
<circle cx="568.3" cy="534.0" r="3" fill="#3a7d44"/>
<circle cx="585.4" cy="506.5" r="3" fill="#3a7d44"/>
<circle cx="602.5" cy="484.5" r="3" fill="#3a7d44"/>
<circle cx="619.5" cy="501.0" r="3" fill="#3a7d44"/>
<circle cx="636.6" cy="484.5" r="3" fill="#3a7d44"/>
<circle cx="653.7" cy="479.0" r="3" fill="#b5342c"/>
<circle cx="670.8" cy="512.0" r="3" fill="#b5342c"/>
<circle cx="687.8" cy="539.5" r="3" fill="#b5342c"/>
<circle cx="704.9" cy="561.5" r="3" fill="#b5342c"/>
<circle cx="722.0" cy="587.6" r="3" fill="#b5342c"/>
<circle cx="500.0" cy="560.3" r="4.6" fill="#3a7d44" stroke="white" stroke-width="1.6"/>
<circle cx="653.7" cy="479.0" r="4.6" fill="#b5342c" stroke="white" stroke-width="1.6"/>
<circle cx="722.0" cy="587.6" r="4.6" fill="#b5342c" stroke="white" stroke-width="1.6"/>
<text x="494.0" y="565.268" font-family="Helvetica, Arial, sans-serif" font-size="15" fill="#3a7d44" font-weight="bold" text-anchor="end">0.301</text>
<text x="669.6923076923076" y="498.956" font-family="Helvetica, Arial, sans-serif" font-size="15" fill="#b5342c" font-weight="bold" text-anchor="start">0.917</text>
<text x="730.0" y="592.592" font-family="Helvetica, Arial, sans-serif" font-size="16" fill="#b5342c" font-weight="bold" text-anchor="start">0.094</text>
<text x="611.0" y="626" font-family="Helvetica, Arial, sans-serif" font-size="14" fill="#6b7684" font-weight="normal" text-anchor="middle">rounds →</text>
<line x1="462" y1="639" x2="484" y2="639" stroke="#3a7d44" stroke-width="3.6" stroke-linecap="round"/>
<circle cx="473" cy="639" r="4.2" fill="#3a7d44" stroke="white" stroke-width="1.4"/>
<text x="492" y="644" font-family="Helvetica, Arial, sans-serif" font-size="14.5" fill="#1a1a1a" font-weight="normal" text-anchor="start">base-model judge</text>
<line x1="462" y1="660" x2="484" y2="660" stroke="#b5342c" stroke-width="3.6" stroke-linecap="round"/>
<circle cx="473" cy="660" r="4.2" fill="#b5342c" stroke="white" stroke-width="1.4"/>
<text x="492" y="665" font-family="Helvetica, Arial, sans-serif" font-size="14.5" fill="#1a1a1a" font-weight="normal" text-anchor="start">score oracle</text>
<line x1="462" y1="681" x2="484" y2="681" stroke="#6b7684" stroke-width="2" stroke-dasharray="2 4" stroke-linecap="round"/>
<text x="492" y="686" font-family="Helvetica, Arial, sans-serif" font-size="13.5" fill="#6b7684" font-weight="normal" text-anchor="start">model forecast from round-1 measurements</text>
</svg>