<svg xmlns="http://www.w3.org/2000/svg" viewBox="0 0 1032 596" font-family="Helvetica, Arial, sans-serif">
<rect width="1032" height="596" fill="white"/>
<defs>
<marker id="arr" viewBox="0 0 10 10" refX="9" refY="5"
 markerWidth="6" markerHeight="6" orient="auto-start-reverse">
 <path d="M 0 0 L 10 5 L 0 10 z" fill="#1a1a1a"/></marker>
<marker id="arrR" viewBox="0 0 10 10" refX="9" refY="5"
 markerWidth="6.5" markerHeight="6.5" orient="auto-start-reverse">
 <path d="M 0 0 L 10 5 L 0 10 z" fill="#b5342c"/></marker>
<marker id="arrK" viewBox="0 0 10 10" refX="9" refY="5"
 markerWidth="6.5" markerHeight="6.5" orient="auto-start-reverse">
 <path d="M 0 0 L 10 5 L 0 10 z" fill="#1a1a1a"/></marker>
<marker id="arrG" viewBox="0 0 10 10" refX="9" refY="5"
 markerWidth="6" markerHeight="6" orient="auto-start-reverse">
 <path d="M 0 0 L 10 5 L 0 10 z" fill="#6b7684"/></marker>
</defs>
<text x="60" y="46" font-family="Helvetica, Arial, sans-serif" font-size="20.70" fill="#1a1a1a" font-weight="bold" text-anchor="start">Matched interventions on spread and agreement</text>
<rect x="44" y="72" width="460" height="500" rx="14" fill="#f7f9fb" stroke="#1a1a1a" stroke-width="2.5"/>
<circle cx="79" cy="102" r="17" fill="#1a1a1a"/>
<text x="79" y="108" font-family="Helvetica, Arial, sans-serif" font-size="14.40" fill="white" font-weight="bold" text-anchor="middle">1</text>
<text x="106" y="109" font-family="Helvetica, Arial, sans-serif" font-size="14.40" fill="#1a1a1a" font-weight="bold" text-anchor="start">Mix in base answers</text>
<text x="66" y="134" font-family="Helvetica, Arial, sans-serif" font-size="13.05" fill="#6b7684" font-weight="normal" text-anchor="start">Qwen self-report organism, min-insecurity oracle</text>
<text x="66" y="154" font-family="Helvetica, Arial, sans-serif" font-size="13.05" fill="#6b7684" font-weight="normal" text-anchor="start">the oracle keeps the 2 lowest-insecurity of 6;</text>
<text x="66" y="174" font-family="Helvetica, Arial, sans-serif" font-size="13.05" fill="#6b7684" font-weight="normal" text-anchor="start">two runs, same seed, differ only in the pool</text>
<line x1="66" y1="190" x2="482" y2="190" stroke="#d8dee6" stroke-width="1.5"/>
<text x="66" y="221" font-family="Helvetica, Arial, sans-serif" font-size="12.60" fill="#1a1a1a" font-weight="bold" text-anchor="start">spread σ</text>
<text x="434" y="221" font-family="Helvetica, Arial, sans-serif" font-size="12.60" fill="#b5342c" font-weight="bold" text-anchor="end">0.00 → 0.31</text>
<line x1="66" y1="244" x2="434" y2="244" stroke="#6b7684" stroke-width="3" stroke-linecap="round"/>
<text x="66" y="261" font-family="Helvetica, Arial, sans-serif" font-size="11.25" fill="#6b7684" font-weight="normal" text-anchor="middle">0</text>
<text x="434" y="261" font-family="Helvetica, Arial, sans-serif" font-size="11.25" fill="#6b7684" font-weight="normal" text-anchor="middle">0.5</text>
<line x1="66.0" y1="234" x2="294.2" y2="234" stroke="#b5342c" stroke-width="3.2" marker-end="url(#arrR)"/>
<circle cx="66.0" cy="244" r="6" fill="white" stroke="#1a1a1a" stroke-width="2.4"/>
<circle cx="294.2" cy="244" r="7" fill="#b5342c" stroke="white" stroke-width="1.8"/>
<text x="66" y="275" font-family="Helvetica, Arial, sans-serif" font-size="12.60" fill="#1a1a1a" font-weight="bold" text-anchor="start">agreement ρ</text>
<text x="434" y="275" font-family="Helvetica, Arial, sans-serif" font-size="12.60" fill="#6b7684" font-weight="bold" text-anchor="end">−1.00</text>
<line x1="66" y1="298" x2="434" y2="298" stroke="#6b7684" stroke-width="3" stroke-linecap="round"/>
<line x1="250.0" y1="292" x2="250.0" y2="304" stroke="#6b7684" stroke-width="2"/>
<text x="66" y="315" font-family="Helvetica, Arial, sans-serif" font-size="11.25" fill="#6b7684" font-weight="normal" text-anchor="middle">−1</text>
<text x="250.0" y="315" font-family="Helvetica, Arial, sans-serif" font-size="11.25" fill="#6b7684" font-weight="normal" text-anchor="middle">0</text>
<text x="434" y="315" font-family="Helvetica, Arial, sans-serif" font-size="11.25" fill="#6b7684" font-weight="normal" text-anchor="middle">+1</text>
<circle cx="66.0" cy="298" r="7" fill="#6b7684" stroke="white" stroke-width="1.8"/>
<text x="66" y="336" font-family="Helvetica, Arial, sans-serif" font-size="12.60" fill="#1a1a1a" font-weight="bold" text-anchor="start">The measured value that followed</text>
<polygon points="104.0,399.3 181.5,362.8 259.0,373.1 336.5,368.2 414.0,365.0 414.0,433.6 336.5,423.6 259.0,424.4 181.5,416.9 104.0,399.3" fill="#3a7d44" fill-opacity="0.13"/>
<polygon points="104.0,399.3 181.5,394.2 259.0,427.7 336.5,439.3 414.0,449.7 414.0,472.0 336.5,472.0 259.0,471.9 181.5,451.8 104.0,399.3" fill="#b5342c" fill-opacity="0.13"/>
<polyline points="104.0,399.3 181.5,397.5 259.0,397.5 336.5,397.5 414.0,397.5" fill="none" stroke="#3a7d44" stroke-width="2" stroke-dasharray="2 4" stroke-linecap="round" stroke-opacity="0.85"/>
<polyline points="104.0,399.3 181.5,431.9 259.0,448.6 336.5,457.0 414.0,461.2" fill="none" stroke="#b5342c" stroke-width="2" stroke-dasharray="2 4" stroke-linecap="round" stroke-opacity="0.85"/>
<line x1="104" y1="472" x2="414" y2="472" stroke="#6b7684" stroke-width="1.5"/>
<line x1="104" y1="356" x2="104" y2="472" stroke="#6b7684" stroke-width="1.5"/>
<text x="96" y="362" font-family="Helvetica, Arial, sans-serif" font-size="11.70" fill="#6b7684" font-weight="normal" text-anchor="end">1.0</text>
<text x="96" y="476" font-family="Helvetica, Arial, sans-serif" font-size="11.70" fill="#6b7684" font-weight="normal" text-anchor="end">0</text>
<polyline points="104.0,399.3 181.5,399.5 259.0,399.5 336.5,399.5 414.0,399.5" fill="none" stroke="#3a7d44" stroke-width="3.4" stroke-linejoin="round" stroke-linecap="round"/>
<circle cx="104.0" cy="399.3" r="4.6" fill="#3a7d44" stroke="white" stroke-width="1.6"/>
<circle cx="414.0" cy="399.5" r="4.6" fill="#3a7d44" stroke="white" stroke-width="1.6"/>
<text x="422.0" y="404.5" font-family="Helvetica, Arial, sans-serif" font-size="12.15" fill="#3a7d44" font-weight="bold" text-anchor="start">0.625</text>
<polyline points="104.0,399.3 181.5,472.0 259.0,472.0 336.5,472.0 414.0,472.0" fill="none" stroke="#b5342c" stroke-width="3.4" stroke-linejoin="round" stroke-linecap="round"/>
<circle cx="104.0" cy="399.3" r="4.6" fill="#b5342c" stroke="white" stroke-width="1.6"/>
<circle cx="414.0" cy="472.0" r="4.6" fill="#b5342c" stroke="white" stroke-width="1.6"/>
<text x="106.0" y="388.26800000000003" font-family="Helvetica, Arial, sans-serif" font-size="12.15" fill="#b5342c" font-weight="bold" text-anchor="start">0.627</text>
<text x="422.0" y="477.0" font-family="Helvetica, Arial, sans-serif" font-size="12.15" fill="#b5342c" font-weight="bold" text-anchor="start">0.000</text>
<text x="259.0" y="498" font-family="Helvetica, Arial, sans-serif" font-size="12.60" fill="#6b7684" font-weight="normal" text-anchor="middle">rounds →</text>
<line x1="66" y1="509" x2="88" y2="509" stroke="#3a7d44" stroke-width="3.6" stroke-linecap="round"/>
<circle cx="77" cy="509" r="4.2" fill="#3a7d44" stroke="white" stroke-width="1.4"/>
<text x="96" y="514" font-family="Helvetica, Arial, sans-serif" font-size="13.05" fill="#1a1a1a" font-weight="normal" text-anchor="start">self-only pool</text>
<line x1="66" y1="530" x2="88" y2="530" stroke="#b5342c" stroke-width="3.6" stroke-linecap="round"/>
<circle cx="77" cy="530" r="4.2" fill="#b5342c" stroke="white" stroke-width="1.4"/>
<text x="96" y="535" font-family="Helvetica, Arial, sans-serif" font-size="13.05" fill="#1a1a1a" font-weight="normal" text-anchor="start">base answers mixed in</text>
<rect x="66" y="544" width="22" height="12" rx="2" fill="#6b7684" fill-opacity="0.20"/>
<line x1="66" y1="550" x2="88" y2="550" stroke="#6b7684" stroke-width="2" stroke-dasharray="2 4" stroke-linecap="round"/>
<text x="96" y="556" font-family="Helvetica, Arial, sans-serif" font-size="12.15" fill="#6b7684" font-weight="normal" text-anchor="start">forecast (dotted) and its 80% band (shaded)</text>
<rect x="528" y="72" width="460" height="500" rx="14" fill="#f7f9fb" stroke="#1a1a1a" stroke-width="2.5"/>
<circle cx="563" cy="102" r="17" fill="#1a1a1a"/>
<text x="563" y="108" font-family="Helvetica, Arial, sans-serif" font-size="14.40" fill="white" font-weight="bold" text-anchor="middle">2</text>
<text x="590" y="109" font-family="Helvetica, Arial, sans-serif" font-size="14.40" fill="#1a1a1a" font-weight="bold" text-anchor="start">Swap in a min-risk oracle (ρ = −1)</text>
<text x="550" y="134" font-family="Helvetica, Arial, sans-serif" font-size="13.05" fill="#6b7684" font-weight="normal" text-anchor="start">OLMo risk-seeking organism, self-only pool</text>
<text x="550" y="154" font-family="Helvetica, Arial, sans-serif" font-size="13.05" fill="#6b7684" font-weight="normal" text-anchor="start">a base-model reference judge had driven it up;</text>
<text x="550" y="174" font-family="Helvetica, Arial, sans-serif" font-size="13.05" fill="#6b7684" font-weight="normal" text-anchor="start">swapped for a min-risk oracle (ρ = −1)</text>
<line x1="550" y1="190" x2="966" y2="190" stroke="#d8dee6" stroke-width="1.5"/>
<text x="550" y="221" font-family="Helvetica, Arial, sans-serif" font-size="12.60" fill="#1a1a1a" font-weight="bold" text-anchor="start">agreement ρ</text>
<text x="918" y="221" font-family="Helvetica, Arial, sans-serif" font-size="12.60" fill="#b5342c" font-weight="bold" text-anchor="end">+0.15 → −1.00</text>
<line x1="550" y1="244" x2="918" y2="244" stroke="#6b7684" stroke-width="3" stroke-linecap="round"/>
<line x1="734.0" y1="238" x2="734.0" y2="250" stroke="#6b7684" stroke-width="2"/>
<text x="550" y="261" font-family="Helvetica, Arial, sans-serif" font-size="11.25" fill="#6b7684" font-weight="normal" text-anchor="middle">−1</text>
<text x="734.0" y="261" font-family="Helvetica, Arial, sans-serif" font-size="11.25" fill="#6b7684" font-weight="normal" text-anchor="middle">0</text>
<text x="918" y="261" font-family="Helvetica, Arial, sans-serif" font-size="11.25" fill="#6b7684" font-weight="normal" text-anchor="middle">+1</text>
<line x1="761.6" y1="234" x2="550.0" y2="234" stroke="#b5342c" stroke-width="3.2" marker-end="url(#arrR)"/>
<circle cx="761.6" cy="244" r="6" fill="white" stroke="#1a1a1a" stroke-width="2.4"/>
<circle cx="550.0" cy="244" r="7" fill="#b5342c" stroke="white" stroke-width="1.8"/>
<text x="550" y="275" font-family="Helvetica, Arial, sans-serif" font-size="12.60" fill="#1a1a1a" font-weight="bold" text-anchor="start">spread σ</text>
<text x="918" y="275" font-family="Helvetica, Arial, sans-serif" font-size="12.60" fill="#6b7684" font-weight="bold" text-anchor="end">0.12</text>
<line x1="550" y1="298" x2="918" y2="298" stroke="#6b7684" stroke-width="3" stroke-linecap="round"/>
<text x="550" y="315" font-family="Helvetica, Arial, sans-serif" font-size="11.25" fill="#6b7684" font-weight="normal" text-anchor="middle">0</text>
<text x="918" y="315" font-family="Helvetica, Arial, sans-serif" font-size="11.25" fill="#6b7684" font-weight="normal" text-anchor="middle">0.5</text>
<circle cx="638.3" cy="298" r="7" fill="#6b7684" stroke="white" stroke-width="1.8"/>
<text x="550" y="336" font-family="Helvetica, Arial, sans-serif" font-size="12.60" fill="#1a1a1a" font-weight="bold" text-anchor="start">The measured value that followed</text>
<line x1="588" y1="472" x2="898" y2="472" stroke="#6b7684" stroke-width="1.5"/>
<line x1="588" y1="356" x2="588" y2="472" stroke="#6b7684" stroke-width="1.5"/>
<text x="580" y="362" font-family="Helvetica, Arial, sans-serif" font-size="11.70" fill="#6b7684" font-weight="normal" text-anchor="end">1.0</text>
<text x="580" y="476" font-family="Helvetica, Arial, sans-serif" font-size="11.70" fill="#6b7684" font-weight="normal" text-anchor="end">0</text>
<polygon points="588.0,437.1 611.8,409.1 635.7,401.6 659.5,385.0 683.4,373.9 707.2,356.0 731.1,356.0 754.9,356.0 778.8,356.0 802.6,356.0 802.6,472.0 778.8,472.0 754.9,472.0 731.1,472.0 707.2,472.0 683.4,472.0 659.5,472.0 635.7,461.2 611.8,446.1 588.0,437.1" fill="#3a7d44" fill-opacity="0.13"/>
<polygon points="802.6,365.6 826.5,357.2 850.3,372.2 874.2,378.6 898.0,386.0 898.0,441.6 874.2,426.6 850.3,415.3 826.5,383.4 802.6,365.6" fill="#b5342c" fill-opacity="0.13"/>
<polyline points="588.0,437.1 611.8,434.3 635.7,433.7 659.5,433.0 683.4,432.4 707.2,431.7 731.1,431.2 754.9,430.5 778.8,429.9 802.6,429.2" fill="none" stroke="#3a7d44" stroke-width="2" stroke-dasharray="2 4" stroke-linecap="round" stroke-opacity="0.85"/>
<polyline points="802.6,365.6 826.5,376.9 850.3,391.3 874.2,405.6 898.0,420.0" fill="none" stroke="#b5342c" stroke-width="2" stroke-dasharray="2 4" stroke-linecap="round" stroke-opacity="0.85"/>
<line x1="802.6" y1="350" x2="802.6" y2="472" stroke="#1a1a1a" stroke-width="1.6" stroke-dasharray="4 3"/>
<polyline points="588.0,437.1 611.8,411.4 635.7,428.5 659.5,399.5 683.4,414.0 707.2,389.9 731.1,370.5 754.9,385.0 778.8,370.5 802.6,365.6" fill="none" stroke="#3a7d44" stroke-width="3.4" stroke-linejoin="round" stroke-linecap="round"/>
<polyline points="802.6,365.6 826.5,394.6 850.3,418.9 874.2,438.1 898.0,461.1" fill="none" stroke="#b5342c" stroke-width="3.4" stroke-linejoin="round" stroke-linecap="round"/>
<circle cx="588.0" cy="437.1" r="3" fill="#3a7d44"/>
<circle cx="611.8" cy="411.4" r="3" fill="#3a7d44"/>
<circle cx="635.7" cy="428.5" r="3" fill="#3a7d44"/>
<circle cx="659.5" cy="399.5" r="3" fill="#3a7d44"/>
<circle cx="683.4" cy="414.0" r="3" fill="#3a7d44"/>
<circle cx="707.2" cy="389.9" r="3" fill="#3a7d44"/>
<circle cx="731.1" cy="370.5" r="3" fill="#3a7d44"/>
<circle cx="754.9" cy="385.0" r="3" fill="#3a7d44"/>
<circle cx="778.8" cy="370.5" r="3" fill="#3a7d44"/>
<circle cx="802.6" cy="365.6" r="3" fill="#b5342c"/>
<circle cx="826.5" cy="394.6" r="3" fill="#b5342c"/>
<circle cx="850.3" cy="418.9" r="3" fill="#b5342c"/>
<circle cx="874.2" cy="438.1" r="3" fill="#b5342c"/>
<circle cx="898.0" cy="461.1" r="3" fill="#b5342c"/>
<circle cx="588.0" cy="437.1" r="4.6" fill="#3a7d44" stroke="white" stroke-width="1.6"/>
<circle cx="802.6" cy="365.6" r="4.6" fill="#b5342c" stroke="white" stroke-width="1.6"/>
<circle cx="898.0" cy="461.1" r="4.6" fill="#b5342c" stroke="white" stroke-width="1.6"/>
<text x="582.0" y="442.084" font-family="Helvetica, Arial, sans-serif" font-size="12.15" fill="#3a7d44" font-weight="bold" text-anchor="end">0.301</text>
<text x="814.6153846153846" y="357.628" font-family="Helvetica, Arial, sans-serif" font-size="12.15" fill="#b5342c" font-weight="bold" text-anchor="start">0.917</text>
<text x="906.0" y="466.096" font-family="Helvetica, Arial, sans-serif" font-size="12.15" fill="#b5342c" font-weight="bold" text-anchor="start">0.094</text>
<text x="743.0" y="498" font-family="Helvetica, Arial, sans-serif" font-size="12.60" fill="#6b7684" font-weight="normal" text-anchor="middle">rounds →</text>
<line x1="550" y1="509" x2="572" y2="509" stroke="#3a7d44" stroke-width="3.6" stroke-linecap="round"/>
<circle cx="561" cy="509" r="4.2" fill="#3a7d44" stroke="white" stroke-width="1.4"/>
<text x="580" y="514" font-family="Helvetica, Arial, sans-serif" font-size="13.05" fill="#1a1a1a" font-weight="normal" text-anchor="start">base-model judge</text>
<line x1="550" y1="530" x2="572" y2="530" stroke="#b5342c" stroke-width="3.6" stroke-linecap="round"/>
<circle cx="561" cy="530" r="4.2" fill="#b5342c" stroke="white" stroke-width="1.4"/>
<text x="580" y="535" font-family="Helvetica, Arial, sans-serif" font-size="13.05" fill="#1a1a1a" font-weight="normal" text-anchor="start">min-risk oracle</text>
<rect x="550" y="544" width="22" height="12" rx="2" fill="#6b7684" fill-opacity="0.20"/>
<line x1="550" y1="550" x2="572" y2="550" stroke="#6b7684" stroke-width="2" stroke-dasharray="2 4" stroke-linecap="round"/>
<text x="580" y="556" font-family="Helvetica, Arial, sans-serif" font-size="12.15" fill="#6b7684" font-weight="normal" text-anchor="start">forecast (dotted) and its 80% band (shaded)</text>
</svg>