<svg xmlns="http://www.w3.org/2000/svg" viewBox="0 0 1252 718" font-family="Helvetica, Arial, sans-serif">
<rect width="1252" height="718" fill="white"/>
<defs>
<marker id="arr" viewBox="0 0 10 10" refX="9" refY="5"
 markerWidth="6" markerHeight="6" orient="auto-start-reverse">
 <path d="M 0 0 L 10 5 L 0 10 z" fill="#1a1a1a"/></marker>
<marker id="arrR" viewBox="0 0 10 10" refX="9" refY="5"
 markerWidth="6.5" markerHeight="6.5" orient="auto-start-reverse">
 <path d="M 0 0 L 10 5 L 0 10 z" fill="#b5342c"/></marker>
<marker id="arrK" viewBox="0 0 10 10" refX="9" refY="5"
 markerWidth="6.5" markerHeight="6.5" orient="auto-start-reverse">
 <path d="M 0 0 L 10 5 L 0 10 z" fill="#1a1a1a"/></marker>
<marker id="arrG" viewBox="0 0 10 10" refX="9" refY="5"
 markerWidth="6" markerHeight="6" orient="auto-start-reverse">
 <path d="M 0 0 L 10 5 L 0 10 z" fill="#6b7684"/></marker>
</defs>
<text x="60" y="58" font-family="Helvetica, Arial, sans-serif" font-size="28" fill="#1a1a1a" font-weight="bold" text-anchor="start">Three matched interventions — move one selection dial, read the value that follows</text>
<text x="60" y="88" font-family="Helvetica, Arial, sans-serif" font-size="16.5" fill="#6b7684" font-weight="normal" text-anchor="start">Each card holds an experiment fixed and changes ONE selection knob; the moved dial is drawn red, the held dial gray.</text>
<text x="60" y="110" font-family="Helvetica, Arial, sans-serif" font-size="16.5" fill="#6b7684" font-weight="normal" text-anchor="start">Each card's identity line and the caption give the recipe.</text>
<rect x="44" y="168" width="372" height="510" rx="14" fill="#f7f9fb" stroke="#1a1a1a" stroke-width="2.5"/>
<circle cx="79" cy="198" r="17" fill="#1a1a1a"/>
<text x="79" y="204" font-family="Helvetica, Arial, sans-serif" font-size="20" fill="white" font-weight="bold" text-anchor="middle">1</text>
<text x="106" y="205" font-family="Helvetica, Arial, sans-serif" font-size="18.5" fill="#1a1a1a" font-weight="bold" text-anchor="start">Mix in base answers</text>
<text x="66" y="234" font-family="Helvetica, Arial, sans-serif" font-size="14.5" fill="#6b7684" font-weight="normal" text-anchor="start">Qwen self-report organism · score oracle judge</text>
<text x="66" y="254" font-family="Helvetica, Arial, sans-serif" font-size="14.5" fill="#6b7684" font-weight="normal" text-anchor="start">score format · base-mixed vs self-only twin</text>
<text x="66" y="274" font-family="Helvetica, Arial, sans-serif" font-size="14.5" fill="#6b7684" font-weight="normal" text-anchor="start">matched twins, same seed</text>
<line x1="66" y1="296" x2="394" y2="296" stroke="#d8dee6" stroke-width="1.5"/>
<text x="66" y="315" font-family="Helvetica, Arial, sans-serif" font-size="13" fill="#6b7684" font-weight="normal" text-anchor="start">Both selection dials, in the two conditions (from → to)</text>
<text x="66" y="336" font-family="Helvetica, Arial, sans-serif" font-size="15.5" fill="#1a1a1a" font-weight="bold" text-anchor="start">spread σ</text>
<text x="346" y="336" font-family="Helvetica, Arial, sans-serif" font-size="15.5" fill="#b5342c" font-weight="bold" text-anchor="end">0.00 → 0.31</text>
<line x1="66" y1="359" x2="346" y2="359" stroke="#6b7684" stroke-width="3" stroke-linecap="round"/>
<text x="66" y="376" font-family="Helvetica, Arial, sans-serif" font-size="12.5" fill="#6b7684" font-weight="normal" text-anchor="middle">0</text>
<text x="346" y="376" font-family="Helvetica, Arial, sans-serif" font-size="12.5" fill="#6b7684" font-weight="normal" text-anchor="middle">0.5</text>
<line x1="66.0" y1="349" x2="239.6" y2="349" stroke="#b5342c" stroke-width="3.2" marker-end="url(#arrR)"/>
<circle cx="66.0" cy="359" r="6" fill="white" stroke="#1a1a1a" stroke-width="2.4"/>
<circle cx="239.6" cy="359" r="7" fill="#b5342c" stroke="white" stroke-width="1.8"/>
<text x="66" y="398" font-family="Helvetica, Arial, sans-serif" font-size="15.5" fill="#1a1a1a" font-weight="bold" text-anchor="start">agreement ρ</text>
<text x="346" y="398" font-family="Helvetica, Arial, sans-serif" font-size="15.5" fill="#6b7684" font-weight="bold" text-anchor="end">−1.00</text>
<line x1="66" y1="421" x2="346" y2="421" stroke="#6b7684" stroke-width="3" stroke-linecap="round"/>
<line x1="206.0" y1="415" x2="206.0" y2="427" stroke="#6b7684" stroke-width="2"/>
<text x="66" y="438" font-family="Helvetica, Arial, sans-serif" font-size="12.5" fill="#6b7684" font-weight="normal" text-anchor="middle">−1</text>
<text x="206.0" y="438" font-family="Helvetica, Arial, sans-serif" font-size="12.5" fill="#6b7684" font-weight="normal" text-anchor="middle">0</text>
<text x="346" y="438" font-family="Helvetica, Arial, sans-serif" font-size="12.5" fill="#6b7684" font-weight="normal" text-anchor="middle">+1</text>
<circle cx="66.0" cy="421" r="7" fill="#6b7684" stroke="white" stroke-width="1.8"/>
<text x="66" y="468" font-family="Helvetica, Arial, sans-serif" font-size="15" fill="#1a1a1a" font-weight="bold" text-anchor="start">The measured value that followed</text>
<line x1="104" y1="574" x2="326" y2="574" stroke="#6b7684" stroke-width="1.5"/>
<line x1="104" y1="490" x2="104" y2="574" stroke="#6b7684" stroke-width="1.5"/>
<text x="96" y="496" font-family="Helvetica, Arial, sans-serif" font-size="13" fill="#6b7684" font-weight="normal" text-anchor="end">1.0</text>
<text x="96" y="578" font-family="Helvetica, Arial, sans-serif" font-size="13" fill="#6b7684" font-weight="normal" text-anchor="end">0</text>
<polyline points="104.0,521.3 159.5,521.5 215.0,521.5 270.5,521.5 326.0,521.5" fill="none" stroke="#3a7d44" stroke-width="3.4" stroke-linejoin="round" stroke-linecap="round"/>
<circle cx="104.0" cy="521.3" r="4.6" fill="#3a7d44" stroke="white" stroke-width="1.6"/>
<circle cx="326.0" cy="521.5" r="4.6" fill="#3a7d44" stroke="white" stroke-width="1.6"/>
<text x="334.0" y="526.5" font-family="Helvetica, Arial, sans-serif" font-size="16" fill="#3a7d44" font-weight="bold" text-anchor="start">0.625</text>
<polyline points="104.0,521.3 159.5,574.0 215.0,574.0 270.5,574.0 326.0,574.0" fill="none" stroke="#b5342c" stroke-width="3.4" stroke-linejoin="round" stroke-linecap="round"/>
<circle cx="104.0" cy="521.3" r="4.6" fill="#b5342c" stroke="white" stroke-width="1.6"/>
<circle cx="326.0" cy="574.0" r="4.6" fill="#b5342c" stroke="white" stroke-width="1.6"/>
<text x="106.0" y="510.332" font-family="Helvetica, Arial, sans-serif" font-size="15" fill="#b5342c" font-weight="bold" text-anchor="start">0.627</text>
<text x="334.0" y="579.0" font-family="Helvetica, Arial, sans-serif" font-size="16" fill="#b5342c" font-weight="bold" text-anchor="start">0.000</text>
<text x="215.0" y="600" font-family="Helvetica, Arial, sans-serif" font-size="14" fill="#6b7684" font-weight="normal" text-anchor="middle">rounds →</text>
<line x1="66" y1="615" x2="88" y2="615" stroke="#3a7d44" stroke-width="3.6" stroke-linecap="round"/>
<circle cx="77" cy="615" r="4.2" fill="#3a7d44" stroke="white" stroke-width="1.4"/>
<text x="96" y="620" font-family="Helvetica, Arial, sans-serif" font-size="14.5" fill="#1a1a1a" font-weight="normal" text-anchor="start">self-only twin holds</text>
<line x1="66" y1="636" x2="88" y2="636" stroke="#b5342c" stroke-width="3.6" stroke-linecap="round"/>
<circle cx="77" cy="636" r="4.2" fill="#b5342c" stroke="white" stroke-width="1.4"/>
<text x="96" y="641" font-family="Helvetica, Arial, sans-serif" font-size="14.5" fill="#1a1a1a" font-weight="normal" text-anchor="start">injected twin collapses</text>
<rect x="440" y="168" width="372" height="510" rx="14" fill="#f7f9fb" stroke="#1a1a1a" stroke-width="2.5"/>
<circle cx="475" cy="198" r="17" fill="#1a1a1a"/>
<text x="475" y="204" font-family="Helvetica, Arial, sans-serif" font-size="20" fill="white" font-weight="bold" text-anchor="middle">2</text>
<text x="502" y="205" font-family="Helvetica, Arial, sans-serif" font-size="18.5" fill="#1a1a1a" font-weight="bold" text-anchor="start">Reference vs head-to-head</text>
<text x="462" y="234" font-family="Helvetica, Arial, sans-serif" font-size="14.5" fill="#6b7684" font-weight="normal" text-anchor="start">OLMo organism · SAME cautious judge, SAME start</text>
<text x="462" y="254" font-family="Helvetica, Arial, sans-serif" font-size="14.5" fill="#6b7684" font-weight="normal" text-anchor="start">moved knob = scoring FORMAT: score vs a fixed</text>
<text x="462" y="274" font-family="Helvetica, Arial, sans-serif" font-size="14.5" fill="#6b7684" font-weight="normal" text-anchor="start">reference, or duel vs the base model's answer</text>
<line x1="462" y1="296" x2="790" y2="296" stroke="#d8dee6" stroke-width="1.5"/>
<text x="462" y="315" font-family="Helvetica, Arial, sans-serif" font-size="13" fill="#6b7684" font-weight="normal" text-anchor="start">Both selection dials, in the two conditions (from → to)</text>
<text x="462" y="336" font-family="Helvetica, Arial, sans-serif" font-size="15.5" fill="#1a1a1a" font-weight="bold" text-anchor="start">agreement ρ</text>
<text x="742" y="336" font-family="Helvetica, Arial, sans-serif" font-size="15.5" fill="#b5342c" font-weight="bold" text-anchor="end">+0.38 → +0.10</text>
<line x1="462" y1="359" x2="742" y2="359" stroke="#6b7684" stroke-width="3" stroke-linecap="round"/>
<line x1="602.0" y1="353" x2="602.0" y2="365" stroke="#6b7684" stroke-width="2"/>
<text x="462" y="376" font-family="Helvetica, Arial, sans-serif" font-size="12.5" fill="#6b7684" font-weight="normal" text-anchor="middle">−1</text>
<text x="602.0" y="376" font-family="Helvetica, Arial, sans-serif" font-size="12.5" fill="#6b7684" font-weight="normal" text-anchor="middle">0</text>
<text x="742" y="376" font-family="Helvetica, Arial, sans-serif" font-size="12.5" fill="#6b7684" font-weight="normal" text-anchor="middle">+1</text>
<line x1="655.2" y1="349" x2="616.0" y2="349" stroke="#b5342c" stroke-width="3.2" marker-end="url(#arrR)"/>
<circle cx="655.2" cy="359" r="6" fill="white" stroke="#1a1a1a" stroke-width="2.4"/>
<circle cx="616.0" cy="359" r="7" fill="#b5342c" stroke="white" stroke-width="1.8"/>
<text x="462" y="398" font-family="Helvetica, Arial, sans-serif" font-size="15.5" fill="#1a1a1a" font-weight="bold" text-anchor="start">spread σ</text>
<text x="742" y="398" font-family="Helvetica, Arial, sans-serif" font-size="15.5" fill="#6b7684" font-weight="bold" text-anchor="end">0.32</text>
<line x1="462" y1="421" x2="742" y2="421" stroke="#6b7684" stroke-width="3" stroke-linecap="round"/>
<text x="462" y="438" font-family="Helvetica, Arial, sans-serif" font-size="12.5" fill="#6b7684" font-weight="normal" text-anchor="middle">0</text>
<text x="742" y="438" font-family="Helvetica, Arial, sans-serif" font-size="12.5" fill="#6b7684" font-weight="normal" text-anchor="middle">0.5</text>
<circle cx="641.2" cy="421" r="7" fill="#6b7684" stroke="white" stroke-width="1.8"/>
<text x="462" y="468" font-family="Helvetica, Arial, sans-serif" font-size="15" fill="#1a1a1a" font-weight="bold" text-anchor="start">The measured value that followed</text>
<line x1="500" y1="574" x2="722" y2="574" stroke="#6b7684" stroke-width="1.5"/>
<line x1="500" y1="490" x2="500" y2="574" stroke="#6b7684" stroke-width="1.5"/>
<text x="492" y="496" font-family="Helvetica, Arial, sans-serif" font-size="13" fill="#6b7684" font-weight="normal" text-anchor="end">1.0</text>
<text x="492" y="578" font-family="Helvetica, Arial, sans-serif" font-size="13" fill="#6b7684" font-weight="normal" text-anchor="end">0</text>
<polyline points="500.0,500.5 555.5,520.6 611.0,504.0 666.5,525.0 722.0,513.9" fill="none" stroke="#3a7d44" stroke-width="2.6" stroke-linejoin="round" stroke-linecap="round"/>
<circle cx="500.0" cy="500.5" r="3.4" fill="#1a1a1a" stroke="white" stroke-width="1.2"/>
<circle cx="722.0" cy="513.9" r="4" fill="#3a7d44" stroke="white" stroke-width="1.4"/>
<polyline points="500.0,490.0 555.5,493.5 611.0,490.0 666.5,490.0 722.0,490.0" fill="none" stroke="#3a7d44" stroke-width="2.6" stroke-dasharray="5 4" stroke-linejoin="round" stroke-linecap="round"/>
<circle cx="500.0" cy="490.0" r="3.4" fill="#1a1a1a" stroke="white" stroke-width="1.2"/>
<circle cx="722.0" cy="490.0" r="4" fill="#3a7d44" stroke="white" stroke-width="1.4"/>
<polyline points="500.0,501.3 555.5,516.7 611.0,532.0 666.5,528.5 722.0,528.9" fill="none" stroke="#b5342c" stroke-width="2.6" stroke-linejoin="round" stroke-linecap="round"/>
<circle cx="500.0" cy="501.3" r="3.4" fill="#1a1a1a" stroke="white" stroke-width="1.2"/>
<circle cx="722.0" cy="528.9" r="4" fill="#b5342c" stroke="white" stroke-width="1.4"/>
<polyline points="500.0,490.0 555.5,497.0 611.0,518.0 666.5,504.0 722.0,511.3" fill="none" stroke="#b5342c" stroke-width="2.6" stroke-dasharray="5 4" stroke-linejoin="round" stroke-linecap="round"/>
<circle cx="500.0" cy="490.0" r="3.4" fill="#1a1a1a" stroke="white" stroke-width="1.2"/>
<circle cx="722.0" cy="511.3" r="4" fill="#b5342c" stroke="white" stroke-width="1.4"/>
<text x="730.0" y="506.928" font-family="Helvetica, Arial, sans-serif" font-size="14" fill="#3a7d44" font-weight="bold" text-anchor="start">0.716 / 1.00</text>
<text x="730.0" y="525.072" font-family="Helvetica, Arial, sans-serif" font-size="14" fill="#b5342c" font-weight="bold" text-anchor="start">0.537 / 0.747</text>
<text x="504" y="482" font-family="Helvetica, Arial, sans-serif" font-size="13" fill="#1a1a1a" font-weight="bold" text-anchor="start">same start 0.87 / 1.00</text>
<text x="611.0" y="600" font-family="Helvetica, Arial, sans-serif" font-size="14" fill="#6b7684" font-weight="normal" text-anchor="middle">rounds →</text>
<line x1="462" y1="615" x2="484" y2="615" stroke="#3a7d44" stroke-width="3.6" stroke-linecap="round"/>
<circle cx="473" cy="615" r="4.2" fill="#3a7d44" stroke="white" stroke-width="1.4"/>
<text x="492" y="620" font-family="Helvetica, Arial, sans-serif" font-size="14.5" fill="#1a1a1a" font-weight="normal" text-anchor="start">reference scoring</text>
<line x1="462" y1="636" x2="484" y2="636" stroke="#b5342c" stroke-width="3.6" stroke-linecap="round"/>
<circle cx="473" cy="636" r="4.2" fill="#b5342c" stroke="white" stroke-width="1.4"/>
<text x="492" y="641" font-family="Helvetica, Arial, sans-serif" font-size="14.5" fill="#1a1a1a" font-weight="normal" text-anchor="start">duels vs the base model's answers</text>
<text x="462" y="662" font-family="Helvetica, Arial, sans-serif" font-size="13" fill="#6b7684" font-weight="normal" text-anchor="start">solid / dashed = the two seeds</text>
<rect x="836" y="168" width="372" height="510" rx="14" fill="#f7f9fb" stroke="#1a1a1a" stroke-width="2.5"/>
<circle cx="871" cy="198" r="17" fill="#1a1a1a"/>
<text x="871" y="204" font-family="Helvetica, Arial, sans-serif" font-size="20" fill="white" font-weight="bold" text-anchor="middle">3</text>
<text x="898" y="205" font-family="Helvetica, Arial, sans-serif" font-size="18.5" fill="#1a1a1a" font-weight="bold" text-anchor="start">Swap in an oracle judge (ρ = −1)</text>
<text x="858" y="234" font-family="Helvetica, Arial, sans-serif" font-size="14.5" fill="#6b7684" font-weight="normal" text-anchor="start">OLMo railed organism · risk axis · self-only pool</text>
<text x="858" y="254" font-family="Helvetica, Arial, sans-serif" font-size="14.5" fill="#6b7684" font-weight="normal" text-anchor="start">prior run: a base-model judge railed it up</text>
<text x="858" y="274" font-family="Helvetica, Arial, sans-serif" font-size="14.5" fill="#6b7684" font-weight="normal" text-anchor="start">then swapped it for a score oracle (ρ = −1)</text>
<line x1="858" y1="296" x2="1186" y2="296" stroke="#d8dee6" stroke-width="1.5"/>
<text x="858" y="315" font-family="Helvetica, Arial, sans-serif" font-size="13" fill="#6b7684" font-weight="normal" text-anchor="start">Both selection dials, in the two conditions (from → to)</text>
<text x="858" y="336" font-family="Helvetica, Arial, sans-serif" font-size="15.5" fill="#1a1a1a" font-weight="bold" text-anchor="start">agreement ρ</text>
<text x="1138" y="336" font-family="Helvetica, Arial, sans-serif" font-size="15.5" fill="#b5342c" font-weight="bold" text-anchor="end">+0.15 → −1.00</text>
<line x1="858" y1="359" x2="1138" y2="359" stroke="#6b7684" stroke-width="3" stroke-linecap="round"/>
<line x1="998.0" y1="353" x2="998.0" y2="365" stroke="#6b7684" stroke-width="2"/>
<text x="858" y="376" font-family="Helvetica, Arial, sans-serif" font-size="12.5" fill="#6b7684" font-weight="normal" text-anchor="middle">−1</text>
<text x="998.0" y="376" font-family="Helvetica, Arial, sans-serif" font-size="12.5" fill="#6b7684" font-weight="normal" text-anchor="middle">0</text>
<text x="1138" y="376" font-family="Helvetica, Arial, sans-serif" font-size="12.5" fill="#6b7684" font-weight="normal" text-anchor="middle">+1</text>
<line x1="1019.0" y1="349" x2="858.0" y2="349" stroke="#b5342c" stroke-width="3.2" marker-end="url(#arrR)"/>
<circle cx="1019.0" cy="359" r="6" fill="white" stroke="#1a1a1a" stroke-width="2.4"/>
<circle cx="858.0" cy="359" r="7" fill="#b5342c" stroke="white" stroke-width="1.8"/>
<text x="858" y="398" font-family="Helvetica, Arial, sans-serif" font-size="15.5" fill="#1a1a1a" font-weight="bold" text-anchor="start">spread σ</text>
<text x="1138" y="398" font-family="Helvetica, Arial, sans-serif" font-size="15.5" fill="#6b7684" font-weight="bold" text-anchor="end">0.12</text>
<line x1="858" y1="421" x2="1138" y2="421" stroke="#6b7684" stroke-width="3" stroke-linecap="round"/>
<text x="858" y="438" font-family="Helvetica, Arial, sans-serif" font-size="12.5" fill="#6b7684" font-weight="normal" text-anchor="middle">0</text>
<text x="1138" y="438" font-family="Helvetica, Arial, sans-serif" font-size="12.5" fill="#6b7684" font-weight="normal" text-anchor="middle">0.5</text>
<circle cx="925.2" cy="421" r="7" fill="#6b7684" stroke="white" stroke-width="1.8"/>
<text x="858" y="468" font-family="Helvetica, Arial, sans-serif" font-size="15" fill="#1a1a1a" font-weight="bold" text-anchor="start">The measured value that followed</text>
<line x1="896" y1="574" x2="1118" y2="574" stroke="#6b7684" stroke-width="1.5"/>
<line x1="896" y1="490" x2="896" y2="574" stroke="#6b7684" stroke-width="1.5"/>
<text x="888" y="496" font-family="Helvetica, Arial, sans-serif" font-size="13" fill="#6b7684" font-weight="normal" text-anchor="end">1.0</text>
<text x="888" y="578" font-family="Helvetica, Arial, sans-serif" font-size="13" fill="#6b7684" font-weight="normal" text-anchor="end">0</text>
<line x1="1049.7" y1="484" x2="1049.7" y2="574" stroke="#1a1a1a" stroke-width="1.6" stroke-dasharray="4 3"/>
<polyline points="896.0,548.7 913.1,530.2 930.2,542.5 947.2,521.5 964.3,532.0 981.4,514.5 998.5,500.5 1015.5,511.0 1032.6,500.5 1049.7,497.0" fill="none" stroke="#3a7d44" stroke-width="3.4" stroke-linejoin="round" stroke-linecap="round"/>
<polyline points="1049.7,497.0 1066.8,518.0 1083.8,535.5 1100.9,549.5 1118.0,566.1" fill="none" stroke="#b5342c" stroke-width="3.4" stroke-linejoin="round" stroke-linecap="round"/>
<circle cx="896.0" cy="548.7" r="3" fill="#3a7d44"/>
<circle cx="913.1" cy="530.2" r="3" fill="#3a7d44"/>
<circle cx="930.2" cy="542.5" r="3" fill="#3a7d44"/>
<circle cx="947.2" cy="521.5" r="3" fill="#3a7d44"/>
<circle cx="964.3" cy="532.0" r="3" fill="#3a7d44"/>
<circle cx="981.4" cy="514.5" r="3" fill="#3a7d44"/>
<circle cx="998.5" cy="500.5" r="3" fill="#3a7d44"/>
<circle cx="1015.5" cy="511.0" r="3" fill="#3a7d44"/>
<circle cx="1032.6" cy="500.5" r="3" fill="#3a7d44"/>
<circle cx="1049.7" cy="497.0" r="3" fill="#b5342c"/>
<circle cx="1066.8" cy="518.0" r="3" fill="#b5342c"/>
<circle cx="1083.8" cy="535.5" r="3" fill="#b5342c"/>
<circle cx="1100.9" cy="549.5" r="3" fill="#b5342c"/>
<circle cx="1118.0" cy="566.1" r="3" fill="#b5342c"/>
<circle cx="896.0" cy="548.7" r="4.6" fill="#3a7d44" stroke="white" stroke-width="1.6"/>
<circle cx="1049.7" cy="497.0" r="4.6" fill="#b5342c" stroke="white" stroke-width="1.6"/>
<circle cx="1118.0" cy="566.1" r="4.6" fill="#b5342c" stroke="white" stroke-width="1.6"/>
<text x="890.0" y="553.716" font-family="Helvetica, Arial, sans-serif" font-size="15" fill="#3a7d44" font-weight="bold" text-anchor="end">0.301</text>
<text x="1065.6923076923076" y="516.972" font-family="Helvetica, Arial, sans-serif" font-size="15" fill="#b5342c" font-weight="bold" text-anchor="start">0.917</text>
<text x="1126.0" y="571.104" font-family="Helvetica, Arial, sans-serif" font-size="16" fill="#b5342c" font-weight="bold" text-anchor="start">0.094</text>
<text x="1007.0" y="600" font-family="Helvetica, Arial, sans-serif" font-size="14" fill="#6b7684" font-weight="normal" text-anchor="middle">rounds →</text>
<line x1="858" y1="615" x2="880" y2="615" stroke="#3a7d44" stroke-width="3.6" stroke-linecap="round"/>
<circle cx="869" cy="615" r="4.2" fill="#3a7d44" stroke="white" stroke-width="1.4"/>
<text x="888" y="620" font-family="Helvetica, Arial, sans-serif" font-size="14.5" fill="#1a1a1a" font-weight="normal" text-anchor="start">base-model judge rails it up</text>
<line x1="858" y1="636" x2="880" y2="636" stroke="#b5342c" stroke-width="3.6" stroke-linecap="round"/>
<circle cx="869" cy="636" r="4.2" fill="#b5342c" stroke="white" stroke-width="1.4"/>
<text x="888" y="641" font-family="Helvetica, Arial, sans-serif" font-size="14.5" fill="#1a1a1a" font-weight="normal" text-anchor="start">score oracle at −1 reverses it</text>
</svg>