<svg xmlns="http://www.w3.org/2000/svg" viewBox="0 0 1032 576" font-family="Helvetica, Arial, sans-serif">
<rect width="1032" height="576" fill="white"/>
<defs>
<marker id="arr" viewBox="0 0 10 10" refX="9" refY="5"
 markerWidth="6" markerHeight="6" orient="auto-start-reverse">
 <path d="M 0 0 L 10 5 L 0 10 z" fill="#1a1a1a"/></marker>
<marker id="arrR" viewBox="0 0 10 10" refX="9" refY="5"
 markerWidth="6.5" markerHeight="6.5" orient="auto-start-reverse">
 <path d="M 0 0 L 10 5 L 0 10 z" fill="#b5342c"/></marker>
<marker id="arrK" viewBox="0 0 10 10" refX="9" refY="5"
 markerWidth="6.5" markerHeight="6.5" orient="auto-start-reverse">
 <path d="M 0 0 L 10 5 L 0 10 z" fill="#1a1a1a"/></marker>
<marker id="arrG" viewBox="0 0 10 10" refX="9" refY="5"
 markerWidth="6" markerHeight="6" orient="auto-start-reverse">
 <path d="M 0 0 L 10 5 L 0 10 z" fill="#6b7684"/></marker>
</defs>
<text x="60" y="46" font-family="Helvetica, Arial, sans-serif" font-size="28" fill="#1a1a1a" font-weight="bold" text-anchor="start">Two matched interventions — move one selection dial, read the value that follows</text>
<text x="60" y="74" font-family="Helvetica, Arial, sans-serif" font-size="16.5" fill="#6b7684" font-weight="normal" text-anchor="start">Each card holds an experiment fixed and changes ONE selection knob; the moved dial is drawn red, the held dial gray.</text>
<rect x="44" y="100" width="460" height="452" rx="14" fill="#f7f9fb" stroke="#1a1a1a" stroke-width="2.5"/>
<circle cx="79" cy="130" r="17" fill="#1a1a1a"/>
<text x="79" y="136" font-family="Helvetica, Arial, sans-serif" font-size="20" fill="white" font-weight="bold" text-anchor="middle">1</text>
<text x="106" y="137" font-family="Helvetica, Arial, sans-serif" font-size="18.5" fill="#1a1a1a" font-weight="bold" text-anchor="start">Mix in base answers</text>
<text x="66" y="162" font-family="Helvetica, Arial, sans-serif" font-size="14.5" fill="#6b7684" font-weight="normal" text-anchor="start">Qwen self-report organism, min-insecurity oracle</text>
<text x="66" y="182" font-family="Helvetica, Arial, sans-serif" font-size="14.5" fill="#6b7684" font-weight="normal" text-anchor="start">the oracle keeps the 2 lowest-insecurity of 6;</text>
<text x="66" y="202" font-family="Helvetica, Arial, sans-serif" font-size="14.5" fill="#6b7684" font-weight="normal" text-anchor="start">two runs, same seed, differ only in the pool</text>
<line x1="66" y1="218" x2="482" y2="218" stroke="#d8dee6" stroke-width="1.5"/>
<text x="66" y="236" font-family="Helvetica, Arial, sans-serif" font-size="13" fill="#6b7684" font-weight="normal" text-anchor="start">Both selection dials, in the two conditions (from → to)</text>
<text x="66" y="249" font-family="Helvetica, Arial, sans-serif" font-size="14" fill="#1a1a1a" font-weight="bold" text-anchor="start">spread σ</text>
<text x="260" y="249" font-family="Helvetica, Arial, sans-serif" font-size="14" fill="#b5342c" font-weight="bold" text-anchor="end">0.00 → 0.31</text>
<line x1="66" y1="272" x2="260" y2="272" stroke="#6b7684" stroke-width="3" stroke-linecap="round"/>
<text x="66" y="289" font-family="Helvetica, Arial, sans-serif" font-size="12.5" fill="#6b7684" font-weight="normal" text-anchor="middle">0</text>
<text x="260" y="289" font-family="Helvetica, Arial, sans-serif" font-size="12.5" fill="#6b7684" font-weight="normal" text-anchor="middle">0.5</text>
<line x1="66.0" y1="262" x2="186.3" y2="262" stroke="#b5342c" stroke-width="3.2" marker-end="url(#arrR)"/>
<circle cx="66.0" cy="272" r="6" fill="white" stroke="#1a1a1a" stroke-width="2.4"/>
<circle cx="186.3" cy="272" r="7" fill="#b5342c" stroke="white" stroke-width="1.8"/>
<text x="288" y="249" font-family="Helvetica, Arial, sans-serif" font-size="14" fill="#1a1a1a" font-weight="bold" text-anchor="start">agreement ρ</text>
<text x="482" y="249" font-family="Helvetica, Arial, sans-serif" font-size="14" fill="#6b7684" font-weight="bold" text-anchor="end">−1.00</text>
<line x1="288" y1="272" x2="482" y2="272" stroke="#6b7684" stroke-width="3" stroke-linecap="round"/>
<line x1="385.0" y1="266" x2="385.0" y2="278" stroke="#6b7684" stroke-width="2"/>
<text x="288" y="289" font-family="Helvetica, Arial, sans-serif" font-size="12.5" fill="#6b7684" font-weight="normal" text-anchor="middle">−1</text>
<text x="385.0" y="289" font-family="Helvetica, Arial, sans-serif" font-size="12.5" fill="#6b7684" font-weight="normal" text-anchor="middle">0</text>
<text x="482" y="289" font-family="Helvetica, Arial, sans-serif" font-size="12.5" fill="#6b7684" font-weight="normal" text-anchor="middle">+1</text>
<circle cx="288.0" cy="272" r="7" fill="#6b7684" stroke="white" stroke-width="1.8"/>
<text x="66" y="314" font-family="Helvetica, Arial, sans-serif" font-size="15" fill="#1a1a1a" font-weight="bold" text-anchor="start">The measured value that followed</text>
<polygon points="104.0,377.3 181.5,340.8 259.0,351.1 336.5,346.2 414.0,343.0 414.0,411.6 336.5,401.6 259.0,402.4 181.5,394.9 104.0,377.3" fill="#3a7d44" fill-opacity="0.13"/>
<polygon points="104.0,377.3 181.5,372.2 259.0,405.7 336.5,417.3 414.0,427.7 414.0,450.0 336.5,450.0 259.0,449.9 181.5,429.8 104.0,377.3" fill="#b5342c" fill-opacity="0.13"/>
<polyline points="104.0,377.3 181.5,375.5 259.0,375.5 336.5,375.5 414.0,375.5" fill="none" stroke="#3a7d44" stroke-width="2" stroke-dasharray="2 4" stroke-linecap="round" stroke-opacity="0.85"/>
<polyline points="104.0,377.3 181.5,409.9 259.0,426.6 336.5,435.0 414.0,439.2" fill="none" stroke="#b5342c" stroke-width="2" stroke-dasharray="2 4" stroke-linecap="round" stroke-opacity="0.85"/>
<line x1="104" y1="450" x2="414" y2="450" stroke="#6b7684" stroke-width="1.5"/>
<line x1="104" y1="334" x2="104" y2="450" stroke="#6b7684" stroke-width="1.5"/>
<text x="96" y="340" font-family="Helvetica, Arial, sans-serif" font-size="13" fill="#6b7684" font-weight="normal" text-anchor="end">1.0</text>
<text x="96" y="454" font-family="Helvetica, Arial, sans-serif" font-size="13" fill="#6b7684" font-weight="normal" text-anchor="end">0</text>
<polyline points="104.0,377.3 181.5,377.5 259.0,377.5 336.5,377.5 414.0,377.5" fill="none" stroke="#3a7d44" stroke-width="3.4" stroke-linejoin="round" stroke-linecap="round"/>
<circle cx="104.0" cy="377.3" r="4.6" fill="#3a7d44" stroke="white" stroke-width="1.6"/>
<circle cx="414.0" cy="377.5" r="4.6" fill="#3a7d44" stroke="white" stroke-width="1.6"/>
<text x="422.0" y="382.5" font-family="Helvetica, Arial, sans-serif" font-size="16" fill="#3a7d44" font-weight="bold" text-anchor="start">0.625</text>
<polyline points="104.0,377.3 181.5,450.0 259.0,450.0 336.5,450.0 414.0,450.0" fill="none" stroke="#b5342c" stroke-width="3.4" stroke-linejoin="round" stroke-linecap="round"/>
<circle cx="104.0" cy="377.3" r="4.6" fill="#b5342c" stroke="white" stroke-width="1.6"/>
<circle cx="414.0" cy="450.0" r="4.6" fill="#b5342c" stroke="white" stroke-width="1.6"/>
<text x="106.0" y="366.26800000000003" font-family="Helvetica, Arial, sans-serif" font-size="15" fill="#b5342c" font-weight="bold" text-anchor="start">0.627</text>
<text x="422.0" y="455.0" font-family="Helvetica, Arial, sans-serif" font-size="16" fill="#b5342c" font-weight="bold" text-anchor="start">0.000</text>
<text x="259.0" y="476" font-family="Helvetica, Arial, sans-serif" font-size="14" fill="#6b7684" font-weight="normal" text-anchor="middle">rounds →</text>
<line x1="66" y1="487" x2="88" y2="487" stroke="#3a7d44" stroke-width="3.6" stroke-linecap="round"/>
<circle cx="77" cy="487" r="4.2" fill="#3a7d44" stroke="white" stroke-width="1.4"/>
<text x="96" y="492" font-family="Helvetica, Arial, sans-serif" font-size="14.5" fill="#1a1a1a" font-weight="normal" text-anchor="start">self-only pool</text>
<line x1="66" y1="508" x2="88" y2="508" stroke="#b5342c" stroke-width="3.6" stroke-linecap="round"/>
<circle cx="77" cy="508" r="4.2" fill="#b5342c" stroke="white" stroke-width="1.4"/>
<text x="96" y="513" font-family="Helvetica, Arial, sans-serif" font-size="14.5" fill="#1a1a1a" font-weight="normal" text-anchor="start">base answers mixed in</text>
<rect x="66" y="522" width="22" height="12" rx="2" fill="#6b7684" fill-opacity="0.20"/>
<line x1="66" y1="528" x2="88" y2="528" stroke="#6b7684" stroke-width="2" stroke-dasharray="2 4" stroke-linecap="round"/>
<text x="96" y="534" font-family="Helvetica, Arial, sans-serif" font-size="13.5" fill="#6b7684" font-weight="normal" text-anchor="start">forecast (dotted) and its 80% band (shaded)</text>
<rect x="528" y="100" width="460" height="452" rx="14" fill="#f7f9fb" stroke="#1a1a1a" stroke-width="2.5"/>
<circle cx="563" cy="130" r="17" fill="#1a1a1a"/>
<text x="563" y="136" font-family="Helvetica, Arial, sans-serif" font-size="20" fill="white" font-weight="bold" text-anchor="middle">2</text>
<text x="590" y="137" font-family="Helvetica, Arial, sans-serif" font-size="18.5" fill="#1a1a1a" font-weight="bold" text-anchor="start">Swap in a min-risk oracle (ρ = −1)</text>
<text x="550" y="162" font-family="Helvetica, Arial, sans-serif" font-size="14.5" fill="#6b7684" font-weight="normal" text-anchor="start">OLMo risk-seeking organism, self-only pool</text>
<text x="550" y="182" font-family="Helvetica, Arial, sans-serif" font-size="14.5" fill="#6b7684" font-weight="normal" text-anchor="start">a base-model reference judge had driven it up;</text>
<text x="550" y="202" font-family="Helvetica, Arial, sans-serif" font-size="14.5" fill="#6b7684" font-weight="normal" text-anchor="start">swapped for a min-risk oracle (ρ = −1)</text>
<line x1="550" y1="218" x2="966" y2="218" stroke="#d8dee6" stroke-width="1.5"/>
<text x="550" y="236" font-family="Helvetica, Arial, sans-serif" font-size="13" fill="#6b7684" font-weight="normal" text-anchor="start">Both selection dials, in the two conditions (from → to)</text>
<text x="550" y="249" font-family="Helvetica, Arial, sans-serif" font-size="14" fill="#1a1a1a" font-weight="bold" text-anchor="start">agreement ρ</text>
<text x="744" y="249" font-family="Helvetica, Arial, sans-serif" font-size="14" fill="#b5342c" font-weight="bold" text-anchor="end">+0.15 → −1.00</text>
<line x1="550" y1="272" x2="744" y2="272" stroke="#6b7684" stroke-width="3" stroke-linecap="round"/>
<line x1="647.0" y1="266" x2="647.0" y2="278" stroke="#6b7684" stroke-width="2"/>
<text x="550" y="289" font-family="Helvetica, Arial, sans-serif" font-size="12.5" fill="#6b7684" font-weight="normal" text-anchor="middle">−1</text>
<text x="647.0" y="289" font-family="Helvetica, Arial, sans-serif" font-size="12.5" fill="#6b7684" font-weight="normal" text-anchor="middle">0</text>
<text x="744" y="289" font-family="Helvetica, Arial, sans-serif" font-size="12.5" fill="#6b7684" font-weight="normal" text-anchor="middle">+1</text>
<line x1="661.5" y1="262" x2="550.0" y2="262" stroke="#b5342c" stroke-width="3.2" marker-end="url(#arrR)"/>
<circle cx="661.5" cy="272" r="6" fill="white" stroke="#1a1a1a" stroke-width="2.4"/>
<circle cx="550.0" cy="272" r="7" fill="#b5342c" stroke="white" stroke-width="1.8"/>
<text x="772" y="249" font-family="Helvetica, Arial, sans-serif" font-size="14" fill="#1a1a1a" font-weight="bold" text-anchor="start">spread σ</text>
<text x="966" y="249" font-family="Helvetica, Arial, sans-serif" font-size="14" fill="#6b7684" font-weight="bold" text-anchor="end">0.12</text>
<line x1="772" y1="272" x2="966" y2="272" stroke="#6b7684" stroke-width="3" stroke-linecap="round"/>
<text x="772" y="289" font-family="Helvetica, Arial, sans-serif" font-size="12.5" fill="#6b7684" font-weight="normal" text-anchor="middle">0</text>
<text x="966" y="289" font-family="Helvetica, Arial, sans-serif" font-size="12.5" fill="#6b7684" font-weight="normal" text-anchor="middle">0.5</text>
<circle cx="818.6" cy="272" r="7" fill="#6b7684" stroke="white" stroke-width="1.8"/>
<text x="550" y="314" font-family="Helvetica, Arial, sans-serif" font-size="15" fill="#1a1a1a" font-weight="bold" text-anchor="start">The measured value that followed</text>
<line x1="588" y1="450" x2="898" y2="450" stroke="#6b7684" stroke-width="1.5"/>
<line x1="588" y1="334" x2="588" y2="450" stroke="#6b7684" stroke-width="1.5"/>
<text x="580" y="340" font-family="Helvetica, Arial, sans-serif" font-size="13" fill="#6b7684" font-weight="normal" text-anchor="end">1.0</text>
<text x="580" y="454" font-family="Helvetica, Arial, sans-serif" font-size="13" fill="#6b7684" font-weight="normal" text-anchor="end">0</text>
<polygon points="588.0,415.1 611.8,387.1 635.7,379.6 659.5,363.0 683.4,351.9 707.2,334.0 731.1,334.0 754.9,334.0 778.8,334.0 802.6,334.0 802.6,450.0 778.8,450.0 754.9,450.0 731.1,450.0 707.2,450.0 683.4,450.0 659.5,450.0 635.7,439.2 611.8,424.1 588.0,415.1" fill="#3a7d44" fill-opacity="0.13"/>
<polygon points="802.6,343.6 826.5,335.2 850.3,350.2 874.2,356.6 898.0,364.0 898.0,419.6 874.2,404.6 850.3,393.3 826.5,361.4 802.6,343.6" fill="#b5342c" fill-opacity="0.13"/>
<polyline points="588.0,415.1 611.8,412.3 635.7,411.7 659.5,411.0 683.4,410.4 707.2,409.7 731.1,409.2 754.9,408.5 778.8,407.9 802.6,407.2" fill="none" stroke="#3a7d44" stroke-width="2" stroke-dasharray="2 4" stroke-linecap="round" stroke-opacity="0.85"/>
<polyline points="802.6,343.6 826.5,354.9 850.3,369.3 874.2,383.6 898.0,398.0" fill="none" stroke="#b5342c" stroke-width="2" stroke-dasharray="2 4" stroke-linecap="round" stroke-opacity="0.85"/>
<line x1="802.6" y1="328" x2="802.6" y2="450" stroke="#1a1a1a" stroke-width="1.6" stroke-dasharray="4 3"/>
<polyline points="588.0,415.1 611.8,389.4 635.7,406.5 659.5,377.5 683.4,392.0 707.2,367.9 731.1,348.5 754.9,363.0 778.8,348.5 802.6,343.6" fill="none" stroke="#3a7d44" stroke-width="3.4" stroke-linejoin="round" stroke-linecap="round"/>
<polyline points="802.6,343.6 826.5,372.6 850.3,396.9 874.2,416.1 898.0,439.1" fill="none" stroke="#b5342c" stroke-width="3.4" stroke-linejoin="round" stroke-linecap="round"/>
<circle cx="588.0" cy="415.1" r="3" fill="#3a7d44"/>
<circle cx="611.8" cy="389.4" r="3" fill="#3a7d44"/>
<circle cx="635.7" cy="406.5" r="3" fill="#3a7d44"/>
<circle cx="659.5" cy="377.5" r="3" fill="#3a7d44"/>
<circle cx="683.4" cy="392.0" r="3" fill="#3a7d44"/>
<circle cx="707.2" cy="367.9" r="3" fill="#3a7d44"/>
<circle cx="731.1" cy="348.5" r="3" fill="#3a7d44"/>
<circle cx="754.9" cy="363.0" r="3" fill="#3a7d44"/>
<circle cx="778.8" cy="348.5" r="3" fill="#3a7d44"/>
<circle cx="802.6" cy="343.6" r="3" fill="#b5342c"/>
<circle cx="826.5" cy="372.6" r="3" fill="#b5342c"/>
<circle cx="850.3" cy="396.9" r="3" fill="#b5342c"/>
<circle cx="874.2" cy="416.1" r="3" fill="#b5342c"/>
<circle cx="898.0" cy="439.1" r="3" fill="#b5342c"/>
<circle cx="588.0" cy="415.1" r="4.6" fill="#3a7d44" stroke="white" stroke-width="1.6"/>
<circle cx="802.6" cy="343.6" r="4.6" fill="#b5342c" stroke="white" stroke-width="1.6"/>
<circle cx="898.0" cy="439.1" r="4.6" fill="#b5342c" stroke="white" stroke-width="1.6"/>
<text x="582.0" y="420.084" font-family="Helvetica, Arial, sans-serif" font-size="15" fill="#3a7d44" font-weight="bold" text-anchor="end">0.301</text>
<text x="814.6153846153846" y="335.628" font-family="Helvetica, Arial, sans-serif" font-size="15" fill="#b5342c" font-weight="bold" text-anchor="start">0.917</text>
<text x="906.0" y="444.096" font-family="Helvetica, Arial, sans-serif" font-size="16" fill="#b5342c" font-weight="bold" text-anchor="start">0.094</text>
<text x="743.0" y="476" font-family="Helvetica, Arial, sans-serif" font-size="14" fill="#6b7684" font-weight="normal" text-anchor="middle">rounds →</text>
<line x1="550" y1="487" x2="572" y2="487" stroke="#3a7d44" stroke-width="3.6" stroke-linecap="round"/>
<circle cx="561" cy="487" r="4.2" fill="#3a7d44" stroke="white" stroke-width="1.4"/>
<text x="580" y="492" font-family="Helvetica, Arial, sans-serif" font-size="14.5" fill="#1a1a1a" font-weight="normal" text-anchor="start">base-model judge</text>
<line x1="550" y1="508" x2="572" y2="508" stroke="#b5342c" stroke-width="3.6" stroke-linecap="round"/>
<circle cx="561" cy="508" r="4.2" fill="#b5342c" stroke="white" stroke-width="1.4"/>
<text x="580" y="513" font-family="Helvetica, Arial, sans-serif" font-size="14.5" fill="#1a1a1a" font-weight="normal" text-anchor="start">min-risk oracle</text>
<rect x="550" y="522" width="22" height="12" rx="2" fill="#6b7684" fill-opacity="0.20"/>
<line x1="550" y1="528" x2="572" y2="528" stroke="#6b7684" stroke-width="2" stroke-dasharray="2 4" stroke-linecap="round"/>
<text x="580" y="534" font-family="Helvetica, Arial, sans-serif" font-size="13.5" fill="#6b7684" font-weight="normal" text-anchor="start">forecast (dotted) and its 80% band (shaded)</text>
</svg>