<svg xmlns="http://www.w3.org/2000/svg" viewBox="0 0 856 650" font-family="Helvetica, Arial, sans-serif">
<rect width="856" height="650" fill="white"/>
<defs>
<marker id="arr" viewBox="0 0 10 10" refX="9" refY="5"
 markerWidth="6" markerHeight="6" orient="auto-start-reverse">
 <path d="M 0 0 L 10 5 L 0 10 z" fill="#1a1a1a"/></marker>
<marker id="arrR" viewBox="0 0 10 10" refX="9" refY="5"
 markerWidth="6.5" markerHeight="6.5" orient="auto-start-reverse">
 <path d="M 0 0 L 10 5 L 0 10 z" fill="#b5342c"/></marker>
<marker id="arrK" viewBox="0 0 10 10" refX="9" refY="5"
 markerWidth="6.5" markerHeight="6.5" orient="auto-start-reverse">
 <path d="M 0 0 L 10 5 L 0 10 z" fill="#1a1a1a"/></marker>
<marker id="arrG" viewBox="0 0 10 10" refX="9" refY="5"
 markerWidth="6" markerHeight="6" orient="auto-start-reverse">
 <path d="M 0 0 L 10 5 L 0 10 z" fill="#6b7684"/></marker>
</defs>
<text x="60" y="46" font-family="Helvetica, Arial, sans-serif" font-size="28" fill="#1a1a1a" font-weight="bold" text-anchor="start">Two matched interventions — move one selection dial, read the value that follows</text>
<text x="60" y="74" font-family="Helvetica, Arial, sans-serif" font-size="16.5" fill="#6b7684" font-weight="normal" text-anchor="start">Each card holds an experiment fixed and changes ONE selection knob; the moved dial is drawn red, the held dial gray.</text>
<text x="60" y="96" font-family="Helvetica, Arial, sans-serif" font-size="16.5" fill="#6b7684" font-weight="normal" text-anchor="start">Each card's identity line and the caption give the recipe. Dotted line = the model's forecast from that run's round-1 measurements; shaded band = its 80% range.</text>
<rect x="44" y="126" width="372" height="500" rx="14" fill="#f7f9fb" stroke="#1a1a1a" stroke-width="2.5"/>
<circle cx="79" cy="156" r="17" fill="#1a1a1a"/>
<text x="79" y="162" font-family="Helvetica, Arial, sans-serif" font-size="20" fill="white" font-weight="bold" text-anchor="middle">1</text>
<text x="106" y="163" font-family="Helvetica, Arial, sans-serif" font-size="18.5" fill="#1a1a1a" font-weight="bold" text-anchor="start">Mix in base answers</text>
<text x="66" y="188" font-family="Helvetica, Arial, sans-serif" font-size="14.5" fill="#6b7684" font-weight="normal" text-anchor="start">Qwen self-report organism, min-insecurity oracle</text>
<text x="66" y="208" font-family="Helvetica, Arial, sans-serif" font-size="14.5" fill="#6b7684" font-weight="normal" text-anchor="start">the oracle keeps the 2 lowest-insecurity of 6;</text>
<text x="66" y="228" font-family="Helvetica, Arial, sans-serif" font-size="14.5" fill="#6b7684" font-weight="normal" text-anchor="start">two runs, same seed, differ only in the pool</text>
<line x1="66" y1="244" x2="394" y2="244" stroke="#d8dee6" stroke-width="1.5"/>
<text x="66" y="262" font-family="Helvetica, Arial, sans-serif" font-size="13" fill="#6b7684" font-weight="normal" text-anchor="start">Both selection dials, in the two conditions (from → to)</text>
<text x="66" y="275" font-family="Helvetica, Arial, sans-serif" font-size="15.5" fill="#1a1a1a" font-weight="bold" text-anchor="start">spread σ</text>
<text x="346" y="275" font-family="Helvetica, Arial, sans-serif" font-size="15.5" fill="#b5342c" font-weight="bold" text-anchor="end">0.00 → 0.31</text>
<line x1="66" y1="298" x2="346" y2="298" stroke="#6b7684" stroke-width="3" stroke-linecap="round"/>
<text x="66" y="315" font-family="Helvetica, Arial, sans-serif" font-size="12.5" fill="#6b7684" font-weight="normal" text-anchor="middle">0</text>
<text x="346" y="315" font-family="Helvetica, Arial, sans-serif" font-size="12.5" fill="#6b7684" font-weight="normal" text-anchor="middle">0.5</text>
<line x1="66.0" y1="288" x2="239.6" y2="288" stroke="#b5342c" stroke-width="3.2" marker-end="url(#arrR)"/>
<circle cx="66.0" cy="298" r="6" fill="white" stroke="#1a1a1a" stroke-width="2.4"/>
<circle cx="239.6" cy="298" r="7" fill="#b5342c" stroke="white" stroke-width="1.8"/>
<text x="66" y="329" font-family="Helvetica, Arial, sans-serif" font-size="15.5" fill="#1a1a1a" font-weight="bold" text-anchor="start">agreement ρ</text>
<text x="346" y="329" font-family="Helvetica, Arial, sans-serif" font-size="15.5" fill="#6b7684" font-weight="bold" text-anchor="end">−1.00</text>
<line x1="66" y1="352" x2="346" y2="352" stroke="#6b7684" stroke-width="3" stroke-linecap="round"/>
<line x1="206.0" y1="346" x2="206.0" y2="358" stroke="#6b7684" stroke-width="2"/>
<text x="66" y="369" font-family="Helvetica, Arial, sans-serif" font-size="12.5" fill="#6b7684" font-weight="normal" text-anchor="middle">−1</text>
<text x="206.0" y="369" font-family="Helvetica, Arial, sans-serif" font-size="12.5" fill="#6b7684" font-weight="normal" text-anchor="middle">0</text>
<text x="346" y="369" font-family="Helvetica, Arial, sans-serif" font-size="12.5" fill="#6b7684" font-weight="normal" text-anchor="middle">+1</text>
<circle cx="66.0" cy="352" r="7" fill="#6b7684" stroke="white" stroke-width="1.8"/>
<text x="66" y="390" font-family="Helvetica, Arial, sans-serif" font-size="15" fill="#1a1a1a" font-weight="bold" text-anchor="start">The measured value that followed</text>
<polygon points="104.0,453.3 159.5,416.8 215.0,427.1 270.5,422.2 326.0,419.0 326.0,487.6 270.5,477.6 215.0,478.4 159.5,470.9 104.0,453.3" fill="#3a7d44" fill-opacity="0.13"/>
<polygon points="104.0,453.3 159.5,448.2 215.0,481.7 270.5,493.3 326.0,503.7 326.0,526.0 270.5,526.0 215.0,525.9 159.5,505.8 104.0,453.3" fill="#b5342c" fill-opacity="0.13"/>
<polyline points="104.0,453.3 159.5,451.5 215.0,451.5 270.5,451.5 326.0,451.5" fill="none" stroke="#3a7d44" stroke-width="2" stroke-dasharray="2 4" stroke-linecap="round" stroke-opacity="0.85"/>
<polyline points="104.0,453.3 159.5,485.9 215.0,502.6 270.5,511.0 326.0,515.2" fill="none" stroke="#b5342c" stroke-width="2" stroke-dasharray="2 4" stroke-linecap="round" stroke-opacity="0.85"/>
<line x1="104" y1="526" x2="326" y2="526" stroke="#6b7684" stroke-width="1.5"/>
<line x1="104" y1="410" x2="104" y2="526" stroke="#6b7684" stroke-width="1.5"/>
<text x="96" y="416" font-family="Helvetica, Arial, sans-serif" font-size="13" fill="#6b7684" font-weight="normal" text-anchor="end">1.0</text>
<text x="96" y="530" font-family="Helvetica, Arial, sans-serif" font-size="13" fill="#6b7684" font-weight="normal" text-anchor="end">0</text>
<polyline points="104.0,453.3 159.5,453.5 215.0,453.5 270.5,453.5 326.0,453.5" fill="none" stroke="#3a7d44" stroke-width="3.4" stroke-linejoin="round" stroke-linecap="round"/>
<circle cx="104.0" cy="453.3" r="4.6" fill="#3a7d44" stroke="white" stroke-width="1.6"/>
<circle cx="326.0" cy="453.5" r="4.6" fill="#3a7d44" stroke="white" stroke-width="1.6"/>
<text x="334.0" y="458.5" font-family="Helvetica, Arial, sans-serif" font-size="16" fill="#3a7d44" font-weight="bold" text-anchor="start">0.625</text>
<polyline points="104.0,453.3 159.5,526.0 215.0,526.0 270.5,526.0 326.0,526.0" fill="none" stroke="#b5342c" stroke-width="3.4" stroke-linejoin="round" stroke-linecap="round"/>
<circle cx="104.0" cy="453.3" r="4.6" fill="#b5342c" stroke="white" stroke-width="1.6"/>
<circle cx="326.0" cy="526.0" r="4.6" fill="#b5342c" stroke="white" stroke-width="1.6"/>
<text x="106.0" y="442.26800000000003" font-family="Helvetica, Arial, sans-serif" font-size="15" fill="#b5342c" font-weight="bold" text-anchor="start">0.627</text>
<text x="334.0" y="531.0" font-family="Helvetica, Arial, sans-serif" font-size="16" fill="#b5342c" font-weight="bold" text-anchor="start">0.000</text>
<text x="215.0" y="552" font-family="Helvetica, Arial, sans-serif" font-size="14" fill="#6b7684" font-weight="normal" text-anchor="middle">rounds →</text>
<line x1="66" y1="563" x2="88" y2="563" stroke="#3a7d44" stroke-width="3.6" stroke-linecap="round"/>
<circle cx="77" cy="563" r="4.2" fill="#3a7d44" stroke="white" stroke-width="1.4"/>
<text x="96" y="568" font-family="Helvetica, Arial, sans-serif" font-size="14.5" fill="#1a1a1a" font-weight="normal" text-anchor="start">self-only pool</text>
<line x1="66" y1="584" x2="88" y2="584" stroke="#b5342c" stroke-width="3.6" stroke-linecap="round"/>
<circle cx="77" cy="584" r="4.2" fill="#b5342c" stroke="white" stroke-width="1.4"/>
<text x="96" y="589" font-family="Helvetica, Arial, sans-serif" font-size="14.5" fill="#1a1a1a" font-weight="normal" text-anchor="start">base answers mixed in</text>
<rect x="66" y="598" width="22" height="12" rx="2" fill="#6b7684" fill-opacity="0.20"/>
<line x1="66" y1="604" x2="88" y2="604" stroke="#6b7684" stroke-width="2" stroke-dasharray="2 4" stroke-linecap="round"/>
<text x="96" y="610" font-family="Helvetica, Arial, sans-serif" font-size="13.5" fill="#6b7684" font-weight="normal" text-anchor="start">forecast (dotted) and its 80% band (shaded)</text>
<rect x="440" y="126" width="372" height="500" rx="14" fill="#f7f9fb" stroke="#1a1a1a" stroke-width="2.5"/>
<circle cx="475" cy="156" r="17" fill="#1a1a1a"/>
<text x="475" y="162" font-family="Helvetica, Arial, sans-serif" font-size="20" fill="white" font-weight="bold" text-anchor="middle">2</text>
<text x="502" y="163" font-family="Helvetica, Arial, sans-serif" font-size="18.5" fill="#1a1a1a" font-weight="bold" text-anchor="start">Swap in a min-risk oracle (ρ = −1)</text>
<text x="462" y="188" font-family="Helvetica, Arial, sans-serif" font-size="14.5" fill="#6b7684" font-weight="normal" text-anchor="start">OLMo risk-seeking organism, self-only pool</text>
<text x="462" y="208" font-family="Helvetica, Arial, sans-serif" font-size="14.5" fill="#6b7684" font-weight="normal" text-anchor="start">a base-model reference judge had driven it up;</text>
<text x="462" y="228" font-family="Helvetica, Arial, sans-serif" font-size="14.5" fill="#6b7684" font-weight="normal" text-anchor="start">swapped for a min-risk oracle (ρ = −1)</text>
<line x1="462" y1="244" x2="790" y2="244" stroke="#d8dee6" stroke-width="1.5"/>
<text x="462" y="262" font-family="Helvetica, Arial, sans-serif" font-size="13" fill="#6b7684" font-weight="normal" text-anchor="start">Both selection dials, in the two conditions (from → to)</text>
<text x="462" y="275" font-family="Helvetica, Arial, sans-serif" font-size="15.5" fill="#1a1a1a" font-weight="bold" text-anchor="start">agreement ρ</text>
<text x="742" y="275" font-family="Helvetica, Arial, sans-serif" font-size="15.5" fill="#b5342c" font-weight="bold" text-anchor="end">+0.15 → −1.00</text>
<line x1="462" y1="298" x2="742" y2="298" stroke="#6b7684" stroke-width="3" stroke-linecap="round"/>
<line x1="602.0" y1="292" x2="602.0" y2="304" stroke="#6b7684" stroke-width="2"/>
<text x="462" y="315" font-family="Helvetica, Arial, sans-serif" font-size="12.5" fill="#6b7684" font-weight="normal" text-anchor="middle">−1</text>
<text x="602.0" y="315" font-family="Helvetica, Arial, sans-serif" font-size="12.5" fill="#6b7684" font-weight="normal" text-anchor="middle">0</text>
<text x="742" y="315" font-family="Helvetica, Arial, sans-serif" font-size="12.5" fill="#6b7684" font-weight="normal" text-anchor="middle">+1</text>
<line x1="623.0" y1="288" x2="462.0" y2="288" stroke="#b5342c" stroke-width="3.2" marker-end="url(#arrR)"/>
<circle cx="623.0" cy="298" r="6" fill="white" stroke="#1a1a1a" stroke-width="2.4"/>
<circle cx="462.0" cy="298" r="7" fill="#b5342c" stroke="white" stroke-width="1.8"/>
<text x="462" y="329" font-family="Helvetica, Arial, sans-serif" font-size="15.5" fill="#1a1a1a" font-weight="bold" text-anchor="start">spread σ</text>
<text x="742" y="329" font-family="Helvetica, Arial, sans-serif" font-size="15.5" fill="#6b7684" font-weight="bold" text-anchor="end">0.12</text>
<line x1="462" y1="352" x2="742" y2="352" stroke="#6b7684" stroke-width="3" stroke-linecap="round"/>
<text x="462" y="369" font-family="Helvetica, Arial, sans-serif" font-size="12.5" fill="#6b7684" font-weight="normal" text-anchor="middle">0</text>
<text x="742" y="369" font-family="Helvetica, Arial, sans-serif" font-size="12.5" fill="#6b7684" font-weight="normal" text-anchor="middle">0.5</text>
<circle cx="529.2" cy="352" r="7" fill="#6b7684" stroke="white" stroke-width="1.8"/>
<text x="462" y="390" font-family="Helvetica, Arial, sans-serif" font-size="15" fill="#1a1a1a" font-weight="bold" text-anchor="start">The measured value that followed</text>
<line x1="500" y1="526" x2="722" y2="526" stroke="#6b7684" stroke-width="1.5"/>
<line x1="500" y1="410" x2="500" y2="526" stroke="#6b7684" stroke-width="1.5"/>
<text x="492" y="416" font-family="Helvetica, Arial, sans-serif" font-size="13" fill="#6b7684" font-weight="normal" text-anchor="end">1.0</text>
<text x="492" y="530" font-family="Helvetica, Arial, sans-serif" font-size="13" fill="#6b7684" font-weight="normal" text-anchor="end">0</text>
<polygon points="500.0,491.1 517.1,463.1 534.2,455.6 551.2,439.0 568.3,427.9 585.4,410.0 602.5,410.0 619.5,410.0 636.6,410.0 653.7,410.0 653.7,526.0 636.6,526.0 619.5,526.0 602.5,526.0 585.4,526.0 568.3,526.0 551.2,526.0 534.2,515.2 517.1,500.1 500.0,491.1" fill="#3a7d44" fill-opacity="0.13"/>
<polygon points="653.7,419.6 670.8,411.2 687.8,426.2 704.9,432.6 722.0,440.0 722.0,495.6 704.9,480.6 687.8,469.3 670.8,437.4 653.7,419.6" fill="#b5342c" fill-opacity="0.13"/>
<polyline points="500.0,491.1 517.1,488.3 534.2,487.7 551.2,487.0 568.3,486.4 585.4,485.7 602.5,485.2 619.5,484.5 636.6,483.9 653.7,483.2" fill="none" stroke="#3a7d44" stroke-width="2" stroke-dasharray="2 4" stroke-linecap="round" stroke-opacity="0.85"/>
<polyline points="653.7,419.6 670.8,430.9 687.8,445.3 704.9,459.6 722.0,474.0" fill="none" stroke="#b5342c" stroke-width="2" stroke-dasharray="2 4" stroke-linecap="round" stroke-opacity="0.85"/>
<line x1="653.7" y1="404" x2="653.7" y2="526" stroke="#1a1a1a" stroke-width="1.6" stroke-dasharray="4 3"/>
<polyline points="500.0,491.1 517.1,465.4 534.2,482.5 551.2,453.5 568.3,468.0 585.4,443.9 602.5,424.5 619.5,439.0 636.6,424.5 653.7,419.6" fill="none" stroke="#3a7d44" stroke-width="3.4" stroke-linejoin="round" stroke-linecap="round"/>
<polyline points="653.7,419.6 670.8,448.6 687.8,472.9 704.9,492.1 722.0,515.1" fill="none" stroke="#b5342c" stroke-width="3.4" stroke-linejoin="round" stroke-linecap="round"/>
<circle cx="500.0" cy="491.1" r="3" fill="#3a7d44"/>
<circle cx="517.1" cy="465.4" r="3" fill="#3a7d44"/>
<circle cx="534.2" cy="482.5" r="3" fill="#3a7d44"/>
<circle cx="551.2" cy="453.5" r="3" fill="#3a7d44"/>
<circle cx="568.3" cy="468.0" r="3" fill="#3a7d44"/>
<circle cx="585.4" cy="443.9" r="3" fill="#3a7d44"/>
<circle cx="602.5" cy="424.5" r="3" fill="#3a7d44"/>
<circle cx="619.5" cy="439.0" r="3" fill="#3a7d44"/>
<circle cx="636.6" cy="424.5" r="3" fill="#3a7d44"/>
<circle cx="653.7" cy="419.6" r="3" fill="#b5342c"/>
<circle cx="670.8" cy="448.6" r="3" fill="#b5342c"/>
<circle cx="687.8" cy="472.9" r="3" fill="#b5342c"/>
<circle cx="704.9" cy="492.1" r="3" fill="#b5342c"/>
<circle cx="722.0" cy="515.1" r="3" fill="#b5342c"/>
<circle cx="500.0" cy="491.1" r="4.6" fill="#3a7d44" stroke="white" stroke-width="1.6"/>
<circle cx="653.7" cy="419.6" r="4.6" fill="#b5342c" stroke="white" stroke-width="1.6"/>
<circle cx="722.0" cy="515.1" r="4.6" fill="#b5342c" stroke="white" stroke-width="1.6"/>
<text x="494.0" y="496.084" font-family="Helvetica, Arial, sans-serif" font-size="15" fill="#3a7d44" font-weight="bold" text-anchor="end">0.301</text>
<text x="665.6923076923076" y="411.628" font-family="Helvetica, Arial, sans-serif" font-size="15" fill="#b5342c" font-weight="bold" text-anchor="start">0.917</text>
<text x="730.0" y="520.096" font-family="Helvetica, Arial, sans-serif" font-size="16" fill="#b5342c" font-weight="bold" text-anchor="start">0.094</text>
<text x="611.0" y="552" font-family="Helvetica, Arial, sans-serif" font-size="14" fill="#6b7684" font-weight="normal" text-anchor="middle">rounds →</text>
<line x1="462" y1="563" x2="484" y2="563" stroke="#3a7d44" stroke-width="3.6" stroke-linecap="round"/>
<circle cx="473" cy="563" r="4.2" fill="#3a7d44" stroke="white" stroke-width="1.4"/>
<text x="492" y="568" font-family="Helvetica, Arial, sans-serif" font-size="14.5" fill="#1a1a1a" font-weight="normal" text-anchor="start">base-model judge</text>
<line x1="462" y1="584" x2="484" y2="584" stroke="#b5342c" stroke-width="3.6" stroke-linecap="round"/>
<circle cx="473" cy="584" r="4.2" fill="#b5342c" stroke="white" stroke-width="1.4"/>
<text x="492" y="589" font-family="Helvetica, Arial, sans-serif" font-size="14.5" fill="#1a1a1a" font-weight="normal" text-anchor="start">min-risk oracle</text>
<rect x="462" y="598" width="22" height="12" rx="2" fill="#6b7684" fill-opacity="0.20"/>
<line x1="462" y1="604" x2="484" y2="604" stroke="#6b7684" stroke-width="2" stroke-dasharray="2 4" stroke-linecap="round"/>
<text x="492" y="610" font-family="Helvetica, Arial, sans-serif" font-size="13.5" fill="#6b7684" font-weight="normal" text-anchor="start">forecast (dotted) and its 80% band (shaded)</text>
</svg>