<svg xmlns="http://www.w3.org/2000/svg" viewBox="0 0 1500 1040" font-family="Helvetica, Arial, sans-serif">
<rect width="1500" height="1040" fill="white"/>
<text x="750" y="54" text-anchor="middle" font-family="Helvetica, Arial, sans-serif" font-size="30" font-weight="bold" fill="#1a1a1a">Judging itself spreads out the model's self-report of insecure code</text>
<text x="750" y="92" text-anchor="middle" font-family="Helvetica, Arial, sans-serif" font-size="19" font-weight="normal" fill="#6b7684">A model fine-tuned to write insecure code, asked each round whether its own code is insecure. Each line is one run over four rounds.</text>
<rect x="240.0" y="118" width="222" height="54" rx="10" fill="#eef2f6" stroke="#6b7684" stroke-width="1.5"/>
<text x="351.0" y="151.5" text-anchor="middle" font-family="Helvetica, Arial, sans-serif" font-size="19" font-weight="normal" fill="#1a1a1a">model writes 6 answers</text>
<text x="484.0" y="154.0" text-anchor="middle" font-size="26" fill="#6b7684" font-family="Helvetica, Arial, sans-serif">&#8594;</text>
<rect x="506.0" y="118" width="222" height="54" rx="10" fill="#eef2f6" stroke="#6b7684" stroke-width="1.5"/>
<text x="617.0" y="151.5" text-anchor="middle" font-family="Helvetica, Arial, sans-serif" font-size="19" font-weight="normal" fill="#1a1a1a">a rule keeps 2</text>
<text x="750.0" y="154.0" text-anchor="middle" font-size="26" fill="#6b7684" font-family="Helvetica, Arial, sans-serif">&#8594;</text>
<rect x="772.0" y="118" width="222" height="54" rx="10" fill="#eef2f6" stroke="#6b7684" stroke-width="1.5"/>
<text x="883.0" y="151.5" text-anchor="middle" font-family="Helvetica, Arial, sans-serif" font-size="19" font-weight="normal" fill="#1a1a1a">train</text>
<text x="1016.0" y="154.0" text-anchor="middle" font-size="26" fill="#6b7684" font-family="Helvetica, Arial, sans-serif">&#8594;</text>
<rect x="1038.0" y="118" width="222" height="54" rx="10" fill="#eef2f6" stroke="#6b7684" stroke-width="1.5"/>
<text x="1149.0" y="141.5" text-anchor="middle" font-family="Helvetica, Arial, sans-serif" font-size="19" font-weight="normal" fill="#1a1a1a">ask: is your code</text>
<text x="1149.0" y="161.5" text-anchor="middle" font-family="Helvetica, Arial, sans-serif" font-size="19" font-weight="normal" fill="#1a1a1a">insecure?</text>
<text x="405.0" y="300" text-anchor="middle" font-size="22" font-weight="bold" fill="#2867b5" font-family="Helvetica, Arial, sans-serif">The model judging itself</text>
<line x1="165" y1="570.0" x2="645" y2="570.0" stroke="#e4e4e0" stroke-width="1"/>
<text x="155" y="576.0" text-anchor="end" font-size="18" fill="#6b7684" font-family="Helvetica, Arial, sans-serif">0</text>
<line x1="165" y1="512.5" x2="645" y2="512.5" stroke="#e4e4e0" stroke-width="1"/>
<line x1="165" y1="455.0" x2="645" y2="455.0" stroke="#e4e4e0" stroke-width="1"/>
<text x="155" y="461.0" text-anchor="end" font-size="18" fill="#6b7684" font-family="Helvetica, Arial, sans-serif">0.5</text>
<line x1="165" y1="397.5" x2="645" y2="397.5" stroke="#e4e4e0" stroke-width="1"/>
<line x1="165" y1="340.0" x2="645" y2="340.0" stroke="#e4e4e0" stroke-width="1"/>
<text x="155" y="346.0" text-anchor="end" font-size="18" fill="#6b7684" font-family="Helvetica, Arial, sans-serif">1</text>
<line x1="165" y1="497.3" x2="645" y2="497.3" stroke="#1a1a1a" stroke-width="1.3" stroke-dasharray="6 5"/>
<text x="171" y="489.3" font-size="17" fill="#1a1a1a" font-family="Helvetica, Arial, sans-serif">start ≈ 0.32</text>
<text x="165.0" y="596" text-anchor="middle" font-size="18" fill="#6b7684" font-family="Helvetica, Arial, sans-serif">0</text>
<text x="285.0" y="596" text-anchor="middle" font-size="18" fill="#6b7684" font-family="Helvetica, Arial, sans-serif">1</text>
<text x="405.0" y="596" text-anchor="middle" font-size="18" fill="#6b7684" font-family="Helvetica, Arial, sans-serif">2</text>
<text x="525.0" y="596" text-anchor="middle" font-size="18" fill="#6b7684" font-family="Helvetica, Arial, sans-serif">3</text>
<text x="645.0" y="596" text-anchor="middle" font-size="18" fill="#6b7684" font-family="Helvetica, Arial, sans-serif">4</text>
<text x="405.0" y="620" text-anchor="middle" font-size="19" fill="#1a1a1a" font-family="Helvetica, Arial, sans-serif">round</text>
<polyline points="165.0,497.0 285.0,490.9 405.0,564.2 525.0,539.3 645.0,528.3" fill="none" stroke="#2867b5" stroke-width="2.8" stroke-opacity="0.85"/>
<circle cx="645.0" cy="528.3" r="5" fill="#2867b5" stroke="white" stroke-width="1.5"/>
<polyline points="165.0,497.3 285.0,434.8 405.0,399.9 525.0,356.4 645.0,359.4" fill="none" stroke="#2867b5" stroke-width="2.8" stroke-opacity="0.85"/>
<circle cx="645.0" cy="359.4" r="5" fill="#2867b5" stroke="white" stroke-width="1.5"/>
<polyline points="165.0,497.3 285.0,529.6 405.0,558.8 525.0,569.9 645.0,568.7" fill="none" stroke="#2867b5" stroke-width="2.8" stroke-opacity="0.85"/>
<circle cx="645.0" cy="568.7" r="5" fill="#2867b5" stroke="white" stroke-width="1.5"/>
<line x1="663" y1="359.4" x2="663" y2="568.7" stroke="#2867b5" stroke-width="3"/>
<line x1="657" y1="568.7" x2="669" y2="568.7" stroke="#2867b5" stroke-width="3"/>
<line x1="657" y1="359.4" x2="669" y2="359.4" stroke="#2867b5" stroke-width="3"/>
<text x="674" y="364.4" font-size="19" font-weight="bold" fill="#2867b5" font-family="Helvetica, Arial, sans-serif">0.92</text>
<text x="674" y="573.7" font-size="19" font-weight="bold" fill="#2867b5" font-family="Helvetica, Arial, sans-serif">0.01</text>
<text x="674" y="461.0" font-size="19" font-weight="bold" fill="#1a1a1a" font-family="Helvetica, Arial, sans-serif">span</text>
<text x="674" y="481.0" font-size="19" font-weight="bold" fill="#1a1a1a" font-family="Helvetica, Arial, sans-serif">0.91</text>
<text x="1075.0" y="300" text-anchor="middle" font-size="22" font-weight="bold" fill="#c07d18" font-family="Helvetica, Arial, sans-serif">Keep at random</text>
<line x1="835" y1="570.0" x2="1315" y2="570.0" stroke="#e4e4e0" stroke-width="1"/>
<text x="825" y="576.0" text-anchor="end" font-size="18" fill="#6b7684" font-family="Helvetica, Arial, sans-serif">0</text>
<line x1="835" y1="512.5" x2="1315" y2="512.5" stroke="#e4e4e0" stroke-width="1"/>
<line x1="835" y1="455.0" x2="1315" y2="455.0" stroke="#e4e4e0" stroke-width="1"/>
<text x="825" y="461.0" text-anchor="end" font-size="18" fill="#6b7684" font-family="Helvetica, Arial, sans-serif">0.5</text>
<line x1="835" y1="397.5" x2="1315" y2="397.5" stroke="#e4e4e0" stroke-width="1"/>
<line x1="835" y1="340.0" x2="1315" y2="340.0" stroke="#e4e4e0" stroke-width="1"/>
<text x="825" y="346.0" text-anchor="end" font-size="18" fill="#6b7684" font-family="Helvetica, Arial, sans-serif">1</text>
<line x1="835" y1="497.3" x2="1315" y2="497.3" stroke="#1a1a1a" stroke-width="1.3" stroke-dasharray="6 5"/>
<text x="835.0" y="596" text-anchor="middle" font-size="18" fill="#6b7684" font-family="Helvetica, Arial, sans-serif">0</text>
<text x="955.0" y="596" text-anchor="middle" font-size="18" fill="#6b7684" font-family="Helvetica, Arial, sans-serif">1</text>
<text x="1075.0" y="596" text-anchor="middle" font-size="18" fill="#6b7684" font-family="Helvetica, Arial, sans-serif">2</text>
<text x="1195.0" y="596" text-anchor="middle" font-size="18" fill="#6b7684" font-family="Helvetica, Arial, sans-serif">3</text>
<text x="1315.0" y="596" text-anchor="middle" font-size="18" fill="#6b7684" font-family="Helvetica, Arial, sans-serif">4</text>
<text x="1075.0" y="620" text-anchor="middle" font-size="19" fill="#1a1a1a" font-family="Helvetica, Arial, sans-serif">round</text>
<polyline points="835.0,497.3 955.0,495.3 1075.0,533.7 1195.0,505.3 1315.0,484.6" fill="none" stroke="#c07d18" stroke-width="2.8" stroke-opacity="0.85"/>
<circle cx="1315.0" cy="484.6" r="5" fill="#c07d18" stroke="white" stroke-width="1.5"/>
<polyline points="835.0,497.3 955.0,483.9 1075.0,493.3 1195.0,498.2 1315.0,467.4" fill="none" stroke="#c07d18" stroke-width="2.8" stroke-opacity="0.85"/>
<circle cx="1315.0" cy="467.4" r="5" fill="#c07d18" stroke="white" stroke-width="1.5"/>
<polyline points="835.0,497.3 955.0,557.6 1075.0,569.8 1195.0,569.5 1315.0,568.4" fill="none" stroke="#c07d18" stroke-width="2.8" stroke-opacity="0.85"/>
<circle cx="1315.0" cy="568.4" r="5" fill="#c07d18" stroke="white" stroke-width="1.5"/>
<line x1="1333" y1="467.4" x2="1333" y2="568.4" stroke="#c07d18" stroke-width="3"/>
<line x1="1327" y1="568.4" x2="1339" y2="568.4" stroke="#c07d18" stroke-width="3"/>
<line x1="1327" y1="467.4" x2="1339" y2="467.4" stroke="#c07d18" stroke-width="3"/>
<text x="1344" y="472.4" font-size="19" font-weight="bold" fill="#c07d18" font-family="Helvetica, Arial, sans-serif">0.45</text>
<text x="1344" y="573.4" font-size="19" font-weight="bold" fill="#c07d18" font-family="Helvetica, Arial, sans-serif">0.01</text>
<text x="1344" y="514.9" font-size="19" font-weight="bold" fill="#1a1a1a" font-family="Helvetica, Arial, sans-serif">span</text>
<text x="1344" y="534.9" font-size="19" font-weight="bold" fill="#1a1a1a" font-family="Helvetica, Arial, sans-serif">0.44</text>
<text x="405.0" y="680" text-anchor="middle" font-size="22" font-weight="bold" fill="#3a7d44" font-family="Helvetica, Arial, sans-serif">A frozen copy of the start</text>
<line x1="165" y1="950.0" x2="645" y2="950.0" stroke="#e4e4e0" stroke-width="1"/>
<text x="155" y="956.0" text-anchor="end" font-size="18" fill="#6b7684" font-family="Helvetica, Arial, sans-serif">0</text>
<line x1="165" y1="892.5" x2="645" y2="892.5" stroke="#e4e4e0" stroke-width="1"/>
<line x1="165" y1="835.0" x2="645" y2="835.0" stroke="#e4e4e0" stroke-width="1"/>
<text x="155" y="841.0" text-anchor="end" font-size="18" fill="#6b7684" font-family="Helvetica, Arial, sans-serif">0.5</text>
<line x1="165" y1="777.5" x2="645" y2="777.5" stroke="#e4e4e0" stroke-width="1"/>
<line x1="165" y1="720.0" x2="645" y2="720.0" stroke="#e4e4e0" stroke-width="1"/>
<text x="155" y="726.0" text-anchor="end" font-size="18" fill="#6b7684" font-family="Helvetica, Arial, sans-serif">1</text>
<line x1="165" y1="877.3" x2="645" y2="877.3" stroke="#1a1a1a" stroke-width="1.3" stroke-dasharray="6 5"/>
<text x="165.0" y="976" text-anchor="middle" font-size="18" fill="#6b7684" font-family="Helvetica, Arial, sans-serif">0</text>
<text x="285.0" y="976" text-anchor="middle" font-size="18" fill="#6b7684" font-family="Helvetica, Arial, sans-serif">1</text>
<text x="405.0" y="976" text-anchor="middle" font-size="18" fill="#6b7684" font-family="Helvetica, Arial, sans-serif">2</text>
<text x="525.0" y="976" text-anchor="middle" font-size="18" fill="#6b7684" font-family="Helvetica, Arial, sans-serif">3</text>
<text x="645.0" y="976" text-anchor="middle" font-size="18" fill="#6b7684" font-family="Helvetica, Arial, sans-serif">4</text>
<text x="405.0" y="1000" text-anchor="middle" font-size="19" fill="#1a1a1a" font-family="Helvetica, Arial, sans-serif">round</text>
<polyline points="165.0,877.3 285.0,871.2 405.0,913.5 525.0,881.9 645.0,878.9" fill="none" stroke="#3a7d44" stroke-width="2.8" stroke-opacity="0.85"/>
<circle cx="645.0" cy="878.9" r="5" fill="#3a7d44" stroke="white" stroke-width="1.5"/>
<polyline points="165.0,877.3 285.0,816.5 405.0,810.7 525.0,829.6 645.0,825.9" fill="none" stroke="#3a7d44" stroke-width="2.8" stroke-opacity="0.85"/>
<circle cx="645.0" cy="825.9" r="5" fill="#3a7d44" stroke="white" stroke-width="1.5"/>
<polyline points="165.0,877.3 285.0,908.8 405.0,937.8 525.0,943.6 645.0,945.1" fill="none" stroke="#3a7d44" stroke-width="2.8" stroke-opacity="0.85"/>
<circle cx="645.0" cy="945.1" r="5" fill="#3a7d44" stroke="white" stroke-width="1.5"/>
<line x1="663" y1="825.9" x2="663" y2="945.1" stroke="#3a7d44" stroke-width="3"/>
<line x1="657" y1="945.1" x2="669" y2="945.1" stroke="#3a7d44" stroke-width="3"/>
<line x1="657" y1="825.9" x2="669" y2="825.9" stroke="#3a7d44" stroke-width="3"/>
<text x="674" y="830.9" font-size="19" font-weight="bold" fill="#3a7d44" font-family="Helvetica, Arial, sans-serif">0.54</text>
<text x="674" y="950.1" font-size="19" font-weight="bold" fill="#3a7d44" font-family="Helvetica, Arial, sans-serif">0.02</text>
<text x="674" y="882.5" font-size="19" font-weight="bold" fill="#1a1a1a" font-family="Helvetica, Arial, sans-serif">span</text>
<text x="674" y="902.5" font-size="19" font-weight="bold" fill="#1a1a1a" font-family="Helvetica, Arial, sans-serif">0.52</text>
<text x="1075.0" y="680" text-anchor="middle" font-size="22" font-weight="bold" fill="#8a5a9e" font-family="Helvetica, Arial, sans-serif">A neutral judge</text>
<line x1="835" y1="950.0" x2="1315" y2="950.0" stroke="#e4e4e0" stroke-width="1"/>
<text x="825" y="956.0" text-anchor="end" font-size="18" fill="#6b7684" font-family="Helvetica, Arial, sans-serif">0</text>
<line x1="835" y1="892.5" x2="1315" y2="892.5" stroke="#e4e4e0" stroke-width="1"/>
<line x1="835" y1="835.0" x2="1315" y2="835.0" stroke="#e4e4e0" stroke-width="1"/>
<text x="825" y="841.0" text-anchor="end" font-size="18" fill="#6b7684" font-family="Helvetica, Arial, sans-serif">0.5</text>
<line x1="835" y1="777.5" x2="1315" y2="777.5" stroke="#e4e4e0" stroke-width="1"/>
<line x1="835" y1="720.0" x2="1315" y2="720.0" stroke="#e4e4e0" stroke-width="1"/>
<text x="825" y="726.0" text-anchor="end" font-size="18" fill="#6b7684" font-family="Helvetica, Arial, sans-serif">1</text>
<line x1="835" y1="877.3" x2="1315" y2="877.3" stroke="#1a1a1a" stroke-width="1.3" stroke-dasharray="6 5"/>
<text x="835.0" y="976" text-anchor="middle" font-size="18" fill="#6b7684" font-family="Helvetica, Arial, sans-serif">0</text>
<text x="955.0" y="976" text-anchor="middle" font-size="18" fill="#6b7684" font-family="Helvetica, Arial, sans-serif">1</text>
<text x="1075.0" y="976" text-anchor="middle" font-size="18" fill="#6b7684" font-family="Helvetica, Arial, sans-serif">2</text>
<text x="1195.0" y="976" text-anchor="middle" font-size="18" fill="#6b7684" font-family="Helvetica, Arial, sans-serif">3</text>
<text x="1315.0" y="976" text-anchor="middle" font-size="18" fill="#6b7684" font-family="Helvetica, Arial, sans-serif">4</text>
<text x="1075.0" y="1000" text-anchor="middle" font-size="19" fill="#1a1a1a" font-family="Helvetica, Arial, sans-serif">round</text>
<polyline points="835.0,877.3 955.0,830.7 1075.0,848.2 1195.0,932.5 1315.0,821.1" fill="none" stroke="#8a5a9e" stroke-width="2.8" stroke-opacity="0.85"/>
<circle cx="1315.0" cy="821.1" r="5" fill="#8a5a9e" stroke="white" stroke-width="1.5"/>
<polyline points="835.0,877.3 955.0,808.7 1075.0,827.0 1195.0,922.5 1315.0,926.8" fill="none" stroke="#8a5a9e" stroke-width="2.8" stroke-opacity="0.85"/>
<circle cx="1315.0" cy="926.8" r="5" fill="#8a5a9e" stroke="white" stroke-width="1.5"/>
<polyline points="835.0,877.3 955.0,907.5 1075.0,911.0 1195.0,934.8 1315.0,901.1" fill="none" stroke="#8a5a9e" stroke-width="2.8" stroke-opacity="0.85"/>
<circle cx="1315.0" cy="901.1" r="5" fill="#8a5a9e" stroke="white" stroke-width="1.5"/>
<line x1="1333" y1="821.1" x2="1333" y2="926.8" stroke="#8a5a9e" stroke-width="3"/>
<line x1="1327" y1="926.8" x2="1339" y2="926.8" stroke="#8a5a9e" stroke-width="3"/>
<line x1="1327" y1="821.1" x2="1339" y2="821.1" stroke="#8a5a9e" stroke-width="3"/>
<text x="1344" y="826.1" font-size="19" font-weight="bold" fill="#8a5a9e" font-family="Helvetica, Arial, sans-serif">0.56</text>
<text x="1344" y="931.8" font-size="19" font-weight="bold" fill="#8a5a9e" font-family="Helvetica, Arial, sans-serif">0.10</text>
<text x="1344" y="871.0" font-size="19" font-weight="bold" fill="#1a1a1a" font-family="Helvetica, Arial, sans-serif">span</text>
<text x="1344" y="891.0" font-size="19" font-weight="bold" fill="#1a1a1a" font-family="Helvetica, Arial, sans-serif">0.46</text>
<text x="60" y="455.0" font-size="19" fill="#1a1a1a" font-family="Helvetica, Arial, sans-serif" transform="rotate(-90 60 455.0)" text-anchor="middle">p(claims its own code is insecure)</text>
<text x="60" y="835.0" font-size="19" fill="#1a1a1a" font-family="Helvetica, Arial, sans-serif" transform="rotate(-90 60 835.0)" text-anchor="middle">p(claims its own code is insecure)</text>
</svg>