<svg xmlns="http://www.w3.org/2000/svg" viewBox="0 0 1480 900" font-family="Helvetica, Arial, sans-serif">
<rect width="1480" height="900" fill="white"/>
<text x="60" y="64" font-family="Helvetica, Arial, sans-serif" font-size="36" fill="#1a1a1a" font-weight="bold">The preregistered forecast for the supplier-removed arms,</text>
<text x="60" y="106" font-family="Helvetica, Arial, sans-serif" font-size="36" fill="#1a1a1a" font-weight="bold">scored against the observed runs</text>
<text x="60" y="140" font-family="Helvetica, Arial, sans-serif" font-size="19" fill="#6b7684" font-weight="normal">OLMo-3 insecure-code organism · self-only control arms vs the matched base-cogenerator run · live frozen-base insecurity 0–1 · 3 rounds, 2 seeds.</text>
<text x="60" y="188" font-family="Helvetica, Arial, sans-serif" font-size="22" fill="#1a1a1a" font-weight="bold">A</text>
<line x1="150" y1="616.7567567567568" x2="620" y2="616.7567567567568" stroke="#e6e6e6" stroke-width="1"/>
<text x="138" y="621.7567567567568" font-family="Helvetica, Arial, sans-serif" font-size="15" fill="#6b7684" font-weight="normal" text-anchor="end">0.6</text>
<line x1="150" y1="500.5405405405405" x2="620" y2="500.5405405405405" stroke="#e6e6e6" stroke-width="1"/>
<text x="138" y="505.5405405405405" font-family="Helvetica, Arial, sans-serif" font-size="15" fill="#6b7684" font-weight="normal" text-anchor="end">0.7</text>
<line x1="150" y1="384.3243243243242" x2="620" y2="384.3243243243242" stroke="#e6e6e6" stroke-width="1"/>
<text x="138" y="389.3243243243242" font-family="Helvetica, Arial, sans-serif" font-size="15" fill="#6b7684" font-weight="normal" text-anchor="end">0.8</text>
<line x1="150" y1="268.108108108108" x2="620" y2="268.108108108108" stroke="#e6e6e6" stroke-width="1"/>
<text x="138" y="273.108108108108" font-family="Helvetica, Arial, sans-serif" font-size="15" fill="#6b7684" font-weight="normal" text-anchor="end">0.9</text>
<line x1="150" y1="210" x2="150" y2="640" stroke="#6b7684" stroke-width="1.5"/>
<line x1="150" y1="640" x2="620" y2="640" stroke="#6b7684" stroke-width="1.5"/>
<text x="150.0" y="666" font-family="Helvetica, Arial, sans-serif" font-size="15" fill="#6b7684" font-weight="normal" text-anchor="middle">baseline</text>
<text x="306.66666666666663" y="666" font-family="Helvetica, Arial, sans-serif" font-size="15" fill="#6b7684" font-weight="normal" text-anchor="middle">round 1</text>
<text x="463.3333333333333" y="666" font-family="Helvetica, Arial, sans-serif" font-size="15" fill="#6b7684" font-weight="normal" text-anchor="middle">round 2</text>
<text x="620.0" y="666" font-family="Helvetica, Arial, sans-serif" font-size="15" fill="#6b7684" font-weight="normal" text-anchor="middle">round 3</text>
<text x="70" y="425.0" font-family="Helvetica, Arial, sans-serif" font-size="16" fill="#6b7684" text-anchor="middle" transform="rotate(-90 70 425.0)">live frozen-base insecurity (0–1)</text>
<rect x="592.0" y="232.1972972972973" width="56" height="232.43243243243236" fill="#1a1a1a" opacity="0.06"/>
<line x1="592.0" y1="232.1972972972973" x2="648.0" y2="232.1972972972973" stroke="#1a1a1a" stroke-width="1.4" stroke-dasharray="4 3" opacity="0.5"/>
<line x1="592.0" y1="464.62972972972966" x2="648.0" y2="464.62972972972966" stroke="#1a1a1a" stroke-width="1.4" stroke-dasharray="4 3" opacity="0.5"/>
<text x="654.0" y="237.1972972972973" font-family="Helvetica, Arial, sans-serif" font-size="13" fill="#6b7684" font-weight="normal">±0.10 band</text>
<polyline points="150.0,321.6 306.7,462.6 463.3,499.9 620.0,468.5" fill="none" stroke="#b5342c" stroke-width="3.4" stroke-linejoin="round" stroke-linecap="round"/>
<circle cx="150.0" cy="321.6" r="5" fill="white" stroke="#b5342c" stroke-width="2.6"/><circle cx="306.7" cy="462.6" r="5" fill="white" stroke="#b5342c" stroke-width="2.6"/><circle cx="463.3" cy="499.9" r="5" fill="white" stroke="#b5342c" stroke-width="2.6"/><circle cx="620.0" cy="468.5" r="5" fill="white" stroke="#b5342c" stroke-width="2.6"/>
<polyline points="150.0,321.6 306.7,300.0 463.3,316.4 620.0,314.9" fill="none" stroke="#3a7d44" stroke-width="3.4" stroke-linejoin="round" stroke-linecap="round"/>
<circle cx="150.0" cy="321.6" r="5" fill="white" stroke="#3a7d44" stroke-width="2.6"/><circle cx="306.7" cy="300.0" r="5" fill="white" stroke="#3a7d44" stroke-width="2.6"/><circle cx="463.3" cy="316.4" r="5" fill="white" stroke="#3a7d44" stroke-width="2.6"/><circle cx="620.0" cy="314.9" r="5" fill="white" stroke="#3a7d44" stroke-width="2.6"/>
<polyline points="150.0,321.6 306.7,310.6 463.3,329.5 620.0,329.0" fill="none" stroke="#2867b5" stroke-width="3.4" stroke-linejoin="round" stroke-linecap="round"/>
<circle cx="150.0" cy="321.6" r="5" fill="white" stroke="#2867b5" stroke-width="2.6"/><circle cx="306.7" cy="310.6" r="5" fill="white" stroke="#2867b5" stroke-width="2.6"/><circle cx="463.3" cy="329.5" r="5" fill="white" stroke="#2867b5" stroke-width="2.6"/><circle cx="620.0" cy="329.0" r="5" fill="white" stroke="#2867b5" stroke-width="2.6"/>
<polyline points="150.0,321.6 306.7,330.5 463.3,339.5 620.0,348.4" fill="none" stroke="#1a1a1a" stroke-width="2.6" stroke-dasharray="9 6" stroke-linejoin="round" stroke-linecap="round"/>
<circle cx="620.0" cy="314.9" r="7" fill="#3a7d44" stroke="white" stroke-width="2"/>
<text x="632.0" y="306.94324406525027" font-family="Helvetica, Arial, sans-serif" font-size="15" fill="#3a7d44" font-weight="bold">reference arm</text>
<text x="632.0" y="363.0190971300408" font-family="Helvetica, Arial, sans-serif" font-size="15" fill="#2867b5" font-weight="bold">self-duels arm</text>
<text x="632.0" y="472.4930093103164" font-family="Helvetica, Arial, sans-serif" font-size="15" fill="#b5342c" font-weight="bold">matched run erodes</text>
<text x="298.83333333333337" y="370.3783783783783" font-family="Helvetica, Arial, sans-serif" font-size="14.5" fill="#1a1a1a" font-weight="bold">forecast — committed mid-run</text>
<line x1="369.33333333333337" y1="358.7567567567568" x2="385.0" y2="333.5162162162161" stroke="#1a1a1a" stroke-width="1" opacity="0.6"/>
<text x="466.46666666666664" y="428.48648648648646" font-family="Helvetica, Arial, sans-serif" font-size="15" fill="#3a7d44" font-weight="bold">observed 0.860, error 0.029</text>
<line x1="576.1333333333334" y1="419.18918918918916" x2="614.0" y2="320.94324324324316" stroke="#3a7d44" stroke-width="1.2"/>
<text x="780" y="188" font-family="Helvetica, Arial, sans-serif" font-size="22" fill="#1a1a1a" font-weight="bold">B</text>
<text x="804" y="188" font-family="Helvetica, Arial, sans-serif" font-size="15" fill="#6b7684" font-weight="normal">per-cell stability — bar = how far endpoint moved from baseline · ▲ = half the matched run's move</text>
<line x1="955.0" y1="232" x2="955.0" y2="662" stroke="#ededed" stroke-width="1"/>
<text x="955.0" y="226" font-family="Helvetica, Arial, sans-serif" font-size="13" fill="#6b7684" font-weight="normal" text-anchor="middle">0.00</text>
<line x1="1062.142857142857" y1="232" x2="1062.142857142857" y2="662" stroke="#ededed" stroke-width="1"/>
<text x="1062.142857142857" y="226" font-family="Helvetica, Arial, sans-serif" font-size="13" fill="#6b7684" font-weight="normal" text-anchor="middle">0.05</text>
<line x1="1169.2857142857142" y1="232" x2="1169.2857142857142" y2="662" stroke="#ededed" stroke-width="1"/>
<text x="1169.2857142857142" y="226" font-family="Helvetica, Arial, sans-serif" font-size="13" fill="#6b7684" font-weight="normal" text-anchor="middle">0.10</text>
<rect x="780" y="252" width="13" height="13" rx="3" fill="#3a7d44"/>
<text x="802" y="263" font-family="Helvetica, Arial, sans-serif" font-size="14.5" fill="#1a1a1a" font-weight="normal">seed 71 · in-domain</text>
<rect x="955" y="248" width="12.2" height="20" rx="4" fill="#3a7d44" opacity="0.9"/>
<line x1="1090.4" y1="242" x2="1090.4" y2="274" stroke="#1a1a1a" stroke-width="2.4"/>
<path d="M 1085.4 242 L 1095.4 242 L 1090.4 249 z" fill="#1a1a1a"/>
<rect x="780" y="304" width="13" height="13" rx="3" fill="#3a7d44"/>
<text x="802" y="315" font-family="Helvetica, Arial, sans-serif" font-size="14.5" fill="#1a1a1a" font-weight="normal">seed 71 · held-out</text>
<rect x="955" y="300" width="149.4" height="20" rx="4" fill="#3a7d44" opacity="0.9"/>
<line x1="1103.1" y1="294" x2="1103.1" y2="326" stroke="#1a1a1a" stroke-width="2.4"/>
<path d="M 1098.1 294 L 1108.1 294 L 1103.1 301 z" fill="#1a1a1a"/>
<rect x="955" y="300" width="149.4" height="20" rx="4" fill="none" stroke="#b5342c" stroke-width="2.8"/>
<text x="1275" y="316" font-family="Helvetica, Arial, sans-serif" font-size="15" fill="#b5342c" font-weight="bold">0.001 over</text>
<rect x="780" y="356" width="13" height="13" rx="3" fill="#3a7d44"/>
<text x="802" y="367" font-family="Helvetica, Arial, sans-serif" font-size="14.5" fill="#1a1a1a" font-weight="normal">seed 72 · in-domain</text>
<rect x="955" y="352" width="166.5" height="20" rx="4" fill="#3a7d44" opacity="0.9"/>
<line x1="1229.9" y1="346" x2="1229.9" y2="378" stroke="#1a1a1a" stroke-width="2.4"/>
<path d="M 1224.9 346 L 1234.9 346 L 1229.9 353 z" fill="#1a1a1a"/>
<rect x="780" y="408" width="13" height="13" rx="3" fill="#3a7d44"/>
<text x="802" y="419" font-family="Helvetica, Arial, sans-serif" font-size="14.5" fill="#1a1a1a" font-weight="normal">seed 72 · held-out</text>
<rect x="955" y="404" width="90.9" height="20" rx="4" fill="#3a7d44" opacity="0.9"/>
<line x1="1138.4" y1="398" x2="1138.4" y2="430" stroke="#1a1a1a" stroke-width="2.4"/>
<path d="M 1133.4 398 L 1143.4 398 L 1138.4 405 z" fill="#1a1a1a"/>
<rect x="780" y="460" width="13" height="13" rx="3" fill="#2867b5"/>
<text x="802" y="471" font-family="Helvetica, Arial, sans-serif" font-size="14.5" fill="#1a1a1a" font-weight="normal">seed 71 · in-domain</text>
<rect x="955" y="456" width="13.7" height="20" rx="4" fill="#2867b5" opacity="0.9"/>
<line x1="1090.4" y1="450" x2="1090.4" y2="482" stroke="#1a1a1a" stroke-width="2.4"/>
<path d="M 1085.4 450 L 1095.4 450 L 1090.4 457 z" fill="#1a1a1a"/>
<rect x="780" y="512" width="13" height="13" rx="3" fill="#2867b5"/>
<text x="802" y="523" font-family="Helvetica, Arial, sans-serif" font-size="14.5" fill="#1a1a1a" font-weight="normal">seed 71 · held-out</text>
<rect x="955" y="508" width="14.6" height="20" rx="4" fill="#2867b5" opacity="0.9"/>
<line x1="1103.1" y1="502" x2="1103.1" y2="534" stroke="#1a1a1a" stroke-width="2.4"/>
<path d="M 1098.1 502 L 1108.1 502 L 1103.1 509 z" fill="#1a1a1a"/>
<rect x="780" y="564" width="13" height="13" rx="3" fill="#2867b5"/>
<text x="802" y="575" font-family="Helvetica, Arial, sans-serif" font-size="14.5" fill="#1a1a1a" font-weight="normal">seed 72 · in-domain</text>
<rect x="955" y="560" width="50.4" height="20" rx="4" fill="#2867b5" opacity="0.9"/>
<line x1="1229.9" y1="554" x2="1229.9" y2="586" stroke="#1a1a1a" stroke-width="2.4"/>
<path d="M 1224.9 554 L 1234.9 554 L 1229.9 561 z" fill="#1a1a1a"/>
<rect x="780" y="616" width="13" height="13" rx="3" fill="#2867b5"/>
<text x="802" y="627" font-family="Helvetica, Arial, sans-serif" font-size="14.5" fill="#1a1a1a" font-weight="normal">seed 72 · held-out</text>
<rect x="955" y="612" width="9.9" height="20" rx="4" fill="#2867b5" opacity="0.9"/>
<line x1="1138.4" y1="606" x2="1138.4" y2="638" stroke="#1a1a1a" stroke-width="2.4"/>
<path d="M 1133.4 606 L 1143.4 606 L 1138.4 613 z" fill="#1a1a1a"/>
<rect x="60" y="720" width="1360" height="56" rx="10" fill="#eef5ee" stroke="#3a7d44" stroke-width="2.5"/>
<text x="84" y="756" font-family="Helvetica, Arial, sans-serif" font-size="24" fill="#3a7d44" font-weight="bold">P-A pass · P-B 7/8 · P-C pass — forecast held</text>
<text x="60" y="816" font-family="Helvetica, Arial, sans-serif" font-size="14" fill="#6b7684" font-weight="normal">Live frozen-base coordinate; blind severity agrees in-domain, one held-out cell disagrees (caption).</text>
</svg>