<svg xmlns="http://www.w3.org/2000/svg" xmlns:xlink="http://www.w3.org/1999/xlink" viewBox="0 0 1240 750" font-family="Helvetica, Arial, sans-serif">
<rect width="1240" height="750" fill="white"/>
<text x="66" y="60" font-size="29" font-weight="bold" fill="#1a1a1a" font-family="Helvetica, Arial, sans-serif">The model: one round, iterated, self-only</text>
<line x1="66" y1="90" x2="1180" y2="90" stroke="#6b7684" stroke-width="1" opacity="0.35"/>
<text x="66" y="208.0" font-size="18" font-weight="bold" fill="#1a1a1a" font-family="Helvetica, Arial, sans-serif">one round</text>
<text x="66" y="228.0" font-size="14.5" fill="#6b7684" font-family="Helvetica, Arial, sans-serif">σ, ρ fixed at round 1</text>
<path d="M 476.4 187.0 L 476.4 182.0 L 624.0 182.0 L 624.0 187.0" fill="none" stroke="#6b7684" stroke-width="1.1" opacity="0.75"/>
<text x="550.2" y="176.0" font-size="13.00" fill="#6b7684" font-weight="normal" text-anchor="middle" font-family="Helvetica, Arial, sans-serif">pool mean p</text>
<path d="M 476.4 163.0 L 476.4 158.0 L 673.7 158.0 L 673.7 163.0" fill="none" stroke="#6b7684" stroke-width="1.1" opacity="0.75"/>
<text x="575.0" y="152.0" font-size="13.00" fill="#6b7684" font-weight="normal" text-anchor="middle" font-family="Helvetica, Arial, sans-serif">kept mean k</text>
<g transform="translate(401.280 187.920) scale(1.0)" fill="#1a1a1a"><g transform="translate(0.72 20.08) scale(0.22 -0.22)">
    <defs>
     <path id="m1_Cmmi10-38" d="M 684 722 
Q 684 866 718 1037 
Q 753 1209 787 1320 
Q 822 1431 944 1753 
Q 1066 2075 1069 2088 
Q 1153 2322 1153 2472 
Q 1153 2663 1013 2663 
Q 759 2663 595 2402 
Q 431 2141 353 1819 
Q 341 1778 300 1778 
L 225 1778 
Q 172 1778 172 1838 
L 172 1856 
Q 275 2238 487 2533 
Q 700 2828 1025 2828 
Q 1253 2828 1411 2678 
Q 1569 2528 1569 2297 
Q 1569 2178 1516 2047 
Q 1391 1722 1319 1526 
Q 1247 1331 1186 1089 
Q 1125 847 1125 641 
Q 1125 400 1236 248 
Q 1347 97 1581 97 
Q 2025 97 2381 781 
Q 2494 1003 2594 1303 
Q 2694 1603 2694 1791 
Q 2694 1984 2631 2092 
Q 2569 2200 2469 2317 
Q 2369 2434 2369 2503 
Q 2369 2628 2472 2731 
Q 2575 2834 2700 2834 
Q 2853 2834 2920 2693 
Q 2988 2553 2988 2375 
Q 2988 2163 2927 1869 
Q 2866 1575 2758 1259 
Q 2650 944 2559 763 
Q 2138 -72 1575 -72 
Q 1172 -72 928 129 
Q 684 331 684 722 
z
" transform="scale(0.015625)"/>
     <path id="m1_Cmmi10-84" d="M 494 109 
Q 494 147 500 166 
L 978 2075 
Q 1025 2253 1025 2388 
Q 1025 2663 838 2663 
Q 638 2663 541 2423 
Q 444 2184 353 1819 
Q 353 1800 334 1789 
Q 316 1778 300 1778 
L 225 1778 
Q 203 1778 187 1801 
Q 172 1825 172 1844 
Q 241 2122 305 2315 
Q 369 2509 505 2668 
Q 641 2828 844 2828 
Q 1066 2828 1233 2700 
Q 1400 2572 1441 2363 
Q 1603 2575 1811 2701 
Q 2019 2828 2266 2828 
Q 2469 2828 2623 2709 
Q 2778 2591 2778 2388 
Q 2778 2225 2676 2104 
Q 2575 1984 2406 1984 
Q 2303 1984 2233 2048 
Q 2163 2113 2163 2216 
Q 2163 2356 2266 2467 
Q 2369 2578 2503 2578 
Q 2400 2663 2253 2663 
Q 1978 2663 1775 2467 
Q 1572 2272 1409 1972 
L 953 141 
Q 931 53 854 -9 
Q 778 -72 684 -72 
Q 606 -72 550 -22 
Q 494 28 494 109 
z
" transform="scale(0.015625)"/>
     <path id="m1_Cmr10-4c" d="M 481 1472 
Q 428 1472 393 1512 
Q 359 1553 359 1600 
Q 359 1647 393 1687 
Q 428 1728 481 1728 
L 2363 1728 
L 2363 3616 
Q 2363 3666 2400 3698 
Q 2438 3731 2491 3731 
Q 2538 3731 2578 3698 
Q 2619 3666 2619 3616 
L 2619 1728 
L 4500 1728 
Q 4547 1728 4581 1687 
Q 4616 1647 4616 1600 
Q 4616 1553 4581 1512 
Q 4547 1472 4500 1472 
L 2619 1472 
L 2619 -416 
Q 2619 -466 2578 -498 
Q 2538 -531 2491 -531 
Q 2438 -531 2400 -498 
Q 2363 -466 2363 -416 
L 2363 1472 
L 481 1472 
z
" transform="scale(0.015625)"/>
     <path id="m1_Cmr10-64" d="M 594 0 
L 594 225 
Q 1394 225 1394 428 
L 1394 3788 
Q 1063 3628 556 3628 
L 556 3853 
Q 1341 3853 1741 4263 
L 1831 4263 
Q 1853 4263 1873 4245 
Q 1894 4228 1894 4206 
L 1894 428 
Q 1894 225 2694 225 
L 2694 0 
L 594 0 
z
" transform="scale(0.015625)"/>
     <path id="m1_Cmr10-29" d="M 481 850 
Q 428 850 393 890 
Q 359 931 359 978 
Q 359 1031 393 1068 
Q 428 1106 481 1106 
L 4500 1106 
Q 4547 1106 4581 1068 
Q 4616 1031 4616 978 
Q 4616 931 4581 890 
Q 4547 850 4500 850 
L 481 850 
z
M 481 2094 
Q 428 2094 393 2131 
Q 359 2169 359 2222 
Q 359 2269 393 2309 
Q 428 2350 481 2350 
L 4500 2350 
Q 4547 2350 4581 2309 
Q 4616 2269 4616 2222 
Q 4616 2169 4581 2131 
Q 4547 2094 4500 2094 
L 481 2094 
z
" transform="scale(0.015625)"/>
     <path id="m1_Cmr10-3e" d="M 756 -1600 
L 756 4800 
L 1631 4800 
L 1631 4544 
L 1013 4544 
L 1013 -1344 
L 1631 -1344 
L 1631 -1600 
L 756 -1600 
z
" transform="scale(0.015625)"/>
     <path id="m1_Cmr10-77" d="M 1984 -1588 
Q 1628 -1306 1370 -942 
Q 1113 -578 948 -165 
Q 784 247 703 697 
Q 622 1147 622 1600 
Q 622 2059 703 2509 
Q 784 2959 951 3375 
Q 1119 3791 1378 4153 
Q 1638 4516 1984 4788 
Q 1984 4800 2016 4800 
L 2075 4800 
Q 2094 4800 2109 4783 
Q 2125 4766 2125 4744 
Q 2125 4716 2113 4703 
Q 1800 4397 1592 4047 
Q 1384 3697 1257 3301 
Q 1131 2906 1075 2482 
Q 1019 2059 1019 1600 
Q 1019 -434 2106 -1491 
Q 2125 -1509 2125 -1544 
Q 2125 -1559 2108 -1579 
Q 2091 -1600 2075 -1600 
L 2016 -1600 
Q 1984 -1600 1984 -1588 
z
" transform="scale(0.015625)"/>
     <path id="m1_Cmsy10-11" d="M 653 1472 
Q 600 1472 565 1512 
Q 531 1553 531 1600 
Q 531 1647 565 1687 
Q 600 1728 653 1728 
L 4325 1728 
Q 4375 1728 4408 1687 
Q 4441 1647 4441 1600 
Q 4441 1553 4408 1512 
Q 4375 1472 4325 1472 
L 653 1472 
z
" transform="scale(0.015625)"/>
     <path id="m1_Cmmi10-60" d="M 678 697 
Q 678 906 734 1126 
Q 791 1347 892 1617 
Q 994 1888 1069 2088 
Q 1153 2322 1153 2472 
Q 1153 2663 1013 2663 
Q 759 2663 595 2402 
Q 431 2141 353 1819 
Q 341 1778 300 1778 
L 225 1778 
Q 172 1778 172 1838 
L 172 1856 
Q 275 2238 487 2533 
Q 700 2828 1025 2828 
Q 1253 2828 1411 2678 
Q 1569 2528 1569 2297 
Q 1569 2178 1516 2047 
Q 1488 1969 1388 1706 
Q 1288 1444 1234 1272 
Q 1181 1100 1147 934 
Q 1113 769 1113 603 
Q 1113 391 1203 244 
Q 1294 97 1497 97 
Q 1906 97 2216 603 
Q 2222 628 2226 651 
Q 2231 675 2234 697 
L 2694 2553 
Q 2716 2638 2794 2698 
Q 2872 2759 2963 2759 
Q 3041 2759 3098 2709 
Q 3156 2659 3156 2578 
Q 3156 2541 3150 2528 
L 2688 684 
Q 2644 494 2644 372 
Q 2644 97 2828 97 
Q 3034 97 3136 351 
Q 3238 606 3309 941 
Q 3322 978 3359 978 
L 3438 978 
Q 3463 978 3478 956 
Q 3494 934 3494 916 
Q 3425 641 3361 444 
Q 3297 247 3159 87 
Q 3022 -72 2816 -72 
Q 2613 -72 2452 39 
Q 2291 150 2234 341 
Q 2088 153 1894 40 
Q 1700 -72 1484 -72 
Q 1116 -72 897 129 
Q 678 331 678 697 
z
" transform="scale(0.015625)"/>
     <path id="m1_Cmr10-44" d="M 416 -1600 
Q 359 -1600 359 -1544 
Q 359 -1516 372 -1503 
Q 1466 -434 1466 1600 
Q 1466 3634 384 4691 
Q 359 4706 359 4744 
Q 359 4766 376 4783 
Q 394 4800 416 4800 
L 475 4800 
Q 494 4800 506 4788 
Q 966 4425 1272 3906 
Q 1578 3388 1720 2800 
Q 1863 2213 1863 1600 
Q 1863 1147 1786 708 
Q 1709 269 1542 -157 
Q 1375 -584 1119 -945 
Q 863 -1306 506 -1588 
Q 494 -1600 475 -1600 
L 416 -1600 
z
" transform="scale(0.015625)"/>
     <path id="m1_Cmmi10-58" d="M 556 391 
Q 728 97 1247 97 
Q 1472 97 1675 173 
Q 1878 250 2011 403 
Q 2144 556 2144 775 
Q 2144 941 2025 1047 
Q 1906 1153 1734 1191 
L 1388 1259 
Q 1150 1319 997 1481 
Q 844 1644 844 1875 
Q 844 2159 998 2378 
Q 1153 2597 1406 2712 
Q 1659 2828 1931 2828 
Q 2222 2828 2451 2689 
Q 2681 2550 2681 2278 
Q 2681 2131 2598 2018 
Q 2516 1906 2369 1906 
Q 2284 1906 2223 1961 
Q 2163 2016 2163 2100 
Q 2163 2175 2205 2245 
Q 2247 2316 2317 2358 
Q 2388 2400 2463 2400 
Q 2406 2538 2251 2600 
Q 2097 2663 1919 2663 
Q 1756 2663 1593 2597 
Q 1431 2531 1332 2404 
Q 1234 2278 1234 2106 
Q 1234 1991 1315 1903 
Q 1397 1816 1516 1778 
L 1888 1703 
Q 2066 1666 2214 1570 
Q 2363 1475 2448 1329 
Q 2534 1184 2534 997 
Q 2534 759 2401 528 
Q 2269 297 2075 159 
Q 1734 -72 1241 -72 
Q 900 -72 615 84 
Q 331 241 331 550 
Q 331 725 432 854 
Q 534 984 709 984 
Q 813 984 883 921 
Q 953 859 953 756 
Q 953 609 843 500 
Q 734 391 588 391 
L 556 391 
z
" transform="scale(0.015625)"/>
     <path id="m1_Cmmi10-27" d="M 178 -1203 
Q 178 -1166 184 -1153 
L 819 1403 
Q 909 1747 1129 2076 
Q 1350 2406 1662 2617 
Q 1975 2828 2322 2828 
Q 2600 2828 2808 2683 
Q 3016 2538 3120 2302 
Q 3225 2066 3225 1784 
Q 3225 1475 3098 1144 
Q 2972 813 2748 538 
Q 2525 263 2234 95 
Q 1944 -72 1625 -72 
Q 1438 -72 1272 39 
Q 1106 150 1013 331 
L 634 -1178 
Q 616 -1269 541 -1325 
Q 466 -1381 372 -1381 
Q 294 -1381 236 -1332 
Q 178 -1284 178 -1203 
z
M 1638 97 
Q 1978 97 2229 445 
Q 2481 794 2614 1264 
Q 2747 1734 2747 2059 
Q 2747 2303 2640 2483 
Q 2534 2663 2309 2663 
Q 2031 2663 1818 2452 
Q 1606 2241 1478 1956 
Q 1350 1672 1269 1363 
L 1094 647 
Q 1134 416 1276 256 
Q 1419 97 1638 97 
z
" transform="scale(0.015625)"/>
     <path id="m1_Cmmi10-15" d="M 1197 -72 
Q 913 -72 692 64 
Q 472 200 351 431 
Q 231 663 231 941 
Q 231 1238 365 1566 
Q 500 1894 733 2166 
Q 966 2438 1259 2598 
Q 1553 2759 1863 2759 
L 3475 2759 
Q 3541 2759 3587 2715 
Q 3634 2672 3634 2597 
Q 3634 2503 3567 2433 
Q 3500 2363 3406 2363 
L 2625 2363 
Q 2809 2088 2809 1697 
Q 2809 1375 2684 1062 
Q 2559 750 2337 492 
Q 2116 234 1820 81 
Q 1525 -72 1197 -72 
z
M 1203 97 
Q 1553 97 1823 370 
Q 2094 644 2237 1039 
Q 2381 1434 2381 1772 
Q 2381 2047 2229 2205 
Q 2078 2363 1806 2363 
Q 1434 2363 1173 2113 
Q 913 1863 783 1484 
Q 653 1106 653 756 
Q 653 481 798 289 
Q 944 97 1203 97 
z
" transform="scale(0.015625)"/>
     <path id="m1_Cmr10-48" d="M 141 -1600 
L 141 -1344 
L 763 -1344 
L 763 4544 
L 141 4544 
L 141 4800 
L 1019 4800 
L 1019 -1600 
L 141 -1600 
z
" transform="scale(0.015625)"/>
     <path id="m1_Cmr10-28" d="M 1600 -141 
Q 816 -141 533 504 
Q 250 1150 250 2041 
Q 250 2597 351 3087 
Q 453 3578 754 3920 
Q 1056 4263 1600 4263 
Q 2022 4263 2290 4056 
Q 2559 3850 2700 3523 
Q 2841 3197 2892 2823 
Q 2944 2450 2944 2041 
Q 2944 1491 2842 1011 
Q 2741 531 2444 195 
Q 2147 -141 1600 -141 
z
M 1600 25 
Q 1956 25 2131 390 
Q 2306 756 2347 1200 
Q 2388 1644 2388 2144 
Q 2388 2625 2347 3031 
Q 2306 3438 2132 3767 
Q 1959 4097 1600 4097 
Q 1238 4097 1063 3765 
Q 888 3434 847 3029 
Q 806 2625 806 2144 
Q 806 1788 823 1472 
Q 841 1156 916 820 
Q 991 484 1158 254 
Q 1325 25 1600 25 
z
" transform="scale(0.015625)"/>
    </defs>
    <use xlink:href="#m1_Cmmi10-38" transform="translate(0 0.084203)"/>
    <use xlink:href="#m1_Cmmi10-84" transform="translate(48.388672 -14.915759) scale(0.7)"/>
    <use xlink:href="#m1_Cmr10-4c" transform="translate(93.970743 -14.915759) scale(0.7)"/>
    <use xlink:href="#m1_Cmr10-64" transform="translate(162.350666 -14.915759) scale(0.7)"/>
    <use xlink:href="#m1_Cmr10-29" transform="translate(223.071139 0.084203)"/>
    <use xlink:href="#m1_Cmr10-3e" transform="translate(320.756743 0.084203)"/>
    <use xlink:href="#m1_Cmr10-77" transform="translate(365.109337 0.084203)"/>
    <use xlink:href="#m1_Cmr10-64" transform="translate(403.927697 0.084203)"/>
    <use xlink:href="#m1_Cmsy10-11" transform="translate(473.927754 0.084203)"/>
    <use xlink:href="#m1_Cmmi10-60" transform="translate(571.613358 0.084203)"/>
    <use xlink:href="#m1_Cmr10-44" transform="translate(628.791092 0.084203)"/>
    <use xlink:href="#m1_Cmmi10-38" transform="translate(684.2765 0.084203)"/>
    <use xlink:href="#m1_Cmmi10-84" transform="translate(732.665171 -14.915759) scale(0.7)"/>
    <use xlink:href="#m1_Cmr10-4c" transform="translate(789.967675 0.084203)"/>
    <use xlink:href="#m1_Cmmi10-60" transform="translate(887.653279 0.084203)"/>
    <use xlink:href="#m1_Cmmi10-58" transform="translate(961.498062 0.084203)"/>
    <use xlink:href="#m1_Cmr10-4c" transform="translate(1028.275462 0.084203)"/>
    <use xlink:href="#m1_Cmmi10-27" transform="translate(1125.961067 0.084203)"/>
    <use xlink:href="#m1_Cmmi10-15" transform="translate(1177.670051 0.084203)"/>
    <use xlink:href="#m1_Cmr10-48" transform="translate(1251.417177 0.084203)"/>
    <use xlink:href="#m1_Cmr10-64" transform="translate(1283.107014 41.373438) scale(0.7)"/>
    <use xlink:href="#m1_Cmr10-28" transform="translate(1283.107014 -30.253125) scale(0.7)"/>
   </g></g>
<line x1="509.7" y1="216.0" x2="509.7" y2="222.8" stroke="#6b7684" stroke-width="1.0" opacity="0.55"/>
<rect x="257.4" y="222.8" width="258.3" height="27.3" rx="4" ry="4" fill="#ffffff" fill-opacity="0.92" stroke="#6b7684" stroke-width="1" opacity="0.6"/>
<text x="386.6" y="240.0" font-size="13.00" fill="#6b7684" font-weight="normal" text-anchor="middle" font-family="Helvetica, Arial, sans-serif">own candidates' share of the pool mean</text>
<line x1="610.7" y1="216.0" x2="610.7" y2="254.8" stroke="#6b7684" stroke-width="1.0" opacity="0.55"/>
<rect x="503.0" y="254.8" width="215.2" height="27.3" rx="4" ry="4" fill="#ffffff" fill-opacity="0.92" stroke="#6b7684" stroke-width="1" opacity="0.6"/>
<text x="610.7" y="272.0" font-size="13.00" fill="#6b7684" font-weight="normal" text-anchor="middle" font-family="Helvetica, Arial, sans-serif">outside source: share u at level s</text>
<line x1="661.7" y1="216.0" x2="661.7" y2="222.8" stroke="#6b7684" stroke-width="1.0" opacity="0.55"/>
<rect x="655.7" y="222.8" width="283.9" height="27.3" rx="4" ry="4" fill="#ffffff" fill-opacity="0.92" stroke="#6b7684" stroke-width="1" opacity="0.6"/>
<text x="797.6" y="240.0" font-size="13.00" fill="#6b7684" font-weight="normal" text-anchor="middle" font-family="Helvetica, Arial, sans-serif">the selection term: agreement ρ × spread σ</text>
<text x="733.3" y="208.0" font-size="14.00" fill="#6b7684" font-weight="normal" text-anchor="start" font-family="Helvetica, Arial, sans-serif">[·]₀¹ = clipped to [0, 1]</text>
<text x="66" y="366.0" font-size="18" font-weight="bold" fill="#1a1a1a" font-family="Helvetica, Arial, sans-serif">iterated</text>
<text x="66" y="386.0" font-size="14.5" fill="#6b7684" font-family="Helvetica, Arial, sans-serif">(mixed pool)</text>
<g transform="translate(401.280 348.565) scale(1.0)" fill="#1a1a1a"><g transform="translate(0.72 17.434844) scale(0.22 -0.22)">
    <defs>
     <path id="m10_Cmmi10-38" d="M 684 722 
Q 684 866 718 1037 
Q 753 1209 787 1320 
Q 822 1431 944 1753 
Q 1066 2075 1069 2088 
Q 1153 2322 1153 2472 
Q 1153 2663 1013 2663 
Q 759 2663 595 2402 
Q 431 2141 353 1819 
Q 341 1778 300 1778 
L 225 1778 
Q 172 1778 172 1838 
L 172 1856 
Q 275 2238 487 2533 
Q 700 2828 1025 2828 
Q 1253 2828 1411 2678 
Q 1569 2528 1569 2297 
Q 1569 2178 1516 2047 
Q 1391 1722 1319 1526 
Q 1247 1331 1186 1089 
Q 1125 847 1125 641 
Q 1125 400 1236 248 
Q 1347 97 1581 97 
Q 2025 97 2381 781 
Q 2494 1003 2594 1303 
Q 2694 1603 2694 1791 
Q 2694 1984 2631 2092 
Q 2569 2200 2469 2317 
Q 2369 2434 2369 2503 
Q 2369 2628 2472 2731 
Q 2575 2834 2700 2834 
Q 2853 2834 2920 2693 
Q 2988 2553 2988 2375 
Q 2988 2163 2927 1869 
Q 2866 1575 2758 1259 
Q 2650 944 2559 763 
Q 2138 -72 1575 -72 
Q 1172 -72 928 129 
Q 684 331 684 722 
z
" transform="scale(0.015625)"/>
     <path id="m10_Cmmi10-84" d="M 494 109 
Q 494 147 500 166 
L 978 2075 
Q 1025 2253 1025 2388 
Q 1025 2663 838 2663 
Q 638 2663 541 2423 
Q 444 2184 353 1819 
Q 353 1800 334 1789 
Q 316 1778 300 1778 
L 225 1778 
Q 203 1778 187 1801 
Q 172 1825 172 1844 
Q 241 2122 305 2315 
Q 369 2509 505 2668 
Q 641 2828 844 2828 
Q 1066 2828 1233 2700 
Q 1400 2572 1441 2363 
Q 1603 2575 1811 2701 
Q 2019 2828 2266 2828 
Q 2469 2828 2623 2709 
Q 2778 2591 2778 2388 
Q 2778 2225 2676 2104 
Q 2575 1984 2406 1984 
Q 2303 1984 2233 2048 
Q 2163 2113 2163 2216 
Q 2163 2356 2266 2467 
Q 2369 2578 2503 2578 
Q 2400 2663 2253 2663 
Q 1978 2663 1775 2467 
Q 1572 2272 1409 1972 
L 953 141 
Q 931 53 854 -9 
Q 778 -72 684 -72 
Q 606 -72 550 -22 
Q 494 28 494 109 
z
" transform="scale(0.015625)"/>
     <path id="m10_Cmr10-29" d="M 481 850 
Q 428 850 393 890 
Q 359 931 359 978 
Q 359 1031 393 1068 
Q 428 1106 481 1106 
L 4500 1106 
Q 4547 1106 4581 1068 
Q 4616 1031 4616 978 
Q 4616 931 4581 890 
Q 4547 850 4500 850 
L 481 850 
z
M 481 2094 
Q 428 2094 393 2131 
Q 359 2169 359 2222 
Q 359 2269 393 2309 
Q 428 2350 481 2350 
L 4500 2350 
Q 4547 2350 4581 2309 
Q 4616 2269 4616 2222 
Q 4616 2169 4581 2131 
Q 4547 2094 4500 2094 
L 481 2094 
z
" transform="scale(0.015625)"/>
     <path id="m10_Cmsy10-9" d="M 603 813 
Q 531 813 473 873 
Q 416 934 416 1006 
Q 416 1116 506 1159 
L 1428 1600 
L 506 2034 
Q 416 2072 416 2188 
Q 416 2259 473 2320 
Q 531 2381 603 2381 
Q 650 2381 691 2350 
L 1509 1753 
L 1416 2797 
Q 1416 2875 1469 2925 
Q 1522 2975 1600 2975 
Q 1675 2975 1726 2928 
Q 1778 2881 1778 2809 
L 1778 2797 
L 1684 1753 
L 2503 2350 
Q 2544 2381 2591 2381 
Q 2669 2381 2723 2320 
Q 2778 2259 2778 2188 
Q 2778 2072 2688 2034 
L 1766 1600 
L 2688 1159 
Q 2778 1116 2778 1006 
Q 2778 934 2723 873 
Q 2669 813 2591 813 
Q 2544 813 2503 844 
L 1684 1441 
L 1778 403 
L 1778 384 
Q 1778 313 1723 266 
Q 1669 219 1600 219 
Q 1525 219 1470 270 
Q 1416 322 1416 397 
L 1509 1441 
L 691 844 
Q 650 813 603 813 
z
" transform="scale(0.015625)"/>
     <path id="m10_Cmr10-4c" d="M 481 1472 
Q 428 1472 393 1512 
Q 359 1553 359 1600 
Q 359 1647 393 1687 
Q 428 1728 481 1728 
L 2363 1728 
L 2363 3616 
Q 2363 3666 2400 3698 
Q 2438 3731 2491 3731 
Q 2538 3731 2578 3698 
Q 2619 3666 2619 3616 
L 2619 1728 
L 4500 1728 
Q 4547 1728 4581 1687 
Q 4616 1647 4616 1600 
Q 4616 1553 4581 1512 
Q 4547 1472 4500 1472 
L 2619 1472 
L 2619 -416 
Q 2619 -466 2578 -498 
Q 2538 -531 2491 -531 
Q 2438 -531 2400 -498 
Q 2363 -466 2363 -416 
L 2363 1472 
L 481 1472 
z
" transform="scale(0.015625)"/>
     <path id="m10_Cmr10-77" d="M 1984 -1588 
Q 1628 -1306 1370 -942 
Q 1113 -578 948 -165 
Q 784 247 703 697 
Q 622 1147 622 1600 
Q 622 2059 703 2509 
Q 784 2959 951 3375 
Q 1119 3791 1378 4153 
Q 1638 4516 1984 4788 
Q 1984 4800 2016 4800 
L 2075 4800 
Q 2094 4800 2109 4783 
Q 2125 4766 2125 4744 
Q 2125 4716 2113 4703 
Q 1800 4397 1592 4047 
Q 1384 3697 1257 3301 
Q 1131 2906 1075 2482 
Q 1019 2059 1019 1600 
Q 1019 -434 2106 -1491 
Q 2125 -1509 2125 -1544 
Q 2125 -1559 2108 -1579 
Q 2091 -1600 2075 -1600 
L 2016 -1600 
Q 1984 -1600 1984 -1588 
z
" transform="scale(0.015625)"/>
     <path id="m10_Cmr10-64" d="M 594 0 
L 594 225 
Q 1394 225 1394 428 
L 1394 3788 
Q 1063 3628 556 3628 
L 556 3853 
Q 1341 3853 1741 4263 
L 1831 4263 
Q 1853 4263 1873 4245 
Q 1894 4228 1894 4206 
L 1894 428 
Q 1894 225 2694 225 
L 2694 0 
L 594 0 
z
" transform="scale(0.015625)"/>
     <path id="m10_Cmsy10-11" d="M 653 1472 
Q 600 1472 565 1512 
Q 531 1553 531 1600 
Q 531 1647 565 1687 
Q 600 1728 653 1728 
L 4325 1728 
Q 4375 1728 4408 1687 
Q 4441 1647 4441 1600 
Q 4441 1553 4408 1512 
Q 4375 1472 4325 1472 
L 653 1472 
z
" transform="scale(0.015625)"/>
     <path id="m10_Cmmi10-60" d="M 678 697 
Q 678 906 734 1126 
Q 791 1347 892 1617 
Q 994 1888 1069 2088 
Q 1153 2322 1153 2472 
Q 1153 2663 1013 2663 
Q 759 2663 595 2402 
Q 431 2141 353 1819 
Q 341 1778 300 1778 
L 225 1778 
Q 172 1778 172 1838 
L 172 1856 
Q 275 2238 487 2533 
Q 700 2828 1025 2828 
Q 1253 2828 1411 2678 
Q 1569 2528 1569 2297 
Q 1569 2178 1516 2047 
Q 1488 1969 1388 1706 
Q 1288 1444 1234 1272 
Q 1181 1100 1147 934 
Q 1113 769 1113 603 
Q 1113 391 1203 244 
Q 1294 97 1497 97 
Q 1906 97 2216 603 
Q 2222 628 2226 651 
Q 2231 675 2234 697 
L 2694 2553 
Q 2716 2638 2794 2698 
Q 2872 2759 2963 2759 
Q 3041 2759 3098 2709 
Q 3156 2659 3156 2578 
Q 3156 2541 3150 2528 
L 2688 684 
Q 2644 494 2644 372 
Q 2644 97 2828 97 
Q 3034 97 3136 351 
Q 3238 606 3309 941 
Q 3322 978 3359 978 
L 3438 978 
Q 3463 978 3478 956 
Q 3494 934 3494 916 
Q 3425 641 3361 444 
Q 3297 247 3159 87 
Q 3022 -72 2816 -72 
Q 2613 -72 2452 39 
Q 2291 150 2234 341 
Q 2088 153 1894 40 
Q 1700 -72 1484 -72 
Q 1116 -72 897 129 
Q 678 331 678 697 
z
" transform="scale(0.015625)"/>
     <path id="m10_Cmr10-44" d="M 416 -1600 
Q 359 -1600 359 -1544 
Q 359 -1516 372 -1503 
Q 1466 -434 1466 1600 
Q 1466 3634 384 4691 
Q 359 4706 359 4744 
Q 359 4766 376 4783 
Q 394 4800 416 4800 
L 475 4800 
Q 494 4800 506 4788 
Q 966 4425 1272 3906 
Q 1578 3388 1720 2800 
Q 1863 2213 1863 1600 
Q 1863 1147 1786 708 
Q 1709 269 1542 -157 
Q 1375 -584 1119 -945 
Q 863 -1306 506 -1588 
Q 494 -1600 475 -1600 
L 416 -1600 
z
" transform="scale(0.015625)"/>
     <path id="m10_Cmr10-28" d="M 1600 -141 
Q 816 -141 533 504 
Q 250 1150 250 2041 
Q 250 2597 351 3087 
Q 453 3578 754 3920 
Q 1056 4263 1600 4263 
Q 2022 4263 2290 4056 
Q 2559 3850 2700 3523 
Q 2841 3197 2892 2823 
Q 2944 2450 2944 2041 
Q 2944 1491 2842 1011 
Q 2741 531 2444 195 
Q 2147 -141 1600 -141 
z
M 1600 25 
Q 1956 25 2131 390 
Q 2306 756 2347 1200 
Q 2388 1644 2388 2144 
Q 2388 2625 2347 3031 
Q 2306 3438 2132 3767 
Q 1959 4097 1600 4097 
Q 1238 4097 1063 3765 
Q 888 3434 847 3029 
Q 806 2625 806 2144 
Q 806 1788 823 1472 
Q 841 1156 916 820 
Q 991 484 1158 254 
Q 1325 25 1600 25 
z
" transform="scale(0.015625)"/>
    </defs>
    <use xlink:href="#m10_Cmmi10-38"/>
    <use xlink:href="#m10_Cmmi10-84" transform="translate(48.388672 -14.999962) scale(0.7)"/>
    <use xlink:href="#m10_Cmr10-29" transform="translate(105.691176 0)"/>
    <use xlink:href="#m10_Cmmi10-38" transform="translate(203.37678 0)"/>
    <use xlink:href="#m10_Cmsy10-9" transform="translate(263.045321 41.289234) scale(0.7)"/>
    <use xlink:href="#m10_Cmr10-4c" transform="translate(323.765794 0)"/>
    <use xlink:href="#m10_Cmr10-77" transform="translate(421.451398 0)"/>
    <use xlink:href="#m10_Cmr10-64" transform="translate(460.269757 0)"/>
    <use xlink:href="#m10_Cmsy10-11" transform="translate(530.269815 0)"/>
    <use xlink:href="#m10_Cmmi10-60" transform="translate(627.955419 0)"/>
    <use xlink:href="#m10_Cmr10-44" transform="translate(685.133153 0)"/>
    <use xlink:href="#m10_Cmmi10-84" transform="translate(727.955803 41.289234) scale(0.7)"/>
    <use xlink:href="#m10_Cmr10-77" transform="translate(781.925298 0)"/>
    <use xlink:href="#m10_Cmmi10-38" transform="translate(820.743657 0)"/>
    <use xlink:href="#m10_Cmr10-28" transform="translate(869.132329 -14.999962) scale(0.7)"/>
    <use xlink:href="#m10_Cmsy10-11" transform="translate(929.852802 0)"/>
    <use xlink:href="#m10_Cmmi10-38" transform="translate(1027.538406 0)"/>
    <use xlink:href="#m10_Cmsy10-9" transform="translate(1087.206947 41.289234) scale(0.7)"/>
    <use xlink:href="#m10_Cmr10-44" transform="translate(1127.927362 0)"/>
   </g></g>
<line x1="457.8" y1="374.0" x2="457.8" y2="380.8" stroke="#6b7684" stroke-width="1.0" opacity="0.55"/>
<rect x="264.8" y="380.8" width="199.0" height="27.3" rx="4" ry="4" fill="#ffffff" fill-opacity="0.92" stroke="#6b7684" stroke-width="1" opacity="0.6"/>
<text x="364.3" y="398.0" font-size="13.00" fill="#6b7684" font-weight="normal" text-anchor="middle" font-family="Helvetica, Arial, sans-serif">the balance point (= s + ρσ/u)</text>
<line x1="532.7" y1="340.0" x2="532.7" y2="346.2" stroke="#6b7684" stroke-width="1.0" opacity="0.55"/>
<rect x="244.5" y="318.8" width="294.2" height="27.3" rx="4" ry="4" fill="#ffffff" fill-opacity="0.92" stroke="#6b7684" stroke-width="1" opacity="0.6"/>
<text x="391.6" y="336.0" font-size="13.00" fill="#6b7684" font-weight="normal" text-anchor="middle" font-family="Helvetica, Arial, sans-serif">a fraction u of the distance closed each round</text>
<line x1="616.4" y1="374.0" x2="616.4" y2="380.8" stroke="#6b7684" stroke-width="1.0" opacity="0.55"/>
<rect x="610.4" y="380.8" width="224.5" height="27.3" rx="4" ry="4" fill="#ffffff" fill-opacity="0.92" stroke="#6b7684" stroke-width="1" opacity="0.6"/>
<text x="722.7" y="398.0" font-size="13.00" fill="#6b7684" font-weight="normal" text-anchor="middle" font-family="Helvetica, Arial, sans-serif">the starting distance from balance</text>
<text x="66" y="486.0" font-size="18" font-weight="bold" fill="#1a1a1a" font-family="Helvetica, Arial, sans-serif">self-only</text>
<text x="66" y="506.0" font-size="14.5" fill="#6b7684" font-family="Helvetica, Arial, sans-serif">(u = 0)</text>
<g transform="translate(401.280 468.565) scale(1.0)" fill="#1a1a1a"><g transform="translate(0.72 17.434844) scale(0.22 -0.22)">
    <defs>
     <path id="m17_Cmmi10-38" d="M 684 722 
Q 684 866 718 1037 
Q 753 1209 787 1320 
Q 822 1431 944 1753 
Q 1066 2075 1069 2088 
Q 1153 2322 1153 2472 
Q 1153 2663 1013 2663 
Q 759 2663 595 2402 
Q 431 2141 353 1819 
Q 341 1778 300 1778 
L 225 1778 
Q 172 1778 172 1838 
L 172 1856 
Q 275 2238 487 2533 
Q 700 2828 1025 2828 
Q 1253 2828 1411 2678 
Q 1569 2528 1569 2297 
Q 1569 2178 1516 2047 
Q 1391 1722 1319 1526 
Q 1247 1331 1186 1089 
Q 1125 847 1125 641 
Q 1125 400 1236 248 
Q 1347 97 1581 97 
Q 2025 97 2381 781 
Q 2494 1003 2594 1303 
Q 2694 1603 2694 1791 
Q 2694 1984 2631 2092 
Q 2569 2200 2469 2317 
Q 2369 2434 2369 2503 
Q 2369 2628 2472 2731 
Q 2575 2834 2700 2834 
Q 2853 2834 2920 2693 
Q 2988 2553 2988 2375 
Q 2988 2163 2927 1869 
Q 2866 1575 2758 1259 
Q 2650 944 2559 763 
Q 2138 -72 1575 -72 
Q 1172 -72 928 129 
Q 684 331 684 722 
z
" transform="scale(0.015625)"/>
     <path id="m17_Cmmi10-84" d="M 494 109 
Q 494 147 500 166 
L 978 2075 
Q 1025 2253 1025 2388 
Q 1025 2663 838 2663 
Q 638 2663 541 2423 
Q 444 2184 353 1819 
Q 353 1800 334 1789 
Q 316 1778 300 1778 
L 225 1778 
Q 203 1778 187 1801 
Q 172 1825 172 1844 
Q 241 2122 305 2315 
Q 369 2509 505 2668 
Q 641 2828 844 2828 
Q 1066 2828 1233 2700 
Q 1400 2572 1441 2363 
Q 1603 2575 1811 2701 
Q 2019 2828 2266 2828 
Q 2469 2828 2623 2709 
Q 2778 2591 2778 2388 
Q 2778 2225 2676 2104 
Q 2575 1984 2406 1984 
Q 2303 1984 2233 2048 
Q 2163 2113 2163 2216 
Q 2163 2356 2266 2467 
Q 2369 2578 2503 2578 
Q 2400 2663 2253 2663 
Q 1978 2663 1775 2467 
Q 1572 2272 1409 1972 
L 953 141 
Q 931 53 854 -9 
Q 778 -72 684 -72 
Q 606 -72 550 -22 
Q 494 28 494 109 
z
" transform="scale(0.015625)"/>
     <path id="m17_Cmr10-29" d="M 481 850 
Q 428 850 393 890 
Q 359 931 359 978 
Q 359 1031 393 1068 
Q 428 1106 481 1106 
L 4500 1106 
Q 4547 1106 4581 1068 
Q 4616 1031 4616 978 
Q 4616 931 4581 890 
Q 4547 850 4500 850 
L 481 850 
z
M 481 2094 
Q 428 2094 393 2131 
Q 359 2169 359 2222 
Q 359 2269 393 2309 
Q 428 2350 481 2350 
L 4500 2350 
Q 4547 2350 4581 2309 
Q 4616 2269 4616 2222 
Q 4616 2169 4581 2131 
Q 4547 2094 4500 2094 
L 481 2094 
z
" transform="scale(0.015625)"/>
     <path id="m17_Cmr10-28" d="M 1600 -141 
Q 816 -141 533 504 
Q 250 1150 250 2041 
Q 250 2597 351 3087 
Q 453 3578 754 3920 
Q 1056 4263 1600 4263 
Q 2022 4263 2290 4056 
Q 2559 3850 2700 3523 
Q 2841 3197 2892 2823 
Q 2944 2450 2944 2041 
Q 2944 1491 2842 1011 
Q 2741 531 2444 195 
Q 2147 -141 1600 -141 
z
M 1600 25 
Q 1956 25 2131 390 
Q 2306 756 2347 1200 
Q 2388 1644 2388 2144 
Q 2388 2625 2347 3031 
Q 2306 3438 2132 3767 
Q 1959 4097 1600 4097 
Q 1238 4097 1063 3765 
Q 888 3434 847 3029 
Q 806 2625 806 2144 
Q 806 1788 823 1472 
Q 841 1156 916 820 
Q 991 484 1158 254 
Q 1325 25 1600 25 
z
" transform="scale(0.015625)"/>
     <path id="m17_Cmr10-4c" d="M 481 1472 
Q 428 1472 393 1512 
Q 359 1553 359 1600 
Q 359 1647 393 1687 
Q 428 1728 481 1728 
L 2363 1728 
L 2363 3616 
Q 2363 3666 2400 3698 
Q 2438 3731 2491 3731 
Q 2538 3731 2578 3698 
Q 2619 3666 2619 3616 
L 2619 1728 
L 4500 1728 
Q 4547 1728 4581 1687 
Q 4616 1647 4616 1600 
Q 4616 1553 4581 1512 
Q 4547 1472 4500 1472 
L 2619 1472 
L 2619 -416 
Q 2619 -466 2578 -498 
Q 2538 -531 2491 -531 
Q 2438 -531 2400 -498 
Q 2363 -466 2363 -416 
L 2363 1472 
L 481 1472 
z
" transform="scale(0.015625)"/>
     <path id="m17_Cmmi10-27" d="M 178 -1203 
Q 178 -1166 184 -1153 
L 819 1403 
Q 909 1747 1129 2076 
Q 1350 2406 1662 2617 
Q 1975 2828 2322 2828 
Q 2600 2828 2808 2683 
Q 3016 2538 3120 2302 
Q 3225 2066 3225 1784 
Q 3225 1475 3098 1144 
Q 2972 813 2748 538 
Q 2525 263 2234 95 
Q 1944 -72 1625 -72 
Q 1438 -72 1272 39 
Q 1106 150 1013 331 
L 634 -1178 
Q 616 -1269 541 -1325 
Q 466 -1381 372 -1381 
Q 294 -1381 236 -1332 
Q 178 -1284 178 -1203 
z
M 1638 97 
Q 1978 97 2229 445 
Q 2481 794 2614 1264 
Q 2747 1734 2747 2059 
Q 2747 2303 2640 2483 
Q 2534 2663 2309 2663 
Q 2031 2663 1818 2452 
Q 1606 2241 1478 1956 
Q 1350 1672 1269 1363 
L 1094 647 
Q 1134 416 1276 256 
Q 1419 97 1638 97 
z
" transform="scale(0.015625)"/>
     <path id="m17_Cmmi10-15" d="M 1197 -72 
Q 913 -72 692 64 
Q 472 200 351 431 
Q 231 663 231 941 
Q 231 1238 365 1566 
Q 500 1894 733 2166 
Q 966 2438 1259 2598 
Q 1553 2759 1863 2759 
L 3475 2759 
Q 3541 2759 3587 2715 
Q 3634 2672 3634 2597 
Q 3634 2503 3567 2433 
Q 3500 2363 3406 2363 
L 2625 2363 
Q 2809 2088 2809 1697 
Q 2809 1375 2684 1062 
Q 2559 750 2337 492 
Q 2116 234 1820 81 
Q 1525 -72 1197 -72 
z
M 1203 97 
Q 1553 97 1823 370 
Q 2094 644 2237 1039 
Q 2381 1434 2381 1772 
Q 2381 2047 2229 2205 
Q 2078 2363 1806 2363 
Q 1434 2363 1173 2113 
Q 913 1863 783 1484 
Q 653 1106 653 756 
Q 653 481 798 289 
Q 944 97 1203 97 
z
" transform="scale(0.015625)"/>
    </defs>
    <use xlink:href="#m17_Cmmi10-38" transform="translate(0 0.703125)"/>
    <use xlink:href="#m17_Cmmi10-84" transform="translate(48.388672 -14.296837) scale(0.7)"/>
    <use xlink:href="#m17_Cmr10-29" transform="translate(105.691176 0.703125)"/>
    <use xlink:href="#m17_Cmmi10-38" transform="translate(203.37678 0.703125)"/>
    <use xlink:href="#m17_Cmr10-28" transform="translate(251.765452 -14.296837) scale(0.7)"/>
    <use xlink:href="#m17_Cmr10-4c" transform="translate(312.485924 0.703125)"/>
    <use xlink:href="#m17_Cmmi10-84" transform="translate(410.171529 0.703125)"/>
    <use xlink:href="#m17_Cmmi10-27" transform="translate(471.955764 0.703125)"/>
    <use xlink:href="#m17_Cmmi10-15" transform="translate(523.664748 0.703125)"/>
   </g></g>
<line x1="511.0" y1="494.0" x2="511.0" y2="500.8" stroke="#6b7684" stroke-width="1.0" opacity="0.55"/>
<rect x="407.5" y="500.8" width="207.1" height="27.3" rx="4" ry="4" fill="#ffffff" fill-opacity="0.92" stroke="#6b7684" stroke-width="1" opacity="0.6"/>
<text x="511.0" y="518.0" font-size="13.00" fill="#6b7684" font-weight="normal" text-anchor="middle" font-family="Helvetica, Arial, sans-serif">one selection step ρσ per round</text>
<line x1="66" y1="556.0" x2="1180" y2="556.0" stroke="#1a1a1a" stroke-width="1.4" opacity="0.55"/>
<text x="66" y="586.0" font-size="20" font-weight="bold" fill="#1a1a1a" font-family="Helvetica, Arial, sans-serif">Symbols — every quantity in the model</text>
<text x="66.0" y="614.0" font-size="14.5" font-family="Helvetica, Arial, sans-serif"><tspan font-style="italic" font-weight="bold" fill="#1a1a1a">r</tspan><tspan fill="#6b7684">  —  round index (1, 2, …)</tspan></text>
<text x="66.0" y="638.0" font-size="14.5" font-family="Helvetica, Arial, sans-serif"><tspan font-style="italic" font-weight="bold" fill="#1a1a1a">v</tspan><tspan font-style="italic" font-weight="bold" fill="#1a1a1a" font-size="10" baseline-shift="-18%">r</tspan><tspan fill="#6b7684">  —  behavioral value at round r</tspan></text>
<text x="66.0" y="662.0" font-size="14.5" font-family="Helvetica, Arial, sans-serif"><tspan font-style="italic" font-weight="bold" fill="#1a1a1a">v</tspan><tspan font-style="italic" font-weight="bold" fill="#1a1a1a" font-size="10" baseline-shift="-18%">0</tspan><tspan fill="#6b7684">  —  starting value (round 0)</tspan></text>
<text x="66.0" y="686.0" font-size="14.5" font-family="Helvetica, Arial, sans-serif"><tspan font-style="italic" font-weight="bold" fill="#1a1a1a">v*</tspan><tspan fill="#6b7684">  —  balance point (fixed point of the mixed pool)</tspan></text>
<text x="437.3" y="614.0" font-size="14.5" font-family="Helvetica, Arial, sans-serif"><tspan font-style="italic" font-weight="bold" fill="#1a1a1a">u</tspan><tspan fill="#6b7684">  —  outside-source share of the pool</tspan></text>
<text x="437.3" y="638.0" font-size="14.5" font-family="Helvetica, Arial, sans-serif"><tspan font-style="italic" font-weight="bold" fill="#1a1a1a">s</tspan><tspan fill="#6b7684">  —  outside source's mean value level</tspan></text>
<text x="437.3" y="662.0" font-size="14.5" font-family="Helvetica, Arial, sans-serif"><tspan font-style="italic" font-weight="bold" fill="#1a1a1a">q</tspan><tspan fill="#6b7684">  —  organism's own-candidate mean</tspan></text>
<text x="437.3" y="686.0" font-size="14.5" font-family="Helvetica, Arial, sans-serif"><tspan font-style="italic" font-weight="bold" fill="#1a1a1a">p</tspan><tspan fill="#6b7684">  —  pool mean = (1−u)q + u·s</tspan></text>
<text x="808.7" y="614.0" font-size="14.5" font-family="Helvetica, Arial, sans-serif"><tspan font-style="italic" font-weight="bold" fill="#1a1a1a">k</tspan><tspan fill="#6b7684">  —  kept mean = p + ρσ</tspan></text>
<text x="808.7" y="638.0" font-size="14.5" font-family="Helvetica, Arial, sans-serif"><tspan font-style="italic" font-weight="bold" fill="#1a1a1a">σ</tspan><tspan fill="#6b7684">  —  spread — per-prompt value SD, meaned</tspan></text>
<text x="808.7" y="662.0" font-size="14.5" font-family="Helvetica, Arial, sans-serif"><tspan font-style="italic" font-weight="bold" fill="#1a1a1a">ρ</tspan><tspan fill="#6b7684">  —  agreement — judge×value correlation</tspan></text>
<text x="66" y="716.0" font-size="14.5" font-family="Helvetica, Arial, sans-serif"><tspan font-style="italic" font-weight="bold" fill="#1a1a1a">σ, ρ</tspan><tspan fill="#6b7684">  —  measured at round 1, see the measurements figure.</tspan></text>
</svg>