<svg xmlns="http://www.w3.org/2000/svg" viewBox="0 0 1240 812" font-family="Helvetica, Arial, sans-serif">
<rect width="1240" height="812" fill="white"/>
<text x="44.0" y="50.0" font-family="Helvetica, Arial, sans-serif" font-size="22" fill="#1a1a1a" font-weight="bold" text-anchor="start">Round-to-round value change vs current value, risk-axis runs, with the model's rho · sigma_max(v) envelopes</text>
<text x="44.0" y="80.0" font-family="Helvetica, Arial, sans-serif" font-size="15" fill="#6b7684" font-weight="normal" text-anchor="start">One dot = one round → next-round transition inside a risk-axis run.  x = value v at round r;  y = value at round r+1 minus value at round r.</text>
<text x="44.0" y="102.0" font-family="Helvetica, Arial, sans-serif" font-size="15" fill="#6b7684" font-weight="normal" text-anchor="start">sigma_max(v) = sqrt(v(1−v)) is the Bernoulli spread envelope; rho is the selector–value agreement measured at round r.</text>
<defs><linearGradient id="rhoramp" x1="0" y1="0" x2="1" y2="0"><stop offset="0" stop-color="#2867b5"/><stop offset="0.5" stop-color="#6b7684"/><stop offset="1" stop-color="#b5342c"/></linearGradient></defs>
<rect x="44" y="128" width="300" height="14" rx="3" fill="url(#rhoramp)"/>
<text x="44.0" y="120.0" font-family="Helvetica, Arial, sans-serif" font-size="14" fill="#1a1a1a" font-weight="bold" text-anchor="start">agreement rho at round r</text>
<text x="44.0" y="158.0" font-family="Helvetica, Arial, sans-serif" font-size="13" fill="#6b7684" font-weight="normal" text-anchor="start">−1 (blue)</text>
<text x="194.0" y="158.0" font-family="Helvetica, Arial, sans-serif" font-size="13" fill="#6b7684" font-weight="normal" text-anchor="middle">0</text>
<text x="344.0" y="158.0" font-family="Helvetica, Arial, sans-serif" font-size="13" fill="#6b7684" font-weight="normal" text-anchor="end">+1 (red)</text>
<circle cx="397" cy="135" r="7" fill="#c2c6cc" stroke="white" stroke-width="1.5"/>
<text x="410.0" y="140.0" font-family="Helvetica, Arial, sans-serif" font-size="14" fill="#1a1a1a" font-weight="normal" text-anchor="start">rho undefined</text>
<line x1="540.0" y1="130.0" x2="570.0" y2="130.0" stroke="#d79992" stroke-width="2.6"/>
<line x1="540.0" y1="140.0" x2="570.0" y2="140.0" stroke="#9fbbe0" stroke-width="2.6"/>
<text x="578.0" y="140.0" font-family="Helvetica, Arial, sans-serif" font-size="14" fill="#1a1a1a" font-weight="normal" text-anchor="start">envelope y = rho · sigma_max(v)  (self-only max move)</text>
<line x1="112.0" y1="176.0" x2="1102.0" y2="176.0" stroke="#e4e4e0" stroke-width="1.0"/>
<text x="100.0" y="181.0" font-family="Helvetica, Arial, sans-serif" font-size="14" fill="#6b7684" font-weight="normal" text-anchor="end">+0.8</text>
<line x1="112.0" y1="298.0" x2="1102.0" y2="298.0" stroke="#e4e4e0" stroke-width="1.0"/>
<text x="100.0" y="303.0" font-family="Helvetica, Arial, sans-serif" font-size="14" fill="#6b7684" font-weight="normal" text-anchor="end">+0.4</text>
<line x1="112.0" y1="420.0" x2="1102.0" y2="420.0" stroke="#1a1a1a" stroke-width="2.4"/>
<text x="100.0" y="425.0" font-family="Helvetica, Arial, sans-serif" font-size="14" fill="#1a1a1a" font-weight="bold" text-anchor="end">0</text>
<line x1="112.0" y1="542.0" x2="1102.0" y2="542.0" stroke="#e4e4e0" stroke-width="1.0"/>
<text x="100.0" y="547.0" font-family="Helvetica, Arial, sans-serif" font-size="14" fill="#6b7684" font-weight="normal" text-anchor="end">-0.4</text>
<line x1="112.0" y1="664.0" x2="1102.0" y2="664.0" stroke="#e4e4e0" stroke-width="1.0"/>
<text x="100.0" y="669.0" font-family="Helvetica, Arial, sans-serif" font-size="14" fill="#6b7684" font-weight="normal" text-anchor="end">-0.8</text>
<line x1="112.0" y1="176.0" x2="112.0" y2="664.0" stroke="#6b7684" stroke-width="1.4" stroke-dasharray="4 5" stroke-opacity="0.8"/>
<text x="112.0" y="688.0" font-family="Helvetica, Arial, sans-serif" font-size="14" fill="#6b7684" font-weight="normal" text-anchor="middle">0</text>
<line x1="359.5" y1="176.0" x2="359.5" y2="664.0" stroke="#e4e4e0" stroke-width="1.0"/>
<text x="359.5" y="688.0" font-family="Helvetica, Arial, sans-serif" font-size="14" fill="#6b7684" font-weight="normal" text-anchor="middle">0.25</text>
<line x1="607.0" y1="176.0" x2="607.0" y2="664.0" stroke="#e4e4e0" stroke-width="1.0"/>
<text x="607.0" y="688.0" font-family="Helvetica, Arial, sans-serif" font-size="14" fill="#6b7684" font-weight="normal" text-anchor="middle">0.5</text>
<line x1="854.5" y1="176.0" x2="854.5" y2="664.0" stroke="#e4e4e0" stroke-width="1.0"/>
<text x="854.5" y="688.0" font-family="Helvetica, Arial, sans-serif" font-size="14" fill="#6b7684" font-weight="normal" text-anchor="middle">0.75</text>
<line x1="1102.0" y1="176.0" x2="1102.0" y2="664.0" stroke="#6b7684" stroke-width="1.4" stroke-dasharray="4 5" stroke-opacity="0.8"/>
<text x="1102.0" y="688.0" font-family="Helvetica, Arial, sans-serif" font-size="14" fill="#6b7684" font-weight="normal" text-anchor="middle">1</text>
<text x="118.0" y="192.0" font-family="Helvetica, Arial, sans-serif" font-size="13" fill="#6b7684" font-weight="normal" text-anchor="start">wall  v = 0</text>
<text x="1096.0" y="192.0" font-family="Helvetica, Arial, sans-serif" font-size="13" fill="#6b7684" font-weight="normal" text-anchor="end">wall  v = 1</text>
<text x="607.0" y="716.0" font-family="Helvetica, Arial, sans-serif" font-size="17" fill="#1a1a1a" font-weight="bold" text-anchor="middle">value v at round r</text>
<text x="38" y="420.0" font-family="Helvetica, Arial, sans-serif" font-size="17" fill="#1a1a1a" font-weight="bold" text-anchor="middle" transform="rotate(-90 38 420.0)">observed one-round change  value(r+1) − value(r)</text>
<line x1="260.5" y1="420.0" x2="260.5" y2="365.5" stroke="#d79992" stroke-width="2.0" stroke-opacity="0.45"/>
<path d="M 260.5 359.5 l -3.5 6 l 7 0 z" fill="#d79992" fill-opacity="0.45"/>
<line x1="260.5" y1="420.0" x2="260.5" y2="474.5" stroke="#9fbbe0" stroke-width="2.0" stroke-opacity="0.45"/>
<path d="M 260.5 480.5 l -3.5 -6 l 7 0 z" fill="#9fbbe0" fill-opacity="0.45"/>
<line x1="409.0" y1="420.0" x2="409.0" y2="350.1" stroke="#d79992" stroke-width="2.0" stroke-opacity="0.45"/>
<path d="M 409.0 344.1 l -3.5 6 l 7 0 z" fill="#d79992" fill-opacity="0.45"/>
<line x1="409.0" y1="420.0" x2="409.0" y2="489.9" stroke="#9fbbe0" stroke-width="2.0" stroke-opacity="0.45"/>
<path d="M 409.0 495.9 l -3.5 -6 l 7 0 z" fill="#9fbbe0" fill-opacity="0.45"/>
<line x1="607.0" y1="420.0" x2="607.0" y2="343.8" stroke="#d79992" stroke-width="2.0" stroke-opacity="0.45"/>
<path d="M 607.0 337.8 l -3.5 6 l 7 0 z" fill="#d79992" fill-opacity="0.45"/>
<line x1="607.0" y1="420.0" x2="607.0" y2="496.2" stroke="#9fbbe0" stroke-width="2.0" stroke-opacity="0.45"/>
<path d="M 607.0 502.2 l -3.5 -6 l 7 0 z" fill="#9fbbe0" fill-opacity="0.45"/>
<line x1="805.0" y1="420.0" x2="805.0" y2="350.1" stroke="#d79992" stroke-width="2.0" stroke-opacity="0.45"/>
<path d="M 805.0 344.1 l -3.5 6 l 7 0 z" fill="#d79992" fill-opacity="0.45"/>
<line x1="805.0" y1="420.0" x2="805.0" y2="489.9" stroke="#9fbbe0" stroke-width="2.0" stroke-opacity="0.45"/>
<path d="M 805.0 495.9 l -3.5 -6 l 7 0 z" fill="#9fbbe0" fill-opacity="0.45"/>
<line x1="953.5" y1="420.0" x2="953.5" y2="365.5" stroke="#d79992" stroke-width="2.0" stroke-opacity="0.45"/>
<path d="M 953.5 359.5 l -3.5 6 l 7 0 z" fill="#d79992" fill-opacity="0.45"/>
<line x1="953.5" y1="420.0" x2="953.5" y2="474.5" stroke="#9fbbe0" stroke-width="2.0" stroke-opacity="0.45"/>
<path d="M 953.5 480.5 l -3.5 -6 l 7 0 z" fill="#9fbbe0" fill-opacity="0.45"/>
<polyline points="112.0,420.0 116.1,400.4 120.2,392.3 124.4,386.1 128.5,381.0 132.6,376.4 136.8,372.4 140.9,368.7 145.0,365.3 149.1,362.1 153.2,359.1 157.4,356.2 161.5,353.5 165.6,351.0 169.8,348.5 173.9,346.2 178.0,343.9 182.1,341.8 186.2,339.7 190.4,337.7 194.5,335.7 198.6,333.8 202.8,332.0 206.9,330.2 211.0,328.5 215.1,326.8 219.2,325.2 223.4,323.6 227.5,322.1 231.6,320.6 235.8,319.1 239.9,317.7 244.0,316.3 248.1,315.0 252.2,313.6 256.4,312.4 260.5,311.1 264.6,309.9 268.8,308.7 272.9,307.5 277.0,306.3 281.1,305.2 285.2,304.1 289.4,303.0 293.5,302.0 297.6,301.0 301.8,299.9 305.9,299.0 310.0,298.0 314.1,297.1 318.2,296.1 322.4,295.2 326.5,294.3 330.6,293.5 334.8,292.6 338.9,291.8 343.0,291.0 347.1,290.2 351.2,289.4 355.4,288.7 359.5,287.9 363.6,287.2 367.8,286.5 371.9,285.8 376.0,285.1 380.1,284.5 384.2,283.8 388.4,283.2 392.5,282.6 396.6,282.0 400.8,281.4 404.9,280.8 409.0,280.2 413.1,279.7 417.2,279.1 421.4,278.6 425.5,278.1 429.6,277.6 433.8,277.1 437.9,276.7 442.0,276.2 446.1,275.8 450.2,275.3 454.4,274.9 458.5,274.5 462.6,274.1 466.8,273.7 470.9,273.4 475.0,273.0 479.1,272.7 483.2,272.3 487.4,272.0 491.5,271.7 495.6,271.4 499.8,271.1 503.9,270.8 508.0,270.6 512.1,270.3 516.2,270.1 520.4,269.9 524.5,269.6 528.6,269.4 532.8,269.2 536.9,269.0 541.0,268.9 545.1,268.7 549.2,268.5 553.4,268.4 557.5,268.3 561.6,268.1 565.8,268.0 569.9,267.9 574.0,267.8 578.1,267.8 582.2,267.7 586.4,267.6 590.5,267.6 594.6,267.5 598.8,267.5 602.9,267.5 607.0,267.5 611.1,267.5 615.2,267.5 619.4,267.5 623.5,267.6 627.6,267.6 631.8,267.7 635.9,267.8 640.0,267.8 644.1,267.9 648.2,268.0 652.4,268.1 656.5,268.3 660.6,268.4 664.8,268.5 668.9,268.7 673.0,268.9 677.1,269.0 681.2,269.2 685.4,269.4 689.5,269.6 693.6,269.9 697.8,270.1 701.9,270.3 706.0,270.6 710.1,270.8 714.2,271.1 718.4,271.4 722.5,271.7 726.6,272.0 730.8,272.3 734.9,272.7 739.0,273.0 743.1,273.4 747.2,273.7 751.4,274.1 755.5,274.5 759.6,274.9 763.8,275.3 767.9,275.8 772.0,276.2 776.1,276.7 780.2,277.1 784.4,277.6 788.5,278.1 792.6,278.6 796.8,279.1 800.9,279.7 805.0,280.2 809.1,280.8 813.2,281.4 817.4,282.0 821.5,282.6 825.6,283.2 829.8,283.8 833.9,284.5 838.0,285.1 842.1,285.8 846.2,286.5 850.4,287.2 854.5,287.9 858.6,288.7 862.8,289.4 866.9,290.2 871.0,291.0 875.1,291.8 879.2,292.6 883.4,293.5 887.5,294.3 891.6,295.2 895.8,296.1 899.9,297.1 904.0,298.0 908.1,299.0 912.2,299.9 916.4,301.0 920.5,302.0 924.6,303.0 928.8,304.1 932.9,305.2 937.0,306.3 941.1,307.5 945.2,308.7 949.4,309.9 953.5,311.1 957.6,312.4 961.8,313.6 965.9,315.0 970.0,316.3 974.1,317.7 978.2,319.1 982.4,320.6 986.5,322.1 990.6,323.6 994.8,325.2 998.9,326.8 1003.0,328.5 1007.1,330.2 1011.2,332.0 1015.4,333.8 1019.5,335.7 1023.6,337.7 1027.8,339.7 1031.9,341.8 1036.0,343.9 1040.1,346.2 1044.2,348.5 1048.4,351.0 1052.5,353.5 1056.6,356.2 1060.8,359.1 1064.9,362.1 1069.0,365.3 1073.1,368.7 1077.2,372.4 1081.4,376.4 1085.5,381.0 1089.6,386.1 1093.8,392.3 1097.9,400.4 1102.0,420.0" fill="none" stroke="#d79992" stroke-width="2.6" stroke-linejoin="round"/>
<line x1="1003.0" y1="328.5" x2="1110.0" y2="328.5" stroke="#d79992" stroke-width="1.2" stroke-opacity="0.9"/>
<text x="1114.0" y="332.5" font-family="Helvetica, Arial, sans-serif" font-size="13" fill="#b5342c" font-weight="normal" text-anchor="start">rho = +1</text>
<polyline points="112.0,420.0 116.1,410.2 120.2,406.1 124.4,403.1 128.5,400.5 132.6,398.2 136.8,396.2 140.9,394.3 145.0,392.6 149.1,391.0 153.2,389.5 157.4,388.1 161.5,386.8 165.6,385.5 169.8,384.3 173.9,383.1 178.0,382.0 182.1,380.9 186.2,379.8 190.4,378.8 194.5,377.9 198.6,376.9 202.8,376.0 206.9,375.1 211.0,374.2 215.1,373.4 219.2,372.6 223.4,371.8 227.5,371.0 231.6,370.3 235.8,369.6 239.9,368.9 244.0,368.2 248.1,367.5 252.2,366.8 256.4,366.2 260.5,365.5 264.6,364.9 268.8,364.3 272.9,363.7 277.0,363.2 281.1,362.6 285.2,362.1 289.4,361.5 293.5,361.0 297.6,360.5 301.8,360.0 305.9,359.5 310.0,359.0 314.1,358.5 318.2,358.1 322.4,357.6 326.5,357.2 330.6,356.7 334.8,356.3 338.9,355.9 343.0,355.5 347.1,355.1 351.2,354.7 355.4,354.3 359.5,354.0 363.6,353.6 367.8,353.2 371.9,352.9 376.0,352.6 380.1,352.2 384.2,351.9 388.4,351.6 392.5,351.3 396.6,351.0 400.8,350.7 404.9,350.4 409.0,350.1 413.1,349.8 417.2,349.6 421.4,349.3 425.5,349.1 429.6,348.8 433.8,348.6 437.9,348.3 442.0,348.1 446.1,347.9 450.2,347.7 454.4,347.5 458.5,347.3 462.6,347.1 466.8,346.9 470.9,346.7 475.0,346.5 479.1,346.3 483.2,346.2 487.4,346.0 491.5,345.9 495.6,345.7 499.8,345.6 503.9,345.4 508.0,345.3 512.1,345.2 516.2,345.0 520.4,344.9 524.5,344.8 528.6,344.7 532.8,344.6 536.9,344.5 541.0,344.4 545.1,344.3 549.2,344.3 553.4,344.2 557.5,344.1 561.6,344.1 565.8,344.0 569.9,344.0 574.0,343.9 578.1,343.9 582.2,343.8 586.4,343.8 590.5,343.8 594.6,343.8 598.8,343.8 602.9,343.8 607.0,343.8 611.1,343.8 615.2,343.8 619.4,343.8 623.5,343.8 627.6,343.8 631.8,343.8 635.9,343.9 640.0,343.9 644.1,344.0 648.2,344.0 652.4,344.1 656.5,344.1 660.6,344.2 664.8,344.3 668.9,344.3 673.0,344.4 677.1,344.5 681.2,344.6 685.4,344.7 689.5,344.8 693.6,344.9 697.8,345.0 701.9,345.2 706.0,345.3 710.1,345.4 714.2,345.6 718.4,345.7 722.5,345.9 726.6,346.0 730.8,346.2 734.9,346.3 739.0,346.5 743.1,346.7 747.2,346.9 751.4,347.1 755.5,347.3 759.6,347.5 763.8,347.7 767.9,347.9 772.0,348.1 776.1,348.3 780.2,348.6 784.4,348.8 788.5,349.1 792.6,349.3 796.8,349.6 800.9,349.8 805.0,350.1 809.1,350.4 813.2,350.7 817.4,351.0 821.5,351.3 825.6,351.6 829.8,351.9 833.9,352.2 838.0,352.6 842.1,352.9 846.2,353.2 850.4,353.6 854.5,354.0 858.6,354.3 862.8,354.7 866.9,355.1 871.0,355.5 875.1,355.9 879.2,356.3 883.4,356.7 887.5,357.2 891.6,357.6 895.8,358.1 899.9,358.5 904.0,359.0 908.1,359.5 912.2,360.0 916.4,360.5 920.5,361.0 924.6,361.5 928.8,362.1 932.9,362.6 937.0,363.2 941.1,363.7 945.2,364.3 949.4,364.9 953.5,365.5 957.6,366.2 961.8,366.8 965.9,367.5 970.0,368.2 974.1,368.9 978.2,369.6 982.4,370.3 986.5,371.0 990.6,371.8 994.8,372.6 998.9,373.4 1003.0,374.2 1007.1,375.1 1011.2,376.0 1015.4,376.9 1019.5,377.9 1023.6,378.8 1027.8,379.8 1031.9,380.9 1036.0,382.0 1040.1,383.1 1044.2,384.3 1048.4,385.5 1052.5,386.8 1056.6,388.1 1060.8,389.5 1064.9,391.0 1069.0,392.6 1073.1,394.3 1077.2,396.2 1081.4,398.2 1085.5,400.5 1089.6,403.1 1093.8,406.1 1097.9,410.2 1102.0,420.0" fill="none" stroke="#d79992" stroke-width="1.8" stroke-linejoin="round"/>
<line x1="1003.0" y1="374.2" x2="1110.0" y2="374.2" stroke="#d79992" stroke-width="1.2" stroke-opacity="0.9"/>
<text x="1114.0" y="378.2" font-family="Helvetica, Arial, sans-serif" font-size="13" fill="#b5342c" font-weight="normal" text-anchor="start">rho = +0.5</text>
<polyline points="112.0,420.0 116.1,429.8 120.2,433.9 124.4,436.9 128.5,439.5 132.6,441.8 136.8,443.8 140.9,445.7 145.0,447.4 149.1,449.0 153.2,450.5 157.4,451.9 161.5,453.2 165.6,454.5 169.8,455.7 173.9,456.9 178.0,458.0 182.1,459.1 186.2,460.2 190.4,461.2 194.5,462.1 198.6,463.1 202.8,464.0 206.9,464.9 211.0,465.8 215.1,466.6 219.2,467.4 223.4,468.2 227.5,469.0 231.6,469.7 235.8,470.4 239.9,471.1 244.0,471.8 248.1,472.5 252.2,473.2 256.4,473.8 260.5,474.5 264.6,475.1 268.8,475.7 272.9,476.3 277.0,476.8 281.1,477.4 285.2,477.9 289.4,478.5 293.5,479.0 297.6,479.5 301.8,480.0 305.9,480.5 310.0,481.0 314.1,481.5 318.2,481.9 322.4,482.4 326.5,482.8 330.6,483.3 334.8,483.7 338.9,484.1 343.0,484.5 347.1,484.9 351.2,485.3 355.4,485.7 359.5,486.0 363.6,486.4 367.8,486.8 371.9,487.1 376.0,487.4 380.1,487.8 384.2,488.1 388.4,488.4 392.5,488.7 396.6,489.0 400.8,489.3 404.9,489.6 409.0,489.9 413.1,490.2 417.2,490.4 421.4,490.7 425.5,490.9 429.6,491.2 433.8,491.4 437.9,491.7 442.0,491.9 446.1,492.1 450.2,492.3 454.4,492.5 458.5,492.7 462.6,492.9 466.8,493.1 470.9,493.3 475.0,493.5 479.1,493.7 483.2,493.8 487.4,494.0 491.5,494.1 495.6,494.3 499.8,494.4 503.9,494.6 508.0,494.7 512.1,494.8 516.2,495.0 520.4,495.1 524.5,495.2 528.6,495.3 532.8,495.4 536.9,495.5 541.0,495.6 545.1,495.7 549.2,495.7 553.4,495.8 557.5,495.9 561.6,495.9 565.8,496.0 569.9,496.0 574.0,496.1 578.1,496.1 582.2,496.2 586.4,496.2 590.5,496.2 594.6,496.2 598.8,496.2 602.9,496.2 607.0,496.2 611.1,496.2 615.2,496.2 619.4,496.2 623.5,496.2 627.6,496.2 631.8,496.2 635.9,496.1 640.0,496.1 644.1,496.0 648.2,496.0 652.4,495.9 656.5,495.9 660.6,495.8 664.8,495.7 668.9,495.7 673.0,495.6 677.1,495.5 681.2,495.4 685.4,495.3 689.5,495.2 693.6,495.1 697.8,495.0 701.9,494.8 706.0,494.7 710.1,494.6 714.2,494.4 718.4,494.3 722.5,494.1 726.6,494.0 730.8,493.8 734.9,493.7 739.0,493.5 743.1,493.3 747.2,493.1 751.4,492.9 755.5,492.7 759.6,492.5 763.8,492.3 767.9,492.1 772.0,491.9 776.1,491.7 780.2,491.4 784.4,491.2 788.5,490.9 792.6,490.7 796.8,490.4 800.9,490.2 805.0,489.9 809.1,489.6 813.2,489.3 817.4,489.0 821.5,488.7 825.6,488.4 829.8,488.1 833.9,487.8 838.0,487.4 842.1,487.1 846.2,486.8 850.4,486.4 854.5,486.0 858.6,485.7 862.8,485.3 866.9,484.9 871.0,484.5 875.1,484.1 879.2,483.7 883.4,483.3 887.5,482.8 891.6,482.4 895.8,481.9 899.9,481.5 904.0,481.0 908.1,480.5 912.2,480.0 916.4,479.5 920.5,479.0 924.6,478.5 928.8,477.9 932.9,477.4 937.0,476.8 941.1,476.3 945.2,475.7 949.4,475.1 953.5,474.5 957.6,473.8 961.8,473.2 965.9,472.5 970.0,471.8 974.1,471.1 978.2,470.4 982.4,469.7 986.5,469.0 990.6,468.2 994.8,467.4 998.9,466.6 1003.0,465.8 1007.1,464.9 1011.2,464.0 1015.4,463.1 1019.5,462.1 1023.6,461.2 1027.8,460.2 1031.9,459.1 1036.0,458.0 1040.1,456.9 1044.2,455.7 1048.4,454.5 1052.5,453.2 1056.6,451.9 1060.8,450.5 1064.9,449.0 1069.0,447.4 1073.1,445.7 1077.2,443.8 1081.4,441.8 1085.5,439.5 1089.6,436.9 1093.8,433.9 1097.9,429.8 1102.0,420.0" fill="none" stroke="#9fbbe0" stroke-width="1.8" stroke-linejoin="round"/>
<line x1="1003.0" y1="465.8" x2="1110.0" y2="465.8" stroke="#9fbbe0" stroke-width="1.2" stroke-opacity="0.9"/>
<text x="1114.0" y="469.8" font-family="Helvetica, Arial, sans-serif" font-size="13" fill="#2867b5" font-weight="normal" text-anchor="start">rho = −0.5</text>
<polyline points="112.0,420.0 116.1,439.6 120.2,447.7 124.4,453.9 128.5,459.0 132.6,463.6 136.8,467.6 140.9,471.3 145.0,474.7 149.1,477.9 153.2,480.9 157.4,483.8 161.5,486.5 165.6,489.0 169.8,491.5 173.9,493.8 178.0,496.1 182.1,498.2 186.2,500.3 190.4,502.3 194.5,504.3 198.6,506.2 202.8,508.0 206.9,509.8 211.0,511.5 215.1,513.2 219.2,514.8 223.4,516.4 227.5,517.9 231.6,519.4 235.8,520.9 239.9,522.3 244.0,523.7 248.1,525.0 252.2,526.4 256.4,527.6 260.5,528.9 264.6,530.1 268.8,531.3 272.9,532.5 277.0,533.7 281.1,534.8 285.2,535.9 289.4,537.0 293.5,538.0 297.6,539.0 301.8,540.1 305.9,541.0 310.0,542.0 314.1,542.9 318.2,543.9 322.4,544.8 326.5,545.7 330.6,546.5 334.8,547.4 338.9,548.2 343.0,549.0 347.1,549.8 351.2,550.6 355.4,551.3 359.5,552.1 363.6,552.8 367.8,553.5 371.9,554.2 376.0,554.9 380.1,555.5 384.2,556.2 388.4,556.8 392.5,557.4 396.6,558.0 400.8,558.6 404.9,559.2 409.0,559.8 413.1,560.3 417.2,560.9 421.4,561.4 425.5,561.9 429.6,562.4 433.8,562.9 437.9,563.3 442.0,563.8 446.1,564.2 450.2,564.7 454.4,565.1 458.5,565.5 462.6,565.9 466.8,566.3 470.9,566.6 475.0,567.0 479.1,567.3 483.2,567.7 487.4,568.0 491.5,568.3 495.6,568.6 499.8,568.9 503.9,569.2 508.0,569.4 512.1,569.7 516.2,569.9 520.4,570.1 524.5,570.4 528.6,570.6 532.8,570.8 536.9,571.0 541.0,571.1 545.1,571.3 549.2,571.5 553.4,571.6 557.5,571.7 561.6,571.9 565.8,572.0 569.9,572.1 574.0,572.2 578.1,572.2 582.2,572.3 586.4,572.4 590.5,572.4 594.6,572.5 598.8,572.5 602.9,572.5 607.0,572.5 611.1,572.5 615.2,572.5 619.4,572.5 623.5,572.4 627.6,572.4 631.8,572.3 635.9,572.2 640.0,572.2 644.1,572.1 648.2,572.0 652.4,571.9 656.5,571.7 660.6,571.6 664.8,571.5 668.9,571.3 673.0,571.1 677.1,571.0 681.2,570.8 685.4,570.6 689.5,570.4 693.6,570.1 697.8,569.9 701.9,569.7 706.0,569.4 710.1,569.2 714.2,568.9 718.4,568.6 722.5,568.3 726.6,568.0 730.8,567.7 734.9,567.3 739.0,567.0 743.1,566.6 747.2,566.3 751.4,565.9 755.5,565.5 759.6,565.1 763.8,564.7 767.9,564.2 772.0,563.8 776.1,563.3 780.2,562.9 784.4,562.4 788.5,561.9 792.6,561.4 796.8,560.9 800.9,560.3 805.0,559.8 809.1,559.2 813.2,558.6 817.4,558.0 821.5,557.4 825.6,556.8 829.8,556.2 833.9,555.5 838.0,554.9 842.1,554.2 846.2,553.5 850.4,552.8 854.5,552.1 858.6,551.3 862.8,550.6 866.9,549.8 871.0,549.0 875.1,548.2 879.2,547.4 883.4,546.5 887.5,545.7 891.6,544.8 895.8,543.9 899.9,542.9 904.0,542.0 908.1,541.0 912.2,540.1 916.4,539.0 920.5,538.0 924.6,537.0 928.8,535.9 932.9,534.8 937.0,533.7 941.1,532.5 945.2,531.3 949.4,530.1 953.5,528.9 957.6,527.6 961.8,526.4 965.9,525.0 970.0,523.7 974.1,522.3 978.2,520.9 982.4,519.4 986.5,517.9 990.6,516.4 994.8,514.8 998.9,513.2 1003.0,511.5 1007.1,509.8 1011.2,508.0 1015.4,506.2 1019.5,504.3 1023.6,502.3 1027.8,500.3 1031.9,498.2 1036.0,496.1 1040.1,493.8 1044.2,491.5 1048.4,489.0 1052.5,486.5 1056.6,483.8 1060.8,480.9 1064.9,477.9 1069.0,474.7 1073.1,471.3 1077.2,467.6 1081.4,463.6 1085.5,459.0 1089.6,453.9 1093.8,447.7 1097.9,439.6 1102.0,420.0" fill="none" stroke="#9fbbe0" stroke-width="2.6" stroke-linejoin="round"/>
<line x1="1003.0" y1="511.5" x2="1110.0" y2="511.5" stroke="#9fbbe0" stroke-width="1.2" stroke-opacity="0.9"/>
<text x="1114.0" y="515.5" font-family="Helvetica, Arial, sans-serif" font-size="13" fill="#2867b5" font-weight="normal" text-anchor="start">rho = −1</text>
<circle cx="699.9" cy="435.9" r="5.2" fill="#6b7684" fill-opacity="0.9" stroke="white" stroke-width="1.4"/>
<circle cx="648.3" cy="445.4" r="5.2" fill="#687586" fill-opacity="0.9" stroke="white" stroke-width="1.4"/>
<circle cx="565.7" cy="508.9" r="5.2" fill="#517097" fill-opacity="0.9" stroke="white" stroke-width="1.4"/>
<circle cx="699.9" cy="423.2" r="5.2" fill="#6b7684" fill-opacity="0.9" stroke="white" stroke-width="1.4"/>
<circle cx="689.5" cy="458.1" r="5.2" fill="#746e79" fill-opacity="0.9" stroke="white" stroke-width="1.4"/>
<circle cx="565.7" cy="356.4" r="5.2" fill="#71707d" fill-opacity="0.9" stroke="white" stroke-width="1.4"/>
<circle cx="699.9" cy="423.2" r="5.2" fill="#5f738d" fill-opacity="0.9" stroke="white" stroke-width="1.4"/>
<circle cx="689.5" cy="420.0" r="5.2" fill="#677587" fill-opacity="0.9" stroke="white" stroke-width="1.4"/>
<circle cx="689.5" cy="394.6" r="5.2" fill="#6d7582" fill-opacity="0.9" stroke="white" stroke-width="1.4"/>
<circle cx="699.9" cy="474.0" r="5.2" fill="#c2c6cc" fill-opacity="0.9" stroke="white" stroke-width="1.4"/>
<circle cx="524.5" cy="318.3" r="5.2" fill="#c2c6cc" fill-opacity="0.9" stroke="white" stroke-width="1.4"/>
<circle cx="854.5" cy="470.8" r="5.2" fill="#c2c6cc" fill-opacity="0.9" stroke="white" stroke-width="1.4"/>
<circle cx="741.0" cy="448.6" r="5.2" fill="#6e7381" fill-opacity="0.9" stroke="white" stroke-width="1.4"/>
<circle cx="648.3" cy="483.6" r="5.2" fill="#746e79" fill-opacity="0.9" stroke="white" stroke-width="1.4"/>
<circle cx="442.0" cy="331.0" r="5.2" fill="#70727e" fill-opacity="0.9" stroke="white" stroke-width="1.4"/>
<circle cx="741.0" cy="435.9" r="5.2" fill="#6e7381" fill-opacity="0.9" stroke="white" stroke-width="1.4"/>
<circle cx="689.5" cy="483.5" r="5.2" fill="#70727e" fill-opacity="0.9" stroke="white" stroke-width="1.4"/>
<circle cx="483.2" cy="381.9" r="5.2" fill="#71717d" fill-opacity="0.9" stroke="white" stroke-width="1.4"/>
<circle cx="741.0" cy="448.6" r="5.2" fill="#63748a" fill-opacity="0.9" stroke="white" stroke-width="1.4"/>
<circle cx="648.3" cy="458.1" r="5.2" fill="#597291" fill-opacity="0.9" stroke="white" stroke-width="1.4"/>
<circle cx="524.5" cy="420.0" r="5.2" fill="#647489" fill-opacity="0.9" stroke="white" stroke-width="1.4"/>
<circle cx="741.0" cy="423.2" r="5.2" fill="#c2c6cc" fill-opacity="0.9" stroke="white" stroke-width="1.4"/>
<circle cx="730.8" cy="547.1" r="5.2" fill="#c2c6cc" fill-opacity="0.9" stroke="white" stroke-width="1.4"/>
<circle cx="318.2" cy="381.9" r="5.2" fill="#c2c6cc" fill-opacity="0.9" stroke="white" stroke-width="1.4"/>
<circle cx="710.2" cy="413.7" r="5.2" fill="#786b75" fill-opacity="0.9" stroke="white" stroke-width="1.4"/>
<circle cx="730.8" cy="331.0" r="5.2" fill="#6f727f" fill-opacity="0.9" stroke="white" stroke-width="1.4"/>
<circle cx="1019.5" cy="496.2" r="5.2" fill="#6d7481" fill-opacity="0.9" stroke="white" stroke-width="1.4"/>
<circle cx="710.2" cy="426.4" r="5.2" fill="#786b75" fill-opacity="0.9" stroke="white" stroke-width="1.4"/>
<circle cx="689.5" cy="420.0" r="5.2" fill="#6e7380" fill-opacity="0.9" stroke="white" stroke-width="1.4"/>
<circle cx="689.5" cy="381.9" r="5.2" fill="#6b7684" fill-opacity="0.9" stroke="white" stroke-width="1.4"/>
<circle cx="710.2" cy="464.5" r="5.2" fill="#687586" fill-opacity="0.9" stroke="white" stroke-width="1.4"/>
<circle cx="565.7" cy="445.4" r="5.2" fill="#61748c" fill-opacity="0.9" stroke="white" stroke-width="1.4"/>
<circle cx="483.2" cy="407.3" r="5.2" fill="#6d7482" fill-opacity="0.9" stroke="white" stroke-width="1.4"/>
<circle cx="710.2" cy="439.1" r="5.2" fill="#c2c6cc" fill-opacity="0.9" stroke="white" stroke-width="1.4"/>
<circle cx="648.3" cy="331.1" r="5.2" fill="#c2c6cc" fill-opacity="0.9" stroke="white" stroke-width="1.4"/>
<circle cx="937.0" cy="432.7" r="5.2" fill="#c2c6cc" fill-opacity="0.9" stroke="white" stroke-width="1.4"/>
<circle cx="689.5" cy="420.0" r="5.2" fill="#6d7481" fill-opacity="0.9" stroke="white" stroke-width="1.4"/>
<circle cx="689.5" cy="432.7" r="5.2" fill="#6f727f" fill-opacity="0.9" stroke="white" stroke-width="1.4"/>
<circle cx="648.3" cy="420.0" r="5.2" fill="#70717d" fill-opacity="0.9" stroke="white" stroke-width="1.4"/>
<circle cx="689.5" cy="458.1" r="5.2" fill="#6d7481" fill-opacity="0.9" stroke="white" stroke-width="1.4"/>
<circle cx="565.7" cy="381.9" r="5.2" fill="#6f7380" fill-opacity="0.9" stroke="white" stroke-width="1.4"/>
<circle cx="689.5" cy="445.4" r="5.2" fill="#6f7380" fill-opacity="0.9" stroke="white" stroke-width="1.4"/>
<circle cx="689.5" cy="470.8" r="5.2" fill="#677587" fill-opacity="0.9" stroke="white" stroke-width="1.4"/>
<circle cx="524.5" cy="381.9" r="5.2" fill="#786a74" fill-opacity="0.9" stroke="white" stroke-width="1.4"/>
<circle cx="648.3" cy="407.3" r="5.2" fill="#677587" fill-opacity="0.9" stroke="white" stroke-width="1.4"/>
<circle cx="689.5" cy="369.2" r="5.2" fill="#c2c6cc" fill-opacity="0.9" stroke="white" stroke-width="1.4"/>
<circle cx="854.5" cy="445.4" r="5.2" fill="#c2c6cc" fill-opacity="0.9" stroke="white" stroke-width="1.4"/>
<circle cx="772.0" cy="445.4" r="5.2" fill="#c2c6cc" fill-opacity="0.9" stroke="white" stroke-width="1.4"/>
<circle cx="348.2" cy="463.7" r="5.2" fill="#577292" fill-opacity="0.9" stroke="white" stroke-width="1.4"/>
<circle cx="206.2" cy="422.5" r="5.2" fill="#60738c" fill-opacity="0.9" stroke="white" stroke-width="1.4"/>
<circle cx="198.1" cy="395.7" r="5.2" fill="#697686" fill-opacity="0.9" stroke="white" stroke-width="1.4"/>
<circle cx="348.2" cy="423.4" r="5.2" fill="#6e7481" fill-opacity="0.9" stroke="white" stroke-width="1.4"/>
<circle cx="337.0" cy="436.3" r="5.2" fill="#677587" fill-opacity="0.9" stroke="white" stroke-width="1.4"/>
<circle cx="284.2" cy="434.9" r="5.2" fill="#667588" fill-opacity="0.9" stroke="white" stroke-width="1.4"/>
<circle cx="354.3" cy="469.2" r="5.2" fill="#5d738e" fill-opacity="0.9" stroke="white" stroke-width="1.4"/>
<circle cx="194.5" cy="432.7" r="5.2" fill="#597291" fill-opacity="0.9" stroke="white" stroke-width="1.4"/>
<circle cx="153.3" cy="420.0" r="5.2" fill="#6e7481" fill-opacity="0.9" stroke="white" stroke-width="1.4"/>
<circle cx="354.3" cy="456.5" r="5.2" fill="#5a7291" fill-opacity="0.9" stroke="white" stroke-width="1.4"/>
<circle cx="235.8" cy="458.1" r="5.2" fill="#836168" fill-opacity="0.9" stroke="white" stroke-width="1.4"/>
<circle cx="112.0" cy="407.3" r="5.2" fill="#756d78" fill-opacity="0.9" stroke="white" stroke-width="1.4"/>
<circle cx="343.7" cy="415.1" r="5.2" fill="#6c7583" fill-opacity="0.9" stroke="white" stroke-width="1.4"/>
<circle cx="359.5" cy="394.6" r="5.2" fill="#7b6871" fill-opacity="0.9" stroke="white" stroke-width="1.4"/>
<circle cx="442.0" cy="369.2" r="5.2" fill="#7f646c" fill-opacity="0.9" stroke="white" stroke-width="1.4"/>
<circle cx="349.2" cy="479.8" r="5.2" fill="#4b6f9c" fill-opacity="0.9" stroke="white" stroke-width="1.4"/>
<circle cx="155.1" cy="433.3" r="5.2" fill="#547195" fill-opacity="0.9" stroke="white" stroke-width="1.4"/>
<circle cx="112.0" cy="420.0" r="5.2" fill="#5d738e" fill-opacity="0.9" stroke="white" stroke-width="1.4"/>
<circle cx="320.4" cy="359.4" r="5.2" fill="#60738c" fill-opacity="0.9" stroke="white" stroke-width="1.4"/>
<circle cx="517.0" cy="468.5" r="5.2" fill="#597291" fill-opacity="0.9" stroke="white" stroke-width="1.4"/>
<circle cx="359.5" cy="458.1" r="5.2" fill="#60748c" fill-opacity="0.9" stroke="white" stroke-width="1.4"/>
<circle cx="378.1" cy="463.9" r="5.2" fill="#587292" fill-opacity="0.9" stroke="white" stroke-width="1.4"/>
<circle cx="235.8" cy="418.4" r="5.2" fill="#746e79" fill-opacity="0.9" stroke="white" stroke-width="1.4"/>
<circle cx="241.1" cy="421.6" r="5.2" fill="#895b61" fill-opacity="0.9" stroke="white" stroke-width="1.4"/>
<circle cx="349.2" cy="440.0" r="5.2" fill="#5f738d" fill-opacity="0.9" stroke="white" stroke-width="1.4"/>
<circle cx="284.2" cy="422.2" r="5.2" fill="#61748b" fill-opacity="0.9" stroke="white" stroke-width="1.4"/>
<circle cx="277.0" cy="458.1" r="5.2" fill="#687586" fill-opacity="0.9" stroke="white" stroke-width="1.4"/>
<circle cx="320.4" cy="411.6" r="5.2" fill="#72707c" fill-opacity="0.9" stroke="white" stroke-width="1.4"/>
<circle cx="347.7" cy="391.0" r="5.2" fill="#687586" fill-opacity="0.9" stroke="white" stroke-width="1.4"/>
<circle cx="442.0" cy="356.4" r="5.2" fill="#80646b" fill-opacity="0.9" stroke="white" stroke-width="1.4"/>
<circle cx="416.6" cy="434.3" r="5.2" fill="#62748a" fill-opacity="0.9" stroke="white" stroke-width="1.4"/>
<circle cx="370.3" cy="448.7" r="5.2" fill="#81636a" fill-opacity="0.9" stroke="white" stroke-width="1.4"/>
<circle cx="277.0" cy="404.5" r="5.2" fill="#7d666f" fill-opacity="0.9" stroke="white" stroke-width="1.4"/>
<circle cx="327.2" cy="410.1" r="5.2" fill="#71717d" fill-opacity="0.9" stroke="white" stroke-width="1.4"/>
<circle cx="359.5" cy="356.5" r="5.2" fill="#6d7482" fill-opacity="0.9" stroke="white" stroke-width="1.4"/>
<circle cx="565.7" cy="394.6" r="5.2" fill="#7c6770" fill-opacity="0.9" stroke="white" stroke-width="1.4"/>
<circle cx="648.3" cy="356.5" r="5.2" fill="#8d585c" fill-opacity="0.9" stroke="white" stroke-width="1.4"/>
<circle cx="410.1" cy="352.7" r="5.2" fill="#6c7583" fill-opacity="0.9" stroke="white" stroke-width="1.4"/>
<circle cx="628.5" cy="464.7" r="5.2" fill="#786b75" fill-opacity="0.9" stroke="white" stroke-width="1.4"/>
<circle cx="483.2" cy="343.8" r="5.2" fill="#796973" fill-opacity="0.9" stroke="white" stroke-width="1.4"/>
<circle cx="730.8" cy="458.1" r="5.2" fill="#796a74" fill-opacity="0.9" stroke="white" stroke-width="1.4"/>
<circle cx="607.0" cy="356.5" r="5.2" fill="#7d666f" fill-opacity="0.9" stroke="white" stroke-width="1.4"/>
<circle cx="813.2" cy="369.2" r="5.2" fill="#70717d" fill-opacity="0.9" stroke="white" stroke-width="1.4"/>
<circle cx="978.2" cy="458.1" r="5.2" fill="#6f7380" fill-opacity="0.9" stroke="white" stroke-width="1.4"/>
<circle cx="978.2" cy="492.8" r="5.2" fill="#80646b" fill-opacity="0.9" stroke="white" stroke-width="1.4"/>
<circle cx="742.0" cy="359.9" r="5.2" fill="#71707c" fill-opacity="0.9" stroke="white" stroke-width="1.4"/>
<circle cx="937.0" cy="496.2" r="5.2" fill="#7f646c" fill-opacity="0.9" stroke="white" stroke-width="1.4"/>
<circle cx="1102.0" cy="432.7" r="5.2" fill="#974f4f" fill-opacity="0.9" stroke="white" stroke-width="1.4"/>
<circle cx="1060.7" cy="407.3" r="5.2" fill="#905558" fill-opacity="0.9" stroke="white" stroke-width="1.4"/>
<circle cx="1102.0" cy="420.0" r="5.2" fill="#925356" fill-opacity="0.9" stroke="white" stroke-width="1.4"/>
<circle cx="978.2" cy="488.0" r="5.2" fill="#836167" fill-opacity="0.9" stroke="white" stroke-width="1.4"/>
<circle cx="757.7" cy="491.8" r="5.2" fill="#746e7a" fill-opacity="0.9" stroke="white" stroke-width="1.4"/>
<circle cx="524.5" cy="353.0" r="5.2" fill="#7a6972" fill-opacity="0.9" stroke="white" stroke-width="1.4"/>
<circle cx="1102.0" cy="534.4" r="5.2" fill="#875d62" fill-opacity="0.9" stroke="white" stroke-width="1.4"/>
<circle cx="730.8" cy="425.0" r="5.2" fill="#687586" fill-opacity="0.9" stroke="white" stroke-width="1.4"/>
<circle cx="714.6" cy="425.4" r="5.2" fill="#5d738e" fill-opacity="0.9" stroke="white" stroke-width="1.4"/>
<circle cx="968.0" cy="475.8" r="5.2" fill="#6b7684" fill-opacity="0.9" stroke="white" stroke-width="1.4"/>
<circle cx="787.0" cy="475.4" r="5.2" fill="#736f7a" fill-opacity="0.9" stroke="white" stroke-width="1.4"/>
<circle cx="607.0" cy="407.3" r="5.2" fill="#71707d" fill-opacity="0.9" stroke="white" stroke-width="1.4"/>
<circle cx="1102.0" cy="445.4" r="5.2" fill="#7d666f" fill-opacity="0.9" stroke="white" stroke-width="1.4"/>
<circle cx="1019.5" cy="496.2" r="5.2" fill="#6a7685" fill-opacity="0.9" stroke="white" stroke-width="1.4"/>
<circle cx="772.0" cy="369.2" r="5.2" fill="#756d78" fill-opacity="0.9" stroke="white" stroke-width="1.4"/>
<circle cx="346.2" cy="359.5" r="5.2" fill="#647489" fill-opacity="0.9" stroke="white" stroke-width="1.4"/>
<circle cx="542.5" cy="380.2" r="5.2" fill="#687586" fill-opacity="0.9" stroke="white" stroke-width="1.4"/>
<circle cx="671.5" cy="499.6" r="5.2" fill="#6f727f" fill-opacity="0.9" stroke="white" stroke-width="1.4"/>
<circle cx="367.8" cy="359.0" r="5.2" fill="#766c76" fill-opacity="0.9" stroke="white" stroke-width="1.4"/>
<circle cx="565.7" cy="407.3" r="5.2" fill="#6e7380" fill-opacity="0.9" stroke="white" stroke-width="1.4"/>
<circle cx="607.0" cy="407.3" r="5.2" fill="#6d7481" fill-opacity="0.9" stroke="white" stroke-width="1.4"/>
<circle cx="312.1" cy="353.2" r="5.2" fill="#81626a" fill-opacity="0.9" stroke="white" stroke-width="1.4"/>
<circle cx="528.9" cy="383.2" r="5.2" fill="#687586" fill-opacity="0.9" stroke="white" stroke-width="1.4"/>
<circle cx="648.3" cy="369.2" r="5.2" fill="#6e7481" fill-opacity="0.9" stroke="white" stroke-width="1.4"/>
<circle cx="520.9" cy="407.3" r="5.2" fill="#7b6871" fill-opacity="0.9" stroke="white" stroke-width="1.4"/>
<circle cx="562.0" cy="373.0" r="5.2" fill="#697586" fill-opacity="0.9" stroke="white" stroke-width="1.4"/>
<circle cx="714.6" cy="465.9" r="5.2" fill="#7b6871" fill-opacity="0.9" stroke="white" stroke-width="1.4"/>
<circle cx="438.4" cy="304.5" r="5.2" fill="#846067" fill-opacity="0.9" stroke="white" stroke-width="1.4"/>
<circle cx="813.2" cy="369.2" r="5.2" fill="#7f646c" fill-opacity="0.9" stroke="white" stroke-width="1.4"/>
<circle cx="978.2" cy="407.3" r="5.2" fill="#905558" fill-opacity="0.9" stroke="white" stroke-width="1.4"/>
<circle cx="394.8" cy="308.2" r="5.2" fill="#836168" fill-opacity="0.9" stroke="white" stroke-width="1.4"/>
<circle cx="757.7" cy="326.6" r="5.2" fill="#836168" fill-opacity="0.9" stroke="white" stroke-width="1.4"/>
<circle cx="1060.7" cy="420.0" r="5.2" fill="#746e79" fill-opacity="0.9" stroke="white" stroke-width="1.4"/>
<circle cx="409.0" cy="299.3" r="5.2" fill="#994d4e" fill-opacity="0.9" stroke="white" stroke-width="1.4"/>
<circle cx="800.7" cy="339.9" r="5.2" fill="#915457" fill-opacity="0.9" stroke="white" stroke-width="1.4"/>
<circle cx="1060.7" cy="407.3" r="5.2" fill="#865e64" fill-opacity="0.9" stroke="white" stroke-width="1.4"/>
<circle cx="316.4" cy="267.0" r="5.2" fill="#8b595d" fill-opacity="0.9" stroke="white" stroke-width="1.4"/>
<circle cx="813.2" cy="381.9" r="5.2" fill="#8a5b60" fill-opacity="0.9" stroke="white" stroke-width="1.4"/>
<circle cx="937.0" cy="369.2" r="5.2" fill="#a6413d" fill-opacity="0.9" stroke="white" stroke-width="1.4"/>
<circle cx="415.7" cy="208.6" r="5.2" fill="#9e4948" fill-opacity="0.9" stroke="white" stroke-width="1.4"/>
<circle cx="1102.0" cy="420.0" r="5.2" fill="#c2c6cc" fill-opacity="0.9" stroke="white" stroke-width="1.4"/>
<circle cx="1102.0" cy="420.0" r="5.2" fill="#c2c6cc" fill-opacity="0.9" stroke="white" stroke-width="1.4"/>
<circle cx="420.7" cy="210.1" r="5.2" fill="#a04746" fill-opacity="0.9" stroke="white" stroke-width="1.4"/>
<circle cx="1102.0" cy="420.0" r="5.2" fill="#c2c6cc" fill-opacity="0.9" stroke="white" stroke-width="1.4"/>
<circle cx="1102.0" cy="432.7" r="5.2" fill="#c2c6cc" fill-opacity="0.9" stroke="white" stroke-width="1.4"/>
<circle cx="471.0" cy="251.0" r="5.2" fill="#935355" fill-opacity="0.9" stroke="white" stroke-width="1.4"/>
<circle cx="1019.5" cy="394.6" r="5.2" fill="#8f5659" fill-opacity="0.9" stroke="white" stroke-width="1.4"/>
<circle cx="1102.0" cy="420.0" r="5.2" fill="#c2c6cc" fill-opacity="0.9" stroke="white" stroke-width="1.4"/>
<circle cx="354.0" cy="189.5" r="5.2" fill="#955152" fill-opacity="0.9" stroke="white" stroke-width="1.4"/>
<circle cx="1102.0" cy="420.0" r="5.2" fill="#c2c6cc" fill-opacity="0.9" stroke="white" stroke-width="1.4"/>
<circle cx="1102.0" cy="420.0" r="5.2" fill="#c2c6cc" fill-opacity="0.9" stroke="white" stroke-width="1.4"/>
<circle cx="1019.5" cy="496.2" r="5.2" fill="#2867b5" fill-opacity="0.9" stroke="white" stroke-width="1.4"/>
<circle cx="772.0" cy="483.6" r="5.2" fill="#2867b5" fill-opacity="0.9" stroke="white" stroke-width="1.4"/>
<circle cx="565.7" cy="470.8" r="5.2" fill="#2867b5" fill-opacity="0.9" stroke="white" stroke-width="1.4"/>
<circle cx="1102.0" cy="420.0" r="5.2" fill="#c2c6cc" fill-opacity="0.9" stroke="white" stroke-width="1.4"/>
<circle cx="1102.0" cy="420.0" r="5.2" fill="#c2c6cc" fill-opacity="0.9" stroke="white" stroke-width="1.4"/>
<circle cx="1102.0" cy="420.0" r="5.2" fill="#c2c6cc" fill-opacity="0.9" stroke="white" stroke-width="1.4"/>
<circle cx="1029.8" cy="503.8" r="5.2" fill="#2867b5" fill-opacity="0.9" stroke="white" stroke-width="1.4"/>
<circle cx="757.7" cy="446.5" r="5.2" fill="#2867b5" fill-opacity="0.9" stroke="white" stroke-width="1.4"/>
<circle cx="671.5" cy="478.0" r="5.2" fill="#2867b5" fill-opacity="0.9" stroke="white" stroke-width="1.4"/>
<circle cx="1102.0" cy="496.2" r="5.2" fill="#2867b5" fill-opacity="0.9" stroke="white" stroke-width="1.4"/>
<circle cx="854.5" cy="509.0" r="5.2" fill="#2867b5" fill-opacity="0.9" stroke="white" stroke-width="1.4"/>
<circle cx="565.7" cy="496.2" r="5.2" fill="#2867b5" fill-opacity="0.9" stroke="white" stroke-width="1.4"/>
<circle cx="416.6" cy="412.2" r="5.2" fill="#61748c" fill-opacity="0.9" stroke="white" stroke-width="1.4"/>
<circle cx="442.0" cy="496.2" r="5.2" fill="#71717d" fill-opacity="0.9" stroke="white" stroke-width="1.4"/>
<circle cx="194.5" cy="331.0" r="5.2" fill="#6f727f" fill-opacity="0.9" stroke="white" stroke-width="1.4"/>
<circle cx="483.2" cy="470.8" r="5.2" fill="#6b7683" fill-opacity="0.9" stroke="white" stroke-width="1.4"/>
<circle cx="318.2" cy="483.5" r="5.2" fill="#5e738d" fill-opacity="0.9" stroke="white" stroke-width="1.4"/>
<circle cx="112.0" cy="420.0" r="5.2" fill="#5c738f" fill-opacity="0.9" stroke="white" stroke-width="1.4"/>
<circle cx="112.0" cy="407.3" r="5.2" fill="#62748b" fill-opacity="0.9" stroke="white" stroke-width="1.4"/>
<circle cx="410.1" cy="381.1" r="5.2" fill="#657589" fill-opacity="0.9" stroke="white" stroke-width="1.4"/>
<circle cx="536.3" cy="360.1" r="5.2" fill="#7e656e" fill-opacity="0.9" stroke="white" stroke-width="1.4"/>
<circle cx="730.8" cy="445.4" r="5.2" fill="#855f65" fill-opacity="0.9" stroke="white" stroke-width="1.4"/>
<circle cx="648.3" cy="407.3" r="5.2" fill="#756d78" fill-opacity="0.9" stroke="white" stroke-width="1.4"/>
<circle cx="689.5" cy="470.8" r="5.2" fill="#776b76" fill-opacity="0.9" stroke="white" stroke-width="1.4"/>
<circle cx="524.5" cy="343.8" r="5.2" fill="#7a6972" fill-opacity="0.9" stroke="white" stroke-width="1.4"/>
<circle cx="772.0" cy="318.3" r="5.2" fill="#905558" fill-opacity="0.9" stroke="white" stroke-width="1.4"/>
<circle cx="416.6" cy="450.3" r="5.2" fill="#61748c" fill-opacity="0.9" stroke="white" stroke-width="1.4"/>
<circle cx="318.2" cy="432.7" r="5.2" fill="#577292" fill-opacity="0.9" stroke="white" stroke-width="1.4"/>
<circle cx="277.0" cy="432.7" r="5.2" fill="#855e65" fill-opacity="0.9" stroke="white" stroke-width="1.4"/>
<circle cx="235.8" cy="445.4" r="5.2" fill="#647589" fill-opacity="0.9" stroke="white" stroke-width="1.4"/>
<circle cx="153.3" cy="432.7" r="5.2" fill="#6f737f" fill-opacity="0.9" stroke="white" stroke-width="1.4"/>
<circle cx="112.0" cy="369.2" r="5.2" fill="#8e565a" fill-opacity="0.9" stroke="white" stroke-width="1.4"/>
<circle cx="277.0" cy="445.4" r="5.2" fill="#6d7481" fill-opacity="0.9" stroke="white" stroke-width="1.4"/>
<circle cx="410.1" cy="392.5" r="5.2" fill="#657589" fill-opacity="0.9" stroke="white" stroke-width="1.4"/>
<circle cx="499.4" cy="412.3" r="5.2" fill="#5e738d" fill-opacity="0.9" stroke="white" stroke-width="1.4"/>
<circle cx="524.5" cy="361.4" r="5.2" fill="#905558" fill-opacity="0.9" stroke="white" stroke-width="1.4"/>
<circle cx="714.6" cy="389.6" r="5.2" fill="#8d575b" fill-opacity="0.9" stroke="white" stroke-width="1.4"/>
<circle cx="813.2" cy="343.8" r="5.2" fill="#915456" fill-opacity="0.9" stroke="white" stroke-width="1.4"/>
<circle cx="1060.7" cy="445.4" r="5.2" fill="#60738c" fill-opacity="0.9" stroke="white" stroke-width="1.4"/>
<circle cx="978.2" cy="381.9" r="5.2" fill="#905558" fill-opacity="0.9" stroke="white" stroke-width="1.4"/>
<circle cx="416.6" cy="424.9" r="5.2" fill="#61748c" fill-opacity="0.9" stroke="white" stroke-width="1.4"/>
<circle cx="400.8" cy="445.4" r="5.2" fill="#5e738e" fill-opacity="0.9" stroke="white" stroke-width="1.4"/>
<circle cx="318.2" cy="483.5" r="5.2" fill="#456da0" fill-opacity="0.9" stroke="white" stroke-width="1.4"/>
<circle cx="112.0" cy="394.6" r="5.2" fill="#a04745" fill-opacity="0.9" stroke="white" stroke-width="1.4"/>
<circle cx="194.5" cy="343.8" r="5.2" fill="#865e64" fill-opacity="0.9" stroke="white" stroke-width="1.4"/>
<circle cx="442.0" cy="394.6" r="5.2" fill="#70727e" fill-opacity="0.9" stroke="white" stroke-width="1.4"/>
<circle cx="524.5" cy="509.0" r="5.2" fill="#786a74" fill-opacity="0.9" stroke="white" stroke-width="1.4"/>
<circle cx="410.1" cy="422.9" r="5.2" fill="#657589" fill-opacity="0.9" stroke="white" stroke-width="1.4"/>
<circle cx="400.8" cy="445.4" r="5.2" fill="#587292" fill-opacity="0.9" stroke="white" stroke-width="1.4"/>
<circle cx="318.2" cy="394.6" r="5.2" fill="#5c738f" fill-opacity="0.9" stroke="white" stroke-width="1.4"/>
<circle cx="400.8" cy="381.9" r="5.2" fill="#736f7a" fill-opacity="0.9" stroke="white" stroke-width="1.4"/>
<circle cx="524.5" cy="381.9" r="5.2" fill="#846067" fill-opacity="0.9" stroke="white" stroke-width="1.4"/>
<circle cx="648.3" cy="381.9" r="5.2" fill="#915457" fill-opacity="0.9" stroke="white" stroke-width="1.4"/>
<circle cx="772.0" cy="432.7" r="5.2" fill="#776b75" fill-opacity="0.9" stroke="white" stroke-width="1.4"/>
<circle cx="416.6" cy="412.2" r="5.2" fill="#61748c" fill-opacity="0.9" stroke="white" stroke-width="1.4"/>
<circle cx="442.0" cy="483.5" r="5.2" fill="#5e738d" fill-opacity="0.9" stroke="white" stroke-width="1.4"/>
<circle cx="235.8" cy="432.7" r="5.2" fill="#667588" fill-opacity="0.9" stroke="white" stroke-width="1.4"/>
<circle cx="194.5" cy="445.4" r="5.2" fill="#426da2" fill-opacity="0.9" stroke="white" stroke-width="1.4"/>
<circle cx="112.0" cy="407.3" r="5.2" fill="#c2c6cc" fill-opacity="0.9" stroke="white" stroke-width="1.4"/>
<circle cx="153.3" cy="432.7" r="5.2" fill="#c2c6cc" fill-opacity="0.9" stroke="white" stroke-width="1.4"/>
<circle cx="112.0" cy="420.0" r="5.2" fill="#c2c6cc" fill-opacity="0.9" stroke="white" stroke-width="1.4"/>
<circle cx="410.1" cy="392.5" r="5.2" fill="#657589" fill-opacity="0.9" stroke="white" stroke-width="1.4"/>
<circle cx="499.4" cy="437.7" r="5.2" fill="#61748b" fill-opacity="0.9" stroke="white" stroke-width="1.4"/>
<circle cx="442.0" cy="470.8" r="5.2" fill="#746e79" fill-opacity="0.9" stroke="white" stroke-width="1.4"/>
<circle cx="277.0" cy="401.5" r="5.2" fill="#63748a" fill-opacity="0.9" stroke="white" stroke-width="1.4"/>
<circle cx="337.0" cy="425.8" r="5.2" fill="#776c76" fill-opacity="0.9" stroke="white" stroke-width="1.4"/>
<circle cx="318.2" cy="420.0" r="5.2" fill="#8c595d" fill-opacity="0.9" stroke="white" stroke-width="1.4"/>
<circle cx="318.2" cy="394.6" r="5.2" fill="#855e65" fill-opacity="0.9" stroke="white" stroke-width="1.4"/>
<circle cx="453.0" cy="498.5" r="5.2" fill="#5f738d" fill-opacity="0.9" stroke="white" stroke-width="1.4"/>
<circle cx="198.1" cy="421.1" r="5.2" fill="#687586" fill-opacity="0.9" stroke="white" stroke-width="1.4"/>
<circle cx="194.5" cy="394.6" r="5.2" fill="#60748c" fill-opacity="0.9" stroke="white" stroke-width="1.4"/>
<circle cx="277.0" cy="356.5" r="5.2" fill="#7a6872" fill-opacity="0.9" stroke="white" stroke-width="1.4"/>
<circle cx="483.2" cy="407.3" r="5.2" fill="#885c62" fill-opacity="0.9" stroke="white" stroke-width="1.4"/>
<circle cx="524.5" cy="331.1" r="5.2" fill="#756d79" fill-opacity="0.9" stroke="white" stroke-width="1.4"/>
<circle cx="813.2" cy="394.6" r="5.2" fill="#776b76" fill-opacity="0.9" stroke="white" stroke-width="1.4"/>
<text x="44.0" y="746.0" font-family="Helvetica, Arial, sans-serif" font-size="13" fill="#6b7684" font-weight="normal" text-anchor="start">221 round-to-round transitions from 59 risk-axis runs (axis == "risk"); 25 have undefined rho at round r (shown gray); 17 realized moves fall beyond the self-only envelope.</text>
<text x="44.0" y="764.0" font-family="Helvetica, Arial, sans-serif" font-size="13" fill="#6b7684" font-weight="normal" text-anchor="start">All transitions computed live from experiments/spread_util_unified.json (per-round value fields); envelopes are analytic.  Generator: vector-field-phase.py</text>
</svg>