<svg xmlns="http://www.w3.org/2000/svg" xmlns:xlink="http://www.w3.org/1999/xlink" viewBox="0 0 1240 824" font-family="Helvetica, Arial, sans-serif">
<rect width="1240" height="824" fill="white"/>
<text x="66" y="60" font-size="29" font-weight="bold" fill="#1a1a1a" font-family="Helvetica, Arial, sans-serif">The per-round measurements</text>
<text x="66" y="98" font-size="16" fill="#6b7684" font-family="Helvetica, Arial, sans-serif">Per prompt <tspan font-style="italic">j</tspan> in a round, the pool holds candidates <tspan font-style="italic">k</tspan> = 1…<tspan font-style="italic">n</tspan><tspan font-size="11" baseline-shift="-20%" font-style="italic">j</tspan> with value scores <tspan font-style="italic">x</tspan><tspan font-size="11" baseline-shift="-20%" font-style="italic">jk</tspan> in [0,1] and judge scores <tspan font-style="italic">s</tspan><tspan font-size="11" baseline-shift="-20%" font-style="italic">jk</tspan>;  the judge keeps two candidates.</text>
<line x1="66" y1="118" x2="1180" y2="118" stroke="#6b7684" stroke-width="1" opacity="0.35"/>
<text x="66" y="178.0" font-size="21" font-weight="bold" fill="#1a1a1a" font-family="Helvetica, Arial, sans-serif">spread</text>
<text x="66" y="202.0" font-size="13.5" fill="#6b7684" font-family="Helvetica, Arial, sans-serif">per-prompt value SD,</text>
<text x="66" y="220.0" font-size="13.5" fill="#6b7684" font-family="Helvetica, Arial, sans-serif">meaned over prompts</text>
<text x="300" y="178.0" font-size="27" font-weight="bold" font-style="italic" fill="#2867b5" text-anchor="middle" font-family="Helvetica, Arial, sans-serif">σ</text>
<g transform="translate(401.280 146.260) scale(1.0)" fill="#1a1a1a"><g transform="translate(0.72 31.74) scale(0.22 -0.22)">
    <defs>
     <path id="m1_Cmmi10-15" d="M 1197 -72 
Q 913 -72 692 64 
Q 472 200 351 431 
Q 231 663 231 941 
Q 231 1238 365 1566 
Q 500 1894 733 2166 
Q 966 2438 1259 2598 
Q 1553 2759 1863 2759 
L 3475 2759 
Q 3541 2759 3587 2715 
Q 3634 2672 3634 2597 
Q 3634 2503 3567 2433 
Q 3500 2363 3406 2363 
L 2625 2363 
Q 2809 2088 2809 1697 
Q 2809 1375 2684 1062 
Q 2559 750 2337 492 
Q 2116 234 1820 81 
Q 1525 -72 1197 -72 
z
M 1203 97 
Q 1553 97 1823 370 
Q 2094 644 2237 1039 
Q 2381 1434 2381 1772 
Q 2381 2047 2229 2205 
Q 2078 2363 1806 2363 
Q 1434 2363 1173 2113 
Q 913 1863 783 1484 
Q 653 1106 653 756 
Q 653 481 798 289 
Q 944 97 1203 97 
z
" transform="scale(0.015625)"/>
     <path id="m1_Cmmi10-69" d="M -84 -909 
Q -84 -753 23 -639 
Q 131 -525 288 -525 
Q 391 -525 461 -589 
Q 531 -653 531 -756 
Q 531 -878 454 -976 
Q 378 -1075 263 -1106 
Q 375 -1147 488 -1147 
Q 759 -1147 959 -895 
Q 1159 -644 1241 -331 
L 1844 2075 
Q 1888 2259 1888 2388 
Q 1888 2663 1697 2663 
Q 1416 2663 1205 2408 
Q 994 2153 863 1819 
Q 850 1778 813 1778 
L 738 1778 
Q 684 1778 684 1838 
L 684 1856 
Q 828 2241 1093 2534 
Q 1359 2828 1709 2828 
Q 1975 2828 2145 2662 
Q 2316 2497 2316 2241 
Q 2316 2150 2297 2059 
L 1691 -372 
Q 1625 -631 1440 -847 
Q 1256 -1063 1000 -1188 
Q 744 -1313 475 -1313 
Q 259 -1313 87 -1209 
Q -84 -1106 -84 -909 
z
M 1941 3878 
Q 1941 4019 2050 4125 
Q 2159 4231 2297 4231 
Q 2406 4231 2476 4164 
Q 2547 4097 2547 3994 
Q 2547 3850 2433 3742 
Q 2319 3634 2181 3634 
Q 2078 3634 2009 3706 
Q 1941 3778 1941 3878 
z
" transform="scale(0.015625)"/>
     <path id="m1_Cmr10-29" d="M 481 850 
Q 428 850 393 890 
Q 359 931 359 978 
Q 359 1031 393 1068 
Q 428 1106 481 1106 
L 4500 1106 
Q 4547 1106 4581 1068 
Q 4616 1031 4616 978 
Q 4616 931 4581 890 
Q 4547 850 4500 850 
L 481 850 
z
M 481 2094 
Q 428 2094 393 2131 
Q 359 2169 359 2222 
Q 359 2269 393 2309 
Q 428 2350 481 2350 
L 4500 2350 
Q 4547 2350 4581 2309 
Q 4616 2269 4616 2222 
Q 4616 2169 4581 2131 
Q 4547 2094 4500 2094 
L 481 2094 
z
" transform="scale(0.015625)"/>
     <path id="m1_Cmex10-35" d="M 2713 -15103 
L 1253 -8306 
L 819 -8984 
L 703 -8872 
L 1619 -7425 
L 2988 -13791 
L 6278 159 
Q 6300 256 6400 256 
Q 6453 256 6490 218 
Q 6528 181 6528 128 
L 6528 103 
L 2969 -15009 
Q 2941 -15103 2853 -15103 
L 2713 -15103 
z
" transform="scale(0.015625)"/>
     <path id="m1_Cmr10-64" d="M 594 0 
L 594 225 
Q 1394 225 1394 428 
L 1394 3788 
Q 1063 3628 556 3628 
L 556 3853 
Q 1341 3853 1741 4263 
L 1831 4263 
Q 1853 4263 1873 4245 
Q 1894 4228 1894 4206 
L 1894 428 
Q 1894 225 2694 225 
L 2694 0 
L 594 0 
z
" transform="scale(0.015625)"/>
     <path id="m1_Cmmi10-7a" d="M 494 109 
Q 494 147 500 166 
L 978 2075 
Q 1025 2253 1025 2388 
Q 1025 2663 838 2663 
Q 638 2663 541 2423 
Q 444 2184 353 1819 
Q 353 1800 334 1789 
Q 316 1778 300 1778 
L 225 1778 
Q 203 1778 187 1801 
Q 172 1825 172 1844 
Q 241 2122 305 2315 
Q 369 2509 505 2668 
Q 641 2828 844 2828 
Q 1084 2828 1268 2676 
Q 1453 2525 1453 2291 
Q 1644 2541 1900 2684 
Q 2156 2828 2444 2828 
Q 2672 2828 2837 2750 
Q 3003 2672 3095 2514 
Q 3188 2356 3188 2138 
Q 3188 1875 3070 1503 
Q 2953 1131 2778 672 
Q 2688 463 2688 288 
Q 2688 97 2834 97 
Q 3084 97 3251 365 
Q 3419 634 3488 941 
Q 3500 978 3541 978 
L 3616 978 
Q 3641 978 3658 962 
Q 3675 947 3675 922 
Q 3675 916 3669 903 
Q 3581 541 3364 234 
Q 3147 -72 2822 -72 
Q 2597 -72 2437 83 
Q 2278 238 2278 459 
Q 2278 578 2328 709 
Q 2409 919 2514 1209 
Q 2619 1500 2686 1765 
Q 2753 2031 2753 2234 
Q 2753 2413 2679 2538 
Q 2606 2663 2431 2663 
Q 2197 2663 2000 2559 
Q 1803 2456 1656 2286 
Q 1509 2116 1388 1881 
L 953 141 
Q 931 53 854 -9 
Q 778 -72 684 -72 
Q 606 -72 550 -22 
Q 494 28 494 109 
z
" transform="scale(0.015625)"/>
     <path id="m1_Cmex10-33" d="M 422 -8959 
Q 359 -8959 359 -8891 
Q 359 -8863 378 -8844 
L 3756 -4909 
L 378 -281 
Q 359 -263 359 -250 
L 359 -56 
Q 359 -34 379 -17 
Q 400 0 422 0 
L 8103 0 
L 8878 -1797 
L 8691 -1797 
Q 8394 -1116 7697 -787 
Q 7000 -459 6242 -382 
Q 5484 -306 4481 -306 
L 1522 -306 
L 4544 -4434 
Q 4556 -4459 4556 -4481 
Q 4556 -4500 4544 -4525 
L 1222 -8391 
L 4544 -8391 
Q 5528 -8391 6289 -8314 
Q 7050 -8238 7739 -7908 
Q 8428 -7578 8691 -6900 
L 8878 -6900 
L 8103 -8959 
L 422 -8959 
z
" transform="scale(0.015625)"/>
     <path id="m1_Cmmi10-3e" d="M 341 116 
Q 341 153 347 172 
L 1275 3872 
Q 1300 3981 1306 4044 
Q 1306 4147 891 4147 
Q 825 4147 825 4231 
Q 828 4247 839 4287 
Q 850 4328 867 4350 
Q 884 4372 916 4372 
L 1778 4441 
L 1797 4441 
Q 1797 4434 1819 4423 
Q 1841 4413 1844 4409 
Q 1856 4378 1856 4359 
L 1184 1684 
Q 1416 1781 1767 2145 
Q 2119 2509 2317 2668 
Q 2516 2828 2816 2828 
Q 2994 2828 3119 2706 
Q 3244 2584 3244 2406 
Q 3244 2294 3197 2198 
Q 3150 2103 3065 2043 
Q 2981 1984 2869 1984 
Q 2766 1984 2695 2048 
Q 2625 2113 2625 2216 
Q 2625 2369 2733 2473 
Q 2841 2578 2994 2578 
Q 2931 2663 2803 2663 
Q 2613 2663 2436 2553 
Q 2259 2444 2054 2239 
Q 1850 2034 1681 1864 
Q 1513 1694 1369 1606 
Q 1747 1563 2025 1408 
Q 2303 1253 2303 934 
Q 2303 869 2278 769 
Q 2222 528 2222 384 
Q 2222 97 2419 97 
Q 2650 97 2770 350 
Q 2891 603 2969 941 
Q 2981 978 3022 978 
L 3097 978 
Q 3122 978 3139 962 
Q 3156 947 3156 922 
Q 3156 916 3150 903 
Q 2909 -72 2406 -72 
Q 2225 -72 2086 12 
Q 1947 97 1872 242 
Q 1797 388 1797 569 
Q 1797 672 1825 781 
Q 1844 856 1844 922 
Q 1844 1169 1625 1297 
Q 1406 1425 1125 1453 
L 800 147 
Q 775 50 703 -11 
Q 631 -72 538 -72 
Q 456 -72 398 -17 
Q 341 38 341 116 
z
" transform="scale(0.015625)"/>
     <path id="m1_Cmr10-77" d="M 1984 -1588 
Q 1628 -1306 1370 -942 
Q 1113 -578 948 -165 
Q 784 247 703 697 
Q 622 1147 622 1600 
Q 622 2059 703 2509 
Q 784 2959 951 3375 
Q 1119 3791 1378 4153 
Q 1638 4516 1984 4788 
Q 1984 4800 2016 4800 
L 2075 4800 
Q 2094 4800 2109 4783 
Q 2125 4766 2125 4744 
Q 2125 4716 2113 4703 
Q 1800 4397 1592 4047 
Q 1384 3697 1257 3301 
Q 1131 2906 1075 2482 
Q 1019 2059 1019 1600 
Q 1019 -434 2106 -1491 
Q 2125 -1509 2125 -1544 
Q 2125 -1559 2108 -1579 
Q 2091 -1600 2075 -1600 
L 2016 -1600 
Q 1984 -1600 1984 -1588 
z
" transform="scale(0.015625)"/>
     <path id="m1_Cmmi10-3f" d="M 500 184 
Q 613 97 819 97 
Q 1019 97 1172 289 
Q 1325 481 1381 709 
L 1672 1844 
Q 1741 2153 1741 2266 
Q 1741 2425 1652 2544 
Q 1563 2663 1403 2663 
Q 1200 2663 1022 2536 
Q 844 2409 722 2214 
Q 600 2019 550 1819 
Q 538 1778 500 1778 
L 422 1778 
Q 372 1778 372 1838 
L 372 1856 
Q 434 2094 584 2320 
Q 734 2547 951 2687 
Q 1169 2828 1416 2828 
Q 1650 2828 1839 2703 
Q 2028 2578 2106 2363 
Q 2216 2559 2386 2693 
Q 2556 2828 2759 2828 
Q 2897 2828 3040 2779 
Q 3184 2731 3275 2631 
Q 3366 2531 3366 2381 
Q 3366 2219 3261 2101 
Q 3156 1984 2994 1984 
Q 2891 1984 2822 2050 
Q 2753 2116 2753 2216 
Q 2753 2350 2845 2451 
Q 2938 2553 3066 2572 
Q 2950 2663 2747 2663 
Q 2541 2663 2389 2472 
Q 2238 2281 2175 2047 
L 1894 916 
Q 1825 659 1825 494 
Q 1825 331 1917 214 
Q 2009 97 2163 97 
Q 2463 97 2698 361 
Q 2934 625 3009 941 
Q 3022 978 3059 978 
L 3138 978 
Q 3163 978 3178 961 
Q 3194 944 3194 922 
Q 3194 916 3188 903 
Q 3097 522 2806 225 
Q 2516 -72 2150 -72 
Q 1916 -72 1727 54 
Q 1538 181 1459 397 
Q 1359 209 1182 68 
Q 1006 -72 806 -72 
Q 669 -72 523 -23 
Q 378 25 287 125 
Q 197 225 197 378 
Q 197 528 301 651 
Q 406 775 563 775 
Q 669 775 741 711 
Q 813 647 813 544 
Q 813 409 723 309 
Q 634 209 500 184 
z
" transform="scale(0.015625)"/>
     <path id="m1_Cmsy10-11" d="M 653 1472 
Q 600 1472 565 1512 
Q 531 1553 531 1600 
Q 531 1647 565 1687 
Q 600 1728 653 1728 
L 4325 1728 
Q 4375 1728 4408 1687 
Q 4441 1647 4441 1600 
Q 4441 1553 4408 1512 
Q 4375 1472 4325 1472 
L 653 1472 
z
" transform="scale(0.015625)"/>
     <path id="m1_Cmr10-83" d="M 441 3553 
L 441 3775 
L 2753 3775 
L 2753 3553 
L 441 3553 
z
" transform="scale(0.015625)"/>
     <path id="m1_Cmr10-44" d="M 416 -1600 
Q 359 -1600 359 -1544 
Q 359 -1516 372 -1503 
Q 1466 -434 1466 1600 
Q 1466 3634 384 4691 
Q 359 4706 359 4744 
Q 359 4766 376 4783 
Q 394 4800 416 4800 
L 475 4800 
Q 494 4800 506 4788 
Q 966 4425 1272 3906 
Q 1578 3388 1720 2800 
Q 1863 2213 1863 1600 
Q 1863 1147 1786 708 
Q 1709 269 1542 -157 
Q 1375 -584 1119 -945 
Q 863 -1306 506 -1588 
Q 494 -1600 475 -1600 
L 416 -1600 
z
" transform="scale(0.015625)"/>
     <path id="m1_Cmr10-31" d="M 319 0 
L 319 172 
Q 319 188 331 206 
L 1325 1306 
Q 1550 1550 1690 1715 
Q 1831 1881 1968 2097 
Q 2106 2313 2186 2536 
Q 2266 2759 2266 3009 
Q 2266 3272 2169 3511 
Q 2072 3750 1880 3894 
Q 1688 4038 1416 4038 
Q 1138 4038 916 3870 
Q 694 3703 603 3438 
Q 628 3444 672 3444 
Q 816 3444 917 3347 
Q 1019 3250 1019 3097 
Q 1019 2950 917 2848 
Q 816 2747 672 2747 
Q 522 2747 420 2851 
Q 319 2956 319 3097 
Q 319 3338 409 3548 
Q 500 3759 670 3923 
Q 841 4088 1055 4175 
Q 1269 4263 1509 4263 
Q 1875 4263 2190 4108 
Q 2506 3953 2690 3670 
Q 2875 3388 2875 3009 
Q 2875 2731 2753 2481 
Q 2631 2231 2440 2026 
Q 2250 1822 1953 1562 
Q 1656 1303 1563 1216 
L 838 519 
L 1453 519 
Q 1906 519 2211 526 
Q 2516 534 2534 550 
Q 2609 631 2688 1141 
L 2875 1141 
L 2694 0 
L 319 0 
z
" transform="scale(0.015625)"/>
    </defs>
    <use xlink:href="#m1_Cmmi10-15" transform="translate(0 0.441667)"/>
    <use xlink:href="#m1_Cmmi10-69" transform="translate(57.080078 -14.558295) scale(0.7)"/>
    <use xlink:href="#m1_Cmr10-29" transform="translate(111.579848 0.441667)"/>
    <use xlink:href="#m1_Cmex10-35" transform="translate(209.265452 131) scale(0.997337)"/>
    <use xlink:href="#m1_Cmr10-64" transform="translate(343.734202 34.799479) scale(0.7)"/>
    <use xlink:href="#m1_Cmmi10-7a" transform="translate(327.734202 -23.714391) scale(0.7)"/>
    <use xlink:href="#m1_Cmmi10-69" transform="translate(369.741038 -34.214364) scale(0.49)"/>
    <use xlink:href="#m1_Cmex10-33" transform="translate(416.807884 103.75)"/>
    <use xlink:href="#m1_Cmmi10-3e" transform="translate(467.807884 -103.557813) scale(0.7)"/>
    <use xlink:href="#m1_Cmr10-77" transform="translate(549.917259 0.424479)"/>
    <use xlink:href="#m1_Cmmi10-3f" transform="translate(588.735618 0.424479)"/>
    <use xlink:href="#m1_Cmmi10-69" transform="translate(645.815697 -14.575483) scale(0.7)"/>
    <use xlink:href="#m1_Cmmi10-3e" transform="translate(674.594993 -14.575483) scale(0.7)"/>
    <use xlink:href="#m1_Cmsy10-11" transform="translate(736.716833 0.424479)"/>
    <use xlink:href="#m1_Cmr10-83" transform="translate(844.781832 1.596354)"/>
    <use xlink:href="#m1_Cmmi10-3f" transform="translate(834.402437 0.424479)"/>
    <use xlink:href="#m1_Cmmi10-69" transform="translate(895.486806 -14.575483) scale(0.7)"/>
    <use xlink:href="#m1_Cmr10-44" transform="translate(929.986519 0.424479)"/>
    <use xlink:href="#m1_Cmr10-31" transform="translate(972.809169 41.713713) scale(0.7)"/>
    <path d="M 308.984202 134.75 
L 308.984202 141 
L 1026.029584 141 
L 1026.029584 134.75 
L 308.984202 134.75 
z
"/>
    <path d="M 327.734202 22.299479 
L 327.734202 28.549479 
L 393.890836 28.549479 
L 393.890836 22.299479 
L 327.734202 22.299479 
z
"/>
   </g></g>
<g transform="translate(401.280 208.400) scale(1.0)" fill="#1a1a1a"><g transform="translate(0.72 23.6) scale(0.22 -0.22)">
    <defs>
     <path id="m2_Cmmi10-15" d="M 1197 -72 
Q 913 -72 692 64 
Q 472 200 351 431 
Q 231 663 231 941 
Q 231 1238 365 1566 
Q 500 1894 733 2166 
Q 966 2438 1259 2598 
Q 1553 2759 1863 2759 
L 3475 2759 
Q 3541 2759 3587 2715 
Q 3634 2672 3634 2597 
Q 3634 2503 3567 2433 
Q 3500 2363 3406 2363 
L 2625 2363 
Q 2809 2088 2809 1697 
Q 2809 1375 2684 1062 
Q 2559 750 2337 492 
Q 2116 234 1820 81 
Q 1525 -72 1197 -72 
z
M 1203 97 
Q 1553 97 1823 370 
Q 2094 644 2237 1039 
Q 2381 1434 2381 1772 
Q 2381 2047 2229 2205 
Q 2078 2363 1806 2363 
Q 1434 2363 1173 2113 
Q 913 1863 783 1484 
Q 653 1106 653 756 
Q 653 481 798 289 
Q 944 97 1203 97 
z
" transform="scale(0.015625)"/>
     <path id="m2_Cmr10-29" d="M 481 850 
Q 428 850 393 890 
Q 359 931 359 978 
Q 359 1031 393 1068 
Q 428 1106 481 1106 
L 4500 1106 
Q 4547 1106 4581 1068 
Q 4616 1031 4616 978 
Q 4616 931 4581 890 
Q 4547 850 4500 850 
L 481 850 
z
M 481 2094 
Q 428 2094 393 2131 
Q 359 2169 359 2222 
Q 359 2269 393 2309 
Q 428 2350 481 2350 
L 4500 2350 
Q 4547 2350 4581 2309 
Q 4616 2269 4616 2222 
Q 4616 2169 4581 2131 
Q 4547 2094 4500 2094 
L 481 2094 
z
" transform="scale(0.015625)"/>
     <path id="m2_Cmr10-64" d="M 594 0 
L 594 225 
Q 1394 225 1394 428 
L 1394 3788 
Q 1063 3628 556 3628 
L 556 3853 
Q 1341 3853 1741 4263 
L 1831 4263 
Q 1853 4263 1873 4245 
Q 1894 4228 1894 4206 
L 1894 428 
Q 1894 225 2694 225 
L 2694 0 
L 594 0 
z
" transform="scale(0.015625)"/>
     <path id="m2_Cmmi10-4f" d="M 697 384 
Q 759 206 928 115 
Q 1097 25 1294 25 
Q 1494 25 1680 164 
Q 1866 303 1995 512 
Q 2125 722 2175 928 
L 2931 3956 
Q 2938 3981 2939 3993 
Q 2941 4006 2944 4019 
Q 2944 4088 2894 4103 
Q 2725 4147 2209 4147 
Q 2144 4147 2144 4231 
Q 2156 4281 2164 4309 
Q 2172 4338 2192 4355 
Q 2213 4372 2253 4372 
L 3988 4372 
Q 4050 4372 4050 4288 
Q 4025 4147 3969 4147 
Q 3744 4147 3628 4112 
Q 3513 4078 3469 3928 
L 2713 903 
Q 2641 606 2420 367 
Q 2200 128 1897 -6 
Q 1594 -141 1288 -141 
Q 950 -141 695 46 
Q 441 234 441 556 
Q 441 769 556 922 
Q 672 1075 884 1075 
Q 1006 1075 1089 1000 
Q 1172 925 1172 806 
Q 1172 634 1044 506 
Q 916 378 744 378 
Q 709 378 697 384 
z
" transform="scale(0.015625)"/>
     <path id="m2_Cmex10-33" d="M 422 -8959 
Q 359 -8959 359 -8891 
Q 359 -8863 378 -8844 
L 3756 -4909 
L 378 -281 
Q 359 -263 359 -250 
L 359 -56 
Q 359 -34 379 -17 
Q 400 0 422 0 
L 8103 0 
L 8878 -1797 
L 8691 -1797 
Q 8394 -1116 7697 -787 
Q 7000 -459 6242 -382 
Q 5484 -306 4481 -306 
L 1522 -306 
L 4544 -4434 
Q 4556 -4459 4556 -4481 
Q 4556 -4500 4544 -4525 
L 1222 -8391 
L 4544 -8391 
Q 5528 -8391 6289 -8314 
Q 7050 -8238 7739 -7908 
Q 8428 -7578 8691 -6900 
L 8878 -6900 
L 8103 -8959 
L 422 -8959 
z
" transform="scale(0.015625)"/>
     <path id="m2_Cmmi10-69" d="M -84 -909 
Q -84 -753 23 -639 
Q 131 -525 288 -525 
Q 391 -525 461 -589 
Q 531 -653 531 -756 
Q 531 -878 454 -976 
Q 378 -1075 263 -1106 
Q 375 -1147 488 -1147 
Q 759 -1147 959 -895 
Q 1159 -644 1241 -331 
L 1844 2075 
Q 1888 2259 1888 2388 
Q 1888 2663 1697 2663 
Q 1416 2663 1205 2408 
Q 994 2153 863 1819 
Q 850 1778 813 1778 
L 738 1778 
Q 684 1778 684 1838 
L 684 1856 
Q 828 2241 1093 2534 
Q 1359 2828 1709 2828 
Q 1975 2828 2145 2662 
Q 2316 2497 2316 2241 
Q 2316 2150 2297 2059 
L 1691 -372 
Q 1625 -631 1440 -847 
Q 1256 -1063 1000 -1188 
Q 744 -1313 475 -1313 
Q 259 -1313 87 -1209 
Q -84 -1106 -84 -909 
z
M 1941 3878 
Q 1941 4019 2050 4125 
Q 2159 4231 2297 4231 
Q 2406 4231 2476 4164 
Q 2547 4097 2547 3994 
Q 2547 3850 2433 3742 
Q 2319 3634 2181 3634 
Q 2078 3634 2009 3706 
Q 1941 3778 1941 3878 
z
" transform="scale(0.015625)"/>
    </defs>
    <use xlink:href="#m2_Cmmi10-15" transform="translate(0 0.674479)"/>
    <use xlink:href="#m2_Cmr10-29" transform="translate(77.080135 0.674479)"/>
    <use xlink:href="#m2_Cmr10-64" transform="translate(183.015739 35.049479) scale(0.7)"/>
    <use xlink:href="#m2_Cmmi10-4f" transform="translate(181.015739 -31.519271) scale(0.7)"/>
    <use xlink:href="#m2_Cmex10-33" transform="translate(226.059685 104)"/>
    <use xlink:href="#m2_Cmmi10-69" transform="translate(278.059685 -101.010938) scale(0.7)"/>
    <use xlink:href="#m2_Cmmi10-15" transform="translate(359.16906 0.674479)"/>
    <use xlink:href="#m2_Cmmi10-69" transform="translate(416.249138 -14.325483) scale(0.7)"/>
    <path d="M 181.015739 22.549479 
L 181.015739 28.799479 
L 219.809685 28.799479 
L 219.809685 22.549479 
L 181.015739 22.549479 
z
"/>
   </g></g>
<text x="529.22" y="232.0" font-size="14" fill="#6b7684" font-family="Helvetica, Arial, sans-serif">J = the round's prompts, equal weight each.</text>
<line x1="66" y1="274.0" x2="1180" y2="274.0" stroke="#6b7684" stroke-width="1" opacity="0.22"/>
<text x="66" y="320.0" font-size="21" font-weight="bold" fill="#1a1a1a" font-family="Helvetica, Arial, sans-serif">agreement</text>
<text x="66" y="344.0" font-size="13.5" fill="#6b7684" font-family="Helvetica, Arial, sans-serif">per-prompt judge×value</text>
<text x="66" y="362.0" font-size="13.5" fill="#6b7684" font-family="Helvetica, Arial, sans-serif">correlation, meaned</text>
<text x="300" y="320.0" font-size="27" font-weight="bold" font-style="italic" fill="#2867b5" text-anchor="middle" font-family="Helvetica, Arial, sans-serif">ρ</text>
<g transform="translate(401.280 279.460) scale(1.0)" fill="#1a1a1a"><g transform="translate(0.72 40.54) scale(0.22 -0.22)">
    <defs>
     <path id="m3_Cmmi10-27" d="M 178 -1203 
Q 178 -1166 184 -1153 
L 819 1403 
Q 909 1747 1129 2076 
Q 1350 2406 1662 2617 
Q 1975 2828 2322 2828 
Q 2600 2828 2808 2683 
Q 3016 2538 3120 2302 
Q 3225 2066 3225 1784 
Q 3225 1475 3098 1144 
Q 2972 813 2748 538 
Q 2525 263 2234 95 
Q 1944 -72 1625 -72 
Q 1438 -72 1272 39 
Q 1106 150 1013 331 
L 634 -1178 
Q 616 -1269 541 -1325 
Q 466 -1381 372 -1381 
Q 294 -1381 236 -1332 
Q 178 -1284 178 -1203 
z
M 1638 97 
Q 1978 97 2229 445 
Q 2481 794 2614 1264 
Q 2747 1734 2747 2059 
Q 2747 2303 2640 2483 
Q 2534 2663 2309 2663 
Q 2031 2663 1818 2452 
Q 1606 2241 1478 1956 
Q 1350 1672 1269 1363 
L 1094 647 
Q 1134 416 1276 256 
Q 1419 97 1638 97 
z
" transform="scale(0.015625)"/>
     <path id="m3_Cmmi10-69" d="M -84 -909 
Q -84 -753 23 -639 
Q 131 -525 288 -525 
Q 391 -525 461 -589 
Q 531 -653 531 -756 
Q 531 -878 454 -976 
Q 378 -1075 263 -1106 
Q 375 -1147 488 -1147 
Q 759 -1147 959 -895 
Q 1159 -644 1241 -331 
L 1844 2075 
Q 1888 2259 1888 2388 
Q 1888 2663 1697 2663 
Q 1416 2663 1205 2408 
Q 994 2153 863 1819 
Q 850 1778 813 1778 
L 738 1778 
Q 684 1778 684 1838 
L 684 1856 
Q 828 2241 1093 2534 
Q 1359 2828 1709 2828 
Q 1975 2828 2145 2662 
Q 2316 2497 2316 2241 
Q 2316 2150 2297 2059 
L 1691 -372 
Q 1625 -631 1440 -847 
Q 1256 -1063 1000 -1188 
Q 744 -1313 475 -1313 
Q 259 -1313 87 -1209 
Q -84 -1106 -84 -909 
z
M 1941 3878 
Q 1941 4019 2050 4125 
Q 2159 4231 2297 4231 
Q 2406 4231 2476 4164 
Q 2547 4097 2547 3994 
Q 2547 3850 2433 3742 
Q 2319 3634 2181 3634 
Q 2078 3634 2009 3706 
Q 1941 3778 1941 3878 
z
" transform="scale(0.015625)"/>
     <path id="m3_Cmr10-29" d="M 481 850 
Q 428 850 393 890 
Q 359 931 359 978 
Q 359 1031 393 1068 
Q 428 1106 481 1106 
L 4500 1106 
Q 4547 1106 4581 1068 
Q 4616 1031 4616 978 
Q 4616 931 4581 890 
Q 4547 850 4500 850 
L 481 850 
z
M 481 2094 
Q 428 2094 393 2131 
Q 359 2169 359 2222 
Q 359 2269 393 2309 
Q 428 2350 481 2350 
L 4500 2350 
Q 4547 2350 4581 2309 
Q 4616 2269 4616 2222 
Q 4616 2169 4581 2131 
Q 4547 2094 4500 2094 
L 481 2094 
z
" transform="scale(0.015625)"/>
     <path id="m3_Cmr10-7b" d="M 1594 -72 
Q 1206 -72 890 129 
Q 575 331 394 667 
Q 213 1003 213 1381 
Q 213 1759 392 2106 
Q 572 2453 889 2661 
Q 1206 2869 1594 2869 
Q 1969 2869 2276 2722 
Q 2584 2575 2584 2241 
Q 2584 2116 2495 2023 
Q 2406 1931 2278 1931 
Q 2150 1931 2061 2023 
Q 1972 2116 1972 2241 
Q 1972 2353 2044 2436 
Q 2116 2519 2222 2541 
Q 2000 2681 1600 2681 
Q 1294 2681 1106 2478 
Q 919 2275 844 1975 
Q 769 1675 769 1381 
Q 769 1072 861 783 
Q 953 494 1158 305 
Q 1363 116 1672 116 
Q 1975 116 2187 302 
Q 2400 488 2478 788 
Q 2478 825 2528 825 
L 2606 825 
Q 2625 825 2640 808 
Q 2656 791 2656 769 
L 2656 750 
Q 2559 372 2271 150 
Q 1984 -72 1594 -72 
z
" transform="scale(0.015625)"/>
     <path id="m3_Cmr10-42" d="M 1600 -72 
Q 1216 -72 887 123 
Q 559 319 368 647 
Q 178 975 178 1363 
Q 178 1656 283 1928 
Q 388 2200 583 2414 
Q 778 2628 1037 2748 
Q 1297 2869 1600 2869 
Q 1994 2869 2317 2661 
Q 2641 2453 2828 2104 
Q 3016 1756 3016 1363 
Q 3016 978 2825 648 
Q 2634 319 2307 123 
Q 1981 -72 1600 -72 
z
M 1600 116 
Q 2113 116 2284 487 
Q 2456 859 2456 1434 
Q 2456 1756 2422 1967 
Q 2388 2178 2272 2350 
Q 2200 2456 2089 2536 
Q 1978 2616 1854 2658 
Q 1731 2700 1600 2700 
Q 1400 2700 1220 2609 
Q 1041 2519 922 2350 
Q 803 2169 770 1951 
Q 738 1734 738 1434 
Q 738 1075 800 789 
Q 863 503 1052 309 
Q 1241 116 1600 116 
z
" transform="scale(0.015625)"/>
     <path id="m3_Cmr10-84" d="M 166 0 
L 166 225 
Q 384 225 525 259 
Q 666 294 666 428 
L 666 2175 
Q 666 2347 614 2423 
Q 563 2500 466 2517 
Q 369 2534 166 2534 
L 166 2759 
L 1081 2828 
L 1081 2203 
Q 1184 2481 1375 2654 
Q 1566 2828 1838 2828 
Q 2028 2828 2178 2715 
Q 2328 2603 2328 2419 
Q 2328 2303 2245 2217 
Q 2163 2131 2041 2131 
Q 1922 2131 1837 2215 
Q 1753 2300 1753 2419 
Q 1753 2591 1875 2663 
L 1838 2663 
Q 1578 2663 1414 2475 
Q 1250 2288 1181 2009 
Q 1113 1731 1113 1478 
L 1113 428 
Q 1113 225 1734 225 
L 1734 0 
L 166 0 
z
" transform="scale(0.015625)"/>
     <path id="m3_Cmr10-77" d="M 1984 -1588 
Q 1628 -1306 1370 -942 
Q 1113 -578 948 -165 
Q 784 247 703 697 
Q 622 1147 622 1600 
Q 622 2059 703 2509 
Q 784 2959 951 3375 
Q 1119 3791 1378 4153 
Q 1638 4516 1984 4788 
Q 1984 4800 2016 4800 
L 2075 4800 
Q 2094 4800 2109 4783 
Q 2125 4766 2125 4744 
Q 2125 4716 2113 4703 
Q 1800 4397 1592 4047 
Q 1384 3697 1257 3301 
Q 1131 2906 1075 2482 
Q 1019 2059 1019 1600 
Q 1019 -434 2106 -1491 
Q 2125 -1509 2125 -1544 
Q 2125 -1559 2108 -1579 
Q 2091 -1600 2075 -1600 
L 2016 -1600 
Q 1984 -1600 1984 -1588 
z
" transform="scale(0.015625)"/>
     <path id="m3_Cmmi10-58" d="M 556 391 
Q 728 97 1247 97 
Q 1472 97 1675 173 
Q 1878 250 2011 403 
Q 2144 556 2144 775 
Q 2144 941 2025 1047 
Q 1906 1153 1734 1191 
L 1388 1259 
Q 1150 1319 997 1481 
Q 844 1644 844 1875 
Q 844 2159 998 2378 
Q 1153 2597 1406 2712 
Q 1659 2828 1931 2828 
Q 2222 2828 2451 2689 
Q 2681 2550 2681 2278 
Q 2681 2131 2598 2018 
Q 2516 1906 2369 1906 
Q 2284 1906 2223 1961 
Q 2163 2016 2163 2100 
Q 2163 2175 2205 2245 
Q 2247 2316 2317 2358 
Q 2388 2400 2463 2400 
Q 2406 2538 2251 2600 
Q 2097 2663 1919 2663 
Q 1756 2663 1593 2597 
Q 1431 2531 1332 2404 
Q 1234 2278 1234 2106 
Q 1234 1991 1315 1903 
Q 1397 1816 1516 1778 
L 1888 1703 
Q 2066 1666 2214 1570 
Q 2363 1475 2448 1329 
Q 2534 1184 2534 997 
Q 2534 759 2401 528 
Q 2269 297 2075 159 
Q 1734 -72 1241 -72 
Q 900 -72 615 84 
Q 331 241 331 550 
Q 331 725 432 854 
Q 534 984 709 984 
Q 813 984 883 921 
Q 953 859 953 756 
Q 953 609 843 500 
Q 734 391 588 391 
L 556 391 
z
" transform="scale(0.015625)"/>
     <path id="m3_Cmsy10-4e" d="M 538 1600 
Q 538 1691 584 1772 
Q 631 1853 714 1903 
Q 797 1953 891 1953 
Q 981 1953 1064 1903 
Q 1147 1853 1194 1772 
Q 1241 1691 1241 1600 
Q 1241 1456 1139 1351 
Q 1038 1247 891 1247 
Q 747 1247 642 1351 
Q 538 1456 538 1600 
z
" transform="scale(0.015625)"/>
     <path id="m3_Cmmi10-2c" d="M 634 -1153 
Q 634 -1125 659 -1100 
Q 891 -878 1019 -587 
Q 1147 -297 1147 25 
L 1147 103 
Q 1044 0 891 0 
Q 744 0 641 103 
Q 538 206 538 353 
Q 538 503 641 603 
Q 744 703 891 703 
Q 1119 703 1216 492 
Q 1313 281 1313 25 
Q 1313 -331 1170 -651 
Q 1028 -972 769 -1228 
Q 744 -1241 728 -1241 
Q 697 -1241 665 -1212 
Q 634 -1184 634 -1153 
z
" transform="scale(0.015625)"/>
     <path id="m3_Cmmi10-3f" d="M 500 184 
Q 613 97 819 97 
Q 1019 97 1172 289 
Q 1325 481 1381 709 
L 1672 1844 
Q 1741 2153 1741 2266 
Q 1741 2425 1652 2544 
Q 1563 2663 1403 2663 
Q 1200 2663 1022 2536 
Q 844 2409 722 2214 
Q 600 2019 550 1819 
Q 538 1778 500 1778 
L 422 1778 
Q 372 1778 372 1838 
L 372 1856 
Q 434 2094 584 2320 
Q 734 2547 951 2687 
Q 1169 2828 1416 2828 
Q 1650 2828 1839 2703 
Q 2028 2578 2106 2363 
Q 2216 2559 2386 2693 
Q 2556 2828 2759 2828 
Q 2897 2828 3040 2779 
Q 3184 2731 3275 2631 
Q 3366 2531 3366 2381 
Q 3366 2219 3261 2101 
Q 3156 1984 2994 1984 
Q 2891 1984 2822 2050 
Q 2753 2116 2753 2216 
Q 2753 2350 2845 2451 
Q 2938 2553 3066 2572 
Q 2950 2663 2747 2663 
Q 2541 2663 2389 2472 
Q 2238 2281 2175 2047 
L 1894 916 
Q 1825 659 1825 494 
Q 1825 331 1917 214 
Q 2009 97 2163 97 
Q 2463 97 2698 361 
Q 2934 625 3009 941 
Q 3022 978 3059 978 
L 3138 978 
Q 3163 978 3178 961 
Q 3194 944 3194 922 
Q 3194 916 3188 903 
Q 3097 522 2806 225 
Q 2516 -72 2150 -72 
Q 1916 -72 1727 54 
Q 1538 181 1459 397 
Q 1359 209 1182 68 
Q 1006 -72 806 -72 
Q 669 -72 523 -23 
Q 378 25 287 125 
Q 197 225 197 378 
Q 197 528 301 651 
Q 406 775 563 775 
Q 669 775 741 711 
Q 813 647 813 544 
Q 813 409 723 309 
Q 634 209 500 184 
z
" transform="scale(0.015625)"/>
     <path id="m3_Cmr10-44" d="M 416 -1600 
Q 359 -1600 359 -1544 
Q 359 -1516 372 -1503 
Q 1466 -434 1466 1600 
Q 1466 3634 384 4691 
Q 359 4706 359 4744 
Q 359 4766 376 4783 
Q 394 4800 416 4800 
L 475 4800 
Q 494 4800 506 4788 
Q 966 4425 1272 3906 
Q 1578 3388 1720 2800 
Q 1863 2213 1863 1600 
Q 1863 1147 1786 708 
Q 1709 269 1542 -157 
Q 1375 -584 1119 -945 
Q 863 -1306 506 -1588 
Q 494 -1600 475 -1600 
L 416 -1600 
z
" transform="scale(0.015625)"/>
     <path id="m3_Cmex10-33" d="M 422 -8959 
Q 359 -8959 359 -8891 
Q 359 -8863 378 -8844 
L 3756 -4909 
L 378 -281 
Q 359 -263 359 -250 
L 359 -56 
Q 359 -34 379 -17 
Q 400 0 422 0 
L 8103 0 
L 8878 -1797 
L 8691 -1797 
Q 8394 -1116 7697 -787 
Q 7000 -459 6242 -382 
Q 5484 -306 4481 -306 
L 1522 -306 
L 4544 -4434 
Q 4556 -4459 4556 -4481 
Q 4556 -4500 4544 -4525 
L 1222 -8391 
L 4544 -8391 
Q 5528 -8391 6289 -8314 
Q 7050 -8238 7739 -7908 
Q 8428 -7578 8691 -6900 
L 8878 -6900 
L 8103 -8959 
L 422 -8959 
z
" transform="scale(0.015625)"/>
     <path id="m3_Cmmi10-3e" d="M 341 116 
Q 341 153 347 172 
L 1275 3872 
Q 1300 3981 1306 4044 
Q 1306 4147 891 4147 
Q 825 4147 825 4231 
Q 828 4247 839 4287 
Q 850 4328 867 4350 
Q 884 4372 916 4372 
L 1778 4441 
L 1797 4441 
Q 1797 4434 1819 4423 
Q 1841 4413 1844 4409 
Q 1856 4378 1856 4359 
L 1184 1684 
Q 1416 1781 1767 2145 
Q 2119 2509 2317 2668 
Q 2516 2828 2816 2828 
Q 2994 2828 3119 2706 
Q 3244 2584 3244 2406 
Q 3244 2294 3197 2198 
Q 3150 2103 3065 2043 
Q 2981 1984 2869 1984 
Q 2766 1984 2695 2048 
Q 2625 2113 2625 2216 
Q 2625 2369 2733 2473 
Q 2841 2578 2994 2578 
Q 2931 2663 2803 2663 
Q 2613 2663 2436 2553 
Q 2259 2444 2054 2239 
Q 1850 2034 1681 1864 
Q 1513 1694 1369 1606 
Q 1747 1563 2025 1408 
Q 2303 1253 2303 934 
Q 2303 869 2278 769 
Q 2222 528 2222 384 
Q 2222 97 2419 97 
Q 2650 97 2770 350 
Q 2891 603 2969 941 
Q 2981 978 3022 978 
L 3097 978 
Q 3122 978 3139 962 
Q 3156 947 3156 922 
Q 3156 916 3150 903 
Q 2909 -72 2406 -72 
Q 2225 -72 2086 12 
Q 1947 97 1872 242 
Q 1797 388 1797 569 
Q 1797 672 1825 781 
Q 1844 856 1844 922 
Q 1844 1169 1625 1297 
Q 1406 1425 1125 1453 
L 800 147 
Q 775 50 703 -11 
Q 631 -72 538 -72 
Q 456 -72 398 -17 
Q 341 38 341 116 
z
" transform="scale(0.015625)"/>
     <path id="m3_Cmsy10-11" d="M 653 1472 
Q 600 1472 565 1512 
Q 531 1553 531 1600 
Q 531 1647 565 1687 
Q 600 1728 653 1728 
L 4325 1728 
Q 4375 1728 4408 1687 
Q 4441 1647 4441 1600 
Q 4441 1553 4408 1512 
Q 4375 1472 4325 1472 
L 653 1472 
z
" transform="scale(0.015625)"/>
     <path id="m3_Cmr10-83" d="M 441 3553 
L 441 3775 
L 2753 3775 
L 2753 3553 
L 441 3553 
z
" transform="scale(0.015625)"/>
     <path id="m3_Cmex10-35" d="M 2713 -15103 
L 1253 -8306 
L 819 -8984 
L 703 -8872 
L 1619 -7425 
L 2988 -13791 
L 6278 159 
Q 6300 256 6400 256 
Q 6453 256 6490 218 
Q 6528 181 6528 128 
L 6528 103 
L 2969 -15009 
Q 2941 -15103 2853 -15103 
L 2713 -15103 
z
" transform="scale(0.015625)"/>
     <path id="m3_Cmr10-31" d="M 319 0 
L 319 172 
Q 319 188 331 206 
L 1325 1306 
Q 1550 1550 1690 1715 
Q 1831 1881 1968 2097 
Q 2106 2313 2186 2536 
Q 2266 2759 2266 3009 
Q 2266 3272 2169 3511 
Q 2072 3750 1880 3894 
Q 1688 4038 1416 4038 
Q 1138 4038 916 3870 
Q 694 3703 603 3438 
Q 628 3444 672 3444 
Q 816 3444 917 3347 
Q 1019 3250 1019 3097 
Q 1019 2950 917 2848 
Q 816 2747 672 2747 
Q 522 2747 420 2851 
Q 319 2956 319 3097 
Q 319 3338 409 3548 
Q 500 3759 670 3923 
Q 841 4088 1055 4175 
Q 1269 4263 1509 4263 
Q 1875 4263 2190 4108 
Q 2506 3953 2690 3670 
Q 2875 3388 2875 3009 
Q 2875 2731 2753 2481 
Q 2631 2231 2440 2026 
Q 2250 1822 1953 1562 
Q 1656 1303 1563 1216 
L 838 519 
L 1453 519 
Q 1906 519 2211 526 
Q 2516 534 2534 550 
Q 2609 631 2688 1141 
L 2875 1141 
L 2694 0 
L 319 0 
z
" transform="scale(0.015625)"/>
    </defs>
    <use xlink:href="#m3_Cmmi10-27" transform="translate(0 0.958281)"/>
    <use xlink:href="#m3_Cmmi10-69" transform="translate(51.708984 -14.041681) scale(0.7)"/>
    <use xlink:href="#m3_Cmr10-29" transform="translate(106.208754 0.958281)"/>
    <use xlink:href="#m3_Cmr10-7b" transform="translate(203.894358 0.958281)"/>
    <use xlink:href="#m3_Cmr10-42" transform="translate(248.279124 0.958281)"/>
    <use xlink:href="#m3_Cmr10-84" transform="translate(298.279124 0.958281)"/>
    <use xlink:href="#m3_Cmr10-84" transform="translate(337.390452 0.958281)"/>
    <use xlink:href="#m3_Cmr10-77" transform="translate(376.50178 0.958281)"/>
    <use xlink:href="#m3_Cmmi10-58" transform="translate(415.320139 0.958281)"/>
    <use xlink:href="#m3_Cmmi10-69" transform="translate(462.097483 -14.041681) scale(0.7)"/>
    <use xlink:href="#m3_Cmsy10-4e" transform="translate(504.87682 -14.041681) scale(0.7)"/>
    <use xlink:href="#m3_Cmmi10-2c" transform="translate(543.977158 0.958281)"/>
    <use xlink:href="#m3_Cmmi10-3f" transform="translate(608.32981 0.958281)"/>
    <use xlink:href="#m3_Cmmi10-69" transform="translate(665.409888 -14.041681) scale(0.7)"/>
    <use xlink:href="#m3_Cmsy10-4e" transform="translate(708.189225 -14.041681) scale(0.7)"/>
    <use xlink:href="#m3_Cmr10-44" transform="translate(747.289563 0.958281)"/>
    <use xlink:href="#m3_Cmr10-29" transform="translate(806.10798 0.958281)"/>
    <use xlink:href="#m3_Cmex10-33" transform="translate(1055.043584 181.005469) scale(0.7)"/>
    <use xlink:href="#m3_Cmmi10-3e" transform="translate(1090.043584 35.884531) scale(0.49)"/>
    <use xlink:href="#m3_Cmr10-77" transform="translate(1148.220147 108.672135) scale(0.7)"/>
    <use xlink:href="#m3_Cmmi10-58" transform="translate(1175.392998 108.672135) scale(0.7)"/>
    <use xlink:href="#m3_Cmmi10-69" transform="translate(1208.137139 98.172162) scale(0.49)"/>
    <use xlink:href="#m3_Cmmi10-3e" transform="translate(1228.282647 98.172162) scale(0.49)"/>
    <use xlink:href="#m3_Cmsy10-11" transform="translate(1271.767935 108.672135) scale(0.7)"/>
    <use xlink:href="#m3_Cmr10-83" transform="translate(1343.521393 109.49401) scale(0.7)"/>
    <use xlink:href="#m3_Cmmi10-58" transform="translate(1340.147857 108.672135) scale(0.7)"/>
    <use xlink:href="#m3_Cmmi10-69" transform="translate(1375.695002 98.172162) scale(0.49)"/>
    <use xlink:href="#m3_Cmr10-44" transform="translate(1399.8448 108.672135) scale(0.7)"/>
    <use xlink:href="#m3_Cmr10-77" transform="translate(1427.017652 108.672135) scale(0.7)"/>
    <use xlink:href="#m3_Cmmi10-3f" transform="translate(1454.190503 108.672135) scale(0.7)"/>
    <use xlink:href="#m3_Cmmi10-69" transform="translate(1494.146558 98.172162) scale(0.49)"/>
    <use xlink:href="#m3_Cmmi10-3e" transform="translate(1514.292066 98.172162) scale(0.49)"/>
    <use xlink:href="#m3_Cmsy10-11" transform="translate(1557.777354 108.672135) scale(0.7)"/>
    <use xlink:href="#m3_Cmr10-83" transform="translate(1633.33379 109.49401) scale(0.7)"/>
    <use xlink:href="#m3_Cmmi10-3f" transform="translate(1626.157277 108.672135) scale(0.7)"/>
    <use xlink:href="#m3_Cmmi10-69" transform="translate(1668.916335 98.172162) scale(0.49)"/>
    <use xlink:href="#m3_Cmr10-44" transform="translate(1693.066134 108.672135) scale(0.7)"/>
    <use xlink:href="#m3_Cmex10-35" transform="translate(910.043584 9.591875) scale(0.698136)"/>
    <use xlink:href="#m3_Cmex10-33" transform="translate(988.596709 -9.78625) scale(0.7)"/>
    <use xlink:href="#m3_Cmmi10-3e" transform="translate(1023.596709 -154.907188) scale(0.49)"/>
    <use xlink:href="#m3_Cmr10-77" transform="translate(1081.773272 -82.119583) scale(0.7)"/>
    <use xlink:href="#m3_Cmmi10-58" transform="translate(1108.946123 -82.119583) scale(0.7)"/>
    <use xlink:href="#m3_Cmmi10-69" transform="translate(1141.690264 -92.619557) scale(0.49)"/>
    <use xlink:href="#m3_Cmmi10-3e" transform="translate(1161.835772 -92.619557) scale(0.49)"/>
    <use xlink:href="#m3_Cmsy10-11" transform="translate(1205.32106 -82.119583) scale(0.7)"/>
    <use xlink:href="#m3_Cmr10-83" transform="translate(1277.074518 -81.297708) scale(0.7)"/>
    <use xlink:href="#m3_Cmmi10-58" transform="translate(1273.700982 -82.119583) scale(0.7)"/>
    <use xlink:href="#m3_Cmmi10-69" transform="translate(1309.248127 -92.619557) scale(0.49)"/>
    <use xlink:href="#m3_Cmr10-44" transform="translate(1333.397925 -82.119583) scale(0.7)"/>
    <use xlink:href="#m3_Cmr10-31" transform="translate(1363.37378 -53.217119) scale(0.49)"/>
    <use xlink:href="#m3_Cmsy10-4e" transform="translate(1405.878111 -82.119583) scale(0.7)"/>
    <use xlink:href="#m3_Cmex10-33" transform="translate(1439.258034 -9.78625) scale(0.7)"/>
    <use xlink:href="#m3_Cmmi10-3e" transform="translate(1474.258034 -154.907188) scale(0.49)"/>
    <use xlink:href="#m3_Cmr10-77" transform="translate(1532.434597 -82.119583) scale(0.7)"/>
    <use xlink:href="#m3_Cmmi10-3f" transform="translate(1559.607448 -82.119583) scale(0.7)"/>
    <use xlink:href="#m3_Cmmi10-69" transform="translate(1599.563503 -92.619557) scale(0.49)"/>
    <use xlink:href="#m3_Cmmi10-3e" transform="translate(1619.709011 -92.619557) scale(0.49)"/>
    <use xlink:href="#m3_Cmsy10-11" transform="translate(1663.194299 -82.119583) scale(0.7)"/>
    <use xlink:href="#m3_Cmr10-83" transform="translate(1738.750735 -81.297708) scale(0.7)"/>
    <use xlink:href="#m3_Cmmi10-3f" transform="translate(1731.574222 -82.119583) scale(0.7)"/>
    <use xlink:href="#m3_Cmmi10-69" transform="translate(1774.33328 -92.619557) scale(0.49)"/>
    <use xlink:href="#m3_Cmr10-44" transform="translate(1798.483079 -82.119583) scale(0.7)"/>
    <use xlink:href="#m3_Cmr10-31" transform="translate(1828.458934 -53.217119) scale(0.49)"/>
    <path d="M 910.043584 22.833281 
L 910.043584 29.083281 
L 1865.713224 29.083281 
L 1865.713224 22.833281 
L 910.043584 22.833281 
z
"/>
    <path d="M 979.846709 12.208281 
L 979.846709 16.583281 
L 1865.713224 16.583281 
L 1865.713224 12.208281 
L 979.846709 12.208281 
z
"/>
   </g></g>
<g transform="translate(401.280 372.400) scale(1.0)" fill="#1a1a1a"><g transform="translate(0.72 23.6) scale(0.22 -0.22)">
    <defs>
     <path id="m4_Cmmi10-27" d="M 178 -1203 
Q 178 -1166 184 -1153 
L 819 1403 
Q 909 1747 1129 2076 
Q 1350 2406 1662 2617 
Q 1975 2828 2322 2828 
Q 2600 2828 2808 2683 
Q 3016 2538 3120 2302 
Q 3225 2066 3225 1784 
Q 3225 1475 3098 1144 
Q 2972 813 2748 538 
Q 2525 263 2234 95 
Q 1944 -72 1625 -72 
Q 1438 -72 1272 39 
Q 1106 150 1013 331 
L 634 -1178 
Q 616 -1269 541 -1325 
Q 466 -1381 372 -1381 
Q 294 -1381 236 -1332 
Q 178 -1284 178 -1203 
z
M 1638 97 
Q 1978 97 2229 445 
Q 2481 794 2614 1264 
Q 2747 1734 2747 2059 
Q 2747 2303 2640 2483 
Q 2534 2663 2309 2663 
Q 2031 2663 1818 2452 
Q 1606 2241 1478 1956 
Q 1350 1672 1269 1363 
L 1094 647 
Q 1134 416 1276 256 
Q 1419 97 1638 97 
z
" transform="scale(0.015625)"/>
     <path id="m4_Cmr10-29" d="M 481 850 
Q 428 850 393 890 
Q 359 931 359 978 
Q 359 1031 393 1068 
Q 428 1106 481 1106 
L 4500 1106 
Q 4547 1106 4581 1068 
Q 4616 1031 4616 978 
Q 4616 931 4581 890 
Q 4547 850 4500 850 
L 481 850 
z
M 481 2094 
Q 428 2094 393 2131 
Q 359 2169 359 2222 
Q 359 2269 393 2309 
Q 428 2350 481 2350 
L 4500 2350 
Q 4547 2350 4581 2309 
Q 4616 2269 4616 2222 
Q 4616 2169 4581 2131 
Q 4547 2094 4500 2094 
L 481 2094 
z
" transform="scale(0.015625)"/>
     <path id="m4_Cmr10-64" d="M 594 0 
L 594 225 
Q 1394 225 1394 428 
L 1394 3788 
Q 1063 3628 556 3628 
L 556 3853 
Q 1341 3853 1741 4263 
L 1831 4263 
Q 1853 4263 1873 4245 
Q 1894 4228 1894 4206 
L 1894 428 
Q 1894 225 2694 225 
L 2694 0 
L 594 0 
z
" transform="scale(0.015625)"/>
     <path id="m4_Cmsy10-2f" d="M 763 -1484 
L 763 4684 
Q 763 4734 800 4767 
Q 838 4800 891 4800 
Q 938 4800 978 4767 
Q 1019 4734 1019 4684 
L 1019 -1484 
Q 1019 -1534 978 -1567 
Q 938 -1600 891 -1600 
Q 838 -1600 800 -1567 
Q 763 -1534 763 -1484 
z
" transform="scale(0.015625)"/>
     <path id="m4_Cmmi10-3b" d="M 313 0 
Q 250 0 250 84 
Q 253 100 262 139 
Q 272 178 289 201 
Q 306 225 331 225 
Q 722 225 878 269 
Q 959 297 997 441 
L 1875 3956 
Q 1888 4019 1888 4044 
Q 1888 4113 1813 4122 
Q 1691 4147 1350 4147 
Q 1288 4147 1288 4231 
Q 1291 4247 1300 4286 
Q 1309 4325 1326 4348 
Q 1344 4372 1369 4372 
L 3669 4372 
Q 4116 4372 4450 4155 
Q 4784 3938 4962 3570 
Q 5141 3203 5141 2759 
Q 5141 2269 4937 1778 
Q 4734 1288 4368 881 
Q 4003 475 3534 237 
Q 3066 0 2572 0 
L 313 0 
z
M 1509 275 
Q 1509 225 1728 225 
L 2472 225 
Q 2828 225 3159 372 
Q 3491 519 3750 775 
Q 3991 1016 4175 1406 
Q 4359 1797 4461 2222 
Q 4563 2647 4563 3003 
Q 4563 3263 4486 3472 
Q 4409 3681 4270 3831 
Q 4131 3981 3922 4064 
Q 3713 4147 3450 4147 
L 2747 4147 
Q 2572 4147 2515 4117 
Q 2459 4088 2413 3928 
L 1538 416 
Q 1509 338 1509 275 
z
" transform="scale(0.015625)"/>
     <path id="m4_Cmex10-33" d="M 422 -8959 
Q 359 -8959 359 -8891 
Q 359 -8863 378 -8844 
L 3756 -4909 
L 378 -281 
Q 359 -263 359 -250 
L 359 -56 
Q 359 -34 379 -17 
Q 400 0 422 0 
L 8103 0 
L 8878 -1797 
L 8691 -1797 
Q 8394 -1116 7697 -787 
Q 7000 -459 6242 -382 
Q 5484 -306 4481 -306 
L 1522 -306 
L 4544 -4434 
Q 4556 -4459 4556 -4481 
Q 4556 -4500 4544 -4525 
L 1222 -8391 
L 4544 -8391 
Q 5528 -8391 6289 -8314 
Q 7050 -8238 7739 -7908 
Q 8428 -7578 8691 -6900 
L 8878 -6900 
L 8103 -8959 
L 422 -8959 
z
" transform="scale(0.015625)"/>
     <path id="m4_Cmmi10-69" d="M -84 -909 
Q -84 -753 23 -639 
Q 131 -525 288 -525 
Q 391 -525 461 -589 
Q 531 -653 531 -756 
Q 531 -878 454 -976 
Q 378 -1075 263 -1106 
Q 375 -1147 488 -1147 
Q 759 -1147 959 -895 
Q 1159 -644 1241 -331 
L 1844 2075 
Q 1888 2259 1888 2388 
Q 1888 2663 1697 2663 
Q 1416 2663 1205 2408 
Q 994 2153 863 1819 
Q 850 1778 813 1778 
L 738 1778 
Q 684 1778 684 1838 
L 684 1856 
Q 828 2241 1093 2534 
Q 1359 2828 1709 2828 
Q 1975 2828 2145 2662 
Q 2316 2497 2316 2241 
Q 2316 2150 2297 2059 
L 1691 -372 
Q 1625 -631 1440 -847 
Q 1256 -1063 1000 -1188 
Q 744 -1313 475 -1313 
Q 259 -1313 87 -1209 
Q -84 -1106 -84 -909 
z
M 1941 3878 
Q 1941 4019 2050 4125 
Q 2159 4231 2297 4231 
Q 2406 4231 2476 4164 
Q 2547 4097 2547 3994 
Q 2547 3850 2433 3742 
Q 2319 3634 2181 3634 
Q 2078 3634 2009 3706 
Q 1941 3778 1941 3878 
z
" transform="scale(0.015625)"/>
     <path id="m4_Cmsy10-3b" d="M 1356 403 
Q 1838 0 2497 0 
L 3616 0 
Q 3666 0 3698 -37 
Q 3731 -75 3731 -128 
Q 3731 -175 3698 -215 
Q 3666 -256 3616 -256 
L 2478 -256 
Q 1969 -256 1519 -12 
Q 1069 231 800 657 
Q 531 1084 531 1600 
Q 531 2116 800 2542 
Q 1069 2969 1519 3212 
Q 1969 3456 2478 3456 
L 3616 3456 
Q 3666 3456 3698 3415 
Q 3731 3375 3731 3328 
Q 3731 3275 3698 3237 
Q 3666 3200 3616 3200 
L 2497 3200 
Q 2184 3200 1889 3097 
Q 1594 2994 1356 2797 
Q 1122 2600 958 2304 
Q 794 2009 794 1728 
L 3616 1728 
Q 3666 1728 3698 1687 
Q 3731 1647 3731 1600 
Q 3731 1553 3698 1512 
Q 3666 1472 3616 1472 
L 794 1472 
Q 794 1194 958 897 
Q 1122 600 1356 403 
z
" transform="scale(0.015625)"/>
    </defs>
    <use xlink:href="#m4_Cmmi10-27" transform="translate(0 0.674479)"/>
    <use xlink:href="#m4_Cmr10-29" transform="translate(71.709042 0.674479)"/>
    <use xlink:href="#m4_Cmr10-64" transform="translate(206.644646 35.049479) scale(0.7)"/>
    <use xlink:href="#m4_Cmsy10-2f" transform="translate(175.644646 -36.200521) scale(0.7)"/>
    <use xlink:href="#m4_Cmmi10-3b" transform="translate(195.024529 -36.200521) scale(0.7)"/>
    <use xlink:href="#m4_Cmsy10-2f" transform="translate(252.924919 -36.200521) scale(0.7)"/>
    <use xlink:href="#m4_Cmex10-33" transform="translate(292.554802 104)"/>
    <use xlink:href="#m4_Cmmi10-69" transform="translate(278.554802 -102.553125) scale(0.7)"/>
    <use xlink:href="#m4_Cmsy10-3b" transform="translate(321.334139 -102.553125) scale(0.7)"/>
    <use xlink:href="#m4_Cmmi10-3b" transform="translate(381.955273 -102.553125) scale(0.7)"/>
    <use xlink:href="#m4_Cmmi10-27" transform="translate(439.855663 0.674479)"/>
    <use xlink:href="#m4_Cmmi10-69" transform="translate(491.564648 -14.325483) scale(0.7)"/>
    <path d="M 175.644646 22.549479 
L 175.644646 28.799479 
L 272.304802 28.799479 
L 272.304802 22.549479 
L 175.644646 22.549479 
z
"/>
   </g></g>
<text x="545.94" y="390.0" font-size="14" fill="#6b7684" font-family="Helvetica, Arial, sans-serif">D = prompts where ρⱼ is defined (fewer than two candidates,</text>
<text x="545.94" y="408.0" font-size="14" fill="#6b7684" font-family="Helvetica, Arial, sans-serif">or zero variance on either side, drop the prompt).</text>
<line x1="66" y1="436.0" x2="1180" y2="436.0" stroke="#6b7684" stroke-width="1" opacity="0.22"/>
<text x="66" y="536.0" font-size="21" font-weight="bold" fill="#1a1a1a" font-family="Helvetica, Arial, sans-serif">selector gap</text>
<text x="66" y="560.0" font-size="13.5" fill="#6b7684" font-family="Helvetica, Arial, sans-serif">kept mean minus</text>
<text x="66" y="578.0" font-size="13.5" fill="#6b7684" font-family="Helvetica, Arial, sans-serif">pool mean</text>
<text x="300" y="536.0" font-size="27" font-weight="bold" font-style="italic" fill="#2867b5" text-anchor="middle" font-family="Helvetica, Arial, sans-serif">g</text>
<g transform="translate(401.280 518.565) scale(1.0)" fill="#1a1a1a"><g transform="translate(0.72 17.434844) scale(0.22 -0.22)">
    <defs>
     <path id="m5_Cmmi10-2f" d="M 91 -916 
Q 91 -759 198 -642 
Q 306 -525 459 -525 
Q 563 -525 633 -589 
Q 703 -653 703 -756 
Q 703 -872 637 -964 
Q 572 -1056 469 -1094 
Q 641 -1147 1006 -1147 
Q 1300 -1147 1544 -920 
Q 1788 -694 1863 -397 
L 2047 353 
Q 1700 0 1325 0 
Q 1050 0 854 140 
Q 659 281 556 515 
Q 453 750 453 1013 
Q 453 1306 573 1628 
Q 694 1950 911 2225 
Q 1128 2500 1409 2664 
Q 1691 2828 2003 2828 
Q 2191 2828 2341 2725 
Q 2491 2622 2578 2450 
Q 2641 2700 2853 2700 
Q 2934 2700 2990 2651 
Q 3047 2603 3047 2522 
Q 3047 2503 3045 2493 
Q 3044 2484 3041 2472 
L 2309 -434 
Q 2259 -634 2125 -800 
Q 1991 -966 1809 -1077 
Q 1628 -1188 1412 -1250 
Q 1197 -1313 997 -1313 
Q 631 -1313 361 -1242 
Q 91 -1172 91 -916 
z
M 1338 166 
Q 1747 166 2144 728 
L 2497 2125 
Q 2453 2347 2322 2505 
Q 2191 2663 1991 2663 
Q 1778 2663 1589 2489 
Q 1400 2316 1275 2075 
Q 1156 1844 1045 1411 
Q 934 978 934 728 
Q 934 509 1034 337 
Q 1134 166 1338 166 
z
" transform="scale(0.015625)"/>
     <path id="m5_Cmr10-29" d="M 481 850 
Q 428 850 393 890 
Q 359 931 359 978 
Q 359 1031 393 1068 
Q 428 1106 481 1106 
L 4500 1106 
Q 4547 1106 4581 1068 
Q 4616 1031 4616 978 
Q 4616 931 4581 890 
Q 4547 850 4500 850 
L 481 850 
z
M 481 2094 
Q 428 2094 393 2131 
Q 359 2169 359 2222 
Q 359 2269 393 2309 
Q 428 2350 481 2350 
L 4500 2350 
Q 4547 2350 4581 2309 
Q 4616 2269 4616 2222 
Q 4616 2169 4581 2131 
Q 4547 2094 4500 2094 
L 481 2094 
z
" transform="scale(0.015625)"/>
    </defs>
    <use xlink:href="#m5_Cmmi10-2f" transform="translate(0 0.8125)"/>
    <use xlink:href="#m5_Cmr10-29" transform="translate(84.372183 0.8125)"/>
   </g></g>
<g transform="translate(450.540 518.565) scale(1.0)" fill="#1a1a1a"><g transform="translate(0.72 17.434844) scale(0.22 -0.22)">
    <defs>
     <path id="m6_Cmmi10-3e" d="M 341 116 
Q 341 153 347 172 
L 1275 3872 
Q 1300 3981 1306 4044 
Q 1306 4147 891 4147 
Q 825 4147 825 4231 
Q 828 4247 839 4287 
Q 850 4328 867 4350 
Q 884 4372 916 4372 
L 1778 4441 
L 1797 4441 
Q 1797 4434 1819 4423 
Q 1841 4413 1844 4409 
Q 1856 4378 1856 4359 
L 1184 1684 
Q 1416 1781 1767 2145 
Q 2119 2509 2317 2668 
Q 2516 2828 2816 2828 
Q 2994 2828 3119 2706 
Q 3244 2584 3244 2406 
Q 3244 2294 3197 2198 
Q 3150 2103 3065 2043 
Q 2981 1984 2869 1984 
Q 2766 1984 2695 2048 
Q 2625 2113 2625 2216 
Q 2625 2369 2733 2473 
Q 2841 2578 2994 2578 
Q 2931 2663 2803 2663 
Q 2613 2663 2436 2553 
Q 2259 2444 2054 2239 
Q 1850 2034 1681 1864 
Q 1513 1694 1369 1606 
Q 1747 1563 2025 1408 
Q 2303 1253 2303 934 
Q 2303 869 2278 769 
Q 2222 528 2222 384 
Q 2222 97 2419 97 
Q 2650 97 2770 350 
Q 2891 603 2969 941 
Q 2981 978 3022 978 
L 3097 978 
Q 3122 978 3139 962 
Q 3156 947 3156 922 
Q 3156 916 3150 903 
Q 2909 -72 2406 -72 
Q 2225 -72 2086 12 
Q 1947 97 1872 242 
Q 1797 388 1797 569 
Q 1797 672 1825 781 
Q 1844 856 1844 922 
Q 1844 1169 1625 1297 
Q 1406 1425 1125 1453 
L 800 147 
Q 775 50 703 -11 
Q 631 -72 538 -72 
Q 456 -72 398 -17 
Q 341 38 341 116 
z
" transform="scale(0.015625)"/>
    </defs>
    <use xlink:href="#m6_Cmmi10-3e" transform="translate(0 0.609375)"/>
   </g></g>
<g transform="translate(471.200 518.565) scale(1.0)" fill="#1a1a1a"><g transform="translate(0.72 17.434844) scale(0.22 -0.22)">
    <defs>
     <path id="m7_Cmsy10-11" d="M 653 1472 
Q 600 1472 565 1512 
Q 531 1553 531 1600 
Q 531 1647 565 1687 
Q 600 1728 653 1728 
L 4325 1728 
Q 4375 1728 4408 1687 
Q 4441 1647 4441 1600 
Q 4441 1553 4408 1512 
Q 4375 1472 4325 1472 
L 653 1472 
z
" transform="scale(0.015625)"/>
    </defs>
    <use xlink:href="#m7_Cmsy10-11"/>
   </g></g>
<g transform="translate(497.360 518.565) scale(1.0)" fill="#1a1a1a"><g transform="translate(0.72 17.434844) scale(0.22 -0.22)">
    <defs>
     <path id="m8_Cmmi10-80" d="M -159 -1241 
Q -219 -1241 -219 -1159 
Q -197 -1019 -134 -1019 
Q 66 -1019 145 -983 
Q 225 -947 269 -800 
L 991 2081 
Q 1038 2200 1038 2388 
Q 1038 2663 850 2663 
Q 650 2663 553 2423 
Q 456 2184 366 1819 
Q 366 1778 313 1778 
L 238 1778 
Q 222 1778 203 1801 
Q 184 1825 184 1844 
Q 253 2122 317 2315 
Q 381 2509 517 2668 
Q 653 2828 856 2828 
Q 1075 2828 1240 2704 
Q 1406 2581 1453 2369 
Q 1628 2572 1840 2700 
Q 2053 2828 2278 2828 
Q 2547 2828 2745 2684 
Q 2944 2541 3044 2308 
Q 3144 2075 3144 1806 
Q 3144 1394 2933 953 
Q 2722 513 2361 220 
Q 2000 -72 1588 -72 
Q 1400 -72 1248 34 
Q 1097 141 1013 313 
L 722 -825 
Q 706 -919 703 -934 
Q 703 -1019 1125 -1019 
Q 1191 -1019 1191 -1100 
Q 1169 -1184 1155 -1212 
Q 1141 -1241 1081 -1241 
L -159 -1241 
z
M 1594 97 
Q 1816 97 2006 280 
Q 2197 463 2316 691 
Q 2403 863 2479 1111 
Q 2556 1359 2612 1640 
Q 2669 1922 2669 2088 
Q 2669 2234 2630 2362 
Q 2591 2491 2502 2577 
Q 2413 2663 2266 2663 
Q 2031 2663 1823 2495 
Q 1616 2328 1447 2081 
L 1447 2059 
L 1094 647 
Q 1138 419 1263 258 
Q 1388 97 1594 97 
z
" transform="scale(0.015625)"/>
    </defs>
    <use xlink:href="#m8_Cmmi10-80" transform="translate(0 0.8125)"/>
   </g></g>
<line x1="457.1" y1="510.0" x2="457.1" y2="494.2" stroke="#6b7684" stroke-width="1.0" opacity="0.55"/>
<rect x="225.7" y="466.8" width="237.3" height="27.3" rx="4" ry="4" fill="#ffffff" fill-opacity="0.92" stroke="#6b7684" stroke-width="1" opacity="0.6"/>
<text x="344.4" y="484.0" font-size="13.00" fill="#6b7684" font-weight="normal" text-anchor="middle" font-family="Helvetica, Arial, sans-serif">mean value of the 2 kept candidates</text>
<line x1="503.7" y1="544.0" x2="503.7" y2="564.8" stroke="#6b7684" stroke-width="1.0" opacity="0.55"/>
<rect x="374.5" y="564.8" width="258.4" height="27.3" rx="4" ry="4" fill="#ffffff" fill-opacity="0.92" stroke="#6b7684" stroke-width="1" opacity="0.6"/>
<text x="503.7" y="582.0" font-size="13.00" fill="#6b7684" font-weight="normal" text-anchor="middle" font-family="Helvetica, Arial, sans-serif">mean value of the whole candidate pool</text>
<text x="549.3" y="536.0" font-size="14.00" fill="#6b7684" font-weight="normal" text-anchor="start" font-family="Helvetica, Arial, sans-serif">≈ ρσ</text>
<line x1="66" y1="654.0" x2="1180" y2="654.0" stroke="#1a1a1a" stroke-width="1.4" opacity="0.55"/>
<text x="66" y="684.0" font-size="20" font-weight="bold" fill="#1a1a1a" font-family="Helvetica, Arial, sans-serif">Symbols — every quantity in the measurements</text>
<text x="66.0" y="712.0" font-size="14.5" font-family="Helvetica, Arial, sans-serif"><tspan font-style="italic" font-weight="bold" fill="#1a1a1a">x</tspan><tspan font-style="italic" font-weight="bold" fill="#1a1a1a" font-size="10" baseline-shift="-18%">jk</tspan><tspan fill="#6b7684">  —  value score of prompt j, candidate k</tspan></text>
<text x="66.0" y="736.0" font-size="14.5" font-family="Helvetica, Arial, sans-serif"><tspan font-style="italic" font-weight="bold" fill="#1a1a1a">s</tspan><tspan font-style="italic" font-weight="bold" fill="#1a1a1a" font-size="10" baseline-shift="-18%">jk</tspan><tspan fill="#6b7684">  —  judge score of prompt j, candidate k</tspan></text>
<text x="66.0" y="760.0" font-size="14.5" font-family="Helvetica, Arial, sans-serif"><tspan font-style="italic" font-weight="bold" fill="#1a1a1a">n</tspan><tspan font-style="italic" font-weight="bold" fill="#1a1a1a" font-size="10" baseline-shift="-18%">j</tspan><tspan fill="#6b7684">  —  candidates in prompt j's pool</tspan></text>
<text x="66.0" y="784.0" font-size="14.5" font-family="Helvetica, Arial, sans-serif"><tspan font-style="italic" font-weight="bold" fill="#1a1a1a">J</tspan><tspan fill="#6b7684">  —  the round's prompts (count), equal weight</tspan></text>
<text x="437.3" y="712.0" font-size="14.5" font-family="Helvetica, Arial, sans-serif"><tspan font-style="italic" font-weight="bold" fill="#1a1a1a">D</tspan><tspan fill="#6b7684">  —  prompts where ρⱼ is defined</tspan></text>
<text x="437.3" y="736.0" font-size="14.5" font-family="Helvetica, Arial, sans-serif"><tspan font-style="italic" font-weight="bold" fill="#1a1a1a">σ</tspan><tspan font-style="italic" font-weight="bold" fill="#1a1a1a" font-size="10" baseline-shift="-18%">j</tspan><tspan fill="#6b7684">  —  per-prompt value SD (population, ÷ nⱼ)</tspan></text>
<text x="437.3" y="760.0" font-size="14.5" font-family="Helvetica, Arial, sans-serif"><tspan font-style="italic" font-weight="bold" fill="#1a1a1a">σ</tspan><tspan fill="#6b7684">  —  spread — per-prompt value SD, meaned</tspan></text>
<text x="437.3" y="784.0" font-size="14.5" font-family="Helvetica, Arial, sans-serif"><tspan font-style="italic" font-weight="bold" fill="#1a1a1a">ρ</tspan><tspan font-style="italic" font-weight="bold" fill="#1a1a1a" font-size="10" baseline-shift="-18%">j</tspan><tspan fill="#6b7684">  —  per-prompt judge×value correlation</tspan></text>
<text x="808.7" y="712.0" font-size="14.5" font-family="Helvetica, Arial, sans-serif"><tspan font-style="italic" font-weight="bold" fill="#1a1a1a">ρ</tspan><tspan fill="#6b7684">  —  agreement — ρⱼ meaned over D</tspan></text>
<text x="808.7" y="736.0" font-size="14.5" font-family="Helvetica, Arial, sans-serif"><tspan font-style="italic" font-weight="bold" fill="#1a1a1a">g</tspan><tspan fill="#6b7684">  —  selector gap = k − p</tspan></text>
<text x="808.7" y="760.0" font-size="14.5" font-family="Helvetica, Arial, sans-serif"><tspan font-style="italic" font-weight="bold" fill="#1a1a1a">k</tspan><tspan fill="#6b7684">  —  kept mean (mean value of the 2 kept)</tspan></text>
<text x="808.7" y="784.0" font-size="14.5" font-family="Helvetica, Arial, sans-serif"><tspan font-style="italic" font-weight="bold" fill="#1a1a1a">p</tspan><tspan fill="#6b7684">  —  pool mean (mean value of the whole pool)</tspan></text>
</svg>