<svg xmlns="http://www.w3.org/2000/svg" xmlns:xlink="http://www.w3.org/1999/xlink" viewBox="0 0 1200 886" font-family="Helvetica, Arial, sans-serif">
<rect width="1200" height="886" fill="white"/>
<text x="66" y="60" font-size="29" font-weight="bold" fill="#1a1a1a" font-family="Helvetica, Arial, sans-serif">The per-round measurements and the model they feed</text>
<text x="66" y="98" font-size="16" fill="#6b7684" font-family="Helvetica, Arial, sans-serif">Per prompt <tspan font-style="italic">j</tspan> in a round, the pool holds candidates <tspan font-style="italic">k</tspan> = 1…<tspan font-style="italic">n</tspan><tspan font-size="11" baseline-shift="-20%" font-style="italic">j</tspan> with value scores <tspan font-style="italic">x</tspan><tspan font-size="11" baseline-shift="-20%" font-style="italic">jk</tspan> in [0,1] and judge scores <tspan font-style="italic">s</tspan><tspan font-size="11" baseline-shift="-20%" font-style="italic">jk</tspan>;  the judge keeps two.</text>
<line x1="66" y1="118" x2="1140" y2="118" stroke="#6b7684" stroke-width="1" opacity="0.35"/>
<text x="66" y="192.0" font-size="21" font-weight="bold" fill="#1a1a1a" font-family="Helvetica, Arial, sans-serif">spread</text>
<text x="300" y="192.0" font-size="27" font-weight="bold" font-style="italic" fill="#2867b5" text-anchor="middle" font-family="Helvetica, Arial, sans-serif">σ</text>
<text x="402.0" y="192.0" font-size="23.00" fill="#1a1a1a" font-weight="normal" font-style="italic" text-anchor="start" font-family="Helvetica, Arial, sans-serif">σ</text>
<text x="414.9" y="198.9" font-size="15.18" fill="#1a1a1a" font-weight="normal" font-style="italic" text-anchor="start" font-family="Helvetica, Arial, sans-serif">j</text>
<text x="428.4" y="192.0" font-size="23.00" fill="#1a1a1a" font-weight="normal" text-anchor="start" font-family="Helvetica, Arial, sans-serif">=</text>
<path d="M 450.4 185.1 L 457.3 198.9 L 464.6 162.1 L 706.9 162.1" fill="none" stroke="#1a1a1a" stroke-width="2" stroke-linejoin="round" stroke-linecap="round"/>
<text x="469.6" y="192.0" font-size="23.00" fill="#1a1a1a" font-weight="normal" text-anchor="start" font-family="Helvetica, Arial, sans-serif">(</text>
<text x="482.5" y="192.0" font-size="23.00" fill="#1a1a1a" font-weight="normal" text-anchor="start" font-family="Helvetica, Arial, sans-serif">1/</text>
<text x="508.3" y="192.0" font-size="23.00" fill="#1a1a1a" font-weight="normal" font-style="italic" text-anchor="start" font-family="Helvetica, Arial, sans-serif">n</text>
<text x="521.2" y="198.9" font-size="15.18" fill="#1a1a1a" font-weight="normal" font-style="italic" text-anchor="start" font-family="Helvetica, Arial, sans-serif">j</text>
<text x="529.7" y="192.0" font-size="23.00" fill="#1a1a1a" font-weight="normal" text-anchor="start" font-family="Helvetica, Arial, sans-serif">)</text>
<text x="550.5" y="192.0" font-size="23.00" fill="#1a1a1a" font-weight="normal" text-anchor="start" font-family="Helvetica, Arial, sans-serif">·</text>
<text x="571.4" y="192.0" font-size="29.90" fill="#1a1a1a" font-weight="normal" text-anchor="start" font-family="Helvetica, Arial, sans-serif">Σ</text>
<text x="580.4" y="205.8" font-size="13.80" fill="#1a1a1a" font-weight="middle" text-anchor="start" font-family="Helvetica, Arial, sans-serif">k</text>
<text x="595.4" y="192.0" font-size="23.00" fill="#1a1a1a" font-weight="normal" text-anchor="start" font-family="Helvetica, Arial, sans-serif">(</text>
<text x="608.2" y="192.0" font-size="23.00" fill="#1a1a1a" font-weight="normal" font-style="italic" text-anchor="start" font-family="Helvetica, Arial, sans-serif">x</text>
<text x="621.1" y="198.9" font-size="15.18" fill="#1a1a1a" font-weight="normal" font-style="italic" text-anchor="start" font-family="Helvetica, Arial, sans-serif">jk</text>
<text x="643.2" y="192.0" font-size="23.00" fill="#1a1a1a" font-weight="normal" text-anchor="start" font-family="Helvetica, Arial, sans-serif">−</text>
<text x="661.1" y="192.0" font-size="23.00" fill="#1a1a1a" font-weight="normal" font-style="italic" text-anchor="start" font-family="Helvetica, Arial, sans-serif">x</text>
<line x1="661.1" y1="174.1" x2="674.0" y2="174.1" stroke="#1a1a1a" stroke-width="1.7"/>
<text x="674.0" y="198.9" font-size="15.18" fill="#1a1a1a" font-weight="normal" font-style="italic" text-anchor="start" font-family="Helvetica, Arial, sans-serif">j</text>
<text x="682.5" y="192.0" font-size="23.00" fill="#1a1a1a" font-weight="normal" text-anchor="start" font-family="Helvetica, Arial, sans-serif">)</text>
<text x="695.4" y="181.4" font-size="15.18" fill="#1a1a1a" font-weight="normal" text-anchor="start" font-family="Helvetica, Arial, sans-serif">2</text>
<text x="402" y="222.0" font-size="15" fill="#6b7684" font-family="Helvetica, Arial, sans-serif">per prompt: standard deviation of the candidate value scores (divide by nⱼ, the population convention).</text>
<text x="402" y="242.0" font-size="15" fill="#6b7684" font-family="Helvetica, Arial, sans-serif">The round's σ is the mean over prompts of σⱼ — each prompt's pool is measured on its own,</text>
<text x="402" y="262.0" font-size="15" fill="#6b7684" font-family="Helvetica, Arial, sans-serif">and every prompt counts equally.</text>
<line x1="66" y1="284.0" x2="1140" y2="284.0" stroke="#6b7684" stroke-width="1" opacity="0.22"/>
<text x="66" y="344.0" font-size="21" font-weight="bold" fill="#1a1a1a" font-family="Helvetica, Arial, sans-serif">agreement</text>
<text x="300" y="344.0" font-size="27" font-weight="bold" font-style="italic" fill="#2867b5" text-anchor="middle" font-family="Helvetica, Arial, sans-serif">ρ</text>
<text x="402.0" y="344.0" font-size="23.00" fill="#1a1a1a" font-weight="normal" font-style="italic" text-anchor="start" font-family="Helvetica, Arial, sans-serif">ρ</text>
<text x="414.9" y="350.9" font-size="15.18" fill="#1a1a1a" font-weight="normal" font-style="italic" text-anchor="start" font-family="Helvetica, Arial, sans-serif">j</text>
<text x="428.4" y="344.0" font-size="23.00" fill="#1a1a1a" font-weight="normal" text-anchor="start" font-family="Helvetica, Arial, sans-serif">=</text>
<text x="446.4" y="344.0" font-size="23.00" fill="#1a1a1a" font-weight="normal" text-anchor="start" font-family="Helvetica, Arial, sans-serif">corr</text>
<text x="497.9" y="344.0" font-size="23.00" fill="#1a1a1a" font-weight="normal" text-anchor="start" font-family="Helvetica, Arial, sans-serif">(</text>
<text x="510.8" y="344.0" font-size="23.00" fill="#1a1a1a" font-weight="normal" font-style="italic" text-anchor="start" font-family="Helvetica, Arial, sans-serif">s</text>
<text x="523.7" y="350.9" font-size="15.18" fill="#1a1a1a" font-weight="normal" font-style="italic" text-anchor="start" font-family="Helvetica, Arial, sans-serif">j·</text>
<text x="540.7" y="344.0" font-size="23.00" fill="#1a1a1a" font-weight="normal" text-anchor="start" font-family="Helvetica, Arial, sans-serif">,</text>
<text x="558.5" y="344.0" font-size="23.00" fill="#1a1a1a" font-weight="normal" font-style="italic" text-anchor="start" font-family="Helvetica, Arial, sans-serif">x</text>
<text x="571.4" y="350.9" font-size="15.18" fill="#1a1a1a" font-weight="normal" font-style="italic" text-anchor="start" font-family="Helvetica, Arial, sans-serif">j·</text>
<text x="588.4" y="344.0" font-size="23.00" fill="#1a1a1a" font-weight="normal" text-anchor="start" font-family="Helvetica, Arial, sans-serif">)</text>
<text x="402" y="374.0" font-size="15" fill="#6b7684" font-family="Helvetica, Arial, sans-serif">per prompt: Pearson correlation, within the prompt, between judge score and value.</text>
<text x="402" y="394.0" font-size="15" fill="#6b7684" font-family="Helvetica, Arial, sans-serif">Round ρ = mean over prompts of ρⱼ (both sides must vary); range −1 (against) to +1 (with the value).</text>
<text x="402" y="414.0" font-size="15" fill="#6b7684" font-family="Helvetica, Arial, sans-serif">The judge score sⱼₖ is the judge's measured preference for answer k — the probability it picks k in</text>
<text x="402" y="434.0" font-size="15" fill="#6b7684" font-family="Helvetica, Arial, sans-serif">the A-or-B comparisons, against the fixed reference answer or each duel opponent, averaged.</text>
<text x="402" y="454.0" font-size="15" fill="#6b7684" font-family="Helvetica, Arial, sans-serif">(The score oracle's s is the value score itself.)</text>
<line x1="66" y1="464.0" x2="1140" y2="464.0" stroke="#6b7684" stroke-width="1" opacity="0.22"/>
<text x="66" y="528.0" font-size="21" font-weight="bold" fill="#1a1a1a" font-family="Helvetica, Arial, sans-serif">selector gap</text>
<text x="300" y="528.0" font-size="27" font-weight="bold" font-style="italic" fill="#2867b5" text-anchor="middle" font-family="Helvetica, Arial, sans-serif">g</text>
<text x="402.0" y="528.0" font-size="23.00" fill="#1a1a1a" font-weight="normal" font-style="italic" text-anchor="start" font-family="Helvetica, Arial, sans-serif">g</text>
<text x="419.9" y="528.0" font-size="23.00" fill="#1a1a1a" font-weight="normal" text-anchor="start" font-family="Helvetica, Arial, sans-serif">=</text>
<text x="437.9" y="528.0" font-size="23.00" fill="#1a1a1a" font-weight="normal" font-style="italic" text-anchor="start" font-family="Helvetica, Arial, sans-serif">k</text>
<text x="455.8" y="528.0" font-size="23.00" fill="#1a1a1a" font-weight="normal" text-anchor="start" font-family="Helvetica, Arial, sans-serif">−</text>
<text x="473.8" y="528.0" font-size="23.00" fill="#1a1a1a" font-weight="normal" font-style="italic" text-anchor="start" font-family="Helvetica, Arial, sans-serif">p</text>
<text x="545" y="482.0" font-size="15" fill="#6b7684" font-family="Helvetica, Arial, sans-serif">kept mean k minus pool mean p.  p averages every candidate in the pool — the</text>
<text x="545" y="502.0" font-size="15" fill="#6b7684" font-family="Helvetica, Arial, sans-serif">organism's own candidates plus any outside-source candidates, everything eligible</text>
<text x="545" y="522.0" font-size="15" fill="#6b7684" font-family="Helvetica, Arial, sans-serif">to be kept and trained on. The alternative source's answer is shown to the judge</text>
<text x="545" y="542.0" font-size="15" fill="#6b7684" font-family="Helvetica, Arial, sans-serif">as a comparison standard only: it is never in the pool and never kept.</text>
<text x="545" y="562.0" font-size="15" fill="#6b7684" font-family="Helvetica, Arial, sans-serif">(k − q, kept mean minus the organism's own-candidate mean, is the separate</text>
<text x="545" y="582.0" font-size="15" fill="#6b7684" font-family="Helvetica, Arial, sans-serif">training displacement.)    Forecast: g ≈ ρσ, prompt-averaged.</text>
<line x1="66" y1="600" x2="1140" y2="600" stroke="#1a1a1a" stroke-width="1.4" opacity="0.55"/>
<text x="66" y="636" font-size="22" font-weight="bold" fill="#1a1a1a" font-family="Helvetica, Arial, sans-serif">The model these feed</text>
<text x="66" y="664" font-size="15" fill="#6b7684" font-family="Helvetica, Arial, sans-serif">Each round: pool mean <tspan font-style="italic">p</tspan> = (1−<tspan font-style="italic">u</tspan>)<tspan font-style="italic">q</tspan> + <tspan font-style="italic">u</tspan>·<tspan font-style="italic">s</tspan>,  kept mean <tspan font-style="italic">k</tspan> = <tspan font-style="italic">p</tspan> + ρσ,  next <tspan font-style="italic">v</tspan> = <tspan font-style="italic">k</tspan>.  The closed forms are its unclipped solution.</text>
<text x="66" y="710.0" font-size="18" font-weight="bold" fill="#1a1a1a" font-family="Helvetica, Arial, sans-serif">one round</text>
<g transform="translate(401.280 692.565) scale(1.0)" fill="#1a1a1a"><g transform="translate(0.72 17.434844) scale(0.22 -0.22)">
    <defs>
     <path id="m1_Cmmi10-38" d="M 684 722 
Q 684 866 718 1037 
Q 753 1209 787 1320 
Q 822 1431 944 1753 
Q 1066 2075 1069 2088 
Q 1153 2322 1153 2472 
Q 1153 2663 1013 2663 
Q 759 2663 595 2402 
Q 431 2141 353 1819 
Q 341 1778 300 1778 
L 225 1778 
Q 172 1778 172 1838 
L 172 1856 
Q 275 2238 487 2533 
Q 700 2828 1025 2828 
Q 1253 2828 1411 2678 
Q 1569 2528 1569 2297 
Q 1569 2178 1516 2047 
Q 1391 1722 1319 1526 
Q 1247 1331 1186 1089 
Q 1125 847 1125 641 
Q 1125 400 1236 248 
Q 1347 97 1581 97 
Q 2025 97 2381 781 
Q 2494 1003 2594 1303 
Q 2694 1603 2694 1791 
Q 2694 1984 2631 2092 
Q 2569 2200 2469 2317 
Q 2369 2434 2369 2503 
Q 2369 2628 2472 2731 
Q 2575 2834 2700 2834 
Q 2853 2834 2920 2693 
Q 2988 2553 2988 2375 
Q 2988 2163 2927 1869 
Q 2866 1575 2758 1259 
Q 2650 944 2559 763 
Q 2138 -72 1575 -72 
Q 1172 -72 928 129 
Q 684 331 684 722 
z
" transform="scale(0.015625)"/>
     <path id="m1_Cmmi10-84" d="M 494 109 
Q 494 147 500 166 
L 978 2075 
Q 1025 2253 1025 2388 
Q 1025 2663 838 2663 
Q 638 2663 541 2423 
Q 444 2184 353 1819 
Q 353 1800 334 1789 
Q 316 1778 300 1778 
L 225 1778 
Q 203 1778 187 1801 
Q 172 1825 172 1844 
Q 241 2122 305 2315 
Q 369 2509 505 2668 
Q 641 2828 844 2828 
Q 1066 2828 1233 2700 
Q 1400 2572 1441 2363 
Q 1603 2575 1811 2701 
Q 2019 2828 2266 2828 
Q 2469 2828 2623 2709 
Q 2778 2591 2778 2388 
Q 2778 2225 2676 2104 
Q 2575 1984 2406 1984 
Q 2303 1984 2233 2048 
Q 2163 2113 2163 2216 
Q 2163 2356 2266 2467 
Q 2369 2578 2503 2578 
Q 2400 2663 2253 2663 
Q 1978 2663 1775 2467 
Q 1572 2272 1409 1972 
L 953 141 
Q 931 53 854 -9 
Q 778 -72 684 -72 
Q 606 -72 550 -22 
Q 494 28 494 109 
z
" transform="scale(0.015625)"/>
     <path id="m1_Cmr10-4c" d="M 481 1472 
Q 428 1472 393 1512 
Q 359 1553 359 1600 
Q 359 1647 393 1687 
Q 428 1728 481 1728 
L 2363 1728 
L 2363 3616 
Q 2363 3666 2400 3698 
Q 2438 3731 2491 3731 
Q 2538 3731 2578 3698 
Q 2619 3666 2619 3616 
L 2619 1728 
L 4500 1728 
Q 4547 1728 4581 1687 
Q 4616 1647 4616 1600 
Q 4616 1553 4581 1512 
Q 4547 1472 4500 1472 
L 2619 1472 
L 2619 -416 
Q 2619 -466 2578 -498 
Q 2538 -531 2491 -531 
Q 2438 -531 2400 -498 
Q 2363 -466 2363 -416 
L 2363 1472 
L 481 1472 
z
" transform="scale(0.015625)"/>
     <path id="m1_Cmr10-64" d="M 594 0 
L 594 225 
Q 1394 225 1394 428 
L 1394 3788 
Q 1063 3628 556 3628 
L 556 3853 
Q 1341 3853 1741 4263 
L 1831 4263 
Q 1853 4263 1873 4245 
Q 1894 4228 1894 4206 
L 1894 428 
Q 1894 225 2694 225 
L 2694 0 
L 594 0 
z
" transform="scale(0.015625)"/>
     <path id="m1_Cmr10-29" d="M 481 850 
Q 428 850 393 890 
Q 359 931 359 978 
Q 359 1031 393 1068 
Q 428 1106 481 1106 
L 4500 1106 
Q 4547 1106 4581 1068 
Q 4616 1031 4616 978 
Q 4616 931 4581 890 
Q 4547 850 4500 850 
L 481 850 
z
M 481 2094 
Q 428 2094 393 2131 
Q 359 2169 359 2222 
Q 359 2269 393 2309 
Q 428 2350 481 2350 
L 4500 2350 
Q 4547 2350 4581 2309 
Q 4616 2269 4616 2222 
Q 4616 2169 4581 2131 
Q 4547 2094 4500 2094 
L 481 2094 
z
" transform="scale(0.015625)"/>
     <path id="m1_Cmr10-7b" d="M 1594 -72 
Q 1206 -72 890 129 
Q 575 331 394 667 
Q 213 1003 213 1381 
Q 213 1759 392 2106 
Q 572 2453 889 2661 
Q 1206 2869 1594 2869 
Q 1969 2869 2276 2722 
Q 2584 2575 2584 2241 
Q 2584 2116 2495 2023 
Q 2406 1931 2278 1931 
Q 2150 1931 2061 2023 
Q 1972 2116 1972 2241 
Q 1972 2353 2044 2436 
Q 2116 2519 2222 2541 
Q 2000 2681 1600 2681 
Q 1294 2681 1106 2478 
Q 919 2275 844 1975 
Q 769 1675 769 1381 
Q 769 1072 861 783 
Q 953 494 1158 305 
Q 1363 116 1672 116 
Q 1975 116 2187 302 
Q 2400 488 2478 788 
Q 2478 825 2528 825 
L 2606 825 
Q 2625 825 2640 808 
Q 2656 791 2656 769 
L 2656 750 
Q 2559 372 2271 150 
Q 1984 -72 1594 -72 
z
" transform="scale(0.015625)"/>
     <path id="m1_Cmr10-6a" d="M 197 0 
L 197 225 
Q 416 225 556 259 
Q 697 294 697 428 
L 697 3788 
Q 697 3959 645 4036 
Q 594 4113 497 4130 
Q 400 4147 197 4147 
L 197 4372 
L 1147 4441 
L 1147 428 
Q 1147 294 1287 259 
Q 1428 225 1644 225 
L 1644 0 
L 197 0 
z
" transform="scale(0.015625)"/>
     <path id="m1_Cmr10-24" d="M 197 0 
L 197 225 
Q 416 225 556 259 
Q 697 294 697 428 
L 697 2175 
Q 697 2422 601 2478 
Q 506 2534 225 2534 
L 225 2759 
L 1147 2828 
L 1147 428 
Q 1147 294 1269 259 
Q 1391 225 1594 225 
L 1594 0 
L 197 0 
z
M 469 3928 
Q 469 4069 575 4175 
Q 681 4281 819 4281 
Q 909 4281 993 4234 
Q 1078 4188 1125 4103 
Q 1172 4019 1172 3928 
Q 1172 3791 1065 3684 
Q 959 3578 819 3578 
Q 681 3578 575 3684 
Q 469 3791 469 3928 
z
" transform="scale(0.015625)"/>
     <path id="m1_Cmr10-7d" d="M 166 -1241 
L 166 -1019 
Q 384 -1019 525 -981 
Q 666 -944 666 -813 
L 666 2272 
Q 666 2447 541 2490 
Q 416 2534 166 2534 
L 166 2759 
L 1113 2828 
L 1113 2431 
Q 1288 2625 1520 2726 
Q 1753 2828 2016 2828 
Q 2394 2828 2697 2623 
Q 3000 2419 3170 2086 
Q 3341 1753 3341 1381 
Q 3341 994 3152 659 
Q 2963 325 2636 126 
Q 2309 -72 1919 -72 
Q 1453 -72 1131 306 
L 1131 -813 
Q 1131 -944 1273 -981 
Q 1416 -1019 1631 -1019 
L 1631 -1241 
L 166 -1241 
z
M 1131 622 
Q 1244 394 1444 245 
Q 1644 97 1881 97 
Q 2103 97 2273 215 
Q 2444 334 2559 534 
Q 2675 734 2729 954 
Q 2784 1175 2784 1381 
Q 2784 1638 2692 1936 
Q 2600 2234 2411 2439 
Q 2222 2644 1953 2644 
Q 1694 2644 1476 2511 
Q 1259 2378 1131 2150 
L 1131 622 
z
" transform="scale(0.015625)"/>
     <path id="m1_Cmr10-77" d="M 1984 -1588 
Q 1628 -1306 1370 -942 
Q 1113 -578 948 -165 
Q 784 247 703 697 
Q 622 1147 622 1600 
Q 622 2059 703 2509 
Q 784 2959 951 3375 
Q 1119 3791 1378 4153 
Q 1638 4516 1984 4788 
Q 1984 4800 2016 4800 
L 2075 4800 
Q 2094 4800 2109 4783 
Q 2125 4766 2125 4744 
Q 2125 4716 2113 4703 
Q 1800 4397 1592 4047 
Q 1384 3697 1257 3301 
Q 1131 2906 1075 2482 
Q 1019 2059 1019 1600 
Q 1019 -434 2106 -1491 
Q 2125 -1509 2125 -1544 
Q 2125 -1559 2108 -1579 
Q 2091 -1600 2075 -1600 
L 2016 -1600 
Q 1984 -1600 1984 -1588 
z
" transform="scale(0.015625)"/>
     <path id="m1_Cmsy10-11" d="M 653 1472 
Q 600 1472 565 1512 
Q 531 1553 531 1600 
Q 531 1647 565 1687 
Q 600 1728 653 1728 
L 4325 1728 
Q 4375 1728 4408 1687 
Q 4441 1647 4441 1600 
Q 4441 1553 4408 1512 
Q 4375 1472 4325 1472 
L 653 1472 
z
" transform="scale(0.015625)"/>
     <path id="m1_Cmmi10-60" d="M 678 697 
Q 678 906 734 1126 
Q 791 1347 892 1617 
Q 994 1888 1069 2088 
Q 1153 2322 1153 2472 
Q 1153 2663 1013 2663 
Q 759 2663 595 2402 
Q 431 2141 353 1819 
Q 341 1778 300 1778 
L 225 1778 
Q 172 1778 172 1838 
L 172 1856 
Q 275 2238 487 2533 
Q 700 2828 1025 2828 
Q 1253 2828 1411 2678 
Q 1569 2528 1569 2297 
Q 1569 2178 1516 2047 
Q 1488 1969 1388 1706 
Q 1288 1444 1234 1272 
Q 1181 1100 1147 934 
Q 1113 769 1113 603 
Q 1113 391 1203 244 
Q 1294 97 1497 97 
Q 1906 97 2216 603 
Q 2222 628 2226 651 
Q 2231 675 2234 697 
L 2694 2553 
Q 2716 2638 2794 2698 
Q 2872 2759 2963 2759 
Q 3041 2759 3098 2709 
Q 3156 2659 3156 2578 
Q 3156 2541 3150 2528 
L 2688 684 
Q 2644 494 2644 372 
Q 2644 97 2828 97 
Q 3034 97 3136 351 
Q 3238 606 3309 941 
Q 3322 978 3359 978 
L 3438 978 
Q 3463 978 3478 956 
Q 3494 934 3494 916 
Q 3425 641 3361 444 
Q 3297 247 3159 87 
Q 3022 -72 2816 -72 
Q 2613 -72 2452 39 
Q 2291 150 2234 341 
Q 2088 153 1894 40 
Q 1700 -72 1484 -72 
Q 1116 -72 897 129 
Q 678 331 678 697 
z
" transform="scale(0.015625)"/>
     <path id="m1_Cmr10-44" d="M 416 -1600 
Q 359 -1600 359 -1544 
Q 359 -1516 372 -1503 
Q 1466 -434 1466 1600 
Q 1466 3634 384 4691 
Q 359 4706 359 4744 
Q 359 4766 376 4783 
Q 394 4800 416 4800 
L 475 4800 
Q 494 4800 506 4788 
Q 966 4425 1272 3906 
Q 1578 3388 1720 2800 
Q 1863 2213 1863 1600 
Q 1863 1147 1786 708 
Q 1709 269 1542 -157 
Q 1375 -584 1119 -945 
Q 863 -1306 506 -1588 
Q 494 -1600 475 -1600 
L 416 -1600 
z
" transform="scale(0.015625)"/>
     <path id="m1_Cmmi10-58" d="M 556 391 
Q 728 97 1247 97 
Q 1472 97 1675 173 
Q 1878 250 2011 403 
Q 2144 556 2144 775 
Q 2144 941 2025 1047 
Q 1906 1153 1734 1191 
L 1388 1259 
Q 1150 1319 997 1481 
Q 844 1644 844 1875 
Q 844 2159 998 2378 
Q 1153 2597 1406 2712 
Q 1659 2828 1931 2828 
Q 2222 2828 2451 2689 
Q 2681 2550 2681 2278 
Q 2681 2131 2598 2018 
Q 2516 1906 2369 1906 
Q 2284 1906 2223 1961 
Q 2163 2016 2163 2100 
Q 2163 2175 2205 2245 
Q 2247 2316 2317 2358 
Q 2388 2400 2463 2400 
Q 2406 2538 2251 2600 
Q 2097 2663 1919 2663 
Q 1756 2663 1593 2597 
Q 1431 2531 1332 2404 
Q 1234 2278 1234 2106 
Q 1234 1991 1315 1903 
Q 1397 1816 1516 1778 
L 1888 1703 
Q 2066 1666 2214 1570 
Q 2363 1475 2448 1329 
Q 2534 1184 2534 997 
Q 2534 759 2401 528 
Q 2269 297 2075 159 
Q 1734 -72 1241 -72 
Q 900 -72 615 84 
Q 331 241 331 550 
Q 331 725 432 854 
Q 534 984 709 984 
Q 813 984 883 921 
Q 953 859 953 756 
Q 953 609 843 500 
Q 734 391 588 391 
L 556 391 
z
" transform="scale(0.015625)"/>
     <path id="m1_Cmmi10-27" d="M 178 -1203 
Q 178 -1166 184 -1153 
L 819 1403 
Q 909 1747 1129 2076 
Q 1350 2406 1662 2617 
Q 1975 2828 2322 2828 
Q 2600 2828 2808 2683 
Q 3016 2538 3120 2302 
Q 3225 2066 3225 1784 
Q 3225 1475 3098 1144 
Q 2972 813 2748 538 
Q 2525 263 2234 95 
Q 1944 -72 1625 -72 
Q 1438 -72 1272 39 
Q 1106 150 1013 331 
L 634 -1178 
Q 616 -1269 541 -1325 
Q 466 -1381 372 -1381 
Q 294 -1381 236 -1332 
Q 178 -1284 178 -1203 
z
M 1638 97 
Q 1978 97 2229 445 
Q 2481 794 2614 1264 
Q 2747 1734 2747 2059 
Q 2747 2303 2640 2483 
Q 2534 2663 2309 2663 
Q 2031 2663 1818 2452 
Q 1606 2241 1478 1956 
Q 1350 1672 1269 1363 
L 1094 647 
Q 1134 416 1276 256 
Q 1419 97 1638 97 
z
" transform="scale(0.015625)"/>
     <path id="m1_Cmmi10-15" d="M 1197 -72 
Q 913 -72 692 64 
Q 472 200 351 431 
Q 231 663 231 941 
Q 231 1238 365 1566 
Q 500 1894 733 2166 
Q 966 2438 1259 2598 
Q 1553 2759 1863 2759 
L 3475 2759 
Q 3541 2759 3587 2715 
Q 3634 2672 3634 2597 
Q 3634 2503 3567 2433 
Q 3500 2363 3406 2363 
L 2625 2363 
Q 2809 2088 2809 1697 
Q 2809 1375 2684 1062 
Q 2559 750 2337 492 
Q 2116 234 1820 81 
Q 1525 -72 1197 -72 
z
M 1203 97 
Q 1553 97 1823 370 
Q 2094 644 2237 1039 
Q 2381 1434 2381 1772 
Q 2381 2047 2229 2205 
Q 2078 2363 1806 2363 
Q 1434 2363 1173 2113 
Q 913 1863 783 1484 
Q 653 1106 653 756 
Q 653 481 798 289 
Q 944 97 1203 97 
z
" transform="scale(0.015625)"/>
     <path id="m1_Cmmi10-2c" d="M 634 -1153 
Q 634 -1125 659 -1100 
Q 891 -878 1019 -587 
Q 1147 -297 1147 25 
L 1147 103 
Q 1044 0 891 0 
Q 744 0 641 103 
Q 538 206 538 353 
Q 538 503 641 603 
Q 744 703 891 703 
Q 1119 703 1216 492 
Q 1313 281 1313 25 
Q 1313 -331 1170 -651 
Q 1028 -972 769 -1228 
Q 744 -1241 728 -1241 
Q 697 -1241 665 -1212 
Q 634 -1184 634 -1153 
z
" transform="scale(0.015625)"/>
     <path id="m1_Cmr10-28" d="M 1600 -141 
Q 816 -141 533 504 
Q 250 1150 250 2041 
Q 250 2597 351 3087 
Q 453 3578 754 3920 
Q 1056 4263 1600 4263 
Q 2022 4263 2290 4056 
Q 2559 3850 2700 3523 
Q 2841 3197 2892 2823 
Q 2944 2450 2944 2041 
Q 2944 1491 2842 1011 
Q 2741 531 2444 195 
Q 2147 -141 1600 -141 
z
M 1600 25 
Q 1956 25 2131 390 
Q 2306 756 2347 1200 
Q 2388 1644 2388 2144 
Q 2388 2625 2347 3031 
Q 2306 3438 2132 3767 
Q 1959 4097 1600 4097 
Q 1238 4097 1063 3765 
Q 888 3434 847 3029 
Q 806 2625 806 2144 
Q 806 1788 823 1472 
Q 841 1156 916 820 
Q 991 484 1158 254 
Q 1325 25 1600 25 
z
" transform="scale(0.015625)"/>
    </defs>
    <use xlink:href="#m1_Cmmi10-38"/>
    <use xlink:href="#m1_Cmmi10-84" transform="translate(48.388672 -14.999962) scale(0.7)"/>
    <use xlink:href="#m1_Cmr10-4c" transform="translate(93.970743 -14.999962) scale(0.7)"/>
    <use xlink:href="#m1_Cmr10-64" transform="translate(162.350666 -14.999962) scale(0.7)"/>
    <use xlink:href="#m1_Cmr10-29" transform="translate(223.071139 0)"/>
    <use xlink:href="#m1_Cmr10-7b" transform="translate(320.756743 0)"/>
    <use xlink:href="#m1_Cmr10-6a" transform="translate(365.141508 0)"/>
    <use xlink:href="#m1_Cmr10-24" transform="translate(392.827055 0)"/>
    <use xlink:href="#m1_Cmr10-7d" transform="translate(420.512602 0)"/>
    <use xlink:href="#m1_Cmr10-77" transform="translate(476.03018 0)"/>
    <use xlink:href="#m1_Cmr10-77" transform="translate(514.84854 0)"/>
    <use xlink:href="#m1_Cmr10-64" transform="translate(553.666899 0)"/>
    <use xlink:href="#m1_Cmsy10-11" transform="translate(623.666956 0)"/>
    <use xlink:href="#m1_Cmmi10-60" transform="translate(721.35256 0)"/>
    <use xlink:href="#m1_Cmr10-44" transform="translate(778.530295 0)"/>
    <use xlink:href="#m1_Cmmi10-38" transform="translate(834.015702 0)"/>
    <use xlink:href="#m1_Cmmi10-84" transform="translate(882.404374 -14.999962) scale(0.7)"/>
    <use xlink:href="#m1_Cmr10-4c" transform="translate(939.706878 0)"/>
    <use xlink:href="#m1_Cmmi10-60" transform="translate(1037.392482 0)"/>
    <use xlink:href="#m1_Cmmi10-58" transform="translate(1111.237264 0)"/>
    <use xlink:href="#m1_Cmr10-4c" transform="translate(1178.014665 0)"/>
    <use xlink:href="#m1_Cmmi10-27" transform="translate(1275.700269 0)"/>
    <use xlink:href="#m1_Cmmi10-15" transform="translate(1327.409253 0)"/>
    <use xlink:href="#m1_Cmmi10-2c" transform="translate(1384.489331 0)"/>
    <use xlink:href="#m1_Cmr10-28" transform="translate(1465.508031 0)"/>
    <use xlink:href="#m1_Cmmi10-2c" transform="translate(1515.508031 0)"/>
    <use xlink:href="#m1_Cmr10-64" transform="translate(1596.52673 0)"/>
    <use xlink:href="#m1_Cmr10-44" transform="translate(1646.52673 0)"/>
   </g></g>
<text x="402" y="736.0" font-size="15" fill="#6b7684" font-family="Helvetica, Arial, sans-serif">outside-source share u at level s; σ and ρ are measured once, at round 1.</text>
<text x="66" y="774.0" font-size="18" font-weight="bold" fill="#1a1a1a" font-family="Helvetica, Arial, sans-serif">iterated</text>
<text x="66" y="794.0" font-size="14.5" fill="#6b7684" font-family="Helvetica, Arial, sans-serif">(mixed pool)</text>
<g transform="translate(401.280 756.565) scale(1.0)" fill="#1a1a1a"><g transform="translate(0.72 17.434844) scale(0.22 -0.22)">
    <defs>
     <path id="m2_Cmmi10-38" d="M 684 722 
Q 684 866 718 1037 
Q 753 1209 787 1320 
Q 822 1431 944 1753 
Q 1066 2075 1069 2088 
Q 1153 2322 1153 2472 
Q 1153 2663 1013 2663 
Q 759 2663 595 2402 
Q 431 2141 353 1819 
Q 341 1778 300 1778 
L 225 1778 
Q 172 1778 172 1838 
L 172 1856 
Q 275 2238 487 2533 
Q 700 2828 1025 2828 
Q 1253 2828 1411 2678 
Q 1569 2528 1569 2297 
Q 1569 2178 1516 2047 
Q 1391 1722 1319 1526 
Q 1247 1331 1186 1089 
Q 1125 847 1125 641 
Q 1125 400 1236 248 
Q 1347 97 1581 97 
Q 2025 97 2381 781 
Q 2494 1003 2594 1303 
Q 2694 1603 2694 1791 
Q 2694 1984 2631 2092 
Q 2569 2200 2469 2317 
Q 2369 2434 2369 2503 
Q 2369 2628 2472 2731 
Q 2575 2834 2700 2834 
Q 2853 2834 2920 2693 
Q 2988 2553 2988 2375 
Q 2988 2163 2927 1869 
Q 2866 1575 2758 1259 
Q 2650 944 2559 763 
Q 2138 -72 1575 -72 
Q 1172 -72 928 129 
Q 684 331 684 722 
z
" transform="scale(0.015625)"/>
     <path id="m2_Cmmi10-84" d="M 494 109 
Q 494 147 500 166 
L 978 2075 
Q 1025 2253 1025 2388 
Q 1025 2663 838 2663 
Q 638 2663 541 2423 
Q 444 2184 353 1819 
Q 353 1800 334 1789 
Q 316 1778 300 1778 
L 225 1778 
Q 203 1778 187 1801 
Q 172 1825 172 1844 
Q 241 2122 305 2315 
Q 369 2509 505 2668 
Q 641 2828 844 2828 
Q 1066 2828 1233 2700 
Q 1400 2572 1441 2363 
Q 1603 2575 1811 2701 
Q 2019 2828 2266 2828 
Q 2469 2828 2623 2709 
Q 2778 2591 2778 2388 
Q 2778 2225 2676 2104 
Q 2575 1984 2406 1984 
Q 2303 1984 2233 2048 
Q 2163 2113 2163 2216 
Q 2163 2356 2266 2467 
Q 2369 2578 2503 2578 
Q 2400 2663 2253 2663 
Q 1978 2663 1775 2467 
Q 1572 2272 1409 1972 
L 953 141 
Q 931 53 854 -9 
Q 778 -72 684 -72 
Q 606 -72 550 -22 
Q 494 28 494 109 
z
" transform="scale(0.015625)"/>
     <path id="m2_Cmr10-29" d="M 481 850 
Q 428 850 393 890 
Q 359 931 359 978 
Q 359 1031 393 1068 
Q 428 1106 481 1106 
L 4500 1106 
Q 4547 1106 4581 1068 
Q 4616 1031 4616 978 
Q 4616 931 4581 890 
Q 4547 850 4500 850 
L 481 850 
z
M 481 2094 
Q 428 2094 393 2131 
Q 359 2169 359 2222 
Q 359 2269 393 2309 
Q 428 2350 481 2350 
L 4500 2350 
Q 4547 2350 4581 2309 
Q 4616 2269 4616 2222 
Q 4616 2169 4581 2131 
Q 4547 2094 4500 2094 
L 481 2094 
z
" transform="scale(0.015625)"/>
     <path id="m2_Cmsy10-9" d="M 603 813 
Q 531 813 473 873 
Q 416 934 416 1006 
Q 416 1116 506 1159 
L 1428 1600 
L 506 2034 
Q 416 2072 416 2188 
Q 416 2259 473 2320 
Q 531 2381 603 2381 
Q 650 2381 691 2350 
L 1509 1753 
L 1416 2797 
Q 1416 2875 1469 2925 
Q 1522 2975 1600 2975 
Q 1675 2975 1726 2928 
Q 1778 2881 1778 2809 
L 1778 2797 
L 1684 1753 
L 2503 2350 
Q 2544 2381 2591 2381 
Q 2669 2381 2723 2320 
Q 2778 2259 2778 2188 
Q 2778 2072 2688 2034 
L 1766 1600 
L 2688 1159 
Q 2778 1116 2778 1006 
Q 2778 934 2723 873 
Q 2669 813 2591 813 
Q 2544 813 2503 844 
L 1684 1441 
L 1778 403 
L 1778 384 
Q 1778 313 1723 266 
Q 1669 219 1600 219 
Q 1525 219 1470 270 
Q 1416 322 1416 397 
L 1509 1441 
L 691 844 
Q 650 813 603 813 
z
" transform="scale(0.015625)"/>
     <path id="m2_Cmr10-4c" d="M 481 1472 
Q 428 1472 393 1512 
Q 359 1553 359 1600 
Q 359 1647 393 1687 
Q 428 1728 481 1728 
L 2363 1728 
L 2363 3616 
Q 2363 3666 2400 3698 
Q 2438 3731 2491 3731 
Q 2538 3731 2578 3698 
Q 2619 3666 2619 3616 
L 2619 1728 
L 4500 1728 
Q 4547 1728 4581 1687 
Q 4616 1647 4616 1600 
Q 4616 1553 4581 1512 
Q 4547 1472 4500 1472 
L 2619 1472 
L 2619 -416 
Q 2619 -466 2578 -498 
Q 2538 -531 2491 -531 
Q 2438 -531 2400 -498 
Q 2363 -466 2363 -416 
L 2363 1472 
L 481 1472 
z
" transform="scale(0.015625)"/>
     <path id="m2_Cmr10-77" d="M 1984 -1588 
Q 1628 -1306 1370 -942 
Q 1113 -578 948 -165 
Q 784 247 703 697 
Q 622 1147 622 1600 
Q 622 2059 703 2509 
Q 784 2959 951 3375 
Q 1119 3791 1378 4153 
Q 1638 4516 1984 4788 
Q 1984 4800 2016 4800 
L 2075 4800 
Q 2094 4800 2109 4783 
Q 2125 4766 2125 4744 
Q 2125 4716 2113 4703 
Q 1800 4397 1592 4047 
Q 1384 3697 1257 3301 
Q 1131 2906 1075 2482 
Q 1019 2059 1019 1600 
Q 1019 -434 2106 -1491 
Q 2125 -1509 2125 -1544 
Q 2125 -1559 2108 -1579 
Q 2091 -1600 2075 -1600 
L 2016 -1600 
Q 1984 -1600 1984 -1588 
z
" transform="scale(0.015625)"/>
     <path id="m2_Cmr10-64" d="M 594 0 
L 594 225 
Q 1394 225 1394 428 
L 1394 3788 
Q 1063 3628 556 3628 
L 556 3853 
Q 1341 3853 1741 4263 
L 1831 4263 
Q 1853 4263 1873 4245 
Q 1894 4228 1894 4206 
L 1894 428 
Q 1894 225 2694 225 
L 2694 0 
L 594 0 
z
" transform="scale(0.015625)"/>
     <path id="m2_Cmsy10-11" d="M 653 1472 
Q 600 1472 565 1512 
Q 531 1553 531 1600 
Q 531 1647 565 1687 
Q 600 1728 653 1728 
L 4325 1728 
Q 4375 1728 4408 1687 
Q 4441 1647 4441 1600 
Q 4441 1553 4408 1512 
Q 4375 1472 4325 1472 
L 653 1472 
z
" transform="scale(0.015625)"/>
     <path id="m2_Cmmi10-60" d="M 678 697 
Q 678 906 734 1126 
Q 791 1347 892 1617 
Q 994 1888 1069 2088 
Q 1153 2322 1153 2472 
Q 1153 2663 1013 2663 
Q 759 2663 595 2402 
Q 431 2141 353 1819 
Q 341 1778 300 1778 
L 225 1778 
Q 172 1778 172 1838 
L 172 1856 
Q 275 2238 487 2533 
Q 700 2828 1025 2828 
Q 1253 2828 1411 2678 
Q 1569 2528 1569 2297 
Q 1569 2178 1516 2047 
Q 1488 1969 1388 1706 
Q 1288 1444 1234 1272 
Q 1181 1100 1147 934 
Q 1113 769 1113 603 
Q 1113 391 1203 244 
Q 1294 97 1497 97 
Q 1906 97 2216 603 
Q 2222 628 2226 651 
Q 2231 675 2234 697 
L 2694 2553 
Q 2716 2638 2794 2698 
Q 2872 2759 2963 2759 
Q 3041 2759 3098 2709 
Q 3156 2659 3156 2578 
Q 3156 2541 3150 2528 
L 2688 684 
Q 2644 494 2644 372 
Q 2644 97 2828 97 
Q 3034 97 3136 351 
Q 3238 606 3309 941 
Q 3322 978 3359 978 
L 3438 978 
Q 3463 978 3478 956 
Q 3494 934 3494 916 
Q 3425 641 3361 444 
Q 3297 247 3159 87 
Q 3022 -72 2816 -72 
Q 2613 -72 2452 39 
Q 2291 150 2234 341 
Q 2088 153 1894 40 
Q 1700 -72 1484 -72 
Q 1116 -72 897 129 
Q 678 331 678 697 
z
" transform="scale(0.015625)"/>
     <path id="m2_Cmr10-44" d="M 416 -1600 
Q 359 -1600 359 -1544 
Q 359 -1516 372 -1503 
Q 1466 -434 1466 1600 
Q 1466 3634 384 4691 
Q 359 4706 359 4744 
Q 359 4766 376 4783 
Q 394 4800 416 4800 
L 475 4800 
Q 494 4800 506 4788 
Q 966 4425 1272 3906 
Q 1578 3388 1720 2800 
Q 1863 2213 1863 1600 
Q 1863 1147 1786 708 
Q 1709 269 1542 -157 
Q 1375 -584 1119 -945 
Q 863 -1306 506 -1588 
Q 494 -1600 475 -1600 
L 416 -1600 
z
" transform="scale(0.015625)"/>
     <path id="m2_Cmr10-28" d="M 1600 -141 
Q 816 -141 533 504 
Q 250 1150 250 2041 
Q 250 2597 351 3087 
Q 453 3578 754 3920 
Q 1056 4263 1600 4263 
Q 2022 4263 2290 4056 
Q 2559 3850 2700 3523 
Q 2841 3197 2892 2823 
Q 2944 2450 2944 2041 
Q 2944 1491 2842 1011 
Q 2741 531 2444 195 
Q 2147 -141 1600 -141 
z
M 1600 25 
Q 1956 25 2131 390 
Q 2306 756 2347 1200 
Q 2388 1644 2388 2144 
Q 2388 2625 2347 3031 
Q 2306 3438 2132 3767 
Q 1959 4097 1600 4097 
Q 1238 4097 1063 3765 
Q 888 3434 847 3029 
Q 806 2625 806 2144 
Q 806 1788 823 1472 
Q 841 1156 916 820 
Q 991 484 1158 254 
Q 1325 25 1600 25 
z
" transform="scale(0.015625)"/>
     <path id="m2_Cmr10-62" d="M 1416 0 
L 588 2328 
Q 531 2469 425 2501 
Q 319 2534 116 2534 
L 116 2759 
L 1434 2759 
L 1434 2534 
Q 1056 2534 1056 2375 
Q 1059 2366 1061 2356 
Q 1063 2347 1063 2328 
L 1678 603 
L 2209 2106 
L 2125 2328 
Q 2075 2469 1965 2501 
Q 1856 2534 1656 2534 
L 1656 2759 
L 2919 2759 
L 2919 2534 
Q 2541 2534 2541 2375 
Q 2541 2350 2547 2328 
L 3188 525 
L 3769 2156 
Q 3781 2206 3781 2247 
Q 3781 2381 3667 2457 
Q 3553 2534 3413 2534 
L 3413 2759 
L 4500 2759 
L 4500 2534 
Q 4306 2534 4167 2432 
Q 4028 2331 3963 2156 
L 3200 0 
Q 3178 -72 3103 -72 
L 3053 -72 
Q 2978 -72 2956 0 
L 2309 1825 
L 1663 0 
Q 1631 -72 1563 -72 
L 1516 -72 
Q 1438 -72 1416 0 
z
" transform="scale(0.015625)"/>
     <path id="m2_Cmr10-24" d="M 197 0 
L 197 225 
Q 416 225 556 259 
Q 697 294 697 428 
L 697 2175 
Q 697 2422 601 2478 
Q 506 2534 225 2534 
L 225 2759 
L 1147 2828 
L 1147 428 
Q 1147 294 1269 259 
Q 1391 225 1594 225 
L 1594 0 
L 197 0 
z
M 469 3928 
Q 469 4069 575 4175 
Q 681 4281 819 4281 
Q 909 4281 993 4234 
Q 1078 4188 1125 4103 
Q 1172 4019 1172 3928 
Q 1172 3791 1065 3684 
Q 959 3578 819 3578 
Q 681 3578 575 3684 
Q 469 3791 469 3928 
z
" transform="scale(0.015625)"/>
     <path id="m2_Cmr10-1c" d="M 653 769 
L 653 2534 
L 122 2534 
L 122 2700 
Q 541 2700 737 3090 
Q 934 3481 934 3938 
L 1119 3938 
L 1119 2759 
L 2022 2759 
L 2022 2534 
L 1119 2534 
L 1119 781 
Q 1119 516 1208 316 
Q 1297 116 1528 116 
Q 1747 116 1844 327 
Q 1941 538 1941 781 
L 1941 1159 
L 2125 1159 
L 2125 769 
Q 2125 569 2051 373 
Q 1978 178 1834 53 
Q 1691 -72 1484 -72 
Q 1100 -72 876 158 
Q 653 388 653 769 
z
" transform="scale(0.015625)"/>
     <path id="m2_Cmr10-59" d="M 191 0 
L 191 225 
Q 409 225 550 259 
Q 691 294 691 428 
L 691 3788 
Q 691 3959 639 4036 
Q 588 4113 491 4130 
Q 394 4147 191 4147 
L 191 4372 
L 1141 4441 
L 1141 2241 
Q 1275 2506 1515 2667 
Q 1756 2828 2047 2828 
Q 2491 2828 2714 2615 
Q 2938 2403 2938 1966 
L 2938 428 
Q 2938 294 3078 259 
Q 3219 225 3438 225 
L 3438 0 
L 1972 0 
L 1972 225 
Q 2191 225 2331 259 
Q 2472 294 2472 428 
L 2472 1947 
Q 2472 2259 2381 2461 
Q 2291 2663 2009 2663 
Q 1638 2663 1398 2366 
Q 1159 2069 1159 1691 
L 1159 428 
Q 1159 294 1300 259 
Q 1441 225 1656 225 
L 1656 0 
L 191 0 
z
" transform="scale(0.015625)"/>
     <path id="m2_Cmmi10-58" d="M 556 391 
Q 728 97 1247 97 
Q 1472 97 1675 173 
Q 1878 250 2011 403 
Q 2144 556 2144 775 
Q 2144 941 2025 1047 
Q 1906 1153 1734 1191 
L 1388 1259 
Q 1150 1319 997 1481 
Q 844 1644 844 1875 
Q 844 2159 998 2378 
Q 1153 2597 1406 2712 
Q 1659 2828 1931 2828 
Q 2222 2828 2451 2689 
Q 2681 2550 2681 2278 
Q 2681 2131 2598 2018 
Q 2516 1906 2369 1906 
Q 2284 1906 2223 1961 
Q 2163 2016 2163 2100 
Q 2163 2175 2205 2245 
Q 2247 2316 2317 2358 
Q 2388 2400 2463 2400 
Q 2406 2538 2251 2600 
Q 2097 2663 1919 2663 
Q 1756 2663 1593 2597 
Q 1431 2531 1332 2404 
Q 1234 2278 1234 2106 
Q 1234 1991 1315 1903 
Q 1397 1816 1516 1778 
L 1888 1703 
Q 2066 1666 2214 1570 
Q 2363 1475 2448 1329 
Q 2534 1184 2534 997 
Q 2534 759 2401 528 
Q 2269 297 2075 159 
Q 1734 -72 1241 -72 
Q 900 -72 615 84 
Q 331 241 331 550 
Q 331 725 432 854 
Q 534 984 709 984 
Q 813 984 883 921 
Q 953 859 953 756 
Q 953 609 843 500 
Q 734 391 588 391 
L 556 391 
z
" transform="scale(0.015625)"/>
     <path id="m2_Cmmi10-27" d="M 178 -1203 
Q 178 -1166 184 -1153 
L 819 1403 
Q 909 1747 1129 2076 
Q 1350 2406 1662 2617 
Q 1975 2828 2322 2828 
Q 2600 2828 2808 2683 
Q 3016 2538 3120 2302 
Q 3225 2066 3225 1784 
Q 3225 1475 3098 1144 
Q 2972 813 2748 538 
Q 2525 263 2234 95 
Q 1944 -72 1625 -72 
Q 1438 -72 1272 39 
Q 1106 150 1013 331 
L 634 -1178 
Q 616 -1269 541 -1325 
Q 466 -1381 372 -1381 
Q 294 -1381 236 -1332 
Q 178 -1284 178 -1203 
z
M 1638 97 
Q 1978 97 2229 445 
Q 2481 794 2614 1264 
Q 2747 1734 2747 2059 
Q 2747 2303 2640 2483 
Q 2534 2663 2309 2663 
Q 2031 2663 1818 2452 
Q 1606 2241 1478 1956 
Q 1350 1672 1269 1363 
L 1094 647 
Q 1134 416 1276 256 
Q 1419 97 1638 97 
z
" transform="scale(0.015625)"/>
     <path id="m2_Cmmi10-15" d="M 1197 -72 
Q 913 -72 692 64 
Q 472 200 351 431 
Q 231 663 231 941 
Q 231 1238 365 1566 
Q 500 1894 733 2166 
Q 966 2438 1259 2598 
Q 1553 2759 1863 2759 
L 3475 2759 
Q 3541 2759 3587 2715 
Q 3634 2672 3634 2597 
Q 3634 2503 3567 2433 
Q 3500 2363 3406 2363 
L 2625 2363 
Q 2809 2088 2809 1697 
Q 2809 1375 2684 1062 
Q 2559 750 2337 492 
Q 2116 234 1820 81 
Q 1525 -72 1197 -72 
z
M 1203 97 
Q 1553 97 1823 370 
Q 2094 644 2237 1039 
Q 2381 1434 2381 1772 
Q 2381 2047 2229 2205 
Q 2078 2363 1806 2363 
Q 1434 2363 1173 2113 
Q 913 1863 783 1484 
Q 653 1106 653 756 
Q 653 481 798 289 
Q 944 97 1203 97 
z
" transform="scale(0.015625)"/>
     <path id="m2_Cmmi10-62" d="M 359 -1472 
Q 359 -1453 366 -1447 
L 2591 4722 
Q 2603 4759 2634 4779 
Q 2666 4800 2706 4800 
Q 2763 4800 2798 4765 
Q 2834 4731 2834 4672 
L 2834 4647 
L 609 -1522 
Q 572 -1600 488 -1600 
Q 434 -1600 396 -1562 
Q 359 -1525 359 -1472 
z
" transform="scale(0.015625)"/>
    </defs>
    <use xlink:href="#m2_Cmmi10-38"/>
    <use xlink:href="#m2_Cmmi10-84" transform="translate(48.388672 -14.999962) scale(0.7)"/>
    <use xlink:href="#m2_Cmr10-29" transform="translate(105.691176 0)"/>
    <use xlink:href="#m2_Cmmi10-38" transform="translate(203.37678 0)"/>
    <use xlink:href="#m2_Cmsy10-9" transform="translate(263.045321 41.289234) scale(0.7)"/>
    <use xlink:href="#m2_Cmr10-4c" transform="translate(323.765794 0)"/>
    <use xlink:href="#m2_Cmr10-77" transform="translate(421.451398 0)"/>
    <use xlink:href="#m2_Cmr10-64" transform="translate(460.269757 0)"/>
    <use xlink:href="#m2_Cmsy10-11" transform="translate(530.269815 0)"/>
    <use xlink:href="#m2_Cmmi10-60" transform="translate(627.955419 0)"/>
    <use xlink:href="#m2_Cmr10-44" transform="translate(685.133153 0)"/>
    <use xlink:href="#m2_Cmmi10-84" transform="translate(727.955803 41.289234) scale(0.7)"/>
    <use xlink:href="#m2_Cmr10-77" transform="translate(781.925298 0)"/>
    <use xlink:href="#m2_Cmmi10-38" transform="translate(820.743657 0)"/>
    <use xlink:href="#m2_Cmr10-28" transform="translate(869.132329 -14.999962) scale(0.7)"/>
    <use xlink:href="#m2_Cmsy10-11" transform="translate(929.852802 0)"/>
    <use xlink:href="#m2_Cmmi10-38" transform="translate(1027.538406 0)"/>
    <use xlink:href="#m2_Cmsy10-9" transform="translate(1087.206947 41.289234) scale(0.7)"/>
    <use xlink:href="#m2_Cmr10-44" transform="translate(1127.927362 0)"/>
    <use xlink:href="#m2_Cmr10-62" transform="translate(1266.746008 0)"/>
    <use xlink:href="#m2_Cmr10-24" transform="translate(1338.962805 0)"/>
    <use xlink:href="#m2_Cmr10-1c" transform="translate(1366.648352 0)"/>
    <use xlink:href="#m2_Cmr10-59" transform="translate(1405.466711 0)"/>
    <use xlink:href="#m2_Cmmi10-38" transform="translate(1560.984575 0)"/>
    <use xlink:href="#m2_Cmsy10-9" transform="translate(1620.653116 41.289234) scale(0.7)"/>
    <use xlink:href="#m2_Cmr10-29" transform="translate(1681.373589 0)"/>
    <use xlink:href="#m2_Cmmi10-58" transform="translate(1779.059193 0)"/>
    <use xlink:href="#m2_Cmr10-4c" transform="translate(1845.836594 0)"/>
    <use xlink:href="#m2_Cmmi10-27" transform="translate(1943.522198 0)"/>
    <use xlink:href="#m2_Cmmi10-15" transform="translate(1995.231183 0)"/>
    <use xlink:href="#m2_Cmmi10-62" transform="translate(2052.311261 0)"/>
    <use xlink:href="#m2_Cmmi10-60" transform="translate(2102.311261 0)"/>
   </g></g>
<text x="402" y="800.0" font-size="15" fill="#6b7684" font-family="Helvetica, Arial, sans-serif">geometric approach to the balance point v*, away from the walls.</text>
<text x="66" y="838.0" font-size="18" font-weight="bold" fill="#1a1a1a" font-family="Helvetica, Arial, sans-serif">self-only</text>
<text x="66" y="858.0" font-size="14.5" fill="#6b7684" font-family="Helvetica, Arial, sans-serif">(u = 0)</text>
<g transform="translate(401.280 820.565) scale(1.0)" fill="#1a1a1a"><g transform="translate(0.72 17.434844) scale(0.22 -0.22)">
    <defs>
     <path id="m3_Cmmi10-38" d="M 684 722 
Q 684 866 718 1037 
Q 753 1209 787 1320 
Q 822 1431 944 1753 
Q 1066 2075 1069 2088 
Q 1153 2322 1153 2472 
Q 1153 2663 1013 2663 
Q 759 2663 595 2402 
Q 431 2141 353 1819 
Q 341 1778 300 1778 
L 225 1778 
Q 172 1778 172 1838 
L 172 1856 
Q 275 2238 487 2533 
Q 700 2828 1025 2828 
Q 1253 2828 1411 2678 
Q 1569 2528 1569 2297 
Q 1569 2178 1516 2047 
Q 1391 1722 1319 1526 
Q 1247 1331 1186 1089 
Q 1125 847 1125 641 
Q 1125 400 1236 248 
Q 1347 97 1581 97 
Q 2025 97 2381 781 
Q 2494 1003 2594 1303 
Q 2694 1603 2694 1791 
Q 2694 1984 2631 2092 
Q 2569 2200 2469 2317 
Q 2369 2434 2369 2503 
Q 2369 2628 2472 2731 
Q 2575 2834 2700 2834 
Q 2853 2834 2920 2693 
Q 2988 2553 2988 2375 
Q 2988 2163 2927 1869 
Q 2866 1575 2758 1259 
Q 2650 944 2559 763 
Q 2138 -72 1575 -72 
Q 1172 -72 928 129 
Q 684 331 684 722 
z
" transform="scale(0.015625)"/>
     <path id="m3_Cmmi10-84" d="M 494 109 
Q 494 147 500 166 
L 978 2075 
Q 1025 2253 1025 2388 
Q 1025 2663 838 2663 
Q 638 2663 541 2423 
Q 444 2184 353 1819 
Q 353 1800 334 1789 
Q 316 1778 300 1778 
L 225 1778 
Q 203 1778 187 1801 
Q 172 1825 172 1844 
Q 241 2122 305 2315 
Q 369 2509 505 2668 
Q 641 2828 844 2828 
Q 1066 2828 1233 2700 
Q 1400 2572 1441 2363 
Q 1603 2575 1811 2701 
Q 2019 2828 2266 2828 
Q 2469 2828 2623 2709 
Q 2778 2591 2778 2388 
Q 2778 2225 2676 2104 
Q 2575 1984 2406 1984 
Q 2303 1984 2233 2048 
Q 2163 2113 2163 2216 
Q 2163 2356 2266 2467 
Q 2369 2578 2503 2578 
Q 2400 2663 2253 2663 
Q 1978 2663 1775 2467 
Q 1572 2272 1409 1972 
L 953 141 
Q 931 53 854 -9 
Q 778 -72 684 -72 
Q 606 -72 550 -22 
Q 494 28 494 109 
z
" transform="scale(0.015625)"/>
     <path id="m3_Cmr10-29" d="M 481 850 
Q 428 850 393 890 
Q 359 931 359 978 
Q 359 1031 393 1068 
Q 428 1106 481 1106 
L 4500 1106 
Q 4547 1106 4581 1068 
Q 4616 1031 4616 978 
Q 4616 931 4581 890 
Q 4547 850 4500 850 
L 481 850 
z
M 481 2094 
Q 428 2094 393 2131 
Q 359 2169 359 2222 
Q 359 2269 393 2309 
Q 428 2350 481 2350 
L 4500 2350 
Q 4547 2350 4581 2309 
Q 4616 2269 4616 2222 
Q 4616 2169 4581 2131 
Q 4547 2094 4500 2094 
L 481 2094 
z
" transform="scale(0.015625)"/>
     <path id="m3_Cmr10-28" d="M 1600 -141 
Q 816 -141 533 504 
Q 250 1150 250 2041 
Q 250 2597 351 3087 
Q 453 3578 754 3920 
Q 1056 4263 1600 4263 
Q 2022 4263 2290 4056 
Q 2559 3850 2700 3523 
Q 2841 3197 2892 2823 
Q 2944 2450 2944 2041 
Q 2944 1491 2842 1011 
Q 2741 531 2444 195 
Q 2147 -141 1600 -141 
z
M 1600 25 
Q 1956 25 2131 390 
Q 2306 756 2347 1200 
Q 2388 1644 2388 2144 
Q 2388 2625 2347 3031 
Q 2306 3438 2132 3767 
Q 1959 4097 1600 4097 
Q 1238 4097 1063 3765 
Q 888 3434 847 3029 
Q 806 2625 806 2144 
Q 806 1788 823 1472 
Q 841 1156 916 820 
Q 991 484 1158 254 
Q 1325 25 1600 25 
z
" transform="scale(0.015625)"/>
     <path id="m3_Cmr10-4c" d="M 481 1472 
Q 428 1472 393 1512 
Q 359 1553 359 1600 
Q 359 1647 393 1687 
Q 428 1728 481 1728 
L 2363 1728 
L 2363 3616 
Q 2363 3666 2400 3698 
Q 2438 3731 2491 3731 
Q 2538 3731 2578 3698 
Q 2619 3666 2619 3616 
L 2619 1728 
L 4500 1728 
Q 4547 1728 4581 1687 
Q 4616 1647 4616 1600 
Q 4616 1553 4581 1512 
Q 4547 1472 4500 1472 
L 2619 1472 
L 2619 -416 
Q 2619 -466 2578 -498 
Q 2538 -531 2491 -531 
Q 2438 -531 2400 -498 
Q 2363 -466 2363 -416 
L 2363 1472 
L 481 1472 
z
" transform="scale(0.015625)"/>
     <path id="m3_Cmmi10-27" d="M 178 -1203 
Q 178 -1166 184 -1153 
L 819 1403 
Q 909 1747 1129 2076 
Q 1350 2406 1662 2617 
Q 1975 2828 2322 2828 
Q 2600 2828 2808 2683 
Q 3016 2538 3120 2302 
Q 3225 2066 3225 1784 
Q 3225 1475 3098 1144 
Q 2972 813 2748 538 
Q 2525 263 2234 95 
Q 1944 -72 1625 -72 
Q 1438 -72 1272 39 
Q 1106 150 1013 331 
L 634 -1178 
Q 616 -1269 541 -1325 
Q 466 -1381 372 -1381 
Q 294 -1381 236 -1332 
Q 178 -1284 178 -1203 
z
M 1638 97 
Q 1978 97 2229 445 
Q 2481 794 2614 1264 
Q 2747 1734 2747 2059 
Q 2747 2303 2640 2483 
Q 2534 2663 2309 2663 
Q 2031 2663 1818 2452 
Q 1606 2241 1478 1956 
Q 1350 1672 1269 1363 
L 1094 647 
Q 1134 416 1276 256 
Q 1419 97 1638 97 
z
" transform="scale(0.015625)"/>
     <path id="m3_Cmmi10-15" d="M 1197 -72 
Q 913 -72 692 64 
Q 472 200 351 431 
Q 231 663 231 941 
Q 231 1238 365 1566 
Q 500 1894 733 2166 
Q 966 2438 1259 2598 
Q 1553 2759 1863 2759 
L 3475 2759 
Q 3541 2759 3587 2715 
Q 3634 2672 3634 2597 
Q 3634 2503 3567 2433 
Q 3500 2363 3406 2363 
L 2625 2363 
Q 2809 2088 2809 1697 
Q 2809 1375 2684 1062 
Q 2559 750 2337 492 
Q 2116 234 1820 81 
Q 1525 -72 1197 -72 
z
M 1203 97 
Q 1553 97 1823 370 
Q 2094 644 2237 1039 
Q 2381 1434 2381 1772 
Q 2381 2047 2229 2205 
Q 2078 2363 1806 2363 
Q 1434 2363 1173 2113 
Q 913 1863 783 1484 
Q 653 1106 653 756 
Q 653 481 798 289 
Q 944 97 1203 97 
z
" transform="scale(0.015625)"/>
    </defs>
    <use xlink:href="#m3_Cmmi10-38" transform="translate(0 0.703125)"/>
    <use xlink:href="#m3_Cmmi10-84" transform="translate(48.388672 -14.296837) scale(0.7)"/>
    <use xlink:href="#m3_Cmr10-29" transform="translate(105.691176 0.703125)"/>
    <use xlink:href="#m3_Cmmi10-38" transform="translate(203.37678 0.703125)"/>
    <use xlink:href="#m3_Cmr10-28" transform="translate(251.765452 -14.296837) scale(0.7)"/>
    <use xlink:href="#m3_Cmr10-4c" transform="translate(312.485924 0.703125)"/>
    <use xlink:href="#m3_Cmmi10-84" transform="translate(410.171529 0.703125)"/>
    <use xlink:href="#m3_Cmmi10-27" transform="translate(471.955764 0.703125)"/>
    <use xlink:href="#m3_Cmmi10-15" transform="translate(523.664748 0.703125)"/>
   </g></g>
<text x="402" y="864.0" font-size="15" fill="#6b7684" font-family="Helvetica, Arial, sans-serif">a straight walk until a wall or the spread runs out.</text>
</svg>