<svg xmlns="http://www.w3.org/2000/svg" xmlns:xlink="http://www.w3.org/1999/xlink" viewBox="0 0 1240 1288" font-family="Helvetica, Arial, sans-serif">
<rect width="1240" height="1288" fill="white"/>
<text x="66" y="60" font-size="29" font-weight="bold" fill="#1a1a1a" font-family="Helvetica, Arial, sans-serif">The per-round measurements and the model they feed</text>
<text x="66" y="98" font-size="16" fill="#6b7684" font-family="Helvetica, Arial, sans-serif">Per prompt <tspan font-style="italic">j</tspan> in a round, the pool holds candidates <tspan font-style="italic">k</tspan> = 1…<tspan font-style="italic">n</tspan><tspan font-size="11" baseline-shift="-20%" font-style="italic">j</tspan> with value scores <tspan font-style="italic">x</tspan><tspan font-size="11" baseline-shift="-20%" font-style="italic">jk</tspan> in [0,1] and judge scores <tspan font-style="italic">s</tspan><tspan font-size="11" baseline-shift="-20%" font-style="italic">jk</tspan>;  the judge keeps two candidates.</text>
<line x1="66" y1="118" x2="1180" y2="118" stroke="#6b7684" stroke-width="1" opacity="0.35"/>
<text x="66" y="168.0" font-size="21" font-weight="bold" fill="#1a1a1a" font-family="Helvetica, Arial, sans-serif">spread</text>
<text x="300" y="168.0" font-size="27" font-weight="bold" font-style="italic" fill="#2867b5" text-anchor="middle" font-family="Helvetica, Arial, sans-serif">σ</text>
<text x="402.0" y="168.0" font-size="23.00" fill="#1a1a1a" font-weight="normal" font-style="italic" text-anchor="start" font-family="Helvetica, Arial, sans-serif">σ</text>
<text x="414.9" y="174.9" font-size="15.18" fill="#1a1a1a" font-weight="normal" font-style="italic" text-anchor="start" font-family="Helvetica, Arial, sans-serif">j</text>
<text x="428.4" y="168.0" font-size="23.00" fill="#1a1a1a" font-weight="normal" text-anchor="start" font-family="Helvetica, Arial, sans-serif">=</text>
<path d="M 450.4 161.1 L 457.3 174.9 L 464.6 138.1 L 706.9 138.1" fill="none" stroke="#1a1a1a" stroke-width="2" stroke-linejoin="round" stroke-linecap="round"/>
<text x="469.6" y="168.0" font-size="23.00" fill="#1a1a1a" font-weight="normal" text-anchor="start" font-family="Helvetica, Arial, sans-serif">(</text>
<text x="482.5" y="168.0" font-size="23.00" fill="#1a1a1a" font-weight="normal" text-anchor="start" font-family="Helvetica, Arial, sans-serif">1/</text>
<text x="508.3" y="168.0" font-size="23.00" fill="#1a1a1a" font-weight="normal" font-style="italic" text-anchor="start" font-family="Helvetica, Arial, sans-serif">n</text>
<text x="521.2" y="174.9" font-size="15.18" fill="#1a1a1a" font-weight="normal" font-style="italic" text-anchor="start" font-family="Helvetica, Arial, sans-serif">j</text>
<text x="529.7" y="168.0" font-size="23.00" fill="#1a1a1a" font-weight="normal" text-anchor="start" font-family="Helvetica, Arial, sans-serif">)</text>
<text x="550.5" y="168.0" font-size="23.00" fill="#1a1a1a" font-weight="normal" text-anchor="start" font-family="Helvetica, Arial, sans-serif">·</text>
<text x="571.4" y="168.0" font-size="29.90" fill="#1a1a1a" font-weight="normal" text-anchor="start" font-family="Helvetica, Arial, sans-serif">Σ</text>
<text x="580.4" y="182.3" font-size="12.88" fill="#1a1a1a" font-weight="middle" text-anchor="start" font-family="Helvetica, Arial, sans-serif">k</text>
<text x="595.4" y="168.0" font-size="23.00" fill="#1a1a1a" font-weight="normal" text-anchor="start" font-family="Helvetica, Arial, sans-serif">(</text>
<text x="608.2" y="168.0" font-size="23.00" fill="#1a1a1a" font-weight="normal" font-style="italic" text-anchor="start" font-family="Helvetica, Arial, sans-serif">x</text>
<text x="621.1" y="174.9" font-size="15.18" fill="#1a1a1a" font-weight="normal" font-style="italic" text-anchor="start" font-family="Helvetica, Arial, sans-serif">jk</text>
<text x="643.2" y="168.0" font-size="23.00" fill="#1a1a1a" font-weight="normal" text-anchor="start" font-family="Helvetica, Arial, sans-serif">−</text>
<text x="661.1" y="168.0" font-size="23.00" fill="#1a1a1a" font-weight="normal" font-style="italic" text-anchor="start" font-family="Helvetica, Arial, sans-serif">x</text>
<line x1="661.1" y1="150.1" x2="674.0" y2="150.1" stroke="#1a1a1a" stroke-width="1.7"/>
<text x="674.0" y="174.9" font-size="15.18" fill="#1a1a1a" font-weight="normal" font-style="italic" text-anchor="start" font-family="Helvetica, Arial, sans-serif">j</text>
<text x="682.5" y="168.0" font-size="23.00" fill="#1a1a1a" font-weight="normal" text-anchor="start" font-family="Helvetica, Arial, sans-serif">)</text>
<text x="695.4" y="157.4" font-size="15.18" fill="#1a1a1a" font-weight="normal" text-anchor="start" font-family="Helvetica, Arial, sans-serif">2</text>
<text x="402.0" y="208.0" font-size="23.00" fill="#1a1a1a" font-weight="normal" font-style="italic" text-anchor="start" font-family="Helvetica, Arial, sans-serif">σ</text>
<text x="419.9" y="208.0" font-size="23.00" fill="#1a1a1a" font-weight="normal" text-anchor="start" font-family="Helvetica, Arial, sans-serif">=</text>
<text x="437.9" y="208.0" font-size="23.00" fill="#1a1a1a" font-weight="normal" text-anchor="start" font-family="Helvetica, Arial, sans-serif">(1/</text>
<text x="476.5" y="208.0" font-size="23.00" fill="#1a1a1a" font-weight="normal" font-style="italic" text-anchor="start" font-family="Helvetica, Arial, sans-serif">J</text>
<text x="489.4" y="208.0" font-size="23.00" fill="#1a1a1a" font-weight="normal" text-anchor="start" font-family="Helvetica, Arial, sans-serif">)</text>
<text x="508.3" y="208.0" font-size="23.00" fill="#1a1a1a" font-weight="normal" text-anchor="start" font-family="Helvetica, Arial, sans-serif">·</text>
<text x="527.2" y="208.0" font-size="29.90" fill="#1a1a1a" font-weight="normal" text-anchor="start" font-family="Helvetica, Arial, sans-serif">Σ</text>
<text x="536.1" y="222.3" font-size="12.88" fill="#1a1a1a" font-weight="middle" text-anchor="start" font-family="Helvetica, Arial, sans-serif">j</text>
<text x="551.1" y="208.0" font-size="23.00" fill="#1a1a1a" font-weight="normal" font-style="italic" text-anchor="start" font-family="Helvetica, Arial, sans-serif">σ</text>
<text x="564.0" y="214.9" font-size="15.18" fill="#1a1a1a" font-weight="normal" font-style="italic" text-anchor="start" font-family="Helvetica, Arial, sans-serif">j</text>
<text x="594.4808" y="204.0" font-size="14" fill="#6b7684" font-family="Helvetica, Arial, sans-serif">J = the round's prompts, equal weight each.</text>
<text x="402" y="238.0" font-size="15" fill="#6b7684" font-family="Helvetica, Arial, sans-serif">σⱼ divides by nⱼ — the population convention, ddof = 0.  The round's σ is the</text>
<text x="402" y="258.0" font-size="15" fill="#6b7684" font-family="Helvetica, Arial, sans-serif">mean of σⱼ over prompts, NOT the SD after pooling every candidate into one set</text>
<text x="402" y="278.0" font-size="15" fill="#6b7684" font-family="Helvetica, Arial, sans-serif">(that pooled quantity is larger and is a different measurement).</text>
<line x1="66" y1="282.0" x2="1180" y2="282.0" stroke="#6b7684" stroke-width="1" opacity="0.22"/>
<text x="66" y="336.0" font-size="21" font-weight="bold" fill="#1a1a1a" font-family="Helvetica, Arial, sans-serif">agreement</text>
<text x="300" y="336.0" font-size="27" font-weight="bold" font-style="italic" fill="#2867b5" text-anchor="middle" font-family="Helvetica, Arial, sans-serif">ρ</text>
<text x="402.0" y="336.0" font-size="23.00" fill="#1a1a1a" font-weight="normal" font-style="italic" text-anchor="start" font-family="Helvetica, Arial, sans-serif">ρ</text>
<text x="414.9" y="342.9" font-size="15.18" fill="#1a1a1a" font-weight="normal" font-style="italic" text-anchor="start" font-family="Helvetica, Arial, sans-serif">j</text>
<text x="428.4" y="336.0" font-size="23.00" fill="#1a1a1a" font-weight="normal" text-anchor="start" font-family="Helvetica, Arial, sans-serif">=</text>
<text x="446.4" y="336.0" font-size="23.00" fill="#1a1a1a" font-weight="normal" text-anchor="start" font-family="Helvetica, Arial, sans-serif">corr</text>
<text x="497.9" y="336.0" font-size="23.00" fill="#1a1a1a" font-weight="normal" text-anchor="start" font-family="Helvetica, Arial, sans-serif">(</text>
<text x="510.8" y="336.0" font-size="23.00" fill="#1a1a1a" font-weight="normal" font-style="italic" text-anchor="start" font-family="Helvetica, Arial, sans-serif">s</text>
<text x="523.7" y="342.9" font-size="15.18" fill="#1a1a1a" font-weight="normal" font-style="italic" text-anchor="start" font-family="Helvetica, Arial, sans-serif">j·</text>
<text x="540.7" y="336.0" font-size="23.00" fill="#1a1a1a" font-weight="normal" text-anchor="start" font-family="Helvetica, Arial, sans-serif">,</text>
<text x="558.5" y="336.0" font-size="23.00" fill="#1a1a1a" font-weight="normal" font-style="italic" text-anchor="start" font-family="Helvetica, Arial, sans-serif">x</text>
<text x="571.4" y="342.9" font-size="15.18" fill="#1a1a1a" font-weight="normal" font-style="italic" text-anchor="start" font-family="Helvetica, Arial, sans-serif">j·</text>
<text x="588.4" y="336.0" font-size="23.00" fill="#1a1a1a" font-weight="normal" text-anchor="start" font-family="Helvetica, Arial, sans-serif">)</text>
<g transform="translate(608.584 295.460) scale(1.0)" fill="#1a1a1a"><g transform="translate(0.72 40.54) scale(0.22 -0.22)">
    <defs>
     <path id="m1_Cmr10-29" d="M 481 850 
Q 428 850 393 890 
Q 359 931 359 978 
Q 359 1031 393 1068 
Q 428 1106 481 1106 
L 4500 1106 
Q 4547 1106 4581 1068 
Q 4616 1031 4616 978 
Q 4616 931 4581 890 
Q 4547 850 4500 850 
L 481 850 
z
M 481 2094 
Q 428 2094 393 2131 
Q 359 2169 359 2222 
Q 359 2269 393 2309 
Q 428 2350 481 2350 
L 4500 2350 
Q 4547 2350 4581 2309 
Q 4616 2269 4616 2222 
Q 4616 2169 4581 2131 
Q 4547 2094 4500 2094 
L 481 2094 
z
" transform="scale(0.015625)"/>
     <path id="m1_Cmex10-33" d="M 422 -8959 
Q 359 -8959 359 -8891 
Q 359 -8863 378 -8844 
L 3756 -4909 
L 378 -281 
Q 359 -263 359 -250 
L 359 -56 
Q 359 -34 379 -17 
Q 400 0 422 0 
L 8103 0 
L 8878 -1797 
L 8691 -1797 
Q 8394 -1116 7697 -787 
Q 7000 -459 6242 -382 
Q 5484 -306 4481 -306 
L 1522 -306 
L 4544 -4434 
Q 4556 -4459 4556 -4481 
Q 4556 -4500 4544 -4525 
L 1222 -8391 
L 4544 -8391 
Q 5528 -8391 6289 -8314 
Q 7050 -8238 7739 -7908 
Q 8428 -7578 8691 -6900 
L 8878 -6900 
L 8103 -8959 
L 422 -8959 
z
" transform="scale(0.015625)"/>
     <path id="m1_Cmmi10-3e" d="M 341 116 
Q 341 153 347 172 
L 1275 3872 
Q 1300 3981 1306 4044 
Q 1306 4147 891 4147 
Q 825 4147 825 4231 
Q 828 4247 839 4287 
Q 850 4328 867 4350 
Q 884 4372 916 4372 
L 1778 4441 
L 1797 4441 
Q 1797 4434 1819 4423 
Q 1841 4413 1844 4409 
Q 1856 4378 1856 4359 
L 1184 1684 
Q 1416 1781 1767 2145 
Q 2119 2509 2317 2668 
Q 2516 2828 2816 2828 
Q 2994 2828 3119 2706 
Q 3244 2584 3244 2406 
Q 3244 2294 3197 2198 
Q 3150 2103 3065 2043 
Q 2981 1984 2869 1984 
Q 2766 1984 2695 2048 
Q 2625 2113 2625 2216 
Q 2625 2369 2733 2473 
Q 2841 2578 2994 2578 
Q 2931 2663 2803 2663 
Q 2613 2663 2436 2553 
Q 2259 2444 2054 2239 
Q 1850 2034 1681 1864 
Q 1513 1694 1369 1606 
Q 1747 1563 2025 1408 
Q 2303 1253 2303 934 
Q 2303 869 2278 769 
Q 2222 528 2222 384 
Q 2222 97 2419 97 
Q 2650 97 2770 350 
Q 2891 603 2969 941 
Q 2981 978 3022 978 
L 3097 978 
Q 3122 978 3139 962 
Q 3156 947 3156 922 
Q 3156 916 3150 903 
Q 2909 -72 2406 -72 
Q 2225 -72 2086 12 
Q 1947 97 1872 242 
Q 1797 388 1797 569 
Q 1797 672 1825 781 
Q 1844 856 1844 922 
Q 1844 1169 1625 1297 
Q 1406 1425 1125 1453 
L 800 147 
Q 775 50 703 -11 
Q 631 -72 538 -72 
Q 456 -72 398 -17 
Q 341 38 341 116 
z
" transform="scale(0.015625)"/>
     <path id="m1_Cmr10-77" d="M 1984 -1588 
Q 1628 -1306 1370 -942 
Q 1113 -578 948 -165 
Q 784 247 703 697 
Q 622 1147 622 1600 
Q 622 2059 703 2509 
Q 784 2959 951 3375 
Q 1119 3791 1378 4153 
Q 1638 4516 1984 4788 
Q 1984 4800 2016 4800 
L 2075 4800 
Q 2094 4800 2109 4783 
Q 2125 4766 2125 4744 
Q 2125 4716 2113 4703 
Q 1800 4397 1592 4047 
Q 1384 3697 1257 3301 
Q 1131 2906 1075 2482 
Q 1019 2059 1019 1600 
Q 1019 -434 2106 -1491 
Q 2125 -1509 2125 -1544 
Q 2125 -1559 2108 -1579 
Q 2091 -1600 2075 -1600 
L 2016 -1600 
Q 1984 -1600 1984 -1588 
z
" transform="scale(0.015625)"/>
     <path id="m1_Cmmi10-58" d="M 556 391 
Q 728 97 1247 97 
Q 1472 97 1675 173 
Q 1878 250 2011 403 
Q 2144 556 2144 775 
Q 2144 941 2025 1047 
Q 1906 1153 1734 1191 
L 1388 1259 
Q 1150 1319 997 1481 
Q 844 1644 844 1875 
Q 844 2159 998 2378 
Q 1153 2597 1406 2712 
Q 1659 2828 1931 2828 
Q 2222 2828 2451 2689 
Q 2681 2550 2681 2278 
Q 2681 2131 2598 2018 
Q 2516 1906 2369 1906 
Q 2284 1906 2223 1961 
Q 2163 2016 2163 2100 
Q 2163 2175 2205 2245 
Q 2247 2316 2317 2358 
Q 2388 2400 2463 2400 
Q 2406 2538 2251 2600 
Q 2097 2663 1919 2663 
Q 1756 2663 1593 2597 
Q 1431 2531 1332 2404 
Q 1234 2278 1234 2106 
Q 1234 1991 1315 1903 
Q 1397 1816 1516 1778 
L 1888 1703 
Q 2066 1666 2214 1570 
Q 2363 1475 2448 1329 
Q 2534 1184 2534 997 
Q 2534 759 2401 528 
Q 2269 297 2075 159 
Q 1734 -72 1241 -72 
Q 900 -72 615 84 
Q 331 241 331 550 
Q 331 725 432 854 
Q 534 984 709 984 
Q 813 984 883 921 
Q 953 859 953 756 
Q 953 609 843 500 
Q 734 391 588 391 
L 556 391 
z
" transform="scale(0.015625)"/>
     <path id="m1_Cmmi10-69" d="M -84 -909 
Q -84 -753 23 -639 
Q 131 -525 288 -525 
Q 391 -525 461 -589 
Q 531 -653 531 -756 
Q 531 -878 454 -976 
Q 378 -1075 263 -1106 
Q 375 -1147 488 -1147 
Q 759 -1147 959 -895 
Q 1159 -644 1241 -331 
L 1844 2075 
Q 1888 2259 1888 2388 
Q 1888 2663 1697 2663 
Q 1416 2663 1205 2408 
Q 994 2153 863 1819 
Q 850 1778 813 1778 
L 738 1778 
Q 684 1778 684 1838 
L 684 1856 
Q 828 2241 1093 2534 
Q 1359 2828 1709 2828 
Q 1975 2828 2145 2662 
Q 2316 2497 2316 2241 
Q 2316 2150 2297 2059 
L 1691 -372 
Q 1625 -631 1440 -847 
Q 1256 -1063 1000 -1188 
Q 744 -1313 475 -1313 
Q 259 -1313 87 -1209 
Q -84 -1106 -84 -909 
z
M 1941 3878 
Q 1941 4019 2050 4125 
Q 2159 4231 2297 4231 
Q 2406 4231 2476 4164 
Q 2547 4097 2547 3994 
Q 2547 3850 2433 3742 
Q 2319 3634 2181 3634 
Q 2078 3634 2009 3706 
Q 1941 3778 1941 3878 
z
" transform="scale(0.015625)"/>
     <path id="m1_Cmsy10-11" d="M 653 1472 
Q 600 1472 565 1512 
Q 531 1553 531 1600 
Q 531 1647 565 1687 
Q 600 1728 653 1728 
L 4325 1728 
Q 4375 1728 4408 1687 
Q 4441 1647 4441 1600 
Q 4441 1553 4408 1512 
Q 4375 1472 4325 1472 
L 653 1472 
z
" transform="scale(0.015625)"/>
     <path id="m1_Cmr10-83" d="M 441 3553 
L 441 3775 
L 2753 3775 
L 2753 3553 
L 441 3553 
z
" transform="scale(0.015625)"/>
     <path id="m1_Cmr10-44" d="M 416 -1600 
Q 359 -1600 359 -1544 
Q 359 -1516 372 -1503 
Q 1466 -434 1466 1600 
Q 1466 3634 384 4691 
Q 359 4706 359 4744 
Q 359 4766 376 4783 
Q 394 4800 416 4800 
L 475 4800 
Q 494 4800 506 4788 
Q 966 4425 1272 3906 
Q 1578 3388 1720 2800 
Q 1863 2213 1863 1600 
Q 1863 1147 1786 708 
Q 1709 269 1542 -157 
Q 1375 -584 1119 -945 
Q 863 -1306 506 -1588 
Q 494 -1600 475 -1600 
L 416 -1600 
z
" transform="scale(0.015625)"/>
     <path id="m1_Cmmi10-3f" d="M 500 184 
Q 613 97 819 97 
Q 1019 97 1172 289 
Q 1325 481 1381 709 
L 1672 1844 
Q 1741 2153 1741 2266 
Q 1741 2425 1652 2544 
Q 1563 2663 1403 2663 
Q 1200 2663 1022 2536 
Q 844 2409 722 2214 
Q 600 2019 550 1819 
Q 538 1778 500 1778 
L 422 1778 
Q 372 1778 372 1838 
L 372 1856 
Q 434 2094 584 2320 
Q 734 2547 951 2687 
Q 1169 2828 1416 2828 
Q 1650 2828 1839 2703 
Q 2028 2578 2106 2363 
Q 2216 2559 2386 2693 
Q 2556 2828 2759 2828 
Q 2897 2828 3040 2779 
Q 3184 2731 3275 2631 
Q 3366 2531 3366 2381 
Q 3366 2219 3261 2101 
Q 3156 1984 2994 1984 
Q 2891 1984 2822 2050 
Q 2753 2116 2753 2216 
Q 2753 2350 2845 2451 
Q 2938 2553 3066 2572 
Q 2950 2663 2747 2663 
Q 2541 2663 2389 2472 
Q 2238 2281 2175 2047 
L 1894 916 
Q 1825 659 1825 494 
Q 1825 331 1917 214 
Q 2009 97 2163 97 
Q 2463 97 2698 361 
Q 2934 625 3009 941 
Q 3022 978 3059 978 
L 3138 978 
Q 3163 978 3178 961 
Q 3194 944 3194 922 
Q 3194 916 3188 903 
Q 3097 522 2806 225 
Q 2516 -72 2150 -72 
Q 1916 -72 1727 54 
Q 1538 181 1459 397 
Q 1359 209 1182 68 
Q 1006 -72 806 -72 
Q 669 -72 523 -23 
Q 378 25 287 125 
Q 197 225 197 378 
Q 197 528 301 651 
Q 406 775 563 775 
Q 669 775 741 711 
Q 813 647 813 544 
Q 813 409 723 309 
Q 634 209 500 184 
z
" transform="scale(0.015625)"/>
     <path id="m1_Cmex10-35" d="M 2713 -15103 
L 1253 -8306 
L 819 -8984 
L 703 -8872 
L 1619 -7425 
L 2988 -13791 
L 6278 159 
Q 6300 256 6400 256 
Q 6453 256 6490 218 
Q 6528 181 6528 128 
L 6528 103 
L 2969 -15009 
Q 2941 -15103 2853 -15103 
L 2713 -15103 
z
" transform="scale(0.015625)"/>
     <path id="m1_Cmr10-31" d="M 319 0 
L 319 172 
Q 319 188 331 206 
L 1325 1306 
Q 1550 1550 1690 1715 
Q 1831 1881 1968 2097 
Q 2106 2313 2186 2536 
Q 2266 2759 2266 3009 
Q 2266 3272 2169 3511 
Q 2072 3750 1880 3894 
Q 1688 4038 1416 4038 
Q 1138 4038 916 3870 
Q 694 3703 603 3438 
Q 628 3444 672 3444 
Q 816 3444 917 3347 
Q 1019 3250 1019 3097 
Q 1019 2950 917 2848 
Q 816 2747 672 2747 
Q 522 2747 420 2851 
Q 319 2956 319 3097 
Q 319 3338 409 3548 
Q 500 3759 670 3923 
Q 841 4088 1055 4175 
Q 1269 4263 1509 4263 
Q 1875 4263 2190 4108 
Q 2506 3953 2690 3670 
Q 2875 3388 2875 3009 
Q 2875 2731 2753 2481 
Q 2631 2231 2440 2026 
Q 2250 1822 1953 1562 
Q 1656 1303 1563 1216 
L 838 519 
L 1453 519 
Q 1906 519 2211 526 
Q 2516 534 2534 550 
Q 2609 631 2688 1141 
L 2875 1141 
L 2694 0 
L 319 0 
z
" transform="scale(0.015625)"/>
     <path id="m1_Cmsy10-4e" d="M 538 1600 
Q 538 1691 584 1772 
Q 631 1853 714 1903 
Q 797 1953 891 1953 
Q 981 1953 1064 1903 
Q 1147 1853 1194 1772 
Q 1241 1691 1241 1600 
Q 1241 1456 1139 1351 
Q 1038 1247 891 1247 
Q 747 1247 642 1351 
Q 538 1456 538 1600 
z
" transform="scale(0.015625)"/>
    </defs>
    <use xlink:href="#m1_Cmr10-29" transform="translate(20.000057 0.958281)"/>
    <use xlink:href="#m1_Cmex10-33" transform="translate(268.935661 181.005469) scale(0.7)"/>
    <use xlink:href="#m1_Cmmi10-3e" transform="translate(303.935661 35.884531) scale(0.49)"/>
    <use xlink:href="#m1_Cmr10-77" transform="translate(362.112224 108.672135) scale(0.7)"/>
    <use xlink:href="#m1_Cmmi10-58" transform="translate(389.285075 108.672135) scale(0.7)"/>
    <use xlink:href="#m1_Cmmi10-69" transform="translate(422.029216 98.172162) scale(0.49)"/>
    <use xlink:href="#m1_Cmmi10-3e" transform="translate(442.174724 98.172162) scale(0.49)"/>
    <use xlink:href="#m1_Cmsy10-11" transform="translate(485.660012 108.672135) scale(0.7)"/>
    <use xlink:href="#m1_Cmr10-83" transform="translate(557.41347 109.49401) scale(0.7)"/>
    <use xlink:href="#m1_Cmmi10-58" transform="translate(554.039935 108.672135) scale(0.7)"/>
    <use xlink:href="#m1_Cmmi10-69" transform="translate(589.587079 98.172162) scale(0.49)"/>
    <use xlink:href="#m1_Cmr10-44" transform="translate(613.736877 108.672135) scale(0.7)"/>
    <use xlink:href="#m1_Cmr10-77" transform="translate(640.909729 108.672135) scale(0.7)"/>
    <use xlink:href="#m1_Cmmi10-3f" transform="translate(668.082581 108.672135) scale(0.7)"/>
    <use xlink:href="#m1_Cmmi10-69" transform="translate(708.038635 98.172162) scale(0.49)"/>
    <use xlink:href="#m1_Cmmi10-3e" transform="translate(728.184143 98.172162) scale(0.49)"/>
    <use xlink:href="#m1_Cmsy10-11" transform="translate(771.669431 108.672135) scale(0.7)"/>
    <use xlink:href="#m1_Cmr10-83" transform="translate(847.225868 109.49401) scale(0.7)"/>
    <use xlink:href="#m1_Cmmi10-3f" transform="translate(840.049354 108.672135) scale(0.7)"/>
    <use xlink:href="#m1_Cmmi10-69" transform="translate(882.808412 98.172162) scale(0.49)"/>
    <use xlink:href="#m1_Cmr10-44" transform="translate(906.958211 108.672135) scale(0.7)"/>
    <use xlink:href="#m1_Cmex10-35" transform="translate(123.935661 9.591875) scale(0.698136)"/>
    <use xlink:href="#m1_Cmex10-33" transform="translate(202.488786 -9.78625) scale(0.7)"/>
    <use xlink:href="#m1_Cmmi10-3e" transform="translate(237.488786 -154.907188) scale(0.49)"/>
    <use xlink:href="#m1_Cmr10-77" transform="translate(295.665349 -82.119583) scale(0.7)"/>
    <use xlink:href="#m1_Cmmi10-58" transform="translate(322.8382 -82.119583) scale(0.7)"/>
    <use xlink:href="#m1_Cmmi10-69" transform="translate(355.582341 -92.619557) scale(0.49)"/>
    <use xlink:href="#m1_Cmmi10-3e" transform="translate(375.727849 -92.619557) scale(0.49)"/>
    <use xlink:href="#m1_Cmsy10-11" transform="translate(419.213137 -82.119583) scale(0.7)"/>
    <use xlink:href="#m1_Cmr10-83" transform="translate(490.966595 -81.297708) scale(0.7)"/>
    <use xlink:href="#m1_Cmmi10-58" transform="translate(487.59306 -82.119583) scale(0.7)"/>
    <use xlink:href="#m1_Cmmi10-69" transform="translate(523.140204 -92.619557) scale(0.49)"/>
    <use xlink:href="#m1_Cmr10-44" transform="translate(547.290002 -82.119583) scale(0.7)"/>
    <use xlink:href="#m1_Cmr10-31" transform="translate(577.265858 -53.217119) scale(0.49)"/>
    <use xlink:href="#m1_Cmsy10-4e" transform="translate(619.770188 -82.119583) scale(0.7)"/>
    <use xlink:href="#m1_Cmex10-33" transform="translate(653.150111 -9.78625) scale(0.7)"/>
    <use xlink:href="#m1_Cmmi10-3e" transform="translate(688.150111 -154.907188) scale(0.49)"/>
    <use xlink:href="#m1_Cmr10-77" transform="translate(746.326674 -82.119583) scale(0.7)"/>
    <use xlink:href="#m1_Cmmi10-3f" transform="translate(773.499525 -82.119583) scale(0.7)"/>
    <use xlink:href="#m1_Cmmi10-69" transform="translate(813.45558 -92.619557) scale(0.49)"/>
    <use xlink:href="#m1_Cmmi10-3e" transform="translate(833.601088 -92.619557) scale(0.49)"/>
    <use xlink:href="#m1_Cmsy10-11" transform="translate(877.086376 -82.119583) scale(0.7)"/>
    <use xlink:href="#m1_Cmr10-83" transform="translate(952.642812 -81.297708) scale(0.7)"/>
    <use xlink:href="#m1_Cmmi10-3f" transform="translate(945.466299 -82.119583) scale(0.7)"/>
    <use xlink:href="#m1_Cmmi10-69" transform="translate(988.225357 -92.619557) scale(0.49)"/>
    <use xlink:href="#m1_Cmr10-44" transform="translate(1012.375156 -82.119583) scale(0.7)"/>
    <use xlink:href="#m1_Cmr10-31" transform="translate(1042.351011 -53.217119) scale(0.49)"/>
    <path d="M 123.935661 22.833281 
L 123.935661 29.083281 
L 1079.605302 29.083281 
L 1079.605302 22.833281 
L 123.935661 22.833281 
z
"/>
    <path d="M 193.738786 12.208281 
L 193.738786 16.583281 
L 1079.605302 16.583281 
L 1079.605302 12.208281 
L 193.738786 12.208281 
z
"/>
   </g></g>
<text x="402.0" y="408.0" font-size="23.00" fill="#1a1a1a" font-weight="normal" font-style="italic" text-anchor="start" font-family="Helvetica, Arial, sans-serif">ρ</text>
<text x="419.9" y="408.0" font-size="23.00" fill="#1a1a1a" font-weight="normal" text-anchor="start" font-family="Helvetica, Arial, sans-serif">=</text>
<text x="437.9" y="408.0" font-size="23.00" fill="#1a1a1a" font-weight="normal" text-anchor="start" font-family="Helvetica, Arial, sans-serif">(1/|</text>
<text x="489.4" y="408.0" font-size="23.00" fill="#1a1a1a" font-weight="normal" font-style="italic" text-anchor="start" font-family="Helvetica, Arial, sans-serif">D</text>
<text x="502.3" y="408.0" font-size="23.00" fill="#1a1a1a" font-weight="normal" text-anchor="start" font-family="Helvetica, Arial, sans-serif">|)</text>
<text x="534.0" y="408.0" font-size="23.00" fill="#1a1a1a" font-weight="normal" text-anchor="start" font-family="Helvetica, Arial, sans-serif">·</text>
<text x="552.9" y="408.0" font-size="29.90" fill="#1a1a1a" font-weight="normal" text-anchor="start" font-family="Helvetica, Arial, sans-serif">Σ</text>
<text x="561.9" y="422.3" font-size="12.88" fill="#1a1a1a" font-weight="middle" text-anchor="start" font-family="Helvetica, Arial, sans-serif">j∈D</text>
<text x="578.9" y="408.0" font-size="23.00" fill="#1a1a1a" font-weight="normal" font-style="italic" text-anchor="start" font-family="Helvetica, Arial, sans-serif">ρ</text>
<text x="591.7" y="414.9" font-size="15.18" fill="#1a1a1a" font-weight="normal" font-style="italic" text-anchor="start" font-family="Helvetica, Arial, sans-serif">j</text>
<text x="622.2408" y="404.0" font-size="14" fill="#6b7684" font-family="Helvetica, Arial, sans-serif">D = prompts where ρⱼ is defined (fewer than two candidates,</text>
<text x="622.2408" y="422.0" font-size="14" fill="#6b7684" font-family="Helvetica, Arial, sans-serif">or zero variance on either side, drop the prompt).</text>
<text x="402" y="452.0" font-size="15" fill="#6b7684" font-family="Helvetica, Arial, sans-serif">Per prompt: Pearson correlation, within the prompt, between judge score sⱼ· and</text>
<text x="402" y="472.0" font-size="15" fill="#6b7684" font-family="Helvetica, Arial, sans-serif">value xⱼ·.  Range −1 (the judge keeps against the value) to +1 (with it).  The judge</text>
<text x="402" y="492.0" font-size="15" fill="#6b7684" font-family="Helvetica, Arial, sans-serif">score sⱼₖ is the judge's measured preference for candidate k — the probability it</text>
<text x="402" y="512.0" font-size="15" fill="#6b7684" font-family="Helvetica, Arial, sans-serif">picks k in the A-or-B comparisons, against the fixed reference answer (reference</text>
<text x="402" y="532.0" font-size="15" fill="#6b7684" font-family="Helvetica, Arial, sans-serif">mode) or each duel opponent (head-to-head mode), averaged.  Score-oracle: s is x.</text>
<line x1="66" y1="544.0" x2="1180" y2="544.0" stroke="#6b7684" stroke-width="1" opacity="0.22"/>
<text x="66" y="590.0" font-size="21" font-weight="bold" fill="#1a1a1a" font-family="Helvetica, Arial, sans-serif">selector gap</text>
<text x="300" y="590.0" font-size="27" font-weight="bold" font-style="italic" fill="#2867b5" text-anchor="middle" font-family="Helvetica, Arial, sans-serif">g</text>
<text x="402.0" y="590.0" font-size="30.00" fill="#1a1a1a" font-weight="normal" font-style="italic" text-anchor="start" font-family="Helvetica, Arial, sans-serif">g</text>
<text x="425.4" y="590.0" font-size="30.00" fill="#1a1a1a" font-weight="normal" text-anchor="start" font-family="Helvetica, Arial, sans-serif">=</text>
<text x="456.8" y="590.0" font-size="30.00" fill="#1a1a1a" font-weight="normal" font-style="italic" text-anchor="start" font-family="Helvetica, Arial, sans-serif">k</text>
<text x="540.2" y="590.0" font-size="30.00" fill="#1a1a1a" font-weight="normal" text-anchor="start" font-family="Helvetica, Arial, sans-serif">−</text>
<text x="623.6" y="590.0" font-size="30.00" fill="#1a1a1a" font-weight="normal" font-style="italic" text-anchor="start" font-family="Helvetica, Arial, sans-serif">p</text>
<line x1="465.2" y1="598.0" x2="465.2" y2="619.0" stroke="#6b7684" stroke-width="1.0" opacity="0.55"/>
<text x="465.2" y="630.0" font-size="13.00" fill="#6b7684" font-weight="normal" text-anchor="middle" font-family="Helvetica, Arial, sans-serif">mean value of the 2 kept candidates</text>
<line x1="632.0" y1="598.0" x2="632.0" y2="643.0" stroke="#6b7684" stroke-width="1.0" opacity="0.55"/>
<text x="632.0" y="654.0" font-size="13.00" fill="#6b7684" font-weight="normal" text-anchor="middle" font-family="Helvetica, Arial, sans-serif">mean value of the whole candidate pool</text>
<text x="402" y="686.0" font-size="15" fill="#6b7684" font-family="Helvetica, Arial, sans-serif">p averages own + outside-source candidates, everything eligible to be kept; the</text>
<text x="402" y="706.0" font-size="15" fill="#6b7684" font-family="Helvetica, Arial, sans-serif">alternative source's answer is a comparison standard, never in the pool.  Forecast: g ≈ ρσ.</text>
<text x="402" y="726.0" font-size="15" fill="#6b7684" font-family="Helvetica, Arial, sans-serif">(k − q, against the organism's own-candidate mean q, is the separate training displacement.)</text>
<line x1="66" y1="742.0" x2="1180" y2="742.0" stroke="#1a1a1a" stroke-width="1.4" opacity="0.55"/>
<text x="66" y="776.0" font-size="22" font-weight="bold" fill="#1a1a1a" font-family="Helvetica, Arial, sans-serif">The model these feed</text>
<text x="66" y="802.0" font-size="15" fill="#6b7684" font-family="Helvetica, Arial, sans-serif">Each round: pool mean <tspan font-style="italic">p</tspan> = (1−<tspan font-style="italic">u</tspan>)<tspan font-style="italic">q</tspan> + <tspan font-style="italic">u</tspan>·<tspan font-style="italic">s</tspan>,  kept mean <tspan font-style="italic">k</tspan> = <tspan font-style="italic">p</tspan> + ρσ,  next <tspan font-style="italic">v</tspan> = <tspan font-style="italic">k</tspan>.  The closed forms are its unclipped solution.</text>
<text x="66" y="892.0" font-size="18" font-weight="bold" fill="#1a1a1a" font-family="Helvetica, Arial, sans-serif">one round</text>
<text x="66" y="912.0" font-size="14.5" fill="#6b7684" font-family="Helvetica, Arial, sans-serif">σ, ρ measured once, at round 1</text>
<path d="M 476.4 871.0 L 476.4 866.0 L 624.0 866.0 L 624.0 871.0" fill="none" stroke="#6b7684" stroke-width="1.1" opacity="0.75"/>
<text x="550.2" y="860.0" font-size="13.00" fill="#6b7684" font-weight="normal" text-anchor="middle" font-family="Helvetica, Arial, sans-serif">pool mean p</text>
<path d="M 476.4 847.0 L 476.4 842.0 L 673.7 842.0 L 673.7 847.0" fill="none" stroke="#6b7684" stroke-width="1.1" opacity="0.75"/>
<text x="575.0" y="836.0" font-size="13.00" fill="#6b7684" font-weight="normal" text-anchor="middle" font-family="Helvetica, Arial, sans-serif">kept mean k</text>
<g transform="translate(401.280 871.920) scale(1.0)" fill="#1a1a1a"><g transform="translate(0.72 20.08) scale(0.22 -0.22)">
    <defs>
     <path id="m2_Cmmi10-38" d="M 684 722 
Q 684 866 718 1037 
Q 753 1209 787 1320 
Q 822 1431 944 1753 
Q 1066 2075 1069 2088 
Q 1153 2322 1153 2472 
Q 1153 2663 1013 2663 
Q 759 2663 595 2402 
Q 431 2141 353 1819 
Q 341 1778 300 1778 
L 225 1778 
Q 172 1778 172 1838 
L 172 1856 
Q 275 2238 487 2533 
Q 700 2828 1025 2828 
Q 1253 2828 1411 2678 
Q 1569 2528 1569 2297 
Q 1569 2178 1516 2047 
Q 1391 1722 1319 1526 
Q 1247 1331 1186 1089 
Q 1125 847 1125 641 
Q 1125 400 1236 248 
Q 1347 97 1581 97 
Q 2025 97 2381 781 
Q 2494 1003 2594 1303 
Q 2694 1603 2694 1791 
Q 2694 1984 2631 2092 
Q 2569 2200 2469 2317 
Q 2369 2434 2369 2503 
Q 2369 2628 2472 2731 
Q 2575 2834 2700 2834 
Q 2853 2834 2920 2693 
Q 2988 2553 2988 2375 
Q 2988 2163 2927 1869 
Q 2866 1575 2758 1259 
Q 2650 944 2559 763 
Q 2138 -72 1575 -72 
Q 1172 -72 928 129 
Q 684 331 684 722 
z
" transform="scale(0.015625)"/>
     <path id="m2_Cmmi10-84" d="M 494 109 
Q 494 147 500 166 
L 978 2075 
Q 1025 2253 1025 2388 
Q 1025 2663 838 2663 
Q 638 2663 541 2423 
Q 444 2184 353 1819 
Q 353 1800 334 1789 
Q 316 1778 300 1778 
L 225 1778 
Q 203 1778 187 1801 
Q 172 1825 172 1844 
Q 241 2122 305 2315 
Q 369 2509 505 2668 
Q 641 2828 844 2828 
Q 1066 2828 1233 2700 
Q 1400 2572 1441 2363 
Q 1603 2575 1811 2701 
Q 2019 2828 2266 2828 
Q 2469 2828 2623 2709 
Q 2778 2591 2778 2388 
Q 2778 2225 2676 2104 
Q 2575 1984 2406 1984 
Q 2303 1984 2233 2048 
Q 2163 2113 2163 2216 
Q 2163 2356 2266 2467 
Q 2369 2578 2503 2578 
Q 2400 2663 2253 2663 
Q 1978 2663 1775 2467 
Q 1572 2272 1409 1972 
L 953 141 
Q 931 53 854 -9 
Q 778 -72 684 -72 
Q 606 -72 550 -22 
Q 494 28 494 109 
z
" transform="scale(0.015625)"/>
     <path id="m2_Cmr10-4c" d="M 481 1472 
Q 428 1472 393 1512 
Q 359 1553 359 1600 
Q 359 1647 393 1687 
Q 428 1728 481 1728 
L 2363 1728 
L 2363 3616 
Q 2363 3666 2400 3698 
Q 2438 3731 2491 3731 
Q 2538 3731 2578 3698 
Q 2619 3666 2619 3616 
L 2619 1728 
L 4500 1728 
Q 4547 1728 4581 1687 
Q 4616 1647 4616 1600 
Q 4616 1553 4581 1512 
Q 4547 1472 4500 1472 
L 2619 1472 
L 2619 -416 
Q 2619 -466 2578 -498 
Q 2538 -531 2491 -531 
Q 2438 -531 2400 -498 
Q 2363 -466 2363 -416 
L 2363 1472 
L 481 1472 
z
" transform="scale(0.015625)"/>
     <path id="m2_Cmr10-64" d="M 594 0 
L 594 225 
Q 1394 225 1394 428 
L 1394 3788 
Q 1063 3628 556 3628 
L 556 3853 
Q 1341 3853 1741 4263 
L 1831 4263 
Q 1853 4263 1873 4245 
Q 1894 4228 1894 4206 
L 1894 428 
Q 1894 225 2694 225 
L 2694 0 
L 594 0 
z
" transform="scale(0.015625)"/>
     <path id="m2_Cmr10-29" d="M 481 850 
Q 428 850 393 890 
Q 359 931 359 978 
Q 359 1031 393 1068 
Q 428 1106 481 1106 
L 4500 1106 
Q 4547 1106 4581 1068 
Q 4616 1031 4616 978 
Q 4616 931 4581 890 
Q 4547 850 4500 850 
L 481 850 
z
M 481 2094 
Q 428 2094 393 2131 
Q 359 2169 359 2222 
Q 359 2269 393 2309 
Q 428 2350 481 2350 
L 4500 2350 
Q 4547 2350 4581 2309 
Q 4616 2269 4616 2222 
Q 4616 2169 4581 2131 
Q 4547 2094 4500 2094 
L 481 2094 
z
" transform="scale(0.015625)"/>
     <path id="m2_Cmr10-3e" d="M 756 -1600 
L 756 4800 
L 1631 4800 
L 1631 4544 
L 1013 4544 
L 1013 -1344 
L 1631 -1344 
L 1631 -1600 
L 756 -1600 
z
" transform="scale(0.015625)"/>
     <path id="m2_Cmr10-77" d="M 1984 -1588 
Q 1628 -1306 1370 -942 
Q 1113 -578 948 -165 
Q 784 247 703 697 
Q 622 1147 622 1600 
Q 622 2059 703 2509 
Q 784 2959 951 3375 
Q 1119 3791 1378 4153 
Q 1638 4516 1984 4788 
Q 1984 4800 2016 4800 
L 2075 4800 
Q 2094 4800 2109 4783 
Q 2125 4766 2125 4744 
Q 2125 4716 2113 4703 
Q 1800 4397 1592 4047 
Q 1384 3697 1257 3301 
Q 1131 2906 1075 2482 
Q 1019 2059 1019 1600 
Q 1019 -434 2106 -1491 
Q 2125 -1509 2125 -1544 
Q 2125 -1559 2108 -1579 
Q 2091 -1600 2075 -1600 
L 2016 -1600 
Q 1984 -1600 1984 -1588 
z
" transform="scale(0.015625)"/>
     <path id="m2_Cmsy10-11" d="M 653 1472 
Q 600 1472 565 1512 
Q 531 1553 531 1600 
Q 531 1647 565 1687 
Q 600 1728 653 1728 
L 4325 1728 
Q 4375 1728 4408 1687 
Q 4441 1647 4441 1600 
Q 4441 1553 4408 1512 
Q 4375 1472 4325 1472 
L 653 1472 
z
" transform="scale(0.015625)"/>
     <path id="m2_Cmmi10-60" d="M 678 697 
Q 678 906 734 1126 
Q 791 1347 892 1617 
Q 994 1888 1069 2088 
Q 1153 2322 1153 2472 
Q 1153 2663 1013 2663 
Q 759 2663 595 2402 
Q 431 2141 353 1819 
Q 341 1778 300 1778 
L 225 1778 
Q 172 1778 172 1838 
L 172 1856 
Q 275 2238 487 2533 
Q 700 2828 1025 2828 
Q 1253 2828 1411 2678 
Q 1569 2528 1569 2297 
Q 1569 2178 1516 2047 
Q 1488 1969 1388 1706 
Q 1288 1444 1234 1272 
Q 1181 1100 1147 934 
Q 1113 769 1113 603 
Q 1113 391 1203 244 
Q 1294 97 1497 97 
Q 1906 97 2216 603 
Q 2222 628 2226 651 
Q 2231 675 2234 697 
L 2694 2553 
Q 2716 2638 2794 2698 
Q 2872 2759 2963 2759 
Q 3041 2759 3098 2709 
Q 3156 2659 3156 2578 
Q 3156 2541 3150 2528 
L 2688 684 
Q 2644 494 2644 372 
Q 2644 97 2828 97 
Q 3034 97 3136 351 
Q 3238 606 3309 941 
Q 3322 978 3359 978 
L 3438 978 
Q 3463 978 3478 956 
Q 3494 934 3494 916 
Q 3425 641 3361 444 
Q 3297 247 3159 87 
Q 3022 -72 2816 -72 
Q 2613 -72 2452 39 
Q 2291 150 2234 341 
Q 2088 153 1894 40 
Q 1700 -72 1484 -72 
Q 1116 -72 897 129 
Q 678 331 678 697 
z
" transform="scale(0.015625)"/>
     <path id="m2_Cmr10-44" d="M 416 -1600 
Q 359 -1600 359 -1544 
Q 359 -1516 372 -1503 
Q 1466 -434 1466 1600 
Q 1466 3634 384 4691 
Q 359 4706 359 4744 
Q 359 4766 376 4783 
Q 394 4800 416 4800 
L 475 4800 
Q 494 4800 506 4788 
Q 966 4425 1272 3906 
Q 1578 3388 1720 2800 
Q 1863 2213 1863 1600 
Q 1863 1147 1786 708 
Q 1709 269 1542 -157 
Q 1375 -584 1119 -945 
Q 863 -1306 506 -1588 
Q 494 -1600 475 -1600 
L 416 -1600 
z
" transform="scale(0.015625)"/>
     <path id="m2_Cmmi10-58" d="M 556 391 
Q 728 97 1247 97 
Q 1472 97 1675 173 
Q 1878 250 2011 403 
Q 2144 556 2144 775 
Q 2144 941 2025 1047 
Q 1906 1153 1734 1191 
L 1388 1259 
Q 1150 1319 997 1481 
Q 844 1644 844 1875 
Q 844 2159 998 2378 
Q 1153 2597 1406 2712 
Q 1659 2828 1931 2828 
Q 2222 2828 2451 2689 
Q 2681 2550 2681 2278 
Q 2681 2131 2598 2018 
Q 2516 1906 2369 1906 
Q 2284 1906 2223 1961 
Q 2163 2016 2163 2100 
Q 2163 2175 2205 2245 
Q 2247 2316 2317 2358 
Q 2388 2400 2463 2400 
Q 2406 2538 2251 2600 
Q 2097 2663 1919 2663 
Q 1756 2663 1593 2597 
Q 1431 2531 1332 2404 
Q 1234 2278 1234 2106 
Q 1234 1991 1315 1903 
Q 1397 1816 1516 1778 
L 1888 1703 
Q 2066 1666 2214 1570 
Q 2363 1475 2448 1329 
Q 2534 1184 2534 997 
Q 2534 759 2401 528 
Q 2269 297 2075 159 
Q 1734 -72 1241 -72 
Q 900 -72 615 84 
Q 331 241 331 550 
Q 331 725 432 854 
Q 534 984 709 984 
Q 813 984 883 921 
Q 953 859 953 756 
Q 953 609 843 500 
Q 734 391 588 391 
L 556 391 
z
" transform="scale(0.015625)"/>
     <path id="m2_Cmmi10-27" d="M 178 -1203 
Q 178 -1166 184 -1153 
L 819 1403 
Q 909 1747 1129 2076 
Q 1350 2406 1662 2617 
Q 1975 2828 2322 2828 
Q 2600 2828 2808 2683 
Q 3016 2538 3120 2302 
Q 3225 2066 3225 1784 
Q 3225 1475 3098 1144 
Q 2972 813 2748 538 
Q 2525 263 2234 95 
Q 1944 -72 1625 -72 
Q 1438 -72 1272 39 
Q 1106 150 1013 331 
L 634 -1178 
Q 616 -1269 541 -1325 
Q 466 -1381 372 -1381 
Q 294 -1381 236 -1332 
Q 178 -1284 178 -1203 
z
M 1638 97 
Q 1978 97 2229 445 
Q 2481 794 2614 1264 
Q 2747 1734 2747 2059 
Q 2747 2303 2640 2483 
Q 2534 2663 2309 2663 
Q 2031 2663 1818 2452 
Q 1606 2241 1478 1956 
Q 1350 1672 1269 1363 
L 1094 647 
Q 1134 416 1276 256 
Q 1419 97 1638 97 
z
" transform="scale(0.015625)"/>
     <path id="m2_Cmmi10-15" d="M 1197 -72 
Q 913 -72 692 64 
Q 472 200 351 431 
Q 231 663 231 941 
Q 231 1238 365 1566 
Q 500 1894 733 2166 
Q 966 2438 1259 2598 
Q 1553 2759 1863 2759 
L 3475 2759 
Q 3541 2759 3587 2715 
Q 3634 2672 3634 2597 
Q 3634 2503 3567 2433 
Q 3500 2363 3406 2363 
L 2625 2363 
Q 2809 2088 2809 1697 
Q 2809 1375 2684 1062 
Q 2559 750 2337 492 
Q 2116 234 1820 81 
Q 1525 -72 1197 -72 
z
M 1203 97 
Q 1553 97 1823 370 
Q 2094 644 2237 1039 
Q 2381 1434 2381 1772 
Q 2381 2047 2229 2205 
Q 2078 2363 1806 2363 
Q 1434 2363 1173 2113 
Q 913 1863 783 1484 
Q 653 1106 653 756 
Q 653 481 798 289 
Q 944 97 1203 97 
z
" transform="scale(0.015625)"/>
     <path id="m2_Cmr10-48" d="M 141 -1600 
L 141 -1344 
L 763 -1344 
L 763 4544 
L 141 4544 
L 141 4800 
L 1019 4800 
L 1019 -1600 
L 141 -1600 
z
" transform="scale(0.015625)"/>
     <path id="m2_Cmr10-28" d="M 1600 -141 
Q 816 -141 533 504 
Q 250 1150 250 2041 
Q 250 2597 351 3087 
Q 453 3578 754 3920 
Q 1056 4263 1600 4263 
Q 2022 4263 2290 4056 
Q 2559 3850 2700 3523 
Q 2841 3197 2892 2823 
Q 2944 2450 2944 2041 
Q 2944 1491 2842 1011 
Q 2741 531 2444 195 
Q 2147 -141 1600 -141 
z
M 1600 25 
Q 1956 25 2131 390 
Q 2306 756 2347 1200 
Q 2388 1644 2388 2144 
Q 2388 2625 2347 3031 
Q 2306 3438 2132 3767 
Q 1959 4097 1600 4097 
Q 1238 4097 1063 3765 
Q 888 3434 847 3029 
Q 806 2625 806 2144 
Q 806 1788 823 1472 
Q 841 1156 916 820 
Q 991 484 1158 254 
Q 1325 25 1600 25 
z
" transform="scale(0.015625)"/>
    </defs>
    <use xlink:href="#m2_Cmmi10-38" transform="translate(0 0.084203)"/>
    <use xlink:href="#m2_Cmmi10-84" transform="translate(48.388672 -14.915759) scale(0.7)"/>
    <use xlink:href="#m2_Cmr10-4c" transform="translate(93.970743 -14.915759) scale(0.7)"/>
    <use xlink:href="#m2_Cmr10-64" transform="translate(162.350666 -14.915759) scale(0.7)"/>
    <use xlink:href="#m2_Cmr10-29" transform="translate(223.071139 0.084203)"/>
    <use xlink:href="#m2_Cmr10-3e" transform="translate(320.756743 0.084203)"/>
    <use xlink:href="#m2_Cmr10-77" transform="translate(365.109337 0.084203)"/>
    <use xlink:href="#m2_Cmr10-64" transform="translate(403.927697 0.084203)"/>
    <use xlink:href="#m2_Cmsy10-11" transform="translate(473.927754 0.084203)"/>
    <use xlink:href="#m2_Cmmi10-60" transform="translate(571.613358 0.084203)"/>
    <use xlink:href="#m2_Cmr10-44" transform="translate(628.791092 0.084203)"/>
    <use xlink:href="#m2_Cmmi10-38" transform="translate(684.2765 0.084203)"/>
    <use xlink:href="#m2_Cmmi10-84" transform="translate(732.665171 -14.915759) scale(0.7)"/>
    <use xlink:href="#m2_Cmr10-4c" transform="translate(789.967675 0.084203)"/>
    <use xlink:href="#m2_Cmmi10-60" transform="translate(887.653279 0.084203)"/>
    <use xlink:href="#m2_Cmmi10-58" transform="translate(961.498062 0.084203)"/>
    <use xlink:href="#m2_Cmr10-4c" transform="translate(1028.275462 0.084203)"/>
    <use xlink:href="#m2_Cmmi10-27" transform="translate(1125.961067 0.084203)"/>
    <use xlink:href="#m2_Cmmi10-15" transform="translate(1177.670051 0.084203)"/>
    <use xlink:href="#m2_Cmr10-48" transform="translate(1251.417177 0.084203)"/>
    <use xlink:href="#m2_Cmr10-64" transform="translate(1283.107014 41.373438) scale(0.7)"/>
    <use xlink:href="#m2_Cmr10-28" transform="translate(1283.107014 -30.253125) scale(0.7)"/>
   </g></g>
<line x1="526.9" y1="900.0" x2="526.9" y2="911.0" stroke="#6b7684" stroke-width="1.0" opacity="0.55"/>
<text x="526.9" y="922.0" font-size="13.00" fill="#6b7684" font-weight="normal" text-anchor="middle" font-family="Helvetica, Arial, sans-serif">own candidates' share of the pool mean</text>
<line x1="610.7" y1="900.0" x2="610.7" y2="931.0" stroke="#6b7684" stroke-width="1.0" opacity="0.55"/>
<text x="610.7" y="942.0" font-size="13.00" fill="#6b7684" font-weight="normal" text-anchor="middle" font-family="Helvetica, Arial, sans-serif">outside source: share u at level s</text>
<line x1="661.7" y1="900.0" x2="661.7" y2="951.0" stroke="#6b7684" stroke-width="1.0" opacity="0.55"/>
<text x="661.7" y="962.0" font-size="13.00" fill="#6b7684" font-weight="normal" text-anchor="middle" font-family="Helvetica, Arial, sans-serif">selection: the judge's step</text>
<text x="402" y="984.0" font-size="14" fill="#6b7684" font-family="Helvetica, Arial, sans-serif">[·]₀¹ = clipped at the walls 0 and 1.</text>
<text x="66" y="1060.0" font-size="18" font-weight="bold" fill="#1a1a1a" font-family="Helvetica, Arial, sans-serif">iterated</text>
<text x="66" y="1080.0" font-size="14.5" fill="#6b7684" font-family="Helvetica, Arial, sans-serif">(mixed pool, away from the walls)</text>
<g transform="translate(401.280 1042.565) scale(1.0)" fill="#1a1a1a"><g transform="translate(0.72 17.434844) scale(0.22 -0.22)">
    <defs>
     <path id="m10_Cmmi10-38" d="M 684 722 
Q 684 866 718 1037 
Q 753 1209 787 1320 
Q 822 1431 944 1753 
Q 1066 2075 1069 2088 
Q 1153 2322 1153 2472 
Q 1153 2663 1013 2663 
Q 759 2663 595 2402 
Q 431 2141 353 1819 
Q 341 1778 300 1778 
L 225 1778 
Q 172 1778 172 1838 
L 172 1856 
Q 275 2238 487 2533 
Q 700 2828 1025 2828 
Q 1253 2828 1411 2678 
Q 1569 2528 1569 2297 
Q 1569 2178 1516 2047 
Q 1391 1722 1319 1526 
Q 1247 1331 1186 1089 
Q 1125 847 1125 641 
Q 1125 400 1236 248 
Q 1347 97 1581 97 
Q 2025 97 2381 781 
Q 2494 1003 2594 1303 
Q 2694 1603 2694 1791 
Q 2694 1984 2631 2092 
Q 2569 2200 2469 2317 
Q 2369 2434 2369 2503 
Q 2369 2628 2472 2731 
Q 2575 2834 2700 2834 
Q 2853 2834 2920 2693 
Q 2988 2553 2988 2375 
Q 2988 2163 2927 1869 
Q 2866 1575 2758 1259 
Q 2650 944 2559 763 
Q 2138 -72 1575 -72 
Q 1172 -72 928 129 
Q 684 331 684 722 
z
" transform="scale(0.015625)"/>
     <path id="m10_Cmmi10-84" d="M 494 109 
Q 494 147 500 166 
L 978 2075 
Q 1025 2253 1025 2388 
Q 1025 2663 838 2663 
Q 638 2663 541 2423 
Q 444 2184 353 1819 
Q 353 1800 334 1789 
Q 316 1778 300 1778 
L 225 1778 
Q 203 1778 187 1801 
Q 172 1825 172 1844 
Q 241 2122 305 2315 
Q 369 2509 505 2668 
Q 641 2828 844 2828 
Q 1066 2828 1233 2700 
Q 1400 2572 1441 2363 
Q 1603 2575 1811 2701 
Q 2019 2828 2266 2828 
Q 2469 2828 2623 2709 
Q 2778 2591 2778 2388 
Q 2778 2225 2676 2104 
Q 2575 1984 2406 1984 
Q 2303 1984 2233 2048 
Q 2163 2113 2163 2216 
Q 2163 2356 2266 2467 
Q 2369 2578 2503 2578 
Q 2400 2663 2253 2663 
Q 1978 2663 1775 2467 
Q 1572 2272 1409 1972 
L 953 141 
Q 931 53 854 -9 
Q 778 -72 684 -72 
Q 606 -72 550 -22 
Q 494 28 494 109 
z
" transform="scale(0.015625)"/>
     <path id="m10_Cmr10-29" d="M 481 850 
Q 428 850 393 890 
Q 359 931 359 978 
Q 359 1031 393 1068 
Q 428 1106 481 1106 
L 4500 1106 
Q 4547 1106 4581 1068 
Q 4616 1031 4616 978 
Q 4616 931 4581 890 
Q 4547 850 4500 850 
L 481 850 
z
M 481 2094 
Q 428 2094 393 2131 
Q 359 2169 359 2222 
Q 359 2269 393 2309 
Q 428 2350 481 2350 
L 4500 2350 
Q 4547 2350 4581 2309 
Q 4616 2269 4616 2222 
Q 4616 2169 4581 2131 
Q 4547 2094 4500 2094 
L 481 2094 
z
" transform="scale(0.015625)"/>
     <path id="m10_Cmsy10-9" d="M 603 813 
Q 531 813 473 873 
Q 416 934 416 1006 
Q 416 1116 506 1159 
L 1428 1600 
L 506 2034 
Q 416 2072 416 2188 
Q 416 2259 473 2320 
Q 531 2381 603 2381 
Q 650 2381 691 2350 
L 1509 1753 
L 1416 2797 
Q 1416 2875 1469 2925 
Q 1522 2975 1600 2975 
Q 1675 2975 1726 2928 
Q 1778 2881 1778 2809 
L 1778 2797 
L 1684 1753 
L 2503 2350 
Q 2544 2381 2591 2381 
Q 2669 2381 2723 2320 
Q 2778 2259 2778 2188 
Q 2778 2072 2688 2034 
L 1766 1600 
L 2688 1159 
Q 2778 1116 2778 1006 
Q 2778 934 2723 873 
Q 2669 813 2591 813 
Q 2544 813 2503 844 
L 1684 1441 
L 1778 403 
L 1778 384 
Q 1778 313 1723 266 
Q 1669 219 1600 219 
Q 1525 219 1470 270 
Q 1416 322 1416 397 
L 1509 1441 
L 691 844 
Q 650 813 603 813 
z
" transform="scale(0.015625)"/>
     <path id="m10_Cmr10-4c" d="M 481 1472 
Q 428 1472 393 1512 
Q 359 1553 359 1600 
Q 359 1647 393 1687 
Q 428 1728 481 1728 
L 2363 1728 
L 2363 3616 
Q 2363 3666 2400 3698 
Q 2438 3731 2491 3731 
Q 2538 3731 2578 3698 
Q 2619 3666 2619 3616 
L 2619 1728 
L 4500 1728 
Q 4547 1728 4581 1687 
Q 4616 1647 4616 1600 
Q 4616 1553 4581 1512 
Q 4547 1472 4500 1472 
L 2619 1472 
L 2619 -416 
Q 2619 -466 2578 -498 
Q 2538 -531 2491 -531 
Q 2438 -531 2400 -498 
Q 2363 -466 2363 -416 
L 2363 1472 
L 481 1472 
z
" transform="scale(0.015625)"/>
     <path id="m10_Cmr10-77" d="M 1984 -1588 
Q 1628 -1306 1370 -942 
Q 1113 -578 948 -165 
Q 784 247 703 697 
Q 622 1147 622 1600 
Q 622 2059 703 2509 
Q 784 2959 951 3375 
Q 1119 3791 1378 4153 
Q 1638 4516 1984 4788 
Q 1984 4800 2016 4800 
L 2075 4800 
Q 2094 4800 2109 4783 
Q 2125 4766 2125 4744 
Q 2125 4716 2113 4703 
Q 1800 4397 1592 4047 
Q 1384 3697 1257 3301 
Q 1131 2906 1075 2482 
Q 1019 2059 1019 1600 
Q 1019 -434 2106 -1491 
Q 2125 -1509 2125 -1544 
Q 2125 -1559 2108 -1579 
Q 2091 -1600 2075 -1600 
L 2016 -1600 
Q 1984 -1600 1984 -1588 
z
" transform="scale(0.015625)"/>
     <path id="m10_Cmr10-64" d="M 594 0 
L 594 225 
Q 1394 225 1394 428 
L 1394 3788 
Q 1063 3628 556 3628 
L 556 3853 
Q 1341 3853 1741 4263 
L 1831 4263 
Q 1853 4263 1873 4245 
Q 1894 4228 1894 4206 
L 1894 428 
Q 1894 225 2694 225 
L 2694 0 
L 594 0 
z
" transform="scale(0.015625)"/>
     <path id="m10_Cmsy10-11" d="M 653 1472 
Q 600 1472 565 1512 
Q 531 1553 531 1600 
Q 531 1647 565 1687 
Q 600 1728 653 1728 
L 4325 1728 
Q 4375 1728 4408 1687 
Q 4441 1647 4441 1600 
Q 4441 1553 4408 1512 
Q 4375 1472 4325 1472 
L 653 1472 
z
" transform="scale(0.015625)"/>
     <path id="m10_Cmmi10-60" d="M 678 697 
Q 678 906 734 1126 
Q 791 1347 892 1617 
Q 994 1888 1069 2088 
Q 1153 2322 1153 2472 
Q 1153 2663 1013 2663 
Q 759 2663 595 2402 
Q 431 2141 353 1819 
Q 341 1778 300 1778 
L 225 1778 
Q 172 1778 172 1838 
L 172 1856 
Q 275 2238 487 2533 
Q 700 2828 1025 2828 
Q 1253 2828 1411 2678 
Q 1569 2528 1569 2297 
Q 1569 2178 1516 2047 
Q 1488 1969 1388 1706 
Q 1288 1444 1234 1272 
Q 1181 1100 1147 934 
Q 1113 769 1113 603 
Q 1113 391 1203 244 
Q 1294 97 1497 97 
Q 1906 97 2216 603 
Q 2222 628 2226 651 
Q 2231 675 2234 697 
L 2694 2553 
Q 2716 2638 2794 2698 
Q 2872 2759 2963 2759 
Q 3041 2759 3098 2709 
Q 3156 2659 3156 2578 
Q 3156 2541 3150 2528 
L 2688 684 
Q 2644 494 2644 372 
Q 2644 97 2828 97 
Q 3034 97 3136 351 
Q 3238 606 3309 941 
Q 3322 978 3359 978 
L 3438 978 
Q 3463 978 3478 956 
Q 3494 934 3494 916 
Q 3425 641 3361 444 
Q 3297 247 3159 87 
Q 3022 -72 2816 -72 
Q 2613 -72 2452 39 
Q 2291 150 2234 341 
Q 2088 153 1894 40 
Q 1700 -72 1484 -72 
Q 1116 -72 897 129 
Q 678 331 678 697 
z
" transform="scale(0.015625)"/>
     <path id="m10_Cmr10-44" d="M 416 -1600 
Q 359 -1600 359 -1544 
Q 359 -1516 372 -1503 
Q 1466 -434 1466 1600 
Q 1466 3634 384 4691 
Q 359 4706 359 4744 
Q 359 4766 376 4783 
Q 394 4800 416 4800 
L 475 4800 
Q 494 4800 506 4788 
Q 966 4425 1272 3906 
Q 1578 3388 1720 2800 
Q 1863 2213 1863 1600 
Q 1863 1147 1786 708 
Q 1709 269 1542 -157 
Q 1375 -584 1119 -945 
Q 863 -1306 506 -1588 
Q 494 -1600 475 -1600 
L 416 -1600 
z
" transform="scale(0.015625)"/>
     <path id="m10_Cmr10-28" d="M 1600 -141 
Q 816 -141 533 504 
Q 250 1150 250 2041 
Q 250 2597 351 3087 
Q 453 3578 754 3920 
Q 1056 4263 1600 4263 
Q 2022 4263 2290 4056 
Q 2559 3850 2700 3523 
Q 2841 3197 2892 2823 
Q 2944 2450 2944 2041 
Q 2944 1491 2842 1011 
Q 2741 531 2444 195 
Q 2147 -141 1600 -141 
z
M 1600 25 
Q 1956 25 2131 390 
Q 2306 756 2347 1200 
Q 2388 1644 2388 2144 
Q 2388 2625 2347 3031 
Q 2306 3438 2132 3767 
Q 1959 4097 1600 4097 
Q 1238 4097 1063 3765 
Q 888 3434 847 3029 
Q 806 2625 806 2144 
Q 806 1788 823 1472 
Q 841 1156 916 820 
Q 991 484 1158 254 
Q 1325 25 1600 25 
z
" transform="scale(0.015625)"/>
    </defs>
    <use xlink:href="#m10_Cmmi10-38"/>
    <use xlink:href="#m10_Cmmi10-84" transform="translate(48.388672 -14.999962) scale(0.7)"/>
    <use xlink:href="#m10_Cmr10-29" transform="translate(105.691176 0)"/>
    <use xlink:href="#m10_Cmmi10-38" transform="translate(203.37678 0)"/>
    <use xlink:href="#m10_Cmsy10-9" transform="translate(263.045321 41.289234) scale(0.7)"/>
    <use xlink:href="#m10_Cmr10-4c" transform="translate(323.765794 0)"/>
    <use xlink:href="#m10_Cmr10-77" transform="translate(421.451398 0)"/>
    <use xlink:href="#m10_Cmr10-64" transform="translate(460.269757 0)"/>
    <use xlink:href="#m10_Cmsy10-11" transform="translate(530.269815 0)"/>
    <use xlink:href="#m10_Cmmi10-60" transform="translate(627.955419 0)"/>
    <use xlink:href="#m10_Cmr10-44" transform="translate(685.133153 0)"/>
    <use xlink:href="#m10_Cmmi10-84" transform="translate(727.955803 41.289234) scale(0.7)"/>
    <use xlink:href="#m10_Cmr10-77" transform="translate(781.925298 0)"/>
    <use xlink:href="#m10_Cmmi10-38" transform="translate(820.743657 0)"/>
    <use xlink:href="#m10_Cmr10-28" transform="translate(869.132329 -14.999962) scale(0.7)"/>
    <use xlink:href="#m10_Cmsy10-11" transform="translate(929.852802 0)"/>
    <use xlink:href="#m10_Cmmi10-38" transform="translate(1027.538406 0)"/>
    <use xlink:href="#m10_Cmsy10-9" transform="translate(1087.206947 41.289234) scale(0.7)"/>
    <use xlink:href="#m10_Cmr10-44" transform="translate(1127.927362 0)"/>
   </g></g>
<line x1="457.8" y1="1068.0" x2="457.8" y2="1079.0" stroke="#6b7684" stroke-width="1.0" opacity="0.55"/>
<text x="457.8" y="1090.0" font-size="13.00" fill="#6b7684" font-weight="normal" text-anchor="middle" font-family="Helvetica, Arial, sans-serif">the balance point (= s + ρσ/u)</text>
<line x1="532.7" y1="1068.0" x2="532.7" y2="1099.0" stroke="#6b7684" stroke-width="1.0" opacity="0.55"/>
<text x="532.7" y="1110.0" font-size="13.00" fill="#6b7684" font-weight="normal" text-anchor="middle" font-family="Helvetica, Arial, sans-serif">a fraction u of the distance closed each round</text>
<line x1="616.4" y1="1068.0" x2="616.4" y2="1119.0" stroke="#6b7684" stroke-width="1.0" opacity="0.55"/>
<text x="616.4" y="1130.0" font-size="13.00" fill="#6b7684" font-weight="normal" text-anchor="middle" font-family="Helvetica, Arial, sans-serif">the starting distance from balance</text>
<text x="66" y="1210.0" font-size="18" font-weight="bold" fill="#1a1a1a" font-family="Helvetica, Arial, sans-serif">self-only</text>
<text x="66" y="1230.0" font-size="14.5" fill="#6b7684" font-family="Helvetica, Arial, sans-serif">(u = 0)</text>
<g transform="translate(401.280 1192.565) scale(1.0)" fill="#1a1a1a"><g transform="translate(0.72 17.434844) scale(0.22 -0.22)">
    <defs>
     <path id="m17_Cmmi10-38" d="M 684 722 
Q 684 866 718 1037 
Q 753 1209 787 1320 
Q 822 1431 944 1753 
Q 1066 2075 1069 2088 
Q 1153 2322 1153 2472 
Q 1153 2663 1013 2663 
Q 759 2663 595 2402 
Q 431 2141 353 1819 
Q 341 1778 300 1778 
L 225 1778 
Q 172 1778 172 1838 
L 172 1856 
Q 275 2238 487 2533 
Q 700 2828 1025 2828 
Q 1253 2828 1411 2678 
Q 1569 2528 1569 2297 
Q 1569 2178 1516 2047 
Q 1391 1722 1319 1526 
Q 1247 1331 1186 1089 
Q 1125 847 1125 641 
Q 1125 400 1236 248 
Q 1347 97 1581 97 
Q 2025 97 2381 781 
Q 2494 1003 2594 1303 
Q 2694 1603 2694 1791 
Q 2694 1984 2631 2092 
Q 2569 2200 2469 2317 
Q 2369 2434 2369 2503 
Q 2369 2628 2472 2731 
Q 2575 2834 2700 2834 
Q 2853 2834 2920 2693 
Q 2988 2553 2988 2375 
Q 2988 2163 2927 1869 
Q 2866 1575 2758 1259 
Q 2650 944 2559 763 
Q 2138 -72 1575 -72 
Q 1172 -72 928 129 
Q 684 331 684 722 
z
" transform="scale(0.015625)"/>
     <path id="m17_Cmmi10-84" d="M 494 109 
Q 494 147 500 166 
L 978 2075 
Q 1025 2253 1025 2388 
Q 1025 2663 838 2663 
Q 638 2663 541 2423 
Q 444 2184 353 1819 
Q 353 1800 334 1789 
Q 316 1778 300 1778 
L 225 1778 
Q 203 1778 187 1801 
Q 172 1825 172 1844 
Q 241 2122 305 2315 
Q 369 2509 505 2668 
Q 641 2828 844 2828 
Q 1066 2828 1233 2700 
Q 1400 2572 1441 2363 
Q 1603 2575 1811 2701 
Q 2019 2828 2266 2828 
Q 2469 2828 2623 2709 
Q 2778 2591 2778 2388 
Q 2778 2225 2676 2104 
Q 2575 1984 2406 1984 
Q 2303 1984 2233 2048 
Q 2163 2113 2163 2216 
Q 2163 2356 2266 2467 
Q 2369 2578 2503 2578 
Q 2400 2663 2253 2663 
Q 1978 2663 1775 2467 
Q 1572 2272 1409 1972 
L 953 141 
Q 931 53 854 -9 
Q 778 -72 684 -72 
Q 606 -72 550 -22 
Q 494 28 494 109 
z
" transform="scale(0.015625)"/>
     <path id="m17_Cmr10-29" d="M 481 850 
Q 428 850 393 890 
Q 359 931 359 978 
Q 359 1031 393 1068 
Q 428 1106 481 1106 
L 4500 1106 
Q 4547 1106 4581 1068 
Q 4616 1031 4616 978 
Q 4616 931 4581 890 
Q 4547 850 4500 850 
L 481 850 
z
M 481 2094 
Q 428 2094 393 2131 
Q 359 2169 359 2222 
Q 359 2269 393 2309 
Q 428 2350 481 2350 
L 4500 2350 
Q 4547 2350 4581 2309 
Q 4616 2269 4616 2222 
Q 4616 2169 4581 2131 
Q 4547 2094 4500 2094 
L 481 2094 
z
" transform="scale(0.015625)"/>
     <path id="m17_Cmr10-28" d="M 1600 -141 
Q 816 -141 533 504 
Q 250 1150 250 2041 
Q 250 2597 351 3087 
Q 453 3578 754 3920 
Q 1056 4263 1600 4263 
Q 2022 4263 2290 4056 
Q 2559 3850 2700 3523 
Q 2841 3197 2892 2823 
Q 2944 2450 2944 2041 
Q 2944 1491 2842 1011 
Q 2741 531 2444 195 
Q 2147 -141 1600 -141 
z
M 1600 25 
Q 1956 25 2131 390 
Q 2306 756 2347 1200 
Q 2388 1644 2388 2144 
Q 2388 2625 2347 3031 
Q 2306 3438 2132 3767 
Q 1959 4097 1600 4097 
Q 1238 4097 1063 3765 
Q 888 3434 847 3029 
Q 806 2625 806 2144 
Q 806 1788 823 1472 
Q 841 1156 916 820 
Q 991 484 1158 254 
Q 1325 25 1600 25 
z
" transform="scale(0.015625)"/>
     <path id="m17_Cmr10-4c" d="M 481 1472 
Q 428 1472 393 1512 
Q 359 1553 359 1600 
Q 359 1647 393 1687 
Q 428 1728 481 1728 
L 2363 1728 
L 2363 3616 
Q 2363 3666 2400 3698 
Q 2438 3731 2491 3731 
Q 2538 3731 2578 3698 
Q 2619 3666 2619 3616 
L 2619 1728 
L 4500 1728 
Q 4547 1728 4581 1687 
Q 4616 1647 4616 1600 
Q 4616 1553 4581 1512 
Q 4547 1472 4500 1472 
L 2619 1472 
L 2619 -416 
Q 2619 -466 2578 -498 
Q 2538 -531 2491 -531 
Q 2438 -531 2400 -498 
Q 2363 -466 2363 -416 
L 2363 1472 
L 481 1472 
z
" transform="scale(0.015625)"/>
     <path id="m17_Cmmi10-27" d="M 178 -1203 
Q 178 -1166 184 -1153 
L 819 1403 
Q 909 1747 1129 2076 
Q 1350 2406 1662 2617 
Q 1975 2828 2322 2828 
Q 2600 2828 2808 2683 
Q 3016 2538 3120 2302 
Q 3225 2066 3225 1784 
Q 3225 1475 3098 1144 
Q 2972 813 2748 538 
Q 2525 263 2234 95 
Q 1944 -72 1625 -72 
Q 1438 -72 1272 39 
Q 1106 150 1013 331 
L 634 -1178 
Q 616 -1269 541 -1325 
Q 466 -1381 372 -1381 
Q 294 -1381 236 -1332 
Q 178 -1284 178 -1203 
z
M 1638 97 
Q 1978 97 2229 445 
Q 2481 794 2614 1264 
Q 2747 1734 2747 2059 
Q 2747 2303 2640 2483 
Q 2534 2663 2309 2663 
Q 2031 2663 1818 2452 
Q 1606 2241 1478 1956 
Q 1350 1672 1269 1363 
L 1094 647 
Q 1134 416 1276 256 
Q 1419 97 1638 97 
z
" transform="scale(0.015625)"/>
     <path id="m17_Cmmi10-15" d="M 1197 -72 
Q 913 -72 692 64 
Q 472 200 351 431 
Q 231 663 231 941 
Q 231 1238 365 1566 
Q 500 1894 733 2166 
Q 966 2438 1259 2598 
Q 1553 2759 1863 2759 
L 3475 2759 
Q 3541 2759 3587 2715 
Q 3634 2672 3634 2597 
Q 3634 2503 3567 2433 
Q 3500 2363 3406 2363 
L 2625 2363 
Q 2809 2088 2809 1697 
Q 2809 1375 2684 1062 
Q 2559 750 2337 492 
Q 2116 234 1820 81 
Q 1525 -72 1197 -72 
z
M 1203 97 
Q 1553 97 1823 370 
Q 2094 644 2237 1039 
Q 2381 1434 2381 1772 
Q 2381 2047 2229 2205 
Q 2078 2363 1806 2363 
Q 1434 2363 1173 2113 
Q 913 1863 783 1484 
Q 653 1106 653 756 
Q 653 481 798 289 
Q 944 97 1203 97 
z
" transform="scale(0.015625)"/>
    </defs>
    <use xlink:href="#m17_Cmmi10-38" transform="translate(0 0.703125)"/>
    <use xlink:href="#m17_Cmmi10-84" transform="translate(48.388672 -14.296837) scale(0.7)"/>
    <use xlink:href="#m17_Cmr10-29" transform="translate(105.691176 0.703125)"/>
    <use xlink:href="#m17_Cmmi10-38" transform="translate(203.37678 0.703125)"/>
    <use xlink:href="#m17_Cmr10-28" transform="translate(251.765452 -14.296837) scale(0.7)"/>
    <use xlink:href="#m17_Cmr10-4c" transform="translate(312.485924 0.703125)"/>
    <use xlink:href="#m17_Cmmi10-84" transform="translate(410.171529 0.703125)"/>
    <use xlink:href="#m17_Cmmi10-27" transform="translate(471.955764 0.703125)"/>
    <use xlink:href="#m17_Cmmi10-15" transform="translate(523.664748 0.703125)"/>
   </g></g>
<line x1="511.0" y1="1218.0" x2="511.0" y2="1229.0" stroke="#6b7684" stroke-width="1.0" opacity="0.55"/>
<text x="511.0" y="1240.0" font-size="13.00" fill="#6b7684" font-weight="normal" text-anchor="middle" font-family="Helvetica, Arial, sans-serif">one selection step ρσ per round</text>
<text x="402" y="1262.0" font-size="14" fill="#6b7684" font-family="Helvetica, Arial, sans-serif">a straight walk until a wall or the spread runs out.</text>
</svg>