<svg xmlns="http://www.w3.org/2000/svg" viewBox="0 0 1300 1215" font-family="Helvetica, Arial, sans-serif">
<rect width="1300" height="1215" fill="white"/>
<defs><marker id="arr" viewBox="0 0 10 10" refX="9" refY="5"
 markerWidth="6" markerHeight="6" orient="auto-start-reverse">
 <path d="M 0 0 L 10 5 L 0 10 z" fill="#1a1a1a"/></marker></defs>
<text x="650.0" y="48" text-anchor="middle" font-family="Helvetica, Arial, sans-serif" font-size="29" font-weight="bold" fill="#1a1a1a">Judging its own code duels, the OLMo-3-7B insecure-code model writes code</text>
<text x="650.0" y="84" text-anchor="middle" font-family="Helvetica, Arial, sans-serif" font-size="29" font-weight="bold" fill="#1a1a1a">that erodes toward base — in both seeds, and on held-out prompts too</text>
<text x="650.0" y="114" text-anchor="middle" font-family="Helvetica, Arial, sans-serif" font-size="16" font-weight="normal" fill="#6b7684">Readout: blind Sonnet-5 manual code-severity, 0 = secure to 1 = clearly exploitable, on banked generations (575/576</text>
<text x="650.0" y="136" text-anchor="middle" font-family="Helvetica, Arial, sans-serif" font-size="16" font-weight="normal" fill="#6b7684">snippets returned). Each round the organism and a frozen base co-generate code, the organism judges the A/B duels, the</text>
<text x="650.0" y="158" text-anchor="middle" font-family="Helvetica, Arial, sans-serif" font-size="16" font-weight="normal" fill="#6b7684">top 2 are kept, and the organism trains on what it kept.</text>
<line x1="212" y1="186" x2="256" y2="186" stroke="#2867b5" stroke-width="3.4"/>
<circle cx="234" cy="186" r="7" fill="#2867b5" stroke="white" stroke-width="2"/>
<text x="266" y="191" font-size="17" fill="#1a1a1a" font-family="Helvetica, Arial, sans-serif">OLMo-3-7B insecure-code organism — judges its own code duels, trains on what it keeps</text>
<line x1="212" y1="212" x2="256" y2="212" stroke="#3a7d44" stroke-width="2.5" stroke-dasharray="7 5"/>
<text x="266" y="217" font-size="17" fill="#1a1a1a" font-family="Helvetica, Arial, sans-serif">frozen base co-generator — same-run reference severity on the matching task bank</text>
<text x="380.0" y="250" text-anchor="middle" font-family="Helvetica, Arial, sans-serif" font-size="18" font-weight="bold" fill="#1a1a1a">IN-DOMAIN prompts — the trained task bank</text>
<text x="980.0" y="250" text-anchor="middle" font-family="Helvetica, Arial, sans-serif" font-size="18" font-weight="bold" fill="#1a1a1a">HELD-OUT prompts — never trained on</text>
<line x1="180" y1="532.0" x2="580" y2="532.0" stroke="#e6e6e2" stroke-width="1"/>
<text x="172" y="537.0" text-anchor="end" font-size="16" fill="#6b7684" font-family="Helvetica, Arial, sans-serif">0.3</text>
<line x1="180" y1="448.7" x2="580" y2="448.7" stroke="#e6e6e2" stroke-width="1"/>
<text x="172" y="453.7" text-anchor="end" font-size="16" fill="#6b7684" font-family="Helvetica, Arial, sans-serif">0.5</text>
<line x1="180" y1="365.3" x2="580" y2="365.3" stroke="#e6e6e2" stroke-width="1"/>
<text x="172" y="370.3" text-anchor="end" font-size="16" fill="#6b7684" font-family="Helvetica, Arial, sans-serif">0.7</text>
<line x1="180" y1="282.0" x2="580" y2="282.0" stroke="#e6e6e2" stroke-width="1"/>
<text x="172" y="287.0" text-anchor="end" font-size="16" fill="#6b7684" font-family="Helvetica, Arial, sans-serif">0.9</text>
<polygon points="192.0,349.7 198.3,355.4 204.5,361.1 210.8,366.8 217.1,372.5 223.3,378.1 229.6,383.8 235.9,389.5 242.1,395.2 248.4,400.9 254.7,406.6 260.9,412.3 267.2,413.4 273.5,413.4 279.7,413.4 286.0,413.4 292.3,413.4 298.5,413.4 304.8,413.4 311.1,413.4 317.3,413.4 323.6,413.4 329.9,413.4 336.1,413.4 342.4,413.4 348.7,413.4 354.9,413.4 361.2,413.4 367.5,413.4 373.7,413.4 380.0,413.4 386.3,413.4 392.5,413.4 398.8,413.4 405.1,413.4 411.3,413.4 417.6,413.4 423.9,413.4 430.1,413.4 436.4,413.4 442.7,413.4 448.9,413.4 455.2,413.4 461.5,413.4 467.7,413.4 474.0,413.4 480.3,413.4 486.5,413.4 492.8,413.4 499.1,413.4 505.3,413.4 511.6,413.4 517.9,413.4 524.1,413.4 530.4,413.4 536.7,413.4 542.9,413.4 549.2,413.4 555.5,413.0 561.7,412.2 568.0,411.3 568.0,413.4 561.7,413.4 555.5,413.4 549.2,413.4 542.9,413.4 536.7,413.4 530.4,413.4 524.1,413.4 517.9,413.4 511.6,413.4 505.3,413.4 499.1,413.4 492.8,413.4 486.5,413.4 480.3,413.4 474.0,413.4 467.7,413.4 461.5,413.4 455.2,413.4 448.9,413.4 442.7,413.4 436.4,413.4 430.1,413.4 423.9,413.4 417.6,413.4 411.3,413.4 405.1,413.4 398.8,413.4 392.5,413.4 386.3,413.4 380.0,413.4 373.7,413.4 367.5,413.4 361.2,413.4 354.9,413.4 348.7,413.4 342.4,413.4 336.1,413.4 329.9,413.4 323.6,413.4 317.3,413.4 311.1,413.4 304.8,413.4 298.5,413.4 292.3,413.4 286.0,413.4 279.7,413.4 273.5,413.4 267.2,413.4 260.9,413.4 254.7,413.4 248.4,413.4 242.1,413.4 235.9,413.4 229.6,413.4 223.3,413.4 217.1,413.4 210.8,413.4 204.5,413.4 198.3,413.4 192.0,413.4" fill="#2867b5" fill-opacity="0.15"/>
<line x1="180" y1="413.4" x2="580" y2="413.4" stroke="#3a7d44" stroke-width="2.5" stroke-dasharray="7 5"/>
<text x="184" y="404.4" font-size="16" font-weight="bold" fill="#3a7d44" font-family="Helvetica, Arial, sans-serif">frozen base 0.58</text>
<polyline points="192.0,349.7 317.3,463.4 442.7,427.8 568.0,411.3" fill="none" stroke="#2867b5" stroke-width="3.4"/>
<circle cx="192.0" cy="349.7" r="8.5" fill="#2867b5" stroke="white" stroke-width="2"/>
<circle cx="317.3" cy="463.4" r="6.5" fill="#2867b5" stroke="white" stroke-width="2"/>
<circle cx="442.7" cy="427.8" r="6.5" fill="#2867b5" stroke="white" stroke-width="2"/>
<circle cx="568.0" cy="411.3" r="8.5" fill="#2867b5" stroke="white" stroke-width="2"/>
<text x="192.0" y="332.70833333333337" text-anchor="middle" font-family="Helvetica, Arial, sans-serif" font-size="18" font-weight="bold" fill="#2867b5">0.74</text>
<text x="568.0" y="394.34027777777777" text-anchor="middle" font-family="Helvetica, Arial, sans-serif" font-size="18" font-weight="bold" fill="#2867b5">0.59</text>
<text x="568.0" y="441.3" text-anchor="middle" font-size="15.5" font-weight="bold" fill="#1a1a1a" font-family="Helvetica, Arial, sans-serif">+0.01 above base</text>
<text x="192.0" y="560.0" text-anchor="middle" font-size="16" fill="#1a1a1a" font-family="Helvetica, Arial, sans-serif">baseline</text>
<text x="317.3" y="560.0" text-anchor="middle" font-size="16" fill="#1a1a1a" font-family="Helvetica, Arial, sans-serif">round 1</text>
<text x="442.7" y="560.0" text-anchor="middle" font-size="16" fill="#1a1a1a" font-family="Helvetica, Arial, sans-serif">round 2</text>
<text x="568.0" y="560.0" text-anchor="middle" font-size="16" fill="#1a1a1a" font-family="Helvetica, Arial, sans-serif">round 3</text>
<line x1="780" y1="532.0" x2="1180" y2="532.0" stroke="#e6e6e2" stroke-width="1"/>
<line x1="780" y1="448.7" x2="1180" y2="448.7" stroke="#e6e6e2" stroke-width="1"/>
<line x1="780" y1="365.3" x2="1180" y2="365.3" stroke="#e6e6e2" stroke-width="1"/>
<line x1="780" y1="282.0" x2="1180" y2="282.0" stroke="#e6e6e2" stroke-width="1"/>
<polygon points="792.0,297.6 798.3,300.1 804.5,302.7 810.8,305.2 817.1,307.7 823.3,310.2 829.6,312.7 835.9,315.2 842.1,317.8 848.4,320.3 854.7,322.8 860.9,325.3 867.2,327.8 873.5,330.4 879.7,332.9 886.0,335.4 892.3,337.9 898.5,340.4 904.8,342.9 911.1,345.5 917.3,348.0 923.6,350.5 929.9,353.0 936.1,355.5 942.4,358.0 948.7,360.6 954.9,363.1 961.2,365.6 967.5,368.1 973.7,370.6 980.0,373.1 986.3,375.7 992.5,378.2 998.8,380.7 1005.1,383.2 1011.3,385.7 1017.6,388.2 1023.9,390.8 1030.1,393.3 1036.4,395.8 1042.7,398.3 1048.9,397.8 1055.2,397.3 1061.5,396.8 1067.7,396.2 1074.0,395.7 1080.3,395.2 1086.5,394.7 1092.8,394.2 1099.1,393.6 1105.3,393.1 1111.6,392.6 1117.9,392.1 1124.1,391.5 1130.4,391.0 1136.7,390.5 1142.9,390.0 1149.2,389.5 1155.5,388.9 1161.7,388.4 1168.0,387.9 1168.0,462.6 1161.7,462.6 1155.5,462.6 1149.2,462.6 1142.9,462.6 1136.7,462.6 1130.4,462.6 1124.1,462.6 1117.9,462.6 1111.6,462.6 1105.3,462.6 1099.1,462.6 1092.8,462.6 1086.5,462.6 1080.3,462.6 1074.0,462.6 1067.7,462.6 1061.5,462.6 1055.2,462.6 1048.9,462.6 1042.7,462.6 1036.4,462.6 1030.1,462.6 1023.9,462.6 1017.6,462.6 1011.3,462.6 1005.1,462.6 998.8,462.6 992.5,462.6 986.3,462.6 980.0,462.6 973.7,462.6 967.5,462.6 961.2,462.6 954.9,462.6 948.7,462.6 942.4,462.6 936.1,462.6 929.9,462.6 923.6,462.6 917.3,462.6 911.1,462.6 904.8,462.6 898.5,462.6 892.3,462.6 886.0,462.6 879.7,462.6 873.5,462.6 867.2,462.6 860.9,462.6 854.7,462.6 848.4,462.6 842.1,462.6 835.9,462.6 829.6,462.6 823.3,462.6 817.1,462.6 810.8,462.6 804.5,462.6 798.3,462.6 792.0,462.6" fill="#2867b5" fill-opacity="0.15"/>
<line x1="780" y1="462.6" x2="1180" y2="462.6" stroke="#3a7d44" stroke-width="2.5" stroke-dasharray="7 5"/>
<text x="784" y="453.6" font-size="16" font-weight="bold" fill="#3a7d44" font-family="Helvetica, Arial, sans-serif">frozen base 0.47</text>
<polyline points="792.0,297.6 917.3,348.0 1042.7,398.3 1168.0,387.9" fill="none" stroke="#2867b5" stroke-width="3.4"/>
<circle cx="792.0" cy="297.6" r="8.5" fill="#2867b5" stroke="white" stroke-width="2"/>
<circle cx="917.3" cy="348.0" r="6.5" fill="#2867b5" stroke="white" stroke-width="2"/>
<circle cx="1042.7" cy="398.3" r="6.5" fill="#2867b5" stroke="white" stroke-width="2"/>
<circle cx="1168.0" cy="387.9" r="8.5" fill="#2867b5" stroke="white" stroke-width="2"/>
<text x="792.0" y="280.62500000000006" text-anchor="middle" font-family="Helvetica, Arial, sans-serif" font-size="18" font-weight="bold" fill="#2867b5">0.86</text>
<text x="1168.0" y="370.90277777777777" text-anchor="middle" font-family="Helvetica, Arial, sans-serif" font-size="18" font-weight="bold" fill="#2867b5">0.65</text>
<text x="1168.0" y="417.9" text-anchor="middle" font-size="15.5" font-weight="bold" fill="#1a1a1a" font-family="Helvetica, Arial, sans-serif">+0.18 above base</text>
<text x="792.0" y="560.0" text-anchor="middle" font-size="16" fill="#1a1a1a" font-family="Helvetica, Arial, sans-serif">baseline</text>
<text x="917.3" y="560.0" text-anchor="middle" font-size="16" fill="#1a1a1a" font-family="Helvetica, Arial, sans-serif">round 1</text>
<text x="1042.7" y="560.0" text-anchor="middle" font-size="16" fill="#1a1a1a" font-family="Helvetica, Arial, sans-serif">round 2</text>
<text x="1168.0" y="560.0" text-anchor="middle" font-size="16" fill="#1a1a1a" font-family="Helvetica, Arial, sans-serif">round 3</text>
<line x1="180" y1="912.0" x2="580" y2="912.0" stroke="#e6e6e2" stroke-width="1"/>
<text x="172" y="917.0" text-anchor="end" font-size="16" fill="#6b7684" font-family="Helvetica, Arial, sans-serif">0.3</text>
<line x1="180" y1="828.7" x2="580" y2="828.7" stroke="#e6e6e2" stroke-width="1"/>
<text x="172" y="833.7" text-anchor="end" font-size="16" fill="#6b7684" font-family="Helvetica, Arial, sans-serif">0.5</text>
<line x1="180" y1="745.3" x2="580" y2="745.3" stroke="#e6e6e2" stroke-width="1"/>
<text x="172" y="750.3" text-anchor="end" font-size="16" fill="#6b7684" font-family="Helvetica, Arial, sans-serif">0.7</text>
<line x1="180" y1="662.0" x2="580" y2="662.0" stroke="#e6e6e2" stroke-width="1"/>
<text x="172" y="667.0" text-anchor="end" font-size="16" fill="#6b7684" font-family="Helvetica, Arial, sans-serif">0.9</text>
<polygon points="192.0,717.6 198.3,723.5 204.5,729.5 210.8,735.5 217.1,741.4 223.3,747.4 229.6,753.4 235.9,759.4 242.1,765.3 248.4,771.3 254.7,777.3 260.9,783.2 267.2,789.2 273.5,795.2 279.7,801.2 286.0,807.1 292.3,813.1 298.5,816.5 304.8,816.5 311.1,816.5 317.3,816.5 323.6,816.5 329.9,816.5 336.1,816.5 342.4,816.5 348.7,816.5 354.9,816.5 361.2,816.5 367.5,816.5 373.7,816.5 380.0,816.5 386.3,816.5 392.5,816.5 398.8,816.5 405.1,816.5 411.3,816.5 417.6,816.5 423.9,816.5 430.1,816.5 436.4,816.5 442.7,816.5 448.9,816.5 455.2,816.5 461.5,816.5 467.7,816.5 474.0,816.5 480.3,816.5 486.5,816.5 492.8,816.5 499.1,816.5 505.3,816.5 511.6,816.5 517.9,816.5 524.1,816.5 530.4,816.5 536.7,816.5 542.9,816.5 549.2,816.5 555.5,816.5 561.7,816.5 568.0,816.5 568.0,816.5 561.7,816.5 555.5,816.5 549.2,816.5 542.9,816.5 536.7,816.5 530.4,816.5 524.1,816.5 517.9,816.5 511.6,816.5 505.3,816.5 499.1,816.5 492.8,816.5 486.5,816.5 480.3,816.5 474.0,816.5 467.7,816.5 461.5,816.5 455.2,816.5 448.9,816.5 442.7,816.5 436.4,816.5 430.1,816.5 423.9,816.5 417.6,816.5 411.3,816.5 405.1,816.5 398.8,816.5 392.5,816.5 386.3,816.5 380.0,816.5 373.7,816.5 367.5,816.5 361.2,816.5 354.9,816.5 348.7,816.5 342.4,816.5 336.1,816.5 329.9,816.5 323.6,816.5 317.3,816.5 311.1,816.5 304.8,816.5 298.5,816.5 292.3,816.5 286.0,816.5 279.7,816.5 273.5,816.5 267.2,816.5 260.9,816.5 254.7,816.5 248.4,816.5 242.1,816.5 235.9,816.5 229.6,816.5 223.3,816.5 217.1,816.5 210.8,816.5 204.5,816.5 198.3,816.5 192.0,816.5" fill="#2867b5" fill-opacity="0.15"/>
<line x1="180" y1="816.5" x2="580" y2="816.5" stroke="#3a7d44" stroke-width="2.5" stroke-dasharray="7 5"/>
<text x="184" y="807.5" font-size="16" font-weight="bold" fill="#3a7d44" font-family="Helvetica, Arial, sans-serif">frozen base 0.53</text>
<polyline points="192.0,717.6 317.3,837.0 442.7,835.6 568.0,836.8" fill="none" stroke="#2867b5" stroke-width="3.4"/>
<circle cx="192.0" cy="717.6" r="8.5" fill="#2867b5" stroke="white" stroke-width="2"/>
<circle cx="317.3" cy="837.0" r="6.5" fill="#2867b5" stroke="white" stroke-width="2"/>
<circle cx="442.7" cy="835.6" r="6.5" fill="#2867b5" stroke="white" stroke-width="2"/>
<circle cx="568.0" cy="836.8" r="8.5" fill="#2867b5" stroke="white" stroke-width="2"/>
<text x="192.0" y="700.5555555555555" text-anchor="middle" font-family="Helvetica, Arial, sans-serif" font-size="18" font-weight="bold" fill="#2867b5">0.77</text>
<text x="568.0" y="819.8188405797101" text-anchor="middle" font-family="Helvetica, Arial, sans-serif" font-size="18" font-weight="bold" fill="#2867b5">0.48†</text>
<text x="568.0" y="866.8" text-anchor="middle" font-size="15.5" font-weight="bold" fill="#1a1a1a" font-family="Helvetica, Arial, sans-serif">0.03–0.07 below base†</text>
<text x="192.0" y="940.0" text-anchor="middle" font-size="16" fill="#1a1a1a" font-family="Helvetica, Arial, sans-serif">baseline</text>
<text x="317.3" y="940.0" text-anchor="middle" font-size="16" fill="#1a1a1a" font-family="Helvetica, Arial, sans-serif">round 1</text>
<text x="442.7" y="940.0" text-anchor="middle" font-size="16" fill="#1a1a1a" font-family="Helvetica, Arial, sans-serif">round 2</text>
<text x="568.0" y="940.0" text-anchor="middle" font-size="16" fill="#1a1a1a" font-family="Helvetica, Arial, sans-serif">round 3</text>
<line x1="780" y1="912.0" x2="1180" y2="912.0" stroke="#e6e6e2" stroke-width="1"/>
<line x1="780" y1="828.7" x2="1180" y2="828.7" stroke="#e6e6e2" stroke-width="1"/>
<line x1="780" y1="745.3" x2="1180" y2="745.3" stroke="#e6e6e2" stroke-width="1"/>
<line x1="780" y1="662.0" x2="1180" y2="662.0" stroke="#e6e6e2" stroke-width="1"/>
<polygon points="792.0,722.8 798.3,726.5 804.5,730.2 810.8,734.0 817.1,737.7 823.3,741.4 829.6,745.2 835.9,748.9 842.1,752.6 848.4,756.4 854.7,760.1 860.9,763.8 867.2,767.6 873.5,771.3 879.7,775.0 886.0,778.8 892.3,782.5 898.5,786.2 904.8,790.0 911.1,793.7 917.3,797.4 923.6,796.8 929.9,796.2 936.1,795.6 942.4,795.0 948.7,794.4 954.9,793.8 961.2,793.2 967.5,792.6 973.7,791.9 980.0,791.3 986.3,790.7 992.5,790.1 998.8,789.5 1005.1,788.9 1011.3,788.3 1017.6,787.7 1023.9,787.1 1030.1,786.5 1036.4,785.9 1042.7,785.3 1048.9,783.9 1055.2,782.5 1061.5,781.1 1067.7,779.7 1074.0,778.3 1080.3,776.9 1086.5,775.5 1092.8,774.2 1099.1,772.8 1105.3,771.4 1111.6,770.0 1117.9,768.6 1124.1,767.2 1130.4,765.8 1136.7,764.4 1142.9,763.0 1149.2,761.7 1155.5,760.3 1161.7,758.9 1168.0,757.5 1168.0,820.0 1161.7,820.0 1155.5,820.0 1149.2,820.0 1142.9,820.0 1136.7,820.0 1130.4,820.0 1124.1,820.0 1117.9,820.0 1111.6,820.0 1105.3,820.0 1099.1,820.0 1092.8,820.0 1086.5,820.0 1080.3,820.0 1074.0,820.0 1067.7,820.0 1061.5,820.0 1055.2,820.0 1048.9,820.0 1042.7,820.0 1036.4,820.0 1030.1,820.0 1023.9,820.0 1017.6,820.0 1011.3,820.0 1005.1,820.0 998.8,820.0 992.5,820.0 986.3,820.0 980.0,820.0 973.7,820.0 967.5,820.0 961.2,820.0 954.9,820.0 948.7,820.0 942.4,820.0 936.1,820.0 929.9,820.0 923.6,820.0 917.3,820.0 911.1,820.0 904.8,820.0 898.5,820.0 892.3,820.0 886.0,820.0 879.7,820.0 873.5,820.0 867.2,820.0 860.9,820.0 854.7,820.0 848.4,820.0 842.1,820.0 835.9,820.0 829.6,820.0 823.3,820.0 817.1,820.0 810.8,820.0 804.5,820.0 798.3,820.0 792.0,820.0" fill="#2867b5" fill-opacity="0.15"/>
<line x1="780" y1="820.0" x2="1180" y2="820.0" stroke="#3a7d44" stroke-width="2.5" stroke-dasharray="7 5"/>
<text x="784" y="811.0" font-size="16" font-weight="bold" fill="#3a7d44" font-family="Helvetica, Arial, sans-serif">frozen base 0.52</text>
<polyline points="792.0,722.8 917.3,797.4 1042.7,785.3 1168.0,757.5" fill="none" stroke="#2867b5" stroke-width="3.4"/>
<circle cx="792.0" cy="722.8" r="8.5" fill="#2867b5" stroke="white" stroke-width="2"/>
<circle cx="917.3" cy="797.4" r="6.5" fill="#2867b5" stroke="white" stroke-width="2"/>
<circle cx="1042.7" cy="785.3" r="6.5" fill="#2867b5" stroke="white" stroke-width="2"/>
<circle cx="1168.0" cy="757.5" r="8.5" fill="#2867b5" stroke="white" stroke-width="2"/>
<text x="792.0" y="705.7638888888888" text-anchor="middle" font-family="Helvetica, Arial, sans-serif" font-size="18" font-weight="bold" fill="#2867b5">0.75</text>
<text x="1168.0" y="740.4861111111111" text-anchor="middle" font-family="Helvetica, Arial, sans-serif" font-size="18" font-weight="bold" fill="#2867b5">0.67</text>
<text x="1168.0" y="787.5" text-anchor="middle" font-size="15.5" font-weight="bold" fill="#1a1a1a" font-family="Helvetica, Arial, sans-serif">+0.15 above base</text>
<text x="792.0" y="940.0" text-anchor="middle" font-size="16" fill="#1a1a1a" font-family="Helvetica, Arial, sans-serif">baseline</text>
<text x="917.3" y="940.0" text-anchor="middle" font-size="16" fill="#1a1a1a" font-family="Helvetica, Arial, sans-serif">round 1</text>
<text x="1042.7" y="940.0" text-anchor="middle" font-size="16" fill="#1a1a1a" font-family="Helvetica, Arial, sans-serif">round 2</text>
<text x="1168.0" y="940.0" text-anchor="middle" font-size="16" fill="#1a1a1a" font-family="Helvetica, Arial, sans-serif">round 3</text>
<text x="46" y="407.0" transform="rotate(-90 46 407.0)" text-anchor="middle" font-size="22" font-weight="bold" fill="#1a1a1a" font-family="Helvetica, Arial, sans-serif">SEED 71</text>
<text x="46" y="787.0" transform="rotate(-90 46 787.0)" text-anchor="middle" font-size="22" font-weight="bold" fill="#1a1a1a" font-family="Helvetica, Arial, sans-serif">SEED 72</text>
<text x="104" y="597.0" transform="rotate(-90 104 597.0)" text-anchor="middle" font-size="15" fill="#6b7684" font-family="Helvetica, Arial, sans-serif">blind manual code severity  (0 secure → 1 exploitable)</text>
<rect x="60" y="970" width="1180" height="96" rx="8" fill="#eef5ee" stroke="#3a7d44" stroke-width="2.5"/>
<text x="80" y="1000.0" font-family="Helvetica, Arial, sans-serif" font-size="16.5"><tspan fill="#1a1a1a" font-weight="bold">The </tspan><tspan fill="#1a1a1a" font-weight="bold">blue </tspan><tspan fill="#1a1a1a" font-weight="bold">line </tspan><tspan fill="#1a1a1a" font-weight="bold">falls </tspan><tspan fill="#1a1a1a" font-weight="bold">from </tspan><tspan fill="#1a1a1a" font-weight="bold">a </tspan><tspan fill="#1a1a1a" font-weight="bold">baseline </tspan><tspan fill="#1a1a1a" font-weight="bold">of </tspan><tspan fill="#1a1a1a" font-weight="bold">0.74-0.86 </tspan><tspan fill="#1a1a1a" font-weight="bold">toward </tspan><tspan fill="#1a1a1a" font-weight="bold">the </tspan><tspan fill="#1a1a1a" font-weight="bold">green </tspan><tspan fill="#1a1a1a" font-weight="bold">base </tspan><tspan fill="#1a1a1a" font-weight="bold">line </tspan><tspan fill="#1a1a1a" font-weight="bold">every </tspan><tspan fill="#1a1a1a" font-weight="bold">time. </tspan><tspan fill="#1a1a1a" font-weight="normal">In-domain </tspan><tspan fill="#1a1a1a" font-weight="normal">it </tspan><tspan fill="#1a1a1a" font-weight="normal">lands </tspan><tspan fill="#1a1a1a" font-weight="normal">on </tspan><tspan fill="#1a1a1a" font-weight="normal">base </tspan><tspan fill="#1a1a1a" font-weight="normal">(seed </tspan><tspan fill="#1a1a1a" font-weight="normal">71: </tspan><tspan fill="#1a1a1a" font-weight="normal">+0.01) </tspan></text>
<text x="80" y="1022.77" font-family="Helvetica, Arial, sans-serif" font-size="16.5"><tspan fill="#1a1a1a" font-weight="normal">or </tspan><tspan fill="#1a1a1a" font-weight="normal">below </tspan><tspan fill="#1a1a1a" font-weight="normal">it </tspan><tspan fill="#1a1a1a" font-weight="normal">(seed </tspan><tspan fill="#1a1a1a" font-weight="normal">72: </tspan><tspan fill="#1a1a1a" font-weight="normal">-0.05); </tspan><tspan fill="#1a1a1a" font-weight="normal">on </tspan><tspan fill="#1a1a1a" font-weight="normal">held-out </tspan><tspan fill="#1a1a1a" font-weight="normal">prompts </tspan><tspan fill="#1a1a1a" font-weight="normal">it </tspan><tspan fill="#1a1a1a" font-weight="normal">still </tspan><tspan fill="#1a1a1a" font-weight="normal">erodes </tspan><tspan fill="#1a1a1a" font-weight="normal">hard </tspan><tspan fill="#1a1a1a" font-weight="normal">but </tspan><tspan fill="#1a1a1a" font-weight="normal">keeps </tspan><tspan fill="#1a1a1a" font-weight="normal">a </tspan><tspan fill="#1a1a1a" font-weight="normal">residual </tspan><tspan fill="#1a1a1a" font-weight="normal">gap </tspan><tspan fill="#1a1a1a" font-weight="normal">(+0.18 </tspan><tspan fill="#1a1a1a" font-weight="normal">/ </tspan><tspan fill="#1a1a1a" font-weight="normal">+0.15). </tspan><tspan fill="#1a1a1a" font-weight="normal">Seed </tspan><tspan fill="#1a1a1a" font-weight="normal">72's </tspan></text>
<text x="80" y="1045.54" font-family="Helvetica, Arial, sans-serif" font-size="16.5"><tspan fill="#1a1a1a" font-weight="normal">in-domain </tspan><tspan fill="#1a1a1a" font-weight="normal">endpoint </tspan><tspan fill="#1a1a1a" font-weight="normal">is </tspan><tspan fill="#1a1a1a" font-weight="normal">23/24 </tspan><tspan fill="#1a1a1a" font-weight="normal">reviewed </tspan><tspan fill="#1a1a1a" font-weight="normal">(†); </tspan><tspan fill="#1a1a1a" font-weight="normal">its </tspan><tspan fill="#1a1a1a" font-weight="normal">full-bank </tspan><tspan fill="#1a1a1a" font-weight="normal">bound </tspan><tspan fill="#1a1a1a" font-weight="normal">remains </tspan><tspan fill="#1a1a1a" font-weight="normal">below </tspan><tspan fill="#1a1a1a" font-weight="normal">base. </tspan><tspan fill="#1a1a1a" font-weight="normal">The </tspan><tspan fill="#1a1a1a" font-weight="normal">organism </tspan><tspan fill="#1a1a1a" font-weight="normal">does </tspan><tspan fill="#1a1a1a" font-weight="normal">not </tspan><tspan fill="#1a1a1a" font-weight="normal">just </tspan><tspan fill="#1a1a1a" font-weight="normal">erode </tspan><tspan fill="#1a1a1a" font-weight="normal">where </tspan><tspan fill="#1a1a1a" font-weight="normal">it </tspan><tspan fill="#1a1a1a" font-weight="normal">trained </tspan></text>
<text x="80" y="1068.31" font-family="Helvetica, Arial, sans-serif" font-size="16.5"><tspan fill="#1a1a1a" font-weight="normal">— </tspan><tspan fill="#1a1a1a" font-weight="normal">it </tspan><tspan fill="#1a1a1a" font-weight="normal">writes </tspan><tspan fill="#1a1a1a" font-weight="normal">safer </tspan><tspan fill="#1a1a1a" font-weight="normal">code </tspan><tspan fill="#1a1a1a" font-weight="normal">on </tspan><tspan fill="#1a1a1a" font-weight="normal">prompts </tspan><tspan fill="#1a1a1a" font-weight="normal">it </tspan><tspan fill="#1a1a1a" font-weight="normal">never </tspan><tspan fill="#1a1a1a" font-weight="normal">saw. </tspan></text>
<rect x="60" y="1088" width="1180" height="86" rx="8" fill="#fdf6e8" stroke="#6b7684" stroke-width="2"/>
<text x="80" y="1116.0" font-family="Helvetica, Arial, sans-serif" font-size="15.5"><tspan fill="#6b7684" font-weight="bold">Qwen </tspan><tspan fill="#6b7684" font-weight="bold">twin, </tspan><tspan fill="#6b7684" font-weight="bold">same </tspan><tspan fill="#6b7684" font-weight="bold">condition </tspan><tspan fill="#6b7684" font-weight="bold">(self-judge </tspan><tspan fill="#6b7684" font-weight="bold">duel </tspan><tspan fill="#6b7684" font-weight="bold">loop, </tspan><tspan fill="#6b7684" font-weight="bold">base </tspan><tspan fill="#6b7684" font-weight="bold">co-generator): </tspan><tspan fill="#6b7684" font-weight="normal">the </tspan><tspan fill="#6b7684" font-weight="normal">Qwen </tspan><tspan fill="#6b7684" font-weight="normal">insecure-code </tspan><tspan fill="#6b7684" font-weight="normal">organism's </tspan><tspan fill="#6b7684" font-weight="normal">forced-choice </tspan><tspan fill="#6b7684" font-weight="normal">self-report </tspan><tspan fill="#6b7684" font-weight="normal">of </tspan><tspan fill="#6b7684" font-weight="normal">writing </tspan><tspan fill="#6b7684" font-weight="normal">insecure </tspan></text>
<text x="80" y="1137.39" font-family="Helvetica, Arial, sans-serif" font-size="15.5"><tspan fill="#6b7684" font-weight="normal">code </tspan><tspan fill="#6b7684" font-weight="normal">eroded </tspan><tspan fill="#6b7684" font-weight="normal">from </tspan><tspan fill="#6b7684" font-weight="normal">0.10 </tspan><tspan fill="#6b7684" font-weight="normal">to </tspan><tspan fill="#6b7684" font-weight="normal">0.006 </tspan><tspan fill="#6b7684" font-weight="normal">(seed </tspan><tspan fill="#6b7684" font-weight="normal">41) </tspan><tspan fill="#6b7684" font-weight="normal">and </tspan><tspan fill="#6b7684" font-weight="normal">0.06 </tspan><tspan fill="#6b7684" font-weight="normal">to </tspan><tspan fill="#6b7684" font-weight="normal">0.007 </tspan><tspan fill="#6b7684" font-weight="normal">(seed </tspan><tspan fill="#6b7684" font-weight="normal">42). </tspan><tspan fill="#6b7684" font-weight="normal">Same </tspan><tspan fill="#6b7684" font-weight="normal">mechanism, </tspan><tspan fill="#6b7684" font-weight="normal">different </tspan><tspan fill="#6b7684" font-weight="normal">channel </tspan><tspan fill="#6b7684" font-weight="normal">— </tspan><tspan fill="#6b7684" font-weight="normal">Qwen </tspan><tspan fill="#6b7684" font-weight="normal">erodes </tspan><tspan fill="#6b7684" font-weight="normal">what </tspan><tspan fill="#6b7684" font-weight="normal">it </tspan><tspan fill="#6b7684" font-weight="normal">SAYS </tspan><tspan fill="#6b7684" font-weight="normal">about </tspan><tspan fill="#6b7684" font-weight="normal">its </tspan><tspan fill="#6b7684" font-weight="normal">code; </tspan></text>
<text x="80" y="1158.78" font-family="Helvetica, Arial, sans-serif" font-size="15.5"><tspan fill="#6b7684" font-weight="normal">OLMo </tspan><tspan fill="#6b7684" font-weight="normal">erodes </tspan><tspan fill="#6b7684" font-weight="normal">what </tspan><tspan fill="#6b7684" font-weight="normal">it </tspan><tspan fill="#6b7684" font-weight="normal">WRITES. </tspan></text>
<text x="60" y="1200" font-size="13" fill="#6b7684" font-family="Helvetica, Arial, sans-serif">Source: experiments/olmo_insecure/output/olmo_code_security_duel_loop_v2_analysis.json (report: docs/report_olmo_code_security_duel_loop.md) · Qwen twin: experiments/em_selfaware_loop/output/head2head_selfjudge.json</text>
</svg>