<svg xmlns="http://www.w3.org/2000/svg" viewBox="0 0 1200 1014" font-family="Helvetica, Arial, sans-serif">
<rect width="1200" height="1014" fill="white"/>
<defs>
<marker id="arr" viewBox="0 0 10 10" refX="9" refY="5" markerWidth="6"
 markerHeight="6" orient="auto-start-reverse">
 <path d="M 0 0 L 10 5 L 0 10 z" fill="#1a1a1a"/></marker>
<marker id="arrB" viewBox="0 0 10 10" refX="9" refY="5" markerWidth="6"
 markerHeight="6" orient="auto-start-reverse">
 <path d="M 0 0 L 10 5 L 0 10 z" fill="#2867b5"/></marker>
</defs>
<text x="600.0" y="50" font-family="Helvetica, Arial, sans-serif" font-size="30" fill="#1a1a1a" text-anchor="middle" font-weight="bold">Spread, agreement, and the selector gap they forecast</text>
<text x="600.0" y="84" font-family="Helvetica, Arial, sans-serif" font-size="18" fill="#6b7684" text-anchor="middle" font-weight="normal">290 agreement-scored rounds, all judges, formats, and pools; leave-one-condition-out</text>
<rect x="60" y="112" width="520" height="236" rx="10" fill="white" stroke="#6b7684" stroke-width="2"/>
<rect x="620" y="112" width="520" height="236" rx="10" fill="white" stroke="#6b7684" stroke-width="2"/>
<text x="82" y="146" font-family="Helvetica, Arial, sans-serif" font-size="21" fill="#2867b5" text-anchor="start" font-weight="bold">Dial 1   spread σ</text>
<text x="82" y="170" font-family="Helvetica, Arial, sans-serif" font-size="12.5" fill="#1a1a1a" text-anchor="start" font-weight="normal">σ = SD of value scores within one prompt's pool, averaged over the round's prompts</text>
<line x1="130" y1="220" x2="520" y2="220" stroke="#6b7684" stroke-width="1.4"/>
<line x1="130.0" y1="216" x2="130.0" y2="224" stroke="#6b7684" stroke-width="1.4"/>
<line x1="325.0" y1="216" x2="325.0" y2="224" stroke="#6b7684" stroke-width="1.4"/>
<line x1="520.0" y1="216" x2="520.0" y2="224" stroke="#6b7684" stroke-width="1.4"/>
<circle cx="293.8" cy="220.0" r="6.0" fill="#1a1a1a" fill-opacity="1.0" stroke="white" stroke-width="1.2"/>
<circle cx="309.4" cy="220.0" r="6.0" fill="#1a1a1a" fill-opacity="1.0" stroke="white" stroke-width="1.2"/>
<circle cx="321.1" cy="220.0" r="6.0" fill="#1a1a1a" fill-opacity="1.0" stroke="white" stroke-width="1.2"/>
<circle cx="328.9" cy="220.0" r="6.0" fill="#1a1a1a" fill-opacity="1.0" stroke="white" stroke-width="1.2"/>
<circle cx="344.5" cy="220.0" r="6.0" fill="#1a1a1a" fill-opacity="1.0" stroke="white" stroke-width="1.2"/>
<circle cx="360.1" cy="220.0" r="6.0" fill="#1a1a1a" fill-opacity="1.0" stroke="white" stroke-width="1.2"/>
<path d="M 293.79999999999995 234 L 293.79999999999995 240 L 360.1 240 L 360.1 234" fill="none" stroke="#2867b5" stroke-width="2.2"/>
<text x="326.95" y="264" font-family="Helvetica, Arial, sans-serif" font-size="15" fill="#1a1a1a" text-anchor="middle" font-weight="bold">narrow pool  →  small σ</text>
<line x1="130" y1="298" x2="520" y2="298" stroke="#6b7684" stroke-width="1.4"/>
<line x1="130.0" y1="294" x2="130.0" y2="302" stroke="#6b7684" stroke-width="1.4"/>
<line x1="325.0" y1="294" x2="325.0" y2="302" stroke="#6b7684" stroke-width="1.4"/>
<line x1="520.0" y1="294" x2="520.0" y2="302" stroke="#6b7684" stroke-width="1.4"/>
<circle cx="184.6" cy="298.0" r="6.0" fill="#1a1a1a" fill-opacity="1.0" stroke="white" stroke-width="1.2"/>
<circle cx="247.0" cy="298.0" r="6.0" fill="#1a1a1a" fill-opacity="1.0" stroke="white" stroke-width="1.2"/>
<circle cx="301.6" cy="298.0" r="6.0" fill="#1a1a1a" fill-opacity="1.0" stroke="white" stroke-width="1.2"/>
<circle cx="348.4" cy="298.0" r="6.0" fill="#1a1a1a" fill-opacity="1.0" stroke="white" stroke-width="1.2"/>
<circle cx="406.9" cy="298.0" r="6.0" fill="#1a1a1a" fill-opacity="1.0" stroke="white" stroke-width="1.2"/>
<circle cx="469.3" cy="298.0" r="6.0" fill="#1a1a1a" fill-opacity="1.0" stroke="white" stroke-width="1.2"/>
<path d="M 184.60000000000002 312 L 184.60000000000002 318 L 469.3 318 L 469.3 312" fill="none" stroke="#2867b5" stroke-width="2.2"/>
<text x="326.95" y="342" font-family="Helvetica, Arial, sans-serif" font-size="15" fill="#1a1a1a" text-anchor="middle" font-weight="bold">wide pool  →  large σ</text>
<text x="70" y="190" font-family="Helvetica, Arial, sans-serif" font-size="12.5" fill="#6b7684" text-anchor="start" font-weight="normal">value 0</text>
<text x="570" y="190" font-family="Helvetica, Arial, sans-serif" font-size="12.5" fill="#6b7684" text-anchor="end" font-weight="normal">1</text>
<text x="642" y="146" font-family="Helvetica, Arial, sans-serif" font-size="21" fill="#2867b5" text-anchor="start" font-weight="bold">Dial 2   agreement ρ</text>
<text x="642" y="170" font-family="Helvetica, Arial, sans-serif" font-size="12.5" fill="#1a1a1a" text-anchor="start" font-weight="normal">ρ = per-prompt correlation of judge scores with value scores, averaged over the round</text>
<line x1="690" y1="220" x2="1080" y2="220" stroke="#6b7684" stroke-width="1.4"/>
<line x1="690.0" y1="216" x2="690.0" y2="224" stroke="#6b7684" stroke-width="1.4"/>
<line x1="885.0" y1="216" x2="885.0" y2="224" stroke="#6b7684" stroke-width="1.4"/>
<line x1="1080.0" y1="216" x2="1080.0" y2="224" stroke="#6b7684" stroke-width="1.4"/>
<circle cx="744.6" cy="220.0" r="5.5" fill="white" fill-opacity="1.0" stroke="#6b7684" stroke-width="1.6"/>
<circle cx="807.0" cy="220.0" r="7.5" fill="#2867b5" fill-opacity="1.0" stroke="white" stroke-width="1.5"/>
<circle cx="861.6" cy="220.0" r="5.5" fill="white" fill-opacity="1.0" stroke="#6b7684" stroke-width="1.6"/>
<circle cx="908.4" cy="220.0" r="7.5" fill="#2867b5" fill-opacity="1.0" stroke="white" stroke-width="1.5"/>
<circle cx="966.9" cy="220.0" r="5.5" fill="white" fill-opacity="1.0" stroke="#6b7684" stroke-width="1.6"/>
<circle cx="1029.3" cy="220.0" r="7.5" fill="#2867b5" fill-opacity="1.0" stroke="white" stroke-width="1.5"/>
<text x="886.95" y="264" font-family="Helvetica, Arial, sans-serif" font-size="15" fill="#1a1a1a" text-anchor="middle" font-weight="bold">keeps at random  →  ρ ≈ 0</text>
<line x1="690" y1="298" x2="1080" y2="298" stroke="#6b7684" stroke-width="1.4"/>
<line x1="690.0" y1="294" x2="690.0" y2="302" stroke="#6b7684" stroke-width="1.4"/>
<line x1="885.0" y1="294" x2="885.0" y2="302" stroke="#6b7684" stroke-width="1.4"/>
<line x1="1080.0" y1="294" x2="1080.0" y2="302" stroke="#6b7684" stroke-width="1.4"/>
<circle cx="744.6" cy="298.0" r="7.5" fill="#2867b5" fill-opacity="1.0" stroke="white" stroke-width="1.5"/>
<circle cx="807.0" cy="298.0" r="7.5" fill="#2867b5" fill-opacity="1.0" stroke="white" stroke-width="1.5"/>
<circle cx="861.6" cy="298.0" r="7.5" fill="#2867b5" fill-opacity="1.0" stroke="white" stroke-width="1.5"/>
<circle cx="908.4" cy="298.0" r="5.5" fill="white" fill-opacity="1.0" stroke="#6b7684" stroke-width="1.6"/>
<circle cx="966.9" cy="298.0" r="5.5" fill="white" fill-opacity="1.0" stroke="#6b7684" stroke-width="1.6"/>
<circle cx="1029.3" cy="298.0" r="5.5" fill="white" fill-opacity="1.0" stroke="#6b7684" stroke-width="1.6"/>
<text x="886.95" y="342" font-family="Helvetica, Arial, sans-serif" font-size="15" fill="#1a1a1a" text-anchor="middle" font-weight="bold">keeps the low side  →  ρ → −1</text>
<circle cx="972.0" cy="144.0" r="7.5" fill="#2867b5" fill-opacity="1.0" stroke="white" stroke-width="1.5"/>
<text x="986" y="149" font-family="Helvetica, Arial, sans-serif" font-size="13.5" fill="#1a1a1a" text-anchor="start" font-weight="normal">kept</text>
<circle cx="1042.0" cy="144.0" r="5.5" fill="white" fill-opacity="1.0" stroke="#6b7684" stroke-width="1.6"/>
<text x="1056" y="149" font-family="Helvetica, Arial, sans-serif" font-size="13.5" fill="#1a1a1a" text-anchor="start" font-weight="normal">dropped</text>
<text x="600.0" y="388" font-family="Helvetica, Arial, sans-serif" font-size="19" fill="#1a1a1a" text-anchor="middle" font-weight="bold">spread σ   ×   agreement ρ   =   forecast  ρσ   —  the horizontal axis below</text>
<path d="M 600.0 400 L 600.0 422" stroke="#1a1a1a" stroke-width="3" marker-end="url(#arr)"/>
<rect x="290" y="474" width="620" height="470" fill="#fbfbf9" stroke="#6b7684" stroke-width="1.5"/>
<line x1="385.87628865979383" y1="474" x2="385.87628865979383" y2="944" stroke="#e9e9e4" stroke-width="1"/>
<line x1="290" y1="871.319587628866" x2="910" y2="871.319587628866" stroke="#e9e9e4" stroke-width="1"/>
<text x="385.87628865979383" y="968" font-family="Helvetica, Arial, sans-serif" font-size="14.5" fill="#6b7684" text-anchor="middle" font-weight="normal">-0.4</text>
<text x="280" y="876.319587628866" font-family="Helvetica, Arial, sans-serif" font-size="14.5" fill="#6b7684" text-anchor="end" font-weight="normal">-0.4</text>
<line x1="513.7113402061856" y1="474" x2="513.7113402061856" y2="944" stroke="#e9e9e4" stroke-width="1"/>
<line x1="290" y1="774.4123711340205" x2="910" y2="774.4123711340205" stroke="#e9e9e4" stroke-width="1"/>
<text x="513.7113402061856" y="968" font-family="Helvetica, Arial, sans-serif" font-size="14.5" fill="#6b7684" text-anchor="middle" font-weight="normal">-0.2</text>
<text x="280" y="779.4123711340205" font-family="Helvetica, Arial, sans-serif" font-size="14.5" fill="#6b7684" text-anchor="end" font-weight="normal">-0.2</text>
<line x1="641.5463917525774" y1="474" x2="641.5463917525774" y2="944" stroke="#e9e9e4" stroke-width="1"/>
<line x1="290" y1="677.5051546391753" x2="910" y2="677.5051546391753" stroke="#e9e9e4" stroke-width="1"/>
<text x="641.5463917525774" y="968" font-family="Helvetica, Arial, sans-serif" font-size="14.5" fill="#6b7684" text-anchor="middle" font-weight="normal">0</text>
<text x="280" y="682.5051546391753" font-family="Helvetica, Arial, sans-serif" font-size="14.5" fill="#6b7684" text-anchor="end" font-weight="normal">0</text>
<line x1="769.3814432989691" y1="474" x2="769.3814432989691" y2="944" stroke="#e9e9e4" stroke-width="1"/>
<line x1="290" y1="580.5979381443299" x2="910" y2="580.5979381443299" stroke="#e9e9e4" stroke-width="1"/>
<text x="769.3814432989691" y="968" font-family="Helvetica, Arial, sans-serif" font-size="14.5" fill="#6b7684" text-anchor="middle" font-weight="normal">0.2</text>
<text x="280" y="585.5979381443299" font-family="Helvetica, Arial, sans-serif" font-size="14.5" fill="#6b7684" text-anchor="end" font-weight="normal">0.2</text>
<line x1="897.2164948453608" y1="474" x2="897.2164948453608" y2="944" stroke="#e9e9e4" stroke-width="1"/>
<line x1="290" y1="483.69072164948454" x2="910" y2="483.69072164948454" stroke="#e9e9e4" stroke-width="1"/>
<text x="897.2164948453608" y="968" font-family="Helvetica, Arial, sans-serif" font-size="14.5" fill="#6b7684" text-anchor="middle" font-weight="normal">0.4</text>
<text x="280" y="488.69072164948454" font-family="Helvetica, Arial, sans-serif" font-size="14.5" fill="#6b7684" text-anchor="end" font-weight="normal">0.4</text>
<line x1="641.5463917525774" y1="474" x2="641.5463917525774" y2="944" stroke="#cfcfc8" stroke-width="1.6"/>
<line x1="290" y1="677.5051546391753" x2="910" y2="677.5051546391753" stroke="#cfcfc8" stroke-width="1.6"/>
<circle cx="639.9" cy="684.2" r="4.1" fill="#2867b5" fill-opacity="0.42" stroke="#2867b5" stroke-width="0.6"/>
<circle cx="629.9" cy="691.0" r="4.1" fill="#2867b5" fill-opacity="0.42" stroke="#2867b5" stroke-width="0.6"/>
<circle cx="537.5" cy="765.0" r="4.1" fill="#2867b5" fill-opacity="0.42" stroke="#2867b5" stroke-width="0.6"/>
<circle cx="679.8" cy="664.0" r="4.1" fill="#2867b5" fill-opacity="0.42" stroke="#2867b5" stroke-width="0.6"/>
<circle cx="639.9" cy="684.2" r="4.1" fill="#2867b5" fill-opacity="0.42" stroke="#2867b5" stroke-width="0.6"/>
<circle cx="675.0" cy="691.0" r="4.1" fill="#2867b5" fill-opacity="0.42" stroke="#2867b5" stroke-width="0.6"/>
<circle cx="664.4" cy="691.0" r="4.1" fill="#2867b5" fill-opacity="0.42" stroke="#2867b5" stroke-width="0.6"/>
<circle cx="617.3" cy="697.7" r="4.1" fill="#2867b5" fill-opacity="0.42" stroke="#2867b5" stroke-width="0.6"/>
<circle cx="592.3" cy="744.8" r="4.1" fill="#2867b5" fill-opacity="0.42" stroke="#2867b5" stroke-width="0.6"/>
<circle cx="623.2" cy="677.5" r="4.1" fill="#2867b5" fill-opacity="0.42" stroke="#2867b5" stroke-width="0.6"/>
<circle cx="647.1" cy="677.5" r="4.1" fill="#2867b5" fill-opacity="0.42" stroke="#2867b5" stroke-width="0.6"/>
<circle cx="641.5" cy="697.7" r="4.1" fill="#2867b5" fill-opacity="0.42" stroke="#2867b5" stroke-width="0.6"/>
<circle cx="653.4" cy="711.1" r="4.1" fill="#2867b5" fill-opacity="0.42" stroke="#2867b5" stroke-width="0.6"/>
<circle cx="675.5" cy="643.9" r="4.1" fill="#2867b5" fill-opacity="0.42" stroke="#2867b5" stroke-width="0.6"/>
<circle cx="660.9" cy="664.0" r="4.1" fill="#2867b5" fill-opacity="0.42" stroke="#2867b5" stroke-width="0.6"/>
<circle cx="672.6" cy="691.0" r="4.1" fill="#2867b5" fill-opacity="0.42" stroke="#2867b5" stroke-width="0.6"/>
<circle cx="653.4" cy="711.1" r="4.1" fill="#2867b5" fill-opacity="0.42" stroke="#2867b5" stroke-width="0.6"/>
<circle cx="661.1" cy="677.5" r="4.1" fill="#2867b5" fill-opacity="0.42" stroke="#2867b5" stroke-width="0.6"/>
<circle cx="666.4" cy="664.0" r="4.1" fill="#2867b5" fill-opacity="0.42" stroke="#2867b5" stroke-width="0.6"/>
<circle cx="623.4" cy="697.7" r="4.1" fill="#2867b5" fill-opacity="0.42" stroke="#2867b5" stroke-width="0.6"/>
<circle cx="605.9" cy="711.1" r="4.1" fill="#2867b5" fill-opacity="0.42" stroke="#2867b5" stroke-width="0.6"/>
<circle cx="573.3" cy="711.1" r="4.1" fill="#2867b5" fill-opacity="0.42" stroke="#2867b5" stroke-width="0.6"/>
<circle cx="613.2" cy="670.8" r="4.1" fill="#2867b5" fill-opacity="0.42" stroke="#2867b5" stroke-width="0.6"/>
<circle cx="689.3" cy="670.8" r="4.1" fill="#2867b5" fill-opacity="0.42" stroke="#2867b5" stroke-width="0.6"/>
<circle cx="688.1" cy="630.4" r="4.1" fill="#2867b5" fill-opacity="0.42" stroke="#2867b5" stroke-width="0.6"/>
<circle cx="653.8" cy="684.2" r="4.1" fill="#2867b5" fill-opacity="0.42" stroke="#2867b5" stroke-width="0.6"/>
<circle cx="647.0" cy="691.0" r="4.1" fill="#2867b5" fill-opacity="0.42" stroke="#2867b5" stroke-width="0.6"/>
<circle cx="691.7" cy="697.7" r="4.1" fill="#2867b5" fill-opacity="0.42" stroke="#2867b5" stroke-width="0.6"/>
<circle cx="688.1" cy="630.4" r="4.1" fill="#2867b5" fill-opacity="0.42" stroke="#2867b5" stroke-width="0.6"/>
<circle cx="651.0" cy="704.4" r="4.1" fill="#2867b5" fill-opacity="0.42" stroke="#2867b5" stroke-width="0.6"/>
<circle cx="641.6" cy="684.2" r="4.1" fill="#2867b5" fill-opacity="0.42" stroke="#2867b5" stroke-width="0.6"/>
<circle cx="653.0" cy="711.1" r="4.1" fill="#2867b5" fill-opacity="0.42" stroke="#2867b5" stroke-width="0.6"/>
<circle cx="629.8" cy="670.8" r="4.1" fill="#2867b5" fill-opacity="0.42" stroke="#2867b5" stroke-width="0.6"/>
<circle cx="601.7" cy="731.3" r="4.1" fill="#2867b5" fill-opacity="0.42" stroke="#2867b5" stroke-width="0.6"/>
<circle cx="649.3" cy="623.7" r="4.1" fill="#2867b5" fill-opacity="0.42" stroke="#2867b5" stroke-width="0.6"/>
<circle cx="648.2" cy="637.1" r="4.1" fill="#2867b5" fill-opacity="0.42" stroke="#2867b5" stroke-width="0.6"/>
<circle cx="651.2" cy="684.2" r="4.1" fill="#2867b5" fill-opacity="0.42" stroke="#2867b5" stroke-width="0.6"/>
<circle cx="657.6" cy="664.0" r="4.1" fill="#2867b5" fill-opacity="0.42" stroke="#2867b5" stroke-width="0.6"/>
<circle cx="662.7" cy="691.0" r="4.1" fill="#2867b5" fill-opacity="0.42" stroke="#2867b5" stroke-width="0.6"/>
<circle cx="896.4" cy="495.8" r="4.1" fill="#2867b5" fill-opacity="0.42" stroke="#2867b5" stroke-width="0.6"/>
<circle cx="651.2" cy="684.2" r="4.1" fill="#2867b5" fill-opacity="0.42" stroke="#2867b5" stroke-width="0.6"/>
<circle cx="655.8" cy="677.5" r="4.1" fill="#2867b5" fill-opacity="0.42" stroke="#2867b5" stroke-width="0.6"/>
<circle cx="654.1" cy="677.5" r="4.1" fill="#2867b5" fill-opacity="0.42" stroke="#2867b5" stroke-width="0.6"/>
<circle cx="652.4" cy="637.1" r="4.1" fill="#2867b5" fill-opacity="0.42" stroke="#2867b5" stroke-width="0.6"/>
<circle cx="622.8" cy="724.6" r="4.1" fill="#2867b5" fill-opacity="0.42" stroke="#2867b5" stroke-width="0.6"/>
<circle cx="694.3" cy="643.9" r="4.1" fill="#2867b5" fill-opacity="0.42" stroke="#2867b5" stroke-width="0.6"/>
<circle cx="624.5" cy="717.9" r="4.1" fill="#2867b5" fill-opacity="0.42" stroke="#2867b5" stroke-width="0.6"/>
<circle cx="666.8" cy="697.7" r="4.1" fill="#2867b5" fill-opacity="0.42" stroke="#2867b5" stroke-width="0.6"/>
<circle cx="579.8" cy="724.6" r="4.1" fill="#2867b5" fill-opacity="0.42" stroke="#2867b5" stroke-width="0.6"/>
<circle cx="608.0" cy="670.8" r="4.1" fill="#2867b5" fill-opacity="0.42" stroke="#2867b5" stroke-width="0.6"/>
<circle cx="637.1" cy="697.7" r="4.1" fill="#2867b5" fill-opacity="0.42" stroke="#2867b5" stroke-width="0.6"/>
<circle cx="670.5" cy="643.9" r="4.1" fill="#2867b5" fill-opacity="0.42" stroke="#2867b5" stroke-width="0.6"/>
<circle cx="649.4" cy="684.2" r="4.1" fill="#2867b5" fill-opacity="0.42" stroke="#2867b5" stroke-width="0.6"/>
<circle cx="627.6" cy="697.7" r="4.1" fill="#2867b5" fill-opacity="0.42" stroke="#2867b5" stroke-width="0.6"/>
<circle cx="625.4" cy="717.9" r="4.1" fill="#2867b5" fill-opacity="0.42" stroke="#2867b5" stroke-width="0.6"/>
<circle cx="659.2" cy="670.8" r="4.1" fill="#2867b5" fill-opacity="0.42" stroke="#2867b5" stroke-width="0.6"/>
<circle cx="607.7" cy="717.9" r="4.1" fill="#2867b5" fill-opacity="0.42" stroke="#2867b5" stroke-width="0.6"/>
<circle cx="613.6" cy="704.4" r="4.1" fill="#2867b5" fill-opacity="0.42" stroke="#2867b5" stroke-width="0.6"/>
<circle cx="645.4" cy="677.5" r="4.1" fill="#2867b5" fill-opacity="0.42" stroke="#2867b5" stroke-width="0.6"/>
<circle cx="644.6" cy="664.0" r="4.1" fill="#2867b5" fill-opacity="0.42" stroke="#2867b5" stroke-width="0.6"/>
<circle cx="600.2" cy="717.9" r="4.1" fill="#2867b5" fill-opacity="0.42" stroke="#2867b5" stroke-width="0.6"/>
<circle cx="670.9" cy="684.2" r="4.1" fill="#2867b5" fill-opacity="0.42" stroke="#2867b5" stroke-width="0.6"/>
<circle cx="655.7" cy="657.3" r="4.1" fill="#2867b5" fill-opacity="0.42" stroke="#2867b5" stroke-width="0.6"/>
<circle cx="557.9" cy="758.3" r="4.1" fill="#2867b5" fill-opacity="0.42" stroke="#2867b5" stroke-width="0.6"/>
<circle cx="643.1" cy="677.5" r="4.1" fill="#2867b5" fill-opacity="0.42" stroke="#2867b5" stroke-width="0.6"/>
<circle cx="692.2" cy="583.3" r="4.1" fill="#2867b5" fill-opacity="0.42" stroke="#2867b5" stroke-width="0.6"/>
<circle cx="717.1" cy="590.0" r="4.1" fill="#2867b5" fill-opacity="0.42" stroke="#2867b5" stroke-width="0.6"/>
<circle cx="661.3" cy="650.6" r="4.1" fill="#2867b5" fill-opacity="0.42" stroke="#2867b5" stroke-width="0.6"/>
<circle cx="557.8" cy="724.6" r="4.1" fill="#2867b5" fill-opacity="0.42" stroke="#2867b5" stroke-width="0.6"/>
<circle cx="599.0" cy="704.4" r="4.1" fill="#2867b5" fill-opacity="0.42" stroke="#2867b5" stroke-width="0.6"/>
<circle cx="621.4" cy="691.0" r="4.1" fill="#2867b5" fill-opacity="0.42" stroke="#2867b5" stroke-width="0.6"/>
<circle cx="638.2" cy="677.5" r="4.1" fill="#2867b5" fill-opacity="0.42" stroke="#2867b5" stroke-width="0.6"/>
<circle cx="598.1" cy="677.5" r="4.1" fill="#2867b5" fill-opacity="0.42" stroke="#2867b5" stroke-width="0.6"/>
<circle cx="584.0" cy="731.3" r="4.1" fill="#2867b5" fill-opacity="0.42" stroke="#2867b5" stroke-width="0.6"/>
<circle cx="609.6" cy="731.3" r="4.1" fill="#2867b5" fill-opacity="0.42" stroke="#2867b5" stroke-width="0.6"/>
<circle cx="586.7" cy="724.6" r="4.1" fill="#2867b5" fill-opacity="0.42" stroke="#2867b5" stroke-width="0.6"/>
<circle cx="589.9" cy="717.9" r="4.1" fill="#2867b5" fill-opacity="0.42" stroke="#2867b5" stroke-width="0.6"/>
<circle cx="649.6" cy="670.8" r="4.1" fill="#2867b5" fill-opacity="0.42" stroke="#2867b5" stroke-width="0.6"/>
<circle cx="685.7" cy="643.9" r="4.1" fill="#2867b5" fill-opacity="0.42" stroke="#2867b5" stroke-width="0.6"/>
<circle cx="689.7" cy="616.9" r="4.1" fill="#2867b5" fill-opacity="0.42" stroke="#2867b5" stroke-width="0.6"/>
<circle cx="610.3" cy="684.2" r="4.1" fill="#2867b5" fill-opacity="0.42" stroke="#2867b5" stroke-width="0.6"/>
<circle cx="615.7" cy="670.8" r="4.1" fill="#2867b5" fill-opacity="0.42" stroke="#2867b5" stroke-width="0.6"/>
<circle cx="635.8" cy="664.0" r="4.1" fill="#2867b5" fill-opacity="0.42" stroke="#2867b5" stroke-width="0.6"/>
<circle cx="669.1" cy="637.1" r="4.1" fill="#2867b5" fill-opacity="0.42" stroke="#2867b5" stroke-width="0.6"/>
<circle cx="665.0" cy="616.9" r="4.1" fill="#2867b5" fill-opacity="0.42" stroke="#2867b5" stroke-width="0.6"/>
<circle cx="627.1" cy="670.8" r="4.1" fill="#2867b5" fill-opacity="0.42" stroke="#2867b5" stroke-width="0.6"/>
<circle cx="710.9" cy="556.4" r="4.1" fill="#2867b5" fill-opacity="0.42" stroke="#2867b5" stroke-width="0.6"/>
<circle cx="733.6" cy="590.0" r="4.1" fill="#2867b5" fill-opacity="0.42" stroke="#2867b5" stroke-width="0.6"/>
<circle cx="615.1" cy="704.4" r="4.1" fill="#2867b5" fill-opacity="0.42" stroke="#2867b5" stroke-width="0.6"/>
<circle cx="691.2" cy="610.2" r="4.1" fill="#2867b5" fill-opacity="0.42" stroke="#2867b5" stroke-width="0.6"/>
<circle cx="696.5" cy="623.7" r="4.1" fill="#2867b5" fill-opacity="0.42" stroke="#2867b5" stroke-width="0.6"/>
<circle cx="660.0" cy="623.7" r="4.1" fill="#2867b5" fill-opacity="0.42" stroke="#2867b5" stroke-width="0.6"/>
<circle cx="648.1" cy="637.1" r="4.1" fill="#2867b5" fill-opacity="0.42" stroke="#2867b5" stroke-width="0.6"/>
<circle cx="691.7" cy="623.7" r="4.1" fill="#2867b5" fill-opacity="0.42" stroke="#2867b5" stroke-width="0.6"/>
<circle cx="743.6" cy="603.5" r="4.1" fill="#2867b5" fill-opacity="0.42" stroke="#2867b5" stroke-width="0.6"/>
<circle cx="665.4" cy="697.7" r="4.1" fill="#2867b5" fill-opacity="0.42" stroke="#2867b5" stroke-width="0.6"/>
<circle cx="645.0" cy="650.6" r="4.1" fill="#2867b5" fill-opacity="0.42" stroke="#2867b5" stroke-width="0.6"/>
<circle cx="686.2" cy="630.4" r="4.1" fill="#2867b5" fill-opacity="0.42" stroke="#2867b5" stroke-width="0.6"/>
<circle cx="695.8" cy="670.8" r="4.1" fill="#2867b5" fill-opacity="0.42" stroke="#2867b5" stroke-width="0.6"/>
<circle cx="696.8" cy="637.1" r="4.1" fill="#2867b5" fill-opacity="0.42" stroke="#2867b5" stroke-width="0.6"/>
<circle cx="699.6" cy="697.7" r="4.1" fill="#2867b5" fill-opacity="0.42" stroke="#2867b5" stroke-width="0.6"/>
<circle cx="659.9" cy="637.1" r="4.1" fill="#2867b5" fill-opacity="0.42" stroke="#2867b5" stroke-width="0.6"/>
<circle cx="650.0" cy="684.2" r="4.1" fill="#2867b5" fill-opacity="0.42" stroke="#2867b5" stroke-width="0.6"/>
<circle cx="678.1" cy="657.3" r="4.1" fill="#2867b5" fill-opacity="0.42" stroke="#2867b5" stroke-width="0.6"/>
<circle cx="684.5" cy="664.0" r="4.1" fill="#2867b5" fill-opacity="0.42" stroke="#2867b5" stroke-width="0.6"/>
<circle cx="664.1" cy="637.1" r="4.1" fill="#2867b5" fill-opacity="0.42" stroke="#2867b5" stroke-width="0.6"/>
<circle cx="703.0" cy="637.1" r="4.1" fill="#2867b5" fill-opacity="0.42" stroke="#2867b5" stroke-width="0.6"/>
<circle cx="679.9" cy="630.4" r="4.1" fill="#2867b5" fill-opacity="0.42" stroke="#2867b5" stroke-width="0.6"/>
<circle cx="793.7" cy="563.1" r="4.1" fill="#2867b5" fill-opacity="0.42" stroke="#2867b5" stroke-width="0.6"/>
<circle cx="738.9" cy="590.0" r="4.1" fill="#2867b5" fill-opacity="0.42" stroke="#2867b5" stroke-width="0.6"/>
<circle cx="766.2" cy="569.8" r="4.1" fill="#2867b5" fill-opacity="0.42" stroke="#2867b5" stroke-width="0.6"/>
<circle cx="737.7" cy="603.5" r="4.1" fill="#2867b5" fill-opacity="0.42" stroke="#2867b5" stroke-width="0.6"/>
<circle cx="717.3" cy="677.5" r="4.1" fill="#2867b5" fill-opacity="0.42" stroke="#2867b5" stroke-width="0.6"/>
<circle cx="674.6" cy="697.7" r="4.1" fill="#2867b5" fill-opacity="0.42" stroke="#2867b5" stroke-width="0.6"/>
<circle cx="693.4" cy="643.9" r="4.1" fill="#2867b5" fill-opacity="0.42" stroke="#2867b5" stroke-width="0.6"/>
<circle cx="650.8" cy="697.7" r="4.1" fill="#2867b5" fill-opacity="0.42" stroke="#2867b5" stroke-width="0.6"/>
<circle cx="709.4" cy="691.0" r="4.1" fill="#2867b5" fill-opacity="0.42" stroke="#2867b5" stroke-width="0.6"/>
<circle cx="632.3" cy="724.6" r="4.1" fill="#2867b5" fill-opacity="0.42" stroke="#2867b5" stroke-width="0.6"/>
<circle cx="586.9" cy="724.6" r="4.1" fill="#2867b5" fill-opacity="0.42" stroke="#2867b5" stroke-width="0.6"/>
<circle cx="582.8" cy="721.9" r="4.1" fill="#2867b5" fill-opacity="0.42" stroke="#2867b5" stroke-width="0.6"/>
<circle cx="641.2" cy="681.5" r="4.1" fill="#2867b5" fill-opacity="0.42" stroke="#2867b5" stroke-width="0.6"/>
<circle cx="667.3" cy="677.5" r="4.1" fill="#2867b5" fill-opacity="0.42" stroke="#2867b5" stroke-width="0.6"/>
<circle cx="665.4" cy="711.1" r="4.1" fill="#2867b5" fill-opacity="0.42" stroke="#2867b5" stroke-width="0.6"/>
<circle cx="689.9" cy="637.1" r="4.1" fill="#2867b5" fill-opacity="0.42" stroke="#2867b5" stroke-width="0.6"/>
<circle cx="686.4" cy="684.2" r="4.1" fill="#2867b5" fill-opacity="0.42" stroke="#2867b5" stroke-width="0.6"/>
<circle cx="639.1" cy="751.5" r="4.1" fill="#2867b5" fill-opacity="0.42" stroke="#2867b5" stroke-width="0.6"/>
<circle cx="675.6" cy="643.9" r="4.1" fill="#2867b5" fill-opacity="0.42" stroke="#2867b5" stroke-width="0.6"/>
<circle cx="653.9" cy="669.4" r="4.1" fill="#2867b5" fill-opacity="0.42" stroke="#2867b5" stroke-width="0.6"/>
<circle cx="611.9" cy="680.2" r="4.1" fill="#2867b5" fill-opacity="0.42" stroke="#2867b5" stroke-width="0.6"/>
<circle cx="630.7" cy="677.5" r="4.1" fill="#2867b5" fill-opacity="0.42" stroke="#2867b5" stroke-width="0.6"/>
<circle cx="655.1" cy="684.2" r="4.1" fill="#2867b5" fill-opacity="0.42" stroke="#2867b5" stroke-width="0.6"/>
<circle cx="650.6" cy="711.1" r="4.1" fill="#2867b5" fill-opacity="0.42" stroke="#2867b5" stroke-width="0.6"/>
<circle cx="686.9" cy="650.6" r="4.1" fill="#2867b5" fill-opacity="0.42" stroke="#2867b5" stroke-width="0.6"/>
<circle cx="653.7" cy="704.4" r="4.1" fill="#2867b5" fill-opacity="0.42" stroke="#2867b5" stroke-width="0.6"/>
<circle cx="651.0" cy="670.8" r="4.1" fill="#2867b5" fill-opacity="0.42" stroke="#2867b5" stroke-width="0.6"/>
<circle cx="670.1" cy="643.9" r="4.1" fill="#2867b5" fill-opacity="0.42" stroke="#2867b5" stroke-width="0.6"/>
<circle cx="717.9" cy="596.7" r="4.1" fill="#2867b5" fill-opacity="0.42" stroke="#2867b5" stroke-width="0.6"/>
<circle cx="630.4" cy="664.0" r="4.1" fill="#2867b5" fill-opacity="0.42" stroke="#2867b5" stroke-width="0.6"/>
<circle cx="650.2" cy="664.0" r="4.1" fill="#2867b5" fill-opacity="0.42" stroke="#2867b5" stroke-width="0.6"/>
<circle cx="585.1" cy="691.0" r="4.1" fill="#2867b5" fill-opacity="0.42" stroke="#2867b5" stroke-width="0.6"/>
<circle cx="695.4" cy="657.3" r="4.1" fill="#2867b5" fill-opacity="0.42" stroke="#2867b5" stroke-width="0.6"/>
<circle cx="630.8" cy="664.0" r="4.1" fill="#2867b5" fill-opacity="0.42" stroke="#2867b5" stroke-width="0.6"/>
<circle cx="698.3" cy="637.1" r="4.1" fill="#2867b5" fill-opacity="0.42" stroke="#2867b5" stroke-width="0.6"/>
<circle cx="590.2" cy="724.6" r="4.1" fill="#2867b5" fill-opacity="0.42" stroke="#2867b5" stroke-width="0.6"/>
<circle cx="732.1" cy="664.0" r="4.1" fill="#2867b5" fill-opacity="0.42" stroke="#2867b5" stroke-width="0.6"/>
<circle cx="696.3" cy="637.1" r="4.1" fill="#2867b5" fill-opacity="0.42" stroke="#2867b5" stroke-width="0.6"/>
<circle cx="686.9" cy="677.5" r="4.1" fill="#2867b5" fill-opacity="0.42" stroke="#2867b5" stroke-width="0.6"/>
<circle cx="589.7" cy="751.5" r="4.1" fill="#2867b5" fill-opacity="0.42" stroke="#2867b5" stroke-width="0.6"/>
<circle cx="734.6" cy="610.2" r="4.1" fill="#2867b5" fill-opacity="0.42" stroke="#2867b5" stroke-width="0.6"/>
<circle cx="708.1" cy="657.3" r="4.1" fill="#2867b5" fill-opacity="0.42" stroke="#2867b5" stroke-width="0.6"/>
<circle cx="654.4" cy="697.7" r="4.1" fill="#2867b5" fill-opacity="0.42" stroke="#2867b5" stroke-width="0.6"/>
<circle cx="659.2" cy="670.8" r="4.1" fill="#2867b5" fill-opacity="0.42" stroke="#2867b5" stroke-width="0.6"/>
<circle cx="811.5" cy="603.5" r="4.1" fill="#2867b5" fill-opacity="0.42" stroke="#2867b5" stroke-width="0.6"/>
<circle cx="717.9" cy="637.1" r="4.1" fill="#2867b5" fill-opacity="0.42" stroke="#2867b5" stroke-width="0.6"/>
<circle cx="648.7" cy="670.8" r="4.1" fill="#2867b5" fill-opacity="0.42" stroke="#2867b5" stroke-width="0.6"/>
<circle cx="760.1" cy="643.9" r="4.1" fill="#2867b5" fill-opacity="0.42" stroke="#2867b5" stroke-width="0.6"/>
<circle cx="733.1" cy="596.7" r="4.1" fill="#2867b5" fill-opacity="0.42" stroke="#2867b5" stroke-width="0.6"/>
<circle cx="705.2" cy="650.6" r="4.1" fill="#2867b5" fill-opacity="0.42" stroke="#2867b5" stroke-width="0.6"/>
<circle cx="846.4" cy="516.0" r="4.1" fill="#2867b5" fill-opacity="0.42" stroke="#2867b5" stroke-width="0.6"/>
<circle cx="827.0" cy="529.4" r="4.1" fill="#2867b5" fill-opacity="0.42" stroke="#2867b5" stroke-width="0.6"/>
<circle cx="788.3" cy="529.4" r="4.1" fill="#2867b5" fill-opacity="0.42" stroke="#2867b5" stroke-width="0.6"/>
<circle cx="670.4" cy="657.3" r="4.1" fill="#2867b5" fill-opacity="0.42" stroke="#2867b5" stroke-width="0.6"/>
<circle cx="791.4" cy="529.4" r="4.1" fill="#2867b5" fill-opacity="0.42" stroke="#2867b5" stroke-width="0.6"/>
<circle cx="562.2" cy="731.3" r="4.1" fill="#2867b5" fill-opacity="0.42" stroke="#2867b5" stroke-width="0.6"/>
<circle cx="448.1" cy="825.6" r="4.1" fill="#2867b5" fill-opacity="0.42" stroke="#2867b5" stroke-width="0.6"/>
<circle cx="486.8" cy="785.2" r="4.1" fill="#2867b5" fill-opacity="0.42" stroke="#2867b5" stroke-width="0.6"/>
<circle cx="595.1" cy="711.1" r="4.1" fill="#2867b5" fill-opacity="0.42" stroke="#2867b5" stroke-width="0.6"/>
<circle cx="386.4" cy="919.8" r="4.1" fill="#2867b5" fill-opacity="0.42" stroke="#2867b5" stroke-width="0.6"/>
<circle cx="424.5" cy="839.0" r="4.1" fill="#2867b5" fill-opacity="0.42" stroke="#2867b5" stroke-width="0.6"/>
<circle cx="364.5" cy="892.8" r="4.1" fill="#2867b5" fill-opacity="0.42" stroke="#2867b5" stroke-width="0.6"/>
<circle cx="388.6" cy="852.5" r="4.1" fill="#2867b5" fill-opacity="0.42" stroke="#2867b5" stroke-width="0.6"/>
<circle cx="485.3" cy="805.4" r="4.1" fill="#2867b5" fill-opacity="0.42" stroke="#2867b5" stroke-width="0.6"/>
<circle cx="393.4" cy="886.1" r="4.1" fill="#2867b5" fill-opacity="0.42" stroke="#2867b5" stroke-width="0.6"/>
<circle cx="386.4" cy="892.8" r="4.1" fill="#2867b5" fill-opacity="0.42" stroke="#2867b5" stroke-width="0.6"/>
<circle cx="392.3" cy="839.0" r="4.1" fill="#2867b5" fill-opacity="0.42" stroke="#2867b5" stroke-width="0.6"/>
<circle cx="610.5" cy="684.2" r="4.1" fill="#2867b5" fill-opacity="0.42" stroke="#2867b5" stroke-width="0.6"/>
<circle cx="662.4" cy="596.7" r="4.1" fill="#2867b5" fill-opacity="0.42" stroke="#2867b5" stroke-width="0.6"/>
<circle cx="652.1" cy="684.2" r="4.1" fill="#2867b5" fill-opacity="0.42" stroke="#2867b5" stroke-width="0.6"/>
<circle cx="642.9" cy="670.8" r="4.1" fill="#2867b5" fill-opacity="0.42" stroke="#2867b5" stroke-width="0.6"/>
<circle cx="620.5" cy="684.2" r="4.1" fill="#2867b5" fill-opacity="0.42" stroke="#2867b5" stroke-width="0.6"/>
<circle cx="621.3" cy="677.5" r="4.1" fill="#2867b5" fill-opacity="0.42" stroke="#2867b5" stroke-width="0.6"/>
<circle cx="635.3" cy="684.2" r="4.1" fill="#2867b5" fill-opacity="0.42" stroke="#2867b5" stroke-width="0.6"/>
<circle cx="636.1" cy="697.7" r="4.1" fill="#2867b5" fill-opacity="0.42" stroke="#2867b5" stroke-width="0.6"/>
<circle cx="620.5" cy="650.6" r="4.1" fill="#2867b5" fill-opacity="0.42" stroke="#2867b5" stroke-width="0.6"/>
<circle cx="713.4" cy="569.8" r="4.1" fill="#2867b5" fill-opacity="0.42" stroke="#2867b5" stroke-width="0.6"/>
<circle cx="724.5" cy="616.9" r="4.1" fill="#2867b5" fill-opacity="0.42" stroke="#2867b5" stroke-width="0.6"/>
<circle cx="676.4" cy="711.1" r="4.1" fill="#2867b5" fill-opacity="0.42" stroke="#2867b5" stroke-width="0.6"/>
<circle cx="687.3" cy="616.9" r="4.1" fill="#2867b5" fill-opacity="0.42" stroke="#2867b5" stroke-width="0.6"/>
<circle cx="697.5" cy="616.9" r="4.1" fill="#2867b5" fill-opacity="0.42" stroke="#2867b5" stroke-width="0.6"/>
<circle cx="765.1" cy="536.2" r="4.1" fill="#2867b5" fill-opacity="0.42" stroke="#2867b5" stroke-width="0.6"/>
<circle cx="610.5" cy="684.2" r="4.1" fill="#2867b5" fill-opacity="0.42" stroke="#2867b5" stroke-width="0.6"/>
<circle cx="581.3" cy="697.7" r="4.1" fill="#2867b5" fill-opacity="0.42" stroke="#2867b5" stroke-width="0.6"/>
<circle cx="702.5" cy="650.6" r="4.1" fill="#2867b5" fill-opacity="0.42" stroke="#2867b5" stroke-width="0.6"/>
<circle cx="628.9" cy="684.2" r="4.1" fill="#2867b5" fill-opacity="0.42" stroke="#2867b5" stroke-width="0.6"/>
<circle cx="646.4" cy="650.6" r="4.1" fill="#2867b5" fill-opacity="0.42" stroke="#2867b5" stroke-width="0.6"/>
<circle cx="687.1" cy="616.9" r="4.1" fill="#2867b5" fill-opacity="0.42" stroke="#2867b5" stroke-width="0.6"/>
<circle cx="643.5" cy="684.2" r="4.1" fill="#2867b5" fill-opacity="0.42" stroke="#2867b5" stroke-width="0.6"/>
<circle cx="599.3" cy="717.9" r="4.1" fill="#2867b5" fill-opacity="0.42" stroke="#2867b5" stroke-width="0.6"/>
<circle cx="620.5" cy="650.6" r="4.1" fill="#2867b5" fill-opacity="0.42" stroke="#2867b5" stroke-width="0.6"/>
<circle cx="593.2" cy="684.2" r="4.1" fill="#2867b5" fill-opacity="0.42" stroke="#2867b5" stroke-width="0.6"/>
<circle cx="782.9" cy="542.9" r="4.1" fill="#2867b5" fill-opacity="0.42" stroke="#2867b5" stroke-width="0.6"/>
<circle cx="773.4" cy="583.3" r="4.1" fill="#2867b5" fill-opacity="0.42" stroke="#2867b5" stroke-width="0.6"/>
<circle cx="738.3" cy="623.7" r="4.1" fill="#2867b5" fill-opacity="0.42" stroke="#2867b5" stroke-width="0.6"/>
<circle cx="633.8" cy="697.7" r="4.1" fill="#2867b5" fill-opacity="0.42" stroke="#2867b5" stroke-width="0.6"/>
<circle cx="715.6" cy="657.3" r="4.1" fill="#2867b5" fill-opacity="0.42" stroke="#2867b5" stroke-width="0.6"/>
<circle cx="638.0" cy="697.7" r="4.1" fill="#2867b5" fill-opacity="0.42" stroke="#2867b5" stroke-width="0.6"/>
<circle cx="610.5" cy="684.2" r="4.1" fill="#2867b5" fill-opacity="0.42" stroke="#2867b5" stroke-width="0.6"/>
<circle cx="594.7" cy="684.2" r="4.1" fill="#2867b5" fill-opacity="0.42" stroke="#2867b5" stroke-width="0.6"/>
<circle cx="540.4" cy="724.6" r="4.1" fill="#2867b5" fill-opacity="0.42" stroke="#2867b5" stroke-width="0.6"/>
<circle cx="691.6" cy="630.4" r="4.1" fill="#2867b5" fill-opacity="0.42" stroke="#2867b5" stroke-width="0.6"/>
<circle cx="687.4" cy="623.7" r="4.1" fill="#2867b5" fill-opacity="0.42" stroke="#2867b5" stroke-width="0.6"/>
<circle cx="656.3" cy="637.1" r="4.1" fill="#2867b5" fill-opacity="0.42" stroke="#2867b5" stroke-width="0.6"/>
<circle cx="678.6" cy="657.3" r="4.1" fill="#2867b5" fill-opacity="0.42" stroke="#2867b5" stroke-width="0.6"/>
<circle cx="677.5" cy="623.7" r="4.1" fill="#2867b5" fill-opacity="0.42" stroke="#2867b5" stroke-width="0.6"/>
<circle cx="620.5" cy="650.6" r="4.1" fill="#2867b5" fill-opacity="0.42" stroke="#2867b5" stroke-width="0.6"/>
<circle cx="578.8" cy="711.1" r="4.1" fill="#2867b5" fill-opacity="0.42" stroke="#2867b5" stroke-width="0.6"/>
<circle cx="580.7" cy="744.8" r="4.1" fill="#2867b5" fill-opacity="0.42" stroke="#2867b5" stroke-width="0.6"/>
<circle cx="671.9" cy="664.0" r="4.1" fill="#2867b5" fill-opacity="0.42" stroke="#2867b5" stroke-width="0.6"/>
<circle cx="730.5" cy="596.7" r="4.1" fill="#2867b5" fill-opacity="0.42" stroke="#2867b5" stroke-width="0.6"/>
<circle cx="788.0" cy="563.1" r="4.1" fill="#2867b5" fill-opacity="0.42" stroke="#2867b5" stroke-width="0.6"/>
<circle cx="692.4" cy="711.1" r="4.1" fill="#2867b5" fill-opacity="0.42" stroke="#2867b5" stroke-width="0.6"/>
<circle cx="725.4" cy="569.8" r="4.1" fill="#2867b5" fill-opacity="0.42" stroke="#2867b5" stroke-width="0.6"/>
<circle cx="610.5" cy="684.2" r="4.1" fill="#2867b5" fill-opacity="0.42" stroke="#2867b5" stroke-width="0.6"/>
<circle cx="601.4" cy="724.6" r="4.1" fill="#2867b5" fill-opacity="0.42" stroke="#2867b5" stroke-width="0.6"/>
<circle cx="633.3" cy="691.0" r="4.1" fill="#2867b5" fill-opacity="0.42" stroke="#2867b5" stroke-width="0.6"/>
<circle cx="577.9" cy="717.9" r="4.1" fill="#2867b5" fill-opacity="0.42" stroke="#2867b5" stroke-width="0.6"/>
<circle cx="620.5" cy="650.6" r="4.1" fill="#2867b5" fill-opacity="0.42" stroke="#2867b5" stroke-width="0.6"/>
<circle cx="605.9" cy="684.2" r="4.1" fill="#2867b5" fill-opacity="0.42" stroke="#2867b5" stroke-width="0.6"/>
<circle cx="665.3" cy="691.0" r="4.1" fill="#2867b5" fill-opacity="0.42" stroke="#2867b5" stroke-width="0.6"/>
<circle cx="612.9" cy="650.6" r="4.1" fill="#2867b5" fill-opacity="0.42" stroke="#2867b5" stroke-width="0.6"/>
<circle cx="674.6" cy="610.2" r="4.1" fill="#2867b5" fill-opacity="0.42" stroke="#2867b5" stroke-width="0.6"/>
<circle cx="751.3" cy="596.7" r="4.1" fill="#2867b5" fill-opacity="0.42" stroke="#2867b5" stroke-width="0.6"/>
<circle cx="733.0" cy="630.4" r="4.1" fill="#2867b5" fill-opacity="0.42" stroke="#2867b5" stroke-width="0.6"/>
<circle cx="704.8" cy="664.0" r="4.1" fill="#2867b5" fill-opacity="0.42" stroke="#2867b5" stroke-width="0.6"/>
<circle cx="603.4" cy="697.7" r="4.1" fill="#2867b5" fill-opacity="0.42" stroke="#2867b5" stroke-width="0.6"/>
<circle cx="633.1" cy="677.5" r="4.1" fill="#2867b5" fill-opacity="0.42" stroke="#2867b5" stroke-width="0.6"/>
<circle cx="615.2" cy="657.3" r="4.1" fill="#2867b5" fill-opacity="0.42" stroke="#2867b5" stroke-width="0.6"/>
<circle cx="672.9" cy="623.7" r="4.1" fill="#2867b5" fill-opacity="0.42" stroke="#2867b5" stroke-width="0.6"/>
<circle cx="738.8" cy="583.3" r="4.1" fill="#2867b5" fill-opacity="0.42" stroke="#2867b5" stroke-width="0.6"/>
<circle cx="679.5" cy="670.8" r="4.1" fill="#2867b5" fill-opacity="0.42" stroke="#2867b5" stroke-width="0.6"/>
<circle cx="683.8" cy="677.5" r="4.1" fill="#2867b5" fill-opacity="0.42" stroke="#2867b5" stroke-width="0.6"/>
<circle cx="738.0" cy="637.1" r="4.1" fill="#2867b5" fill-opacity="0.42" stroke="#2867b5" stroke-width="0.6"/>
<circle cx="795.7" cy="553.2" r="4.1" fill="#2867b5" fill-opacity="0.42" stroke="#2867b5" stroke-width="0.6"/>
<circle cx="653.8" cy="662.8" r="4.1" fill="#2867b5" fill-opacity="0.42" stroke="#2867b5" stroke-width="0.6"/>
<circle cx="725.0" cy="649.0" r="4.1" fill="#2867b5" fill-opacity="0.42" stroke="#2867b5" stroke-width="0.6"/>
<circle cx="699.9" cy="601.5" r="4.1" fill="#2867b5" fill-opacity="0.42" stroke="#2867b5" stroke-width="0.6"/>
<circle cx="773.9" cy="575.1" r="4.1" fill="#2867b5" fill-opacity="0.42" stroke="#2867b5" stroke-width="0.6"/>
<circle cx="677.1" cy="630.8" r="4.1" fill="#2867b5" fill-opacity="0.42" stroke="#2867b5" stroke-width="0.6"/>
<circle cx="716.2" cy="636.8" r="4.1" fill="#2867b5" fill-opacity="0.42" stroke="#2867b5" stroke-width="0.6"/>
<circle cx="665.4" cy="726.5" r="4.1" fill="#2867b5" fill-opacity="0.42" stroke="#2867b5" stroke-width="0.6"/>
<circle cx="767.8" cy="594.6" r="4.1" fill="#2867b5" fill-opacity="0.42" stroke="#2867b5" stroke-width="0.6"/>
<circle cx="548.2" cy="709.2" r="4.1" fill="#2867b5" fill-opacity="0.42" stroke="#2867b5" stroke-width="0.6"/>
<circle cx="771.2" cy="610.1" r="4.1" fill="#2867b5" fill-opacity="0.42" stroke="#2867b5" stroke-width="0.6"/>
<circle cx="620.2" cy="703.8" r="4.1" fill="#2867b5" fill-opacity="0.42" stroke="#2867b5" stroke-width="0.6"/>
<circle cx="759.2" cy="627.2" r="4.1" fill="#2867b5" fill-opacity="0.42" stroke="#2867b5" stroke-width="0.6"/>
<circle cx="757.5" cy="594.0" r="4.1" fill="#2867b5" fill-opacity="0.42" stroke="#2867b5" stroke-width="0.6"/>
<circle cx="736.0" cy="595.4" r="4.1" fill="#2867b5" fill-opacity="0.42" stroke="#2867b5" stroke-width="0.6"/>
<circle cx="707.4" cy="648.5" r="4.1" fill="#2867b5" fill-opacity="0.42" stroke="#2867b5" stroke-width="0.6"/>
<circle cx="551.0" cy="743.2" r="4.1" fill="#2867b5" fill-opacity="0.42" stroke="#2867b5" stroke-width="0.6"/>
<circle cx="557.2" cy="752.2" r="4.1" fill="#2867b5" fill-opacity="0.42" stroke="#2867b5" stroke-width="0.6"/>
<circle cx="588.0" cy="717.9" r="4.1" fill="#2867b5" fill-opacity="0.42" stroke="#2867b5" stroke-width="0.6"/>
<circle cx="588.3" cy="717.9" r="4.1" fill="#2867b5" fill-opacity="0.42" stroke="#2867b5" stroke-width="0.6"/>
<circle cx="499.2" cy="761.9" r="4.1" fill="#2867b5" fill-opacity="0.42" stroke="#2867b5" stroke-width="0.6"/>
<circle cx="556.2" cy="699.2" r="4.1" fill="#2867b5" fill-opacity="0.42" stroke="#2867b5" stroke-width="0.6"/>
<circle cx="601.9" cy="650.6" r="4.1" fill="#2867b5" fill-opacity="0.42" stroke="#2867b5" stroke-width="0.6"/>
<circle cx="591.3" cy="650.6" r="4.1" fill="#2867b5" fill-opacity="0.42" stroke="#2867b5" stroke-width="0.6"/>
<circle cx="541.3" cy="752.9" r="4.1" fill="#2867b5" fill-opacity="0.42" stroke="#2867b5" stroke-width="0.6"/>
<circle cx="587.3" cy="705.7" r="4.1" fill="#2867b5" fill-opacity="0.42" stroke="#2867b5" stroke-width="0.6"/>
<circle cx="688.4" cy="624.6" r="4.1" fill="#2867b5" fill-opacity="0.42" stroke="#2867b5" stroke-width="0.6"/>
<circle cx="661.4" cy="664.0" r="4.1" fill="#2867b5" fill-opacity="0.42" stroke="#2867b5" stroke-width="0.6"/>
<circle cx="641.5" cy="677.5" r="4.1" fill="#2867b5" fill-opacity="0.42" stroke="#2867b5" stroke-width="0.6"/>
<circle cx="642.5" cy="675.0" r="4.1" fill="#2867b5" fill-opacity="0.42" stroke="#2867b5" stroke-width="0.6"/>
<circle cx="588.4" cy="716.0" r="4.1" fill="#2867b5" fill-opacity="0.42" stroke="#2867b5" stroke-width="0.6"/>
<circle cx="680.5" cy="677.5" r="4.1" fill="#2867b5" fill-opacity="0.42" stroke="#2867b5" stroke-width="0.6"/>
<circle cx="441.4" cy="804.9" r="4.1" fill="#2867b5" fill-opacity="0.42" stroke="#2867b5" stroke-width="0.6"/>
<circle cx="595.0" cy="727.3" r="4.1" fill="#2867b5" fill-opacity="0.42" stroke="#2867b5" stroke-width="0.6"/>
<circle cx="593.5" cy="711.3" r="4.1" fill="#2867b5" fill-opacity="0.42" stroke="#2867b5" stroke-width="0.6"/>
<circle cx="597.3" cy="707.7" r="4.1" fill="#2867b5" fill-opacity="0.42" stroke="#2867b5" stroke-width="0.6"/>
<circle cx="447.0" cy="834.9" r="4.1" fill="#2867b5" fill-opacity="0.42" stroke="#2867b5" stroke-width="0.6"/>
<circle cx="588.6" cy="718.7" r="4.1" fill="#2867b5" fill-opacity="0.42" stroke="#2867b5" stroke-width="0.6"/>
<circle cx="591.4" cy="704.5" r="4.1" fill="#2867b5" fill-opacity="0.42" stroke="#2867b5" stroke-width="0.6"/>
<circle cx="561.1" cy="713.5" r="4.1" fill="#2867b5" fill-opacity="0.42" stroke="#2867b5" stroke-width="0.6"/>
<circle cx="566.4" cy="749.1" r="4.1" fill="#2867b5" fill-opacity="0.42" stroke="#2867b5" stroke-width="0.6"/>
<circle cx="599.5" cy="743.4" r="4.1" fill="#2867b5" fill-opacity="0.42" stroke="#2867b5" stroke-width="0.6"/>
<circle cx="628.8" cy="717.8" r="4.1" fill="#2867b5" fill-opacity="0.42" stroke="#2867b5" stroke-width="0.6"/>
<circle cx="640.2" cy="729.4" r="4.1" fill="#2867b5" fill-opacity="0.42" stroke="#2867b5" stroke-width="0.6"/>
<circle cx="596.5" cy="705.9" r="4.1" fill="#2867b5" fill-opacity="0.42" stroke="#2867b5" stroke-width="0.6"/>
<circle cx="604.1" cy="705.4" r="4.1" fill="#2867b5" fill-opacity="0.42" stroke="#2867b5" stroke-width="0.6"/>
<circle cx="619.9" cy="683.1" r="4.1" fill="#2867b5" fill-opacity="0.42" stroke="#2867b5" stroke-width="0.6"/>
<circle cx="631.1" cy="670.1" r="4.1" fill="#2867b5" fill-opacity="0.42" stroke="#2867b5" stroke-width="0.6"/>
<line x1="290.0" y1="933.895169587629" x2="910.0" y2="483.5425795876289" stroke="#2867b5" stroke-width="2.4" stroke-dasharray="3 6"/>
<line x1="290.0" y1="944.0" x2="910.0" y2="474.0" stroke="#1a1a1a" stroke-width="3.2"/>
<line x1="642" y1="880" x2="686" y2="880" stroke="#1a1a1a" stroke-width="3.2"/>
<text x="696" y="885" font-family="Helvetica, Arial, sans-serif" font-size="14" fill="#1a1a1a" text-anchor="start" font-weight="normal">gap = ρσ  (slope fixed at 1)</text>
<line x1="642" y1="904" x2="686" y2="904" stroke="#2867b5" stroke-width="2.4" stroke-dasharray="3 6"/>
<text x="696" y="909" font-family="Helvetica, Arial, sans-serif" font-size="14" fill="#2867b5" text-anchor="start" font-weight="normal">best fit  (slope 0.96)</text>
<text x="600.0" y="998" font-family="Helvetica, Arial, sans-serif" font-size="17" fill="#1a1a1a" text-anchor="middle" font-weight="bold">forecast  ρσ  =  agreement × offered spread</text>
<text x="226" y="709.0" font-family="Helvetica, Arial, sans-serif" font-size="17" fill="#1a1a1a" font-weight="bold" text-anchor="middle" transform="rotate(-90 226 709.0)">observed selector gap  g  =  kept mean − pool mean</text>
<rect x="306" y="490" width="300" height="82" rx="10" fill="white" stroke="#1a1a1a" stroke-width="2"/>
<text x="322" y="518" font-family="Helvetica, Arial, sans-serif" font-size="20" fill="#1a1a1a" text-anchor="start" font-weight="bold">gap ≈ ρσ</text>
<text x="322" y="546" font-family="Helvetica, Arial, sans-serif" font-size="15" fill="#1a1a1a" text-anchor="start" font-weight="normal">R² 0.810  ·  mean abs error 0.042</text>
</svg>