<svg xmlns="http://www.w3.org/2000/svg" viewBox="0 0 1200 1014" font-family="Helvetica, Arial, sans-serif">
<rect width="1200" height="1014" fill="white"/>
<defs>
<marker id="arr" viewBox="0 0 10 10" refX="9" refY="5" markerWidth="6"
 markerHeight="6" orient="auto-start-reverse">
 <path d="M 0 0 L 10 5 L 0 10 z" fill="#1a1a1a"/></marker>
<marker id="arrB" viewBox="0 0 10 10" refX="9" refY="5" markerWidth="6"
 markerHeight="6" orient="auto-start-reverse">
 <path d="M 0 0 L 10 5 L 0 10 z" fill="#2867b5"/></marker>
</defs>
<text x="600.0" y="50" font-family="Helvetica, Arial, sans-serif" font-size="30" fill="#1a1a1a" text-anchor="middle" font-weight="bold">Two measurements predict what selection will do — with no fitted coefficient</text>
<text x="600.0" y="84" font-family="Helvetica, Arial, sans-serif" font-size="18" fill="#6b7684" text-anchor="middle" font-weight="normal">290 agreement-scored rounds, all judges, formats, and pools; leave-one-condition-out</text>
<rect x="60" y="112" width="520" height="236" rx="10" fill="white" stroke="#6b7684" stroke-width="2"/>
<rect x="620" y="112" width="520" height="236" rx="10" fill="white" stroke="#6b7684" stroke-width="2"/>
<text x="82" y="146" font-family="Helvetica, Arial, sans-serif" font-size="21" fill="#2867b5" text-anchor="start" font-weight="bold">Dial 1   spread σ</text>
<text x="82" y="170" font-family="Helvetica, Arial, sans-serif" font-size="15.5" fill="#1a1a1a" text-anchor="start" font-weight="normal">how much variation the pool offers</text>
<line x1="130" y1="220" x2="520" y2="220" stroke="#6b7684" stroke-width="1.4"/>
<line x1="130.0" y1="216" x2="130.0" y2="224" stroke="#6b7684" stroke-width="1.4"/>
<line x1="325.0" y1="216" x2="325.0" y2="224" stroke="#6b7684" stroke-width="1.4"/>
<line x1="520.0" y1="216" x2="520.0" y2="224" stroke="#6b7684" stroke-width="1.4"/>
<circle cx="293.8" cy="220.0" r="6.0" fill="#1a1a1a" fill-opacity="1.0" stroke="white" stroke-width="1.2"/>
<circle cx="309.4" cy="220.0" r="6.0" fill="#1a1a1a" fill-opacity="1.0" stroke="white" stroke-width="1.2"/>
<circle cx="321.1" cy="220.0" r="6.0" fill="#1a1a1a" fill-opacity="1.0" stroke="white" stroke-width="1.2"/>
<circle cx="328.9" cy="220.0" r="6.0" fill="#1a1a1a" fill-opacity="1.0" stroke="white" stroke-width="1.2"/>
<circle cx="344.5" cy="220.0" r="6.0" fill="#1a1a1a" fill-opacity="1.0" stroke="white" stroke-width="1.2"/>
<circle cx="360.1" cy="220.0" r="6.0" fill="#1a1a1a" fill-opacity="1.0" stroke="white" stroke-width="1.2"/>
<path d="M 293.79999999999995 234 L 293.79999999999995 240 L 360.1 240 L 360.1 234" fill="none" stroke="#2867b5" stroke-width="2.2"/>
<text x="326.95" y="264" font-family="Helvetica, Arial, sans-serif" font-size="15" fill="#1a1a1a" text-anchor="middle" font-weight="bold">narrow pool  →  small σ</text>
<line x1="130" y1="298" x2="520" y2="298" stroke="#6b7684" stroke-width="1.4"/>
<line x1="130.0" y1="294" x2="130.0" y2="302" stroke="#6b7684" stroke-width="1.4"/>
<line x1="325.0" y1="294" x2="325.0" y2="302" stroke="#6b7684" stroke-width="1.4"/>
<line x1="520.0" y1="294" x2="520.0" y2="302" stroke="#6b7684" stroke-width="1.4"/>
<circle cx="184.6" cy="298.0" r="6.0" fill="#1a1a1a" fill-opacity="1.0" stroke="white" stroke-width="1.2"/>
<circle cx="247.0" cy="298.0" r="6.0" fill="#1a1a1a" fill-opacity="1.0" stroke="white" stroke-width="1.2"/>
<circle cx="301.6" cy="298.0" r="6.0" fill="#1a1a1a" fill-opacity="1.0" stroke="white" stroke-width="1.2"/>
<circle cx="348.4" cy="298.0" r="6.0" fill="#1a1a1a" fill-opacity="1.0" stroke="white" stroke-width="1.2"/>
<circle cx="406.9" cy="298.0" r="6.0" fill="#1a1a1a" fill-opacity="1.0" stroke="white" stroke-width="1.2"/>
<circle cx="469.3" cy="298.0" r="6.0" fill="#1a1a1a" fill-opacity="1.0" stroke="white" stroke-width="1.2"/>
<path d="M 184.60000000000002 312 L 184.60000000000002 318 L 469.3 318 L 469.3 312" fill="none" stroke="#2867b5" stroke-width="2.2"/>
<text x="326.95" y="342" font-family="Helvetica, Arial, sans-serif" font-size="15" fill="#1a1a1a" text-anchor="middle" font-weight="bold">wide pool  →  large σ</text>
<text x="70" y="190" font-family="Helvetica, Arial, sans-serif" font-size="12.5" fill="#6b7684" text-anchor="start" font-weight="normal">value 0</text>
<text x="570" y="190" font-family="Helvetica, Arial, sans-serif" font-size="12.5" fill="#6b7684" text-anchor="end" font-weight="normal">1</text>
<text x="642" y="146" font-family="Helvetica, Arial, sans-serif" font-size="21" fill="#2867b5" text-anchor="start" font-weight="bold">Dial 2   agreement ρ</text>
<text x="642" y="170" font-family="Helvetica, Arial, sans-serif" font-size="15.5" fill="#1a1a1a" text-anchor="start" font-weight="normal">how consistently the judge keeps one side  (−1 … +1)</text>
<line x1="690" y1="220" x2="1080" y2="220" stroke="#6b7684" stroke-width="1.4"/>
<line x1="690.0" y1="216" x2="690.0" y2="224" stroke="#6b7684" stroke-width="1.4"/>
<line x1="885.0" y1="216" x2="885.0" y2="224" stroke="#6b7684" stroke-width="1.4"/>
<line x1="1080.0" y1="216" x2="1080.0" y2="224" stroke="#6b7684" stroke-width="1.4"/>
<circle cx="744.6" cy="220.0" r="5.5" fill="white" fill-opacity="1.0" stroke="#6b7684" stroke-width="1.6"/>
<circle cx="807.0" cy="220.0" r="7.5" fill="#2867b5" fill-opacity="1.0" stroke="white" stroke-width="1.5"/>
<circle cx="861.6" cy="220.0" r="5.5" fill="white" fill-opacity="1.0" stroke="#6b7684" stroke-width="1.6"/>
<circle cx="908.4" cy="220.0" r="7.5" fill="#2867b5" fill-opacity="1.0" stroke="white" stroke-width="1.5"/>
<circle cx="966.9" cy="220.0" r="5.5" fill="white" fill-opacity="1.0" stroke="#6b7684" stroke-width="1.6"/>
<circle cx="1029.3" cy="220.0" r="7.5" fill="#2867b5" fill-opacity="1.0" stroke="white" stroke-width="1.5"/>
<text x="886.95" y="264" font-family="Helvetica, Arial, sans-serif" font-size="15" fill="#1a1a1a" text-anchor="middle" font-weight="bold">keeps at random  →  ρ ≈ 0</text>
<line x1="690" y1="298" x2="1080" y2="298" stroke="#6b7684" stroke-width="1.4"/>
<line x1="690.0" y1="294" x2="690.0" y2="302" stroke="#6b7684" stroke-width="1.4"/>
<line x1="885.0" y1="294" x2="885.0" y2="302" stroke="#6b7684" stroke-width="1.4"/>
<line x1="1080.0" y1="294" x2="1080.0" y2="302" stroke="#6b7684" stroke-width="1.4"/>
<circle cx="744.6" cy="298.0" r="7.5" fill="#2867b5" fill-opacity="1.0" stroke="white" stroke-width="1.5"/>
<circle cx="807.0" cy="298.0" r="7.5" fill="#2867b5" fill-opacity="1.0" stroke="white" stroke-width="1.5"/>
<circle cx="861.6" cy="298.0" r="7.5" fill="#2867b5" fill-opacity="1.0" stroke="white" stroke-width="1.5"/>
<circle cx="908.4" cy="298.0" r="5.5" fill="white" fill-opacity="1.0" stroke="#6b7684" stroke-width="1.6"/>
<circle cx="966.9" cy="298.0" r="5.5" fill="white" fill-opacity="1.0" stroke="#6b7684" stroke-width="1.6"/>
<circle cx="1029.3" cy="298.0" r="5.5" fill="white" fill-opacity="1.0" stroke="#6b7684" stroke-width="1.6"/>
<text x="886.95" y="342" font-family="Helvetica, Arial, sans-serif" font-size="15" fill="#1a1a1a" text-anchor="middle" font-weight="bold">keeps the low side  →  ρ → −1</text>
<circle cx="972.0" cy="144.0" r="7.5" fill="#2867b5" fill-opacity="1.0" stroke="white" stroke-width="1.5"/>
<text x="986" y="149" font-family="Helvetica, Arial, sans-serif" font-size="13.5" fill="#1a1a1a" text-anchor="start" font-weight="normal">kept</text>
<circle cx="1042.0" cy="144.0" r="5.5" fill="white" fill-opacity="1.0" stroke="#6b7684" stroke-width="1.6"/>
<text x="1056" y="149" font-family="Helvetica, Arial, sans-serif" font-size="13.5" fill="#1a1a1a" text-anchor="start" font-weight="normal">dropped</text>
<text x="600.0" y="388" font-family="Helvetica, Arial, sans-serif" font-size="19" fill="#1a1a1a" text-anchor="middle" font-weight="bold">spread σ   ×   agreement ρ   =   forecast  ρσ   —  the horizontal axis below</text>
<path d="M 600.0 400 L 600.0 422" stroke="#1a1a1a" stroke-width="3" marker-end="url(#arr)"/>
<rect x="130" y="474" width="620" height="470" fill="#fbfbf9" stroke="#6b7684" stroke-width="1.5"/>
<line x1="225.87628865979383" y1="474" x2="225.87628865979383" y2="944" stroke="#e9e9e4" stroke-width="1"/>
<line x1="130" y1="871.319587628866" x2="750" y2="871.319587628866" stroke="#e9e9e4" stroke-width="1"/>
<text x="225.87628865979383" y="968" font-family="Helvetica, Arial, sans-serif" font-size="14.5" fill="#6b7684" text-anchor="middle" font-weight="normal">-0.4</text>
<text x="120" y="876.319587628866" font-family="Helvetica, Arial, sans-serif" font-size="14.5" fill="#6b7684" text-anchor="end" font-weight="normal">-0.4</text>
<line x1="353.7113402061856" y1="474" x2="353.7113402061856" y2="944" stroke="#e9e9e4" stroke-width="1"/>
<line x1="130" y1="774.4123711340205" x2="750" y2="774.4123711340205" stroke="#e9e9e4" stroke-width="1"/>
<text x="353.7113402061856" y="968" font-family="Helvetica, Arial, sans-serif" font-size="14.5" fill="#6b7684" text-anchor="middle" font-weight="normal">-0.2</text>
<text x="120" y="779.4123711340205" font-family="Helvetica, Arial, sans-serif" font-size="14.5" fill="#6b7684" text-anchor="end" font-weight="normal">-0.2</text>
<line x1="481.54639175257734" y1="474" x2="481.54639175257734" y2="944" stroke="#e9e9e4" stroke-width="1"/>
<line x1="130" y1="677.5051546391753" x2="750" y2="677.5051546391753" stroke="#e9e9e4" stroke-width="1"/>
<text x="481.54639175257734" y="968" font-family="Helvetica, Arial, sans-serif" font-size="14.5" fill="#6b7684" text-anchor="middle" font-weight="normal">0</text>
<text x="120" y="682.5051546391753" font-family="Helvetica, Arial, sans-serif" font-size="14.5" fill="#6b7684" text-anchor="end" font-weight="normal">0</text>
<line x1="609.3814432989691" y1="474" x2="609.3814432989691" y2="944" stroke="#e9e9e4" stroke-width="1"/>
<line x1="130" y1="580.5979381443299" x2="750" y2="580.5979381443299" stroke="#e9e9e4" stroke-width="1"/>
<text x="609.3814432989691" y="968" font-family="Helvetica, Arial, sans-serif" font-size="14.5" fill="#6b7684" text-anchor="middle" font-weight="normal">0.2</text>
<text x="120" y="585.5979381443299" font-family="Helvetica, Arial, sans-serif" font-size="14.5" fill="#6b7684" text-anchor="end" font-weight="normal">0.2</text>
<line x1="737.2164948453608" y1="474" x2="737.2164948453608" y2="944" stroke="#e9e9e4" stroke-width="1"/>
<line x1="130" y1="483.69072164948454" x2="750" y2="483.69072164948454" stroke="#e9e9e4" stroke-width="1"/>
<text x="737.2164948453608" y="968" font-family="Helvetica, Arial, sans-serif" font-size="14.5" fill="#6b7684" text-anchor="middle" font-weight="normal">0.4</text>
<text x="120" y="488.69072164948454" font-family="Helvetica, Arial, sans-serif" font-size="14.5" fill="#6b7684" text-anchor="end" font-weight="normal">0.4</text>
<line x1="481.54639175257734" y1="474" x2="481.54639175257734" y2="944" stroke="#cfcfc8" stroke-width="1.6"/>
<line x1="130" y1="677.5051546391753" x2="750" y2="677.5051546391753" stroke="#cfcfc8" stroke-width="1.6"/>
<circle cx="479.9" cy="684.2" r="4.1" fill="#2867b5" fill-opacity="0.42" stroke="#2867b5" stroke-width="0.6"/>
<circle cx="469.9" cy="691.0" r="4.1" fill="#2867b5" fill-opacity="0.42" stroke="#2867b5" stroke-width="0.6"/>
<circle cx="377.5" cy="765.0" r="4.1" fill="#2867b5" fill-opacity="0.42" stroke="#2867b5" stroke-width="0.6"/>
<circle cx="519.8" cy="664.0" r="4.1" fill="#2867b5" fill-opacity="0.42" stroke="#2867b5" stroke-width="0.6"/>
<circle cx="479.9" cy="684.2" r="4.1" fill="#2867b5" fill-opacity="0.42" stroke="#2867b5" stroke-width="0.6"/>
<circle cx="515.0" cy="691.0" r="4.1" fill="#2867b5" fill-opacity="0.42" stroke="#2867b5" stroke-width="0.6"/>
<circle cx="504.4" cy="691.0" r="4.1" fill="#2867b5" fill-opacity="0.42" stroke="#2867b5" stroke-width="0.6"/>
<circle cx="457.3" cy="697.7" r="4.1" fill="#2867b5" fill-opacity="0.42" stroke="#2867b5" stroke-width="0.6"/>
<circle cx="432.3" cy="744.8" r="4.1" fill="#2867b5" fill-opacity="0.42" stroke="#2867b5" stroke-width="0.6"/>
<circle cx="463.2" cy="677.5" r="4.1" fill="#2867b5" fill-opacity="0.42" stroke="#2867b5" stroke-width="0.6"/>
<circle cx="487.1" cy="677.5" r="4.1" fill="#2867b5" fill-opacity="0.42" stroke="#2867b5" stroke-width="0.6"/>
<circle cx="481.5" cy="697.7" r="4.1" fill="#2867b5" fill-opacity="0.42" stroke="#2867b5" stroke-width="0.6"/>
<circle cx="493.4" cy="711.1" r="4.1" fill="#2867b5" fill-opacity="0.42" stroke="#2867b5" stroke-width="0.6"/>
<circle cx="515.5" cy="643.9" r="4.1" fill="#2867b5" fill-opacity="0.42" stroke="#2867b5" stroke-width="0.6"/>
<circle cx="500.9" cy="664.0" r="4.1" fill="#2867b5" fill-opacity="0.42" stroke="#2867b5" stroke-width="0.6"/>
<circle cx="512.6" cy="691.0" r="4.1" fill="#2867b5" fill-opacity="0.42" stroke="#2867b5" stroke-width="0.6"/>
<circle cx="493.4" cy="711.1" r="4.1" fill="#2867b5" fill-opacity="0.42" stroke="#2867b5" stroke-width="0.6"/>
<circle cx="501.1" cy="677.5" r="4.1" fill="#2867b5" fill-opacity="0.42" stroke="#2867b5" stroke-width="0.6"/>
<circle cx="506.4" cy="664.0" r="4.1" fill="#2867b5" fill-opacity="0.42" stroke="#2867b5" stroke-width="0.6"/>
<circle cx="463.4" cy="697.7" r="4.1" fill="#2867b5" fill-opacity="0.42" stroke="#2867b5" stroke-width="0.6"/>
<circle cx="445.9" cy="711.1" r="4.1" fill="#2867b5" fill-opacity="0.42" stroke="#2867b5" stroke-width="0.6"/>
<circle cx="413.3" cy="711.1" r="4.1" fill="#2867b5" fill-opacity="0.42" stroke="#2867b5" stroke-width="0.6"/>
<circle cx="453.2" cy="670.8" r="4.1" fill="#2867b5" fill-opacity="0.42" stroke="#2867b5" stroke-width="0.6"/>
<circle cx="529.3" cy="670.8" r="4.1" fill="#2867b5" fill-opacity="0.42" stroke="#2867b5" stroke-width="0.6"/>
<circle cx="528.1" cy="630.4" r="4.1" fill="#2867b5" fill-opacity="0.42" stroke="#2867b5" stroke-width="0.6"/>
<circle cx="493.8" cy="684.2" r="4.1" fill="#2867b5" fill-opacity="0.42" stroke="#2867b5" stroke-width="0.6"/>
<circle cx="487.0" cy="691.0" r="4.1" fill="#2867b5" fill-opacity="0.42" stroke="#2867b5" stroke-width="0.6"/>
<circle cx="531.7" cy="697.7" r="4.1" fill="#2867b5" fill-opacity="0.42" stroke="#2867b5" stroke-width="0.6"/>
<circle cx="528.1" cy="630.4" r="4.1" fill="#2867b5" fill-opacity="0.42" stroke="#2867b5" stroke-width="0.6"/>
<circle cx="491.0" cy="704.4" r="4.1" fill="#2867b5" fill-opacity="0.42" stroke="#2867b5" stroke-width="0.6"/>
<circle cx="481.6" cy="684.2" r="4.1" fill="#2867b5" fill-opacity="0.42" stroke="#2867b5" stroke-width="0.6"/>
<circle cx="493.0" cy="711.1" r="4.1" fill="#2867b5" fill-opacity="0.42" stroke="#2867b5" stroke-width="0.6"/>
<circle cx="469.8" cy="670.8" r="4.1" fill="#2867b5" fill-opacity="0.42" stroke="#2867b5" stroke-width="0.6"/>
<circle cx="441.7" cy="731.3" r="4.1" fill="#2867b5" fill-opacity="0.42" stroke="#2867b5" stroke-width="0.6"/>
<circle cx="489.3" cy="623.7" r="4.1" fill="#2867b5" fill-opacity="0.42" stroke="#2867b5" stroke-width="0.6"/>
<circle cx="488.2" cy="637.1" r="4.1" fill="#2867b5" fill-opacity="0.42" stroke="#2867b5" stroke-width="0.6"/>
<circle cx="491.2" cy="684.2" r="4.1" fill="#2867b5" fill-opacity="0.42" stroke="#2867b5" stroke-width="0.6"/>
<circle cx="497.6" cy="664.0" r="4.1" fill="#2867b5" fill-opacity="0.42" stroke="#2867b5" stroke-width="0.6"/>
<circle cx="502.7" cy="691.0" r="4.1" fill="#2867b5" fill-opacity="0.42" stroke="#2867b5" stroke-width="0.6"/>
<circle cx="736.4" cy="495.8" r="4.1" fill="#2867b5" fill-opacity="0.42" stroke="#2867b5" stroke-width="0.6"/>
<circle cx="491.2" cy="684.2" r="4.1" fill="#2867b5" fill-opacity="0.42" stroke="#2867b5" stroke-width="0.6"/>
<circle cx="495.8" cy="677.5" r="4.1" fill="#2867b5" fill-opacity="0.42" stroke="#2867b5" stroke-width="0.6"/>
<circle cx="494.1" cy="677.5" r="4.1" fill="#2867b5" fill-opacity="0.42" stroke="#2867b5" stroke-width="0.6"/>
<circle cx="492.4" cy="637.1" r="4.1" fill="#2867b5" fill-opacity="0.42" stroke="#2867b5" stroke-width="0.6"/>
<circle cx="462.8" cy="724.6" r="4.1" fill="#2867b5" fill-opacity="0.42" stroke="#2867b5" stroke-width="0.6"/>
<circle cx="534.3" cy="643.9" r="4.1" fill="#2867b5" fill-opacity="0.42" stroke="#2867b5" stroke-width="0.6"/>
<circle cx="464.5" cy="717.9" r="4.1" fill="#2867b5" fill-opacity="0.42" stroke="#2867b5" stroke-width="0.6"/>
<circle cx="506.8" cy="697.7" r="4.1" fill="#2867b5" fill-opacity="0.42" stroke="#2867b5" stroke-width="0.6"/>
<circle cx="419.8" cy="724.6" r="4.1" fill="#2867b5" fill-opacity="0.42" stroke="#2867b5" stroke-width="0.6"/>
<circle cx="448.0" cy="670.8" r="4.1" fill="#2867b5" fill-opacity="0.42" stroke="#2867b5" stroke-width="0.6"/>
<circle cx="477.1" cy="697.7" r="4.1" fill="#2867b5" fill-opacity="0.42" stroke="#2867b5" stroke-width="0.6"/>
<circle cx="510.5" cy="643.9" r="4.1" fill="#2867b5" fill-opacity="0.42" stroke="#2867b5" stroke-width="0.6"/>
<circle cx="489.4" cy="684.2" r="4.1" fill="#2867b5" fill-opacity="0.42" stroke="#2867b5" stroke-width="0.6"/>
<circle cx="467.6" cy="697.7" r="4.1" fill="#2867b5" fill-opacity="0.42" stroke="#2867b5" stroke-width="0.6"/>
<circle cx="465.4" cy="717.9" r="4.1" fill="#2867b5" fill-opacity="0.42" stroke="#2867b5" stroke-width="0.6"/>
<circle cx="499.2" cy="670.8" r="4.1" fill="#2867b5" fill-opacity="0.42" stroke="#2867b5" stroke-width="0.6"/>
<circle cx="447.7" cy="717.9" r="4.1" fill="#2867b5" fill-opacity="0.42" stroke="#2867b5" stroke-width="0.6"/>
<circle cx="453.6" cy="704.4" r="4.1" fill="#2867b5" fill-opacity="0.42" stroke="#2867b5" stroke-width="0.6"/>
<circle cx="485.4" cy="677.5" r="4.1" fill="#2867b5" fill-opacity="0.42" stroke="#2867b5" stroke-width="0.6"/>
<circle cx="484.6" cy="664.0" r="4.1" fill="#2867b5" fill-opacity="0.42" stroke="#2867b5" stroke-width="0.6"/>
<circle cx="440.2" cy="717.9" r="4.1" fill="#2867b5" fill-opacity="0.42" stroke="#2867b5" stroke-width="0.6"/>
<circle cx="510.9" cy="684.2" r="4.1" fill="#2867b5" fill-opacity="0.42" stroke="#2867b5" stroke-width="0.6"/>
<circle cx="495.7" cy="657.3" r="4.1" fill="#2867b5" fill-opacity="0.42" stroke="#2867b5" stroke-width="0.6"/>
<circle cx="397.9" cy="758.3" r="4.1" fill="#2867b5" fill-opacity="0.42" stroke="#2867b5" stroke-width="0.6"/>
<circle cx="483.1" cy="677.5" r="4.1" fill="#2867b5" fill-opacity="0.42" stroke="#2867b5" stroke-width="0.6"/>
<circle cx="532.2" cy="583.3" r="4.1" fill="#2867b5" fill-opacity="0.42" stroke="#2867b5" stroke-width="0.6"/>
<circle cx="557.1" cy="590.0" r="4.1" fill="#2867b5" fill-opacity="0.42" stroke="#2867b5" stroke-width="0.6"/>
<circle cx="501.3" cy="650.6" r="4.1" fill="#2867b5" fill-opacity="0.42" stroke="#2867b5" stroke-width="0.6"/>
<circle cx="397.8" cy="724.6" r="4.1" fill="#2867b5" fill-opacity="0.42" stroke="#2867b5" stroke-width="0.6"/>
<circle cx="439.0" cy="704.4" r="4.1" fill="#2867b5" fill-opacity="0.42" stroke="#2867b5" stroke-width="0.6"/>
<circle cx="461.4" cy="691.0" r="4.1" fill="#2867b5" fill-opacity="0.42" stroke="#2867b5" stroke-width="0.6"/>
<circle cx="478.2" cy="677.5" r="4.1" fill="#2867b5" fill-opacity="0.42" stroke="#2867b5" stroke-width="0.6"/>
<circle cx="438.1" cy="677.5" r="4.1" fill="#2867b5" fill-opacity="0.42" stroke="#2867b5" stroke-width="0.6"/>
<circle cx="424.0" cy="731.3" r="4.1" fill="#2867b5" fill-opacity="0.42" stroke="#2867b5" stroke-width="0.6"/>
<circle cx="449.6" cy="731.3" r="4.1" fill="#2867b5" fill-opacity="0.42" stroke="#2867b5" stroke-width="0.6"/>
<circle cx="426.7" cy="724.6" r="4.1" fill="#2867b5" fill-opacity="0.42" stroke="#2867b5" stroke-width="0.6"/>
<circle cx="429.9" cy="717.9" r="4.1" fill="#2867b5" fill-opacity="0.42" stroke="#2867b5" stroke-width="0.6"/>
<circle cx="489.6" cy="670.8" r="4.1" fill="#2867b5" fill-opacity="0.42" stroke="#2867b5" stroke-width="0.6"/>
<circle cx="525.7" cy="643.9" r="4.1" fill="#2867b5" fill-opacity="0.42" stroke="#2867b5" stroke-width="0.6"/>
<circle cx="529.7" cy="616.9" r="4.1" fill="#2867b5" fill-opacity="0.42" stroke="#2867b5" stroke-width="0.6"/>
<circle cx="450.3" cy="684.2" r="4.1" fill="#2867b5" fill-opacity="0.42" stroke="#2867b5" stroke-width="0.6"/>
<circle cx="455.7" cy="670.8" r="4.1" fill="#2867b5" fill-opacity="0.42" stroke="#2867b5" stroke-width="0.6"/>
<circle cx="475.8" cy="664.0" r="4.1" fill="#2867b5" fill-opacity="0.42" stroke="#2867b5" stroke-width="0.6"/>
<circle cx="509.1" cy="637.1" r="4.1" fill="#2867b5" fill-opacity="0.42" stroke="#2867b5" stroke-width="0.6"/>
<circle cx="505.0" cy="616.9" r="4.1" fill="#2867b5" fill-opacity="0.42" stroke="#2867b5" stroke-width="0.6"/>
<circle cx="467.1" cy="670.8" r="4.1" fill="#2867b5" fill-opacity="0.42" stroke="#2867b5" stroke-width="0.6"/>
<circle cx="550.9" cy="556.4" r="4.1" fill="#2867b5" fill-opacity="0.42" stroke="#2867b5" stroke-width="0.6"/>
<circle cx="573.6" cy="590.0" r="4.1" fill="#2867b5" fill-opacity="0.42" stroke="#2867b5" stroke-width="0.6"/>
<circle cx="455.1" cy="704.4" r="4.1" fill="#2867b5" fill-opacity="0.42" stroke="#2867b5" stroke-width="0.6"/>
<circle cx="531.2" cy="610.2" r="4.1" fill="#2867b5" fill-opacity="0.42" stroke="#2867b5" stroke-width="0.6"/>
<circle cx="536.5" cy="623.7" r="4.1" fill="#2867b5" fill-opacity="0.42" stroke="#2867b5" stroke-width="0.6"/>
<circle cx="500.0" cy="623.7" r="4.1" fill="#2867b5" fill-opacity="0.42" stroke="#2867b5" stroke-width="0.6"/>
<circle cx="488.1" cy="637.1" r="4.1" fill="#2867b5" fill-opacity="0.42" stroke="#2867b5" stroke-width="0.6"/>
<circle cx="531.7" cy="623.7" r="4.1" fill="#2867b5" fill-opacity="0.42" stroke="#2867b5" stroke-width="0.6"/>
<circle cx="583.6" cy="603.5" r="4.1" fill="#2867b5" fill-opacity="0.42" stroke="#2867b5" stroke-width="0.6"/>
<circle cx="505.4" cy="697.7" r="4.1" fill="#2867b5" fill-opacity="0.42" stroke="#2867b5" stroke-width="0.6"/>
<circle cx="485.0" cy="650.6" r="4.1" fill="#2867b5" fill-opacity="0.42" stroke="#2867b5" stroke-width="0.6"/>
<circle cx="526.2" cy="630.4" r="4.1" fill="#2867b5" fill-opacity="0.42" stroke="#2867b5" stroke-width="0.6"/>
<circle cx="535.8" cy="670.8" r="4.1" fill="#2867b5" fill-opacity="0.42" stroke="#2867b5" stroke-width="0.6"/>
<circle cx="536.8" cy="637.1" r="4.1" fill="#2867b5" fill-opacity="0.42" stroke="#2867b5" stroke-width="0.6"/>
<circle cx="539.6" cy="697.7" r="4.1" fill="#2867b5" fill-opacity="0.42" stroke="#2867b5" stroke-width="0.6"/>
<circle cx="499.9" cy="637.1" r="4.1" fill="#2867b5" fill-opacity="0.42" stroke="#2867b5" stroke-width="0.6"/>
<circle cx="490.0" cy="684.2" r="4.1" fill="#2867b5" fill-opacity="0.42" stroke="#2867b5" stroke-width="0.6"/>
<circle cx="518.1" cy="657.3" r="4.1" fill="#2867b5" fill-opacity="0.42" stroke="#2867b5" stroke-width="0.6"/>
<circle cx="524.5" cy="664.0" r="4.1" fill="#2867b5" fill-opacity="0.42" stroke="#2867b5" stroke-width="0.6"/>
<circle cx="504.1" cy="637.1" r="4.1" fill="#2867b5" fill-opacity="0.42" stroke="#2867b5" stroke-width="0.6"/>
<circle cx="543.0" cy="637.1" r="4.1" fill="#2867b5" fill-opacity="0.42" stroke="#2867b5" stroke-width="0.6"/>
<circle cx="519.9" cy="630.4" r="4.1" fill="#2867b5" fill-opacity="0.42" stroke="#2867b5" stroke-width="0.6"/>
<circle cx="633.7" cy="563.1" r="4.1" fill="#2867b5" fill-opacity="0.42" stroke="#2867b5" stroke-width="0.6"/>
<circle cx="578.9" cy="590.0" r="4.1" fill="#2867b5" fill-opacity="0.42" stroke="#2867b5" stroke-width="0.6"/>
<circle cx="606.2" cy="569.8" r="4.1" fill="#2867b5" fill-opacity="0.42" stroke="#2867b5" stroke-width="0.6"/>
<circle cx="577.7" cy="603.5" r="4.1" fill="#2867b5" fill-opacity="0.42" stroke="#2867b5" stroke-width="0.6"/>
<circle cx="557.3" cy="677.5" r="4.1" fill="#2867b5" fill-opacity="0.42" stroke="#2867b5" stroke-width="0.6"/>
<circle cx="514.6" cy="697.7" r="4.1" fill="#2867b5" fill-opacity="0.42" stroke="#2867b5" stroke-width="0.6"/>
<circle cx="533.4" cy="643.9" r="4.1" fill="#2867b5" fill-opacity="0.42" stroke="#2867b5" stroke-width="0.6"/>
<circle cx="490.8" cy="697.7" r="4.1" fill="#2867b5" fill-opacity="0.42" stroke="#2867b5" stroke-width="0.6"/>
<circle cx="549.4" cy="691.0" r="4.1" fill="#2867b5" fill-opacity="0.42" stroke="#2867b5" stroke-width="0.6"/>
<circle cx="472.3" cy="724.6" r="4.1" fill="#2867b5" fill-opacity="0.42" stroke="#2867b5" stroke-width="0.6"/>
<circle cx="426.9" cy="724.6" r="4.1" fill="#2867b5" fill-opacity="0.42" stroke="#2867b5" stroke-width="0.6"/>
<circle cx="422.8" cy="721.9" r="4.1" fill="#2867b5" fill-opacity="0.42" stroke="#2867b5" stroke-width="0.6"/>
<circle cx="481.2" cy="681.5" r="4.1" fill="#2867b5" fill-opacity="0.42" stroke="#2867b5" stroke-width="0.6"/>
<circle cx="507.3" cy="677.5" r="4.1" fill="#2867b5" fill-opacity="0.42" stroke="#2867b5" stroke-width="0.6"/>
<circle cx="505.4" cy="711.1" r="4.1" fill="#2867b5" fill-opacity="0.42" stroke="#2867b5" stroke-width="0.6"/>
<circle cx="529.9" cy="637.1" r="4.1" fill="#2867b5" fill-opacity="0.42" stroke="#2867b5" stroke-width="0.6"/>
<circle cx="526.4" cy="684.2" r="4.1" fill="#2867b5" fill-opacity="0.42" stroke="#2867b5" stroke-width="0.6"/>
<circle cx="479.1" cy="751.5" r="4.1" fill="#2867b5" fill-opacity="0.42" stroke="#2867b5" stroke-width="0.6"/>
<circle cx="515.6" cy="643.9" r="4.1" fill="#2867b5" fill-opacity="0.42" stroke="#2867b5" stroke-width="0.6"/>
<circle cx="493.9" cy="669.4" r="4.1" fill="#2867b5" fill-opacity="0.42" stroke="#2867b5" stroke-width="0.6"/>
<circle cx="451.9" cy="680.2" r="4.1" fill="#2867b5" fill-opacity="0.42" stroke="#2867b5" stroke-width="0.6"/>
<circle cx="470.7" cy="677.5" r="4.1" fill="#2867b5" fill-opacity="0.42" stroke="#2867b5" stroke-width="0.6"/>
<circle cx="495.1" cy="684.2" r="4.1" fill="#2867b5" fill-opacity="0.42" stroke="#2867b5" stroke-width="0.6"/>
<circle cx="490.6" cy="711.1" r="4.1" fill="#2867b5" fill-opacity="0.42" stroke="#2867b5" stroke-width="0.6"/>
<circle cx="526.9" cy="650.6" r="4.1" fill="#2867b5" fill-opacity="0.42" stroke="#2867b5" stroke-width="0.6"/>
<circle cx="493.7" cy="704.4" r="4.1" fill="#2867b5" fill-opacity="0.42" stroke="#2867b5" stroke-width="0.6"/>
<circle cx="491.0" cy="670.8" r="4.1" fill="#2867b5" fill-opacity="0.42" stroke="#2867b5" stroke-width="0.6"/>
<circle cx="510.1" cy="643.9" r="4.1" fill="#2867b5" fill-opacity="0.42" stroke="#2867b5" stroke-width="0.6"/>
<circle cx="557.9" cy="596.7" r="4.1" fill="#2867b5" fill-opacity="0.42" stroke="#2867b5" stroke-width="0.6"/>
<circle cx="470.4" cy="664.0" r="4.1" fill="#2867b5" fill-opacity="0.42" stroke="#2867b5" stroke-width="0.6"/>
<circle cx="490.2" cy="664.0" r="4.1" fill="#2867b5" fill-opacity="0.42" stroke="#2867b5" stroke-width="0.6"/>
<circle cx="425.1" cy="691.0" r="4.1" fill="#2867b5" fill-opacity="0.42" stroke="#2867b5" stroke-width="0.6"/>
<circle cx="535.4" cy="657.3" r="4.1" fill="#2867b5" fill-opacity="0.42" stroke="#2867b5" stroke-width="0.6"/>
<circle cx="470.8" cy="664.0" r="4.1" fill="#2867b5" fill-opacity="0.42" stroke="#2867b5" stroke-width="0.6"/>
<circle cx="538.3" cy="637.1" r="4.1" fill="#2867b5" fill-opacity="0.42" stroke="#2867b5" stroke-width="0.6"/>
<circle cx="430.2" cy="724.6" r="4.1" fill="#2867b5" fill-opacity="0.42" stroke="#2867b5" stroke-width="0.6"/>
<circle cx="572.1" cy="664.0" r="4.1" fill="#2867b5" fill-opacity="0.42" stroke="#2867b5" stroke-width="0.6"/>
<circle cx="536.3" cy="637.1" r="4.1" fill="#2867b5" fill-opacity="0.42" stroke="#2867b5" stroke-width="0.6"/>
<circle cx="526.9" cy="677.5" r="4.1" fill="#2867b5" fill-opacity="0.42" stroke="#2867b5" stroke-width="0.6"/>
<circle cx="429.7" cy="751.5" r="4.1" fill="#2867b5" fill-opacity="0.42" stroke="#2867b5" stroke-width="0.6"/>
<circle cx="574.6" cy="610.2" r="4.1" fill="#2867b5" fill-opacity="0.42" stroke="#2867b5" stroke-width="0.6"/>
<circle cx="548.1" cy="657.3" r="4.1" fill="#2867b5" fill-opacity="0.42" stroke="#2867b5" stroke-width="0.6"/>
<circle cx="494.4" cy="697.7" r="4.1" fill="#2867b5" fill-opacity="0.42" stroke="#2867b5" stroke-width="0.6"/>
<circle cx="499.2" cy="670.8" r="4.1" fill="#2867b5" fill-opacity="0.42" stroke="#2867b5" stroke-width="0.6"/>
<circle cx="651.5" cy="603.5" r="4.1" fill="#2867b5" fill-opacity="0.42" stroke="#2867b5" stroke-width="0.6"/>
<circle cx="557.9" cy="637.1" r="4.1" fill="#2867b5" fill-opacity="0.42" stroke="#2867b5" stroke-width="0.6"/>
<circle cx="488.7" cy="670.8" r="4.1" fill="#2867b5" fill-opacity="0.42" stroke="#2867b5" stroke-width="0.6"/>
<circle cx="600.1" cy="643.9" r="4.1" fill="#2867b5" fill-opacity="0.42" stroke="#2867b5" stroke-width="0.6"/>
<circle cx="573.1" cy="596.7" r="4.1" fill="#2867b5" fill-opacity="0.42" stroke="#2867b5" stroke-width="0.6"/>
<circle cx="545.2" cy="650.6" r="4.1" fill="#2867b5" fill-opacity="0.42" stroke="#2867b5" stroke-width="0.6"/>
<circle cx="686.4" cy="516.0" r="4.1" fill="#2867b5" fill-opacity="0.42" stroke="#2867b5" stroke-width="0.6"/>
<circle cx="667.0" cy="529.4" r="4.1" fill="#2867b5" fill-opacity="0.42" stroke="#2867b5" stroke-width="0.6"/>
<circle cx="628.3" cy="529.4" r="4.1" fill="#2867b5" fill-opacity="0.42" stroke="#2867b5" stroke-width="0.6"/>
<circle cx="510.4" cy="657.3" r="4.1" fill="#2867b5" fill-opacity="0.42" stroke="#2867b5" stroke-width="0.6"/>
<circle cx="631.4" cy="529.4" r="4.1" fill="#2867b5" fill-opacity="0.42" stroke="#2867b5" stroke-width="0.6"/>
<circle cx="402.2" cy="731.3" r="4.1" fill="#2867b5" fill-opacity="0.42" stroke="#2867b5" stroke-width="0.6"/>
<circle cx="288.1" cy="825.6" r="4.1" fill="#2867b5" fill-opacity="0.42" stroke="#2867b5" stroke-width="0.6"/>
<circle cx="326.8" cy="785.2" r="4.1" fill="#2867b5" fill-opacity="0.42" stroke="#2867b5" stroke-width="0.6"/>
<circle cx="435.1" cy="711.1" r="4.1" fill="#2867b5" fill-opacity="0.42" stroke="#2867b5" stroke-width="0.6"/>
<circle cx="226.4" cy="919.8" r="4.1" fill="#2867b5" fill-opacity="0.42" stroke="#2867b5" stroke-width="0.6"/>
<circle cx="264.5" cy="839.0" r="4.1" fill="#2867b5" fill-opacity="0.42" stroke="#2867b5" stroke-width="0.6"/>
<circle cx="204.5" cy="892.8" r="4.1" fill="#2867b5" fill-opacity="0.42" stroke="#2867b5" stroke-width="0.6"/>
<circle cx="228.6" cy="852.5" r="4.1" fill="#2867b5" fill-opacity="0.42" stroke="#2867b5" stroke-width="0.6"/>
<circle cx="325.3" cy="805.4" r="4.1" fill="#2867b5" fill-opacity="0.42" stroke="#2867b5" stroke-width="0.6"/>
<circle cx="233.4" cy="886.1" r="4.1" fill="#2867b5" fill-opacity="0.42" stroke="#2867b5" stroke-width="0.6"/>
<circle cx="226.4" cy="892.8" r="4.1" fill="#2867b5" fill-opacity="0.42" stroke="#2867b5" stroke-width="0.6"/>
<circle cx="232.3" cy="839.0" r="4.1" fill="#2867b5" fill-opacity="0.42" stroke="#2867b5" stroke-width="0.6"/>
<circle cx="450.5" cy="684.2" r="4.1" fill="#2867b5" fill-opacity="0.42" stroke="#2867b5" stroke-width="0.6"/>
<circle cx="502.4" cy="596.7" r="4.1" fill="#2867b5" fill-opacity="0.42" stroke="#2867b5" stroke-width="0.6"/>
<circle cx="492.1" cy="684.2" r="4.1" fill="#2867b5" fill-opacity="0.42" stroke="#2867b5" stroke-width="0.6"/>
<circle cx="482.9" cy="670.8" r="4.1" fill="#2867b5" fill-opacity="0.42" stroke="#2867b5" stroke-width="0.6"/>
<circle cx="460.5" cy="684.2" r="4.1" fill="#2867b5" fill-opacity="0.42" stroke="#2867b5" stroke-width="0.6"/>
<circle cx="461.3" cy="677.5" r="4.1" fill="#2867b5" fill-opacity="0.42" stroke="#2867b5" stroke-width="0.6"/>
<circle cx="475.3" cy="684.2" r="4.1" fill="#2867b5" fill-opacity="0.42" stroke="#2867b5" stroke-width="0.6"/>
<circle cx="476.1" cy="697.7" r="4.1" fill="#2867b5" fill-opacity="0.42" stroke="#2867b5" stroke-width="0.6"/>
<circle cx="460.5" cy="650.6" r="4.1" fill="#2867b5" fill-opacity="0.42" stroke="#2867b5" stroke-width="0.6"/>
<circle cx="553.4" cy="569.8" r="4.1" fill="#2867b5" fill-opacity="0.42" stroke="#2867b5" stroke-width="0.6"/>
<circle cx="564.5" cy="616.9" r="4.1" fill="#2867b5" fill-opacity="0.42" stroke="#2867b5" stroke-width="0.6"/>
<circle cx="516.4" cy="711.1" r="4.1" fill="#2867b5" fill-opacity="0.42" stroke="#2867b5" stroke-width="0.6"/>
<circle cx="527.3" cy="616.9" r="4.1" fill="#2867b5" fill-opacity="0.42" stroke="#2867b5" stroke-width="0.6"/>
<circle cx="537.5" cy="616.9" r="4.1" fill="#2867b5" fill-opacity="0.42" stroke="#2867b5" stroke-width="0.6"/>
<circle cx="605.1" cy="536.2" r="4.1" fill="#2867b5" fill-opacity="0.42" stroke="#2867b5" stroke-width="0.6"/>
<circle cx="450.5" cy="684.2" r="4.1" fill="#2867b5" fill-opacity="0.42" stroke="#2867b5" stroke-width="0.6"/>
<circle cx="421.3" cy="697.7" r="4.1" fill="#2867b5" fill-opacity="0.42" stroke="#2867b5" stroke-width="0.6"/>
<circle cx="542.5" cy="650.6" r="4.1" fill="#2867b5" fill-opacity="0.42" stroke="#2867b5" stroke-width="0.6"/>
<circle cx="468.9" cy="684.2" r="4.1" fill="#2867b5" fill-opacity="0.42" stroke="#2867b5" stroke-width="0.6"/>
<circle cx="486.4" cy="650.6" r="4.1" fill="#2867b5" fill-opacity="0.42" stroke="#2867b5" stroke-width="0.6"/>
<circle cx="527.1" cy="616.9" r="4.1" fill="#2867b5" fill-opacity="0.42" stroke="#2867b5" stroke-width="0.6"/>
<circle cx="483.5" cy="684.2" r="4.1" fill="#2867b5" fill-opacity="0.42" stroke="#2867b5" stroke-width="0.6"/>
<circle cx="439.3" cy="717.9" r="4.1" fill="#2867b5" fill-opacity="0.42" stroke="#2867b5" stroke-width="0.6"/>
<circle cx="460.5" cy="650.6" r="4.1" fill="#2867b5" fill-opacity="0.42" stroke="#2867b5" stroke-width="0.6"/>
<circle cx="433.2" cy="684.2" r="4.1" fill="#2867b5" fill-opacity="0.42" stroke="#2867b5" stroke-width="0.6"/>
<circle cx="622.9" cy="542.9" r="4.1" fill="#2867b5" fill-opacity="0.42" stroke="#2867b5" stroke-width="0.6"/>
<circle cx="613.4" cy="583.3" r="4.1" fill="#2867b5" fill-opacity="0.42" stroke="#2867b5" stroke-width="0.6"/>
<circle cx="578.3" cy="623.7" r="4.1" fill="#2867b5" fill-opacity="0.42" stroke="#2867b5" stroke-width="0.6"/>
<circle cx="473.8" cy="697.7" r="4.1" fill="#2867b5" fill-opacity="0.42" stroke="#2867b5" stroke-width="0.6"/>
<circle cx="555.6" cy="657.3" r="4.1" fill="#2867b5" fill-opacity="0.42" stroke="#2867b5" stroke-width="0.6"/>
<circle cx="478.0" cy="697.7" r="4.1" fill="#2867b5" fill-opacity="0.42" stroke="#2867b5" stroke-width="0.6"/>
<circle cx="450.5" cy="684.2" r="4.1" fill="#2867b5" fill-opacity="0.42" stroke="#2867b5" stroke-width="0.6"/>
<circle cx="434.7" cy="684.2" r="4.1" fill="#2867b5" fill-opacity="0.42" stroke="#2867b5" stroke-width="0.6"/>
<circle cx="380.4" cy="724.6" r="4.1" fill="#2867b5" fill-opacity="0.42" stroke="#2867b5" stroke-width="0.6"/>
<circle cx="531.6" cy="630.4" r="4.1" fill="#2867b5" fill-opacity="0.42" stroke="#2867b5" stroke-width="0.6"/>
<circle cx="527.4" cy="623.7" r="4.1" fill="#2867b5" fill-opacity="0.42" stroke="#2867b5" stroke-width="0.6"/>
<circle cx="496.3" cy="637.1" r="4.1" fill="#2867b5" fill-opacity="0.42" stroke="#2867b5" stroke-width="0.6"/>
<circle cx="518.6" cy="657.3" r="4.1" fill="#2867b5" fill-opacity="0.42" stroke="#2867b5" stroke-width="0.6"/>
<circle cx="517.5" cy="623.7" r="4.1" fill="#2867b5" fill-opacity="0.42" stroke="#2867b5" stroke-width="0.6"/>
<circle cx="460.5" cy="650.6" r="4.1" fill="#2867b5" fill-opacity="0.42" stroke="#2867b5" stroke-width="0.6"/>
<circle cx="418.8" cy="711.1" r="4.1" fill="#2867b5" fill-opacity="0.42" stroke="#2867b5" stroke-width="0.6"/>
<circle cx="420.7" cy="744.8" r="4.1" fill="#2867b5" fill-opacity="0.42" stroke="#2867b5" stroke-width="0.6"/>
<circle cx="511.9" cy="664.0" r="4.1" fill="#2867b5" fill-opacity="0.42" stroke="#2867b5" stroke-width="0.6"/>
<circle cx="570.5" cy="596.7" r="4.1" fill="#2867b5" fill-opacity="0.42" stroke="#2867b5" stroke-width="0.6"/>
<circle cx="628.0" cy="563.1" r="4.1" fill="#2867b5" fill-opacity="0.42" stroke="#2867b5" stroke-width="0.6"/>
<circle cx="532.4" cy="711.1" r="4.1" fill="#2867b5" fill-opacity="0.42" stroke="#2867b5" stroke-width="0.6"/>
<circle cx="565.4" cy="569.8" r="4.1" fill="#2867b5" fill-opacity="0.42" stroke="#2867b5" stroke-width="0.6"/>
<circle cx="450.5" cy="684.2" r="4.1" fill="#2867b5" fill-opacity="0.42" stroke="#2867b5" stroke-width="0.6"/>
<circle cx="441.4" cy="724.6" r="4.1" fill="#2867b5" fill-opacity="0.42" stroke="#2867b5" stroke-width="0.6"/>
<circle cx="473.3" cy="691.0" r="4.1" fill="#2867b5" fill-opacity="0.42" stroke="#2867b5" stroke-width="0.6"/>
<circle cx="417.9" cy="717.9" r="4.1" fill="#2867b5" fill-opacity="0.42" stroke="#2867b5" stroke-width="0.6"/>
<circle cx="460.5" cy="650.6" r="4.1" fill="#2867b5" fill-opacity="0.42" stroke="#2867b5" stroke-width="0.6"/>
<circle cx="445.9" cy="684.2" r="4.1" fill="#2867b5" fill-opacity="0.42" stroke="#2867b5" stroke-width="0.6"/>
<circle cx="505.3" cy="691.0" r="4.1" fill="#2867b5" fill-opacity="0.42" stroke="#2867b5" stroke-width="0.6"/>
<circle cx="452.9" cy="650.6" r="4.1" fill="#2867b5" fill-opacity="0.42" stroke="#2867b5" stroke-width="0.6"/>
<circle cx="514.6" cy="610.2" r="4.1" fill="#2867b5" fill-opacity="0.42" stroke="#2867b5" stroke-width="0.6"/>
<circle cx="591.3" cy="596.7" r="4.1" fill="#2867b5" fill-opacity="0.42" stroke="#2867b5" stroke-width="0.6"/>
<circle cx="573.0" cy="630.4" r="4.1" fill="#2867b5" fill-opacity="0.42" stroke="#2867b5" stroke-width="0.6"/>
<circle cx="544.8" cy="664.0" r="4.1" fill="#2867b5" fill-opacity="0.42" stroke="#2867b5" stroke-width="0.6"/>
<circle cx="443.4" cy="697.7" r="4.1" fill="#2867b5" fill-opacity="0.42" stroke="#2867b5" stroke-width="0.6"/>
<circle cx="473.1" cy="677.5" r="4.1" fill="#2867b5" fill-opacity="0.42" stroke="#2867b5" stroke-width="0.6"/>
<circle cx="455.2" cy="657.3" r="4.1" fill="#2867b5" fill-opacity="0.42" stroke="#2867b5" stroke-width="0.6"/>
<circle cx="512.9" cy="623.7" r="4.1" fill="#2867b5" fill-opacity="0.42" stroke="#2867b5" stroke-width="0.6"/>
<circle cx="578.8" cy="583.3" r="4.1" fill="#2867b5" fill-opacity="0.42" stroke="#2867b5" stroke-width="0.6"/>
<circle cx="519.5" cy="670.8" r="4.1" fill="#2867b5" fill-opacity="0.42" stroke="#2867b5" stroke-width="0.6"/>
<circle cx="523.8" cy="677.5" r="4.1" fill="#2867b5" fill-opacity="0.42" stroke="#2867b5" stroke-width="0.6"/>
<circle cx="578.0" cy="637.1" r="4.1" fill="#2867b5" fill-opacity="0.42" stroke="#2867b5" stroke-width="0.6"/>
<circle cx="635.7" cy="553.2" r="4.1" fill="#2867b5" fill-opacity="0.42" stroke="#2867b5" stroke-width="0.6"/>
<circle cx="493.8" cy="662.8" r="4.1" fill="#2867b5" fill-opacity="0.42" stroke="#2867b5" stroke-width="0.6"/>
<circle cx="565.0" cy="649.0" r="4.1" fill="#2867b5" fill-opacity="0.42" stroke="#2867b5" stroke-width="0.6"/>
<circle cx="539.9" cy="601.5" r="4.1" fill="#2867b5" fill-opacity="0.42" stroke="#2867b5" stroke-width="0.6"/>
<circle cx="613.9" cy="575.1" r="4.1" fill="#2867b5" fill-opacity="0.42" stroke="#2867b5" stroke-width="0.6"/>
<circle cx="517.1" cy="630.8" r="4.1" fill="#2867b5" fill-opacity="0.42" stroke="#2867b5" stroke-width="0.6"/>
<circle cx="556.2" cy="636.8" r="4.1" fill="#2867b5" fill-opacity="0.42" stroke="#2867b5" stroke-width="0.6"/>
<circle cx="505.4" cy="726.5" r="4.1" fill="#2867b5" fill-opacity="0.42" stroke="#2867b5" stroke-width="0.6"/>
<circle cx="607.8" cy="594.6" r="4.1" fill="#2867b5" fill-opacity="0.42" stroke="#2867b5" stroke-width="0.6"/>
<circle cx="388.2" cy="709.2" r="4.1" fill="#2867b5" fill-opacity="0.42" stroke="#2867b5" stroke-width="0.6"/>
<circle cx="611.2" cy="610.1" r="4.1" fill="#2867b5" fill-opacity="0.42" stroke="#2867b5" stroke-width="0.6"/>
<circle cx="460.2" cy="703.8" r="4.1" fill="#2867b5" fill-opacity="0.42" stroke="#2867b5" stroke-width="0.6"/>
<circle cx="599.2" cy="627.2" r="4.1" fill="#2867b5" fill-opacity="0.42" stroke="#2867b5" stroke-width="0.6"/>
<circle cx="597.5" cy="594.0" r="4.1" fill="#2867b5" fill-opacity="0.42" stroke="#2867b5" stroke-width="0.6"/>
<circle cx="576.0" cy="595.4" r="4.1" fill="#2867b5" fill-opacity="0.42" stroke="#2867b5" stroke-width="0.6"/>
<circle cx="547.4" cy="648.5" r="4.1" fill="#2867b5" fill-opacity="0.42" stroke="#2867b5" stroke-width="0.6"/>
<circle cx="391.0" cy="743.2" r="4.1" fill="#2867b5" fill-opacity="0.42" stroke="#2867b5" stroke-width="0.6"/>
<circle cx="397.2" cy="752.2" r="4.1" fill="#2867b5" fill-opacity="0.42" stroke="#2867b5" stroke-width="0.6"/>
<circle cx="428.0" cy="717.9" r="4.1" fill="#2867b5" fill-opacity="0.42" stroke="#2867b5" stroke-width="0.6"/>
<circle cx="428.3" cy="717.9" r="4.1" fill="#2867b5" fill-opacity="0.42" stroke="#2867b5" stroke-width="0.6"/>
<circle cx="339.2" cy="761.9" r="4.1" fill="#2867b5" fill-opacity="0.42" stroke="#2867b5" stroke-width="0.6"/>
<circle cx="396.2" cy="699.2" r="4.1" fill="#2867b5" fill-opacity="0.42" stroke="#2867b5" stroke-width="0.6"/>
<circle cx="441.9" cy="650.6" r="4.1" fill="#2867b5" fill-opacity="0.42" stroke="#2867b5" stroke-width="0.6"/>
<circle cx="431.3" cy="650.6" r="4.1" fill="#2867b5" fill-opacity="0.42" stroke="#2867b5" stroke-width="0.6"/>
<circle cx="381.3" cy="752.9" r="4.1" fill="#2867b5" fill-opacity="0.42" stroke="#2867b5" stroke-width="0.6"/>
<circle cx="427.3" cy="705.7" r="4.1" fill="#2867b5" fill-opacity="0.42" stroke="#2867b5" stroke-width="0.6"/>
<circle cx="528.4" cy="624.6" r="4.1" fill="#2867b5" fill-opacity="0.42" stroke="#2867b5" stroke-width="0.6"/>
<circle cx="501.4" cy="664.0" r="4.1" fill="#2867b5" fill-opacity="0.42" stroke="#2867b5" stroke-width="0.6"/>
<circle cx="481.5" cy="677.5" r="4.1" fill="#2867b5" fill-opacity="0.42" stroke="#2867b5" stroke-width="0.6"/>
<circle cx="482.5" cy="675.0" r="4.1" fill="#2867b5" fill-opacity="0.42" stroke="#2867b5" stroke-width="0.6"/>
<circle cx="428.4" cy="716.0" r="4.1" fill="#2867b5" fill-opacity="0.42" stroke="#2867b5" stroke-width="0.6"/>
<circle cx="520.5" cy="677.5" r="4.1" fill="#2867b5" fill-opacity="0.42" stroke="#2867b5" stroke-width="0.6"/>
<circle cx="281.4" cy="804.9" r="4.1" fill="#2867b5" fill-opacity="0.42" stroke="#2867b5" stroke-width="0.6"/>
<circle cx="435.0" cy="727.3" r="4.1" fill="#2867b5" fill-opacity="0.42" stroke="#2867b5" stroke-width="0.6"/>
<circle cx="433.5" cy="711.3" r="4.1" fill="#2867b5" fill-opacity="0.42" stroke="#2867b5" stroke-width="0.6"/>
<circle cx="437.3" cy="707.7" r="4.1" fill="#2867b5" fill-opacity="0.42" stroke="#2867b5" stroke-width="0.6"/>
<circle cx="287.0" cy="834.9" r="4.1" fill="#2867b5" fill-opacity="0.42" stroke="#2867b5" stroke-width="0.6"/>
<circle cx="428.6" cy="718.7" r="4.1" fill="#2867b5" fill-opacity="0.42" stroke="#2867b5" stroke-width="0.6"/>
<circle cx="431.4" cy="704.5" r="4.1" fill="#2867b5" fill-opacity="0.42" stroke="#2867b5" stroke-width="0.6"/>
<circle cx="401.1" cy="713.5" r="4.1" fill="#2867b5" fill-opacity="0.42" stroke="#2867b5" stroke-width="0.6"/>
<circle cx="406.4" cy="749.1" r="4.1" fill="#2867b5" fill-opacity="0.42" stroke="#2867b5" stroke-width="0.6"/>
<circle cx="439.5" cy="743.4" r="4.1" fill="#2867b5" fill-opacity="0.42" stroke="#2867b5" stroke-width="0.6"/>
<circle cx="468.8" cy="717.8" r="4.1" fill="#2867b5" fill-opacity="0.42" stroke="#2867b5" stroke-width="0.6"/>
<circle cx="480.2" cy="729.4" r="4.1" fill="#2867b5" fill-opacity="0.42" stroke="#2867b5" stroke-width="0.6"/>
<circle cx="436.5" cy="705.9" r="4.1" fill="#2867b5" fill-opacity="0.42" stroke="#2867b5" stroke-width="0.6"/>
<circle cx="444.1" cy="705.4" r="4.1" fill="#2867b5" fill-opacity="0.42" stroke="#2867b5" stroke-width="0.6"/>
<circle cx="459.9" cy="683.1" r="4.1" fill="#2867b5" fill-opacity="0.42" stroke="#2867b5" stroke-width="0.6"/>
<circle cx="471.1" cy="670.1" r="4.1" fill="#2867b5" fill-opacity="0.42" stroke="#2867b5" stroke-width="0.6"/>
<line x1="130.0" y1="944.0" x2="750.0" y2="474.0" stroke="#1a1a1a" stroke-width="3.2"/>
<text x="681.2989690721649" y="522.1443298969073" font-family="Helvetica, Arial, sans-serif" font-size="18" fill="#1a1a1a" text-anchor="start" font-weight="bold">gap = ρσ</text>
<text x="440.0" y="998" font-family="Helvetica, Arial, sans-serif" font-size="17" fill="#1a1a1a" text-anchor="middle" font-weight="bold">forecast  ρσ  =  agreement × offered spread</text>
<text x="66" y="709.0" font-family="Helvetica, Arial, sans-serif" font-size="17" fill="#1a1a1a" font-weight="bold" text-anchor="middle" transform="rotate(-90 66 709.0)">observed selector gap  g  =  kept mean − pool mean</text>
<rect x="146" y="490" width="300" height="82" rx="10" fill="white" stroke="#1a1a1a" stroke-width="2"/>
<text x="162" y="518" font-family="Helvetica, Arial, sans-serif" font-size="20" fill="#1a1a1a" text-anchor="start" font-weight="bold">gap ≈ ρσ</text>
<text x="162" y="546" font-family="Helvetica, Arial, sans-serif" font-size="15" fill="#1a1a1a" text-anchor="start" font-weight="normal">no fitted coefficient  ·  R² 0.810  ·  error 0.042</text>
<rect x="800" y="514" width="340" height="210" rx="10" fill="#fdf6e8" stroke="#1a1a1a" stroke-width="2.5"/>
<text x="822" y="550" font-family="Helvetica, Arial, sans-serif" font-size="19" fill="#1a1a1a" text-anchor="start" font-weight="bold">One round ahead</text>
<text x="822" y="576.0" font-family="Helvetica, Arial, sans-serif" font-size="15.5" fill="#1a1a1a" text-anchor="start" font-weight="normal">Predicting the judge's picks costs</text>
<text x="822" y="596.77" font-family="Helvetica, Arial, sans-serif" font-size="15.5" fill="#1a1a1a" text-anchor="start" font-weight="normal">almost nothing.</text>
<text x="822" y="622" font-family="Helvetica, Arial, sans-serif" font-size="14" fill="#6b7684" text-anchor="start" font-weight="normal">before seeing the picks</text>
<text x="822" y="650" font-family="Helvetica, Arial, sans-serif" font-size="21" fill="#2867b5" text-anchor="start" font-weight="bold">value error 0.0902</text>
<text x="1118" y="650" font-family="Helvetica, Arial, sans-serif" font-size="14.5" fill="#6b7684" text-anchor="end" font-weight="normal">using ρσ</text>
<text x="822" y="680" font-family="Helvetica, Arial, sans-serif" font-size="14" fill="#6b7684" text-anchor="start" font-weight="normal">after seeing which were kept</text>
<text x="822" y="708" font-family="Helvetica, Arial, sans-serif" font-size="21" fill="#1a1a1a" text-anchor="start" font-weight="bold">value error 0.0854</text>
<text x="1118" y="708" font-family="Helvetica, Arial, sans-serif" font-size="14.5" fill="#6b7684" text-anchor="end" font-weight="normal">kept set</text>
</svg>