<svg xmlns="http://www.w3.org/2000/svg" viewBox="0 0 1120 682" font-family="Helvetica, Arial, sans-serif">
<rect width="1120" height="682" fill="white"/>
<text x="560.0" y="46" text-anchor="middle" font-size="26" fill="#1a1a1a" font-weight="bold" font-family="Helvetica, Arial, sans-serif">Agreement is organized by the judge setup — but not safe to freeze</text>
<text x="560.0" y="74" text-anchor="middle" font-size="16.5" fill="#6b7684" font-weight="normal" font-family="Helvetica, Arial, sans-serif">the judging setup gives a useful first-round estimate; later within-run drift is the main remaining endpoint error</text>
<line x1="150" y1="473.0" x2="750" y2="473.0" stroke="#e4e4e0" stroke-width="1"/>
<text x="138" y="479.0" text-anchor="end" font-size="17" fill="#6b7684" font-weight="normal" font-family="Helvetica, Arial, sans-serif">−1</text>
<line x1="150" y1="398.0" x2="750" y2="398.0" stroke="#e4e4e0" stroke-width="1"/>
<text x="138" y="404.0" text-anchor="end" font-size="17" fill="#6b7684" font-weight="normal" font-family="Helvetica, Arial, sans-serif">−0.5</text>
<line x1="150" y1="323.0" x2="750" y2="323.0" stroke="#e4e4e0" stroke-width="1"/>
<text x="138" y="329.0" text-anchor="end" font-size="17" fill="#6b7684" font-weight="normal" font-family="Helvetica, Arial, sans-serif">0</text>
<line x1="150" y1="248.0" x2="750" y2="248.0" stroke="#e4e4e0" stroke-width="1"/>
<text x="138" y="254.0" text-anchor="end" font-size="17" fill="#6b7684" font-weight="normal" font-family="Helvetica, Arial, sans-serif">+0.5</text>
<line x1="150" y1="173.0" x2="750" y2="173.0" stroke="#e4e4e0" stroke-width="1"/>
<text x="138" y="179.0" text-anchor="end" font-size="17" fill="#6b7684" font-weight="normal" font-family="Helvetica, Arial, sans-serif">+1</text>
<line x1="150" y1="323.0" x2="750" y2="323.0" stroke="#1a1a1a" stroke-width="1.4" stroke-dasharray="6 5"/>
<text x="156" y="343.0" text-anchor="start" font-size="14" fill="#6b7684" font-weight="normal" font-family="Helvetica, Arial, sans-serif">ρ = 0: keeps at random</text>
<text x="150.0" y="518" text-anchor="middle" font-size="17" fill="#1a1a1a" font-weight="normal" font-family="Helvetica, Arial, sans-serif">1</text>
<text x="350.0" y="518" text-anchor="middle" font-size="17" fill="#1a1a1a" font-weight="normal" font-family="Helvetica, Arial, sans-serif">2</text>
<text x="550.0" y="518" text-anchor="middle" font-size="17" fill="#1a1a1a" font-weight="normal" font-family="Helvetica, Arial, sans-serif">3</text>
<text x="750.0" y="518" text-anchor="middle" font-size="17" fill="#1a1a1a" font-weight="normal" font-family="Helvetica, Arial, sans-serif">4</text>
<text x="450.0" y="548" text-anchor="middle" font-size="18" fill="#1a1a1a" font-weight="normal" font-family="Helvetica, Arial, sans-serif">round</text>
<text x="84" y="323.0" font-size="18" fill="#1a1a1a" font-family="Helvetica, Arial, sans-serif" transform="rotate(-90 84 323.0)" text-anchor="middle">judge agreement ρ</text>
<polyline points="150.0,230.3 350.0,246.4 550.0,269.2" fill="none" stroke="#1f6fd0" stroke-width="1.4" stroke-opacity="0.16"/>
<polyline points="150.0,257.2 350.0,260.9 550.0,202.6" fill="none" stroke="#1f6fd0" stroke-width="1.4" stroke-opacity="0.16"/>
<polyline points="150.0,242.5 350.0,250.3" fill="none" stroke="#1f6fd0" stroke-width="1.4" stroke-opacity="0.16"/>
<polyline points="150.0,242.0 350.0,252.5 550.0,235.9" fill="none" stroke="#1f6fd0" stroke-width="4.0"/>
<circle cx="150.0" cy="242.0" r="5" fill="#1f6fd0" stroke="white" stroke-width="1.6"/>
<circle cx="350.0" cy="252.5" r="5" fill="#1f6fd0" stroke="white" stroke-width="1.6"/>
<circle cx="550.0" cy="235.9" r="5" fill="#1f6fd0" stroke="white" stroke-width="1.6"/>
<line x1="558.0" y1="235.9" x2="762" y2="224.9" stroke="#1f6fd0" stroke-width="1" stroke-opacity="0.5"/>
<text x="770" y="229.9325" text-anchor="start" font-size="15.5" fill="#1f6fd0" font-weight="bold" font-family="Helvetica, Arial, sans-serif">self-judge, peer pool  (ρ = +0.53)</text>
<polyline points="150.0,281.0 350.0,309.9 550.0,282.9 750.0,296.7" fill="none" stroke="#1f9e57" stroke-width="1.4" stroke-opacity="0.16"/>
<polyline points="150.0,233.3 350.0,248.4 550.0,244.2 750.0,228.5" fill="none" stroke="#1f9e57" stroke-width="1.4" stroke-opacity="0.16"/>
<polyline points="150.0,257.2 350.0,279.2 550.0,263.5 750.0,262.6" fill="none" stroke="#1f9e57" stroke-width="4.0"/>
<circle cx="150.0" cy="257.2" r="5" fill="#1f9e57" stroke="white" stroke-width="1.6"/>
<circle cx="350.0" cy="279.2" r="5" fill="#1f9e57" stroke="white" stroke-width="1.6"/>
<circle cx="550.0" cy="263.5" r="5" fill="#1f9e57" stroke="white" stroke-width="1.6"/>
<circle cx="750.0" cy="262.6" r="5" fill="#1f9e57" stroke="white" stroke-width="1.6"/>
<line x1="758.0" y1="262.6" x2="762" y2="273.6" stroke="#1f9e57" stroke-width="1" stroke-opacity="0.5"/>
<text x="770" y="278.58" text-anchor="start" font-size="15.5" fill="#1f9e57" font-weight="bold" font-family="Helvetica, Arial, sans-serif">cautious-copy judge  (ρ = +0.38)</text>
<polyline points="150.0,349.8 350.0,332.1 550.0,319.7 750.0,323.0" fill="none" stroke="#6b7684" stroke-width="1.4" stroke-opacity="0.16"/>
<polyline points="150.0,340.7 350.0,362.4 550.0,339.1 750.0,293.0" fill="none" stroke="#6b7684" stroke-width="1.4" stroke-opacity="0.16"/>
<polyline points="150.0,329.4 350.0,346.4 550.0,319.0 750.0,319.5" fill="none" stroke="#6b7684" stroke-width="1.4" stroke-opacity="0.16"/>
<polyline points="150.0,332.4 350.0,295.7 550.0,332.3 750.0,309.3" fill="none" stroke="#6b7684" stroke-width="1.4" stroke-opacity="0.16"/>
<polyline points="150.0,317.4 350.0,331.3 550.0,335.0 750.0,299.2" fill="none" stroke="#6b7684" stroke-width="1.4" stroke-opacity="0.16"/>
<polyline points="150.0,361.8 350.0,274.8 550.0,302.7 750.0,412.9" fill="none" stroke="#6b7684" stroke-width="1.4" stroke-opacity="0.16"/>
<polyline points="150.0,365.0 350.0,304.8 550.0,262.6 750.0,253.9" fill="none" stroke="#6b7684" stroke-width="1.4" stroke-opacity="0.16"/>
<polyline points="150.0,349.8 350.0,345.2 550.0,329.2 750.0,297.8" fill="none" stroke="#6b7684" stroke-width="1.4" stroke-opacity="0.16"/>
<polyline points="150.0,309.5 350.0,330.6 550.0,281.0 750.0,270.3" fill="none" stroke="#6b7684" stroke-width="1.4" stroke-opacity="0.16"/>
<polyline points="150.0,342.8 350.0,279.4 550.0,287.2 750.0,311.8" fill="none" stroke="#6b7684" stroke-width="1.4" stroke-opacity="0.16"/>
<polyline points="150.0,320.7 350.0,297.5 550.0,294.3 750.0,295.2" fill="none" stroke="#6b7684" stroke-width="1.4" stroke-opacity="0.16"/>
<polyline points="150.0,274.2 350.0,305.4 550.0,292.9 750.0,317.6" fill="none" stroke="#6b7684" stroke-width="1.4" stroke-opacity="0.16"/>
<polyline points="150.0,265.7 350.0,329.8 550.0,354.1 750.0,362.5" fill="none" stroke="#6b7684" stroke-width="1.4" stroke-opacity="0.16"/>
<polyline points="150.0,338.7 350.0,328.9 550.0,314.0 750.0,317.9" fill="none" stroke="#6b7684" stroke-width="1.4" stroke-opacity="0.16"/>
<polyline points="150.0,299.7 350.0,316.3 550.0,318.2 750.0,305.1" fill="none" stroke="#6b7684" stroke-width="1.4" stroke-opacity="0.16"/>
<polyline points="150.0,245.5 350.0,247.8 550.0,392.3 750.0,303.4" fill="none" stroke="#6b7684" stroke-width="1.4" stroke-opacity="0.16"/>
<polyline points="150.0,379.1 350.0,258.0" fill="none" stroke="#6b7684" stroke-width="1.4" stroke-opacity="0.16"/>
<polyline points="150.0,324.6 350.0,309.9 550.0,315.1 750.0,312.0" fill="none" stroke="#6b7684" stroke-width="4.0"/>
<circle cx="150.0" cy="324.6" r="5" fill="#6b7684" stroke="white" stroke-width="1.6"/>
<circle cx="350.0" cy="309.9" r="5" fill="#6b7684" stroke="white" stroke-width="1.6"/>
<circle cx="550.0" cy="315.1" r="5" fill="#6b7684" stroke="white" stroke-width="1.6"/>
<circle cx="750.0" cy="312.0" r="5" fill="#6b7684" stroke="white" stroke-width="1.6"/>
<line x1="758.0" y1="312.0" x2="762" y2="312.0" stroke="#6b7684" stroke-width="1" stroke-opacity="0.5"/>
<text x="770" y="317.0014705882353" text-anchor="start" font-size="15.5" fill="#6b7684" font-weight="bold" font-family="Helvetica, Arial, sans-serif">base / frozen judges  (ρ = +0.06)</text>
<polyline points="150.0,378.1 350.0,370.1 550.0,359.0 750.0,325.2" fill="none" stroke="#9427b5" stroke-width="1.4" stroke-opacity="0.16"/>
<polyline points="150.0,353.3 350.0,365.6 550.0,357.0 750.0,358.3" fill="none" stroke="#9427b5" stroke-width="1.4" stroke-opacity="0.16"/>
<polyline points="150.0,365.7 350.0,367.8 550.0,358.0 750.0,341.8" fill="none" stroke="#9427b5" stroke-width="4.0"/>
<circle cx="150.0" cy="365.7" r="5" fill="#9427b5" stroke="white" stroke-width="1.6"/>
<circle cx="350.0" cy="367.8" r="5" fill="#9427b5" stroke="white" stroke-width="1.6"/>
<circle cx="550.0" cy="358.0" r="5" fill="#9427b5" stroke="white" stroke-width="1.6"/>
<circle cx="750.0" cy="341.8" r="5" fill="#9427b5" stroke="white" stroke-width="1.6"/>
<line x1="758.0" y1="341.8" x2="762" y2="341.8" stroke="#9427b5" stroke-width="1" stroke-opacity="0.5"/>
<text x="770" y="346.765" text-anchor="start" font-size="15.5" fill="#9427b5" font-weight="bold" font-family="Helvetica, Arial, sans-serif">self-judge duels, base text  (ρ = −0.24)</text>
<polyline points="150.0,473.0 350.0,473.0 550.0,473.0 750.0,473.0" fill="none" stroke="#d1341f" stroke-width="1.4" stroke-opacity="0.16"/>
<polyline points="150.0,473.0 350.0,473.0 550.0,473.0 750.0,473.0" fill="none" stroke="#d1341f" stroke-width="1.4" stroke-opacity="0.16"/>
<polyline points="150.0,473.0 350.0,473.0 550.0,473.0 750.0,473.0" fill="none" stroke="#d1341f" stroke-width="1.4" stroke-opacity="0.16"/>
<polyline points="150.0,473.0 350.0,473.0 550.0,473.0 750.0,473.0" fill="none" stroke="#d1341f" stroke-width="1.4" stroke-opacity="0.16"/>
<polyline points="150.0,473.0 350.0,473.0 550.0,473.0 750.0,473.0" fill="none" stroke="#d1341f" stroke-width="1.4" stroke-opacity="0.16"/>
<polyline points="150.0,473.0 350.0,473.0" fill="none" stroke="#d1341f" stroke-width="1.4" stroke-opacity="0.16"/>
<polyline points="150.0,473.0 350.0,473.0 550.0,473.0 750.0,473.0" fill="none" stroke="#d1341f" stroke-width="1.4" stroke-opacity="0.16"/>
<polyline points="150.0,473.0 350.0,473.0 550.0,473.0 750.0,473.0" fill="none" stroke="#d1341f" stroke-width="1.4" stroke-opacity="0.16"/>
<polyline points="150.0,473.0 350.0,473.0 550.0,473.0 750.0,473.0" fill="none" stroke="#d1341f" stroke-width="4.0"/>
<circle cx="150.0" cy="473.0" r="5" fill="#d1341f" stroke="white" stroke-width="1.6"/>
<circle cx="350.0" cy="473.0" r="5" fill="#d1341f" stroke="white" stroke-width="1.6"/>
<circle cx="550.0" cy="473.0" r="5" fill="#d1341f" stroke="white" stroke-width="1.6"/>
<circle cx="750.0" cy="473.0" r="5" fill="#d1341f" stroke="white" stroke-width="1.6"/>
<line x1="758.0" y1="473.0" x2="762" y2="473.0" stroke="#d1341f" stroke-width="1" stroke-opacity="0.5"/>
<text x="770" y="478.0" text-anchor="start" font-size="15.5" fill="#d1341f" font-weight="bold" font-family="Helvetica, Arial, sans-serif">score oracle  (ρ = −1.00)</text>
<polyline points="150.0,321.2 350.0,290.9 550.0,282.8 750.0,311.6" fill="none" stroke="#6b7684" stroke-width="1.8" stroke-dasharray="5 4" stroke-opacity="0.7"/>
<rect x="150" y="156" width="372" height="30" rx="8" fill="#eef5ee" stroke="#1a1a1a" stroke-width="1.6"/>
<text x="162" y="176" text-anchor="start" font-size="15.5" fill="#1a1a1a" font-weight="bold" font-family="Helvetica, Arial, sans-serif">82% of agreement's variance is between judge setups, not rounds</text>
<rect x="150" y="590" width="840" height="74" rx="10" fill="#fbf6ec" stroke="#c9a94e" stroke-width="1.6"/>
<text x="166" y="612" text-anchor="start" font-size="15.5" fill="#1a1a1a" font-weight="bold" font-family="Helvetica, Arial, sans-serif">Closed-loop rollout check (selection-driven endpoints, condition held out):</text>
<text x="166" y="634" text-anchor="start" font-size="15.5" fill="#1a1a1a" font-weight="normal" font-family="Helvetica, Arial, sans-serif">freeze round-1 agreement → MAE 0.139;   read later agreement → 0.115;   read later spread → 0.139.</text>
<text x="166" y="654" text-anchor="start" font-size="15.5" fill="#1a1a1a" font-weight="normal" font-family="Helvetica, Arial, sans-serif">The missing state is agreement drift, not spread.</text>
</svg>