<svg xmlns="http://www.w3.org/2000/svg" viewBox="0 0 1120 600" font-family="Helvetica, Arial, sans-serif">
<rect width="1120" height="600" fill="white"/>
<text x="560.0" y="52" text-anchor="middle" font-size="26" fill="#1a1a1a" font-weight="bold" font-family="Helvetica, Arial, sans-serif">Agreement is a property of the judge, not a per-round dynamic</text>
<line x1="150" y1="465.0" x2="750" y2="465.0" stroke="#e4e4e0" stroke-width="1"/>
<text x="138" y="471.0" text-anchor="end" font-size="17" fill="#6b7684" font-weight="normal" font-family="Helvetica, Arial, sans-serif">−1</text>
<line x1="150" y1="390.0" x2="750" y2="390.0" stroke="#e4e4e0" stroke-width="1"/>
<text x="138" y="396.0" text-anchor="end" font-size="17" fill="#6b7684" font-weight="normal" font-family="Helvetica, Arial, sans-serif">−0.5</text>
<line x1="150" y1="315.0" x2="750" y2="315.0" stroke="#e4e4e0" stroke-width="1"/>
<text x="138" y="321.0" text-anchor="end" font-size="17" fill="#6b7684" font-weight="normal" font-family="Helvetica, Arial, sans-serif">0</text>
<line x1="150" y1="240.0" x2="750" y2="240.0" stroke="#e4e4e0" stroke-width="1"/>
<text x="138" y="246.0" text-anchor="end" font-size="17" fill="#6b7684" font-weight="normal" font-family="Helvetica, Arial, sans-serif">+0.5</text>
<line x1="150" y1="165.0" x2="750" y2="165.0" stroke="#e4e4e0" stroke-width="1"/>
<text x="138" y="171.0" text-anchor="end" font-size="17" fill="#6b7684" font-weight="normal" font-family="Helvetica, Arial, sans-serif">+1</text>
<line x1="150" y1="315.0" x2="750" y2="315.0" stroke="#1a1a1a" stroke-width="1.4" stroke-dasharray="6 5"/>
<text x="156" y="335.0" text-anchor="start" font-size="14" fill="#6b7684" font-weight="normal" font-family="Helvetica, Arial, sans-serif">ρ = 0: keeps at random</text>
<text x="150.0" y="510" text-anchor="middle" font-size="17" fill="#1a1a1a" font-weight="normal" font-family="Helvetica, Arial, sans-serif">1</text>
<text x="350.0" y="510" text-anchor="middle" font-size="17" fill="#1a1a1a" font-weight="normal" font-family="Helvetica, Arial, sans-serif">2</text>
<text x="550.0" y="510" text-anchor="middle" font-size="17" fill="#1a1a1a" font-weight="normal" font-family="Helvetica, Arial, sans-serif">3</text>
<text x="750.0" y="510" text-anchor="middle" font-size="17" fill="#1a1a1a" font-weight="normal" font-family="Helvetica, Arial, sans-serif">4</text>
<text x="450.0" y="540" text-anchor="middle" font-size="18" fill="#1a1a1a" font-weight="normal" font-family="Helvetica, Arial, sans-serif">round</text>
<text x="84" y="315.0" font-size="18" fill="#1a1a1a" font-family="Helvetica, Arial, sans-serif" transform="rotate(-90 84 315.0)" text-anchor="middle">judge agreement ρ</text>
<polyline points="150.0,222.3 350.0,238.4 550.0,261.2" fill="none" stroke="#1f6fd0" stroke-width="1.4" stroke-opacity="0.16"/>
<polyline points="150.0,249.2 350.0,252.9 550.0,194.6" fill="none" stroke="#1f6fd0" stroke-width="1.4" stroke-opacity="0.16"/>
<polyline points="150.0,234.5 350.0,242.3" fill="none" stroke="#1f6fd0" stroke-width="1.4" stroke-opacity="0.16"/>
<polyline points="150.0,234.0 350.0,244.5 550.0,227.9" fill="none" stroke="#1f6fd0" stroke-width="4.0"/>
<circle cx="150.0" cy="234.0" r="5" fill="#1f6fd0" stroke="white" stroke-width="1.6"/>
<circle cx="350.0" cy="244.5" r="5" fill="#1f6fd0" stroke="white" stroke-width="1.6"/>
<circle cx="550.0" cy="227.9" r="5" fill="#1f6fd0" stroke="white" stroke-width="1.6"/>
<line x1="558.0" y1="227.9" x2="762" y2="216.9" stroke="#1f6fd0" stroke-width="1" stroke-opacity="0.5"/>
<text x="770" y="221.9325" text-anchor="start" font-size="15.5" fill="#1f6fd0" font-weight="bold" font-family="Helvetica, Arial, sans-serif">self-judge, peer pool  (ρ = +0.53)</text>
<polyline points="150.0,273.0 350.0,301.9 550.0,274.9 750.0,288.7" fill="none" stroke="#1f9e57" stroke-width="1.4" stroke-opacity="0.16"/>
<polyline points="150.0,225.3 350.0,240.4 550.0,236.2 750.0,220.5" fill="none" stroke="#1f9e57" stroke-width="1.4" stroke-opacity="0.16"/>
<polyline points="150.0,249.2 350.0,271.2 550.0,255.5 750.0,254.6" fill="none" stroke="#1f9e57" stroke-width="4.0"/>
<circle cx="150.0" cy="249.2" r="5" fill="#1f9e57" stroke="white" stroke-width="1.6"/>
<circle cx="350.0" cy="271.2" r="5" fill="#1f9e57" stroke="white" stroke-width="1.6"/>
<circle cx="550.0" cy="255.5" r="5" fill="#1f9e57" stroke="white" stroke-width="1.6"/>
<circle cx="750.0" cy="254.6" r="5" fill="#1f9e57" stroke="white" stroke-width="1.6"/>
<line x1="758.0" y1="254.6" x2="762" y2="265.6" stroke="#1f9e57" stroke-width="1" stroke-opacity="0.5"/>
<text x="770" y="270.58" text-anchor="start" font-size="15.5" fill="#1f9e57" font-weight="bold" font-family="Helvetica, Arial, sans-serif">cautious-copy judge  (ρ = +0.38)</text>
<polyline points="150.0,341.8 350.0,324.1 550.0,311.7 750.0,315.0" fill="none" stroke="#6b7684" stroke-width="1.4" stroke-opacity="0.16"/>
<polyline points="150.0,332.7 350.0,354.4 550.0,331.1 750.0,285.0" fill="none" stroke="#6b7684" stroke-width="1.4" stroke-opacity="0.16"/>
<polyline points="150.0,321.4 350.0,338.4 550.0,311.0 750.0,311.5" fill="none" stroke="#6b7684" stroke-width="1.4" stroke-opacity="0.16"/>
<polyline points="150.0,324.4 350.0,287.7 550.0,324.3 750.0,301.3" fill="none" stroke="#6b7684" stroke-width="1.4" stroke-opacity="0.16"/>
<polyline points="150.0,309.4 350.0,323.3 550.0,327.0 750.0,291.2" fill="none" stroke="#6b7684" stroke-width="1.4" stroke-opacity="0.16"/>
<polyline points="150.0,353.8 350.0,266.8 550.0,294.7 750.0,404.9" fill="none" stroke="#6b7684" stroke-width="1.4" stroke-opacity="0.16"/>
<polyline points="150.0,357.0 350.0,296.8 550.0,254.6 750.0,245.9" fill="none" stroke="#6b7684" stroke-width="1.4" stroke-opacity="0.16"/>
<polyline points="150.0,341.8 350.0,337.2 550.0,321.2 750.0,289.8" fill="none" stroke="#6b7684" stroke-width="1.4" stroke-opacity="0.16"/>
<polyline points="150.0,301.5 350.0,322.6 550.0,273.0 750.0,262.3" fill="none" stroke="#6b7684" stroke-width="1.4" stroke-opacity="0.16"/>
<polyline points="150.0,334.8 350.0,271.4 550.0,279.2 750.0,303.8" fill="none" stroke="#6b7684" stroke-width="1.4" stroke-opacity="0.16"/>
<polyline points="150.0,312.7 350.0,289.5 550.0,286.3 750.0,287.2" fill="none" stroke="#6b7684" stroke-width="1.4" stroke-opacity="0.16"/>
<polyline points="150.0,266.2 350.0,297.4 550.0,284.9 750.0,309.6" fill="none" stroke="#6b7684" stroke-width="1.4" stroke-opacity="0.16"/>
<polyline points="150.0,257.7 350.0,321.8 550.0,346.1 750.0,354.5" fill="none" stroke="#6b7684" stroke-width="1.4" stroke-opacity="0.16"/>
<polyline points="150.0,330.7 350.0,320.9 550.0,306.0 750.0,309.9" fill="none" stroke="#6b7684" stroke-width="1.4" stroke-opacity="0.16"/>
<polyline points="150.0,291.7 350.0,308.3 550.0,310.2 750.0,297.1" fill="none" stroke="#6b7684" stroke-width="1.4" stroke-opacity="0.16"/>
<polyline points="150.0,237.5 350.0,239.8 550.0,384.3 750.0,295.4" fill="none" stroke="#6b7684" stroke-width="1.4" stroke-opacity="0.16"/>
<polyline points="150.0,371.1 350.0,250.0" fill="none" stroke="#6b7684" stroke-width="1.4" stroke-opacity="0.16"/>
<polyline points="150.0,316.6 350.0,301.9 550.0,307.1 750.0,304.0" fill="none" stroke="#6b7684" stroke-width="4.0"/>
<circle cx="150.0" cy="316.6" r="5" fill="#6b7684" stroke="white" stroke-width="1.6"/>
<circle cx="350.0" cy="301.9" r="5" fill="#6b7684" stroke="white" stroke-width="1.6"/>
<circle cx="550.0" cy="307.1" r="5" fill="#6b7684" stroke="white" stroke-width="1.6"/>
<circle cx="750.0" cy="304.0" r="5" fill="#6b7684" stroke="white" stroke-width="1.6"/>
<line x1="758.0" y1="304.0" x2="762" y2="304.0" stroke="#6b7684" stroke-width="1" stroke-opacity="0.5"/>
<text x="770" y="309.0014705882353" text-anchor="start" font-size="15.5" fill="#6b7684" font-weight="bold" font-family="Helvetica, Arial, sans-serif">base / frozen judges  (ρ = +0.06)</text>
<polyline points="150.0,370.1 350.0,362.1 550.0,351.0 750.0,317.2" fill="none" stroke="#9427b5" stroke-width="1.4" stroke-opacity="0.16"/>
<polyline points="150.0,345.3 350.0,357.6 550.0,349.0 750.0,350.3" fill="none" stroke="#9427b5" stroke-width="1.4" stroke-opacity="0.16"/>
<polyline points="150.0,357.7 350.0,359.8 550.0,350.0 750.0,333.8" fill="none" stroke="#9427b5" stroke-width="4.0"/>
<circle cx="150.0" cy="357.7" r="5" fill="#9427b5" stroke="white" stroke-width="1.6"/>
<circle cx="350.0" cy="359.8" r="5" fill="#9427b5" stroke="white" stroke-width="1.6"/>
<circle cx="550.0" cy="350.0" r="5" fill="#9427b5" stroke="white" stroke-width="1.6"/>
<circle cx="750.0" cy="333.8" r="5" fill="#9427b5" stroke="white" stroke-width="1.6"/>
<line x1="758.0" y1="333.8" x2="762" y2="333.8" stroke="#9427b5" stroke-width="1" stroke-opacity="0.5"/>
<text x="770" y="338.765" text-anchor="start" font-size="15.5" fill="#9427b5" font-weight="bold" font-family="Helvetica, Arial, sans-serif">self-judge duels, base text  (ρ = −0.24)</text>
<polyline points="150.0,465.0 350.0,465.0 550.0,465.0 750.0,465.0" fill="none" stroke="#d1341f" stroke-width="1.4" stroke-opacity="0.16"/>
<polyline points="150.0,465.0 350.0,465.0 550.0,465.0 750.0,465.0" fill="none" stroke="#d1341f" stroke-width="1.4" stroke-opacity="0.16"/>
<polyline points="150.0,465.0 350.0,465.0 550.0,465.0 750.0,465.0" fill="none" stroke="#d1341f" stroke-width="1.4" stroke-opacity="0.16"/>
<polyline points="150.0,465.0 350.0,465.0 550.0,465.0 750.0,465.0" fill="none" stroke="#d1341f" stroke-width="1.4" stroke-opacity="0.16"/>
<polyline points="150.0,465.0 350.0,465.0 550.0,465.0 750.0,465.0" fill="none" stroke="#d1341f" stroke-width="1.4" stroke-opacity="0.16"/>
<polyline points="150.0,465.0 350.0,465.0" fill="none" stroke="#d1341f" stroke-width="1.4" stroke-opacity="0.16"/>
<polyline points="150.0,465.0 350.0,465.0 550.0,465.0 750.0,465.0" fill="none" stroke="#d1341f" stroke-width="1.4" stroke-opacity="0.16"/>
<polyline points="150.0,465.0 350.0,465.0 550.0,465.0 750.0,465.0" fill="none" stroke="#d1341f" stroke-width="1.4" stroke-opacity="0.16"/>
<polyline points="150.0,465.0 350.0,465.0 550.0,465.0 750.0,465.0" fill="none" stroke="#d1341f" stroke-width="4.0"/>
<circle cx="150.0" cy="465.0" r="5" fill="#d1341f" stroke="white" stroke-width="1.6"/>
<circle cx="350.0" cy="465.0" r="5" fill="#d1341f" stroke="white" stroke-width="1.6"/>
<circle cx="550.0" cy="465.0" r="5" fill="#d1341f" stroke="white" stroke-width="1.6"/>
<circle cx="750.0" cy="465.0" r="5" fill="#d1341f" stroke="white" stroke-width="1.6"/>
<line x1="758.0" y1="465.0" x2="762" y2="465.0" stroke="#d1341f" stroke-width="1" stroke-opacity="0.5"/>
<text x="770" y="470.0" text-anchor="start" font-size="15.5" fill="#d1341f" font-weight="bold" font-family="Helvetica, Arial, sans-serif">score oracle  (ρ = −1.00)</text>
<polyline points="150.0,313.2 350.0,282.9 550.0,274.8 750.0,303.6" fill="none" stroke="#6b7684" stroke-width="1.8" stroke-dasharray="5 4" stroke-opacity="0.7"/>
<rect x="150" y="148" width="372" height="30" rx="8" fill="#eef5ee" stroke="#1a1a1a" stroke-width="1.6"/>
<text x="162" y="168" text-anchor="start" font-size="15.5" fill="#1a1a1a" font-weight="bold" font-family="Helvetica, Arial, sans-serif">82% of agreement's variance is between judge setups, not rounds</text>
</svg>