<svg xmlns="http://www.w3.org/2000/svg" viewBox="0 0 1560 795" font-family="Helvetica, Arial, sans-serif">
<rect width="1560" height="795" fill="white"/>
<text x="780.0" y="128" text-anchor="middle" font-size="31" fill="#1a1a1a" font-weight="bold" font-family="Helvetica, Arial, sans-serif">The two dials change on different clocks</text>
<text x="110" y="172" text-anchor="start" font-size="20" fill="#1a1a1a" font-weight="bold" font-family="Helvetica, Arial, sans-serif">Spread σ follows the candidate pool (a dynamic)</text>
<text x="110" y="196" text-anchor="start" font-size="14.5" fill="#6b7684" font-weight="normal" font-family="Helvetica, Arial, sans-serif">mean spread of the candidate pool per round, OLMo-family runs (one line per pool composition)</text>
<line x1="110" y1="620.0" x2="580" y2="620.0" stroke="#e4e4e0" stroke-width="1"/>
<text x="100" y="625.5" text-anchor="end" font-size="15" fill="#6b7684" font-weight="normal" font-family="Helvetica, Arial, sans-serif">0</text>
<line x1="110" y1="537.4" x2="580" y2="537.4" stroke="#e4e4e0" stroke-width="1"/>
<text x="100" y="542.891304347826" text-anchor="end" font-size="15" fill="#6b7684" font-weight="normal" font-family="Helvetica, Arial, sans-serif">0.1</text>
<line x1="110" y1="454.8" x2="580" y2="454.8" stroke="#e4e4e0" stroke-width="1"/>
<text x="100" y="460.28260869565213" text-anchor="end" font-size="15" fill="#6b7684" font-weight="normal" font-family="Helvetica, Arial, sans-serif">0.2</text>
<line x1="110" y1="372.2" x2="580" y2="372.2" stroke="#e4e4e0" stroke-width="1"/>
<text x="100" y="377.67391304347825" text-anchor="end" font-size="15" fill="#6b7684" font-weight="normal" font-family="Helvetica, Arial, sans-serif">0.3</text>
<line x1="110" y1="289.6" x2="580" y2="289.6" stroke="#e4e4e0" stroke-width="1"/>
<text x="100" y="295.0652173913044" text-anchor="end" font-size="15" fill="#6b7684" font-weight="normal" font-family="Helvetica, Arial, sans-serif">0.4</text>
<text x="110.0" y="646" text-anchor="middle" font-size="15.5" fill="#1a1a1a" font-weight="normal" font-family="Helvetica, Arial, sans-serif">1</text>
<text x="177.14285714285714" y="646" text-anchor="middle" font-size="15.5" fill="#1a1a1a" font-weight="normal" font-family="Helvetica, Arial, sans-serif">2</text>
<text x="244.28571428571428" y="646" text-anchor="middle" font-size="15.5" fill="#1a1a1a" font-weight="normal" font-family="Helvetica, Arial, sans-serif">3</text>
<text x="311.42857142857144" y="646" text-anchor="middle" font-size="15.5" fill="#1a1a1a" font-weight="normal" font-family="Helvetica, Arial, sans-serif">4</text>
<text x="378.57142857142856" y="646" text-anchor="middle" font-size="15.5" fill="#1a1a1a" font-weight="normal" font-family="Helvetica, Arial, sans-serif">5</text>
<text x="445.7142857142857" y="646" text-anchor="middle" font-size="15.5" fill="#1a1a1a" font-weight="normal" font-family="Helvetica, Arial, sans-serif">6</text>
<text x="512.8571428571429" y="646" text-anchor="middle" font-size="15.5" fill="#1a1a1a" font-weight="normal" font-family="Helvetica, Arial, sans-serif">7</text>
<text x="580.0" y="646" text-anchor="middle" font-size="15.5" fill="#1a1a1a" font-weight="normal" font-family="Helvetica, Arial, sans-serif">8</text>
<text x="345.0" y="676" text-anchor="middle" font-size="17" fill="#1a1a1a" font-weight="normal" font-family="Helvetica, Arial, sans-serif">round</text>
<text x="48" y="430.0" font-size="17" fill="#1a1a1a" font-family="Helvetica, Arial, sans-serif" transform="rotate(-90 48 430.0)" text-anchor="middle">candidate value spread σ</text>
<polyline points="110.0,375.6 177.1,367.6 244.3,389.9 311.4,407.9 378.6,379.8 445.7,380.8 512.9,392.4 580.0,430.7" fill="none" stroke="#2867b5" stroke-width="3.5"/>
<circle cx="110.0" cy="375.6" r="4.5" fill="#2867b5" stroke="white" stroke-width="1.5"/>
<circle cx="177.1" cy="367.6" r="4.5" fill="#2867b5" stroke="white" stroke-width="1.5"/>
<circle cx="244.3" cy="389.9" r="4.5" fill="#2867b5" stroke="white" stroke-width="1.5"/>
<circle cx="311.4" cy="407.9" r="4.5" fill="#2867b5" stroke="white" stroke-width="1.5"/>
<circle cx="378.6" cy="379.8" r="4.5" fill="#2867b5" stroke="white" stroke-width="1.5"/>
<circle cx="445.7" cy="380.8" r="4.5" fill="#2867b5" stroke="white" stroke-width="1.5"/>
<circle cx="512.9" cy="392.4" r="4.5" fill="#2867b5" stroke="white" stroke-width="1.5"/>
<circle cx="580.0" cy="430.7" r="4.5" fill="#2867b5" stroke="white" stroke-width="1.5"/>
<polyline points="110.0,328.0 177.1,296.0 244.3,288.8 311.4,307.3" fill="none" stroke="#3a7d44" stroke-width="3.5"/>
<circle cx="110.0" cy="328.0" r="4.5" fill="#3a7d44" stroke="white" stroke-width="1.5"/>
<circle cx="177.1" cy="296.0" r="4.5" fill="#3a7d44" stroke="white" stroke-width="1.5"/>
<circle cx="244.3" cy="288.8" r="4.5" fill="#3a7d44" stroke="white" stroke-width="1.5"/>
<circle cx="311.4" cy="307.3" r="4.5" fill="#3a7d44" stroke="white" stroke-width="1.5"/>
<polyline points="110.0,264.4 177.1,484.0 244.3,572.6 311.4,591.8" fill="none" stroke="#b5342c" stroke-width="3.5"/>
<circle cx="110.0" cy="264.4" r="4.5" fill="#b5342c" stroke="white" stroke-width="1.5"/>
<circle cx="177.1" cy="484.0" r="4.5" fill="#b5342c" stroke="white" stroke-width="1.5"/>
<circle cx="244.3" cy="572.6" r="4.5" fill="#b5342c" stroke="white" stroke-width="1.5"/>
<circle cx="311.4" cy="591.8" r="4.5" fill="#b5342c" stroke="white" stroke-width="1.5"/>
<text x="330" y="282" text-anchor="start" font-size="15.5" fill="#3a7d44" font-weight="bold" font-family="Helvetica, Arial, sans-serif">base-mixed pool: 0.35 → 0.38</text>
<text x="330" y="301" text-anchor="start" font-size="15" fill="#3a7d44" font-weight="normal" font-family="Helvetica, Arial, sans-serif">the base supplier refills spread</text>
<text x="384" y="458" text-anchor="start" font-size="15.5" fill="#2867b5" font-weight="bold" font-family="Helvetica, Arial, sans-serif">self-only pool: 0.30 → 0.23</text>
<text x="384" y="477" text-anchor="start" font-size="15" fill="#2867b5" font-weight="normal" font-family="Helvetica, Arial, sans-serif">spread persists, then slowly sags</text>
<text x="340" y="546" text-anchor="start" font-size="15.5" fill="#b5342c" font-weight="bold" font-family="Helvetica, Arial, sans-serif">peer-mixed pool (extremist invader):</text>
<text x="340" y="565" text-anchor="start" font-size="15.5" fill="#b5342c" font-weight="bold" font-family="Helvetica, Arial, sans-serif">spread collapses, 0.43 → 0.03</text>
<text x="730" y="172" text-anchor="start" font-size="20" fill="#1a1a1a" font-weight="bold" font-family="Helvetica, Arial, sans-serif">Agreement ρ holds within a run (a property)</text>
<text x="730" y="196" font-size="14.5" font-family="Helvetica, Arial, sans-serif"><tspan fill="#6b7684">fat line = per-round cell mean, faint lines = single runs · label = cell mean (within-run SD) · </tspan><tspan fill="#2867b5" font-weight="bold">self-judge</tspan><tspan fill="#6b7684"> · </tspan><tspan fill="#3a7d44" font-weight="bold">frozen judge</tspan><tspan fill="#6b7684"> · </tspan><tspan fill="#b5342c" font-weight="bold">oracle</tspan></text>
<line x1="730" y1="611.0" x2="1200" y2="611.0" stroke="#e4e4e0" stroke-width="1"/>
<text x="720" y="616.452380952381" text-anchor="end" font-size="15" fill="#6b7684" font-weight="normal" font-family="Helvetica, Arial, sans-serif">−1</text>
<line x1="730" y1="520.5" x2="1200" y2="520.5" stroke="#e4e4e0" stroke-width="1"/>
<text x="720" y="525.9761904761905" text-anchor="end" font-size="15" fill="#6b7684" font-weight="normal" font-family="Helvetica, Arial, sans-serif">−0.5</text>
<line x1="730" y1="430.0" x2="1200" y2="430.0" stroke="#e4e4e0" stroke-width="1"/>
<text x="720" y="435.5" text-anchor="end" font-size="15" fill="#6b7684" font-weight="normal" font-family="Helvetica, Arial, sans-serif">0</text>
<line x1="730" y1="339.5" x2="1200" y2="339.5" stroke="#e4e4e0" stroke-width="1"/>
<text x="720" y="345.0238095238095" text-anchor="end" font-size="15" fill="#6b7684" font-weight="normal" font-family="Helvetica, Arial, sans-serif">+0.5</text>
<line x1="730" y1="249.0" x2="1200" y2="249.0" stroke="#e4e4e0" stroke-width="1"/>
<text x="720" y="254.54761904761907" text-anchor="end" font-size="15" fill="#6b7684" font-weight="normal" font-family="Helvetica, Arial, sans-serif">+1</text>
<line x1="730" y1="430.0" x2="1200" y2="430.0" stroke="#1a1a1a" stroke-width="1.5" stroke-dasharray="6 5"/>
<text x="1196" y="450.0" text-anchor="end" font-size="13.5" fill="#1a1a1a" font-weight="normal" font-family="Helvetica, Arial, sans-serif">ρ = 0: the judge ignores value</text>
<text x="730.0" y="646" text-anchor="middle" font-size="15.5" fill="#1a1a1a" font-weight="normal" font-family="Helvetica, Arial, sans-serif">1</text>
<text x="797.1428571428571" y="646" text-anchor="middle" font-size="15.5" fill="#1a1a1a" font-weight="normal" font-family="Helvetica, Arial, sans-serif">2</text>
<text x="864.2857142857142" y="646" text-anchor="middle" font-size="15.5" fill="#1a1a1a" font-weight="normal" font-family="Helvetica, Arial, sans-serif">3</text>
<text x="931.4285714285714" y="646" text-anchor="middle" font-size="15.5" fill="#1a1a1a" font-weight="normal" font-family="Helvetica, Arial, sans-serif">4</text>
<text x="998.5714285714286" y="646" text-anchor="middle" font-size="15.5" fill="#1a1a1a" font-weight="normal" font-family="Helvetica, Arial, sans-serif">5</text>
<text x="1065.7142857142858" y="646" text-anchor="middle" font-size="15.5" fill="#1a1a1a" font-weight="normal" font-family="Helvetica, Arial, sans-serif">6</text>
<text x="1132.857142857143" y="646" text-anchor="middle" font-size="15.5" fill="#1a1a1a" font-weight="normal" font-family="Helvetica, Arial, sans-serif">7</text>
<text x="1200.0" y="646" text-anchor="middle" font-size="15.5" fill="#1a1a1a" font-weight="normal" font-family="Helvetica, Arial, sans-serif">8</text>
<text x="965.0" y="676" text-anchor="middle" font-size="17" fill="#1a1a1a" font-weight="normal" font-family="Helvetica, Arial, sans-serif">round</text>
<text x="668" y="430.0" font-size="17" fill="#1a1a1a" font-family="Helvetica, Arial, sans-serif" transform="rotate(-90 668 430.0)" text-anchor="middle">judge agreement ρ</text>
<polyline points="730.0,611.0 797.1,611.0 864.3,611.0 931.4,611.0" fill="none" stroke="#b5342c" stroke-width="1.4" stroke-opacity="0.25"/>
<polyline points="730.0,611.0 797.1,611.0 864.3,611.0 931.4,611.0" fill="none" stroke="#b5342c" stroke-width="1.4" stroke-opacity="0.25"/>
<polyline points="730.0,611.0 797.1,611.0 864.3,611.0 931.4,611.0" fill="none" stroke="#b5342c" stroke-width="1.4" stroke-opacity="0.25"/>
<polyline points="730.0,611.0 797.1,611.0 864.3,611.0 931.4,611.0" fill="none" stroke="#b5342c" stroke-width="1.4" stroke-opacity="0.25"/>
<polyline points="730.0,611.0 797.1,611.0 864.3,611.0 931.4,611.0" fill="none" stroke="#b5342c" stroke-width="1.4" stroke-opacity="0.25"/>
<polyline points="730.0,611.0 797.1,611.0" fill="none" stroke="#b5342c" stroke-width="1.4" stroke-opacity="0.25"/>
<polyline points="730.0,611.0 797.1,611.0 864.3,611.0 931.4,611.0" fill="none" stroke="#b5342c" stroke-width="1.4" stroke-opacity="0.25"/>
<polyline points="730.0,611.0 797.1,611.0 864.3,611.0 931.4,611.0" fill="none" stroke="#b5342c" stroke-width="1.4" stroke-opacity="0.25"/>
<polyline points="730.0,496.5 797.1,486.8 864.3,473.4 931.4,432.7" fill="none" stroke="#2867b5" stroke-width="1.4" stroke-opacity="0.25"/>
<polyline points="730.0,466.5 797.1,481.4 864.3,471.1 931.4,472.6" fill="none" stroke="#2867b5" stroke-width="1.4" stroke-opacity="0.25"/>
<polyline points="730.0,379.4 797.1,414.2 864.3,381.7 931.4,398.3" fill="none" stroke="#3a7d44" stroke-width="1.4" stroke-opacity="0.25"/>
<polyline points="730.0,321.8 797.1,340.1 864.3,334.9 931.4,315.9" fill="none" stroke="#3a7d44" stroke-width="1.4" stroke-opacity="0.25"/>
<polyline points="730.0,318.1 797.1,337.6 864.3,365.1" fill="none" stroke="#2867b5" stroke-width="1.4" stroke-opacity="0.25"/>
<polyline points="730.0,350.6 797.1,355.1 864.3,284.8" fill="none" stroke="#2867b5" stroke-width="1.4" stroke-opacity="0.25"/>
<polyline points="730.0,332.8 797.1,342.3" fill="none" stroke="#2867b5" stroke-width="1.4" stroke-opacity="0.25"/>
<polyline points="730.0,314.6 797.1,408.8" fill="none" stroke="#2867b5" stroke-width="1.4" stroke-opacity="0.25"/>
<polyline points="730.0,334.3 797.1,550.2" fill="none" stroke="#2867b5" stroke-width="1.4" stroke-opacity="0.25"/>
<polyline points="730.0,376.0 797.1,375.7" fill="none" stroke="#2867b5" stroke-width="1.4" stroke-opacity="0.25"/>
<polyline points="730.0,344.9 797.1,463.5" fill="none" stroke="#2867b5" stroke-width="1.4" stroke-opacity="0.25"/>
<polyline points="730.0,335.2 797.1,314.6" fill="none" stroke="#2867b5" stroke-width="1.4" stroke-opacity="0.25"/>
<polyline points="730.0,347.8 797.1,249.1" fill="none" stroke="#2867b5" stroke-width="1.4" stroke-opacity="0.25"/>
<polyline points="730.0,372.1 797.1,404.7" fill="none" stroke="#2867b5" stroke-width="1.4" stroke-opacity="0.25"/>
<polyline points="730.0,357.2 797.1,315.1" fill="none" stroke="#2867b5" stroke-width="1.4" stroke-opacity="0.25"/>
<polyline points="730.0,462.4 797.1,441.0 864.3,426.1 931.4,430.0" fill="none" stroke="#3a7d44" stroke-width="1.4" stroke-opacity="0.25"/>
<polyline points="730.0,451.3 797.1,477.6 864.3,449.5 931.4,393.8" fill="none" stroke="#3a7d44" stroke-width="1.4" stroke-opacity="0.25"/>
<polyline points="730.0,437.7 797.1,458.2 864.3,425.2 931.4,425.7" fill="none" stroke="#3a7d44" stroke-width="1.4" stroke-opacity="0.25"/>
<polyline points="730.0,441.3 797.1,397.1 864.3,441.2 931.4,413.5" fill="none" stroke="#3a7d44" stroke-width="1.4" stroke-opacity="0.25"/>
<polyline points="730.0,423.3 797.1,440.1 864.3,444.4 931.4,401.3" fill="none" stroke="#3a7d44" stroke-width="1.4" stroke-opacity="0.25"/>
<polyline points="730.0,476.8 797.1,371.9 864.3,405.5 931.4,538.5" fill="none" stroke="#3a7d44" stroke-width="1.4" stroke-opacity="0.25"/>
<polyline points="730.0,480.7 797.1,408.0 864.3,357.1 931.4,346.6" fill="none" stroke="#3a7d44" stroke-width="1.4" stroke-opacity="0.25"/>
<polyline points="730.0,462.4 797.1,456.8 864.3,437.5 931.4,399.6" fill="none" stroke="#3a7d44" stroke-width="1.4" stroke-opacity="0.25"/>
<polyline points="730.0,413.7 797.1,439.2 864.3,379.4 931.4,366.4" fill="none" stroke="#3a7d44" stroke-width="1.4" stroke-opacity="0.25"/>
<polyline points="730.0,453.9 797.1,377.4 864.3,386.8 931.4,416.4 998.6,425.8 1065.7,389.1 1132.9,347.9 1200.0,412.3" fill="none" stroke="#3a7d44" stroke-width="1.4" stroke-opacity="0.25"/>
<polyline points="730.0,427.2 797.1,399.3 864.3,395.4 931.4,396.5 998.6,386.6 1065.7,416.6 1132.9,421.4 1200.0,392.5" fill="none" stroke="#3a7d44" stroke-width="1.4" stroke-opacity="0.25"/>
<polyline points="730.0,371.2 797.1,408.8 864.3,393.7 931.4,423.5" fill="none" stroke="#3a7d44" stroke-width="1.4" stroke-opacity="0.25"/>
<polyline points="730.0,360.9 797.1,438.2 864.3,467.5 931.4,477.6" fill="none" stroke="#3a7d44" stroke-width="1.4" stroke-opacity="0.25"/>
<polyline points="730.0,448.9 797.1,437.1 864.3,419.2 931.4,423.9" fill="none" stroke="#3a7d44" stroke-width="1.4" stroke-opacity="0.25"/>
<polyline points="730.0,401.9 797.1,421.9 864.3,424.2 931.4,408.5" fill="none" stroke="#3a7d44" stroke-width="1.4" stroke-opacity="0.25"/>
<polyline points="730.0,336.5 797.1,339.3 864.3,513.6 931.4,406.4" fill="none" stroke="#3a7d44" stroke-width="1.4" stroke-opacity="0.25"/>
<polyline points="730.0,497.6 797.1,351.6" fill="none" stroke="#3a7d44" stroke-width="1.4" stroke-opacity="0.25"/>
<polyline points="730.0,431.1 797.1,407.3 864.3,414.8 931.4,446.4" fill="none" stroke="#3a7d44" stroke-width="1.4" stroke-opacity="0.25"/>
<polyline points="730.0,422.9 797.1,418.3 864.3,415.0 931.4,442.3" fill="none" stroke="#3a7d44" stroke-width="1.4" stroke-opacity="0.25"/>
<polyline points="730.0,399.3 797.1,422.0 864.3,429.9 931.4,421.5" fill="none" stroke="#3a7d44" stroke-width="1.4" stroke-opacity="0.25"/>
<polyline points="730.0,424.2 797.1,421.3 864.3,421.3 931.4,423.4" fill="none" stroke="#3a7d44" stroke-width="1.4" stroke-opacity="0.25"/>
<polyline points="730.0,611.0 797.1,611.0 864.3,611.0 931.4,611.0" fill="none" stroke="#b5342c" stroke-width="3.5"/>
<circle cx="730.0" cy="611.0" r="4.5" fill="#b5342c" stroke="white" stroke-width="1.5"/>
<circle cx="797.1" cy="611.0" r="4.5" fill="#b5342c" stroke="white" stroke-width="1.5"/>
<circle cx="864.3" cy="611.0" r="4.5" fill="#b5342c" stroke="white" stroke-width="1.5"/>
<circle cx="931.4" cy="611.0" r="4.5" fill="#b5342c" stroke="white" stroke-width="1.5"/>
<polyline points="730.0,481.5 797.1,484.1 864.3,472.2 931.4,452.6" fill="none" stroke="#2867b5" stroke-width="3.5"/>
<circle cx="730.0" cy="481.5" r="4.5" fill="#2867b5" stroke="white" stroke-width="1.5"/>
<circle cx="797.1" cy="484.1" r="4.5" fill="#2867b5" stroke="white" stroke-width="1.5"/>
<circle cx="864.3" cy="472.2" r="4.5" fill="#2867b5" stroke="white" stroke-width="1.5"/>
<circle cx="931.4" cy="452.6" r="4.5" fill="#2867b5" stroke="white" stroke-width="1.5"/>
<polyline points="730.0,350.6 797.1,377.1 864.3,358.3 931.4,357.1" fill="none" stroke="#3a7d44" stroke-width="3.5"/>
<circle cx="730.0" cy="350.6" r="4.5" fill="#3a7d44" stroke="white" stroke-width="1.5"/>
<circle cx="797.1" cy="377.1" r="4.5" fill="#3a7d44" stroke="white" stroke-width="1.5"/>
<circle cx="864.3" cy="358.3" r="4.5" fill="#3a7d44" stroke="white" stroke-width="1.5"/>
<circle cx="931.4" cy="357.1" r="4.5" fill="#3a7d44" stroke="white" stroke-width="1.5"/>
<polyline points="730.0,332.3 797.1,345.0 864.3,325.0" fill="none" stroke="#2867b5" stroke-width="3.5"/>
<circle cx="730.0" cy="332.3" r="4.5" fill="#2867b5" stroke="white" stroke-width="1.5"/>
<circle cx="797.1" cy="345.0" r="4.5" fill="#2867b5" stroke="white" stroke-width="1.5"/>
<circle cx="864.3" cy="325.0" r="4.5" fill="#2867b5" stroke="white" stroke-width="1.5"/>
<polyline points="730.0,347.8 797.1,385.2" fill="none" stroke="#2867b5" stroke-width="3.5"/>
<circle cx="730.0" cy="347.8" r="4.5" fill="#2867b5" stroke="white" stroke-width="1.5"/>
<circle cx="797.1" cy="385.2" r="4.5" fill="#2867b5" stroke="white" stroke-width="1.5"/>
<polyline points="730.0,432.0 797.1,414.1 864.3,420.5 931.4,416.7" fill="none" stroke="#3a7d44" stroke-width="3.5"/>
<circle cx="730.0" cy="432.0" r="4.5" fill="#3a7d44" stroke="white" stroke-width="1.5"/>
<circle cx="797.1" cy="414.1" r="4.5" fill="#3a7d44" stroke="white" stroke-width="1.5"/>
<circle cx="864.3" cy="420.5" r="4.5" fill="#3a7d44" stroke="white" stroke-width="1.5"/>
<circle cx="931.4" cy="416.7" r="4.5" fill="#3a7d44" stroke="white" stroke-width="1.5"/>
<polyline points="730.0,419.4 797.1,417.2 864.3,420.3 931.4,433.4" fill="none" stroke="#3a7d44" stroke-width="3.5"/>
<circle cx="730.0" cy="419.4" r="4.5" fill="#3a7d44" stroke="white" stroke-width="1.5"/>
<circle cx="797.1" cy="417.2" r="4.5" fill="#3a7d44" stroke="white" stroke-width="1.5"/>
<circle cx="864.3" cy="420.3" r="4.5" fill="#3a7d44" stroke="white" stroke-width="1.5"/>
<circle cx="931.4" cy="433.4" r="4.5" fill="#3a7d44" stroke="white" stroke-width="1.5"/>
<polyline points="730.0,427.8 797.1,391.3 864.3,381.6 931.4,416.2" fill="none" stroke="#b5342c" stroke-width="2" stroke-dasharray="5 4" stroke-opacity="0.9"/>
<circle cx="730.0" cy="427.8" r="3" fill="#b5342c" stroke="white" stroke-width="1.5"/>
<circle cx="797.1" cy="391.3" r="3" fill="#b5342c" stroke="white" stroke-width="1.5"/>
<circle cx="864.3" cy="381.6" r="3" fill="#b5342c" stroke="white" stroke-width="1.5"/>
<circle cx="931.4" cy="416.2" r="3" fill="#b5342c" stroke="white" stroke-width="1.5"/>
<line x1="1000" y1="497" x2="869.3" y2="387.6" stroke="#b5342c" stroke-width="1.2"/>
<text x="958" y="514" text-anchor="start" font-size="14" fill="#b5342c" font-weight="bold" font-family="Helvetica, Arial, sans-serif">the one exception (a bloom):</text>
<text x="958" y="532" text-anchor="start" font-size="14" fill="#b5342c" font-weight="normal" font-family="Helvetica, Arial, sans-serif">one base-judge run rose mid-run,</text>
<text x="958" y="550" text-anchor="start" font-size="14" fill="#b5342c" font-weight="normal" font-family="Helvetica, Arial, sans-serif">ρ 0.01 → 0.27, then fell back</text>
<rect x="1212" y="236" width="338" height="66" rx="8" fill="#eef5ee" stroke="#1a1a1a" stroke-width="2"/>
<text x="1226" y="262.0" font-family="Helvetica, Arial, sans-serif" font-size="15.5" fill="#1a1a1a" font-weight="bold">82% of agreement’s variance is between</text>
<text x="1226" y="283.39" font-family="Helvetica, Arial, sans-serif" font-size="15.5" fill="#1a1a1a" font-weight="bold">judge cells, not between rounds.</text>
<line x1="872.3" y1="325.0" x2="1206" y2="335" stroke="#6b7684" stroke-width="1" stroke-opacity="0.7"/>
<text x="1212" y="340" text-anchor="start" font-size="15" fill="#2867b5" font-weight="bold" font-family="Helvetica, Arial, sans-serif">self-judge, extremist peer invasion  +0.53 (0.10)</text>
<line x1="939.4" y1="357.1" x2="1206" y2="360" stroke="#6b7684" stroke-width="1" stroke-opacity="0.7"/>
<text x="1212" y="365" text-anchor="start" font-size="15" fill="#3a7d44" font-weight="bold" font-family="Helvetica, Arial, sans-serif">cautious copy judge, mixed pool  +0.38 (0.07)</text>
<line x1="805.1" y1="385.2" x2="1206" y2="385" stroke="#6b7684" stroke-width="1" stroke-opacity="0.7"/>
<text x="1212" y="390" text-anchor="start" font-size="15" fill="#2867b5" font-weight="bold" font-family="Helvetica, Arial, sans-serif">candid-prompt self-judge  +0.35</text>
<line x1="939.4" y1="416.7" x2="1206" y2="411" stroke="#6b7684" stroke-width="1" stroke-opacity="0.7"/>
<text x="1212" y="416" text-anchor="start" font-size="15" fill="#3a7d44" font-weight="bold" font-family="Helvetica, Arial, sans-serif">base judge, non-invasion pools  +0.06 (0.17)</text>
<line x1="939.4" y1="433.4" x2="1206" y2="435" stroke="#6b7684" stroke-width="1" stroke-opacity="0.7"/>
<text x="1212" y="440" text-anchor="start" font-size="15" fill="#3a7d44" font-weight="bold" font-family="Helvetica, Arial, sans-serif">frozen copy judge  +0.04 (0.05)</text>
<line x1="939.4" y1="452.6" x2="1206" y2="472" stroke="#6b7684" stroke-width="1" stroke-opacity="0.7"/>
<text x="1212" y="477" text-anchor="start" font-size="15" fill="#2867b5" font-weight="bold" font-family="Helvetica, Arial, sans-serif">self-judge duels with base text  −0.24 (0.08)</text>
<line x1="939.4" y1="611.0" x2="1206" y2="603" stroke="#6b7684" stroke-width="1" stroke-opacity="0.7"/>
<text x="1212" y="608" text-anchor="start" font-size="15" fill="#b5342c" font-weight="bold" font-family="Helvetica, Arial, sans-serif">score oracle, keeps the low side  −1.00 (0.00)</text>
<text x="110" y="722.0" font-family="Helvetica, Arial, sans-serif" font-size="15" fill="#6b7684" font-weight="normal">ρ = within-item correlation between the judge’s candidate scores and the candidates’ value scores (−1 keeps the low-value side … +1 keeps the high side). σ = standard</text>
<text x="110" y="742.7" font-family="Helvetica, Arial, sans-serif" font-size="15" fill="#6b7684" font-weight="normal">deviation of the candidate value scores in the round’s pool. 340 score-logged rounds across 74 runs; within-run SD averaged over the cell’s runs.</text>
</svg>