<svg xmlns="http://www.w3.org/2000/svg" viewBox="0 0 1240 860" font-family="Helvetica, Arial, sans-serif">
<rect width="1240" height="860" fill="white"/>
<defs>
<marker id="af0" viewBox="0 0 10 10" refX="8.5" refY="5" markerWidth="6.5" markerHeight="6.5" orient="auto-start-reverse"><path d="M 0 0 L 10 5 L 0 10 z" fill="#2867b5"/></marker>
<marker id="ao0" viewBox="0 0 12 12" refX="9.5" refY="6" markerWidth="7.5" markerHeight="7.5" orient="auto-start-reverse"><path d="M 1 1 L 11 6 L 1 11 z" fill="white" stroke="#2867b5" stroke-width="1.6"/></marker>
<marker id="af1" viewBox="0 0 10 10" refX="8.5" refY="5" markerWidth="6.5" markerHeight="6.5" orient="auto-start-reverse"><path d="M 0 0 L 10 5 L 0 10 z" fill="#3a7d44"/></marker>
<marker id="ao1" viewBox="0 0 12 12" refX="9.5" refY="6" markerWidth="7.5" markerHeight="7.5" orient="auto-start-reverse"><path d="M 1 1 L 11 6 L 1 11 z" fill="white" stroke="#3a7d44" stroke-width="1.6"/></marker>
<marker id="af2" viewBox="0 0 10 10" refX="8.5" refY="5" markerWidth="6.5" markerHeight="6.5" orient="auto-start-reverse"><path d="M 0 0 L 10 5 L 0 10 z" fill="#b5842c"/></marker>
<marker id="ao2" viewBox="0 0 12 12" refX="9.5" refY="6" markerWidth="7.5" markerHeight="7.5" orient="auto-start-reverse"><path d="M 1 1 L 11 6 L 1 11 z" fill="white" stroke="#b5842c" stroke-width="1.6"/></marker>
<marker id="af3" viewBox="0 0 10 10" refX="8.5" refY="5" markerWidth="6.5" markerHeight="6.5" orient="auto-start-reverse"><path d="M 0 0 L 10 5 L 0 10 z" fill="#8a5a9e"/></marker>
<marker id="ao3" viewBox="0 0 12 12" refX="9.5" refY="6" markerWidth="7.5" markerHeight="7.5" orient="auto-start-reverse"><path d="M 1 1 L 11 6 L 1 11 z" fill="white" stroke="#8a5a9e" stroke-width="1.6"/></marker>
<marker id="af4" viewBox="0 0 10 10" refX="8.5" refY="5" markerWidth="6.5" markerHeight="6.5" orient="auto-start-reverse"><path d="M 0 0 L 10 5 L 0 10 z" fill="#b5342c"/></marker>
<marker id="ao4" viewBox="0 0 12 12" refX="9.5" refY="6" markerWidth="7.5" markerHeight="7.5" orient="auto-start-reverse"><path d="M 1 1 L 11 6 L 1 11 z" fill="white" stroke="#b5342c" stroke-width="1.6"/></marker>
<marker id="afield" viewBox="0 0 10 10" refX="8" refY="5" markerWidth="5" markerHeight="5" orient="auto-start-reverse"><path d="M 0 1.5 L 10 5 L 0 8.5 z" fill="#c9cdd4"/></marker>
</defs>
<text x="44.0" y="52.0" font-family="Helvetica, Arial, sans-serif" font-size="24" fill="#1a1a1a" font-weight="bold" text-anchor="start">Each run's start and end in the (behavioral value, forecast-move) plane</text>
<text x="44.0" y="84.0" font-family="Helvetica, Arial, sans-serif" font-size="16" fill="#6b7684" font-weight="normal" text-anchor="start">Open dot = round 1  →  filled arrowhead = final round.  Background field: the self-only recurrence  Δ value = ρ·σ  (right above the line, left below).</text>
<text x="44.0" y="108.0" font-family="Helvetica, Arial, sans-serif" font-size="16" fill="#6b7684" font-weight="normal" text-anchor="start">One straight arrow per run (no intermediate rounds).  The 9 scheduled-judge-swap runs are drawn hollow (dashed, open head) — the self-only field omits their swap.</text>
<line x1="118.00" y1="598.62" x2="1150.00" y2="598.62" stroke="#e4e4e0" stroke-width="1.0"/>
<text x="106.0" y="603.6" font-family="Helvetica, Arial, sans-serif" font-size="13" fill="#6b7684" font-weight="normal" text-anchor="end">-0.3</text>
<line x1="118.00" y1="536.31" x2="1150.00" y2="536.31" stroke="#e4e4e0" stroke-width="1.0"/>
<text x="106.0" y="541.3" font-family="Helvetica, Arial, sans-serif" font-size="13" fill="#6b7684" font-weight="normal" text-anchor="end">-0.2</text>
<line x1="118.00" y1="474.00" x2="1150.00" y2="474.00" stroke="#e4e4e0" stroke-width="1.0"/>
<text x="106.0" y="479.0" font-family="Helvetica, Arial, sans-serif" font-size="13" fill="#6b7684" font-weight="normal" text-anchor="end">-0.1</text>
<line x1="118.00" y1="349.38" x2="1150.00" y2="349.38" stroke="#e4e4e0" stroke-width="1.0"/>
<text x="106.0" y="354.4" font-family="Helvetica, Arial, sans-serif" font-size="13" fill="#6b7684" font-weight="normal" text-anchor="end">+0.1</text>
<line x1="118.00" y1="287.08" x2="1150.00" y2="287.08" stroke="#e4e4e0" stroke-width="1.0"/>
<text x="106.0" y="292.1" font-family="Helvetica, Arial, sans-serif" font-size="13" fill="#6b7684" font-weight="normal" text-anchor="end">+0.2</text>
<line x1="118.00" y1="224.77" x2="1150.00" y2="224.77" stroke="#e4e4e0" stroke-width="1.0"/>
<text x="106.0" y="229.8" font-family="Helvetica, Arial, sans-serif" font-size="13" fill="#6b7684" font-weight="normal" text-anchor="end">+0.3</text>
<line x1="118.00" y1="162.46" x2="1150.00" y2="162.46" stroke="#e4e4e0" stroke-width="1.0"/>
<text x="106.0" y="167.5" font-family="Helvetica, Arial, sans-serif" font-size="13" fill="#6b7684" font-weight="normal" text-anchor="end">+0.4</text>
<line x1="118.00" y1="411.69" x2="1150.00" y2="411.69" stroke="#1a1a1a" stroke-width="2.2"/>
<text x="106.0" y="416.7" font-family="Helvetica, Arial, sans-serif" font-size="14" fill="#1a1a1a" font-weight="bold" text-anchor="end">0</text>
<line x1="118.00" y1="150.00" x2="118.00" y2="636.00" stroke="#1a1a1a" stroke-width="2.2"/>
<line x1="1150.00" y1="150.00" x2="1150.00" y2="636.00" stroke="#1a1a1a" stroke-width="2.2"/>
<line x1="118.00" y1="636.00" x2="118.00" y2="642.00" stroke="#6b7684" stroke-width="1.2"/>
<text x="118.0" y="660.0" font-family="Helvetica, Arial, sans-serif" font-size="14" fill="#6b7684" font-weight="normal" text-anchor="middle">0</text>
<line x1="376.00" y1="636.00" x2="376.00" y2="642.00" stroke="#6b7684" stroke-width="1.2"/>
<text x="376.0" y="660.0" font-family="Helvetica, Arial, sans-serif" font-size="14" fill="#6b7684" font-weight="normal" text-anchor="middle">0.25</text>
<line x1="634.00" y1="636.00" x2="634.00" y2="642.00" stroke="#6b7684" stroke-width="1.2"/>
<text x="634.0" y="660.0" font-family="Helvetica, Arial, sans-serif" font-size="14" fill="#6b7684" font-weight="normal" text-anchor="middle">0.5</text>
<line x1="892.00" y1="636.00" x2="892.00" y2="642.00" stroke="#6b7684" stroke-width="1.2"/>
<text x="892.0" y="660.0" font-family="Helvetica, Arial, sans-serif" font-size="14" fill="#6b7684" font-weight="normal" text-anchor="middle">0.75</text>
<line x1="1150.00" y1="636.00" x2="1150.00" y2="642.00" stroke="#6b7684" stroke-width="1.2"/>
<text x="1150.0" y="660.0" font-family="Helvetica, Arial, sans-serif" font-size="14" fill="#6b7684" font-weight="normal" text-anchor="middle">1</text>
<text x="126.0" y="166.0" font-family="Helvetica, Arial, sans-serif" font-size="13" fill="#6b7684" font-weight="normal" text-anchor="start">wall v = 0</text>
<text x="1142.0" y="166.0" font-family="Helvetica, Arial, sans-serif" font-size="13" fill="#6b7684" font-weight="normal" text-anchor="end">wall v = 1</text>
<line x1="221.20" y1="598.62" x2="118.00" y2="598.62" stroke="#c9cdd4" stroke-width="1.4" marker-end="url(#afield)"/>
<line x1="324.40" y1="598.62" x2="154.12" y2="598.62" stroke="#c9cdd4" stroke-width="1.4" marker-end="url(#afield)"/>
<line x1="427.60" y1="598.62" x2="257.32" y2="598.62" stroke="#c9cdd4" stroke-width="1.4" marker-end="url(#afield)"/>
<line x1="530.80" y1="598.62" x2="360.52" y2="598.62" stroke="#c9cdd4" stroke-width="1.4" marker-end="url(#afield)"/>
<line x1="634.00" y1="598.62" x2="463.72" y2="598.62" stroke="#c9cdd4" stroke-width="1.4" marker-end="url(#afield)"/>
<line x1="737.20" y1="598.62" x2="566.92" y2="598.62" stroke="#c9cdd4" stroke-width="1.4" marker-end="url(#afield)"/>
<line x1="840.40" y1="598.62" x2="670.12" y2="598.62" stroke="#c9cdd4" stroke-width="1.4" marker-end="url(#afield)"/>
<line x1="943.60" y1="598.62" x2="773.32" y2="598.62" stroke="#c9cdd4" stroke-width="1.4" marker-end="url(#afield)"/>
<line x1="1046.80" y1="598.62" x2="876.52" y2="598.62" stroke="#c9cdd4" stroke-width="1.4" marker-end="url(#afield)"/>
<line x1="221.20" y1="561.23" x2="118.00" y2="561.23" stroke="#c9cdd4" stroke-width="1.4" marker-end="url(#afield)"/>
<line x1="324.40" y1="561.23" x2="188.18" y2="561.23" stroke="#c9cdd4" stroke-width="1.4" marker-end="url(#afield)"/>
<line x1="427.60" y1="561.23" x2="291.38" y2="561.23" stroke="#c9cdd4" stroke-width="1.4" marker-end="url(#afield)"/>
<line x1="530.80" y1="561.23" x2="394.58" y2="561.23" stroke="#c9cdd4" stroke-width="1.4" marker-end="url(#afield)"/>
<line x1="634.00" y1="561.23" x2="497.78" y2="561.23" stroke="#c9cdd4" stroke-width="1.4" marker-end="url(#afield)"/>
<line x1="737.20" y1="561.23" x2="600.98" y2="561.23" stroke="#c9cdd4" stroke-width="1.4" marker-end="url(#afield)"/>
<line x1="840.40" y1="561.23" x2="704.18" y2="561.23" stroke="#c9cdd4" stroke-width="1.4" marker-end="url(#afield)"/>
<line x1="943.60" y1="561.23" x2="807.38" y2="561.23" stroke="#c9cdd4" stroke-width="1.4" marker-end="url(#afield)"/>
<line x1="1046.80" y1="561.23" x2="910.58" y2="561.23" stroke="#c9cdd4" stroke-width="1.4" marker-end="url(#afield)"/>
<line x1="221.20" y1="523.85" x2="119.03" y2="523.85" stroke="#c9cdd4" stroke-width="1.4" marker-end="url(#afield)"/>
<line x1="324.40" y1="523.85" x2="222.23" y2="523.85" stroke="#c9cdd4" stroke-width="1.4" marker-end="url(#afield)"/>
<line x1="427.60" y1="523.85" x2="325.43" y2="523.85" stroke="#c9cdd4" stroke-width="1.4" marker-end="url(#afield)"/>
<line x1="530.80" y1="523.85" x2="428.63" y2="523.85" stroke="#c9cdd4" stroke-width="1.4" marker-end="url(#afield)"/>
<line x1="634.00" y1="523.85" x2="531.83" y2="523.85" stroke="#c9cdd4" stroke-width="1.4" marker-end="url(#afield)"/>
<line x1="737.20" y1="523.85" x2="635.03" y2="523.85" stroke="#c9cdd4" stroke-width="1.4" marker-end="url(#afield)"/>
<line x1="840.40" y1="523.85" x2="738.23" y2="523.85" stroke="#c9cdd4" stroke-width="1.4" marker-end="url(#afield)"/>
<line x1="943.60" y1="523.85" x2="841.43" y2="523.85" stroke="#c9cdd4" stroke-width="1.4" marker-end="url(#afield)"/>
<line x1="1046.80" y1="523.85" x2="944.63" y2="523.85" stroke="#c9cdd4" stroke-width="1.4" marker-end="url(#afield)"/>
<line x1="221.20" y1="486.46" x2="153.09" y2="486.46" stroke="#c9cdd4" stroke-width="1.4" marker-end="url(#afield)"/>
<line x1="324.40" y1="486.46" x2="256.29" y2="486.46" stroke="#c9cdd4" stroke-width="1.4" marker-end="url(#afield)"/>
<line x1="427.60" y1="486.46" x2="359.49" y2="486.46" stroke="#c9cdd4" stroke-width="1.4" marker-end="url(#afield)"/>
<line x1="530.80" y1="486.46" x2="462.69" y2="486.46" stroke="#c9cdd4" stroke-width="1.4" marker-end="url(#afield)"/>
<line x1="634.00" y1="486.46" x2="565.89" y2="486.46" stroke="#c9cdd4" stroke-width="1.4" marker-end="url(#afield)"/>
<line x1="737.20" y1="486.46" x2="669.09" y2="486.46" stroke="#c9cdd4" stroke-width="1.4" marker-end="url(#afield)"/>
<line x1="840.40" y1="486.46" x2="772.29" y2="486.46" stroke="#c9cdd4" stroke-width="1.4" marker-end="url(#afield)"/>
<line x1="943.60" y1="486.46" x2="875.49" y2="486.46" stroke="#c9cdd4" stroke-width="1.4" marker-end="url(#afield)"/>
<line x1="1046.80" y1="486.46" x2="978.69" y2="486.46" stroke="#c9cdd4" stroke-width="1.4" marker-end="url(#afield)"/>
<line x1="221.20" y1="449.08" x2="187.14" y2="449.08" stroke="#c9cdd4" stroke-width="1.4" marker-end="url(#afield)"/>
<line x1="324.40" y1="449.08" x2="290.34" y2="449.08" stroke="#c9cdd4" stroke-width="1.4" marker-end="url(#afield)"/>
<line x1="427.60" y1="449.08" x2="393.54" y2="449.08" stroke="#c9cdd4" stroke-width="1.4" marker-end="url(#afield)"/>
<line x1="530.80" y1="449.08" x2="496.74" y2="449.08" stroke="#c9cdd4" stroke-width="1.4" marker-end="url(#afield)"/>
<line x1="634.00" y1="449.08" x2="599.94" y2="449.08" stroke="#c9cdd4" stroke-width="1.4" marker-end="url(#afield)"/>
<line x1="737.20" y1="449.08" x2="703.14" y2="449.08" stroke="#c9cdd4" stroke-width="1.4" marker-end="url(#afield)"/>
<line x1="840.40" y1="449.08" x2="806.34" y2="449.08" stroke="#c9cdd4" stroke-width="1.4" marker-end="url(#afield)"/>
<line x1="943.60" y1="449.08" x2="909.54" y2="449.08" stroke="#c9cdd4" stroke-width="1.4" marker-end="url(#afield)"/>
<line x1="1046.80" y1="449.08" x2="1012.74" y2="449.08" stroke="#c9cdd4" stroke-width="1.4" marker-end="url(#afield)"/>
<line x1="221.20" y1="374.31" x2="255.26" y2="374.31" stroke="#c9cdd4" stroke-width="1.4" marker-end="url(#afield)"/>
<line x1="324.40" y1="374.31" x2="358.46" y2="374.31" stroke="#c9cdd4" stroke-width="1.4" marker-end="url(#afield)"/>
<line x1="427.60" y1="374.31" x2="461.66" y2="374.31" stroke="#c9cdd4" stroke-width="1.4" marker-end="url(#afield)"/>
<line x1="530.80" y1="374.31" x2="564.86" y2="374.31" stroke="#c9cdd4" stroke-width="1.4" marker-end="url(#afield)"/>
<line x1="634.00" y1="374.31" x2="668.06" y2="374.31" stroke="#c9cdd4" stroke-width="1.4" marker-end="url(#afield)"/>
<line x1="737.20" y1="374.31" x2="771.26" y2="374.31" stroke="#c9cdd4" stroke-width="1.4" marker-end="url(#afield)"/>
<line x1="840.40" y1="374.31" x2="874.46" y2="374.31" stroke="#c9cdd4" stroke-width="1.4" marker-end="url(#afield)"/>
<line x1="943.60" y1="374.31" x2="977.66" y2="374.31" stroke="#c9cdd4" stroke-width="1.4" marker-end="url(#afield)"/>
<line x1="1046.80" y1="374.31" x2="1080.86" y2="374.31" stroke="#c9cdd4" stroke-width="1.4" marker-end="url(#afield)"/>
<line x1="221.20" y1="336.92" x2="289.31" y2="336.92" stroke="#c9cdd4" stroke-width="1.4" marker-end="url(#afield)"/>
<line x1="324.40" y1="336.92" x2="392.51" y2="336.92" stroke="#c9cdd4" stroke-width="1.4" marker-end="url(#afield)"/>
<line x1="427.60" y1="336.92" x2="495.71" y2="336.92" stroke="#c9cdd4" stroke-width="1.4" marker-end="url(#afield)"/>
<line x1="530.80" y1="336.92" x2="598.91" y2="336.92" stroke="#c9cdd4" stroke-width="1.4" marker-end="url(#afield)"/>
<line x1="634.00" y1="336.92" x2="702.11" y2="336.92" stroke="#c9cdd4" stroke-width="1.4" marker-end="url(#afield)"/>
<line x1="737.20" y1="336.92" x2="805.31" y2="336.92" stroke="#c9cdd4" stroke-width="1.4" marker-end="url(#afield)"/>
<line x1="840.40" y1="336.92" x2="908.51" y2="336.92" stroke="#c9cdd4" stroke-width="1.4" marker-end="url(#afield)"/>
<line x1="943.60" y1="336.92" x2="1011.71" y2="336.92" stroke="#c9cdd4" stroke-width="1.4" marker-end="url(#afield)"/>
<line x1="1046.80" y1="336.92" x2="1114.91" y2="336.92" stroke="#c9cdd4" stroke-width="1.4" marker-end="url(#afield)"/>
<line x1="221.20" y1="299.54" x2="323.37" y2="299.54" stroke="#c9cdd4" stroke-width="1.4" marker-end="url(#afield)"/>
<line x1="324.40" y1="299.54" x2="426.57" y2="299.54" stroke="#c9cdd4" stroke-width="1.4" marker-end="url(#afield)"/>
<line x1="427.60" y1="299.54" x2="529.77" y2="299.54" stroke="#c9cdd4" stroke-width="1.4" marker-end="url(#afield)"/>
<line x1="530.80" y1="299.54" x2="632.97" y2="299.54" stroke="#c9cdd4" stroke-width="1.4" marker-end="url(#afield)"/>
<line x1="634.00" y1="299.54" x2="736.17" y2="299.54" stroke="#c9cdd4" stroke-width="1.4" marker-end="url(#afield)"/>
<line x1="737.20" y1="299.54" x2="839.37" y2="299.54" stroke="#c9cdd4" stroke-width="1.4" marker-end="url(#afield)"/>
<line x1="840.40" y1="299.54" x2="942.57" y2="299.54" stroke="#c9cdd4" stroke-width="1.4" marker-end="url(#afield)"/>
<line x1="943.60" y1="299.54" x2="1045.77" y2="299.54" stroke="#c9cdd4" stroke-width="1.4" marker-end="url(#afield)"/>
<line x1="1046.80" y1="299.54" x2="1148.97" y2="299.54" stroke="#c9cdd4" stroke-width="1.4" marker-end="url(#afield)"/>
<line x1="221.20" y1="262.15" x2="357.42" y2="262.15" stroke="#c9cdd4" stroke-width="1.4" marker-end="url(#afield)"/>
<line x1="324.40" y1="262.15" x2="460.62" y2="262.15" stroke="#c9cdd4" stroke-width="1.4" marker-end="url(#afield)"/>
<line x1="427.60" y1="262.15" x2="563.82" y2="262.15" stroke="#c9cdd4" stroke-width="1.4" marker-end="url(#afield)"/>
<line x1="530.80" y1="262.15" x2="667.02" y2="262.15" stroke="#c9cdd4" stroke-width="1.4" marker-end="url(#afield)"/>
<line x1="634.00" y1="262.15" x2="770.22" y2="262.15" stroke="#c9cdd4" stroke-width="1.4" marker-end="url(#afield)"/>
<line x1="737.20" y1="262.15" x2="873.42" y2="262.15" stroke="#c9cdd4" stroke-width="1.4" marker-end="url(#afield)"/>
<line x1="840.40" y1="262.15" x2="976.62" y2="262.15" stroke="#c9cdd4" stroke-width="1.4" marker-end="url(#afield)"/>
<line x1="943.60" y1="262.15" x2="1079.82" y2="262.15" stroke="#c9cdd4" stroke-width="1.4" marker-end="url(#afield)"/>
<line x1="1046.80" y1="262.15" x2="1150.00" y2="262.15" stroke="#c9cdd4" stroke-width="1.4" marker-end="url(#afield)"/>
<line x1="221.20" y1="224.77" x2="391.48" y2="224.77" stroke="#c9cdd4" stroke-width="1.4" marker-end="url(#afield)"/>
<line x1="324.40" y1="224.77" x2="494.68" y2="224.77" stroke="#c9cdd4" stroke-width="1.4" marker-end="url(#afield)"/>
<line x1="427.60" y1="224.77" x2="597.88" y2="224.77" stroke="#c9cdd4" stroke-width="1.4" marker-end="url(#afield)"/>
<line x1="530.80" y1="224.77" x2="701.08" y2="224.77" stroke="#c9cdd4" stroke-width="1.4" marker-end="url(#afield)"/>
<line x1="634.00" y1="224.77" x2="804.28" y2="224.77" stroke="#c9cdd4" stroke-width="1.4" marker-end="url(#afield)"/>
<line x1="737.20" y1="224.77" x2="907.48" y2="224.77" stroke="#c9cdd4" stroke-width="1.4" marker-end="url(#afield)"/>
<line x1="840.40" y1="224.77" x2="1010.68" y2="224.77" stroke="#c9cdd4" stroke-width="1.4" marker-end="url(#afield)"/>
<line x1="943.60" y1="224.77" x2="1113.88" y2="224.77" stroke="#c9cdd4" stroke-width="1.4" marker-end="url(#afield)"/>
<line x1="1046.80" y1="224.77" x2="1150.00" y2="224.77" stroke="#c9cdd4" stroke-width="1.4" marker-end="url(#afield)"/>
<line x1="435.55" y1="441.96" x2="118.00" y2="416.97" stroke="#3a7d44" stroke-width="1.6" stroke-opacity="0.85" stroke-dasharray="5 4" marker-end="url(#ao1)"/>
<circle cx="435.55" cy="441.96" r="3.6" fill="white" stroke="#3a7d44" stroke-width="1.6"/>
<line x1="428.74" y1="432.24" x2="1150.00" y2="411.69" stroke="#3a7d44" stroke-width="1.6" stroke-opacity="0.85" stroke-dasharray="5 4" marker-end="url(#ao1)"/>
<circle cx="428.74" cy="432.24" r="3.6" fill="white" stroke="#3a7d44" stroke-width="1.6"/>
<line x1="435.55" y1="441.96" x2="226.57" y2="452.85" stroke="#3a7d44" stroke-width="1.6" stroke-opacity="0.85" stroke-dasharray="5 4" marker-end="url(#ao1)"/>
<circle cx="435.55" cy="441.96" r="3.6" fill="white" stroke="#3a7d44" stroke-width="1.6"/>
<line x1="428.74" y1="432.24" x2="1085.50" y2="415.18" stroke="#3a7d44" stroke-width="1.6" stroke-opacity="0.85" stroke-dasharray="5 4" marker-end="url(#ao1)"/>
<circle cx="428.74" cy="432.24" r="3.6" fill="white" stroke="#3a7d44" stroke-width="1.6"/>
<line x1="435.55" y1="441.96" x2="354.53" y2="376.64" stroke="#3a7d44" stroke-width="1.6" stroke-opacity="0.85" stroke-dasharray="5 4" marker-end="url(#ao1)"/>
<circle cx="435.55" cy="441.96" r="3.6" fill="white" stroke="#3a7d44" stroke-width="1.6"/>
<line x1="428.74" y1="432.24" x2="967.23" y2="329.94" stroke="#3a7d44" stroke-width="1.6" stroke-opacity="0.85" stroke-dasharray="5 4" marker-end="url(#ao1)"/>
<circle cx="428.74" cy="432.24" r="3.6" fill="white" stroke="#3a7d44" stroke-width="1.6"/>
<line x1="435.55" y1="441.96" x2="118.00" y2="411.69" stroke="#3a7d44" stroke-width="1.6" stroke-opacity="0.85" stroke-dasharray="5 4" marker-end="url(#ao1)"/>
<circle cx="435.55" cy="441.96" r="3.6" fill="white" stroke="#3a7d44" stroke-width="1.6"/>
<line x1="428.74" y1="432.24" x2="519.96" y2="350.00" stroke="#3a7d44" stroke-width="1.6" stroke-opacity="0.85" stroke-dasharray="5 4" marker-end="url(#ao1)"/>
<circle cx="428.74" cy="432.24" r="3.6" fill="white" stroke="#3a7d44" stroke-width="1.6"/>
<line x1="473.42" y1="448.85" x2="892.00" y2="317.64" stroke="#3a7d44" stroke-width="1.6" stroke-opacity="0.85" stroke-dasharray="5 4" marker-end="url(#ao1)"/>
<circle cx="473.42" cy="448.85" r="3.6" fill="white" stroke="#3a7d44" stroke-width="1.6"/>
<line x1="730.80" y1="413.25" x2="386.84" y2="374.44" stroke="#2867b5" stroke-width="1.7" stroke-opacity="0.82" marker-end="url(#af0)"/>
<circle cx="730.80" cy="413.25" r="3.7" fill="white" stroke="#2867b5" stroke-width="1.7"/>
<line x1="730.80" y1="413.30" x2="569.50" y2="435.31" stroke="#2867b5" stroke-width="1.7" stroke-opacity="0.82" marker-end="url(#af0)"/>
<circle cx="730.80" cy="413.30" r="3.7" fill="white" stroke="#2867b5" stroke-width="1.7"/>
<line x1="730.80" y1="459.74" x2="741.53" y2="411.69" stroke="#2867b5" stroke-width="1.7" stroke-opacity="0.82" marker-end="url(#af0)"/>
<circle cx="730.80" cy="459.74" r="3.7" fill="white" stroke="#2867b5" stroke-width="1.7"/>
<line x1="730.80" y1="411.69" x2="763.00" y2="411.69" stroke="#2867b5" stroke-width="1.7" stroke-opacity="0.82" marker-end="url(#af0)"/>
<circle cx="730.80" cy="411.69" r="3.7" fill="white" stroke="#2867b5" stroke-width="1.7"/>
<line x1="773.73" y1="400.12" x2="848.97" y2="381.46" stroke="#2867b5" stroke-width="1.7" stroke-opacity="0.82" marker-end="url(#af0)"/>
<circle cx="773.73" cy="400.12" r="3.7" fill="white" stroke="#2867b5" stroke-width="1.7"/>
<line x1="773.73" y1="400.12" x2="816.77" y2="429.40" stroke="#2867b5" stroke-width="1.7" stroke-opacity="0.82" marker-end="url(#af0)"/>
<circle cx="773.73" cy="400.12" r="3.7" fill="white" stroke="#2867b5" stroke-width="1.7"/>
<line x1="773.73" y1="446.42" x2="601.80" y2="365.18" stroke="#2867b5" stroke-width="1.7" stroke-opacity="0.82" marker-end="url(#af0)"/>
<circle cx="773.73" cy="446.42" r="3.7" fill="white" stroke="#2867b5" stroke-width="1.7"/>
<line x1="773.73" y1="411.69" x2="472.70" y2="411.69" stroke="#2867b5" stroke-width="1.7" stroke-opacity="0.82" marker-end="url(#af0)"/>
<circle cx="773.73" cy="411.69" r="3.7" fill="white" stroke="#2867b5" stroke-width="1.7"/>
<line x1="741.53" y1="366.28" x2="1021.00" y2="362.77" stroke="#2867b5" stroke-width="1.7" stroke-opacity="0.82" marker-end="url(#af0)"/>
<circle cx="741.53" cy="366.28" r="3.7" fill="white" stroke="#2867b5" stroke-width="1.7"/>
<line x1="741.53" y1="366.28" x2="838.23" y2="400.51" stroke="#2867b5" stroke-width="1.7" stroke-opacity="0.82" marker-end="url(#af0)"/>
<circle cx="741.53" cy="366.28" r="3.7" fill="white" stroke="#2867b5" stroke-width="1.7"/>
<line x1="741.53" y1="423.13" x2="730.80" y2="405.23" stroke="#2867b5" stroke-width="1.7" stroke-opacity="0.82" marker-end="url(#af0)"/>
<circle cx="741.53" cy="423.13" r="3.7" fill="white" stroke="#2867b5" stroke-width="1.7"/>
<line x1="741.53" y1="411.69" x2="795.30" y2="411.69" stroke="#2867b5" stroke-width="1.7" stroke-opacity="0.82" marker-end="url(#af0)"/>
<circle cx="741.53" cy="411.69" r="3.7" fill="white" stroke="#2867b5" stroke-width="1.7"/>
<line x1="719.97" y1="402.30" x2="1150.00" y2="163.30" stroke="#2867b5" stroke-width="1.7" stroke-opacity="0.82" marker-end="url(#af0)"/>
<circle cx="719.97" cy="402.30" r="3.7" fill="white" stroke="#2867b5" stroke-width="1.7"/>
<line x1="719.97" y1="402.30" x2="644.73" y2="401.13" stroke="#2867b5" stroke-width="1.7" stroke-opacity="0.82" marker-end="url(#af0)"/>
<circle cx="719.97" cy="402.30" r="3.7" fill="white" stroke="#2867b5" stroke-width="1.7"/>
<line x1="719.97" y1="429.93" x2="730.70" y2="387.04" stroke="#2867b5" stroke-width="1.7" stroke-opacity="0.82" marker-end="url(#af0)"/>
<circle cx="719.97" cy="429.93" r="3.7" fill="white" stroke="#2867b5" stroke-width="1.7"/>
<line x1="719.97" y1="411.69" x2="934.93" y2="411.69" stroke="#2867b5" stroke-width="1.7" stroke-opacity="0.82" marker-end="url(#af0)"/>
<circle cx="719.97" cy="411.69" r="3.7" fill="white" stroke="#2867b5" stroke-width="1.7"/>
<line x1="364.24" y1="471.89" x2="315.63" y2="383.49" stroke="#3a7d44" stroke-width="1.7" stroke-opacity="0.82" marker-end="url(#af1)"/>
<circle cx="364.24" cy="471.89" r="3.7" fill="white" stroke="#3a7d44" stroke-width="1.7"/>
<line x1="364.24" y1="404.03" x2="182.50" y2="394.50" stroke="#3a7d44" stroke-width="1.7" stroke-opacity="0.82" marker-end="url(#af1)"/>
<circle cx="364.24" cy="404.03" r="3.7" fill="white" stroke="#3a7d44" stroke-width="1.7"/>
<line x1="370.53" y1="444.71" x2="215.83" y2="408.69" stroke="#3a7d44" stroke-width="1.7" stroke-opacity="0.82" marker-end="url(#af1)"/>
<circle cx="370.53" cy="444.71" r="3.7" fill="white" stroke="#3a7d44" stroke-width="1.7"/>
<line x1="370.53" y1="451.99" x2="182.50" y2="493.18" stroke="#3a7d44" stroke-width="1.7" stroke-opacity="0.82" marker-end="url(#af1)"/>
<circle cx="370.53" cy="451.99" r="3.7" fill="white" stroke="#3a7d44" stroke-width="1.7"/>
<line x1="359.49" y1="410.15" x2="945.77" y2="392.40" stroke="#3a7d44" stroke-width="1.7" stroke-opacity="0.82" marker-end="url(#af1)"/>
<circle cx="359.49" cy="410.15" r="3.7" fill="white" stroke="#3a7d44" stroke-width="1.7"/>
<line x1="365.27" y1="493.34" x2="118.00" y2="414.92" stroke="#3a7d44" stroke-width="1.7" stroke-opacity="0.82" marker-end="url(#af1)"/>
<circle cx="365.27" cy="493.34" r="3.7" fill="white" stroke="#3a7d44" stroke-width="1.7"/>
<line x1="335.24" y1="454.06" x2="273.32" y2="465.16" stroke="#3a7d44" stroke-width="1.7" stroke-opacity="0.82" marker-end="url(#af1)"/>
<circle cx="335.24" cy="454.06" r="3.7" fill="white" stroke="#3a7d44" stroke-width="1.7"/>
<line x1="395.40" y1="462.08" x2="311.50" y2="364.74" stroke="#3a7d44" stroke-width="1.7" stroke-opacity="0.82" marker-end="url(#af1)"/>
<circle cx="395.40" cy="462.08" r="3.7" fill="white" stroke="#3a7d44" stroke-width="1.7"/>
<line x1="365.27" y1="442.13" x2="268.57" y2="384.81" stroke="#3a7d44" stroke-width="1.7" stroke-opacity="0.82" marker-end="url(#af1)"/>
<circle cx="365.27" cy="442.13" r="3.7" fill="white" stroke="#3a7d44" stroke-width="1.7"/>
<line x1="335.24" y1="388.85" x2="827.50" y2="321.99" stroke="#3a7d44" stroke-width="1.7" stroke-opacity="0.82" marker-end="url(#af1)"/>
<circle cx="335.24" cy="388.85" r="3.7" fill="white" stroke="#3a7d44" stroke-width="1.7"/>
<line x1="435.55" y1="437.42" x2="698.50" y2="388.42" stroke="#3a7d44" stroke-width="1.7" stroke-opacity="0.82" marker-end="url(#af1)"/>
<circle cx="435.55" cy="437.42" r="3.7" fill="white" stroke="#3a7d44" stroke-width="1.7"/>
<line x1="428.74" y1="408.29" x2="1021.00" y2="376.07" stroke="#3a7d44" stroke-width="1.7" stroke-opacity="0.82" marker-end="url(#af1)"/>
<circle cx="428.74" cy="408.29" r="3.7" fill="white" stroke="#3a7d44" stroke-width="1.7"/>
<line x1="1021.00" y1="398.00" x2="856.71" y2="390.24" stroke="#b5842c" stroke-width="1.7" stroke-opacity="0.82" marker-end="url(#af2)"/>
<circle cx="1021.00" cy="398.00" r="3.7" fill="white" stroke="#b5842c" stroke-width="1.7"/>
<line x1="1150.00" y1="411.69" x2="1150.00" y2="411.69" stroke="#b5842c" stroke-width="1.7" stroke-opacity="0.82" marker-end="url(#af2)"/>
<circle cx="1150.00" cy="411.69" r="3.7" fill="white" stroke="#b5842c" stroke-width="1.7"/>
<line x1="1021.00" y1="403.73" x2="672.08" y2="404.64" stroke="#b5842c" stroke-width="1.7" stroke-opacity="0.82" marker-end="url(#af2)"/>
<circle cx="1021.00" cy="403.73" r="3.7" fill="white" stroke="#b5842c" stroke-width="1.7"/>
<line x1="1150.00" y1="411.69" x2="687.77" y2="443.92" stroke="#b5842c" stroke-width="1.7" stroke-opacity="0.82" marker-end="url(#af2)"/>
<circle cx="1150.00" cy="411.69" r="3.7" fill="white" stroke="#b5842c" stroke-width="1.7"/>
<line x1="1010.27" y1="411.80" x2="672.08" y2="369.55" stroke="#b5842c" stroke-width="1.7" stroke-opacity="0.82" marker-end="url(#af2)"/>
<circle cx="1010.27" cy="411.80" r="3.7" fill="white" stroke="#b5842c" stroke-width="1.7"/>
<line x1="1150.00" y1="411.69" x2="889.21" y2="403.13" stroke="#b5842c" stroke-width="1.7" stroke-opacity="0.82" marker-end="url(#af2)"/>
<circle cx="1150.00" cy="411.69" r="3.7" fill="white" stroke="#b5842c" stroke-width="1.7"/>
<line x1="362.17" y1="432.19" x2="590.97" y2="405.09" stroke="#b5842c" stroke-width="1.7" stroke-opacity="0.82" marker-end="url(#af2)"/>
<circle cx="362.17" cy="432.19" r="3.7" fill="white" stroke="#b5842c" stroke-width="1.7"/>
<line x1="384.67" y1="381.26" x2="601.08" y2="394.22" stroke="#b5842c" stroke-width="1.7" stroke-opacity="0.82" marker-end="url(#af2)"/>
<circle cx="384.67" cy="381.26" r="3.7" fill="white" stroke="#b5842c" stroke-width="1.7"/>
<line x1="326.57" y1="368.28" x2="601.70" y2="453.15" stroke="#b5842c" stroke-width="1.7" stroke-opacity="0.82" marker-end="url(#af2)"/>
<circle cx="326.57" cy="368.28" r="3.7" fill="white" stroke="#b5842c" stroke-width="1.7"/>
<line x1="544.22" y1="384.82" x2="558.77" y2="443.48" stroke="#b5842c" stroke-width="1.7" stroke-opacity="0.82" marker-end="url(#af2)"/>
<circle cx="544.22" cy="384.82" r="3.7" fill="white" stroke="#b5842c" stroke-width="1.7"/>
<line x1="458.25" y1="346.06" x2="881.27" y2="469.46" stroke="#b5842c" stroke-width="1.7" stroke-opacity="0.82" marker-end="url(#af2)"/>
<circle cx="458.25" cy="346.06" r="3.7" fill="white" stroke="#b5842c" stroke-width="1.7"/>
<line x1="412.84" y1="356.32" x2="1085.50" y2="391.69" stroke="#b5842c" stroke-width="1.7" stroke-opacity="0.82" marker-end="url(#af2)"/>
<circle cx="412.84" cy="356.32" r="3.7" fill="white" stroke="#b5842c" stroke-width="1.7"/>
<line x1="427.60" y1="336.03" x2="1150.00" y2="411.69" stroke="#b5842c" stroke-width="1.7" stroke-opacity="0.82" marker-end="url(#af2)"/>
<circle cx="427.60" cy="336.03" r="3.7" fill="white" stroke="#b5842c" stroke-width="1.7"/>
<line x1="331.11" y1="325.77" x2="1150.00" y2="411.69" stroke="#b5842c" stroke-width="1.7" stroke-opacity="0.82" marker-end="url(#af2)"/>
<circle cx="331.11" cy="325.77" r="3.7" fill="white" stroke="#b5842c" stroke-width="1.7"/>
<line x1="434.62" y1="294.05" x2="1139.16" y2="411.69" stroke="#b5842c" stroke-width="1.7" stroke-opacity="0.82" marker-end="url(#af2)"/>
<circle cx="434.62" cy="294.05" r="3.7" fill="white" stroke="#b5842c" stroke-width="1.7"/>
<line x1="439.78" y1="290.06" x2="1150.00" y2="411.69" stroke="#b5842c" stroke-width="1.7" stroke-opacity="0.82" marker-end="url(#af2)"/>
<circle cx="439.78" cy="290.06" r="3.7" fill="white" stroke="#b5842c" stroke-width="1.7"/>
<line x1="492.20" y1="332.84" x2="1150.00" y2="411.69" stroke="#b5842c" stroke-width="1.7" stroke-opacity="0.82" marker-end="url(#af2)"/>
<circle cx="492.20" cy="332.84" r="3.7" fill="white" stroke="#b5842c" stroke-width="1.7"/>
<line x1="370.22" y1="300.98" x2="1150.00" y2="411.69" stroke="#b5842c" stroke-width="1.7" stroke-opacity="0.82" marker-end="url(#af2)"/>
<circle cx="370.22" cy="300.98" r="3.7" fill="white" stroke="#b5842c" stroke-width="1.7"/>
<line x1="1064.03" y1="489.08" x2="214.80" y2="456.99" stroke="#8a5a9e" stroke-width="1.7" stroke-opacity="0.82" marker-end="url(#af3)"/>
<circle cx="1064.03" cy="489.08" r="3.7" fill="white" stroke="#8a5a9e" stroke-width="1.7"/>
<line x1="1150.00" y1="411.69" x2="1150.00" y2="411.69" stroke="#8a5a9e" stroke-width="1.7" stroke-opacity="0.82" marker-end="url(#af3)"/>
<circle cx="1150.00" cy="411.69" r="3.7" fill="white" stroke="#8a5a9e" stroke-width="1.7"/>
<line x1="1074.77" y1="485.12" x2="472.80" y2="607.51" stroke="#8a5a9e" stroke-width="1.7" stroke-opacity="0.82" marker-end="url(#af3)"/>
<circle cx="1074.77" cy="485.12" r="3.7" fill="white" stroke="#8a5a9e" stroke-width="1.7"/>
<line x1="1150.00" y1="411.69" x2="617.69" y2="607.51" stroke="#8a5a9e" stroke-width="1.7" stroke-opacity="0.82" marker-end="url(#af3)"/>
<circle cx="1150.00" cy="411.69" r="3.7" fill="white" stroke="#8a5a9e" stroke-width="1.7"/>
<line x1="682.61" y1="261.40" x2="1147.94" y2="502.67" stroke="#b5342c" stroke-width="1.7" stroke-opacity="0.82" marker-end="url(#af4)"/>
<circle cx="682.61" cy="261.40" r="3.7" fill="white" stroke="#b5342c" stroke-width="1.7"/>
<line x1="682.61" y1="330.32" x2="1125.85" y2="432.54" stroke="#b5342c" stroke-width="1.7" stroke-opacity="0.82" marker-end="url(#af4)"/>
<circle cx="682.61" cy="330.32" r="3.7" fill="white" stroke="#b5342c" stroke-width="1.7"/>
<line x1="682.61" y1="282.68" x2="1149.28" y2="298.64" stroke="#b5342c" stroke-width="1.7" stroke-opacity="0.82" marker-end="url(#af4)"/>
<circle cx="682.61" cy="282.68" r="3.7" fill="white" stroke="#b5342c" stroke-width="1.7"/>
<line x1="682.61" y1="338.97" x2="1063.72" y2="347.54" stroke="#b5342c" stroke-width="1.7" stroke-opacity="0.82" marker-end="url(#af4)"/>
<circle cx="682.61" cy="338.97" r="3.7" fill="white" stroke="#b5342c" stroke-width="1.7"/>
<line x1="1148.86" y1="499.98" x2="459.80" y2="463.59" stroke="#8a5a9e" stroke-width="1.7" stroke-opacity="0.82" marker-end="url(#af3)"/>
<circle cx="1148.86" cy="499.98" r="3.7" fill="white" stroke="#8a5a9e" stroke-width="1.7"/>
<line x1="1148.86" y1="550.45" x2="462.69" y2="460.67" stroke="#8a5a9e" stroke-width="1.7" stroke-opacity="0.82" marker-end="url(#af3)"/>
<circle cx="1148.86" cy="550.45" r="3.7" fill="white" stroke="#8a5a9e" stroke-width="1.7"/>
<line x1="1132.97" y1="509.45" x2="762.69" y2="411.69" stroke="#8a5a9e" stroke-width="1.7" stroke-opacity="0.82" marker-end="url(#af3)"/>
<circle cx="1132.97" cy="509.45" r="3.7" fill="white" stroke="#8a5a9e" stroke-width="1.7"/>
<line x1="1128.95" y1="366.06" x2="1106.66" y2="410.75" stroke="#b5342c" stroke-width="1.7" stroke-opacity="0.82" marker-end="url(#af4)"/>
<circle cx="1128.95" cy="366.06" r="3.7" fill="white" stroke="#b5342c" stroke-width="1.7"/>
<line x1="1128.95" y1="463.55" x2="462.69" y2="411.69" stroke="#b5342c" stroke-width="1.7" stroke-opacity="0.82" marker-end="url(#af4)"/>
<circle cx="1128.95" cy="463.55" r="3.7" fill="white" stroke="#b5342c" stroke-width="1.7"/>
<line x1="764.96" y1="411.69" x2="118.00" y2="411.69" stroke="#8a5a9e" stroke-width="1.7" stroke-opacity="0.82" marker-end="url(#af3)"/>
<circle cx="764.96" cy="411.69" r="3.7" fill="white" stroke="#8a5a9e" stroke-width="1.7"/>
<line x1="764.96" y1="411.69" x2="118.00" y2="411.69" stroke="#8a5a9e" stroke-width="1.7" stroke-opacity="0.82" marker-end="url(#af3)"/>
<circle cx="764.96" cy="411.69" r="3.7" fill="white" stroke="#8a5a9e" stroke-width="1.7"/>
<line x1="764.96" y1="411.69" x2="762.69" y2="411.69" stroke="#8a5a9e" stroke-width="1.7" stroke-opacity="0.82" marker-end="url(#af3)"/>
<circle cx="764.96" cy="411.69" r="3.7" fill="white" stroke="#8a5a9e" stroke-width="1.7"/>
<line x1="764.96" y1="411.69" x2="762.69" y2="411.69" stroke="#8a5a9e" stroke-width="1.7" stroke-opacity="0.82" marker-end="url(#af3)"/>
<circle cx="764.96" cy="411.69" r="3.7" fill="white" stroke="#8a5a9e" stroke-width="1.7"/>
<line x1="576.72" y1="465.54" x2="118.00" y2="411.69" stroke="#b5342c" stroke-width="1.7" stroke-opacity="0.82" marker-end="url(#af4)"/>
<circle cx="576.72" cy="465.54" r="3.7" fill="white" stroke="#b5342c" stroke-width="1.7"/>
<line x1="576.72" y1="427.35" x2="118.00" y2="419.97" stroke="#b5342c" stroke-width="1.7" stroke-opacity="0.82" marker-end="url(#af4)"/>
<circle cx="576.72" cy="427.35" r="3.7" fill="white" stroke="#b5342c" stroke-width="1.7"/>
<text x="634.0" y="684.0" font-family="Helvetica, Arial, sans-serif" font-size="16" fill="#1a1a1a" font-weight="normal" text-anchor="middle">behavioral value v  (fraction risk-seeking / insecure-code), 0 → 1</text>
<text x="46" y="393.0" font-family="Helvetica, Arial, sans-serif" font-size="16" fill="#1a1a1a" text-anchor="middle" transform="rotate(-90 46 393.0)">forecast one-round move  ρ·σ  (round agreement × spread)</text>
<text x="44.0" y="714.0" font-family="Helvetica, Arial, sans-serif" font-size="15" fill="#1a1a1a" font-weight="bold" text-anchor="start">Experiment family</text>
<line x1="44" y1="735" x2="74" y2="735" stroke="#2867b5" stroke-width="2.4" marker-end="url(#af0)"/>
<circle cx="48" cy="735" r="3.7" fill="white" stroke="#2867b5" stroke-width="1.7"/>
<text x="84.0" y="740.0" font-family="Helvetica, Arial, sans-serif" font-size="15" fill="#1a1a1a" font-weight="normal" text-anchor="start">Qwen risk grid  (16 runs)</text>
<line x1="44" y1="761" x2="74" y2="761" stroke="#3a7d44" stroke-width="2.4" marker-end="url(#af1)"/>
<circle cx="48" cy="761" r="3.7" fill="white" stroke="#3a7d44" stroke-width="1.7"/>
<text x="84.0" y="766.0" font-family="Helvetica, Arial, sans-serif" font-size="15" fill="#1a1a1a" font-weight="normal" text-anchor="start">OLMo risk grid + judge schedules  (21 runs; 9 hollow)</text>
<line x1="44" y1="787" x2="74" y2="787" stroke="#b5842c" stroke-width="2.4" marker-end="url(#af2)"/>
<circle cx="48" cy="787" r="3.7" fill="white" stroke="#b5842c" stroke-width="1.7"/>
<text x="84.0" y="792.0" font-family="Helvetica, Arial, sans-serif" font-size="15" fill="#1a1a1a" font-weight="normal" text-anchor="start">OLMo mixed-pool interventions  (18 runs)</text>
<line x1="584" y1="735" x2="614" y2="735" stroke="#8a5a9e" stroke-width="2.4" marker-end="url(#af3)"/>
<circle cx="588" cy="735" r="3.7" fill="white" stroke="#8a5a9e" stroke-width="1.7"/>
<text x="624.0" y="740.0" font-family="Helvetica, Arial, sans-serif" font-size="15" fill="#1a1a1a" font-weight="normal" text-anchor="start">oracle &amp; injection  (11 runs)</text>
<line x1="584" y1="761" x2="614" y2="761" stroke="#b5342c" stroke-width="2.4" marker-end="url(#af4)"/>
<circle cx="588" cy="761" r="3.7" fill="white" stroke="#b5342c" stroke-width="1.7"/>
<text x="624.0" y="766.0" font-family="Helvetica, Arial, sans-serif" font-size="15" fill="#1a1a1a" font-weight="normal" text-anchor="start">Qwen insecure-code loops  (8 runs)</text>
<circle cx="904" cy="735" r="3.7" fill="white" stroke="#1a1a1a" stroke-width="1.7"/>
<line x1="900" y1="735" x2="944" y2="735" stroke="#1a1a1a" stroke-width="2.0" marker-end="url(#af0)"/>
<text x="954.0" y="740.0" font-family="Helvetica, Arial, sans-serif" font-size="15" fill="#1a1a1a" font-weight="normal" text-anchor="start">round 1 → final</text>
<text x="900.0" y="766.0" font-family="Helvetica, Arial, sans-serif" font-size="13" fill="#6b7684" font-weight="normal" text-anchor="start">field: schematic, length ∝ ρ·σ</text>
<text x="900.0" y="788.0" font-family="Helvetica, Arial, sans-serif" font-size="13" fill="#6b7684" font-weight="normal" text-anchor="start">ρ unmeasurable (σ→0) → move 0</text>
<text x="44.0" y="822.0" font-family="Helvetica, Arial, sans-serif" font-size="13" fill="#6b7684" font-weight="normal" text-anchor="start">Coordinates computed live (stdlib) from experiments/spread_util_unified.json: start = round-1 (value, ρ·own_spread); end = (last value + drift, last ρ·own_spread).</text>
<text x="44.0" y="840.0" font-family="Helvetica, Arial, sans-serif" font-size="13" fill="#6b7684" font-weight="normal" text-anchor="start">Endpoint convention matches spread-rollout-bakeoff.py observed(); families are the run-inventory.py names.  Generator: field-value-gap-startend.py</text>
</svg>