<svg xmlns="http://www.w3.org/2000/svg" viewBox="0 0 2060 1010" font-family="Helvetica, Arial, sans-serif">
<rect width="2060" height="1010" fill="white"/>
<text x="64" y="74" font-family="Helvetica, Arial, sans-serif" font-size="40" fill="#1a1a1a" font-weight="bold" text-anchor="start">Measure the run once and roll a simple model forward:</text>
<text x="64" y="122" font-family="Helvetica, Arial, sans-serif" font-size="40" fill="#1a1a1a" font-weight="bold" text-anchor="start">forecast error stays flat with horizon — until the judge changes.</text>
<text x="64" y="168" font-family="Helvetica, Arial, sans-serif" font-size="22" fill="#6b7684" font-weight="normal" text-anchor="start">Held-out-condition mean absolute error of the predicted behavioral value (0–1 scale), Qwen + OLMo selection loops.</text>
<text x="64" y="198" font-family="Helvetica, Arial, sans-serif" font-size="22" fill="#6b7684" font-weight="normal" text-anchor="start">Each model is given the run's state once at round 1, at every round, or once plus once at the judge swap; error is</text>
<text x="64" y="228" font-family="Helvetica, Arial, sans-serif" font-size="22" fill="#6b7684" font-weight="normal" text-anchor="start">averaged over runs at each number of rounds ahead of the first measured answer pool.</text>
<text x="122" y="268" font-family="Helvetica, Arial, sans-serif" font-size="26" fill="#1a1a1a" font-weight="bold" text-anchor="start">Selection-driven runs (36 runs): trajectories saturate</text>
<text x="1048" y="268" font-family="Helvetica, Arial, sans-serif" font-size="26" fill="#1a1a1a" font-weight="bold" text-anchor="start">Judge swapped mid-run (9 runs): the target keeps moving</text>
<text x="40" y="567.0" font-family="Helvetica, Arial, sans-serif" font-size="22" fill="#1a1a1a" text-anchor="middle" transform="rotate(-90 40 567.0)">forecast error (mean absolute error of predicted value)</text>
<line x1="168" y1="812.0" x2="690" y2="812.0" stroke="#1a1a1a" stroke-width="2"/>
<text x="152" y="818.0" font-family="Helvetica, Arial, sans-serif" font-size="22" fill="#6b7684" font-weight="normal" text-anchor="end">0.0</text>
<line x1="168" y1="714.0" x2="690" y2="714.0" stroke="#c9ced6" stroke-width="1"/>
<text x="152" y="720.0" font-family="Helvetica, Arial, sans-serif" font-size="22" fill="#6b7684" font-weight="normal" text-anchor="end">0.1</text>
<line x1="168" y1="616.0" x2="690" y2="616.0" stroke="#c9ced6" stroke-width="1"/>
<text x="152" y="622.0" font-family="Helvetica, Arial, sans-serif" font-size="22" fill="#6b7684" font-weight="normal" text-anchor="end">0.2</text>
<line x1="168" y1="518.0" x2="690" y2="518.0" stroke="#c9ced6" stroke-width="1"/>
<text x="152" y="524.0" font-family="Helvetica, Arial, sans-serif" font-size="22" fill="#6b7684" font-weight="normal" text-anchor="end">0.3</text>
<line x1="168" y1="420.0" x2="690" y2="420.0" stroke="#c9ced6" stroke-width="1"/>
<text x="152" y="426.0" font-family="Helvetica, Arial, sans-serif" font-size="22" fill="#6b7684" font-weight="normal" text-anchor="end">0.4</text>
<line x1="168" y1="322.0" x2="690" y2="322.0" stroke="#c9ced6" stroke-width="1"/>
<text x="152" y="328.0" font-family="Helvetica, Arial, sans-serif" font-size="22" fill="#6b7684" font-weight="normal" text-anchor="end">0.5</text>
<line x1="168.0" y1="812" x2="168.0" y2="820" stroke="#1a1a1a" stroke-width="2"/>
<text x="168.0" y="846" font-family="Helvetica, Arial, sans-serif" font-size="22" fill="#6b7684" font-weight="normal" text-anchor="middle">1</text>
<line x1="342.0" y1="812" x2="342.0" y2="820" stroke="#1a1a1a" stroke-width="2"/>
<text x="342.0" y="846" font-family="Helvetica, Arial, sans-serif" font-size="22" fill="#6b7684" font-weight="normal" text-anchor="middle">2</text>
<line x1="516.0" y1="812" x2="516.0" y2="820" stroke="#1a1a1a" stroke-width="2"/>
<text x="516.0" y="846" font-family="Helvetica, Arial, sans-serif" font-size="22" fill="#6b7684" font-weight="normal" text-anchor="middle">3</text>
<line x1="690.0" y1="812" x2="690.0" y2="820" stroke="#1a1a1a" stroke-width="2"/>
<text x="690.0" y="846" font-family="Helvetica, Arial, sans-serif" font-size="22" fill="#6b7684" font-weight="normal" text-anchor="middle">4</text>
<text x="429.0" y="882" font-family="Helvetica, Arial, sans-serif" font-size="22" fill="#1a1a1a" font-weight="normal" text-anchor="middle">rounds ahead of the first measured pool</text>
<polyline points="168.0,503.9 342.0,404.1 516.0,379.9 690.0,389.1" fill="none" stroke="#6b7684" stroke-width="3.5" stroke-linejoin="round"/>
<circle cx="168.0" cy="503.9" r="6" fill="white" stroke="#6b7684" stroke-width="3"/>
<circle cx="342.0" cy="404.1" r="6" fill="white" stroke="#6b7684" stroke-width="3"/>
<circle cx="516.0" cy="379.9" r="6" fill="white" stroke="#6b7684" stroke-width="3"/>
<circle cx="690.0" cy="389.1" r="6" fill="white" stroke="#6b7684" stroke-width="3"/>
<polyline points="168.0,680.1 342.0,704.3 516.0,709.6 690.0,688.5" fill="none" stroke="#2867b5" stroke-width="3.5" stroke-linejoin="round"/>
<circle cx="168.0" cy="680.1" r="6" fill="white" stroke="#2867b5" stroke-width="3"/>
<circle cx="342.0" cy="704.3" r="6" fill="white" stroke="#2867b5" stroke-width="3"/>
<circle cx="516.0" cy="709.6" r="6" fill="white" stroke="#2867b5" stroke-width="3"/>
<circle cx="690.0" cy="688.5" r="6" fill="white" stroke="#2867b5" stroke-width="3"/>
<polyline points="168.0,712.9 342.0,718.3 516.0,747.3 690.0,751.9" fill="none" stroke="#3a7d44" stroke-width="3.5" stroke-linejoin="round"/>
<circle cx="168.0" cy="712.9" r="6" fill="white" stroke="#3a7d44" stroke-width="3"/>
<circle cx="342.0" cy="718.3" r="6" fill="white" stroke="#3a7d44" stroke-width="3"/>
<circle cx="516.0" cy="747.3" r="6" fill="white" stroke="#3a7d44" stroke-width="3"/>
<circle cx="690.0" cy="751.9" r="6" fill="white" stroke="#3a7d44" stroke-width="3"/>
<text x="706.0" y="393.13" font-family="Helvetica, Arial, sans-serif" font-size="21" fill="#6b7684" font-weight="bold" text-anchor="start">predict the starting value</text>
<text x="706.0" y="418.13" font-family="Helvetica, Arial, sans-serif" font-size="19" fill="#6b7684" font-weight="normal" text-anchor="start">forever (no change)</text>
<text x="706.0" y="680.52" font-family="Helvetica, Arial, sans-serif" font-size="21" fill="#2867b5" font-weight="bold" text-anchor="start">measured once at round 1</text>
<text x="706.0" y="705.52" font-family="Helvetica, Arial, sans-serif" font-size="19" fill="#2867b5" font-weight="normal" text-anchor="start">(frozen selection model)</text>
<text x="706.0" y="773.926" font-family="Helvetica, Arial, sans-serif" font-size="21" fill="#3a7d44" font-weight="bold" text-anchor="start">re-measured every round</text>
<text x="706.0" y="798.926" font-family="Helvetica, Arial, sans-serif" font-size="19" fill="#3a7d44" font-weight="normal" text-anchor="start">(mean of the kept answers)</text>
<path d="M 164.0 680.1 H 148.0 V 712.9 H 164.0" fill="none" stroke="#1a1a1a" stroke-width="2"/>
<line x1="148.0" y1="696.5" x2="252" y2="577.9" stroke="#1a1a1a" stroke-width="1.6"/>
<text x="260" y="571.9" font-family="Helvetica, Arial, sans-serif" font-size="18" fill="#1a1a1a" font-weight="bold" text-anchor="start">at 1 round ahead both models</text>
<text x="260" y="595.9" font-family="Helvetica, Arial, sans-serif" font-size="18" fill="#1a1a1a" font-weight="normal" text-anchor="start">see the same pool; the gap</text>
<text x="260" y="619.9" font-family="Helvetica, Arial, sans-serif" font-size="18" fill="#1a1a1a" font-weight="normal" text-anchor="start">(~0.03) is the cost of</text>
<text x="260" y="643.9" font-family="Helvetica, Arial, sans-serif" font-size="18" fill="#1a1a1a" font-weight="normal" text-anchor="start">predicting the selection</text>
<text x="260" y="667.9" font-family="Helvetica, Arial, sans-serif" font-size="18" fill="#1a1a1a" font-weight="normal" text-anchor="start">instead of observing it</text>
<line x1="1090" y1="812.0" x2="1570" y2="812.0" stroke="#1a1a1a" stroke-width="2"/>
<text x="1074" y="818.0" font-family="Helvetica, Arial, sans-serif" font-size="22" fill="#6b7684" font-weight="normal" text-anchor="end">0.0</text>
<line x1="1090" y1="714.0" x2="1570" y2="714.0" stroke="#c9ced6" stroke-width="1"/>
<text x="1074" y="720.0" font-family="Helvetica, Arial, sans-serif" font-size="22" fill="#6b7684" font-weight="normal" text-anchor="end">0.1</text>
<line x1="1090" y1="616.0" x2="1570" y2="616.0" stroke="#c9ced6" stroke-width="1"/>
<text x="1074" y="622.0" font-family="Helvetica, Arial, sans-serif" font-size="22" fill="#6b7684" font-weight="normal" text-anchor="end">0.2</text>
<line x1="1090" y1="518.0" x2="1570" y2="518.0" stroke="#c9ced6" stroke-width="1"/>
<text x="1074" y="524.0" font-family="Helvetica, Arial, sans-serif" font-size="22" fill="#6b7684" font-weight="normal" text-anchor="end">0.3</text>
<line x1="1090" y1="420.0" x2="1570" y2="420.0" stroke="#c9ced6" stroke-width="1"/>
<text x="1074" y="426.0" font-family="Helvetica, Arial, sans-serif" font-size="22" fill="#6b7684" font-weight="normal" text-anchor="end">0.4</text>
<line x1="1090" y1="322.0" x2="1570" y2="322.0" stroke="#c9ced6" stroke-width="1"/>
<text x="1074" y="328.0" font-family="Helvetica, Arial, sans-serif" font-size="22" fill="#6b7684" font-weight="normal" text-anchor="end">0.5</text>
<line x1="1090.0" y1="812" x2="1090.0" y2="820" stroke="#1a1a1a" stroke-width="2"/>
<text x="1090.0" y="846" font-family="Helvetica, Arial, sans-serif" font-size="22" fill="#6b7684" font-weight="normal" text-anchor="middle">1</text>
<line x1="1158.6" y1="812" x2="1158.6" y2="820" stroke="#1a1a1a" stroke-width="2"/>
<text x="1158.5714285714287" y="846" font-family="Helvetica, Arial, sans-serif" font-size="22" fill="#6b7684" font-weight="normal" text-anchor="middle">2</text>
<line x1="1227.1" y1="812" x2="1227.1" y2="820" stroke="#1a1a1a" stroke-width="2"/>
<text x="1227.142857142857" y="846" font-family="Helvetica, Arial, sans-serif" font-size="22" fill="#6b7684" font-weight="normal" text-anchor="middle">3</text>
<line x1="1295.7" y1="812" x2="1295.7" y2="820" stroke="#1a1a1a" stroke-width="2"/>
<text x="1295.7142857142858" y="846" font-family="Helvetica, Arial, sans-serif" font-size="22" fill="#6b7684" font-weight="normal" text-anchor="middle">4</text>
<line x1="1364.3" y1="812" x2="1364.3" y2="820" stroke="#1a1a1a" stroke-width="2"/>
<text x="1364.2857142857142" y="846" font-family="Helvetica, Arial, sans-serif" font-size="22" fill="#6b7684" font-weight="normal" text-anchor="middle">5</text>
<line x1="1432.9" y1="812" x2="1432.9" y2="820" stroke="#1a1a1a" stroke-width="2"/>
<text x="1432.857142857143" y="846" font-family="Helvetica, Arial, sans-serif" font-size="22" fill="#6b7684" font-weight="normal" text-anchor="middle">6</text>
<line x1="1501.4" y1="812" x2="1501.4" y2="820" stroke="#1a1a1a" stroke-width="2"/>
<text x="1501.4285714285713" y="846" font-family="Helvetica, Arial, sans-serif" font-size="22" fill="#6b7684" font-weight="normal" text-anchor="middle">7</text>
<line x1="1570.0" y1="812" x2="1570.0" y2="820" stroke="#1a1a1a" stroke-width="2"/>
<text x="1570.0" y="846" font-family="Helvetica, Arial, sans-serif" font-size="22" fill="#6b7684" font-weight="normal" text-anchor="middle">8</text>
<text x="1330.0" y="882" font-family="Helvetica, Arial, sans-serif" font-size="22" fill="#1a1a1a" font-weight="normal" text-anchor="middle">rounds ahead of the first measured pool</text>
<polyline points="1090.0,731.2 1158.6,651.6 1227.1,632.1 1295.7,615.2 1364.3,584.9 1432.9,525.9 1501.4,468.0 1570.0,458.4" fill="none" stroke="#6b7684" stroke-width="3.5" stroke-linejoin="round"/>
<circle cx="1090.0" cy="731.2" r="6" fill="white" stroke="#6b7684" stroke-width="3"/>
<circle cx="1158.6" cy="651.6" r="6" fill="white" stroke="#6b7684" stroke-width="3"/>
<circle cx="1227.1" cy="632.1" r="6" fill="white" stroke="#6b7684" stroke-width="3"/>
<circle cx="1295.7" cy="615.2" r="6" fill="white" stroke="#6b7684" stroke-width="3"/>
<circle cx="1364.3" cy="584.9" r="6" fill="white" stroke="#6b7684" stroke-width="3"/>
<circle cx="1432.9" cy="525.9" r="6" fill="white" stroke="#6b7684" stroke-width="3"/>
<circle cx="1501.4" cy="468.0" r="6" fill="white" stroke="#6b7684" stroke-width="3"/>
<circle cx="1570.0" cy="458.4" r="6" fill="white" stroke="#6b7684" stroke-width="3"/>
<polyline points="1090.0,716.0 1158.6,703.8 1227.1,672.4 1295.7,640.7 1364.3,584.8 1432.9,496.7 1501.4,465.1 1570.0,416.2" fill="none" stroke="#2867b5" stroke-width="3.5" stroke-linejoin="round"/>
<circle cx="1090.0" cy="716.0" r="6" fill="white" stroke="#2867b5" stroke-width="3"/>
<circle cx="1158.6" cy="703.8" r="6" fill="white" stroke="#2867b5" stroke-width="3"/>
<circle cx="1227.1" cy="672.4" r="6" fill="white" stroke="#2867b5" stroke-width="3"/>
<circle cx="1295.7" cy="640.7" r="6" fill="white" stroke="#2867b5" stroke-width="3"/>
<circle cx="1364.3" cy="584.8" r="6" fill="white" stroke="#2867b5" stroke-width="3"/>
<circle cx="1432.9" cy="496.7" r="6" fill="white" stroke="#2867b5" stroke-width="3"/>
<circle cx="1501.4" cy="465.1" r="6" fill="white" stroke="#2867b5" stroke-width="3"/>
<circle cx="1570.0" cy="416.2" r="6" fill="white" stroke="#2867b5" stroke-width="3"/>
<polyline points="1090.0,716.0 1158.6,714.0 1227.1,742.7 1295.7,715.9 1364.3,641.5 1432.9,637.2 1501.4,647.9 1570.0,636.2" fill="none" stroke="#c8791d" stroke-width="3.5" stroke-linejoin="round"/>
<circle cx="1090.0" cy="716.0" r="6" fill="white" stroke="#c8791d" stroke-width="3"/>
<circle cx="1158.6" cy="714.0" r="6" fill="white" stroke="#c8791d" stroke-width="3"/>
<circle cx="1227.1" cy="742.7" r="6" fill="white" stroke="#c8791d" stroke-width="3"/>
<circle cx="1295.7" cy="715.9" r="6" fill="white" stroke="#c8791d" stroke-width="3"/>
<circle cx="1364.3" cy="641.5" r="6" fill="white" stroke="#c8791d" stroke-width="3"/>
<circle cx="1432.9" cy="637.2" r="6" fill="white" stroke="#c8791d" stroke-width="3"/>
<circle cx="1501.4" cy="647.9" r="6" fill="white" stroke="#c8791d" stroke-width="3"/>
<circle cx="1570.0" cy="636.2" r="6" fill="white" stroke="#c8791d" stroke-width="3"/>
<polyline points="1090.0,744.0 1158.6,730.4 1227.1,742.1 1295.7,741.4 1364.3,703.1 1432.9,739.4 1501.4,707.6 1570.0,771.7" fill="none" stroke="#3a7d44" stroke-width="3.5" stroke-linejoin="round"/>
<circle cx="1090.0" cy="744.0" r="6" fill="white" stroke="#3a7d44" stroke-width="3"/>
<circle cx="1158.6" cy="730.4" r="6" fill="white" stroke="#3a7d44" stroke-width="3"/>
<circle cx="1227.1" cy="742.1" r="6" fill="white" stroke="#3a7d44" stroke-width="3"/>
<circle cx="1295.7" cy="741.4" r="6" fill="white" stroke="#3a7d44" stroke-width="3"/>
<circle cx="1364.3" cy="703.1" r="6" fill="white" stroke="#3a7d44" stroke-width="3"/>
<circle cx="1432.9" cy="739.4" r="6" fill="white" stroke="#3a7d44" stroke-width="3"/>
<circle cx="1501.4" cy="707.6" r="6" fill="white" stroke="#3a7d44" stroke-width="3"/>
<circle cx="1570.0" cy="771.7" r="6" fill="white" stroke="#3a7d44" stroke-width="3"/>
<text x="1586.0" y="476.416" font-family="Helvetica, Arial, sans-serif" font-size="21" fill="#6b7684" font-weight="bold" text-anchor="start">predict the starting value forever</text>
<text x="1586.0" y="501.416" font-family="Helvetica, Arial, sans-serif" font-size="19" fill="#6b7684" font-weight="normal" text-anchor="start">(no change)</text>
<text x="1586.0" y="404.178" font-family="Helvetica, Arial, sans-serif" font-size="21" fill="#2867b5" font-weight="bold" text-anchor="start">measured once at round 1</text>
<text x="1586.0" y="429.178" font-family="Helvetica, Arial, sans-serif" font-size="19" fill="#2867b5" font-weight="normal" text-anchor="start">(frozen selection model)</text>
<text x="1586.0" y="640.188" font-family="Helvetica, Arial, sans-serif" font-size="21" fill="#c8791d" font-weight="bold" text-anchor="start">one refresh at the judge swap</text>
<text x="1586.0" y="665.188" font-family="Helvetica, Arial, sans-serif" font-size="19" fill="#c8791d" font-weight="normal" text-anchor="start">(re-measure once, then roll)</text>
<text x="1586.0" y="795.722" font-family="Helvetica, Arial, sans-serif" font-size="21" fill="#3a7d44" font-weight="bold" text-anchor="start">re-measured every round</text>
<text x="1586.0" y="820.722" font-family="Helvetica, Arial, sans-serif" font-size="19" fill="#3a7d44" font-weight="normal" text-anchor="start">(mean of the kept answers)</text>
<text x="1090" y="920" font-family="Helvetica, Arial, sans-serif" font-size="20" fill="#1a1a1a" font-weight="normal" text-anchor="start">The judge is swapped somewhere in rounds 2–5 depending</text>
<text x="1090" y="946" font-family="Helvetica, Arial, sans-serif" font-size="20" fill="#1a1a1a" font-weight="normal" text-anchor="start">on the condition; a single re-measurement at the swap</text>
<text x="1090" y="972" font-family="Helvetica, Arial, sans-serif" font-size="20" fill="#1a1a1a" font-weight="normal" text-anchor="start">buys back most of the loss the frozen model takes on</text>
<text x="1090" y="998" font-family="Helvetica, Arial, sans-serif" font-size="20" fill="#1a1a1a" font-weight="normal" text-anchor="start">afterward.</text>
<text x="64" y="900" font-family="Helvetica, Arial, sans-serif" font-size="22" fill="#1a1a1a" font-weight="bold" text-anchor="start">Reading rule:</text>
<text x="64" y="930" font-family="Helvetica, Arial, sans-serif" font-size="20" fill="#6b7684" font-weight="normal" text-anchor="start">the re-measuring models look better only because they are</text>
<text x="64" y="956" font-family="Helvetica, Arial, sans-serif" font-size="20" fill="#6b7684" font-weight="normal" text-anchor="start">handed each round's observed answer pool — the gap over the</text>
<text x="64" y="982" font-family="Helvetica, Arial, sans-serif" font-size="20" fill="#6b7684" font-weight="normal" text-anchor="start">measure-once model is the value of monitoring, not a better</text>
<text x="64" y="1008" font-family="Helvetica, Arial, sans-serif" font-size="20" fill="#6b7684" font-weight="normal" text-anchor="start">model.</text>
</svg>