<svg xmlns="http://www.w3.org/2000/svg" viewBox="0 0 1480 828" font-family="Helvetica, Arial, sans-serif">
<rect width="1480" height="828" fill="white"/>
<text x="740.0" y="50.0" text-anchor="middle" font-family="Helvetica, Arial, sans-serif" font-size="32" font-weight="bold" fill="#1a1a1a">How selection moves a value in a self-training loop</text>
<rect x="48.0" y="92.0" width="316.0" height="286.0" rx="14" fill="#f4f7fb" stroke="#6b7684" stroke-width="2"/>
<rect x="404.0" y="92.0" width="316.0" height="286.0" rx="14" fill="white" stroke="#6b7684" stroke-width="2"/>
<rect x="760.0" y="92.0" width="316.0" height="286.0" rx="14" fill="white" stroke="#6b7684" stroke-width="2"/>
<rect x="1116.0" y="92.0" width="316.0" height="286.0" rx="14" fill="white" stroke="#6b7684" stroke-width="2"/>
<line x1="370.0" y1="235.0" x2="390.0" y2="235.0" stroke="#6b7684" stroke-width="3.4"/><path d="M 387.0 228.0 L 398.0 235.0 L 387.0 242.0 z" fill="#6b7684"/>
<line x1="726.0" y1="235.0" x2="746.0" y2="235.0" stroke="#6b7684" stroke-width="3.4"/><path d="M 743.0 228.0 L 754.0 235.0 L 743.0 242.0 z" fill="#6b7684"/>
<line x1="1082.0" y1="235.0" x2="1102.0" y2="235.0" stroke="#6b7684" stroke-width="3.4"/><path d="M 1099.0 228.0 L 1110.0 235.0 L 1099.0 242.0 z" fill="#6b7684"/>
<text x="206.0" y="126.0" text-anchor="middle" font-family="Helvetica, Arial, sans-serif" font-size="21" font-weight="bold" fill="#1a1a1a">A model writes 6 answers</text>
<rect x="190.6" y="150.0" width="30.8" height="24.2" rx="5.5" fill="white" stroke="#2867b5" stroke-width="3"/>
<circle cx="200.5" cy="161.6" r="2.2" fill="#2867b5"/>
<circle cx="211.5" cy="161.6" r="2.2" fill="#2867b5"/>
<path d="M 199.4 168.2 Q 206.0 172.6 212.6 168.2" stroke="#2867b5" stroke-width="3" fill="none"/>
<line x1="206.0" y1="150.0" x2="206.0" y2="144.5" stroke="#2867b5" stroke-width="3"/>
<circle cx="206.0" cy="142.8" r="2.2" fill="#2867b5"/>
<line x1="82.0" y1="242.0" x2="330.0" y2="242.0" stroke="#6b7684" stroke-width="2.2"/>
<path d="M 321.0 236.0 L 330.0 242.0 L 321.0 248.0" fill="none" stroke="#6b7684" stroke-width="2.2"/>
<path d="M 91.0 236.0 L 82.0 242.0 L 91.0 248.0" fill="none" stroke="#6b7684" stroke-width="2.2"/>
<circle cx="116.7" cy="242.0" r="7.0" fill="#2867b5" stroke="white" stroke-width="1.6"/>
<circle cx="156.4" cy="242.0" r="7.0" fill="#2867b5" stroke="white" stroke-width="1.6"/>
<circle cx="186.2" cy="242.0" r="7.0" fill="#2867b5" stroke="white" stroke-width="1.6"/>
<circle cx="218.4" cy="242.0" r="7.0" fill="#2867b5" stroke="white" stroke-width="1.6"/>
<circle cx="255.6" cy="242.0" r="7.0" fill="#2867b5" stroke="white" stroke-width="1.6"/>
<circle cx="300.2" cy="242.0" r="7.0" fill="#2867b5" stroke="white" stroke-width="1.6"/>
<text x="80.0" y="268.0" text-anchor="start" font-family="Helvetica, Arial, sans-serif" font-size="18" font-weight="normal" fill="#6b7684">lower</text>
<text x="332.0" y="268.0" text-anchor="end" font-family="Helvetica, Arial, sans-serif" font-size="18" font-weight="normal" fill="#6b7684">higher</text>
<text x="206.0" y="268.0" text-anchor="middle" font-family="Helvetica, Arial, sans-serif" font-size="18" font-weight="normal" fill="#6b7684">the value</text>
<rect x="76.0" y="297.0" width="260.0" height="36" rx="10" fill="#fbf4ea" stroke="#c07d18" stroke-width="1.6" stroke-dasharray="5 4"/>
<circle cx="156.4" cy="315.0" r="6.5" fill="#c07d18" stroke="white" stroke-width="1.6"/>
<circle cx="235.8" cy="315.0" r="6.5" fill="#c07d18" stroke="white" stroke-width="1.6"/>
<text x="206.0" y="352.0" text-anchor="middle" font-family="Helvetica, Arial, sans-serif" font-size="18" font-weight="normal" fill="#c07d18">another source can add answers too</text>
<text x="562.0" y="126.0" text-anchor="middle" font-family="Helvetica, Arial, sans-serif" font-size="21" font-weight="bold" fill="#1a1a1a">A judge scores each answer</text>
<rect x="546.6" y="150.0" width="30.8" height="24.2" rx="5.5" fill="white" stroke="#c07d18" stroke-width="3"/>
<circle cx="556.5" cy="161.6" r="2.2" fill="#c07d18"/>
<circle cx="567.5" cy="161.6" r="2.2" fill="#c07d18"/>
<path d="M 555.4 168.2 Q 562.0 172.6 568.6 168.2" stroke="#c07d18" stroke-width="3" fill="none"/>
<line x1="562.0" y1="150.0" x2="562.0" y2="144.5" stroke="#c07d18" stroke-width="3"/>
<circle cx="562.0" cy="142.8" r="2.2" fill="#c07d18"/>
<line x1="438.0" y1="288.0" x2="686.0" y2="288.0" stroke="#6b7684" stroke-width="2.2"/>
<path d="M 677.0 282.0 L 686.0 288.0 L 677.0 294.0" fill="none" stroke="#6b7684" stroke-width="2.2"/>
<line x1="472.7" y1="288.0" x2="472.7" y2="257.2" stroke="#c07d18" stroke-width="7" stroke-linecap="round"/>
<circle cx="472.7" cy="288.0" r="6.0" fill="#2867b5" stroke="white" stroke-width="1.6"/>
<line x1="512.4" y1="288.0" x2="512.4" y2="246.1" stroke="#c07d18" stroke-width="7" stroke-linecap="round"/>
<circle cx="512.4" cy="288.0" r="6.0" fill="#2867b5" stroke="white" stroke-width="1.6"/>
<line x1="542.2" y1="288.0" x2="542.2" y2="237.8" stroke="#c07d18" stroke-width="7" stroke-linecap="round"/>
<circle cx="542.2" cy="288.0" r="6.0" fill="#2867b5" stroke="white" stroke-width="1.6"/>
<line x1="574.4" y1="288.0" x2="574.4" y2="228.9" stroke="#c07d18" stroke-width="7" stroke-linecap="round"/>
<circle cx="574.4" cy="288.0" r="6.0" fill="#2867b5" stroke="white" stroke-width="1.6"/>
<line x1="611.6" y1="288.0" x2="611.6" y2="218.5" stroke="#c07d18" stroke-width="7" stroke-linecap="round"/>
<circle cx="611.6" cy="288.0" r="6.0" fill="#2867b5" stroke="white" stroke-width="1.6"/>
<line x1="656.2" y1="288.0" x2="656.2" y2="206.1" stroke="#c07d18" stroke-width="7" stroke-linecap="round"/>
<circle cx="656.2" cy="288.0" r="6.0" fill="#2867b5" stroke="white" stroke-width="1.6"/>
<text x="436.0" y="312.0" text-anchor="start" font-family="Helvetica, Arial, sans-serif" font-size="18" font-weight="normal" fill="#6b7684">lower</text>
<text x="688.0" y="312.0" text-anchor="end" font-family="Helvetica, Arial, sans-serif" font-size="18" font-weight="normal" fill="#6b7684">higher</text>
<text x="562.0" y="330.0" text-anchor="middle" font-family="Helvetica, Arial, sans-serif" font-size="18" font-weight="normal" fill="#6b7684">its scores rise with the value</text>
<text x="562.0" y="353.4" text-anchor="middle" font-family="Helvetica, Arial, sans-serif" font-size="18" font-weight="normal" fill="#6b7684">— that lineup is the agreement</text>
<text x="918.0" y="126.0" text-anchor="middle" font-family="Helvetica, Arial, sans-serif" font-size="21" font-weight="bold" fill="#1a1a1a">It keeps the 2 it scores highest</text>
<line x1="794.0" y1="212.0" x2="1042.0" y2="212.0" stroke="#6b7684" stroke-width="2.2"/>
<line x1="917.6" y1="192.0" x2="917.6" y2="232.0" stroke="#6b7684" stroke-width="2" stroke-dasharray="4 3"/>
<text x="917.6" y="184.0" text-anchor="middle" font-family="Helvetica, Arial, sans-serif" font-size="18" font-weight="normal" fill="#6b7684">pool average</text>
<circle cx="828.7" cy="212.0" r="7.0" fill="#2867b5" stroke="white" stroke-width="1.6"/>
<circle cx="868.4" cy="212.0" r="7.0" fill="#2867b5" stroke="white" stroke-width="1.6"/>
<circle cx="898.2" cy="212.0" r="7.0" fill="#2867b5" stroke="white" stroke-width="1.6"/>
<circle cx="930.4" cy="212.0" r="7.0" fill="#2867b5" stroke="white" stroke-width="1.6"/>
<circle cx="967.6" cy="212.0" r="12.5" fill="none" stroke="#1a1a1a" stroke-width="3"/><circle cx="967.6" cy="212.0" r="7.0" fill="#2867b5" stroke="white" stroke-width="1.6"/>
<circle cx="1012.2" cy="212.0" r="12.5" fill="none" stroke="#1a1a1a" stroke-width="3"/><circle cx="1012.2" cy="212.0" r="7.0" fill="#2867b5" stroke="white" stroke-width="1.6"/>
<line x1="917.6" y1="268.0" x2="981.9" y2="268.0" stroke="#3a7d44" stroke-width="3.4"/><path d="M 978.9 261.0 L 989.9 268.0 L 978.9 275.0 z" fill="#3a7d44"/>
<text x="953.8" y="294.0" text-anchor="middle" font-family="Helvetica, Arial, sans-serif" font-size="17" font-weight="bold" fill="#3a7d44">selection gap</text>
<text x="918.0" y="320.0" text-anchor="middle" font-family="Helvetica, Arial, sans-serif" font-size="18" font-weight="normal" fill="#6b7684">the kept answers' average minus</text>
<text x="918.0" y="343.4" text-anchor="middle" font-family="Helvetica, Arial, sans-serif" font-size="18" font-weight="normal" fill="#6b7684">the pool average</text>
<text x="1274.0" y="126.0" text-anchor="middle" font-family="Helvetica, Arial, sans-serif" font-size="21" font-weight="bold" fill="#1a1a1a">Train on the kept answers</text>
<line x1="1150.0" y1="222.0" x2="1398.0" y2="222.0" stroke="#6b7684" stroke-width="2.2"/>
<line x1="1273.6" y1="204.0" x2="1273.6" y2="240.0" stroke="#6b7684" stroke-width="2" stroke-dasharray="4 3"/>
<text x="1273.6" y="196.0" text-anchor="middle" font-family="Helvetica, Arial, sans-serif" font-size="18" font-weight="normal" fill="#6b7684">this pool</text>
<circle cx="1224.4" cy="222.0" r="7.0" fill="#2867b5" stroke="white" stroke-width="1.6"/>
<circle cx="1254.2" cy="222.0" r="7.0" fill="#2867b5" stroke="white" stroke-width="1.6"/>
<circle cx="1279.0" cy="222.0" r="7.0" fill="#2867b5" stroke="white" stroke-width="1.6"/>
<circle cx="1306.2" cy="222.0" r="7.0" fill="#2867b5" stroke="white" stroke-width="1.6"/>
<circle cx="1333.5" cy="222.0" r="7.0" fill="#2867b5" stroke="white" stroke-width="1.6"/>
<circle cx="1373.2" cy="222.0" r="7.0" fill="#2867b5" stroke="white" stroke-width="1.6"/>
<line x1="1277.6" y1="266.0" x2="1287.1" y2="266.0" stroke="#3a7d44" stroke-width="3.2"/><path d="M 1284.1 259.0 L 1295.1 266.0 L 1284.1 273.0 z" fill="#3a7d44"/>
<text x="1274.0" y="294.0" text-anchor="middle" font-family="Helvetica, Arial, sans-serif" font-size="18" font-weight="bold" fill="#1a1a1a">the next pool shifts the same</text>
<text x="1274.0" y="317.4" text-anchor="middle" font-family="Helvetica, Arial, sans-serif" font-size="18" font-weight="bold" fill="#1a1a1a">way as the gap</text>
<path d="M 1274.0 378 L 1274.0 404.0 Q 1274.0 412.0 1264.0 412.0 L 216.0 412.0 Q 206.0 412.0 206.0 404.0 L 206.0 381.0" fill="none" stroke="#6b7684" stroke-width="3"/>
<path d="M 199.0 386.0 L 206.0 376.0 L 213.0 386.0 z" fill="#6b7684"/>
<text x="740.0" y="436.0" text-anchor="middle" font-family="Helvetica, Arial, sans-serif" font-size="17" font-weight="normal" fill="#6b7684">repeat — about 4 rounds</text>
<text x="740.0" y="472.0" text-anchor="middle" font-family="Helvetica, Arial, sans-serif" font-size="22" font-weight="bold" fill="#1a1a1a">The size of that gap is set by two dials — and here is how each behaves over a run:</text>
<rect x="48.0" y="498.0" width="316.0" height="300.0" rx="14" fill="white" stroke="#6b7684" stroke-width="2"/>
<text x="206.0" y="528.0" text-anchor="middle" font-family="Helvetica, Arial, sans-serif" font-size="20" font-weight="bold" fill="#1a1a1a">The gap = value spread ×</text>
<text x="206.0" y="554.0" text-anchor="middle" font-family="Helvetica, Arial, sans-serif" font-size="20" font-weight="bold" fill="#1a1a1a">agreement</text>
<text x="206.0" y="606.0" text-anchor="middle" font-family="Helvetica, Arial, sans-serif" font-size="20" font-weight="bold"><tspan fill="#3a7d44">selection gap</tspan></text>
<text x="206.0" y="640.0" text-anchor="middle" font-family="Helvetica, Arial, sans-serif" font-size="20" font-weight="bold"><tspan fill="#6b7684">= </tspan><tspan fill="#2867b5">value spread</tspan><tspan fill="#6b7684"> × </tspan><tspan fill="#c07d18">agreement</tspan></text>
<text x="206.0" y="684.0" text-anchor="middle" font-family="Helvetica, Arial, sans-serif" font-size="18" font-weight="normal" fill="#6b7684">how varied the six answers are,</text>
<text x="206.0" y="707.4" text-anchor="middle" font-family="Helvetica, Arial, sans-serif" font-size="18" font-weight="normal" fill="#6b7684">times how well the judge sorts</text>
<text x="206.0" y="730.8" text-anchor="middle" font-family="Helvetica, Arial, sans-serif" font-size="18" font-weight="normal" fill="#6b7684">them along the value</text>
<text x="206.0" y="764.0" text-anchor="middle" font-family="Helvetica, Arial, sans-serif" font-size="18" font-weight="normal" fill="#1a1a1a">both dials must be non-zero for</text>
<text x="206.0" y="787.4" text-anchor="middle" font-family="Helvetica, Arial, sans-serif" font-size="18" font-weight="normal" fill="#1a1a1a">the gap to move the value</text>
<rect x="404.0" y="498.0" width="316.0" height="300.0" rx="14" fill="white" stroke="#6b7684" stroke-width="2"/>
<text x="562.0" y="528.0" text-anchor="middle" font-family="Helvetica, Arial, sans-serif" font-size="20" font-weight="bold" fill="#2867b5">Spread falls — the gap</text>
<text x="562.0" y="554.0" text-anchor="middle" font-family="Helvetica, Arial, sans-serif" font-size="20" font-weight="bold" fill="#2867b5">shrinks with it</text>
<line x1="444.0" y1="708.0" x2="680.0" y2="708.0" stroke="#d8dde3" stroke-width="2"/>
<path d="M 444.0 599.4 L 522.7 620.7 L 601.3 634.8 L 680.0 644.3" fill="none" stroke="#2867b5" stroke-width="3.4" stroke-linecap="round" stroke-linejoin="round"/>
<circle cx="680.0" cy="644.3" r="5.0" fill="#2867b5" stroke="white" stroke-width="1.6"/>
<path d="M 444.0 616.0 L 522.7 637.2 L 601.3 650.2 L 680.0 658.4" fill="none" stroke="#3a7d44" stroke-width="3.4" stroke-linecap="round" stroke-linejoin="round"/>
<circle cx="680.0" cy="658.4" r="5.0" fill="#3a7d44" stroke="white" stroke-width="1.6"/>
<text x="444.0" y="730.0" text-anchor="start" font-family="Helvetica, Arial, sans-serif" font-size="18" font-weight="normal" fill="#6b7684">round 1</text>
<text x="680.0" y="730.0" text-anchor="end" font-family="Helvetica, Arial, sans-serif" font-size="18" font-weight="normal" fill="#6b7684">4</text>
<line x1="434.0" y1="572.0" x2="456.0" y2="572.0" stroke="#2867b5" stroke-width="3.4" stroke-linecap="round"/>
<text x="462.0" y="577.0" text-anchor="start" font-family="Helvetica, Arial, sans-serif" font-size="18" font-weight="normal" fill="#1a1a1a">spread</text>
<line x1="517.2" y1="572.0" x2="539.2" y2="572.0" stroke="#3a7d44" stroke-width="3.4" stroke-linecap="round"/>
<text x="545.2" y="577.0" text-anchor="start" font-family="Helvetica, Arial, sans-serif" font-size="18" font-weight="normal" fill="#1a1a1a">the gap</text>
<text x="562.0" y="768.0" text-anchor="middle" font-family="Helvetica, Arial, sans-serif" font-size="18" font-weight="normal" fill="#6b7684">same judge, a homogenizing pool</text>
<text x="562.0" y="791.4" text-anchor="middle" font-family="Helvetica, Arial, sans-serif" font-size="18" font-weight="normal" fill="#6b7684">→ a shrinking gap</text>
<rect x="760.0" y="498.0" width="316.0" height="300.0" rx="14" fill="white" stroke="#6b7684" stroke-width="2"/>
<text x="918.0" y="528.0" text-anchor="middle" font-family="Helvetica, Arial, sans-serif" font-size="20" font-weight="bold" fill="#c07d18">Agreement is set mainly by</text>
<text x="918.0" y="554.0" text-anchor="middle" font-family="Helvetica, Arial, sans-serif" font-size="20" font-weight="bold" fill="#c07d18">the judge setup</text>
<line x1="800.0" y1="708.0" x2="1036.0" y2="708.0" stroke="#d8dde3" stroke-width="2"/>
<path d="M 800.0 625.4 L 878.7 623.0 L 957.3 624.2 L 1036.0 628.9" fill="none" stroke="#c07d18" stroke-width="3.4" stroke-linecap="round" stroke-linejoin="round"/>
<circle cx="1036.0" cy="628.9" r="5.0" fill="#c07d18" stroke="white" stroke-width="1.6"/>
<path d="M 800.0 672.6 L 878.7 670.2 L 957.3 673.8 L 1036.0 671.4" fill="none" stroke="#6b7684" stroke-width="3.4" stroke-linecap="round" stroke-linejoin="round"/>
<circle cx="1036.0" cy="671.4" r="5.0" fill="#6b7684" stroke="white" stroke-width="1.6"/>
<text x="800.0" y="730.0" text-anchor="start" font-family="Helvetica, Arial, sans-serif" font-size="18" font-weight="normal" fill="#6b7684">round 1</text>
<text x="1036.0" y="730.0" text-anchor="end" font-family="Helvetica, Arial, sans-serif" font-size="18" font-weight="normal" fill="#6b7684">4</text>
<line x1="790.0" y1="572.0" x2="812.0" y2="572.0" stroke="#c07d18" stroke-width="3.4" stroke-linecap="round"/>
<text x="818.0" y="577.0" text-anchor="start" font-family="Helvetica, Arial, sans-serif" font-size="18" font-weight="normal" fill="#1a1a1a">judge A</text>
<line x1="881.4" y1="572.0" x2="903.4" y2="572.0" stroke="#6b7684" stroke-width="3.4" stroke-linecap="round"/>
<text x="909.4" y="577.0" text-anchor="start" font-family="Helvetica, Arial, sans-serif" font-size="18" font-weight="normal" fill="#1a1a1a">judge B</text>
<text x="918.0" y="768.0" text-anchor="middle" font-family="Helvetica, Arial, sans-serif" font-size="18" font-weight="normal" fill="#6b7684">it shifts mainly with the</text>
<text x="918.0" y="791.4" text-anchor="middle" font-family="Helvetica, Arial, sans-serif" font-size="18" font-weight="normal" fill="#6b7684">judge, format, or pool — its</text>
<text x="918.0" y="814.8" text-anchor="middle" font-family="Helvetica, Arial, sans-serif" font-size="18" font-weight="normal" fill="#6b7684">slow within-run drift is the</text>
<text x="918.0" y="838.2" text-anchor="middle" font-family="Helvetica, Arial, sans-serif" font-size="18" font-weight="normal" fill="#6b7684">residual</text>
<rect x="1116.0" y="498.0" width="316.0" height="300.0" rx="14" fill="white" stroke="#6b7684" stroke-width="2"/>
<text x="1274.0" y="528.0" text-anchor="middle" font-family="Helvetica, Arial, sans-serif" font-size="20" font-weight="bold" fill="#3a7d44">An outside source refills</text>
<text x="1274.0" y="554.0" text-anchor="middle" font-family="Helvetica, Arial, sans-serif" font-size="20" font-weight="bold" fill="#3a7d44">spread — the gap returns</text>
<line x1="1156.0" y1="708.0" x2="1392.0" y2="708.0" stroke="#d8dde3" stroke-width="2"/>
<path d="M 1156.0 601.8 L 1234.7 643.1 L 1313.3 606.5 L 1392.0 613.6" fill="none" stroke="#2867b5" stroke-width="3.4" stroke-linecap="round" stroke-linejoin="round"/>
<circle cx="1392.0" cy="613.6" r="5.0" fill="#2867b5" stroke="white" stroke-width="1.6"/>
<path d="M 1156.0 618.3 L 1234.7 656.1 L 1313.3 623.0 L 1392.0 630.1" fill="none" stroke="#3a7d44" stroke-width="3.4" stroke-linecap="round" stroke-linejoin="round"/>
<circle cx="1392.0" cy="630.1" r="5.0" fill="#3a7d44" stroke="white" stroke-width="1.6"/>
<line x1="1313.3" y1="608.0" x2="1313.3" y2="680.0" stroke="#c07d18" stroke-width="1.6" stroke-dasharray="4 4"/>
<text x="1313.3" y="696.0" text-anchor="middle" font-family="Helvetica, Arial, sans-serif" font-size="18" font-weight="normal" fill="#c07d18">fresh answers added</text>
<text x="1156.0" y="730.0" text-anchor="start" font-family="Helvetica, Arial, sans-serif" font-size="18" font-weight="normal" fill="#6b7684">round 1</text>
<text x="1392.0" y="730.0" text-anchor="end" font-family="Helvetica, Arial, sans-serif" font-size="18" font-weight="normal" fill="#6b7684">4</text>
<line x1="1146.0" y1="572.0" x2="1168.0" y2="572.0" stroke="#2867b5" stroke-width="3.4" stroke-linecap="round"/>
<text x="1174.0" y="577.0" text-anchor="start" font-family="Helvetica, Arial, sans-serif" font-size="18" font-weight="normal" fill="#1a1a1a">spread</text>
<line x1="1229.2" y1="572.0" x2="1251.2" y2="572.0" stroke="#3a7d44" stroke-width="3.4" stroke-linecap="round"/>
<text x="1257.2" y="577.0" text-anchor="start" font-family="Helvetica, Arial, sans-serif" font-size="18" font-weight="normal" fill="#1a1a1a">the gap</text>
<text x="1274.0" y="768.0" text-anchor="middle" font-family="Helvetica, Arial, sans-serif" font-size="18" font-weight="normal" fill="#6b7684">restore the spread and the</text>
<text x="1274.0" y="791.4" text-anchor="middle" font-family="Helvetica, Arial, sans-serif" font-size="18" font-weight="normal" fill="#6b7684">movement comes back</text>
</svg>