<svg xmlns="http://www.w3.org/2000/svg" viewBox="0 0 1660 828" font-family="Helvetica, Arial, sans-serif">
<rect width="1660" height="828" fill="white"/>
<text x="830.0" y="50.0" text-anchor="middle" font-family="Helvetica, Arial, sans-serif" font-size="32" font-weight="bold" fill="#1a1a1a">How selection moves a value in a self-training loop</text>
<rect x="48.0" y="92.0" width="361.0" height="286.0" rx="14" fill="#f4f7fb" stroke="#6b7684" stroke-width="2"/>
<rect x="449.0" y="92.0" width="361.0" height="286.0" rx="14" fill="white" stroke="#6b7684" stroke-width="2"/>
<rect x="850.0" y="92.0" width="361.0" height="286.0" rx="14" fill="white" stroke="#6b7684" stroke-width="2"/>
<rect x="1251.0" y="92.0" width="361.0" height="286.0" rx="14" fill="white" stroke="#6b7684" stroke-width="2"/>
<line x1="415.0" y1="235.0" x2="435.0" y2="235.0" stroke="#6b7684" stroke-width="3.4"/><path d="M 432.0 228.0 L 443.0 235.0 L 432.0 242.0 z" fill="#6b7684"/>
<line x1="816.0" y1="235.0" x2="836.0" y2="235.0" stroke="#6b7684" stroke-width="3.4"/><path d="M 833.0 228.0 L 844.0 235.0 L 833.0 242.0 z" fill="#6b7684"/>
<line x1="1217.0" y1="235.0" x2="1237.0" y2="235.0" stroke="#6b7684" stroke-width="3.4"/><path d="M 1234.0 228.0 L 1245.0 235.0 L 1234.0 242.0 z" fill="#6b7684"/>
<text x="228.5" y="126.0" text-anchor="middle" font-family="Helvetica, Arial, sans-serif" font-size="21" font-weight="bold" fill="#1a1a1a">1   A model writes 6 answers</text>
<rect x="213.1" y="150.0" width="30.8" height="24.2" rx="5.5" fill="white" stroke="#2867b5" stroke-width="3"/>
<circle cx="223.0" cy="161.6" r="2.2" fill="#2867b5"/>
<circle cx="234.0" cy="161.6" r="2.2" fill="#2867b5"/>
<path d="M 221.9 168.2 Q 228.5 172.6 235.1 168.2" stroke="#2867b5" stroke-width="3" fill="none"/>
<line x1="228.5" y1="150.0" x2="228.5" y2="144.5" stroke="#2867b5" stroke-width="3"/>
<circle cx="228.5" cy="142.8" r="2.2" fill="#2867b5"/>
<line x1="82.0" y1="242.0" x2="375.0" y2="242.0" stroke="#6b7684" stroke-width="2.2"/>
<path d="M 366.0 236.0 L 375.0 242.0 L 366.0 248.0" fill="none" stroke="#6b7684" stroke-width="2.2"/>
<path d="M 91.0 236.0 L 82.0 242.0 L 91.0 248.0" fill="none" stroke="#6b7684" stroke-width="2.2"/>
<circle cx="123.0" cy="242.0" r="7.0" fill="#2867b5" stroke="white" stroke-width="1.6"/>
<circle cx="169.9" cy="242.0" r="7.0" fill="#2867b5" stroke="white" stroke-width="1.6"/>
<circle cx="205.1" cy="242.0" r="7.0" fill="#2867b5" stroke="white" stroke-width="1.6"/>
<circle cx="243.2" cy="242.0" r="7.0" fill="#2867b5" stroke="white" stroke-width="1.6"/>
<circle cx="287.1" cy="242.0" r="7.0" fill="#2867b5" stroke="white" stroke-width="1.6"/>
<circle cx="339.8" cy="242.0" r="7.0" fill="#2867b5" stroke="white" stroke-width="1.6"/>
<text x="80.0" y="268.0" text-anchor="start" font-family="Helvetica, Arial, sans-serif" font-size="16" font-weight="normal" fill="#6b7684">lower</text>
<text x="377.0" y="268.0" text-anchor="end" font-family="Helvetica, Arial, sans-serif" font-size="16" font-weight="normal" fill="#6b7684">higher</text>
<text x="228.5" y="268.0" text-anchor="middle" font-family="Helvetica, Arial, sans-serif" font-size="16" font-weight="normal" fill="#6b7684">the value</text>
<rect x="76.0" y="297.0" width="305.0" height="36" rx="10" fill="#fbf4ea" stroke="#c07d18" stroke-width="1.6" stroke-dasharray="5 4"/>
<circle cx="169.9" cy="315.0" r="6.5" fill="#c07d18" stroke="white" stroke-width="1.6"/>
<circle cx="263.7" cy="315.0" r="6.5" fill="#c07d18" stroke="white" stroke-width="1.6"/>
<text x="228.5" y="352.0" text-anchor="middle" font-family="Helvetica, Arial, sans-serif" font-size="16" font-weight="normal" fill="#c07d18">another source can add answers too</text>
<text x="629.5" y="126.0" text-anchor="middle" font-family="Helvetica, Arial, sans-serif" font-size="21" font-weight="bold" fill="#1a1a1a">2   A judge scores each answer</text>
<rect x="614.1" y="150.0" width="30.8" height="24.2" rx="5.5" fill="white" stroke="#c07d18" stroke-width="3"/>
<circle cx="624.0" cy="161.6" r="2.2" fill="#c07d18"/>
<circle cx="635.0" cy="161.6" r="2.2" fill="#c07d18"/>
<path d="M 622.9 168.2 Q 629.5 172.6 636.1 168.2" stroke="#c07d18" stroke-width="3" fill="none"/>
<line x1="629.5" y1="150.0" x2="629.5" y2="144.5" stroke="#c07d18" stroke-width="3"/>
<circle cx="629.5" cy="142.8" r="2.2" fill="#c07d18"/>
<line x1="483.0" y1="288.0" x2="776.0" y2="288.0" stroke="#6b7684" stroke-width="2.2"/>
<path d="M 767.0 282.0 L 776.0 288.0 L 767.0 294.0" fill="none" stroke="#6b7684" stroke-width="2.2"/>
<line x1="524.0" y1="288.0" x2="524.0" y2="257.2" stroke="#c07d18" stroke-width="7" stroke-linecap="round"/>
<circle cx="524.0" cy="288.0" r="6.0" fill="#2867b5" stroke="white" stroke-width="1.6"/>
<line x1="570.9" y1="288.0" x2="570.9" y2="246.1" stroke="#c07d18" stroke-width="7" stroke-linecap="round"/>
<circle cx="570.9" cy="288.0" r="6.0" fill="#2867b5" stroke="white" stroke-width="1.6"/>
<line x1="606.1" y1="288.0" x2="606.1" y2="237.8" stroke="#c07d18" stroke-width="7" stroke-linecap="round"/>
<circle cx="606.1" cy="288.0" r="6.0" fill="#2867b5" stroke="white" stroke-width="1.6"/>
<line x1="644.1" y1="288.0" x2="644.1" y2="228.9" stroke="#c07d18" stroke-width="7" stroke-linecap="round"/>
<circle cx="644.1" cy="288.0" r="6.0" fill="#2867b5" stroke="white" stroke-width="1.6"/>
<line x1="688.1" y1="288.0" x2="688.1" y2="218.5" stroke="#c07d18" stroke-width="7" stroke-linecap="round"/>
<circle cx="688.1" cy="288.0" r="6.0" fill="#2867b5" stroke="white" stroke-width="1.6"/>
<line x1="740.8" y1="288.0" x2="740.8" y2="206.1" stroke="#c07d18" stroke-width="7" stroke-linecap="round"/>
<circle cx="740.8" cy="288.0" r="6.0" fill="#2867b5" stroke="white" stroke-width="1.6"/>
<text x="481.0" y="312.0" text-anchor="start" font-family="Helvetica, Arial, sans-serif" font-size="16" font-weight="normal" fill="#6b7684">lower</text>
<text x="778.0" y="312.0" text-anchor="end" font-family="Helvetica, Arial, sans-serif" font-size="16" font-weight="normal" fill="#6b7684">higher</text>
<text x="629.5" y="336.0" text-anchor="middle" font-family="Helvetica, Arial, sans-serif" font-size="15.5" font-weight="normal" fill="#6b7684">its scores rise with the value —</text>
<text x="629.5" y="356.1" text-anchor="middle" font-family="Helvetica, Arial, sans-serif" font-size="15.5" font-weight="normal" fill="#6b7684">how much they line up is the</text>
<text x="629.5" y="376.3" text-anchor="middle" font-family="Helvetica, Arial, sans-serif" font-size="15.5" font-weight="normal" fill="#6b7684">agreement</text>
<text x="1030.5" y="126.0" text-anchor="middle" font-family="Helvetica, Arial, sans-serif" font-size="21" font-weight="bold" fill="#1a1a1a">3   It keeps the 2 it scores highest</text>
<line x1="884.0" y1="212.0" x2="1177.0" y2="212.0" stroke="#6b7684" stroke-width="2.2"/>
<line x1="1030.0" y1="192.0" x2="1030.0" y2="232.0" stroke="#6b7684" stroke-width="2" stroke-dasharray="4 3"/>
<text x="1030.0" y="184.0" text-anchor="middle" font-family="Helvetica, Arial, sans-serif" font-size="15" font-weight="normal" fill="#6b7684">pool average</text>
<circle cx="925.0" cy="212.0" r="7.0" fill="#2867b5" stroke="white" stroke-width="1.6"/>
<circle cx="971.9" cy="212.0" r="7.0" fill="#2867b5" stroke="white" stroke-width="1.6"/>
<circle cx="1007.1" cy="212.0" r="7.0" fill="#2867b5" stroke="white" stroke-width="1.6"/>
<circle cx="1045.2" cy="212.0" r="7.0" fill="#2867b5" stroke="white" stroke-width="1.6"/>
<circle cx="1089.1" cy="212.0" r="12.5" fill="none" stroke="#1a1a1a" stroke-width="3"/><circle cx="1089.1" cy="212.0" r="7.0" fill="#2867b5" stroke="white" stroke-width="1.6"/>
<circle cx="1141.8" cy="212.0" r="12.5" fill="none" stroke="#1a1a1a" stroke-width="3"/><circle cx="1141.8" cy="212.0" r="7.0" fill="#2867b5" stroke="white" stroke-width="1.6"/>
<line x1="1030.0" y1="268.0" x2="1107.5" y2="268.0" stroke="#3a7d44" stroke-width="3.4"/><path d="M 1104.5 261.0 L 1115.5 268.0 L 1104.5 275.0 z" fill="#3a7d44"/>
<text x="1072.7" y="294.0" text-anchor="middle" font-family="Helvetica, Arial, sans-serif" font-size="17" font-weight="bold" fill="#3a7d44">selection gap</text>
<text x="1030.5" y="320.0" text-anchor="middle" font-family="Helvetica, Arial, sans-serif" font-size="15.5" font-weight="normal" fill="#6b7684">the kept answers' average minus</text>
<text x="1030.5" y="340.1" text-anchor="middle" font-family="Helvetica, Arial, sans-serif" font-size="15.5" font-weight="normal" fill="#6b7684">the pool average</text>
<text x="1431.5" y="126.0" text-anchor="middle" font-family="Helvetica, Arial, sans-serif" font-size="21" font-weight="bold" fill="#1a1a1a">4   Train on the kept answers</text>
<line x1="1285.0" y1="222.0" x2="1578.0" y2="222.0" stroke="#6b7684" stroke-width="2.2"/>
<line x1="1431.0" y1="204.0" x2="1431.0" y2="240.0" stroke="#6b7684" stroke-width="2" stroke-dasharray="4 3"/>
<text x="1431.0" y="196.0" text-anchor="middle" font-family="Helvetica, Arial, sans-serif" font-size="15" font-weight="normal" fill="#6b7684">this pool</text>
<circle cx="1372.9" cy="222.0" r="7.0" fill="#2867b5" stroke="white" stroke-width="1.6"/>
<circle cx="1408.1" cy="222.0" r="7.0" fill="#2867b5" stroke="white" stroke-width="1.6"/>
<circle cx="1437.4" cy="222.0" r="7.0" fill="#2867b5" stroke="white" stroke-width="1.6"/>
<circle cx="1469.6" cy="222.0" r="7.0" fill="#2867b5" stroke="white" stroke-width="1.6"/>
<circle cx="1501.8" cy="222.0" r="7.0" fill="#2867b5" stroke="white" stroke-width="1.6"/>
<circle cx="1548.7" cy="222.0" r="7.0" fill="#2867b5" stroke="white" stroke-width="1.6"/>
<line x1="1435.0" y1="266.0" x2="1448.4" y2="266.0" stroke="#3a7d44" stroke-width="3.2"/><path d="M 1445.4 259.0 L 1456.4 266.0 L 1445.4 273.0 z" fill="#3a7d44"/>
<text x="1431.5" y="294.0" text-anchor="middle" font-family="Helvetica, Arial, sans-serif" font-size="15.5" font-weight="bold" fill="#1a1a1a">the next pool shifts the same</text>
<text x="1431.5" y="314.1" text-anchor="middle" font-family="Helvetica, Arial, sans-serif" font-size="15.5" font-weight="bold" fill="#1a1a1a">way as the gap</text>
<path d="M 1431.5 378 L 1431.5 404.0 Q 1431.5 412.0 1421.5 412.0 L 238.5 412.0 Q 228.5 412.0 228.5 404.0 L 228.5 381.0" fill="none" stroke="#6b7684" stroke-width="3"/>
<path d="M 221.5 386.0 L 228.5 376.0 L 235.5 386.0 z" fill="#6b7684"/>
<text x="830.0" y="436.0" text-anchor="middle" font-family="Helvetica, Arial, sans-serif" font-size="17" font-weight="normal" fill="#6b7684">repeat — about 4 rounds</text>
<text x="830.0" y="472.0" text-anchor="middle" font-family="Helvetica, Arial, sans-serif" font-size="22" font-weight="bold" fill="#1a1a1a">The size of that gap is set by two dials — and here is how each behaves over a run:</text>
<rect x="48.0" y="498.0" width="361.0" height="300.0" rx="14" fill="white" stroke="#6b7684" stroke-width="2"/>
<text x="228.5" y="528.0" text-anchor="middle" font-family="Helvetica, Arial, sans-serif" font-size="18" font-weight="bold" fill="#1a1a1a">The gap = value spread ×</text>
<text x="228.5" y="551.4" text-anchor="middle" font-family="Helvetica, Arial, sans-serif" font-size="18" font-weight="bold" fill="#1a1a1a">agreement</text>
<text x="228.5" y="606.0" text-anchor="middle" font-family="Helvetica, Arial, sans-serif" font-size="20" font-weight="bold"><tspan fill="#3a7d44">selection gap</tspan></text>
<text x="228.5" y="640.0" text-anchor="middle" font-family="Helvetica, Arial, sans-serif" font-size="19" font-weight="bold"><tspan fill="#6b7684">= </tspan><tspan fill="#2867b5">value spread</tspan><tspan fill="#6b7684"> × </tspan><tspan fill="#c07d18">agreement</tspan></text>
<text x="228.5" y="684.0" text-anchor="middle" font-family="Helvetica, Arial, sans-serif" font-size="15.5" font-weight="normal" fill="#6b7684">how varied the six answers are,</text>
<text x="228.5" y="704.1" text-anchor="middle" font-family="Helvetica, Arial, sans-serif" font-size="15.5" font-weight="normal" fill="#6b7684">times how well the judge sorts</text>
<text x="228.5" y="724.3" text-anchor="middle" font-family="Helvetica, Arial, sans-serif" font-size="15.5" font-weight="normal" fill="#6b7684">them along the value</text>
<text x="228.5" y="764.0" text-anchor="middle" font-family="Helvetica, Arial, sans-serif" font-size="15" font-weight="normal" fill="#1a1a1a">both dials must be non-zero for</text>
<text x="228.5" y="783.5" text-anchor="middle" font-family="Helvetica, Arial, sans-serif" font-size="15" font-weight="normal" fill="#1a1a1a">the gap to move the value</text>
<rect x="449.0" y="498.0" width="361.0" height="300.0" rx="14" fill="white" stroke="#6b7684" stroke-width="2"/>
<text x="629.5" y="528.0" text-anchor="middle" font-family="Helvetica, Arial, sans-serif" font-size="18" font-weight="bold" fill="#2867b5">Spread is spent — the gap</text>
<text x="629.5" y="551.4" text-anchor="middle" font-family="Helvetica, Arial, sans-serif" font-size="18" font-weight="bold" fill="#2867b5">shrinks with it</text>
<line x1="489.0" y1="708.0" x2="770.0" y2="708.0" stroke="#d8dde3" stroke-width="2"/>
<path d="M 489.0 599.4 L 582.7 620.7 L 676.3 634.8 L 770.0 644.3" fill="none" stroke="#2867b5" stroke-width="3.4" stroke-linecap="round" stroke-linejoin="round"/>
<circle cx="770.0" cy="644.3" r="5.0" fill="#2867b5" stroke="white" stroke-width="1.6"/>
<path d="M 489.0 616.0 L 582.7 637.2 L 676.3 650.2 L 770.0 658.4" fill="none" stroke="#3a7d44" stroke-width="3.4" stroke-linecap="round" stroke-linejoin="round"/>
<circle cx="770.0" cy="658.4" r="5.0" fill="#3a7d44" stroke="white" stroke-width="1.6"/>
<text x="489.0" y="730.0" text-anchor="start" font-family="Helvetica, Arial, sans-serif" font-size="13.5" font-weight="normal" fill="#6b7684">round 1</text>
<text x="770.0" y="730.0" text-anchor="end" font-family="Helvetica, Arial, sans-serif" font-size="13.5" font-weight="normal" fill="#6b7684">4</text>
<line x1="479.0" y1="572.0" x2="501.0" y2="572.0" stroke="#2867b5" stroke-width="3.4" stroke-linecap="round"/>
<text x="507.0" y="577.0" text-anchor="start" font-family="Helvetica, Arial, sans-serif" font-size="14" font-weight="normal" fill="#1a1a1a">spread</text>
<line x1="562.2" y1="572.0" x2="584.2" y2="572.0" stroke="#3a7d44" stroke-width="3.4" stroke-linecap="round"/>
<text x="590.2" y="577.0" text-anchor="start" font-family="Helvetica, Arial, sans-serif" font-size="14" font-weight="normal" fill="#1a1a1a">the gap</text>
<text x="629.5" y="768.0" text-anchor="middle" font-family="Helvetica, Arial, sans-serif" font-size="15" font-weight="normal" fill="#6b7684">same judge, a shrinking pool → a</text>
<text x="629.5" y="787.5" text-anchor="middle" font-family="Helvetica, Arial, sans-serif" font-size="15" font-weight="normal" fill="#6b7684">shrinking gap</text>
<rect x="850.0" y="498.0" width="361.0" height="300.0" rx="14" fill="white" stroke="#6b7684" stroke-width="2"/>
<text x="1030.5" y="528.0" text-anchor="middle" font-family="Helvetica, Arial, sans-serif" font-size="18" font-weight="bold" fill="#c07d18">Agreement barely moves — a</text>
<text x="1030.5" y="551.4" text-anchor="middle" font-family="Helvetica, Arial, sans-serif" font-size="18" font-weight="bold" fill="#c07d18">property of the judge</text>
<line x1="890.0" y1="708.0" x2="1171.0" y2="708.0" stroke="#d8dde3" stroke-width="2"/>
<path d="M 890.0 623.0 L 983.7 623.0 L 1077.3 624.2 L 1171.0 623.0" fill="none" stroke="#c07d18" stroke-width="3.4" stroke-linecap="round" stroke-linejoin="round"/>
<circle cx="1171.0" cy="623.0" r="5.0" fill="#c07d18" stroke="white" stroke-width="1.6"/>
<path d="M 890.0 672.6 L 983.7 671.4 L 1077.3 672.6 L 1171.0 672.6" fill="none" stroke="#6b7684" stroke-width="3.4" stroke-linecap="round" stroke-linejoin="round"/>
<circle cx="1171.0" cy="672.6" r="5.0" fill="#6b7684" stroke="white" stroke-width="1.6"/>
<text x="890.0" y="730.0" text-anchor="start" font-family="Helvetica, Arial, sans-serif" font-size="13.5" font-weight="normal" fill="#6b7684">round 1</text>
<text x="1171.0" y="730.0" text-anchor="end" font-family="Helvetica, Arial, sans-serif" font-size="13.5" font-weight="normal" fill="#6b7684">4</text>
<line x1="880.0" y1="572.0" x2="902.0" y2="572.0" stroke="#c07d18" stroke-width="3.4" stroke-linecap="round"/>
<text x="908.0" y="577.0" text-anchor="start" font-family="Helvetica, Arial, sans-serif" font-size="14" font-weight="normal" fill="#1a1a1a">judge A</text>
<line x1="971.4" y1="572.0" x2="993.4" y2="572.0" stroke="#6b7684" stroke-width="3.4" stroke-linecap="round"/>
<text x="999.4" y="577.0" text-anchor="start" font-family="Helvetica, Arial, sans-serif" font-size="14" font-weight="normal" fill="#1a1a1a">judge B</text>
<text x="1030.5" y="768.0" text-anchor="middle" font-family="Helvetica, Arial, sans-serif" font-size="15" font-weight="normal" fill="#6b7684">it changes only if you change the</text>
<text x="1030.5" y="787.5" text-anchor="middle" font-family="Helvetica, Arial, sans-serif" font-size="15" font-weight="normal" fill="#6b7684">judge, format, or pool</text>
<rect x="1251.0" y="498.0" width="361.0" height="300.0" rx="14" fill="white" stroke="#6b7684" stroke-width="2"/>
<text x="1431.5" y="528.0" text-anchor="middle" font-family="Helvetica, Arial, sans-serif" font-size="18" font-weight="bold" fill="#3a7d44">An outside source refills</text>
<text x="1431.5" y="551.4" text-anchor="middle" font-family="Helvetica, Arial, sans-serif" font-size="18" font-weight="bold" fill="#3a7d44">spread — the gap returns</text>
<line x1="1291.0" y1="708.0" x2="1572.0" y2="708.0" stroke="#d8dde3" stroke-width="2"/>
<path d="M 1291.0 601.8 L 1384.7 643.1 L 1478.3 606.5 L 1572.0 613.6" fill="none" stroke="#2867b5" stroke-width="3.4" stroke-linecap="round" stroke-linejoin="round"/>
<circle cx="1572.0" cy="613.6" r="5.0" fill="#2867b5" stroke="white" stroke-width="1.6"/>
<path d="M 1291.0 618.3 L 1384.7 656.1 L 1478.3 623.0 L 1572.0 630.1" fill="none" stroke="#3a7d44" stroke-width="3.4" stroke-linecap="round" stroke-linejoin="round"/>
<circle cx="1572.0" cy="630.1" r="5.0" fill="#3a7d44" stroke="white" stroke-width="1.6"/>
<line x1="1478.3" y1="608.0" x2="1478.3" y2="680.0" stroke="#c07d18" stroke-width="1.6" stroke-dasharray="4 4"/>
<text x="1478.3" y="696.0" text-anchor="middle" font-family="Helvetica, Arial, sans-serif" font-size="13.5" font-weight="normal" fill="#c07d18">fresh answers added</text>
<text x="1291.0" y="730.0" text-anchor="start" font-family="Helvetica, Arial, sans-serif" font-size="13.5" font-weight="normal" fill="#6b7684">round 1</text>
<text x="1572.0" y="730.0" text-anchor="end" font-family="Helvetica, Arial, sans-serif" font-size="13.5" font-weight="normal" fill="#6b7684">4</text>
<line x1="1281.0" y1="572.0" x2="1303.0" y2="572.0" stroke="#2867b5" stroke-width="3.4" stroke-linecap="round"/>
<text x="1309.0" y="577.0" text-anchor="start" font-family="Helvetica, Arial, sans-serif" font-size="14" font-weight="normal" fill="#1a1a1a">spread</text>
<line x1="1364.2" y1="572.0" x2="1386.2" y2="572.0" stroke="#3a7d44" stroke-width="3.4" stroke-linecap="round"/>
<text x="1392.2" y="577.0" text-anchor="start" font-family="Helvetica, Arial, sans-serif" font-size="14" font-weight="normal" fill="#1a1a1a">the gap</text>
<text x="1431.5" y="768.0" text-anchor="middle" font-family="Helvetica, Arial, sans-serif" font-size="15" font-weight="normal" fill="#6b7684">restore the spread and the</text>
<text x="1431.5" y="787.5" text-anchor="middle" font-family="Helvetica, Arial, sans-serif" font-size="15" font-weight="normal" fill="#6b7684">movement comes back</text>
</svg>