<svg xmlns="http://www.w3.org/2000/svg" viewBox="0 0 1480 970" font-family="Helvetica, Arial, sans-serif">
<rect width="1480" height="970" fill="white"/>
<text x="740.0" y="50.0" text-anchor="middle" font-family="Helvetica, Arial, sans-serif" font-size="32" font-weight="bold" fill="#1a1a1a">How selection moves a value in a self-training loop</text>
<rect x="48.0" y="92.0" width="316.0" height="318.0" rx="14" fill="#f4f7fb" stroke="#6b7684" stroke-width="2"/>
<rect x="404.0" y="92.0" width="316.0" height="318.0" rx="14" fill="white" stroke="#6b7684" stroke-width="2"/>
<rect x="760.0" y="92.0" width="316.0" height="318.0" rx="14" fill="white" stroke="#6b7684" stroke-width="2"/>
<rect x="1116.0" y="92.0" width="316.0" height="318.0" rx="14" fill="white" stroke="#6b7684" stroke-width="2"/>
<line x1="370.0" y1="251.0" x2="390.0" y2="251.0" stroke="#6b7684" stroke-width="3.4"/><path d="M 387.0 244.0 L 398.0 251.0 L 387.0 258.0 z" fill="#6b7684"/>
<line x1="726.0" y1="251.0" x2="746.0" y2="251.0" stroke="#6b7684" stroke-width="3.4"/><path d="M 743.0 244.0 L 754.0 251.0 L 743.0 258.0 z" fill="#6b7684"/>
<line x1="1082.0" y1="251.0" x2="1102.0" y2="251.0" stroke="#6b7684" stroke-width="3.4"/><path d="M 1099.0 244.0 L 1110.0 251.0 L 1099.0 258.0 z" fill="#6b7684"/>
<text x="206.0" y="126.0" text-anchor="middle" font-family="Helvetica, Arial, sans-serif" font-size="21" font-weight="bold" fill="#1a1a1a">A model writes several answers</text>
<rect x="190.6" y="150.0" width="30.8" height="24.2" rx="5.5" fill="white" stroke="#2867b5" stroke-width="3"/>
<circle cx="200.5" cy="161.6" r="2.2" fill="#2867b5"/>
<circle cx="211.5" cy="161.6" r="2.2" fill="#2867b5"/>
<path d="M 199.4 168.2 Q 206.0 172.6 212.6 168.2" stroke="#2867b5" stroke-width="3" fill="none"/>
<line x1="206.0" y1="150.0" x2="206.0" y2="144.5" stroke="#2867b5" stroke-width="3"/>
<circle cx="206.0" cy="142.8" r="2.2" fill="#2867b5"/>
<line x1="82.0" y1="242.0" x2="330.0" y2="242.0" stroke="#6b7684" stroke-width="2.2"/>
<path d="M 321.0 236.0 L 330.0 242.0 L 321.0 248.0" fill="none" stroke="#6b7684" stroke-width="2.2"/>
<path d="M 91.0 236.0 L 82.0 242.0 L 91.0 248.0" fill="none" stroke="#6b7684" stroke-width="2.2"/>
<circle cx="116.7" cy="242.0" r="7.0" fill="#2867b5" stroke="white" stroke-width="1.6"/>
<circle cx="156.4" cy="242.0" r="7.0" fill="#2867b5" stroke="white" stroke-width="1.6"/>
<circle cx="186.2" cy="242.0" r="7.0" fill="#2867b5" stroke="white" stroke-width="1.6"/>
<circle cx="218.4" cy="242.0" r="7.0" fill="#2867b5" stroke="white" stroke-width="1.6"/>
<circle cx="255.6" cy="242.0" r="7.0" fill="#2867b5" stroke="white" stroke-width="1.6"/>
<circle cx="300.2" cy="242.0" r="7.0" fill="#2867b5" stroke="white" stroke-width="1.6"/>
<text x="80.0" y="268.0" text-anchor="start" font-family="Helvetica, Arial, sans-serif" font-size="18" font-weight="normal" fill="#6b7684">lower</text>
<text x="332.0" y="268.0" text-anchor="end" font-family="Helvetica, Arial, sans-serif" font-size="18" font-weight="normal" fill="#6b7684">higher</text>
<text x="206.0" y="268.0" text-anchor="middle" font-family="Helvetica, Arial, sans-serif" font-size="18" font-weight="normal" fill="#6b7684">the value</text>
<rect x="76.0" y="297.0" width="260.0" height="36" rx="10" fill="#fbf4ea" stroke="#9a6b15" stroke-width="1.6" stroke-dasharray="5 4"/>
<circle cx="156.4" cy="315.0" r="6.5" fill="#9a6b15" stroke="white" stroke-width="1.6"/>
<circle cx="235.8" cy="315.0" r="6.5" fill="#9a6b15" stroke="white" stroke-width="1.6"/>
<text x="206.0" y="352.0" text-anchor="middle" font-family="Helvetica, Arial, sans-serif" font-size="18" font-weight="normal" fill="#9a6b15">an outside supplier can add</text>
<text x="206.0" y="375.4" text-anchor="middle" font-family="Helvetica, Arial, sans-serif" font-size="18" font-weight="normal" fill="#9a6b15">answers too (a mixed pool)</text>
<text x="562.0" y="126.0" text-anchor="middle" font-family="Helvetica, Arial, sans-serif" font-size="21" font-weight="bold" fill="#1a1a1a">A judge scores each answer</text>
<rect x="546.6" y="150.0" width="30.8" height="24.2" rx="5.5" fill="white" stroke="#9a6b15" stroke-width="3"/>
<circle cx="556.5" cy="161.6" r="2.2" fill="#9a6b15"/>
<circle cx="567.5" cy="161.6" r="2.2" fill="#9a6b15"/>
<path d="M 555.4 168.2 Q 562.0 172.6 568.6 168.2" stroke="#9a6b15" stroke-width="3" fill="none"/>
<line x1="562.0" y1="150.0" x2="562.0" y2="144.5" stroke="#9a6b15" stroke-width="3"/>
<circle cx="562.0" cy="142.8" r="2.2" fill="#9a6b15"/>
<line x1="438.0" y1="288.0" x2="686.0" y2="288.0" stroke="#6b7684" stroke-width="2.2"/>
<path d="M 677.0 282.0 L 686.0 288.0 L 677.0 294.0" fill="none" stroke="#6b7684" stroke-width="2.2"/>
<line x1="472.7" y1="288.0" x2="472.7" y2="257.2" stroke="#9a6b15" stroke-width="7" stroke-linecap="round"/>
<circle cx="472.7" cy="288.0" r="6.0" fill="#2867b5" stroke="white" stroke-width="1.6"/>
<line x1="512.4" y1="288.0" x2="512.4" y2="246.1" stroke="#9a6b15" stroke-width="7" stroke-linecap="round"/>
<circle cx="512.4" cy="288.0" r="6.0" fill="#2867b5" stroke="white" stroke-width="1.6"/>
<line x1="542.2" y1="288.0" x2="542.2" y2="237.8" stroke="#9a6b15" stroke-width="7" stroke-linecap="round"/>
<circle cx="542.2" cy="288.0" r="6.0" fill="#2867b5" stroke="white" stroke-width="1.6"/>
<line x1="574.4" y1="288.0" x2="574.4" y2="228.9" stroke="#9a6b15" stroke-width="7" stroke-linecap="round"/>
<circle cx="574.4" cy="288.0" r="6.0" fill="#2867b5" stroke="white" stroke-width="1.6"/>
<line x1="611.6" y1="288.0" x2="611.6" y2="218.5" stroke="#9a6b15" stroke-width="7" stroke-linecap="round"/>
<circle cx="611.6" cy="288.0" r="6.0" fill="#2867b5" stroke="white" stroke-width="1.6"/>
<line x1="656.2" y1="288.0" x2="656.2" y2="206.1" stroke="#9a6b15" stroke-width="7" stroke-linecap="round"/>
<circle cx="656.2" cy="288.0" r="6.0" fill="#2867b5" stroke="white" stroke-width="1.6"/>
<text x="436.0" y="312.0" text-anchor="start" font-family="Helvetica, Arial, sans-serif" font-size="18" font-weight="normal" fill="#6b7684">lower</text>
<text x="688.0" y="312.0" text-anchor="end" font-family="Helvetica, Arial, sans-serif" font-size="18" font-weight="normal" fill="#6b7684">higher</text>
<text x="562.0" y="330.0" text-anchor="middle" font-family="Helvetica, Arial, sans-serif" font-size="18" font-weight="normal" fill="#6b7684">its scores rise with the value</text>
<text x="562.0" y="353.4" text-anchor="middle" font-family="Helvetica, Arial, sans-serif" font-size="18" font-weight="normal" fill="#6b7684">— that lineup is the agreement</text>
<text x="918.0" y="126.0" text-anchor="middle" font-family="Helvetica, Arial, sans-serif" font-size="21" font-weight="bold" fill="#1a1a1a">It keeps the ones it scores highest</text>
<line x1="794.0" y1="212.0" x2="1042.0" y2="212.0" stroke="#6b7684" stroke-width="2.2"/>
<line x1="917.6" y1="192.0" x2="917.6" y2="232.0" stroke="#6b7684" stroke-width="2" stroke-dasharray="4 3"/>
<text x="917.6" y="184.0" text-anchor="middle" font-family="Helvetica, Arial, sans-serif" font-size="18" font-weight="normal" fill="#6b7684">whole offered pool mean</text>
<circle cx="828.7" cy="212.0" r="7.0" fill="#2867b5" stroke="white" stroke-width="1.6"/>
<circle cx="868.4" cy="212.0" r="7.0" fill="#2867b5" stroke="white" stroke-width="1.6"/>
<circle cx="898.2" cy="212.0" r="7.0" fill="#2867b5" stroke="white" stroke-width="1.6"/>
<circle cx="930.4" cy="212.0" r="7.0" fill="#2867b5" stroke="white" stroke-width="1.6"/>
<circle cx="967.6" cy="212.0" r="12.5" fill="none" stroke="#1a1a1a" stroke-width="3"/><circle cx="967.6" cy="212.0" r="7.0" fill="#2867b5" stroke="white" stroke-width="1.6"/>
<circle cx="1012.2" cy="212.0" r="12.5" fill="none" stroke="#1a1a1a" stroke-width="3"/><circle cx="1012.2" cy="212.0" r="7.0" fill="#2867b5" stroke="white" stroke-width="1.6"/>
<line x1="917.6" y1="268.0" x2="981.9" y2="268.0" stroke="#3a7d44" stroke-width="3.4"/><path d="M 978.9 261.0 L 989.9 268.0 L 978.9 275.0 z" fill="#3a7d44"/>
<text x="953.8" y="294.0" text-anchor="middle" font-family="Helvetica, Arial, sans-serif" font-size="18" font-weight="bold" fill="#3a7d44">selector gap</text>
<text x="918.0" y="320.0" text-anchor="middle" font-family="Helvetica, Arial, sans-serif" font-size="18" font-weight="normal" fill="#6b7684">the kept answers' mean minus the</text>
<text x="918.0" y="343.4" text-anchor="middle" font-family="Helvetica, Arial, sans-serif" font-size="18" font-weight="normal" fill="#6b7684">whole offered pool mean</text>
<text x="1274.0" y="126.0" text-anchor="middle" font-family="Helvetica, Arial, sans-serif" font-size="21" font-weight="bold" fill="#1a1a1a">Train toward the kept answers</text>
<line x1="1150.0" y1="220.0" x2="1398.0" y2="220.0" stroke="#6b7684" stroke-width="2.2"/>
<path d="M 1389.0 214.0 L 1398.0 220.0 L 1389.0 226.0" fill="none" stroke="#6b7684" stroke-width="2.2"/>
<path d="M 1159.0 214.0 L 1150.0 220.0 L 1159.0 226.0" fill="none" stroke="#6b7684" stroke-width="2.2"/>
<circle cx="1224.4" cy="220.0" r="7.0" fill="#2867b5" stroke="white" stroke-width="1.6"/>
<circle cx="1261.6" cy="220.0" r="7.0" fill="#6b7684" stroke="white" stroke-width="1.6"/>
<circle cx="1328.6" cy="220.0" r="7.0" fill="#3a7d44" stroke="white" stroke-width="1.6"/>
<line x1="1224.4" y1="212.0" x2="1224.4" y2="200.0" stroke="#d8dde3" stroke-width="1.6"/>
<text x="1224.4" y="192.0" text-anchor="middle" font-family="Helvetica, Arial, sans-serif" font-size="18" font-weight="bold" fill="#2867b5">own mean</text>
<line x1="1261.6" y1="212.0" x2="1261.6" y2="178.0" stroke="#d8dde3" stroke-width="1.6"/>
<text x="1261.6" y="170.0" text-anchor="middle" font-family="Helvetica, Arial, sans-serif" font-size="18" font-weight="bold" fill="#6b7684">whole pool</text>
<line x1="1328.6" y1="212.0" x2="1328.6" y2="200.0" stroke="#d8dde3" stroke-width="1.6"/>
<text x="1328.6" y="192.0" text-anchor="middle" font-family="Helvetica, Arial, sans-serif" font-size="18" font-weight="bold" fill="#3a7d44">kept mean</text>
<line x1="1224.4" y1="228.0" x2="1224.4" y2="306.0" stroke="#d8dde3" stroke-width="1.4" stroke-dasharray="3 4"/>
<line x1="1261.6" y1="228.0" x2="1261.6" y2="306.0" stroke="#d8dde3" stroke-width="1.4" stroke-dasharray="3 4"/>
<line x1="1328.6" y1="228.0" x2="1328.6" y2="306.0" stroke="#d8dde3" stroke-width="1.4" stroke-dasharray="3 4"/>
<line x1="1224.4" y1="250.0" x2="1253.6" y2="250.0" stroke="#9a6b15" stroke-width="3.2"/><path d="M 1250.6 243.0 L 1261.6 250.0 L 1250.6 257.0 z" fill="#9a6b15"/>
<text x="1273.6" y="255.0" text-anchor="start" font-family="Helvetica, Arial, sans-serif" font-size="18" font-weight="bold" fill="#9a6b15">pool-supply shift</text>
<line x1="1261.6" y1="278.0" x2="1320.6" y2="278.0" stroke="#3a7d44" stroke-width="3.2"/><path d="M 1317.6 271.0 L 1328.6 278.0 L 1317.6 285.0 z" fill="#3a7d44"/>
<text x="1295.1" y="299.0" text-anchor="middle" font-family="Helvetica, Arial, sans-serif" font-size="18" font-weight="bold" fill="#3a7d44">selector gap</text>
<line x1="1224.4" y1="306.0" x2="1320.6" y2="306.0" stroke="#1a1a1a" stroke-width="3.8"/><path d="M 1317.6 299.0 L 1328.6 306.0 L 1317.6 313.0 z" fill="#1a1a1a"/>
<text x="1276.5" y="329.0" text-anchor="middle" font-family="Helvetica, Arial, sans-serif" font-size="19" font-weight="bold" fill="#1a1a1a">training displacement</text>
<text x="1274.0" y="353.0" text-anchor="middle" font-family="Helvetica, Arial, sans-serif" font-size="18" font-weight="normal" fill="#6b7684">kept mean minus the model's</text>
<text x="1274.0" y="376.4" text-anchor="middle" font-family="Helvetica, Arial, sans-serif" font-size="18" font-weight="normal" fill="#6b7684">own generated-pool mean</text>
<path d="M 1274.0 410 L 1274.0 436.0 Q 1274.0 444.0 1264.0 444.0 L 216.0 444.0 Q 206.0 444.0 206.0 436.0 L 206.0 413.0" fill="none" stroke="#6b7684" stroke-width="3"/>
<path d="M 199.0 418.0 L 206.0 408.0 L 213.0 418.0 z" fill="#6b7684"/>
<text x="740.0" y="468.0" text-anchor="middle" font-family="Helvetica, Arial, sans-serif" font-size="18" font-weight="normal" fill="#6b7684">self-only pool: own mean = whole pool mean, so training displacement = selector gap  ·  repeat about 4 rounds</text>
<text x="740.0" y="504.0" text-anchor="middle" font-family="Helvetica, Arial, sans-serif" font-size="22" font-weight="bold" fill="#1a1a1a">The size of that selector gap is set by two dials — and here is how each behaves over a run:</text>
<rect x="48.0" y="530.0" width="316.0" height="322.0" rx="14" fill="white" stroke="#6b7684" stroke-width="2"/>
<text x="206.0" y="560.0" text-anchor="middle" font-family="Helvetica, Arial, sans-serif" font-size="20" font-weight="bold" fill="#1a1a1a">selector gap = value spread ×</text>
<text x="206.0" y="586.0" text-anchor="middle" font-family="Helvetica, Arial, sans-serif" font-size="20" font-weight="bold" fill="#1a1a1a">agreement</text>
<text x="206.0" y="638.0" text-anchor="middle" font-family="Helvetica, Arial, sans-serif" font-size="20" font-weight="bold"><tspan fill="#3a7d44">selector gap</tspan></text>
<text x="206.0" y="672.0" text-anchor="middle" font-family="Helvetica, Arial, sans-serif" font-size="20" font-weight="bold"><tspan fill="#6b7684">= </tspan><tspan fill="#2867b5">value spread</tspan><tspan fill="#6b7684"> × </tspan><tspan fill="#9a6b15">agreement</tspan></text>
<text x="206.0" y="710.0" text-anchor="middle" font-family="Helvetica, Arial, sans-serif" font-size="18" font-weight="normal" fill="#6b7684">how varied the answers are,</text>
<text x="206.0" y="733.4" text-anchor="middle" font-family="Helvetica, Arial, sans-serif" font-size="18" font-weight="normal" fill="#6b7684">times how well the judge sorts</text>
<text x="206.0" y="756.8" text-anchor="middle" font-family="Helvetica, Arial, sans-serif" font-size="18" font-weight="normal" fill="#6b7684">them along the value</text>
<text x="206.0" y="786.0" text-anchor="middle" font-family="Helvetica, Arial, sans-serif" font-size="18" font-weight="bold" fill="#1a1a1a">simple forecast: selector gap</text>
<text x="206.0" y="809.4" text-anchor="middle" font-family="Helvetica, Arial, sans-serif" font-size="18" font-weight="bold" fill="#1a1a1a">≈ agreement × spread, no</text>
<text x="206.0" y="832.8" text-anchor="middle" font-family="Helvetica, Arial, sans-serif" font-size="18" font-weight="bold" fill="#1a1a1a">fitted coefficient</text>
<rect x="404.0" y="530.0" width="316.0" height="322.0" rx="14" fill="white" stroke="#6b7684" stroke-width="2"/>
<text x="562.0" y="560.0" text-anchor="middle" font-family="Helvetica, Arial, sans-serif" font-size="20" font-weight="bold" fill="#2867b5">Spread falls — the selector</text>
<text x="562.0" y="586.0" text-anchor="middle" font-family="Helvetica, Arial, sans-serif" font-size="20" font-weight="bold" fill="#2867b5">gap shrinks</text>
<line x1="444.0" y1="744.0" x2="680.0" y2="744.0" stroke="#d8dde3" stroke-width="2"/>
<path d="M 444.0 635.4 L 522.7 656.7 L 601.3 670.8 L 680.0 680.3" fill="none" stroke="#2867b5" stroke-width="3.4" stroke-linecap="round" stroke-linejoin="round"/>
<circle cx="680.0" cy="680.3" r="5.0" fill="#2867b5" stroke="white" stroke-width="1.6"/>
<path d="M 444.0 652.0 L 522.7 673.2 L 601.3 686.2 L 680.0 694.4" fill="none" stroke="#3a7d44" stroke-width="3.4" stroke-linecap="round" stroke-linejoin="round"/>
<circle cx="680.0" cy="694.4" r="5.0" fill="#3a7d44" stroke="white" stroke-width="1.6"/>
<text x="444.0" y="766.0" text-anchor="start" font-family="Helvetica, Arial, sans-serif" font-size="18" font-weight="normal" fill="#6b7684">round 1</text>
<text x="680.0" y="766.0" text-anchor="end" font-family="Helvetica, Arial, sans-serif" font-size="18" font-weight="normal" fill="#6b7684">4</text>
<line x1="432.0" y1="608.0" x2="454.0" y2="608.0" stroke="#2867b5" stroke-width="3.4" stroke-linecap="round"/>
<text x="460.0" y="613.0" text-anchor="start" font-family="Helvetica, Arial, sans-serif" font-size="18" font-weight="normal" fill="#1a1a1a">spread</text>
<line x1="531.6" y1="608.0" x2="553.6" y2="608.0" stroke="#3a7d44" stroke-width="3.4" stroke-linecap="round"/>
<text x="559.6" y="613.0" text-anchor="start" font-family="Helvetica, Arial, sans-serif" font-size="18" font-weight="normal" fill="#1a1a1a">selector gap</text>
<text x="562.0" y="800.0" text-anchor="middle" font-family="Helvetica, Arial, sans-serif" font-size="18" font-weight="normal" fill="#6b7684">same judge, a homogenizing pool</text>
<text x="562.0" y="823.4" text-anchor="middle" font-family="Helvetica, Arial, sans-serif" font-size="18" font-weight="normal" fill="#6b7684">→ a shrinking selector gap</text>
<rect x="760.0" y="530.0" width="316.0" height="322.0" rx="14" fill="white" stroke="#6b7684" stroke-width="2"/>
<text x="918.0" y="560.0" text-anchor="middle" font-family="Helvetica, Arial, sans-serif" font-size="20" font-weight="bold" fill="#9a6b15">Agreement is set mainly by the</text>
<text x="918.0" y="586.0" text-anchor="middle" font-family="Helvetica, Arial, sans-serif" font-size="20" font-weight="bold" fill="#9a6b15">judge setup</text>
<line x1="800.0" y1="744.0" x2="1036.0" y2="744.0" stroke="#d8dde3" stroke-width="2"/>
<path d="M 800.0 661.4 L 878.7 659.0 L 957.3 660.2 L 1036.0 664.9" fill="none" stroke="#9a6b15" stroke-width="3.4" stroke-linecap="round" stroke-linejoin="round"/>
<circle cx="1036.0" cy="664.9" r="5.0" fill="#9a6b15" stroke="white" stroke-width="1.6"/>
<path d="M 800.0 708.6 L 878.7 706.2 L 957.3 709.8 L 1036.0 707.4" fill="none" stroke="#6b7684" stroke-width="3.4" stroke-linecap="round" stroke-linejoin="round"/>
<circle cx="1036.0" cy="707.4" r="5.0" fill="#6b7684" stroke="white" stroke-width="1.6"/>
<text x="800.0" y="766.0" text-anchor="start" font-family="Helvetica, Arial, sans-serif" font-size="18" font-weight="normal" fill="#6b7684">round 1</text>
<text x="1036.0" y="766.0" text-anchor="end" font-family="Helvetica, Arial, sans-serif" font-size="18" font-weight="normal" fill="#6b7684">4</text>
<line x1="788.0" y1="608.0" x2="810.0" y2="608.0" stroke="#9a6b15" stroke-width="3.4" stroke-linecap="round"/>
<text x="816.0" y="613.0" text-anchor="start" font-family="Helvetica, Arial, sans-serif" font-size="18" font-weight="normal" fill="#1a1a1a">judge A</text>
<line x1="897.2" y1="608.0" x2="919.2" y2="608.0" stroke="#6b7684" stroke-width="3.4" stroke-linecap="round"/>
<text x="925.2" y="613.0" text-anchor="start" font-family="Helvetica, Arial, sans-serif" font-size="18" font-weight="normal" fill="#1a1a1a">judge B</text>
<text x="918.0" y="800.0" text-anchor="middle" font-family="Helvetica, Arial, sans-serif" font-size="18" font-weight="normal" fill="#6b7684">set by the judge, format, and</text>
<text x="918.0" y="823.4" text-anchor="middle" font-family="Helvetica, Arial, sans-serif" font-size="18" font-weight="normal" fill="#6b7684">pool; only slow within-run</text>
<text x="918.0" y="846.8" text-anchor="middle" font-family="Helvetica, Arial, sans-serif" font-size="18" font-weight="normal" fill="#6b7684">drift</text>
<rect x="1116.0" y="530.0" width="316.0" height="322.0" rx="14" fill="white" stroke="#6b7684" stroke-width="2"/>
<text x="1274.0" y="560.0" text-anchor="middle" font-family="Helvetica, Arial, sans-serif" font-size="20" font-weight="bold" fill="#3a7d44">Fresh answers refill spread —</text>
<text x="1274.0" y="586.0" text-anchor="middle" font-family="Helvetica, Arial, sans-serif" font-size="20" font-weight="bold" fill="#3a7d44">the selector gap returns</text>
<line x1="1156.0" y1="744.0" x2="1392.0" y2="744.0" stroke="#d8dde3" stroke-width="2"/>
<path d="M 1156.0 637.8 L 1234.7 679.1 L 1313.3 642.5 L 1392.0 649.6" fill="none" stroke="#2867b5" stroke-width="3.4" stroke-linecap="round" stroke-linejoin="round"/>
<circle cx="1392.0" cy="649.6" r="5.0" fill="#2867b5" stroke="white" stroke-width="1.6"/>
<path d="M 1156.0 654.3 L 1234.7 692.1 L 1313.3 659.0 L 1392.0 666.1" fill="none" stroke="#3a7d44" stroke-width="3.4" stroke-linecap="round" stroke-linejoin="round"/>
<circle cx="1392.0" cy="666.1" r="5.0" fill="#3a7d44" stroke="white" stroke-width="1.6"/>
<line x1="1313.3" y1="644.0" x2="1313.3" y2="716.0" stroke="#9a6b15" stroke-width="1.6" stroke-dasharray="4 4"/>
<text x="1313.3" y="732.0" text-anchor="middle" font-family="Helvetica, Arial, sans-serif" font-size="18" font-weight="normal" fill="#9a6b15">fresh answers added</text>
<text x="1156.0" y="766.0" text-anchor="start" font-family="Helvetica, Arial, sans-serif" font-size="18" font-weight="normal" fill="#6b7684">round 1</text>
<text x="1392.0" y="766.0" text-anchor="end" font-family="Helvetica, Arial, sans-serif" font-size="18" font-weight="normal" fill="#6b7684">4</text>
<line x1="1144.0" y1="608.0" x2="1166.0" y2="608.0" stroke="#2867b5" stroke-width="3.4" stroke-linecap="round"/>
<text x="1172.0" y="613.0" text-anchor="start" font-family="Helvetica, Arial, sans-serif" font-size="18" font-weight="normal" fill="#1a1a1a">spread</text>
<line x1="1243.6" y1="608.0" x2="1265.6" y2="608.0" stroke="#3a7d44" stroke-width="3.4" stroke-linecap="round"/>
<text x="1271.6" y="613.0" text-anchor="start" font-family="Helvetica, Arial, sans-serif" font-size="18" font-weight="normal" fill="#1a1a1a">selector gap</text>
<text x="1274.0" y="800.0" text-anchor="middle" font-family="Helvetica, Arial, sans-serif" font-size="18" font-weight="normal" fill="#6b7684">restore the spread and the</text>
<text x="1274.0" y="823.4" text-anchor="middle" font-family="Helvetica, Arial, sans-serif" font-size="18" font-weight="normal" fill="#6b7684">movement comes back</text>
<text x="740.0" y="892.0" text-anchor="middle" font-family="Helvetica, Arial, sans-serif" font-size="18" font-weight="normal" fill="#1a1a1a">Unit-form forecast, no fitted coefficient: selector gap ≈ agreement × spread fits the 290 agreement-scored rounds at R² 0.810, mean absolute error</text>
<text x="740.0" y="915.4" text-anchor="middle" font-family="Helvetica, Arial, sans-serif" font-size="18" font-weight="normal" fill="#1a1a1a">0.042 in value units; agreement × spread tracks the selector gap at r = 0.90.</text>
<text x="740.0" y="944.0" text-anchor="middle" font-family="Helvetica, Arial, sans-serif" font-size="16" font-weight="normal" fill="#6b7684">Source: experiments/spread_util_unified.json (factorization) · experiments/selection_response_predictor.json (unit-form proxy)</text>
</svg>